ISO-10303-21;
HEADER;
/* Generated by software containing ST-Developer
 * from STEP Tools, Inc. (www.steptools.com) 
 */

FILE_DESCRIPTION(
/* description */ (''),
/* implementation_level */ '2;1');

FILE_NAME(
/* name */ '7in Touch Display IO Cover.stp',
/* time_stamp */ '2026-02-05T23:53:15-05:00',
/* author */ ('JoshuaEah'),
/* organization */ (''),
/* preprocessor_version */ 'ST-DEVELOPER v20.1',
/* originating_system */ 'Autodesk Inventor 2026',
/* authorisation */ '');

FILE_SCHEMA (('AUTOMOTIVE_DESIGN { 1 0 10303 214 3 1 1 }'));
ENDSEC;

DATA;
#10=MECHANICAL_DESIGN_GEOMETRIC_PRESENTATION_REPRESENTATION('',(#13),#604);
#11=SHAPE_REPRESENTATION_RELATIONSHIP('SRR','None',#611,#12);
#12=ADVANCED_BREP_SHAPE_REPRESENTATION('',(#14),#603);
#13=STYLED_ITEM('',(#620),#14);
#14=MANIFOLD_SOLID_BREP('Solid7',#351);
#15=FACE_BOUND('',#55,.T.);
#16=FACE_BOUND('',#59,.T.);
#17=CYLINDRICAL_SURFACE('',#382,0.5);
#18=CYLINDRICAL_SURFACE('',#385,0.5);
#19=CYLINDRICAL_SURFACE('',#388,0.5);
#20=CYLINDRICAL_SURFACE('',#391,0.5);
#21=CYLINDRICAL_SURFACE('',#398,2.5);
#22=CYLINDRICAL_SURFACE('',#400,1.);
#23=FACE_OUTER_BOUND('',#41,.T.);
#24=FACE_OUTER_BOUND('',#42,.T.);
#25=FACE_OUTER_BOUND('',#43,.T.);
#26=FACE_OUTER_BOUND('',#44,.T.);
#27=FACE_OUTER_BOUND('',#45,.T.);
#28=FACE_OUTER_BOUND('',#46,.T.);
#29=FACE_OUTER_BOUND('',#47,.T.);
#30=FACE_OUTER_BOUND('',#48,.T.);
#31=FACE_OUTER_BOUND('',#49,.T.);
#32=FACE_OUTER_BOUND('',#50,.T.);
#33=FACE_OUTER_BOUND('',#51,.T.);
#34=FACE_OUTER_BOUND('',#52,.T.);
#35=FACE_OUTER_BOUND('',#53,.T.);
#36=FACE_OUTER_BOUND('',#54,.T.);
#37=FACE_OUTER_BOUND('',#56,.T.);
#38=FACE_OUTER_BOUND('',#57,.T.);
#39=FACE_OUTER_BOUND('',#58,.T.);
#40=FACE_OUTER_BOUND('',#60,.T.);
#41=EDGE_LOOP('',(#225,#226,#227,#228,#229,#230,#231,#232,#233));
#42=EDGE_LOOP('',(#234,#235,#236,#237,#238,#239,#240,#241,#242));
#43=EDGE_LOOP('',(#243,#244,#245,#246));
#44=EDGE_LOOP('',(#247,#248,#249,#250));
#45=EDGE_LOOP('',(#251,#252,#253,#254));
#46=EDGE_LOOP('',(#255,#256,#257,#258));
#47=EDGE_LOOP('',(#259,#260,#261,#262));
#48=EDGE_LOOP('',(#263,#264,#265,#266));
#49=EDGE_LOOP('',(#267,#268,#269,#270));
#50=EDGE_LOOP('',(#271,#272,#273,#274,#275,#276,#277,#278));
#51=EDGE_LOOP('',(#279,#280,#281,#282));
#52=EDGE_LOOP('',(#283,#284,#285,#286,#287,#288,#289,#290));
#53=EDGE_LOOP('',(#291,#292,#293,#294));
#54=EDGE_LOOP('',(#295,#296,#297,#298,#299,#300));
#55=EDGE_LOOP('',(#301));
#56=EDGE_LOOP('',(#302,#303,#304,#305));
#57=EDGE_LOOP('',(#306,#307,#308,#309));
#58=EDGE_LOOP('',(#310,#311,#312,#313,#314,#315));
#59=EDGE_LOOP('',(#316));
#60=EDGE_LOOP('',(#317,#318,#319,#320));
#61=CIRCLE('',#375,0.5);
#62=CIRCLE('',#376,0.5);
#63=CIRCLE('',#378,0.5);
#64=CIRCLE('',#379,0.5);
#65=CIRCLE('',#383,0.5);
#66=CIRCLE('',#386,0.5);
#67=CIRCLE('',#389,0.5);
#68=CIRCLE('',#392,0.5);
#69=CIRCLE('',#396,2.5);
#70=CIRCLE('',#397,1.);
#71=CIRCLE('',#399,2.5);
#72=CIRCLE('',#401,1.);
#73=LINE('',#506,#109);
#74=LINE('',#508,#110);
#75=LINE('',#510,#111);
#76=LINE('',#514,#112);
#77=LINE('',#518,#113);
#78=LINE('',#520,#114);
#79=LINE('',#521,#115);
#80=LINE('',#525,#116);
#81=LINE('',#527,#117);
#82=LINE('',#529,#118);
#83=LINE('',#531,#119);
#84=LINE('',#535,#120);
#85=LINE('',#539,#121);
#86=LINE('',#540,#122);
#87=LINE('',#542,#123);
#88=LINE('',#543,#124);
#89=LINE('',#545,#125);
#90=LINE('',#548,#126);
#91=LINE('',#551,#127);
#92=LINE('',#554,#128);
#93=LINE('',#555,#129);
#94=LINE('',#558,#130);
#95=LINE('',#561,#131);
#96=LINE('',#564,#132);
#97=LINE('',#565,#133);
#98=LINE('',#569,#134);
#99=LINE('',#572,#135);
#100=LINE('',#574,#136);
#101=LINE('',#576,#137);
#102=LINE('',#577,#138);
#103=LINE('',#578,#139);
#104=LINE('',#583,#140);
#105=LINE('',#585,#141);
#106=LINE('',#586,#142);
#107=LINE('',#588,#143);
#108=LINE('',#597,#144);
#109=VECTOR('',#408,10.);
#110=VECTOR('',#409,10.);
#111=VECTOR('',#410,10.);
#112=VECTOR('',#413,10.);
#113=VECTOR('',#416,10.);
#114=VECTOR('',#417,10.);
#115=VECTOR('',#418,10.);
#116=VECTOR('',#421,10.);
#117=VECTOR('',#422,10.);
#118=VECTOR('',#423,10.);
#119=VECTOR('',#424,10.);
#120=VECTOR('',#427,10.);
#121=VECTOR('',#430,10.);
#122=VECTOR('',#431,10.);
#123=VECTOR('',#434,10.);
#124=VECTOR('',#435,10.);
#125=VECTOR('',#438,10.);
#126=VECTOR('',#441,10.);
#127=VECTOR('',#444,10.);
#128=VECTOR('',#447,10.);
#129=VECTOR('',#448,10.);
#130=VECTOR('',#451,10.);
#131=VECTOR('',#454,10.);
#132=VECTOR('',#457,10.);
#133=VECTOR('',#458,10.);
#134=VECTOR('',#463,10.);
#135=VECTOR('',#466,10.);
#136=VECTOR('',#467,10.);
#137=VECTOR('',#468,10.);
#138=VECTOR('',#469,10.);
#139=VECTOR('',#470,10.);
#140=VECTOR('',#477,10.);
#141=VECTOR('',#478,10.);
#142=VECTOR('',#479,10.);
#143=VECTOR('',#482,10.);
#144=VECTOR('',#495,1.);
#145=VERTEX_POINT('',#504);
#146=VERTEX_POINT('',#505);
#147=VERTEX_POINT('',#507);
#148=VERTEX_POINT('',#509);
#149=VERTEX_POINT('',#511);
#150=VERTEX_POINT('',#513);
#151=VERTEX_POINT('',#515);
#152=VERTEX_POINT('',#517);
#153=VERTEX_POINT('',#519);
#154=VERTEX_POINT('',#523);
#155=VERTEX_POINT('',#524);
#156=VERTEX_POINT('',#526);
#157=VERTEX_POINT('',#528);
#158=VERTEX_POINT('',#530);
#159=VERTEX_POINT('',#532);
#160=VERTEX_POINT('',#534);
#161=VERTEX_POINT('',#536);
#162=VERTEX_POINT('',#538);
#163=VERTEX_POINT('',#547);
#164=VERTEX_POINT('',#549);
#165=VERTEX_POINT('',#553);
#166=VERTEX_POINT('',#557);
#167=VERTEX_POINT('',#559);
#168=VERTEX_POINT('',#563);
#169=VERTEX_POINT('',#567);
#170=VERTEX_POINT('',#571);
#171=VERTEX_POINT('',#573);
#172=VERTEX_POINT('',#575);
#173=VERTEX_POINT('',#582);
#174=VERTEX_POINT('',#584);
#175=VERTEX_POINT('',#591);
#176=VERTEX_POINT('',#596);
#177=EDGE_CURVE('',#145,#146,#73,.T.);
#178=EDGE_CURVE('',#146,#147,#74,.T.);
#179=EDGE_CURVE('',#147,#148,#75,.T.);
#180=EDGE_CURVE('',#149,#148,#61,.T.);
#181=EDGE_CURVE('',#150,#149,#76,.T.);
#182=EDGE_CURVE('',#151,#150,#62,.T.);
#183=EDGE_CURVE('',#151,#152,#77,.T.);
#184=EDGE_CURVE('',#153,#152,#78,.T.);
#185=EDGE_CURVE('',#145,#153,#79,.T.);
#186=EDGE_CURVE('',#154,#155,#80,.T.);
#187=EDGE_CURVE('',#156,#155,#81,.T.);
#188=EDGE_CURVE('',#157,#156,#82,.T.);
#189=EDGE_CURVE('',#158,#157,#83,.T.);
#190=EDGE_CURVE('',#159,#158,#63,.T.);
#191=EDGE_CURVE('',#160,#159,#84,.T.);
#192=EDGE_CURVE('',#161,#160,#64,.T.);
#193=EDGE_CURVE('',#161,#162,#85,.T.);
#194=EDGE_CURVE('',#162,#154,#86,.T.);
#195=EDGE_CURVE('',#146,#154,#87,.T.);
#196=EDGE_CURVE('',#155,#145,#88,.T.);
#197=EDGE_CURVE('',#147,#162,#89,.T.);
#198=EDGE_CURVE('',#148,#163,#90,.T.);
#199=EDGE_CURVE('',#163,#164,#65,.F.);
#200=EDGE_CURVE('',#164,#149,#91,.T.);
#201=EDGE_CURVE('',#164,#165,#92,.F.);
#202=EDGE_CURVE('',#165,#150,#93,.T.);
#203=EDGE_CURVE('',#166,#160,#94,.T.);
#204=EDGE_CURVE('',#166,#167,#66,.F.);
#205=EDGE_CURVE('',#167,#161,#95,.T.);
#206=EDGE_CURVE('',#168,#159,#96,.T.);
#207=EDGE_CURVE('',#168,#166,#97,.F.);
#208=EDGE_CURVE('',#165,#169,#67,.F.);
#209=EDGE_CURVE('',#169,#151,#98,.T.);
#210=EDGE_CURVE('',#169,#170,#99,.T.);
#211=EDGE_CURVE('',#171,#170,#100,.T.);
#212=EDGE_CURVE('',#172,#171,#101,.T.);
#213=EDGE_CURVE('',#172,#158,#102,.T.);
#214=EDGE_CURVE('',#152,#157,#103,.T.);
#215=EDGE_CURVE('',#172,#168,#68,.F.);
#216=EDGE_CURVE('',#167,#173,#104,.T.);
#217=EDGE_CURVE('',#174,#173,#105,.T.);
#218=EDGE_CURVE('',#163,#174,#106,.T.);
#219=EDGE_CURVE('',#156,#153,#107,.T.);
#220=EDGE_CURVE('',#173,#171,#69,.T.);
#221=EDGE_CURVE('',#175,#175,#70,.T.);
#222=EDGE_CURVE('',#170,#174,#71,.T.);
#223=EDGE_CURVE('',#175,#176,#108,.T.);
#224=EDGE_CURVE('',#176,#176,#72,.T.);
#225=ORIENTED_EDGE('',*,*,#177,.T.);
#226=ORIENTED_EDGE('',*,*,#178,.T.);
#227=ORIENTED_EDGE('',*,*,#179,.T.);
#228=ORIENTED_EDGE('',*,*,#180,.F.);
#229=ORIENTED_EDGE('',*,*,#181,.F.);
#230=ORIENTED_EDGE('',*,*,#182,.F.);
#231=ORIENTED_EDGE('',*,*,#183,.T.);
#232=ORIENTED_EDGE('',*,*,#184,.F.);
#233=ORIENTED_EDGE('',*,*,#185,.F.);
#234=ORIENTED_EDGE('',*,*,#186,.T.);
#235=ORIENTED_EDGE('',*,*,#187,.F.);
#236=ORIENTED_EDGE('',*,*,#188,.F.);
#237=ORIENTED_EDGE('',*,*,#189,.F.);
#238=ORIENTED_EDGE('',*,*,#190,.F.);
#239=ORIENTED_EDGE('',*,*,#191,.F.);
#240=ORIENTED_EDGE('',*,*,#192,.F.);
#241=ORIENTED_EDGE('',*,*,#193,.T.);
#242=ORIENTED_EDGE('',*,*,#194,.T.);
#243=ORIENTED_EDGE('',*,*,#195,.F.);
#244=ORIENTED_EDGE('',*,*,#177,.F.);
#245=ORIENTED_EDGE('',*,*,#196,.F.);
#246=ORIENTED_EDGE('',*,*,#186,.F.);
#247=ORIENTED_EDGE('',*,*,#195,.T.);
#248=ORIENTED_EDGE('',*,*,#194,.F.);
#249=ORIENTED_EDGE('',*,*,#197,.F.);
#250=ORIENTED_EDGE('',*,*,#178,.F.);
#251=ORIENTED_EDGE('',*,*,#198,.T.);
#252=ORIENTED_EDGE('',*,*,#199,.T.);
#253=ORIENTED_EDGE('',*,*,#200,.T.);
#254=ORIENTED_EDGE('',*,*,#180,.T.);
#255=ORIENTED_EDGE('',*,*,#200,.F.);
#256=ORIENTED_EDGE('',*,*,#201,.T.);
#257=ORIENTED_EDGE('',*,*,#202,.T.);
#258=ORIENTED_EDGE('',*,*,#181,.T.);
#259=ORIENTED_EDGE('',*,*,#203,.F.);
#260=ORIENTED_EDGE('',*,*,#204,.T.);
#261=ORIENTED_EDGE('',*,*,#205,.T.);
#262=ORIENTED_EDGE('',*,*,#192,.T.);
#263=ORIENTED_EDGE('',*,*,#203,.T.);
#264=ORIENTED_EDGE('',*,*,#191,.T.);
#265=ORIENTED_EDGE('',*,*,#206,.F.);
#266=ORIENTED_EDGE('',*,*,#207,.T.);
#267=ORIENTED_EDGE('',*,*,#202,.F.);
#268=ORIENTED_EDGE('',*,*,#208,.T.);
#269=ORIENTED_EDGE('',*,*,#209,.T.);
#270=ORIENTED_EDGE('',*,*,#182,.T.);
#271=ORIENTED_EDGE('',*,*,#209,.F.);
#272=ORIENTED_EDGE('',*,*,#210,.T.);
#273=ORIENTED_EDGE('',*,*,#211,.F.);
#274=ORIENTED_EDGE('',*,*,#212,.F.);
#275=ORIENTED_EDGE('',*,*,#213,.T.);
#276=ORIENTED_EDGE('',*,*,#189,.T.);
#277=ORIENTED_EDGE('',*,*,#214,.F.);
#278=ORIENTED_EDGE('',*,*,#183,.F.);
#279=ORIENTED_EDGE('',*,*,#213,.F.);
#280=ORIENTED_EDGE('',*,*,#215,.T.);
#281=ORIENTED_EDGE('',*,*,#206,.T.);
#282=ORIENTED_EDGE('',*,*,#190,.T.);
#283=ORIENTED_EDGE('',*,*,#198,.F.);
#284=ORIENTED_EDGE('',*,*,#179,.F.);
#285=ORIENTED_EDGE('',*,*,#197,.T.);
#286=ORIENTED_EDGE('',*,*,#193,.F.);
#287=ORIENTED_EDGE('',*,*,#205,.F.);
#288=ORIENTED_EDGE('',*,*,#216,.T.);
#289=ORIENTED_EDGE('',*,*,#217,.F.);
#290=ORIENTED_EDGE('',*,*,#218,.F.);
#291=ORIENTED_EDGE('',*,*,#219,.T.);
#292=ORIENTED_EDGE('',*,*,#184,.T.);
#293=ORIENTED_EDGE('',*,*,#214,.T.);
#294=ORIENTED_EDGE('',*,*,#188,.T.);
#295=ORIENTED_EDGE('',*,*,#220,.F.);
#296=ORIENTED_EDGE('',*,*,#216,.F.);
#297=ORIENTED_EDGE('',*,*,#204,.F.);
#298=ORIENTED_EDGE('',*,*,#207,.F.);
#299=ORIENTED_EDGE('',*,*,#215,.F.);
#300=ORIENTED_EDGE('',*,*,#212,.T.);
#301=ORIENTED_EDGE('',*,*,#221,.T.);
#302=ORIENTED_EDGE('',*,*,#220,.T.);
#303=ORIENTED_EDGE('',*,*,#211,.T.);
#304=ORIENTED_EDGE('',*,*,#222,.T.);
#305=ORIENTED_EDGE('',*,*,#217,.T.);
#306=ORIENTED_EDGE('',*,*,#221,.F.);
#307=ORIENTED_EDGE('',*,*,#223,.T.);
#308=ORIENTED_EDGE('',*,*,#224,.F.);
#309=ORIENTED_EDGE('',*,*,#223,.F.);
#310=ORIENTED_EDGE('',*,*,#222,.F.);
#311=ORIENTED_EDGE('',*,*,#210,.F.);
#312=ORIENTED_EDGE('',*,*,#208,.F.);
#313=ORIENTED_EDGE('',*,*,#201,.F.);
#314=ORIENTED_EDGE('',*,*,#199,.F.);
#315=ORIENTED_EDGE('',*,*,#218,.T.);
#316=ORIENTED_EDGE('',*,*,#224,.T.);
#317=ORIENTED_EDGE('',*,*,#196,.T.);
#318=ORIENTED_EDGE('',*,*,#185,.T.);
#319=ORIENTED_EDGE('',*,*,#219,.F.);
#320=ORIENTED_EDGE('',*,*,#187,.T.);
#321=PLANE('',#374);
#322=PLANE('',#377);
#323=PLANE('',#380);
#324=PLANE('',#381);
#325=PLANE('',#384);
#326=PLANE('',#387);
#327=PLANE('',#390);
#328=PLANE('',#393);
#329=PLANE('',#394);
#330=PLANE('',#395);
#331=PLANE('',#402);
#332=PLANE('',#403);
#333=ADVANCED_FACE('',(#23),#321,.T.);
#334=ADVANCED_FACE('',(#24),#322,.T.);
#335=ADVANCED_FACE('',(#25),#323,.T.);
#336=ADVANCED_FACE('',(#26),#324,.F.);
#337=ADVANCED_FACE('',(#27),#17,.T.);
#338=ADVANCED_FACE('',(#28),#325,.T.);
#339=ADVANCED_FACE('',(#29),#18,.T.);
#340=ADVANCED_FACE('',(#30),#326,.T.);
#341=ADVANCED_FACE('',(#31),#19,.T.);
#342=ADVANCED_FACE('',(#32),#327,.T.);
#343=ADVANCED_FACE('',(#33),#20,.T.);
#344=ADVANCED_FACE('',(#34),#328,.T.);
#345=ADVANCED_FACE('',(#35),#329,.T.);
#346=ADVANCED_FACE('',(#36,#15),#330,.T.);
#347=ADVANCED_FACE('',(#37),#21,.T.);
#348=ADVANCED_FACE('',(#38),#22,.F.);
#349=ADVANCED_FACE('',(#39,#16),#331,.T.);
#350=ADVANCED_FACE('',(#40),#332,.T.);
#351=CLOSED_SHELL('',(#333,#334,#335,#336,#337,#338,#339,#340,#341,#342,
#343,#344,#345,#346,#347,#348,#349,#350));
#352=DERIVED_UNIT_ELEMENT(#355,1.);
#353=DERIVED_UNIT_ELEMENT(#606,-3.);
#354=DIMENSIONAL_EXPONENTS(0.,1.,0.,0.,0.,0.,0.);
#355=(
CONVERSION_BASED_UNIT('gram',#357)
MASS_UNIT()
NAMED_UNIT(#354)
);
#356=(
MASS_UNIT()
NAMED_UNIT(*)
SI_UNIT(.KILO.,.GRAM.)
);
#357=MASS_MEASURE_WITH_UNIT(MASS_MEASURE(0.001),#356);
#358=DERIVED_UNIT((#352,#353));
#359=MEASURE_REPRESENTATION_ITEM('density measure',
POSITIVE_RATIO_MEASURE(1.06),#358);
#360=PROPERTY_DEFINITION_REPRESENTATION(#365,#362);
#361=PROPERTY_DEFINITION_REPRESENTATION(#366,#363);
#362=REPRESENTATION('material name',(#364),#603);
#363=REPRESENTATION('density',(#359),#603);
#364=DESCRIPTIVE_REPRESENTATION_ITEM('ABS Plastic','ABS Plastic');
#365=PROPERTY_DEFINITION('material property','material name',#613);
#366=PROPERTY_DEFINITION('material property','density of part',#613);
#367=DATE_TIME_ROLE('creation_date');
#368=APPLIED_DATE_AND_TIME_ASSIGNMENT(#369,#367,(#613));
#369=DATE_AND_TIME(#370,#371);
#370=CALENDAR_DATE(2026,20,1);
#371=LOCAL_TIME(0,0,0.,#372);
#372=COORDINATED_UNIVERSAL_TIME_OFFSET(0,0,.BEHIND.);
#373=AXIS2_PLACEMENT_3D('',#502,#404,#405);
#374=AXIS2_PLACEMENT_3D('',#503,#406,#407);
#375=AXIS2_PLACEMENT_3D('',#512,#411,#412);
#376=AXIS2_PLACEMENT_3D('',#516,#414,#415);
#377=AXIS2_PLACEMENT_3D('',#522,#419,#420);
#378=AXIS2_PLACEMENT_3D('',#533,#425,#426);
#379=AXIS2_PLACEMENT_3D('',#537,#428,#429);
#380=AXIS2_PLACEMENT_3D('',#541,#432,#433);
#381=AXIS2_PLACEMENT_3D('',#544,#436,#437);
#382=AXIS2_PLACEMENT_3D('',#546,#439,#440);
#383=AXIS2_PLACEMENT_3D('',#550,#442,#443);
#384=AXIS2_PLACEMENT_3D('',#552,#445,#446);
#385=AXIS2_PLACEMENT_3D('',#556,#449,#450);
#386=AXIS2_PLACEMENT_3D('',#560,#452,#453);
#387=AXIS2_PLACEMENT_3D('',#562,#455,#456);
#388=AXIS2_PLACEMENT_3D('',#566,#459,#460);
#389=AXIS2_PLACEMENT_3D('',#568,#461,#462);
#390=AXIS2_PLACEMENT_3D('',#570,#464,#465);
#391=AXIS2_PLACEMENT_3D('',#579,#471,#472);
#392=AXIS2_PLACEMENT_3D('',#580,#473,#474);
#393=AXIS2_PLACEMENT_3D('',#581,#475,#476);
#394=AXIS2_PLACEMENT_3D('',#587,#480,#481);
#395=AXIS2_PLACEMENT_3D('',#589,#483,#484);
#396=AXIS2_PLACEMENT_3D('',#590,#485,#486);
#397=AXIS2_PLACEMENT_3D('',#592,#487,#488);
#398=AXIS2_PLACEMENT_3D('',#593,#489,#490);
#399=AXIS2_PLACEMENT_3D('',#594,#491,#492);
#400=AXIS2_PLACEMENT_3D('',#595,#493,#494);
#401=AXIS2_PLACEMENT_3D('',#598,#496,#497);
#402=AXIS2_PLACEMENT_3D('',#599,#498,#499);
#403=AXIS2_PLACEMENT_3D('',#600,#500,#501);
#404=DIRECTION('axis',(0.,0.,1.));
#405=DIRECTION('refdir',(1.,0.,0.));
#406=DIRECTION('center_axis',(-1.,1.11022302462516E-16,0.));
#407=DIRECTION('ref_axis',(-1.11022302462516E-16,-1.,0.));
#408=DIRECTION('',(0.,0.,-1.));
#409=DIRECTION('',(-1.11022302462516E-16,-1.,0.));
#410=DIRECTION('',(0.,0.,-1.));
#411=DIRECTION('center_axis',(1.,-1.11022302462516E-16,0.));
#412=DIRECTION('ref_axis',(0.,0.923879532511287,-0.382683432365089));
#413=DIRECTION('',(7.85046229341888E-17,0.707106781186548,0.707106781186548));
#414=DIRECTION('center_axis',(1.,-1.11022302462516E-16,0.));
#415=DIRECTION('ref_axis',(0.,-0.382683432365091,-0.923879532511286));
#416=DIRECTION('',(0.,0.,1.));
#417=DIRECTION('',(-7.85046229341888E-17,-0.707106781186548,-0.707106781186548));
#418=DIRECTION('',(-1.11022302462516E-16,-1.,0.));
#419=DIRECTION('center_axis',(1.,0.,0.));
#420=DIRECTION('ref_axis',(0.,1.,0.));
#421=DIRECTION('',(0.,0.,1.));
#422=DIRECTION('',(0.,1.,0.));
#423=DIRECTION('',(0.,0.707106781186548,0.707106781186548));
#424=DIRECTION('',(0.,0.,1.));
#425=DIRECTION('center_axis',(-1.,0.,0.));
#426=DIRECTION('ref_axis',(0.,-0.382683432365091,-0.923879532511286));
#427=DIRECTION('',(0.,-0.707106781186548,-0.707106781186548));
#428=DIRECTION('center_axis',(-1.,0.,0.));
#429=DIRECTION('ref_axis',(0.,0.923879532511287,-0.382683432365089));
#430=DIRECTION('',(0.,0.,1.));
#431=DIRECTION('',(0.,1.,0.));
#432=DIRECTION('center_axis',(-1.48029736616688E-16,1.,0.));
#433=DIRECTION('ref_axis',(-1.,-1.48029736616688E-16,0.));
#434=DIRECTION('',(1.,1.48029736616688E-16,0.));
#435=DIRECTION('',(-1.,1.11022302462516E-16,0.));
#436=DIRECTION('center_axis',(0.,0.,1.));
#437=DIRECTION('ref_axis',(1.,0.,0.));
#438=DIRECTION('',(1.,0.,0.));
#439=DIRECTION('center_axis',(1.,4.93432455388958E-16,-6.9726111936842E-32));
#440=DIRECTION('ref_axis',(0.,0.923879532511287,-0.382683432365089));
#441=DIRECTION('',(1.,4.93432455388958E-16,-6.9726111936842E-32));
#442=DIRECTION('center_axis',(1.,0.,0.));
#443=DIRECTION('ref_axis',(0.,0.923879532511287,-0.382683432365089));
#444=DIRECTION('',(-1.,-4.93432455388958E-16,6.9726111936842E-32));
#445=DIRECTION('center_axis',(-3.48909435263061E-16,0.707106781186548,-0.707106781186548));
#446=DIRECTION('ref_axis',(-1.,0.,4.93432455388958E-16));
#447=DIRECTION('',(0.,0.707106781186548,0.707106781186548));
#448=DIRECTION('',(-1.,1.11022302462516E-16,0.));
#449=DIRECTION('center_axis',(1.,4.93432455388958E-16,-6.9726111936842E-32));
#450=DIRECTION('ref_axis',(0.,0.923879532511287,-0.382683432365089));
#451=DIRECTION('',(1.,0.,0.));
#452=DIRECTION('center_axis',(-1.,0.,0.));
#453=DIRECTION('ref_axis',(0.,0.923879532511287,-0.382683432365089));
#454=DIRECTION('',(1.,4.93432455388958E-16,-6.9726111936842E-32));
#455=DIRECTION('center_axis',(-3.48909435263061E-16,0.707106781186548,-0.707106781186548));
#456=DIRECTION('ref_axis',(-1.,0.,4.93432455388958E-16));
#457=DIRECTION('',(1.,-2.4671622769448E-17,-5.18104078158407E-16));
#458=DIRECTION('',(0.,-0.707106781186548,-0.707106781186548));
#459=DIRECTION('center_axis',(1.,-2.46716227694479E-17,-5.18104078158407E-16));
#460=DIRECTION('ref_axis',(0.,-0.382683432365091,-0.923879532511286));
#461=DIRECTION('center_axis',(1.,0.,0.));
#462=DIRECTION('ref_axis',(0.,-0.382683432365091,-0.923879532511286));
#463=DIRECTION('',(-1.,2.46716227694479E-17,5.18104078158407E-16));
#464=DIRECTION('center_axis',(-2.46716227694479E-17,-1.,0.));
#465=DIRECTION('ref_axis',(1.,-2.46716227694479E-17,0.));
#466=DIRECTION('',(0.,0.,-1.));
#467=DIRECTION('',(-1.,2.46716227694479E-17,0.));
#468=DIRECTION('',(0.,0.,-1.));
#469=DIRECTION('',(1.,0.,0.));
#470=DIRECTION('',(1.,-2.46716227694479E-17,0.));
#471=DIRECTION('center_axis',(1.,-2.46716227694479E-17,-5.18104078158407E-16));
#472=DIRECTION('ref_axis',(0.,-0.382683432365091,-0.923879532511286));
#473=DIRECTION('center_axis',(-1.,0.,0.));
#474=DIRECTION('ref_axis',(0.,-0.382683432365091,-0.923879532511286));
#475=DIRECTION('center_axis',(-4.93432455388958E-16,1.,0.));
#476=DIRECTION('ref_axis',(1.,4.93432455388958E-16,0.));
#477=DIRECTION('',(0.,0.,-1.));
#478=DIRECTION('',(1.,4.93432455388958E-16,0.));
#479=DIRECTION('',(0.,0.,-1.));
#480=DIRECTION('center_axis',(-1.74454717631531E-17,-0.707106781186548,
0.707106781186548));
#481=DIRECTION('ref_axis',(1.,0.,2.46716227694479E-17));
#482=DIRECTION('',(-1.,1.11022302462516E-16,0.));
#483=DIRECTION('center_axis',(1.,0.,0.));
#484=DIRECTION('ref_axis',(0.,-1.,0.));
#485=DIRECTION('center_axis',(-1.,0.,0.));
#486=DIRECTION('ref_axis',(0.,-0.707106781186547,-0.707106781186547));
#487=DIRECTION('center_axis',(-1.,0.,0.));
#488=DIRECTION('ref_axis',(0.,0.,-1.));
#489=DIRECTION('center_axis',(1.,4.93432455388958E-16,0.));
#490=DIRECTION('ref_axis',(0.,0.707106781186547,-0.707106781186548));
#491=DIRECTION('center_axis',(1.,0.,0.));
#492=DIRECTION('ref_axis',(0.,0.707106781186547,-0.707106781186548));
#493=DIRECTION('center_axis',(1.,0.,0.));
#494=DIRECTION('ref_axis',(0.,0.,-1.));
#495=DIRECTION('',(-1.,0.,0.));
#496=DIRECTION('center_axis',(1.,0.,0.));
#497=DIRECTION('ref_axis',(0.,0.,-1.));
#498=DIRECTION('center_axis',(-1.,0.,0.));
#499=DIRECTION('ref_axis',(0.,1.,0.));
#500=DIRECTION('center_axis',(0.,0.,1.));
#501=DIRECTION('ref_axis',(1.,0.,0.));
#502=CARTESIAN_POINT('',(0.,0.,0.));
#503=CARTESIAN_POINT('Origin',(-0.399999999999999,9.99999999999999,0.));
#504=CARTESIAN_POINT('',(-0.4,9.59999999999999,13.));
#505=CARTESIAN_POINT('',(-0.399999999999999,9.59999999999999,10.));
#506=CARTESIAN_POINT('',(-0.4,9.59999999999999,0.));
#507=CARTESIAN_POINT('',(-0.4,4.99999999999999,10.));
#508=CARTESIAN_POINT('',(-0.4,8.74999999999999,10.));
#509=CARTESIAN_POINT('',(-0.4,4.99999999999999,5.20710678118655));
#510=CARTESIAN_POINT('',(-0.4,4.99999999999999,0.));
#511=CARTESIAN_POINT('',(-0.4,4.85355339059326,4.85355339059327));
#512=CARTESIAN_POINT('Origin',(-0.399999999999996,4.49999999999999,5.20710678118655));
#513=CARTESIAN_POINT('',(-0.4,0.853553390593275,0.853553390593285));
#514=CARTESIAN_POINT('',(-0.4,3.74999999999999,3.75));
#515=CARTESIAN_POINT('',(-0.4,4.44089209850063E-17,1.20710678118656));
#516=CARTESIAN_POINT('Origin',(-0.399999999999998,0.5,1.20710678118656));
#517=CARTESIAN_POINT('',(-0.4,4.44089209850063E-17,10.));
#518=CARTESIAN_POINT('',(-0.4,4.44089209850063E-17,0.));
#519=CARTESIAN_POINT('',(-0.4,3.,13.));
#520=CARTESIAN_POINT('',(-0.4,0.749999999999999,10.75));
#521=CARTESIAN_POINT('',(-0.399999999999999,9.99999999999999,13.));
#522=CARTESIAN_POINT('Origin',(45.4,-1.11022302462516E-15,0.));
#523=CARTESIAN_POINT('',(45.4,9.6,10.));
#524=CARTESIAN_POINT('',(45.4,9.6,13.));
#525=CARTESIAN_POINT('',(45.4,9.6,0.));
#526=CARTESIAN_POINT('',(45.4,3.,13.));
#527=CARTESIAN_POINT('',(45.4,-1.11022302462516E-15,13.));
#528=CARTESIAN_POINT('',(45.4,-1.11022302462516E-15,10.));
#529=CARTESIAN_POINT('',(45.4,-1.75,8.25));
#530=CARTESIAN_POINT('',(45.4,-1.11022302462516E-15,1.20710678118654));
#531=CARTESIAN_POINT('',(45.4,-1.11022302462516E-15,0.));
#532=CARTESIAN_POINT('',(45.4,0.853553390593273,0.853553390593262));
#533=CARTESIAN_POINT('Origin',(45.4,0.499999999999999,1.20710678118654));
#534=CARTESIAN_POINT('',(45.4,4.85355339059328,4.85355339059327));
#535=CARTESIAN_POINT('',(45.4,1.25,1.24999999999999));
#536=CARTESIAN_POINT('',(45.4,5.00000000000001,5.20710678118655));
#537=CARTESIAN_POINT('Origin',(45.4,4.50000000000001,5.20710678118655));
#538=CARTESIAN_POINT('',(45.4,5.00000000000001,10.));
#539=CARTESIAN_POINT('',(45.4,5.00000000000001,0.));
#540=CARTESIAN_POINT('',(45.4,3.75,10.));
#541=CARTESIAN_POINT('Origin',(45.,9.6,0.));
#542=CARTESIAN_POINT('',(33.75,9.6,10.));
#543=CARTESIAN_POINT('',(5.9211894646675E-17,9.59999999999999,13.));
#544=CARTESIAN_POINT('Origin',(22.5,7.49999999999999,10.));
#545=CARTESIAN_POINT('',(45.,5.00000000000001,10.));
#546=CARTESIAN_POINT('Origin',(13.125,4.5,5.20710678118655));
#547=CARTESIAN_POINT('',(10.,4.99999999999999,5.20710678118655));
#548=CARTESIAN_POINT('',(13.125,5.,5.20710678118655));
#549=CARTESIAN_POINT('',(10.,4.85355339059327,4.85355339059327));
#550=CARTESIAN_POINT('Origin',(10.,4.49999999999999,5.20710678118655));
#551=CARTESIAN_POINT('',(13.125,4.85355339059327,4.85355339059327));
#552=CARTESIAN_POINT('Origin',(16.25,2.5,2.5));
#553=CARTESIAN_POINT('',(10.,0.853553390593273,0.85355339059328));
#554=CARTESIAN_POINT('',(10.,1.25,1.25));
#555=CARTESIAN_POINT('',(-3.21570171536081E-16,0.853553390593275,0.853553390593285));
#556=CARTESIAN_POINT('Origin',(13.125,4.5,5.20710678118655));
#557=CARTESIAN_POINT('',(35.,4.85355339059328,4.85355339059327));
#558=CARTESIAN_POINT('',(45.,4.85355339059328,4.85355339059327));
#559=CARTESIAN_POINT('',(35.,5.00000000000001,5.20710678118655));
#560=CARTESIAN_POINT('Origin',(35.,4.50000000000001,5.20710678118655));
#561=CARTESIAN_POINT('',(13.125,5.,5.20710678118655));
#562=CARTESIAN_POINT('Origin',(16.25,2.5,2.5));
#563=CARTESIAN_POINT('',(35.,0.853553390593273,0.853553390593266));
#564=CARTESIAN_POINT('',(8.125,0.853553390593273,0.853553390593281));
#565=CARTESIAN_POINT('',(35.,2.5,2.5));
#566=CARTESIAN_POINT('Origin',(8.125,0.5,1.20710678118655));
#567=CARTESIAN_POINT('',(10.,-2.54426109809932E-16,1.20710678118655));
#568=CARTESIAN_POINT('Origin',(10.,0.5,1.20710678118655));
#569=CARTESIAN_POINT('',(8.125,-2.08166817117217E-16,1.20710678118655));
#570=CARTESIAN_POINT('Origin',(0.,0.,0.));
#571=CARTESIAN_POINT('',(10.,0.,-2.5));
#572=CARTESIAN_POINT('',(10.,0.,0.));
#573=CARTESIAN_POINT('',(35.,-1.23259516440783E-30,-2.5));
#574=CARTESIAN_POINT('',(11.25,-2.77555756156289E-16,-2.5));
#575=CARTESIAN_POINT('',(35.,-8.7121667904613E-16,1.20710678118654));
#576=CARTESIAN_POINT('',(35.,-1.23259516440783E-30,0.));
#577=CARTESIAN_POINT('',(45.,-1.11022302462516E-15,1.20710678118654));
#578=CARTESIAN_POINT('',(11.25,0.,10.));
#579=CARTESIAN_POINT('Origin',(8.125,0.5,1.20710678118655));
#580=CARTESIAN_POINT('Origin',(35.,0.499999999999999,1.20710678118654));
#581=CARTESIAN_POINT('Origin',(10.,4.99999999999999,0.));
#582=CARTESIAN_POINT('',(35.,5.00000000000001,-2.5));
#583=CARTESIAN_POINT('',(35.,5.00000000000001,0.));
#584=CARTESIAN_POINT('',(10.,4.99999999999999,-2.5));
#585=CARTESIAN_POINT('',(16.25,5.,-2.5));
#586=CARTESIAN_POINT('',(10.,4.99999999999999,0.));
#587=CARTESIAN_POINT('Origin',(11.25,1.5,11.5));
#588=CARTESIAN_POINT('',(3.33066907387547E-16,3.,13.));
#589=CARTESIAN_POINT('Origin',(35.,5.00000000000001,0.));
#590=CARTESIAN_POINT('Origin',(35.,2.5,-2.5));
#591=CARTESIAN_POINT('',(35.,2.5,-1.5));
#592=CARTESIAN_POINT('Origin',(35.,2.5,-2.5));
#593=CARTESIAN_POINT('Origin',(16.25,2.5,-2.5));
#594=CARTESIAN_POINT('Origin',(10.,2.49999999999999,-2.5));
#595=CARTESIAN_POINT('Origin',(-14.4873721266345,2.5,-2.5));
#596=CARTESIAN_POINT('',(10.,2.5,-1.5));
#597=CARTESIAN_POINT('',(-14.4873721266345,2.5,-1.5));
#598=CARTESIAN_POINT('Origin',(10.,2.5,-2.5));
#599=CARTESIAN_POINT('Origin',(10.,0.,0.));
#600=CARTESIAN_POINT('Origin',(22.5,5.,13.));
#601=UNCERTAINTY_MEASURE_WITH_UNIT(LENGTH_MEASURE(0.01),#605,
'DISTANCE_ACCURACY_VALUE',
'Maximum model space distance between geometric entities at asserted c
onnectivities');
#602=UNCERTAINTY_MEASURE_WITH_UNIT(LENGTH_MEASURE(0.01),#605,
'DISTANCE_ACCURACY_VALUE',
'Maximum model space distance between geometric entities at asserted c
onnectivities');
#603=(
GEOMETRIC_REPRESENTATION_CONTEXT(3)
GLOBAL_UNCERTAINTY_ASSIGNED_CONTEXT((#601))
GLOBAL_UNIT_ASSIGNED_CONTEXT((#605,#607,#608))
REPRESENTATION_CONTEXT('','3D')
);
#604=(
GEOMETRIC_REPRESENTATION_CONTEXT(3)
GLOBAL_UNCERTAINTY_ASSIGNED_CONTEXT((#602))
GLOBAL_UNIT_ASSIGNED_CONTEXT((#605,#607,#608))
REPRESENTATION_CONTEXT('','3D')
);
#605=(
LENGTH_UNIT()
NAMED_UNIT(*)
SI_UNIT(.MILLI.,.METRE.)
);
#606=(
LENGTH_UNIT()
NAMED_UNIT(*)
SI_UNIT(.CENTI.,.METRE.)
);
#607=(
NAMED_UNIT(*)
PLANE_ANGLE_UNIT()
SI_UNIT($,.RADIAN.)
);
#608=(
NAMED_UNIT(*)
SI_UNIT($,.STERADIAN.)
SOLID_ANGLE_UNIT()
);
#609=SHAPE_DEFINITION_REPRESENTATION(#610,#611);
#610=PRODUCT_DEFINITION_SHAPE('',$,#613);
#611=SHAPE_REPRESENTATION('',(#373),#603);
#612=PRODUCT_DEFINITION_CONTEXT('part definition',#617,'design');
#613=PRODUCT_DEFINITION('7in Touch Display',
'7in Touch Display IO Cover',#614,#612);
#614=PRODUCT_DEFINITION_FORMATION('',$,#619);
#615=PRODUCT_RELATED_PRODUCT_CATEGORY('7in Touch Display IO Cover',
'7in Touch Display IO Cover',(#619));
#616=APPLICATION_PROTOCOL_DEFINITION('international standard',
'automotive_design',2009,#617);
#617=APPLICATION_CONTEXT(
'Core Data for Automotive Mechanical Design Process');
#618=PRODUCT_CONTEXT('part definition',#617,'mechanical');
#619=PRODUCT('7in Touch Display','7in Touch Display IO Cover',$,(#618));
#620=PRESENTATION_STYLE_ASSIGNMENT((#621));
#621=SURFACE_STYLE_USAGE(.BOTH.,#624);
#622=SURFACE_STYLE_RENDERING_WITH_PROPERTIES($,#628,(#623));
#623=SURFACE_STYLE_TRANSPARENT(0.);
#624=SURFACE_SIDE_STYLE('',(#625,#622));
#625=SURFACE_STYLE_FILL_AREA(#626);
#626=FILL_AREA_STYLE('',(#627));
#627=FILL_AREA_STYLE_COLOUR('',#628);
#628=COLOUR_RGB('',0.,0.,0.);
ENDSEC;
END-ISO-10303-21;
