ISO-10303-21;
HEADER;
/* Generated by software containing ST-Developer
 * from STEP Tools, Inc. (www.steptools.com) 
 */

FILE_DESCRIPTION(
/* description */ (''),
/* implementation_level */ '2;1');

FILE_NAME(
/* name */ 'Duct Cover.stp',
/* time_stamp */ '2026-06-14T16:41:22-04:00',
/* author */ ('JoshuaEah'),
/* organization */ (''),
/* preprocessor_version */ 'ST-DEVELOPER v20.1',
/* originating_system */ 'Autodesk Inventor 2026',
/* authorisation */ '');

FILE_SCHEMA (('AUTOMOTIVE_DESIGN { 1 0 10303 214 3 1 1 }'));
ENDSEC;

DATA;
#10=MECHANICAL_DESIGN_GEOMETRIC_PRESENTATION_REPRESENTATION('',(#13),#537);
#11=SHAPE_REPRESENTATION_RELATIONSHIP('SRR','None',#548,#12);
#12=ADVANCED_BREP_SHAPE_REPRESENTATION('',(#14),#536);
#13=STYLED_ITEM('',(#557),#14);
#14=MANIFOLD_SOLID_BREP('Solid1',#301);
#15=PLANE('',#326);
#16=PLANE('',#330);
#17=PLANE('',#334);
#18=PLANE('',#335);
#19=PLANE('',#343);
#20=PLANE('',#344);
#21=PLANE('',#353);
#22=PLANE('',#354);
#23=FACE_OUTER_BOUND('',#39,.T.);
#24=FACE_OUTER_BOUND('',#40,.T.);
#25=FACE_OUTER_BOUND('',#41,.T.);
#26=FACE_OUTER_BOUND('',#42,.T.);
#27=FACE_OUTER_BOUND('',#43,.T.);
#28=FACE_OUTER_BOUND('',#44,.T.);
#29=FACE_OUTER_BOUND('',#45,.T.);
#30=FACE_OUTER_BOUND('',#46,.T.);
#31=FACE_OUTER_BOUND('',#47,.T.);
#32=FACE_OUTER_BOUND('',#48,.T.);
#33=FACE_OUTER_BOUND('',#49,.T.);
#34=FACE_OUTER_BOUND('',#50,.T.);
#35=FACE_OUTER_BOUND('',#51,.T.);
#36=FACE_OUTER_BOUND('',#52,.T.);
#37=FACE_OUTER_BOUND('',#53,.T.);
#38=FACE_OUTER_BOUND('',#54,.T.);
#39=EDGE_LOOP('',(#193,#194,#195,#196));
#40=EDGE_LOOP('',(#197,#198,#199,#200));
#41=EDGE_LOOP('',(#201,#202,#203,#204));
#42=EDGE_LOOP('',(#205,#206,#207,#208));
#43=EDGE_LOOP('',(#209,#210,#211,#212));
#44=EDGE_LOOP('',(#213,#214,#215,#216));
#45=EDGE_LOOP('',(#217,#218,#219,#220,#221,#222,#223,#224,#225,#226,#227,
#228,#229,#230));
#46=EDGE_LOOP('',(#231,#232,#233,#234));
#47=EDGE_LOOP('',(#235,#236,#237,#238));
#48=EDGE_LOOP('',(#239,#240,#241,#242,#243,#244,#245,#246,#247,#248,#249,
#250,#251,#252));
#49=EDGE_LOOP('',(#253,#254,#255,#256));
#50=EDGE_LOOP('',(#257,#258,#259,#260));
#51=EDGE_LOOP('',(#261,#262,#263,#264));
#52=EDGE_LOOP('',(#265,#266,#267,#268));
#53=EDGE_LOOP('',(#269,#270,#271,#272));
#54=EDGE_LOOP('',(#273,#274,#275,#276));
#55=LINE('',#453,#81);
#56=LINE('',#456,#82);
#57=LINE('',#459,#83);
#58=LINE('',#461,#84);
#59=LINE('',#462,#85);
#60=LINE('',#468,#86);
#61=LINE('',#471,#87);
#62=LINE('',#474,#88);
#63=LINE('',#476,#89);
#64=LINE('',#477,#90);
#65=LINE('',#483,#91);
#66=LINE('',#486,#92);
#67=LINE('',#489,#93);
#68=LINE('',#491,#94);
#69=LINE('',#492,#95);
#70=LINE('',#495,#96);
#71=LINE('',#499,#97);
#72=LINE('',#503,#98);
#73=LINE('',#509,#99);
#74=LINE('',#512,#100);
#75=LINE('',#515,#101);
#76=LINE('',#516,#102);
#77=LINE('',#521,#103);
#78=LINE('',#525,#104);
#79=LINE('',#527,#105);
#80=LINE('',#530,#106);
#81=VECTOR('',#361,0.393700787401575);
#82=VECTOR('',#364,0.393700787401575);
#83=VECTOR('',#367,0.393700787401575);
#84=VECTOR('',#368,0.393700787401575);
#85=VECTOR('',#369,0.393700787401575);
#86=VECTOR('',#374,0.393700787401575);
#87=VECTOR('',#377,0.393700787401575);
#88=VECTOR('',#380,0.393700787401575);
#89=VECTOR('',#381,0.393700787401575);
#90=VECTOR('',#382,0.393700787401575);
#91=VECTOR('',#387,0.393700787401575);
#92=VECTOR('',#390,0.393700787401575);
#93=VECTOR('',#393,0.393700787401575);
#94=VECTOR('',#394,0.393700787401575);
#95=VECTOR('',#395,0.393700787401575);
#96=VECTOR('',#398,0.393700787401575);
#97=VECTOR('',#401,0.393700787401575);
#98=VECTOR('',#406,0.393700787401575);
#99=VECTOR('',#413,0.393700787401575);
#100=VECTOR('',#416,0.393700787401575);
#101=VECTOR('',#419,0.393700787401575);
#102=VECTOR('',#420,0.393700787401575);
#103=VECTOR('',#427,0.393700787401575);
#104=VECTOR('',#432,0.393700787401575);
#105=VECTOR('',#435,0.393700787401575);
#106=VECTOR('',#440,0.393700787401575);
#107=CIRCLE('',#324,0.03125);
#108=CIRCLE('',#325,0.03125);
#109=CIRCLE('',#328,0.03125);
#110=CIRCLE('',#329,0.03125);
#111=CIRCLE('',#332,0.0625);
#112=CIRCLE('',#333,0.0625);
#113=CIRCLE('',#336,0.0625);
#114=CIRCLE('',#337,0.0625);
#115=CIRCLE('',#338,0.03125);
#116=CIRCLE('',#339,0.03125);
#117=CIRCLE('',#340,0.0625);
#118=CIRCLE('',#342,0.0625);
#119=CIRCLE('',#345,0.0625);
#120=CIRCLE('',#346,0.03125);
#121=CIRCLE('',#347,0.03125);
#122=CIRCLE('',#348,0.0625);
#123=VERTEX_POINT('',#449);
#124=VERTEX_POINT('',#450);
#125=VERTEX_POINT('',#452);
#126=VERTEX_POINT('',#454);
#127=VERTEX_POINT('',#458);
#128=VERTEX_POINT('',#460);
#129=VERTEX_POINT('',#464);
#130=VERTEX_POINT('',#465);
#131=VERTEX_POINT('',#467);
#132=VERTEX_POINT('',#469);
#133=VERTEX_POINT('',#473);
#134=VERTEX_POINT('',#475);
#135=VERTEX_POINT('',#479);
#136=VERTEX_POINT('',#480);
#137=VERTEX_POINT('',#482);
#138=VERTEX_POINT('',#484);
#139=VERTEX_POINT('',#488);
#140=VERTEX_POINT('',#490);
#141=VERTEX_POINT('',#494);
#142=VERTEX_POINT('',#496);
#143=VERTEX_POINT('',#498);
#144=VERTEX_POINT('',#500);
#145=VERTEX_POINT('',#504);
#146=VERTEX_POINT('',#508);
#147=VERTEX_POINT('',#510);
#148=VERTEX_POINT('',#514);
#149=VERTEX_POINT('',#518);
#150=VERTEX_POINT('',#522);
#151=EDGE_CURVE('',#123,#124,#107,.T.);
#152=EDGE_CURVE('',#124,#125,#55,.T.);
#153=EDGE_CURVE('',#125,#126,#108,.T.);
#154=EDGE_CURVE('',#126,#123,#56,.T.);
#155=EDGE_CURVE('',#124,#127,#57,.T.);
#156=EDGE_CURVE('',#128,#127,#58,.T.);
#157=EDGE_CURVE('',#125,#128,#59,.T.);
#158=EDGE_CURVE('',#129,#130,#109,.T.);
#159=EDGE_CURVE('',#130,#131,#60,.T.);
#160=EDGE_CURVE('',#131,#132,#110,.T.);
#161=EDGE_CURVE('',#132,#129,#61,.T.);
#162=EDGE_CURVE('',#130,#133,#62,.T.);
#163=EDGE_CURVE('',#133,#134,#63,.T.);
#164=EDGE_CURVE('',#131,#134,#64,.T.);
#165=EDGE_CURVE('',#135,#136,#111,.T.);
#166=EDGE_CURVE('',#136,#137,#65,.T.);
#167=EDGE_CURVE('',#137,#138,#112,.T.);
#168=EDGE_CURVE('',#138,#135,#66,.T.);
#169=EDGE_CURVE('',#139,#138,#67,.T.);
#170=EDGE_CURVE('',#139,#140,#68,.T.);
#171=EDGE_CURVE('',#135,#140,#69,.T.);
#172=EDGE_CURVE('',#141,#137,#70,.T.);
#173=EDGE_CURVE('',#142,#141,#113,.T.);
#174=EDGE_CURVE('',#142,#143,#71,.T.);
#175=EDGE_CURVE('',#144,#143,#114,.T.);
#176=EDGE_CURVE('',#133,#144,#115,.T.);
#177=EDGE_CURVE('',#126,#129,#72,.T.);
#178=EDGE_CURVE('',#128,#145,#116,.T.);
#179=EDGE_CURVE('',#145,#139,#117,.T.);
#180=EDGE_CURVE('',#141,#146,#73,.T.);
#181=EDGE_CURVE('',#146,#147,#118,.T.);
#182=EDGE_CURVE('',#147,#142,#74,.T.);
#183=EDGE_CURVE('',#147,#148,#75,.T.);
#184=EDGE_CURVE('',#143,#148,#76,.T.);
#185=EDGE_CURVE('',#140,#149,#119,.T.);
#186=EDGE_CURVE('',#127,#149,#120,.T.);
#187=EDGE_CURVE('',#132,#123,#77,.T.);
#188=EDGE_CURVE('',#134,#150,#121,.T.);
#189=EDGE_CURVE('',#148,#150,#122,.T.);
#190=EDGE_CURVE('',#136,#146,#78,.T.);
#191=EDGE_CURVE('',#149,#145,#79,.T.);
#192=EDGE_CURVE('',#150,#144,#80,.T.);
#193=ORIENTED_EDGE('',*,*,#151,.T.);
#194=ORIENTED_EDGE('',*,*,#152,.T.);
#195=ORIENTED_EDGE('',*,*,#153,.T.);
#196=ORIENTED_EDGE('',*,*,#154,.T.);
#197=ORIENTED_EDGE('',*,*,#152,.F.);
#198=ORIENTED_EDGE('',*,*,#155,.T.);
#199=ORIENTED_EDGE('',*,*,#156,.F.);
#200=ORIENTED_EDGE('',*,*,#157,.F.);
#201=ORIENTED_EDGE('',*,*,#158,.T.);
#202=ORIENTED_EDGE('',*,*,#159,.T.);
#203=ORIENTED_EDGE('',*,*,#160,.T.);
#204=ORIENTED_EDGE('',*,*,#161,.T.);
#205=ORIENTED_EDGE('',*,*,#159,.F.);
#206=ORIENTED_EDGE('',*,*,#162,.T.);
#207=ORIENTED_EDGE('',*,*,#163,.T.);
#208=ORIENTED_EDGE('',*,*,#164,.F.);
#209=ORIENTED_EDGE('',*,*,#165,.T.);
#210=ORIENTED_EDGE('',*,*,#166,.T.);
#211=ORIENTED_EDGE('',*,*,#167,.T.);
#212=ORIENTED_EDGE('',*,*,#168,.T.);
#213=ORIENTED_EDGE('',*,*,#168,.F.);
#214=ORIENTED_EDGE('',*,*,#169,.F.);
#215=ORIENTED_EDGE('',*,*,#170,.T.);
#216=ORIENTED_EDGE('',*,*,#171,.F.);
#217=ORIENTED_EDGE('',*,*,#167,.F.);
#218=ORIENTED_EDGE('',*,*,#172,.F.);
#219=ORIENTED_EDGE('',*,*,#173,.F.);
#220=ORIENTED_EDGE('',*,*,#174,.T.);
#221=ORIENTED_EDGE('',*,*,#175,.F.);
#222=ORIENTED_EDGE('',*,*,#176,.F.);
#223=ORIENTED_EDGE('',*,*,#162,.F.);
#224=ORIENTED_EDGE('',*,*,#158,.F.);
#225=ORIENTED_EDGE('',*,*,#177,.F.);
#226=ORIENTED_EDGE('',*,*,#153,.F.);
#227=ORIENTED_EDGE('',*,*,#157,.T.);
#228=ORIENTED_EDGE('',*,*,#178,.T.);
#229=ORIENTED_EDGE('',*,*,#179,.T.);
#230=ORIENTED_EDGE('',*,*,#169,.T.);
#231=ORIENTED_EDGE('',*,*,#173,.T.);
#232=ORIENTED_EDGE('',*,*,#180,.T.);
#233=ORIENTED_EDGE('',*,*,#181,.T.);
#234=ORIENTED_EDGE('',*,*,#182,.T.);
#235=ORIENTED_EDGE('',*,*,#182,.F.);
#236=ORIENTED_EDGE('',*,*,#183,.T.);
#237=ORIENTED_EDGE('',*,*,#184,.F.);
#238=ORIENTED_EDGE('',*,*,#174,.F.);
#239=ORIENTED_EDGE('',*,*,#165,.F.);
#240=ORIENTED_EDGE('',*,*,#171,.T.);
#241=ORIENTED_EDGE('',*,*,#185,.T.);
#242=ORIENTED_EDGE('',*,*,#186,.F.);
#243=ORIENTED_EDGE('',*,*,#155,.F.);
#244=ORIENTED_EDGE('',*,*,#151,.F.);
#245=ORIENTED_EDGE('',*,*,#187,.F.);
#246=ORIENTED_EDGE('',*,*,#160,.F.);
#247=ORIENTED_EDGE('',*,*,#164,.T.);
#248=ORIENTED_EDGE('',*,*,#188,.T.);
#249=ORIENTED_EDGE('',*,*,#189,.F.);
#250=ORIENTED_EDGE('',*,*,#183,.F.);
#251=ORIENTED_EDGE('',*,*,#181,.F.);
#252=ORIENTED_EDGE('',*,*,#190,.F.);
#253=ORIENTED_EDGE('',*,*,#185,.F.);
#254=ORIENTED_EDGE('',*,*,#170,.F.);
#255=ORIENTED_EDGE('',*,*,#179,.F.);
#256=ORIENTED_EDGE('',*,*,#191,.F.);
#257=ORIENTED_EDGE('',*,*,#156,.T.);
#258=ORIENTED_EDGE('',*,*,#186,.T.);
#259=ORIENTED_EDGE('',*,*,#191,.T.);
#260=ORIENTED_EDGE('',*,*,#178,.F.);
#261=ORIENTED_EDGE('',*,*,#189,.T.);
#262=ORIENTED_EDGE('',*,*,#192,.T.);
#263=ORIENTED_EDGE('',*,*,#175,.T.);
#264=ORIENTED_EDGE('',*,*,#184,.T.);
#265=ORIENTED_EDGE('',*,*,#163,.F.);
#266=ORIENTED_EDGE('',*,*,#176,.T.);
#267=ORIENTED_EDGE('',*,*,#192,.F.);
#268=ORIENTED_EDGE('',*,*,#188,.F.);
#269=ORIENTED_EDGE('',*,*,#154,.F.);
#270=ORIENTED_EDGE('',*,*,#177,.T.);
#271=ORIENTED_EDGE('',*,*,#161,.F.);
#272=ORIENTED_EDGE('',*,*,#187,.T.);
#273=ORIENTED_EDGE('',*,*,#166,.F.);
#274=ORIENTED_EDGE('',*,*,#190,.T.);
#275=ORIENTED_EDGE('',*,*,#180,.F.);
#276=ORIENTED_EDGE('',*,*,#172,.T.);
#277=CYLINDRICAL_SURFACE('',#323,0.03125);
#278=CYLINDRICAL_SURFACE('',#327,0.03125);
#279=CYLINDRICAL_SURFACE('',#331,0.0625);
#280=CYLINDRICAL_SURFACE('',#341,0.0625);
#281=CYLINDRICAL_SURFACE('',#349,0.0625);
#282=CYLINDRICAL_SURFACE('',#350,0.03125);
#283=CYLINDRICAL_SURFACE('',#351,0.0625);
#284=CYLINDRICAL_SURFACE('',#352,0.03125);
#285=ADVANCED_FACE('',(#23),#277,.F.);
#286=ADVANCED_FACE('',(#24),#15,.F.);
#287=ADVANCED_FACE('',(#25),#278,.F.);
#288=ADVANCED_FACE('',(#26),#16,.T.);
#289=ADVANCED_FACE('',(#27),#279,.T.);
#290=ADVANCED_FACE('',(#28),#17,.T.);
#291=ADVANCED_FACE('',(#29),#18,.T.);
#292=ADVANCED_FACE('',(#30),#280,.T.);
#293=ADVANCED_FACE('',(#31),#19,.T.);
#294=ADVANCED_FACE('',(#32),#20,.T.);
#295=ADVANCED_FACE('',(#33),#281,.T.);
#296=ADVANCED_FACE('',(#34),#282,.T.);
#297=ADVANCED_FACE('',(#35),#283,.T.);
#298=ADVANCED_FACE('',(#36),#284,.T.);
#299=ADVANCED_FACE('',(#37),#21,.T.);
#300=ADVANCED_FACE('',(#38),#22,.T.);
#301=CLOSED_SHELL('',(#285,#286,#287,#288,#289,#290,#291,#292,#293,#294,
#295,#296,#297,#298,#299,#300));
#302=DERIVED_UNIT_ELEMENT(#304,1.);
#303=DERIVED_UNIT_ELEMENT(#542,-3.);
#304=(
CONVERSION_BASED_UNIT('gram',#306)
MASS_UNIT()
NAMED_UNIT(#539)
);
#305=(
MASS_UNIT()
NAMED_UNIT(*)
SI_UNIT(.KILO.,.GRAM.)
);
#306=MASS_MEASURE_WITH_UNIT(MASS_MEASURE(0.001),#305);
#307=DERIVED_UNIT((#302,#303));
#308=MEASURE_REPRESENTATION_ITEM('density measure',
POSITIVE_RATIO_MEASURE(1.),#307);
#309=PROPERTY_DEFINITION_REPRESENTATION(#314,#311);
#310=PROPERTY_DEFINITION_REPRESENTATION(#315,#312);
#311=REPRESENTATION('material name',(#313),#536);
#312=REPRESENTATION('density',(#308),#536);
#313=DESCRIPTIVE_REPRESENTATION_ITEM('Generic','Generic');
#314=PROPERTY_DEFINITION('material property','material name',#550);
#315=PROPERTY_DEFINITION('material property','density of part',#550);
#316=DATE_TIME_ROLE('creation_date');
#317=APPLIED_DATE_AND_TIME_ASSIGNMENT(#318,#316,(#550));
#318=DATE_AND_TIME(#319,#320);
#319=CALENDAR_DATE(2026,14,6);
#320=LOCAL_TIME(0,0,0.,#321);
#321=COORDINATED_UNIVERSAL_TIME_OFFSET(0,0,.BEHIND.);
#322=AXIS2_PLACEMENT_3D('',#447,#355,#356);
#323=AXIS2_PLACEMENT_3D('',#448,#357,#358);
#324=AXIS2_PLACEMENT_3D('',#451,#359,#360);
#325=AXIS2_PLACEMENT_3D('',#455,#362,#363);
#326=AXIS2_PLACEMENT_3D('',#457,#365,#366);
#327=AXIS2_PLACEMENT_3D('',#463,#370,#371);
#328=AXIS2_PLACEMENT_3D('',#466,#372,#373);
#329=AXIS2_PLACEMENT_3D('',#470,#375,#376);
#330=AXIS2_PLACEMENT_3D('',#472,#378,#379);
#331=AXIS2_PLACEMENT_3D('',#478,#383,#384);
#332=AXIS2_PLACEMENT_3D('',#481,#385,#386);
#333=AXIS2_PLACEMENT_3D('',#485,#388,#389);
#334=AXIS2_PLACEMENT_3D('',#487,#391,#392);
#335=AXIS2_PLACEMENT_3D('',#493,#396,#397);
#336=AXIS2_PLACEMENT_3D('',#497,#399,#400);
#337=AXIS2_PLACEMENT_3D('',#501,#402,#403);
#338=AXIS2_PLACEMENT_3D('',#502,#404,#405);
#339=AXIS2_PLACEMENT_3D('',#505,#407,#408);
#340=AXIS2_PLACEMENT_3D('',#506,#409,#410);
#341=AXIS2_PLACEMENT_3D('',#507,#411,#412);
#342=AXIS2_PLACEMENT_3D('',#511,#414,#415);
#343=AXIS2_PLACEMENT_3D('',#513,#417,#418);
#344=AXIS2_PLACEMENT_3D('',#517,#421,#422);
#345=AXIS2_PLACEMENT_3D('',#519,#423,#424);
#346=AXIS2_PLACEMENT_3D('',#520,#425,#426);
#347=AXIS2_PLACEMENT_3D('',#523,#428,#429);
#348=AXIS2_PLACEMENT_3D('',#524,#430,#431);
#349=AXIS2_PLACEMENT_3D('',#526,#433,#434);
#350=AXIS2_PLACEMENT_3D('',#528,#436,#437);
#351=AXIS2_PLACEMENT_3D('',#529,#438,#439);
#352=AXIS2_PLACEMENT_3D('',#531,#441,#442);
#353=AXIS2_PLACEMENT_3D('',#532,#443,#444);
#354=AXIS2_PLACEMENT_3D('',#533,#445,#446);
#355=DIRECTION('axis',(0.,0.,1.));
#356=DIRECTION('refdir',(1.,0.,0.));
#357=DIRECTION('center_axis',(1.,0.,-1.16558847729675E-16));
#358=DIRECTION('ref_axis',(0.,-0.707106781186548,0.707106781186547));
#359=DIRECTION('center_axis',(-1.,0.,1.22464679914735E-16));
#360=DIRECTION('ref_axis',(0.,-0.707106781186548,0.707106781186547));
#361=DIRECTION('',(1.,0.,-1.16558847729675E-16));
#362=DIRECTION('center_axis',(1.,0.,-2.151855650394E-16));
#363=DIRECTION('ref_axis',(0.,-0.707106781186548,0.707106781186547));
#364=DIRECTION('',(-1.,0.,1.16558847729675E-16));
#365=DIRECTION('center_axis',(1.16558847729675E-16,0.,1.));
#366=DIRECTION('ref_axis',(1.,0.,-1.16558847729675E-16));
#367=DIRECTION('',(0.,1.,0.));
#368=DIRECTION('',(-1.,0.,3.49676543189026E-16));
#369=DIRECTION('',(0.,1.,0.));
#370=DIRECTION('center_axis',(-1.,0.,3.49676543189026E-16));
#371=DIRECTION('ref_axis',(0.,-0.707106781186545,-0.70710678118655));
#372=DIRECTION('center_axis',(1.,0.,-2.151855650394E-16));
#373=DIRECTION('ref_axis',(0.,-0.707106781186545,-0.70710678118655));
#374=DIRECTION('',(-1.,0.,3.49676543189026E-16));
#375=DIRECTION('center_axis',(-1.,0.,1.22464679914735E-16));
#376=DIRECTION('ref_axis',(0.,-0.707106781186545,-0.70710678118655));
#377=DIRECTION('',(1.,0.,-3.49676543189026E-16));
#378=DIRECTION('center_axis',(3.49676543189026E-16,0.,1.));
#379=DIRECTION('ref_axis',(1.,0.,-3.49676543189026E-16));
#380=DIRECTION('',(0.,1.,0.));
#381=DIRECTION('',(-1.,0.,1.16558847729675E-16));
#382=DIRECTION('',(0.,1.,0.));
#383=DIRECTION('center_axis',(-1.,0.,0.));
#384=DIRECTION('ref_axis',(0.,-0.707106781186548,0.707106781186547));
#385=DIRECTION('center_axis',(1.,0.,-1.22464679914735E-16));
#386=DIRECTION('ref_axis',(0.,-0.707106781186548,0.707106781186547));
#387=DIRECTION('',(1.,0.,0.));
#388=DIRECTION('center_axis',(-1.,0.,2.151855650394E-16));
#389=DIRECTION('ref_axis',(0.,-0.707106781186548,0.707106781186547));
#390=DIRECTION('',(-1.,0.,0.));
#391=DIRECTION('center_axis',(0.,0.,1.));
#392=DIRECTION('ref_axis',(-1.,0.,0.));
#393=DIRECTION('',(0.,-1.,0.));
#394=DIRECTION('',(-1.,0.,2.3311769545935E-16));
#395=DIRECTION('',(0.,1.,0.));
#396=DIRECTION('center_axis',(1.,0.,-2.151855650394E-16));
#397=DIRECTION('ref_axis',(2.151855650394E-16,0.,1.));
#398=DIRECTION('',(2.151855650394E-16,0.,1.));
#399=DIRECTION('center_axis',(-1.,0.,2.151855650394E-16));
#400=DIRECTION('ref_axis',(0.,-0.707106781186549,-0.707106781186546));
#401=DIRECTION('',(0.,1.,0.));
#402=DIRECTION('center_axis',(-1.,0.,2.151855650394E-16));
#403=DIRECTION('ref_axis',(0.,0.707106781186549,-0.707106781186546));
#404=DIRECTION('center_axis',(-1.,0.,2.151855650394E-16));
#405=DIRECTION('ref_axis',(1.16558847729675E-16,0.,1.));
#406=DIRECTION('',(-2.151855650394E-16,0.,-1.));
#407=DIRECTION('center_axis',(1.,0.,-2.510498258793E-16));
#408=DIRECTION('ref_axis',(-3.49676543189026E-16,0.,-1.));
#409=DIRECTION('center_axis',(1.,0.,-2.510498258793E-16));
#410=DIRECTION('ref_axis',(3.29678206547774E-16,0.707106781186549,0.707106781186546));
#411=DIRECTION('center_axis',(1.,0.,-2.3311769545935E-16));
#412=DIRECTION('ref_axis',(0.,-0.707106781186549,-0.707106781186546));
#413=DIRECTION('',(-1.,0.,2.3311769545935E-16));
#414=DIRECTION('center_axis',(1.,0.,-1.22464679914735E-16));
#415=DIRECTION('ref_axis',(0.,-0.707106781186549,-0.707106781186546));
#416=DIRECTION('',(1.,0.,-2.3311769545935E-16));
#417=DIRECTION('center_axis',(-2.3311769545935E-16,0.,-1.));
#418=DIRECTION('ref_axis',(1.,0.,-2.3311769545935E-16));
#419=DIRECTION('',(0.,1.,0.));
#420=DIRECTION('',(-1.,0.,2.3311769545935E-16));
#421=DIRECTION('center_axis',(-1.,0.,1.22464679914735E-16));
#422=DIRECTION('ref_axis',(-1.22464679914735E-16,0.,-1.));
#423=DIRECTION('center_axis',(-1.,0.,3.43770711003966E-16));
#424=DIRECTION('ref_axis',(3.29678206547774E-16,0.707106781186549,0.707106781186546));
#425=DIRECTION('center_axis',(1.,0.,-3.43770711003966E-16));
#426=DIRECTION('ref_axis',(-3.43770711003966E-16,0.,-1.));
#427=DIRECTION('',(1.22464679914735E-16,0.,1.));
#428=DIRECTION('center_axis',(-1.,0.,1.22464679914735E-16));
#429=DIRECTION('ref_axis',(1.22464679914735E-16,0.,1.));
#430=DIRECTION('center_axis',(1.,0.,-1.22464679914735E-16));
#431=DIRECTION('ref_axis',(0.,0.707106781186549,-0.707106781186546));
#432=DIRECTION('',(-1.22464679914735E-16,0.,-1.));
#433=DIRECTION('center_axis',(1.,0.,-2.3311769545935E-16));
#434=DIRECTION('ref_axis',(3.29678206547774E-16,0.707106781186549,0.707106781186546));
#435=DIRECTION('',(1.,0.,-1.16558847729675E-16));
#436=DIRECTION('center_axis',(-1.,0.,3.49676543189026E-16));
#437=DIRECTION('ref_axis',(-3.49676543189026E-16,0.,-1.));
#438=DIRECTION('center_axis',(-1.,0.,2.3311769545935E-16));
#439=DIRECTION('ref_axis',(0.,0.707106781186549,-0.707106781186546));
#440=DIRECTION('',(1.,0.,-3.49676543189026E-16));
#441=DIRECTION('center_axis',(1.,0.,-1.16558847729675E-16));
#442=DIRECTION('ref_axis',(1.16558847729675E-16,0.,1.));
#443=DIRECTION('center_axis',(0.,1.,0.));
#444=DIRECTION('ref_axis',(0.,0.,1.));
#445=DIRECTION('center_axis',(0.,-1.,0.));
#446=DIRECTION('ref_axis',(0.,0.,-1.));
#447=CARTESIAN_POINT('',(0.,0.,0.));
#448=CARTESIAN_POINT('Origin',(0.75,0.03125,-0.0937500000000002));
#449=CARTESIAN_POINT('',(-1.14810637420065E-17,0.,-0.0937500000000002));
#450=CARTESIAN_POINT('',(2.03977983526931E-16,0.03125,-0.0625000000000002));
#451=CARTESIAN_POINT('Origin',(0.,0.03125,-0.0937500000000001));
#452=CARTESIAN_POINT('',(3.,0.03125,-0.0625000000000005));
#453=CARTESIAN_POINT('',(0.75,0.03125,-0.0625000000000002));
#454=CARTESIAN_POINT('',(3.,0.,-0.0937500000000005));
#455=CARTESIAN_POINT('Origin',(3.,0.03125,-0.0937500000000005));
#456=CARTESIAN_POINT('',(0.75,0.,-0.0937500000000002));
#457=CARTESIAN_POINT('Origin',(2.03977983526931E-16,0.,-0.0625000000000002));
#458=CARTESIAN_POINT('',(1.8746519275467E-16,0.101624015748032,-0.0625000000000002));
#459=CARTESIAN_POINT('',(2.03977983526931E-16,0.,-0.0625000000000002));
#460=CARTESIAN_POINT('',(3.,0.101624015748032,-0.0625000000000005));
#461=CARTESIAN_POINT('',(1.8746519275467E-16,0.101624015748032,-0.0625000000000002));
#462=CARTESIAN_POINT('',(3.,0.,-0.0625000000000005));
#463=CARTESIAN_POINT('Origin',(0.75,0.03125,-1.53125));
#464=CARTESIAN_POINT('',(3.,0.,-1.53125));
#465=CARTESIAN_POINT('',(3.,0.03125,-1.5625));
#466=CARTESIAN_POINT('Origin',(3.,0.03125,-1.53125));
#467=CARTESIAN_POINT('',(-1.74838271594513E-16,0.03125,-1.5625));
#468=CARTESIAN_POINT('',(0.75,0.03125,-1.5625));
#469=CARTESIAN_POINT('',(-1.87524041119438E-16,0.,-1.53125));
#470=CARTESIAN_POINT('Origin',(-5.24514814783538E-16,0.03125,-1.53125));
#471=CARTESIAN_POINT('',(0.75,0.,-1.53125));
#472=CARTESIAN_POINT('Origin',(-1.74838271594513E-16,0.,-1.5625));
#473=CARTESIAN_POINT('',(3.,0.101624015748032,-1.5625));
#474=CARTESIAN_POINT('',(3.,0.,-1.5625));
#475=CARTESIAN_POINT('',(-1.91351062366774E-16,0.101624015748032,-1.5625));
#476=CARTESIAN_POINT('',(-1.91351062366774E-16,0.101624015748032,-1.5625));
#477=CARTESIAN_POINT('',(-1.74838271594513E-16,0.,-1.5625));
#478=CARTESIAN_POINT('Origin',(2.25,0.,-0.0625));
#479=CARTESIAN_POINT('',(2.08950862192418E-16,0.,0.));
#480=CARTESIAN_POINT('',(-7.65404249467097E-18,-0.0625,-0.0625));
#481=CARTESIAN_POINT('Origin',(0.,0.,-0.0625));
#482=CARTESIAN_POINT('',(3.,-0.0625,-0.0625));
#483=CARTESIAN_POINT('',(2.25,-0.0625,-0.0625));
#484=CARTESIAN_POINT('',(3.,0.,0.));
#485=CARTESIAN_POINT('Origin',(3.,0.,-0.0625));
#486=CARTESIAN_POINT('',(2.25,0.,0.));
#487=CARTESIAN_POINT('Origin',(3.,0.,0.));
#488=CARTESIAN_POINT('',(3.,0.101624015748031,-6.99353086378051E-16));
#489=CARTESIAN_POINT('',(3.,0.,0.));
#490=CARTESIAN_POINT('',(2.08950862192418E-16,0.101624015748031,0.));
#491=CARTESIAN_POINT('',(2.25,0.101624015748031,-6.99353086378051E-16));
#492=CARTESIAN_POINT('',(2.08950862192418E-16,0.,0.));
#493=CARTESIAN_POINT('Origin',(3.,0.,-1.625));
#494=CARTESIAN_POINT('',(3.,-0.0625,-1.5625));
#495=CARTESIAN_POINT('',(3.,-0.0625,0.));
#496=CARTESIAN_POINT('',(3.,0.,-1.625));
#497=CARTESIAN_POINT('Origin',(3.,0.,-1.5625));
#498=CARTESIAN_POINT('',(3.,0.101624015748031,-1.625));
#499=CARTESIAN_POINT('',(3.,0.,-1.625));
#500=CARTESIAN_POINT('',(3.,0.164124015748031,-1.5625));
#501=CARTESIAN_POINT('Origin',(3.,0.101624015748031,-1.5625));
#502=CARTESIAN_POINT('Origin',(3.,0.132874015748032,-1.5625));
#503=CARTESIAN_POINT('',(3.,0.,0.));
#504=CARTESIAN_POINT('',(3.,0.164124015748031,-0.0625000000000005));
#505=CARTESIAN_POINT('Origin',(3.,0.132874015748032,-0.0625000000000012));
#506=CARTESIAN_POINT('Origin',(3.,0.101624015748031,-0.0625000000000007));
#507=CARTESIAN_POINT('Origin',(0.75,0.,-1.5625));
#508=CARTESIAN_POINT('',(-1.91351062366774E-16,-0.0625,-1.5625));
#509=CARTESIAN_POINT('',(0.75,-0.0625,-1.5625));
#510=CARTESIAN_POINT('',(-1.99005104861445E-16,0.,-1.625));
#511=CARTESIAN_POINT('Origin',(-3.49676543189026E-16,0.,-1.5625));
#512=CARTESIAN_POINT('',(0.75,0.,-1.625));
#513=CARTESIAN_POINT('Origin',(-3.49676543189026E-16,0.,-1.625));
#514=CARTESIAN_POINT('',(-1.99005104861445E-16,0.101624015748031,-1.625));
#515=CARTESIAN_POINT('',(-1.99005104861445E-16,0.,-1.625));
#516=CARTESIAN_POINT('',(0.75,0.101624015748031,-1.625));
#517=CARTESIAN_POINT('Origin',(0.,0.,0.));
#518=CARTESIAN_POINT('',(2.03977983526931E-16,0.164124015748031,-0.0625000000000002));
#519=CARTESIAN_POINT('Origin',(2.91397119324185E-17,0.101624015748031,-0.0625));
#520=CARTESIAN_POINT('Origin',(1.8746519275467E-16,0.132874015748032,-0.0625000000000002));
#521=CARTESIAN_POINT('',(-1.99005104861445E-16,0.,-1.625));
#522=CARTESIAN_POINT('',(-1.74838271594513E-16,0.164124015748031,-1.5625));
#523=CARTESIAN_POINT('Origin',(-1.91351062366774E-16,0.132874015748032,
-1.5625));
#524=CARTESIAN_POINT('Origin',(-3.49676543189026E-16,0.101624015748031,
-1.5625));
#525=CARTESIAN_POINT('',(-1.99005104861445E-16,-0.0625,-1.625));
#526=CARTESIAN_POINT('Origin',(2.25,0.101624015748031,-0.0625000000000005));
#527=CARTESIAN_POINT('',(2.03977983526931E-16,0.164124015748031,-0.0625000000000002));
#528=CARTESIAN_POINT('Origin',(1.8746519275467E-16,0.132874015748032,-0.0625000000000002));
#529=CARTESIAN_POINT('Origin',(0.75,0.101624015748031,-1.5625));
#530=CARTESIAN_POINT('',(-1.74838271594513E-16,0.164124015748031,-1.5625));
#531=CARTESIAN_POINT('Origin',(-1.91351062366774E-16,0.132874015748032,
-1.5625));
#532=CARTESIAN_POINT('Origin',(1.5,0.,-0.8125));
#533=CARTESIAN_POINT('Origin',(1.5,-0.0625,-0.8125));
#534=UNCERTAINTY_MEASURE_WITH_UNIT(LENGTH_MEASURE(0.000393700787401575),
#540,'DISTANCE_ACCURACY_VALUE',
'Maximum model space distance between geometric entities at asserted c
onnectivities');
#535=UNCERTAINTY_MEASURE_WITH_UNIT(LENGTH_MEASURE(0.000393700787401575),
#540,'DISTANCE_ACCURACY_VALUE',
'Maximum model space distance between geometric entities at asserted c
onnectivities');
#536=(
GEOMETRIC_REPRESENTATION_CONTEXT(3)
GLOBAL_UNCERTAINTY_ASSIGNED_CONTEXT((#534))
GLOBAL_UNIT_ASSIGNED_CONTEXT((#540,#544,#545))
REPRESENTATION_CONTEXT('','3D')
);
#537=(
GEOMETRIC_REPRESENTATION_CONTEXT(3)
GLOBAL_UNCERTAINTY_ASSIGNED_CONTEXT((#535))
GLOBAL_UNIT_ASSIGNED_CONTEXT((#540,#544,#545))
REPRESENTATION_CONTEXT('','3D')
);
#538=DIMENSIONAL_EXPONENTS(1.,0.,0.,0.,0.,0.,0.);
#539=DIMENSIONAL_EXPONENTS(0.,1.,0.,0.,0.,0.,0.);
#540=(
CONVERSION_BASED_UNIT('inch',#543)
LENGTH_UNIT()
NAMED_UNIT(#538)
);
#541=(
LENGTH_UNIT()
NAMED_UNIT(*)
SI_UNIT(.MILLI.,.METRE.)
);
#542=(
LENGTH_UNIT()
NAMED_UNIT(*)
SI_UNIT(.CENTI.,.METRE.)
);
#543=LENGTH_MEASURE_WITH_UNIT(LENGTH_MEASURE(25.4),#541);
#544=(
NAMED_UNIT(*)
PLANE_ANGLE_UNIT()
SI_UNIT($,.RADIAN.)
);
#545=(
NAMED_UNIT(*)
SI_UNIT($,.STERADIAN.)
SOLID_ANGLE_UNIT()
);
#546=SHAPE_DEFINITION_REPRESENTATION(#547,#548);
#547=PRODUCT_DEFINITION_SHAPE('',$,#550);
#548=SHAPE_REPRESENTATION('',(#322),#536);
#549=PRODUCT_DEFINITION_CONTEXT('part definition',#554,'design');
#550=PRODUCT_DEFINITION('Duct Cover','Duct Cover',#551,#549);
#551=PRODUCT_DEFINITION_FORMATION('',$,#556);
#552=PRODUCT_RELATED_PRODUCT_CATEGORY('Duct Cover','Duct Cover',(#556));
#553=APPLICATION_PROTOCOL_DEFINITION('international standard',
'automotive_design',2009,#554);
#554=APPLICATION_CONTEXT(
'Core Data for Automotive Mechanical Design Process');
#555=PRODUCT_CONTEXT('part definition',#554,'mechanical');
#556=PRODUCT('Duct Cover','Duct Cover',$,(#555));
#557=PRESENTATION_STYLE_ASSIGNMENT((#558));
#558=SURFACE_STYLE_USAGE(.BOTH.,#561);
#559=SURFACE_STYLE_RENDERING_WITH_PROPERTIES($,#565,(#560));
#560=SURFACE_STYLE_TRANSPARENT(0.);
#561=SURFACE_SIDE_STYLE('',(#562,#559));
#562=SURFACE_STYLE_FILL_AREA(#563);
#563=FILL_AREA_STYLE('',(#564));
#564=FILL_AREA_STYLE_COLOUR('',#565);
#565=COLOUR_RGB('',0.749019607843137,0.749019607843137,0.749019607843137);
ENDSEC;
END-ISO-10303-21;
