ISO-10303-21;
HEADER;
/* Generated by software containing ST-Developer
 * from STEP Tools, Inc. (www.steptools.com) 
 */

FILE_DESCRIPTION(
/* description */ (''),
/* implementation_level */ '2;1');

FILE_NAME(
/* name */ '40mm Nut.stp',
/* time_stamp */ '2026-06-22T14:58:22-04:00',
/* author */ ('Joshua Eah'),
/* organization */ (''),
/* preprocessor_version */ 'ST-DEVELOPER v20.1',
/* originating_system */ 'Autodesk Inventor 2026',
/* authorisation */ '');

FILE_SCHEMA (('AUTOMOTIVE_DESIGN { 1 0 10303 214 3 1 1 }'));
ENDSEC;

DATA;
#10=MECHANICAL_DESIGN_GEOMETRIC_PRESENTATION_REPRESENTATION('',(#13),#939);
#11=SHAPE_REPRESENTATION_RELATIONSHIP('SRR','None',#950,#12);
#12=ADVANCED_BREP_SHAPE_REPRESENTATION('',(#14),#938);
#13=STYLED_ITEM('',(#959),#14);
#14=MANIFOLD_SOLID_BREP('Solid1',#540);
#15=CONICAL_SURFACE('',#614,0.78740157480315,0.0872664625997165);
#16=FACE_BOUND('',#91,.T.);
#17=FACE_BOUND('',#96,.T.);
#18=CIRCLE('',#608,0.78740157480315);
#19=CIRCLE('',#613,0.70129068550598);
#20=CIRCLE('',#615,0.78740157480315);
#21=PLANE('',#567);
#22=PLANE('',#568);
#23=PLANE('',#570);
#24=PLANE('',#576);
#25=PLANE('',#578);
#26=PLANE('',#579);
#27=PLANE('',#584);
#28=PLANE('',#585);
#29=PLANE('',#591);
#30=PLANE('',#593);
#31=PLANE('',#594);
#32=PLANE('',#600);
#33=PLANE('',#601);
#34=PLANE('',#603);
#35=PLANE('',#606);
#36=PLANE('',#607);
#37=PLANE('',#609);
#38=PLANE('',#610);
#39=PLANE('',#611);
#40=PLANE('',#612);
#41=FACE_OUTER_BOUND('',#69,.T.);
#42=FACE_OUTER_BOUND('',#70,.T.);
#43=FACE_OUTER_BOUND('',#71,.T.);
#44=FACE_OUTER_BOUND('',#72,.T.);
#45=FACE_OUTER_BOUND('',#73,.T.);
#46=FACE_OUTER_BOUND('',#74,.T.);
#47=FACE_OUTER_BOUND('',#75,.T.);
#48=FACE_OUTER_BOUND('',#76,.T.);
#49=FACE_OUTER_BOUND('',#77,.T.);
#50=FACE_OUTER_BOUND('',#78,.T.);
#51=FACE_OUTER_BOUND('',#79,.T.);
#52=FACE_OUTER_BOUND('',#80,.T.);
#53=FACE_OUTER_BOUND('',#81,.T.);
#54=FACE_OUTER_BOUND('',#82,.T.);
#55=FACE_OUTER_BOUND('',#83,.T.);
#56=FACE_OUTER_BOUND('',#84,.T.);
#57=FACE_OUTER_BOUND('',#85,.T.);
#58=FACE_OUTER_BOUND('',#86,.T.);
#59=FACE_OUTER_BOUND('',#87,.T.);
#60=FACE_OUTER_BOUND('',#88,.T.);
#61=FACE_OUTER_BOUND('',#89,.T.);
#62=FACE_OUTER_BOUND('',#90,.T.);
#63=FACE_OUTER_BOUND('',#92,.T.);
#64=FACE_OUTER_BOUND('',#93,.T.);
#65=FACE_OUTER_BOUND('',#94,.T.);
#66=FACE_OUTER_BOUND('',#95,.T.);
#67=FACE_OUTER_BOUND('',#97,.T.);
#68=FACE_OUTER_BOUND('',#98,.T.);
#69=EDGE_LOOP('',(#351,#352,#353,#354,#355,#356));
#70=EDGE_LOOP('',(#357,#358,#359,#360));
#71=EDGE_LOOP('',(#361,#362,#363,#364,#365,#366));
#72=EDGE_LOOP('',(#367,#368,#369,#370,#371,#372));
#73=EDGE_LOOP('',(#373,#374,#375,#376,#377,#378));
#74=EDGE_LOOP('',(#379,#380,#381,#382,#383,#384));
#75=EDGE_LOOP('',(#385,#386,#387,#388));
#76=EDGE_LOOP('',(#389,#390,#391,#392,#393,#394));
#77=EDGE_LOOP('',(#395,#396,#397,#398,#399,#400));
#78=EDGE_LOOP('',(#401,#402,#403,#404));
#79=EDGE_LOOP('',(#405,#406,#407,#408,#409,#410));
#80=EDGE_LOOP('',(#411,#412,#413,#414,#415,#416));
#81=EDGE_LOOP('',(#417,#418,#419,#420,#421,#422));
#82=EDGE_LOOP('',(#423,#424,#425,#426));
#83=EDGE_LOOP('',(#427,#428,#429,#430,#431,#432));
#84=EDGE_LOOP('',(#433,#434,#435,#436,#437,#438));
#85=EDGE_LOOP('',(#439,#440,#441,#442));
#86=EDGE_LOOP('',(#443,#444,#445,#446,#447,#448));
#87=EDGE_LOOP('',(#449,#450,#451,#452,#453,#454));
#88=EDGE_LOOP('',(#455,#456,#457,#458,#459,#460));
#89=EDGE_LOOP('',(#461,#462,#463,#464,#465,#466));
#90=EDGE_LOOP('',(#467,#468,#469,#470,#471,#472));
#91=EDGE_LOOP('',(#473));
#92=EDGE_LOOP('',(#474,#475,#476,#477,#478,#479));
#93=EDGE_LOOP('',(#480,#481,#482,#483,#484,#485));
#94=EDGE_LOOP('',(#486,#487,#488,#489));
#95=EDGE_LOOP('',(#490,#491,#492,#493,#494,#495));
#96=EDGE_LOOP('',(#496));
#97=EDGE_LOOP('',(#497,#498,#499,#500));
#98=EDGE_LOOP('',(#501,#502,#503,#504));
#99=LINE('',#785,#149);
#100=LINE('',#791,#150);
#101=LINE('',#795,#151);
#102=LINE('',#797,#152);
#103=LINE('',#798,#153);
#104=LINE('',#801,#154);
#105=LINE('',#803,#155);
#106=LINE('',#805,#156);
#107=LINE('',#809,#157);
#108=LINE('',#813,#158);
#109=LINE('',#814,#159);
#110=LINE('',#821,#160);
#111=LINE('',#825,#161);
#112=LINE('',#829,#162);
#113=LINE('',#831,#163);
#114=LINE('',#832,#164);
#115=LINE('',#835,#165);
#116=LINE('',#836,#166);
#117=LINE('',#839,#167);
#118=LINE('',#841,#168);
#119=LINE('',#847,#169);
#120=LINE('',#851,#170);
#121=LINE('',#853,#171);
#122=LINE('',#854,#172);
#123=LINE('',#857,#173);
#124=LINE('',#859,#174);
#125=LINE('',#867,#175);
#126=LINE('',#871,#176);
#127=LINE('',#875,#177);
#128=LINE('',#877,#178);
#129=LINE('',#878,#179);
#130=LINE('',#881,#180);
#131=LINE('',#882,#181);
#132=LINE('',#885,#182);
#133=LINE('',#887,#183);
#134=LINE('',#894,#184);
#135=LINE('',#897,#185);
#136=LINE('',#901,#186);
#137=LINE('',#903,#187);
#138=LINE('',#904,#188);
#139=LINE('',#907,#189);
#140=LINE('',#908,#190);
#141=LINE('',#912,#191);
#142=LINE('',#913,#192);
#143=LINE('',#914,#193);
#144=LINE('',#918,#194);
#145=LINE('',#923,#195);
#146=LINE('',#925,#196);
#147=LINE('',#932,#197);
#148=LINE('',#935,#198);
#149=VECTOR('',#623,0.393700787401575);
#150=VECTOR('',#628,0.393700787401575);
#151=VECTOR('',#633,0.393700787401575);
#152=VECTOR('',#634,0.393700787401575);
#153=VECTOR('',#635,0.393700787401575);
#154=VECTOR('',#638,0.393700787401575);
#155=VECTOR('',#639,0.393700787401575);
#156=VECTOR('',#640,0.393700787401575);
#157=VECTOR('',#645,0.393700787401575);
#158=VECTOR('',#648,0.393700787401575);
#159=VECTOR('',#649,0.393700787401575);
#160=VECTOR('',#656,0.393700787401575);
#161=VECTOR('',#661,0.393700787401575);
#162=VECTOR('',#664,0.393700787401575);
#163=VECTOR('',#665,0.393700787401575);
#164=VECTOR('',#666,0.393700787401575);
#165=VECTOR('',#669,0.393700787401575);
#166=VECTOR('',#670,0.393700787401575);
#167=VECTOR('',#673,0.393700787401575);
#168=VECTOR('',#674,0.393700787401575);
#169=VECTOR('',#681,0.393700787401575);
#170=VECTOR('',#686,0.393700787401575);
#171=VECTOR('',#687,0.393700787401575);
#172=VECTOR('',#688,0.393700787401575);
#173=VECTOR('',#691,0.393700787401575);
#174=VECTOR('',#692,0.393700787401575);
#175=VECTOR('',#701,0.393700787401575);
#176=VECTOR('',#706,0.393700787401575);
#177=VECTOR('',#709,0.393700787401575);
#178=VECTOR('',#710,0.393700787401575);
#179=VECTOR('',#711,0.393700787401575);
#180=VECTOR('',#714,0.393700787401575);
#181=VECTOR('',#715,0.393700787401575);
#182=VECTOR('',#718,0.393700787401575);
#183=VECTOR('',#719,0.393700787401575);
#184=VECTOR('',#726,0.393700787401575);
#185=VECTOR('',#729,0.393700787401575);
#186=VECTOR('',#734,0.393700787401575);
#187=VECTOR('',#735,0.393700787401575);
#188=VECTOR('',#736,0.393700787401575);
#189=VECTOR('',#739,0.393700787401575);
#190=VECTOR('',#740,0.393700787401575);
#191=VECTOR('',#745,0.393700787401575);
#192=VECTOR('',#746,0.393700787401575);
#193=VECTOR('',#747,0.393700787401575);
#194=VECTOR('',#754,0.393700787401575);
#195=VECTOR('',#761,0.393700787401575);
#196=VECTOR('',#764,0.393700787401575);
#197=VECTOR('',#773,0.78740157480315);
#198=VECTOR('',#778,0.78740157480315);
#199=ELLIPSE('',#563,0.278388496530137,0.196850393700787);
#200=ELLIPSE('',#564,0.278388496530137,0.196850393700787);
#201=ELLIPSE('',#565,0.278388496530137,0.196850393700787);
#202=ELLIPSE('',#566,0.278388496530137,0.196850393700787);
#203=ELLIPSE('',#569,0.278388496530137,0.196850393700787);
#204=ELLIPSE('',#571,0.278388496530137,0.196850393700787);
#205=ELLIPSE('',#573,0.278388496530137,0.196850393700787);
#206=ELLIPSE('',#574,0.278388496530137,0.196850393700787);
#207=ELLIPSE('',#575,0.278388496530137,0.196850393700787);
#208=ELLIPSE('',#577,0.278388496530137,0.196850393700787);
#209=ELLIPSE('',#580,0.278388496530137,0.196850393700787);
#210=ELLIPSE('',#582,0.278388496530137,0.196850393700787);
#211=ELLIPSE('',#583,0.278388496530137,0.196850393700787);
#212=ELLIPSE('',#586,0.278388496530137,0.196850393700787);
#213=ELLIPSE('',#588,0.278388496530137,0.196850393700787);
#214=ELLIPSE('',#589,0.278388496530137,0.196850393700787);
#215=ELLIPSE('',#590,0.278388496530137,0.196850393700787);
#216=ELLIPSE('',#592,0.278388496530137,0.196850393700787);
#217=ELLIPSE('',#595,0.278388496530137,0.196850393700787);
#218=ELLIPSE('',#597,0.278388496530137,0.196850393700787);
#219=ELLIPSE('',#598,0.278388496530137,0.196850393700787);
#220=ELLIPSE('',#599,0.278388496530137,0.196850393700787);
#221=ELLIPSE('',#602,0.278388496530137,0.196850393700787);
#222=ELLIPSE('',#605,0.278388496530137,0.196850393700787);
#223=VERTEX_POINT('',#781);
#224=VERTEX_POINT('',#782);
#225=VERTEX_POINT('',#784);
#226=VERTEX_POINT('',#786);
#227=VERTEX_POINT('',#788);
#228=VERTEX_POINT('',#790);
#229=VERTEX_POINT('',#794);
#230=VERTEX_POINT('',#796);
#231=VERTEX_POINT('',#800);
#232=VERTEX_POINT('',#802);
#233=VERTEX_POINT('',#804);
#234=VERTEX_POINT('',#808);
#235=VERTEX_POINT('',#810);
#236=VERTEX_POINT('',#812);
#237=VERTEX_POINT('',#816);
#238=VERTEX_POINT('',#818);
#239=VERTEX_POINT('',#820);
#240=VERTEX_POINT('',#824);
#241=VERTEX_POINT('',#826);
#242=VERTEX_POINT('',#828);
#243=VERTEX_POINT('',#830);
#244=VERTEX_POINT('',#834);
#245=VERTEX_POINT('',#838);
#246=VERTEX_POINT('',#840);
#247=VERTEX_POINT('',#844);
#248=VERTEX_POINT('',#846);
#249=VERTEX_POINT('',#850);
#250=VERTEX_POINT('',#852);
#251=VERTEX_POINT('',#856);
#252=VERTEX_POINT('',#858);
#253=VERTEX_POINT('',#862);
#254=VERTEX_POINT('',#864);
#255=VERTEX_POINT('',#866);
#256=VERTEX_POINT('',#870);
#257=VERTEX_POINT('',#872);
#258=VERTEX_POINT('',#874);
#259=VERTEX_POINT('',#876);
#260=VERTEX_POINT('',#880);
#261=VERTEX_POINT('',#884);
#262=VERTEX_POINT('',#886);
#263=VERTEX_POINT('',#890);
#264=VERTEX_POINT('',#891);
#265=VERTEX_POINT('',#893);
#266=VERTEX_POINT('',#896);
#267=VERTEX_POINT('',#900);
#268=VERTEX_POINT('',#902);
#269=VERTEX_POINT('',#906);
#270=VERTEX_POINT('',#911);
#271=VERTEX_POINT('',#920);
#272=VERTEX_POINT('',#928);
#273=VERTEX_POINT('',#931);
#274=EDGE_CURVE('',#223,#224,#199,.T.);
#275=EDGE_CURVE('',#224,#225,#99,.T.);
#276=EDGE_CURVE('',#225,#226,#200,.T.);
#277=EDGE_CURVE('',#226,#227,#201,.T.);
#278=EDGE_CURVE('',#227,#228,#100,.T.);
#279=EDGE_CURVE('',#228,#223,#202,.T.);
#280=EDGE_CURVE('',#229,#227,#101,.T.);
#281=EDGE_CURVE('',#230,#229,#102,.T.);
#282=EDGE_CURVE('',#228,#230,#103,.T.);
#283=EDGE_CURVE('',#231,#226,#104,.T.);
#284=EDGE_CURVE('',#231,#232,#105,.T.);
#285=EDGE_CURVE('',#232,#233,#106,.T.);
#286=EDGE_CURVE('',#229,#233,#203,.T.);
#287=EDGE_CURVE('',#225,#234,#107,.T.);
#288=EDGE_CURVE('',#235,#234,#204,.T.);
#289=EDGE_CURVE('',#236,#235,#108,.T.);
#290=EDGE_CURVE('',#236,#231,#109,.T.);
#291=EDGE_CURVE('',#237,#230,#205,.T.);
#292=EDGE_CURVE('',#233,#238,#206,.T.);
#293=EDGE_CURVE('',#238,#239,#110,.T.);
#294=EDGE_CURVE('',#239,#237,#207,.T.);
#295=EDGE_CURVE('',#239,#240,#111,.T.);
#296=EDGE_CURVE('',#241,#240,#208,.T.);
#297=EDGE_CURVE('',#242,#241,#112,.T.);
#298=EDGE_CURVE('',#242,#243,#113,.T.);
#299=EDGE_CURVE('',#243,#237,#114,.T.);
#300=EDGE_CURVE('',#244,#238,#115,.T.);
#301=EDGE_CURVE('',#240,#244,#116,.T.);
#302=EDGE_CURVE('',#232,#245,#117,.T.);
#303=EDGE_CURVE('',#245,#246,#118,.T.);
#304=EDGE_CURVE('',#244,#246,#209,.T.);
#305=EDGE_CURVE('',#246,#247,#210,.T.);
#306=EDGE_CURVE('',#247,#248,#119,.T.);
#307=EDGE_CURVE('',#248,#241,#211,.T.);
#308=EDGE_CURVE('',#249,#247,#120,.T.);
#309=EDGE_CURVE('',#250,#249,#121,.T.);
#310=EDGE_CURVE('',#248,#250,#122,.T.);
#311=EDGE_CURVE('',#245,#251,#123,.T.);
#312=EDGE_CURVE('',#251,#252,#124,.T.);
#313=EDGE_CURVE('',#249,#252,#212,.T.);
#314=EDGE_CURVE('',#253,#250,#213,.T.);
#315=EDGE_CURVE('',#252,#254,#214,.T.);
#316=EDGE_CURVE('',#254,#255,#125,.T.);
#317=EDGE_CURVE('',#255,#253,#215,.T.);
#318=EDGE_CURVE('',#255,#256,#126,.T.);
#319=EDGE_CURVE('',#257,#256,#216,.T.);
#320=EDGE_CURVE('',#258,#257,#127,.T.);
#321=EDGE_CURVE('',#258,#259,#128,.T.);
#322=EDGE_CURVE('',#259,#253,#129,.T.);
#323=EDGE_CURVE('',#260,#254,#130,.T.);
#324=EDGE_CURVE('',#256,#260,#131,.T.);
#325=EDGE_CURVE('',#251,#261,#132,.T.);
#326=EDGE_CURVE('',#261,#262,#133,.T.);
#327=EDGE_CURVE('',#260,#262,#217,.T.);
#328=EDGE_CURVE('',#263,#264,#218,.T.);
#329=EDGE_CURVE('',#264,#265,#134,.T.);
#330=EDGE_CURVE('',#265,#235,#219,.T.);
#331=EDGE_CURVE('',#234,#266,#135,.T.);
#332=EDGE_CURVE('',#266,#263,#220,.T.);
#333=EDGE_CURVE('',#267,#264,#136,.T.);
#334=EDGE_CURVE('',#268,#267,#137,.T.);
#335=EDGE_CURVE('',#265,#268,#138,.T.);
#336=EDGE_CURVE('',#269,#263,#139,.T.);
#337=EDGE_CURVE('',#269,#258,#140,.T.);
#338=EDGE_CURVE('',#267,#257,#221,.T.);
#339=EDGE_CURVE('',#270,#223,#141,.T.);
#340=EDGE_CURVE('',#270,#269,#142,.T.);
#341=EDGE_CURVE('',#266,#224,#143,.T.);
#342=EDGE_CURVE('',#262,#268,#222,.T.);
#343=EDGE_CURVE('',#261,#236,#144,.T.);
#344=EDGE_CURVE('',#271,#271,#18,.T.);
#345=EDGE_CURVE('',#259,#242,#145,.T.);
#346=EDGE_CURVE('',#243,#270,#146,.T.);
#347=EDGE_CURVE('',#272,#272,#19,.F.);
#348=EDGE_CURVE('',#272,#273,#147,.T.);
#349=EDGE_CURVE('',#273,#273,#20,.T.);
#350=EDGE_CURVE('',#271,#273,#148,.T.);
#351=ORIENTED_EDGE('',*,*,#274,.T.);
#352=ORIENTED_EDGE('',*,*,#275,.T.);
#353=ORIENTED_EDGE('',*,*,#276,.T.);
#354=ORIENTED_EDGE('',*,*,#277,.T.);
#355=ORIENTED_EDGE('',*,*,#278,.T.);
#356=ORIENTED_EDGE('',*,*,#279,.T.);
#357=ORIENTED_EDGE('',*,*,#278,.F.);
#358=ORIENTED_EDGE('',*,*,#280,.F.);
#359=ORIENTED_EDGE('',*,*,#281,.F.);
#360=ORIENTED_EDGE('',*,*,#282,.F.);
#361=ORIENTED_EDGE('',*,*,#277,.F.);
#362=ORIENTED_EDGE('',*,*,#283,.F.);
#363=ORIENTED_EDGE('',*,*,#284,.T.);
#364=ORIENTED_EDGE('',*,*,#285,.T.);
#365=ORIENTED_EDGE('',*,*,#286,.F.);
#366=ORIENTED_EDGE('',*,*,#280,.T.);
#367=ORIENTED_EDGE('',*,*,#276,.F.);
#368=ORIENTED_EDGE('',*,*,#287,.T.);
#369=ORIENTED_EDGE('',*,*,#288,.F.);
#370=ORIENTED_EDGE('',*,*,#289,.F.);
#371=ORIENTED_EDGE('',*,*,#290,.T.);
#372=ORIENTED_EDGE('',*,*,#283,.T.);
#373=ORIENTED_EDGE('',*,*,#291,.T.);
#374=ORIENTED_EDGE('',*,*,#281,.T.);
#375=ORIENTED_EDGE('',*,*,#286,.T.);
#376=ORIENTED_EDGE('',*,*,#292,.T.);
#377=ORIENTED_EDGE('',*,*,#293,.T.);
#378=ORIENTED_EDGE('',*,*,#294,.T.);
#379=ORIENTED_EDGE('',*,*,#294,.F.);
#380=ORIENTED_EDGE('',*,*,#295,.T.);
#381=ORIENTED_EDGE('',*,*,#296,.F.);
#382=ORIENTED_EDGE('',*,*,#297,.F.);
#383=ORIENTED_EDGE('',*,*,#298,.T.);
#384=ORIENTED_EDGE('',*,*,#299,.T.);
#385=ORIENTED_EDGE('',*,*,#293,.F.);
#386=ORIENTED_EDGE('',*,*,#300,.F.);
#387=ORIENTED_EDGE('',*,*,#301,.F.);
#388=ORIENTED_EDGE('',*,*,#295,.F.);
#389=ORIENTED_EDGE('',*,*,#292,.F.);
#390=ORIENTED_EDGE('',*,*,#285,.F.);
#391=ORIENTED_EDGE('',*,*,#302,.T.);
#392=ORIENTED_EDGE('',*,*,#303,.T.);
#393=ORIENTED_EDGE('',*,*,#304,.F.);
#394=ORIENTED_EDGE('',*,*,#300,.T.);
#395=ORIENTED_EDGE('',*,*,#305,.T.);
#396=ORIENTED_EDGE('',*,*,#306,.T.);
#397=ORIENTED_EDGE('',*,*,#307,.T.);
#398=ORIENTED_EDGE('',*,*,#296,.T.);
#399=ORIENTED_EDGE('',*,*,#301,.T.);
#400=ORIENTED_EDGE('',*,*,#304,.T.);
#401=ORIENTED_EDGE('',*,*,#306,.F.);
#402=ORIENTED_EDGE('',*,*,#308,.F.);
#403=ORIENTED_EDGE('',*,*,#309,.F.);
#404=ORIENTED_EDGE('',*,*,#310,.F.);
#405=ORIENTED_EDGE('',*,*,#305,.F.);
#406=ORIENTED_EDGE('',*,*,#303,.F.);
#407=ORIENTED_EDGE('',*,*,#311,.T.);
#408=ORIENTED_EDGE('',*,*,#312,.T.);
#409=ORIENTED_EDGE('',*,*,#313,.F.);
#410=ORIENTED_EDGE('',*,*,#308,.T.);
#411=ORIENTED_EDGE('',*,*,#314,.T.);
#412=ORIENTED_EDGE('',*,*,#309,.T.);
#413=ORIENTED_EDGE('',*,*,#313,.T.);
#414=ORIENTED_EDGE('',*,*,#315,.T.);
#415=ORIENTED_EDGE('',*,*,#316,.T.);
#416=ORIENTED_EDGE('',*,*,#317,.T.);
#417=ORIENTED_EDGE('',*,*,#317,.F.);
#418=ORIENTED_EDGE('',*,*,#318,.T.);
#419=ORIENTED_EDGE('',*,*,#319,.F.);
#420=ORIENTED_EDGE('',*,*,#320,.F.);
#421=ORIENTED_EDGE('',*,*,#321,.T.);
#422=ORIENTED_EDGE('',*,*,#322,.T.);
#423=ORIENTED_EDGE('',*,*,#316,.F.);
#424=ORIENTED_EDGE('',*,*,#323,.F.);
#425=ORIENTED_EDGE('',*,*,#324,.F.);
#426=ORIENTED_EDGE('',*,*,#318,.F.);
#427=ORIENTED_EDGE('',*,*,#315,.F.);
#428=ORIENTED_EDGE('',*,*,#312,.F.);
#429=ORIENTED_EDGE('',*,*,#325,.T.);
#430=ORIENTED_EDGE('',*,*,#326,.T.);
#431=ORIENTED_EDGE('',*,*,#327,.F.);
#432=ORIENTED_EDGE('',*,*,#323,.T.);
#433=ORIENTED_EDGE('',*,*,#328,.T.);
#434=ORIENTED_EDGE('',*,*,#329,.T.);
#435=ORIENTED_EDGE('',*,*,#330,.T.);
#436=ORIENTED_EDGE('',*,*,#288,.T.);
#437=ORIENTED_EDGE('',*,*,#331,.T.);
#438=ORIENTED_EDGE('',*,*,#332,.T.);
#439=ORIENTED_EDGE('',*,*,#329,.F.);
#440=ORIENTED_EDGE('',*,*,#333,.F.);
#441=ORIENTED_EDGE('',*,*,#334,.F.);
#442=ORIENTED_EDGE('',*,*,#335,.F.);
#443=ORIENTED_EDGE('',*,*,#328,.F.);
#444=ORIENTED_EDGE('',*,*,#336,.F.);
#445=ORIENTED_EDGE('',*,*,#337,.T.);
#446=ORIENTED_EDGE('',*,*,#320,.T.);
#447=ORIENTED_EDGE('',*,*,#338,.F.);
#448=ORIENTED_EDGE('',*,*,#333,.T.);
#449=ORIENTED_EDGE('',*,*,#274,.F.);
#450=ORIENTED_EDGE('',*,*,#339,.F.);
#451=ORIENTED_EDGE('',*,*,#340,.T.);
#452=ORIENTED_EDGE('',*,*,#336,.T.);
#453=ORIENTED_EDGE('',*,*,#332,.F.);
#454=ORIENTED_EDGE('',*,*,#341,.T.);
#455=ORIENTED_EDGE('',*,*,#319,.T.);
#456=ORIENTED_EDGE('',*,*,#324,.T.);
#457=ORIENTED_EDGE('',*,*,#327,.T.);
#458=ORIENTED_EDGE('',*,*,#342,.T.);
#459=ORIENTED_EDGE('',*,*,#334,.T.);
#460=ORIENTED_EDGE('',*,*,#338,.T.);
#461=ORIENTED_EDGE('',*,*,#330,.F.);
#462=ORIENTED_EDGE('',*,*,#335,.T.);
#463=ORIENTED_EDGE('',*,*,#342,.F.);
#464=ORIENTED_EDGE('',*,*,#326,.F.);
#465=ORIENTED_EDGE('',*,*,#343,.T.);
#466=ORIENTED_EDGE('',*,*,#289,.T.);
#467=ORIENTED_EDGE('',*,*,#325,.F.);
#468=ORIENTED_EDGE('',*,*,#311,.F.);
#469=ORIENTED_EDGE('',*,*,#302,.F.);
#470=ORIENTED_EDGE('',*,*,#284,.F.);
#471=ORIENTED_EDGE('',*,*,#290,.F.);
#472=ORIENTED_EDGE('',*,*,#343,.F.);
#473=ORIENTED_EDGE('',*,*,#344,.T.);
#474=ORIENTED_EDGE('',*,*,#307,.F.);
#475=ORIENTED_EDGE('',*,*,#310,.T.);
#476=ORIENTED_EDGE('',*,*,#314,.F.);
#477=ORIENTED_EDGE('',*,*,#322,.F.);
#478=ORIENTED_EDGE('',*,*,#345,.T.);
#479=ORIENTED_EDGE('',*,*,#297,.T.);
#480=ORIENTED_EDGE('',*,*,#279,.F.);
#481=ORIENTED_EDGE('',*,*,#282,.T.);
#482=ORIENTED_EDGE('',*,*,#291,.F.);
#483=ORIENTED_EDGE('',*,*,#299,.F.);
#484=ORIENTED_EDGE('',*,*,#346,.T.);
#485=ORIENTED_EDGE('',*,*,#339,.T.);
#486=ORIENTED_EDGE('',*,*,#275,.F.);
#487=ORIENTED_EDGE('',*,*,#341,.F.);
#488=ORIENTED_EDGE('',*,*,#331,.F.);
#489=ORIENTED_EDGE('',*,*,#287,.F.);
#490=ORIENTED_EDGE('',*,*,#321,.F.);
#491=ORIENTED_EDGE('',*,*,#337,.F.);
#492=ORIENTED_EDGE('',*,*,#340,.F.);
#493=ORIENTED_EDGE('',*,*,#346,.F.);
#494=ORIENTED_EDGE('',*,*,#298,.F.);
#495=ORIENTED_EDGE('',*,*,#345,.F.);
#496=ORIENTED_EDGE('',*,*,#347,.T.);
#497=ORIENTED_EDGE('',*,*,#347,.F.);
#498=ORIENTED_EDGE('',*,*,#348,.T.);
#499=ORIENTED_EDGE('',*,*,#349,.T.);
#500=ORIENTED_EDGE('',*,*,#348,.F.);
#501=ORIENTED_EDGE('',*,*,#344,.F.);
#502=ORIENTED_EDGE('',*,*,#350,.T.);
#503=ORIENTED_EDGE('',*,*,#349,.F.);
#504=ORIENTED_EDGE('',*,*,#350,.F.);
#505=CYLINDRICAL_SURFACE('',#562,0.196850393700787);
#506=CYLINDRICAL_SURFACE('',#572,0.196850393700787);
#507=CYLINDRICAL_SURFACE('',#581,0.196850393700787);
#508=CYLINDRICAL_SURFACE('',#587,0.196850393700787);
#509=CYLINDRICAL_SURFACE('',#596,0.196850393700787);
#510=CYLINDRICAL_SURFACE('',#604,0.196850393700787);
#511=CYLINDRICAL_SURFACE('',#616,0.78740157480315);
#512=ADVANCED_FACE('',(#41),#505,.T.);
#513=ADVANCED_FACE('',(#42),#21,.T.);
#514=ADVANCED_FACE('',(#43),#22,.T.);
#515=ADVANCED_FACE('',(#44),#23,.T.);
#516=ADVANCED_FACE('',(#45),#506,.T.);
#517=ADVANCED_FACE('',(#46),#24,.T.);
#518=ADVANCED_FACE('',(#47),#25,.T.);
#519=ADVANCED_FACE('',(#48),#26,.T.);
#520=ADVANCED_FACE('',(#49),#507,.T.);
#521=ADVANCED_FACE('',(#50),#27,.T.);
#522=ADVANCED_FACE('',(#51),#28,.T.);
#523=ADVANCED_FACE('',(#52),#508,.T.);
#524=ADVANCED_FACE('',(#53),#29,.T.);
#525=ADVANCED_FACE('',(#54),#30,.T.);
#526=ADVANCED_FACE('',(#55),#31,.T.);
#527=ADVANCED_FACE('',(#56),#509,.T.);
#528=ADVANCED_FACE('',(#57),#32,.T.);
#529=ADVANCED_FACE('',(#58),#33,.T.);
#530=ADVANCED_FACE('',(#59),#34,.T.);
#531=ADVANCED_FACE('',(#60),#510,.T.);
#532=ADVANCED_FACE('',(#61),#35,.T.);
#533=ADVANCED_FACE('',(#62,#16),#36,.F.);
#534=ADVANCED_FACE('',(#63),#37,.T.);
#535=ADVANCED_FACE('',(#64),#38,.T.);
#536=ADVANCED_FACE('',(#65),#39,.T.);
#537=ADVANCED_FACE('',(#66,#17),#40,.T.);
#538=ADVANCED_FACE('',(#67),#15,.F.);
#539=ADVANCED_FACE('',(#68),#511,.F.);
#540=CLOSED_SHELL('',(#512,#513,#514,#515,#516,#517,#518,#519,#520,#521,
#522,#523,#524,#525,#526,#527,#528,#529,#530,#531,#532,#533,#534,#535,#536,
#537,#538,#539));
#541=DERIVED_UNIT_ELEMENT(#543,1.);
#542=DERIVED_UNIT_ELEMENT(#944,-3.);
#543=(
CONVERSION_BASED_UNIT('gram',#545)
MASS_UNIT()
NAMED_UNIT(#941)
);
#544=(
MASS_UNIT()
NAMED_UNIT(*)
SI_UNIT(.KILO.,.GRAM.)
);
#545=MASS_MEASURE_WITH_UNIT(MASS_MEASURE(0.001),#544);
#546=DERIVED_UNIT((#541,#542));
#547=MEASURE_REPRESENTATION_ITEM('density measure',
POSITIVE_RATIO_MEASURE(1.),#546);
#548=PROPERTY_DEFINITION_REPRESENTATION(#553,#550);
#549=PROPERTY_DEFINITION_REPRESENTATION(#554,#551);
#550=REPRESENTATION('material name',(#552),#938);
#551=REPRESENTATION('density',(#547),#938);
#552=DESCRIPTIVE_REPRESENTATION_ITEM('Generic','Generic');
#553=PROPERTY_DEFINITION('material property','material name',#952);
#554=PROPERTY_DEFINITION('material property','density of part',#952);
#555=DATE_TIME_ROLE('creation_date');
#556=APPLIED_DATE_AND_TIME_ASSIGNMENT(#557,#555,(#952));
#557=DATE_AND_TIME(#558,#559);
#558=CALENDAR_DATE(2026,22,6);
#559=LOCAL_TIME(0,0,0.,#560);
#560=COORDINATED_UNIVERSAL_TIME_OFFSET(0,0,.BEHIND.);
#561=AXIS2_PLACEMENT_3D('',#779,#617,#618);
#562=AXIS2_PLACEMENT_3D('',#780,#619,#620);
#563=AXIS2_PLACEMENT_3D('',#783,#621,#622);
#564=AXIS2_PLACEMENT_3D('',#787,#624,#625);
#565=AXIS2_PLACEMENT_3D('',#789,#626,#627);
#566=AXIS2_PLACEMENT_3D('',#792,#629,#630);
#567=AXIS2_PLACEMENT_3D('',#793,#631,#632);
#568=AXIS2_PLACEMENT_3D('',#799,#636,#637);
#569=AXIS2_PLACEMENT_3D('',#806,#641,#642);
#570=AXIS2_PLACEMENT_3D('',#807,#643,#644);
#571=AXIS2_PLACEMENT_3D('',#811,#646,#647);
#572=AXIS2_PLACEMENT_3D('',#815,#650,#651);
#573=AXIS2_PLACEMENT_3D('',#817,#652,#653);
#574=AXIS2_PLACEMENT_3D('',#819,#654,#655);
#575=AXIS2_PLACEMENT_3D('',#822,#657,#658);
#576=AXIS2_PLACEMENT_3D('',#823,#659,#660);
#577=AXIS2_PLACEMENT_3D('',#827,#662,#663);
#578=AXIS2_PLACEMENT_3D('',#833,#667,#668);
#579=AXIS2_PLACEMENT_3D('',#837,#671,#672);
#580=AXIS2_PLACEMENT_3D('',#842,#675,#676);
#581=AXIS2_PLACEMENT_3D('',#843,#677,#678);
#582=AXIS2_PLACEMENT_3D('',#845,#679,#680);
#583=AXIS2_PLACEMENT_3D('',#848,#682,#683);
#584=AXIS2_PLACEMENT_3D('',#849,#684,#685);
#585=AXIS2_PLACEMENT_3D('',#855,#689,#690);
#586=AXIS2_PLACEMENT_3D('',#860,#693,#694);
#587=AXIS2_PLACEMENT_3D('',#861,#695,#696);
#588=AXIS2_PLACEMENT_3D('',#863,#697,#698);
#589=AXIS2_PLACEMENT_3D('',#865,#699,#700);
#590=AXIS2_PLACEMENT_3D('',#868,#702,#703);
#591=AXIS2_PLACEMENT_3D('',#869,#704,#705);
#592=AXIS2_PLACEMENT_3D('',#873,#707,#708);
#593=AXIS2_PLACEMENT_3D('',#879,#712,#713);
#594=AXIS2_PLACEMENT_3D('',#883,#716,#717);
#595=AXIS2_PLACEMENT_3D('',#888,#720,#721);
#596=AXIS2_PLACEMENT_3D('',#889,#722,#723);
#597=AXIS2_PLACEMENT_3D('',#892,#724,#725);
#598=AXIS2_PLACEMENT_3D('',#895,#727,#728);
#599=AXIS2_PLACEMENT_3D('',#898,#730,#731);
#600=AXIS2_PLACEMENT_3D('',#899,#732,#733);
#601=AXIS2_PLACEMENT_3D('',#905,#737,#738);
#602=AXIS2_PLACEMENT_3D('',#909,#741,#742);
#603=AXIS2_PLACEMENT_3D('',#910,#743,#744);
#604=AXIS2_PLACEMENT_3D('',#915,#748,#749);
#605=AXIS2_PLACEMENT_3D('',#916,#750,#751);
#606=AXIS2_PLACEMENT_3D('',#917,#752,#753);
#607=AXIS2_PLACEMENT_3D('',#919,#755,#756);
#608=AXIS2_PLACEMENT_3D('',#921,#757,#758);
#609=AXIS2_PLACEMENT_3D('',#922,#759,#760);
#610=AXIS2_PLACEMENT_3D('',#924,#762,#763);
#611=AXIS2_PLACEMENT_3D('',#926,#765,#766);
#612=AXIS2_PLACEMENT_3D('',#927,#767,#768);
#613=AXIS2_PLACEMENT_3D('',#929,#769,#770);
#614=AXIS2_PLACEMENT_3D('',#930,#771,#772);
#615=AXIS2_PLACEMENT_3D('',#933,#774,#775);
#616=AXIS2_PLACEMENT_3D('',#934,#776,#777);
#617=DIRECTION('axis',(0.,0.,1.));
#618=DIRECTION('refdir',(1.,0.,0.));
#619=DIRECTION('center_axis',(0.,1.,0.));
#620=DIRECTION('ref_axis',(-0.5,0.,0.866025403784439));
#621=DIRECTION('center_axis',(0.612372435695794,-0.707106781186548,-0.353553390593274));
#622=DIRECTION('ref_axis',(-0.612372435695795,-0.707106781186547,0.353553390593274));
#623=DIRECTION('',(0.,-1.,0.));
#624=DIRECTION('center_axis',(0.612372435695795,0.707106781186548,-0.353553390593274));
#625=DIRECTION('ref_axis',(-0.612372435695795,0.707106781186547,0.353553390593274));
#626=DIRECTION('center_axis',(0.,0.707106781186547,-0.707106781186548));
#627=DIRECTION('ref_axis',(3.92523114670944E-17,0.707106781186548,0.707106781186547));
#628=DIRECTION('',(0.,1.,0.));
#629=DIRECTION('center_axis',(0.,-0.707106781186548,-0.707106781186548));
#630=DIRECTION('ref_axis',(3.92523114670944E-17,-0.707106781186547,0.707106781186547));
#631=DIRECTION('center_axis',(0.,0.,1.));
#632=DIRECTION('ref_axis',(-1.,0.,0.));
#633=DIRECTION('',(-1.,0.,0.));
#634=DIRECTION('',(0.,-1.,0.));
#635=DIRECTION('',(1.,0.,0.));
#636=DIRECTION('center_axis',(0.,-0.707106781186547,0.707106781186548));
#637=DIRECTION('ref_axis',(1.,0.,0.));
#638=DIRECTION('',(-0.377964473009228,0.654653670707977,0.654653670707977));
#639=DIRECTION('',(1.,0.,0.));
#640=DIRECTION('',(0.377964473009227,0.654653670707977,0.654653670707977));
#641=DIRECTION('center_axis',(0.,0.707106781186547,-0.707106781186548));
#642=DIRECTION('ref_axis',(-3.92523114670944E-17,0.707106781186548,0.707106781186547));
#643=DIRECTION('center_axis',(-0.612372435695795,-0.707106781186548,0.353553390593274));
#644=DIRECTION('ref_axis',(0.5,0.,0.866025403784439));
#645=DIRECTION('',(-0.5,0.,-0.866025403784439));
#646=DIRECTION('center_axis',(0.612372435695795,0.707106781186548,-0.353553390593274));
#647=DIRECTION('ref_axis',(-0.612372435695795,0.707106781186547,0.353553390593274));
#648=DIRECTION('',(-0.755928946018455,0.654653670707977,3.43375548838758E-16));
#649=DIRECTION('',(0.5,0.,0.866025403784439));
#650=DIRECTION('center_axis',(0.,1.,0.));
#651=DIRECTION('ref_axis',(0.5,0.,0.866025403784439));
#652=DIRECTION('center_axis',(0.,-0.707106781186548,-0.707106781186548));
#653=DIRECTION('ref_axis',(-3.92523114670944E-17,-0.707106781186547,0.707106781186547));
#654=DIRECTION('center_axis',(-0.612372435695795,0.707106781186547,-0.353553390593274));
#655=DIRECTION('ref_axis',(0.612372435695794,0.707106781186548,0.353553390593274));
#656=DIRECTION('',(0.,1.,0.));
#657=DIRECTION('center_axis',(-0.612372435695795,-0.707106781186547,-0.353553390593274));
#658=DIRECTION('ref_axis',(0.612372435695794,-0.707106781186548,0.353553390593274));
#659=DIRECTION('center_axis',(0.612372435695795,0.707106781186547,0.353553390593274));
#660=DIRECTION('ref_axis',(0.5,0.,-0.866025403784439));
#661=DIRECTION('',(0.5,0.,-0.866025403784438));
#662=DIRECTION('center_axis',(-0.612372435695795,-0.707106781186547,-0.353553390593274));
#663=DIRECTION('ref_axis',(0.612372435695794,-0.707106781186548,0.353553390593274));
#664=DIRECTION('',(0.755928946018455,-0.654653670707977,-1.51751511304421E-16));
#665=DIRECTION('',(-0.5,0.,0.866025403784438));
#666=DIRECTION('',(0.377964473009227,-0.654653670707977,0.654653670707977));
#667=DIRECTION('center_axis',(0.866025403784439,0.,0.5));
#668=DIRECTION('ref_axis',(-0.5,0.,0.866025403784438));
#669=DIRECTION('',(-0.5,0.,0.866025403784438));
#670=DIRECTION('',(0.,-1.,0.));
#671=DIRECTION('center_axis',(0.612372435695795,-0.707106781186547,0.353553390593274));
#672=DIRECTION('ref_axis',(0.5,0.,-0.866025403784438));
#673=DIRECTION('',(0.5,0.,-0.866025403784438));
#674=DIRECTION('',(0.755928946018455,0.654653670707977,-3.80668543863594E-16));
#675=DIRECTION('center_axis',(-0.612372435695795,0.707106781186547,-0.353553390593274));
#676=DIRECTION('ref_axis',(0.612372435695794,0.707106781186548,0.353553390593274));
#677=DIRECTION('center_axis',(0.,-1.,0.));
#678=DIRECTION('ref_axis',(1.,0.,3.20493781063927E-16));
#679=DIRECTION('center_axis',(-0.612372435695794,0.707106781186548,0.353553390593273));
#680=DIRECTION('ref_axis',(0.612372435695795,0.707106781186547,-0.353553390593274));
#681=DIRECTION('',(0.,1.,0.));
#682=DIRECTION('center_axis',(-0.612372435695794,-0.707106781186548,0.353553390593273));
#683=DIRECTION('ref_axis',(0.612372435695795,-0.707106781186547,-0.353553390593274));
#684=DIRECTION('center_axis',(0.866025403784439,0.,-0.5));
#685=DIRECTION('ref_axis',(0.5,0.,0.866025403784439));
#686=DIRECTION('',(0.5,0.,0.866025403784439));
#687=DIRECTION('',(0.,-1.,0.));
#688=DIRECTION('',(-0.5,0.,-0.866025403784439));
#689=DIRECTION('center_axis',(0.612372435695794,-0.707106781186548,-0.353553390593273));
#690=DIRECTION('ref_axis',(-0.5,0.,-0.866025403784439));
#691=DIRECTION('',(-0.5,0.,-0.866025403784439));
#692=DIRECTION('',(0.377964473009228,0.654653670707978,-0.654653670707976));
#693=DIRECTION('center_axis',(-0.612372435695794,0.707106781186548,0.353553390593273));
#694=DIRECTION('ref_axis',(0.612372435695795,0.707106781186547,-0.353553390593274));
#695=DIRECTION('center_axis',(0.,1.,0.));
#696=DIRECTION('ref_axis',(0.500000000000001,0.,-0.866025403784438));
#697=DIRECTION('center_axis',(-0.612372435695794,-0.707106781186548,0.353553390593273));
#698=DIRECTION('ref_axis',(0.612372435695795,-0.707106781186547,-0.353553390593274));
#699=DIRECTION('center_axis',(-2.17558392881683E-16,0.707106781186547,0.707106781186548));
#700=DIRECTION('ref_axis',(1.57009245868377E-16,0.707106781186548,-0.707106781186547));
#701=DIRECTION('',(0.,1.,0.));
#702=DIRECTION('center_axis',(-2.17558392881683E-16,-0.707106781186548,
0.707106781186548));
#703=DIRECTION('ref_axis',(1.57009245868377E-16,-0.707106781186547,-0.707106781186547));
#704=DIRECTION('center_axis',(2.17558392881683E-16,0.707106781186548,-0.707106781186548));
#705=DIRECTION('ref_axis',(-1.,0.,-3.0767402982137E-16));
#706=DIRECTION('',(-1.,0.,-3.0767402982137E-16));
#707=DIRECTION('center_axis',(-2.17558392881683E-16,-0.707106781186548,
0.707106781186548));
#708=DIRECTION('ref_axis',(1.17756934401283E-16,-0.707106781186547,-0.707106781186547));
#709=DIRECTION('',(-0.377964473009227,-0.654653670707977,-0.654653670707977));
#710=DIRECTION('',(1.,0.,3.0767402982137E-16));
#711=DIRECTION('',(0.377964473009228,-0.654653670707977,-0.654653670707976));
#712=DIRECTION('center_axis',(3.0767402982137E-16,0.,-1.));
#713=DIRECTION('ref_axis',(1.,0.,3.0767402982137E-16));
#714=DIRECTION('',(1.,0.,3.0767402982137E-16));
#715=DIRECTION('',(0.,-1.,0.));
#716=DIRECTION('center_axis',(2.17558392881683E-16,-0.707106781186547,-0.707106781186548));
#717=DIRECTION('ref_axis',(-1.,0.,-3.0767402982137E-16));
#718=DIRECTION('',(-1.,0.,-3.0767402982137E-16));
#719=DIRECTION('',(-0.377964473009227,0.654653670707977,-0.654653670707977));
#720=DIRECTION('center_axis',(-2.17558392881683E-16,0.707106781186547,0.707106781186548));
#721=DIRECTION('ref_axis',(1.17756934401283E-16,0.707106781186548,-0.707106781186547));
#722=DIRECTION('center_axis',(0.,1.,0.));
#723=DIRECTION('ref_axis',(-1.,0.,-4.80740671595891E-16));
#724=DIRECTION('center_axis',(0.612372435695794,-0.707106781186548,0.353553390593274));
#725=DIRECTION('ref_axis',(-0.612372435695795,-0.707106781186547,-0.353553390593274));
#726=DIRECTION('',(0.,-1.,0.));
#727=DIRECTION('center_axis',(0.612372435695794,0.707106781186548,0.353553390593274));
#728=DIRECTION('ref_axis',(-0.612372435695794,0.707106781186547,-0.353553390593274));
#729=DIRECTION('',(0.,1.,0.));
#730=DIRECTION('center_axis',(0.612372435695794,-0.707106781186548,-0.353553390593274));
#731=DIRECTION('ref_axis',(-0.612372435695795,-0.707106781186547,0.353553390593274));
#732=DIRECTION('center_axis',(-0.866025403784438,0.,-0.500000000000001));
#733=DIRECTION('ref_axis',(0.500000000000001,0.,-0.866025403784438));
#734=DIRECTION('',(-0.500000000000001,0.,0.866025403784438));
#735=DIRECTION('',(0.,1.,0.));
#736=DIRECTION('',(0.500000000000001,0.,-0.866025403784438));
#737=DIRECTION('center_axis',(-0.612372435695794,0.707106781186548,-0.353553390593274));
#738=DIRECTION('ref_axis',(-0.500000000000001,0.,0.866025403784438));
#739=DIRECTION('',(-0.755928946018455,-0.654653670707977,4.57834065118344E-16));
#740=DIRECTION('',(0.500000000000001,0.,-0.866025403784438));
#741=DIRECTION('center_axis',(0.612372435695794,-0.707106781186548,0.353553390593274));
#742=DIRECTION('ref_axis',(-0.612372435695795,-0.707106781186547,-0.353553390593274));
#743=DIRECTION('center_axis',(-0.612372435695794,0.707106781186548,0.353553390593274));
#744=DIRECTION('ref_axis',(0.5,0.,0.866025403784439));
#745=DIRECTION('',(-0.377964473009228,-0.654653670707977,0.654653670707977));
#746=DIRECTION('',(-0.5,0.,-0.866025403784439));
#747=DIRECTION('',(0.5,0.,0.866025403784439));
#748=DIRECTION('center_axis',(0.,1.,0.));
#749=DIRECTION('ref_axis',(-0.5,0.,-0.866025403784439));
#750=DIRECTION('center_axis',(0.612372435695794,0.707106781186548,0.353553390593274));
#751=DIRECTION('ref_axis',(-0.612372435695794,0.707106781186547,-0.353553390593274));
#752=DIRECTION('center_axis',(-0.612372435695794,-0.707106781186548,-0.353553390593274));
#753=DIRECTION('ref_axis',(-0.500000000000001,0.,0.866025403784438));
#754=DIRECTION('',(-0.500000000000001,0.,0.866025403784438));
#755=DIRECTION('center_axis',(0.,1.,0.));
#756=DIRECTION('ref_axis',(0.,0.,1.));
#757=DIRECTION('center_axis',(0.,1.,0.));
#758=DIRECTION('ref_axis',(1.,0.,0.));
#759=DIRECTION('center_axis',(0.612372435695794,0.707106781186548,-0.353553390593273));
#760=DIRECTION('ref_axis',(-0.5,0.,-0.866025403784439));
#761=DIRECTION('',(0.5,0.,0.866025403784439));
#762=DIRECTION('center_axis',(0.,0.707106781186548,0.707106781186548));
#763=DIRECTION('ref_axis',(1.,0.,0.));
#764=DIRECTION('',(-1.,0.,0.));
#765=DIRECTION('center_axis',(-0.866025403784439,0.,0.5));
#766=DIRECTION('ref_axis',(-0.5,0.,-0.866025403784439));
#767=DIRECTION('center_axis',(0.,1.,0.));
#768=DIRECTION('ref_axis',(0.,0.,1.));
#769=DIRECTION('center_axis',(0.,1.,0.));
#770=DIRECTION('ref_axis',(1.,0.,0.));
#771=DIRECTION('center_axis',(0.,-1.,0.));
#772=DIRECTION('ref_axis',(1.,0.,0.));
#773=DIRECTION('',(-0.0871557427476582,-0.996194698091746,1.0673500138323E-17));
#774=DIRECTION('center_axis',(0.,-1.,0.));
#775=DIRECTION('ref_axis',(1.,0.,0.));
#776=DIRECTION('center_axis',(0.,-1.,0.));
#777=DIRECTION('ref_axis',(1.,0.,0.));
#778=DIRECTION('',(0.,1.,0.));
#779=CARTESIAN_POINT('',(0.,0.,0.));
#780=CARTESIAN_POINT('Origin',(-0.454606511172933,0.,0.787401574803149));
#781=CARTESIAN_POINT('',(-0.553031708023327,0.885624920514874,0.957879016492999));
#782=CARTESIAN_POINT('',(-0.625083952862784,0.859251968503937,0.885826771653543));
#783=CARTESIAN_POINT('Origin',(-0.454606511172933,1.05610236220472,0.787401574803149));
#784=CARTESIAN_POINT('',(-0.625083952862784,-0.268700787401575,0.885826771653543));
#785=CARTESIAN_POINT('',(-0.625083952862784,0.,0.885826771653543));
#786=CARTESIAN_POINT('',(-0.553031708023327,-0.295073739412512,0.957879016492999));
#787=CARTESIAN_POINT('Origin',(-0.454606511172933,-0.465551181102362,0.787401574803149));
#788=CARTESIAN_POINT('',(-0.454606511172933,-0.268700787401575,0.984251968503937));
#789=CARTESIAN_POINT('Origin',(-0.454606511172933,-0.465551181102362,0.787401574803149));
#790=CARTESIAN_POINT('',(-0.454606511172933,0.859251968503937,0.984251968503937));
#791=CARTESIAN_POINT('',(-0.454606511172933,0.,0.984251968503937));
#792=CARTESIAN_POINT('Origin',(-0.454606511172933,1.05610236220472,0.787401574803149));
#793=CARTESIAN_POINT('Origin',(0.568258138966167,0.,0.984251968503937));
#794=CARTESIAN_POINT('',(0.454606511172933,-0.268700787401575,0.984251968503937));
#795=CARTESIAN_POINT('',(0.284129069483083,-0.268700787401575,0.984251968503937));
#796=CARTESIAN_POINT('',(0.454606511172933,0.859251968503937,0.984251968503937));
#797=CARTESIAN_POINT('',(0.454606511172933,0.,0.984251968503937));
#798=CARTESIAN_POINT('',(0.284129069483083,0.859251968503937,0.984251968503937));
#799=CARTESIAN_POINT('Origin',(0.284129069483083,-0.331200787401575,0.921751968503937));
#800=CARTESIAN_POINT('',(-0.496089355317464,-0.393700787401575,0.859251968503937));
#801=CARTESIAN_POINT('',(-0.496089355317464,-0.393700787401575,0.859251968503937));
#802=CARTESIAN_POINT('',(0.496089355317464,-0.393700787401575,0.859251968503937));
#803=CARTESIAN_POINT('',(0.284129069483083,-0.393700787401575,0.859251968503937));
#804=CARTESIAN_POINT('',(0.553031708023327,-0.295073739412512,0.957879016492999));
#805=CARTESIAN_POINT('',(0.496089355317464,-0.393700787401575,0.859251968503937));
#806=CARTESIAN_POINT('Origin',(0.454606511172933,-0.465551181102362,0.787401574803149));
#807=CARTESIAN_POINT('Origin',(-0.656196085971181,-0.331200787401575,0.706938976377952));
#808=CARTESIAN_POINT('',(-1.07969046403572,-0.268700787401575,0.0984251968503927));
#809=CARTESIAN_POINT('',(-0.710322673707709,-0.268700787401575,0.738188976377952));
#810=CARTESIAN_POINT('',(-1.10606341604665,-0.295073739412512,-7.35040874366677E-16));
#811=CARTESIAN_POINT('Origin',(-0.909213022345867,-0.465551181102362,-8.74191357972564E-16));
#812=CARTESIAN_POINT('',(-0.992178710634927,-0.393700787401575,-6.99353086378051E-16));
#813=CARTESIAN_POINT('',(-0.992178710634927,-0.393700787401575,-7.86772222175308E-16));
#814=CARTESIAN_POINT('',(-0.602069498234654,-0.393700787401575,0.675688976377952));
#815=CARTESIAN_POINT('Origin',(0.454606511172933,0.,0.787401574803149));
#816=CARTESIAN_POINT('',(0.553031708023327,0.885624920514874,0.957879016492999));
#817=CARTESIAN_POINT('Origin',(0.454606511172933,1.05610236220472,0.787401574803149));
#818=CARTESIAN_POINT('',(0.625083952862783,-0.268700787401575,0.885826771653543));
#819=CARTESIAN_POINT('Origin',(0.454606511172933,-0.465551181102362,0.787401574803149));
#820=CARTESIAN_POINT('',(0.625083952862783,0.859251968503937,0.885826771653543));
#821=CARTESIAN_POINT('',(0.625083952862784,0.,0.885826771653543));
#822=CARTESIAN_POINT('Origin',(0.454606511172933,1.05610236220472,0.787401574803149));
#823=CARTESIAN_POINT('Origin',(0.940325155454265,0.921751968503937,0.214812992125984));
#824=CARTESIAN_POINT('',(1.07969046403572,0.859251968503937,0.0984251968503938));
#825=CARTESIAN_POINT('',(0.994451743190792,0.859251968503937,0.246062992125984));
#826=CARTESIAN_POINT('',(1.10606341604665,0.885624920514874,1.08266533578289E-16));
#827=CARTESIAN_POINT('Origin',(0.909213022345867,1.05610236220472,0.));
#828=CARTESIAN_POINT('',(0.992178710634927,0.984251968503937,1.31128703695885E-16));
#829=CARTESIAN_POINT('',(0.992178710634927,0.984251968503937,1.31128703695885E-16));
#830=CARTESIAN_POINT('',(0.496089355317464,0.984251968503937,0.859251968503937));
#831=CARTESIAN_POINT('',(0.886198567717737,0.984251968503937,0.183562992125984));
#832=CARTESIAN_POINT('',(0.496089355317464,0.984251968503937,0.859251968503937));
#833=CARTESIAN_POINT('Origin',(1.13651627793233,0.,0.));
#834=CARTESIAN_POINT('',(1.07969046403572,-0.268700787401575,0.0984251968503938));
#835=CARTESIAN_POINT('',(0.994451743190792,-0.268700787401575,0.246062992125984));
#836=CARTESIAN_POINT('',(1.07969046403572,0.,0.0984251968503938));
#837=CARTESIAN_POINT('Origin',(0.940325155454265,-0.331200787401575,0.214812992125984));
#838=CARTESIAN_POINT('',(0.992178710634927,-0.393700787401575,2.62257407391769E-16));
#839=CARTESIAN_POINT('',(0.886198567717737,-0.393700787401575,0.183562992125984));
#840=CARTESIAN_POINT('',(1.10606341604665,-0.295073739412512,1.17488536271164E-16));
#841=CARTESIAN_POINT('',(0.992178710634927,-0.393700787401575,1.74838271594513E-16));
#842=CARTESIAN_POINT('Origin',(0.909213022345867,-0.465551181102363,0.));
#843=CARTESIAN_POINT('Origin',(0.909213022345867,0.,0.));
#844=CARTESIAN_POINT('',(1.07969046403572,-0.268700787401575,-0.0984251968503938));
#845=CARTESIAN_POINT('Origin',(0.909213022345867,-0.465551181102362,0.));
#846=CARTESIAN_POINT('',(1.07969046403572,0.859251968503937,-0.0984251968503938));
#847=CARTESIAN_POINT('',(1.07969046403572,0.,-0.0984251968503937));
#848=CARTESIAN_POINT('Origin',(0.909213022345867,1.05610236220472,0.));
#849=CARTESIAN_POINT('Origin',(0.568258138966167,0.,-0.984251968503937));
#850=CARTESIAN_POINT('',(0.625083952862784,-0.268700787401575,-0.885826771653543));
#851=CARTESIAN_POINT('',(0.710322673707709,-0.268700787401575,-0.738188976377953));
#852=CARTESIAN_POINT('',(0.625083952862784,0.859251968503937,-0.885826771653543));
#853=CARTESIAN_POINT('',(0.625083952862784,0.,-0.885826771653543));
#854=CARTESIAN_POINT('',(0.710322673707709,0.859251968503937,-0.738188976377953));
#855=CARTESIAN_POINT('Origin',(0.656196085971181,-0.331200787401575,-0.706938976377952));
#856=CARTESIAN_POINT('',(0.496089355317464,-0.393700787401575,-0.859251968503937));
#857=CARTESIAN_POINT('',(0.602069498234654,-0.393700787401575,-0.675688976377952));
#858=CARTESIAN_POINT('',(0.553031708023328,-0.295073739412512,-0.957879016492999));
#859=CARTESIAN_POINT('',(0.496089355317464,-0.393700787401575,-0.859251968503937));
#860=CARTESIAN_POINT('Origin',(0.454606511172934,-0.465551181102362,-0.787401574803149));
#861=CARTESIAN_POINT('Origin',(0.454606511172934,0.,-0.787401574803149));
#862=CARTESIAN_POINT('',(0.553031708023328,0.885624920514874,-0.957879016492999));
#863=CARTESIAN_POINT('Origin',(0.454606511172934,1.05610236220472,-0.787401574803149));
#864=CARTESIAN_POINT('',(0.454606511172934,-0.268700787401575,-0.984251968503937));
#865=CARTESIAN_POINT('Origin',(0.454606511172934,-0.465551181102362,-0.787401574803149));
#866=CARTESIAN_POINT('',(0.454606511172934,0.859251968503937,-0.984251968503937));
#867=CARTESIAN_POINT('',(0.454606511172934,0.,-0.984251968503937));
#868=CARTESIAN_POINT('Origin',(0.454606511172934,1.05610236220472,-0.787401574803149));
#869=CARTESIAN_POINT('Origin',(-0.284129069483083,0.921751968503937,-0.921751968503937));
#870=CARTESIAN_POINT('',(-0.454606511172933,0.859251968503937,-0.984251968503937));
#871=CARTESIAN_POINT('',(-0.284129069483083,0.859251968503937,-0.984251968503937));
#872=CARTESIAN_POINT('',(-0.553031708023327,0.885624920514874,-0.957879016493));
#873=CARTESIAN_POINT('Origin',(-0.454606511172933,1.05610236220472,-0.787401574803149));
#874=CARTESIAN_POINT('',(-0.496089355317463,0.984251968503937,-0.859251968503937));
#875=CARTESIAN_POINT('',(-0.496089355317463,0.984251968503937,-0.859251968503937));
#876=CARTESIAN_POINT('',(0.496089355317464,0.984251968503937,-0.859251968503937));
#877=CARTESIAN_POINT('',(-0.284129069483083,0.984251968503937,-0.859251968503937));
#878=CARTESIAN_POINT('',(0.496089355317464,0.984251968503937,-0.859251968503937));
#879=CARTESIAN_POINT('Origin',(-0.568258138966166,0.,-0.984251968503937));
#880=CARTESIAN_POINT('',(-0.454606511172933,-0.268700787401575,-0.984251968503937));
#881=CARTESIAN_POINT('',(-0.284129069483083,-0.268700787401575,-0.984251968503937));
#882=CARTESIAN_POINT('',(-0.454606511172933,0.,-0.984251968503937));
#883=CARTESIAN_POINT('Origin',(-0.284129069483083,-0.331200787401575,-0.921751968503937));
#884=CARTESIAN_POINT('',(-0.496089355317463,-0.393700787401575,-0.859251968503937));
#885=CARTESIAN_POINT('',(-0.284129069483083,-0.393700787401575,-0.859251968503937));
#886=CARTESIAN_POINT('',(-0.553031708023327,-0.295073739412512,-0.957879016493));
#887=CARTESIAN_POINT('',(-0.496089355317463,-0.393700787401575,-0.859251968503937));
#888=CARTESIAN_POINT('Origin',(-0.454606511172933,-0.465551181102362,-0.787401574803149));
#889=CARTESIAN_POINT('Origin',(-0.909213022345867,0.,-8.74191357972564E-16));
#890=CARTESIAN_POINT('',(-1.10606341604665,0.885624920514874,-7.39651875713114E-16));
#891=CARTESIAN_POINT('',(-1.07969046403572,0.859251968503937,-0.0984251968503946));
#892=CARTESIAN_POINT('Origin',(-0.909213022345867,1.05610236220472,-8.74191357972564E-16));
#893=CARTESIAN_POINT('',(-1.07969046403572,-0.268700787401575,-0.0984251968503946));
#894=CARTESIAN_POINT('',(-1.07969046403572,0.,-0.0984251968503947));
#895=CARTESIAN_POINT('Origin',(-0.909213022345867,-0.465551181102362,-8.74191357972564E-16));
#896=CARTESIAN_POINT('',(-1.07969046403572,0.859251968503937,0.0984251968503927));
#897=CARTESIAN_POINT('',(-1.07969046403572,0.,0.0984251968503927));
#898=CARTESIAN_POINT('Origin',(-0.909213022345867,1.05610236220472,-8.74191357972564E-16));
#899=CARTESIAN_POINT('Origin',(-1.13651627793233,0.,-5.24514814783538E-16));
#900=CARTESIAN_POINT('',(-0.625083952862783,0.859251968503937,-0.885826771653543));
#901=CARTESIAN_POINT('',(-0.994451743190792,0.859251968503937,-0.246062992125985));
#902=CARTESIAN_POINT('',(-0.625083952862783,-0.268700787401575,-0.885826771653543));
#903=CARTESIAN_POINT('',(-0.625083952862783,0.,-0.885826771653543));
#904=CARTESIAN_POINT('',(-0.994451743190792,-0.268700787401575,-0.246062992125985));
#905=CARTESIAN_POINT('Origin',(-0.940325155454265,0.921751968503937,-0.214812992125985));
#906=CARTESIAN_POINT('',(-0.992178710634927,0.984251968503937,-8.08627006124622E-16));
#907=CARTESIAN_POINT('',(-0.992178710634927,0.984251968503937,-8.08627006124622E-16));
#908=CARTESIAN_POINT('',(-0.886198567717737,0.984251968503937,-0.183562992125985));
#909=CARTESIAN_POINT('Origin',(-0.454606511172933,1.05610236220472,-0.787401574803149));
#910=CARTESIAN_POINT('Origin',(-0.656196085971181,0.921751968503937,0.706938976377952));
#911=CARTESIAN_POINT('',(-0.496089355317464,0.984251968503937,0.859251968503937));
#912=CARTESIAN_POINT('',(-0.496089355317464,0.984251968503937,0.859251968503937));
#913=CARTESIAN_POINT('',(-0.602069498234654,0.984251968503937,0.675688976377952));
#914=CARTESIAN_POINT('',(-0.710322673707709,0.859251968503937,0.738188976377952));
#915=CARTESIAN_POINT('Origin',(-0.454606511172933,0.,-0.787401574803149));
#916=CARTESIAN_POINT('Origin',(-0.454606511172933,-0.465551181102362,-0.787401574803149));
#917=CARTESIAN_POINT('Origin',(-0.940325155454265,-0.331200787401575,-0.214812992125985));
#918=CARTESIAN_POINT('',(-0.886198567717737,-0.393700787401575,-0.183562992125985));
#919=CARTESIAN_POINT('Origin',(0.,-0.393700787401575,0.));
#920=CARTESIAN_POINT('',(-0.78740157480315,-0.393700787401575,9.64288818226262E-17));
#921=CARTESIAN_POINT('Origin',(0.,-0.393700787401575,0.));
#922=CARTESIAN_POINT('Origin',(0.656196085971181,0.921751968503937,-0.706938976377952));
#923=CARTESIAN_POINT('',(0.602069498234654,0.984251968503937,-0.675688976377952));
#924=CARTESIAN_POINT('Origin',(0.284129069483083,0.921751968503937,0.921751968503937));
#925=CARTESIAN_POINT('',(0.284129069483083,0.984251968503937,0.859251968503937));
#926=CARTESIAN_POINT('Origin',(-0.568258138966167,0.,0.984251968503937));
#927=CARTESIAN_POINT('Origin',(0.,0.984251968503937,0.));
#928=CARTESIAN_POINT('',(-0.70129068550598,0.984251968503937,8.58833393276752E-17));
#929=CARTESIAN_POINT('Origin',(0.,0.984251968503937,0.));
#930=CARTESIAN_POINT('Origin',(0.,0.,0.));
#931=CARTESIAN_POINT('',(-0.78740157480315,0.,9.64288818226262E-17));
#932=CARTESIAN_POINT('',(-0.78740157480315,0.,9.64288818226262E-17));
#933=CARTESIAN_POINT('Origin',(0.,0.,0.));
#934=CARTESIAN_POINT('Origin',(0.,0.,0.));
#935=CARTESIAN_POINT('',(-0.78740157480315,0.,-9.64288818226262E-17));
#936=UNCERTAINTY_MEASURE_WITH_UNIT(LENGTH_MEASURE(0.000393700787401575),
#942,'DISTANCE_ACCURACY_VALUE',
'Maximum model space distance between geometric entities at asserted c
onnectivities');
#937=UNCERTAINTY_MEASURE_WITH_UNIT(LENGTH_MEASURE(0.000393700787401575),
#942,'DISTANCE_ACCURACY_VALUE',
'Maximum model space distance between geometric entities at asserted c
onnectivities');
#938=(
GEOMETRIC_REPRESENTATION_CONTEXT(3)
GLOBAL_UNCERTAINTY_ASSIGNED_CONTEXT((#936))
GLOBAL_UNIT_ASSIGNED_CONTEXT((#942,#946,#947))
REPRESENTATION_CONTEXT('','3D')
);
#939=(
GEOMETRIC_REPRESENTATION_CONTEXT(3)
GLOBAL_UNCERTAINTY_ASSIGNED_CONTEXT((#937))
GLOBAL_UNIT_ASSIGNED_CONTEXT((#942,#946,#947))
REPRESENTATION_CONTEXT('','3D')
);
#940=DIMENSIONAL_EXPONENTS(1.,0.,0.,0.,0.,0.,0.);
#941=DIMENSIONAL_EXPONENTS(0.,1.,0.,0.,0.,0.,0.);
#942=(
CONVERSION_BASED_UNIT('inch',#945)
LENGTH_UNIT()
NAMED_UNIT(#940)
);
#943=(
LENGTH_UNIT()
NAMED_UNIT(*)
SI_UNIT(.MILLI.,.METRE.)
);
#944=(
LENGTH_UNIT()
NAMED_UNIT(*)
SI_UNIT(.CENTI.,.METRE.)
);
#945=LENGTH_MEASURE_WITH_UNIT(LENGTH_MEASURE(25.4),#943);
#946=(
NAMED_UNIT(*)
PLANE_ANGLE_UNIT()
SI_UNIT($,.RADIAN.)
);
#947=(
NAMED_UNIT(*)
SI_UNIT($,.STERADIAN.)
SOLID_ANGLE_UNIT()
);
#948=SHAPE_DEFINITION_REPRESENTATION(#949,#950);
#949=PRODUCT_DEFINITION_SHAPE('',$,#952);
#950=SHAPE_REPRESENTATION('',(#561),#938);
#951=PRODUCT_DEFINITION_CONTEXT('part definition',#956,'design');
#952=PRODUCT_DEFINITION('40mm Nut','40mm Nut',#953,#951);
#953=PRODUCT_DEFINITION_FORMATION('',$,#958);
#954=PRODUCT_RELATED_PRODUCT_CATEGORY('40mm Nut','40mm Nut',(#958));
#955=APPLICATION_PROTOCOL_DEFINITION('international standard',
'automotive_design',2009,#956);
#956=APPLICATION_CONTEXT(
'Core Data for Automotive Mechanical Design Process');
#957=PRODUCT_CONTEXT('part definition',#956,'mechanical');
#958=PRODUCT('40mm Nut','40mm Nut',$,(#957));
#959=PRESENTATION_STYLE_ASSIGNMENT((#960));
#960=SURFACE_STYLE_USAGE(.BOTH.,#963);
#961=SURFACE_STYLE_RENDERING_WITH_PROPERTIES($,#967,(#962));
#962=SURFACE_STYLE_TRANSPARENT(0.);
#963=SURFACE_SIDE_STYLE('',(#964,#961));
#964=SURFACE_STYLE_FILL_AREA(#965);
#965=FILL_AREA_STYLE('',(#966));
#966=FILL_AREA_STYLE_COLOUR('',#967);
#967=COLOUR_RGB('',0.749019607843137,0.749019607843137,0.749019607843137);
ENDSEC;
END-ISO-10303-21;
