ISO-10303-21;
HEADER;
/* Generated by software containing ST-Developer
 * from STEP Tools, Inc. (www.steptools.com) 
 */

FILE_DESCRIPTION(
/* description */ (''),
/* implementation_level */ '2;1');

FILE_NAME(
/* name */ 'Air Port Plate Gasket.stp',
/* time_stamp */ '2026-06-22T11:43:44-04:00',
/* author */ ('Joshua Eah'),
/* organization */ (''),
/* preprocessor_version */ 'ST-DEVELOPER v20.1',
/* originating_system */ 'Autodesk Inventor 2026',
/* authorisation */ '');

FILE_SCHEMA (('AUTOMOTIVE_DESIGN { 1 0 10303 214 3 1 1 }'));
ENDSEC;

DATA;
#10=MECHANICAL_DESIGN_GEOMETRIC_PRESENTATION_REPRESENTATION('',(#13),#409);
#11=SHAPE_REPRESENTATION_RELATIONSHIP('SRR','None',#420,#12);
#12=ADVANCED_BREP_SHAPE_REPRESENTATION('',(#14),#408);
#13=STYLED_ITEM('',(#429),#14);
#14=MANIFOLD_SOLID_BREP('Solid1',#229);
#15=FACE_BOUND('',#40,.T.);
#16=FACE_BOUND('',#41,.T.);
#17=FACE_BOUND('',#51,.T.);
#18=FACE_BOUND('',#52,.T.);
#19=PLANE('',#254);
#20=PLANE('',#255);
#21=PLANE('',#263);
#22=PLANE('',#272);
#23=PLANE('',#273);
#24=PLANE('',#274);
#25=FACE_OUTER_BOUND('',#37,.T.);
#26=FACE_OUTER_BOUND('',#38,.T.);
#27=FACE_OUTER_BOUND('',#39,.T.);
#28=FACE_OUTER_BOUND('',#42,.T.);
#29=FACE_OUTER_BOUND('',#43,.T.);
#30=FACE_OUTER_BOUND('',#44,.T.);
#31=FACE_OUTER_BOUND('',#45,.T.);
#32=FACE_OUTER_BOUND('',#46,.T.);
#33=FACE_OUTER_BOUND('',#47,.T.);
#34=FACE_OUTER_BOUND('',#48,.T.);
#35=FACE_OUTER_BOUND('',#49,.T.);
#36=FACE_OUTER_BOUND('',#50,.T.);
#37=EDGE_LOOP('',(#151,#152,#153,#154));
#38=EDGE_LOOP('',(#155,#156,#157,#158));
#39=EDGE_LOOP('',(#159,#160,#161,#162,#163,#164,#165,#166));
#40=EDGE_LOOP('',(#167));
#41=EDGE_LOOP('',(#168));
#42=EDGE_LOOP('',(#169,#170,#171,#172));
#43=EDGE_LOOP('',(#173,#174,#175,#176));
#44=EDGE_LOOP('',(#177,#178,#179,#180));
#45=EDGE_LOOP('',(#181,#182,#183,#184));
#46=EDGE_LOOP('',(#185,#186,#187,#188));
#47=EDGE_LOOP('',(#189,#190,#191,#192));
#48=EDGE_LOOP('',(#193,#194,#195,#196));
#49=EDGE_LOOP('',(#197,#198,#199,#200));
#50=EDGE_LOOP('',(#201,#202,#203,#204,#205,#206,#207,#208));
#51=EDGE_LOOP('',(#209));
#52=EDGE_LOOP('',(#210));
#53=LINE('',#349,#71);
#54=LINE('',#352,#72);
#55=LINE('',#355,#73);
#56=LINE('',#357,#74);
#57=LINE('',#358,#75);
#58=LINE('',#361,#76);
#59=LINE('',#365,#77);
#60=LINE('',#369,#78);
#61=LINE('',#377,#79);
#62=LINE('',#380,#80);
#63=LINE('',#383,#81);
#64=LINE('',#384,#82);
#65=LINE('',#388,#83);
#66=LINE('',#391,#84);
#67=LINE('',#395,#85);
#68=LINE('',#399,#86);
#69=LINE('',#402,#87);
#70=LINE('',#404,#88);
#71=VECTOR('',#281,0.393700787401575);
#72=VECTOR('',#284,0.393700787401575);
#73=VECTOR('',#287,0.393700787401575);
#74=VECTOR('',#288,0.393700787401575);
#75=VECTOR('',#289,0.393700787401575);
#76=VECTOR('',#292,0.393700787401575);
#77=VECTOR('',#295,0.393700787401575);
#78=VECTOR('',#298,0.393700787401575);
#79=VECTOR('',#307,0.393700787401575);
#80=VECTOR('',#310,0.393700787401575);
#81=VECTOR('',#313,0.393700787401575);
#82=VECTOR('',#314,0.393700787401575);
#83=VECTOR('',#319,0.393700787401575);
#84=VECTOR('',#322,0.393700787401575);
#85=VECTOR('',#327,0.295275590551181);
#86=VECTOR('',#332,0.433070866141732);
#87=VECTOR('',#337,0.393700787401575);
#88=VECTOR('',#340,0.393700787401575);
#89=CIRCLE('',#252,0.125);
#90=CIRCLE('',#253,0.125);
#91=CIRCLE('',#256,0.125);
#92=CIRCLE('',#257,0.125);
#93=CIRCLE('',#258,0.125);
#94=CIRCLE('',#259,0.433070866141732);
#95=CIRCLE('',#260,0.295275590551181);
#96=CIRCLE('',#262,0.125);
#97=CIRCLE('',#265,0.125);
#98=CIRCLE('',#267,0.125);
#99=CIRCLE('',#269,0.295275590551181);
#100=CIRCLE('',#271,0.433070866141732);
#101=VERTEX_POINT('',#345);
#102=VERTEX_POINT('',#346);
#103=VERTEX_POINT('',#348);
#104=VERTEX_POINT('',#350);
#105=VERTEX_POINT('',#354);
#106=VERTEX_POINT('',#356);
#107=VERTEX_POINT('',#360);
#108=VERTEX_POINT('',#362);
#109=VERTEX_POINT('',#364);
#110=VERTEX_POINT('',#366);
#111=VERTEX_POINT('',#368);
#112=VERTEX_POINT('',#371);
#113=VERTEX_POINT('',#373);
#114=VERTEX_POINT('',#376);
#115=VERTEX_POINT('',#378);
#116=VERTEX_POINT('',#382);
#117=VERTEX_POINT('',#386);
#118=VERTEX_POINT('',#390);
#119=VERTEX_POINT('',#394);
#120=VERTEX_POINT('',#398);
#121=EDGE_CURVE('',#101,#102,#89,.T.);
#122=EDGE_CURVE('',#102,#103,#53,.T.);
#123=EDGE_CURVE('',#103,#104,#90,.T.);
#124=EDGE_CURVE('',#104,#101,#54,.T.);
#125=EDGE_CURVE('',#105,#102,#55,.T.);
#126=EDGE_CURVE('',#106,#105,#56,.T.);
#127=EDGE_CURVE('',#103,#106,#57,.T.);
#128=EDGE_CURVE('',#101,#107,#58,.T.);
#129=EDGE_CURVE('',#108,#107,#91,.T.);
#130=EDGE_CURVE('',#108,#109,#59,.T.);
#131=EDGE_CURVE('',#110,#109,#92,.T.);
#132=EDGE_CURVE('',#110,#111,#60,.T.);
#133=EDGE_CURVE('',#105,#111,#93,.T.);
#134=EDGE_CURVE('',#112,#112,#94,.T.);
#135=EDGE_CURVE('',#113,#113,#95,.T.);
#136=EDGE_CURVE('',#107,#114,#61,.T.);
#137=EDGE_CURVE('',#114,#115,#96,.T.);
#138=EDGE_CURVE('',#115,#108,#62,.T.);
#139=EDGE_CURVE('',#116,#115,#63,.T.);
#140=EDGE_CURVE('',#109,#116,#64,.T.);
#141=EDGE_CURVE('',#116,#117,#97,.T.);
#142=EDGE_CURVE('',#117,#110,#65,.T.);
#143=EDGE_CURVE('',#111,#118,#66,.T.);
#144=EDGE_CURVE('',#118,#106,#98,.T.);
#145=EDGE_CURVE('',#113,#119,#67,.T.);
#146=EDGE_CURVE('',#119,#119,#99,.T.);
#147=EDGE_CURVE('',#112,#120,#68,.T.);
#148=EDGE_CURVE('',#120,#120,#100,.T.);
#149=EDGE_CURVE('',#118,#117,#69,.T.);
#150=EDGE_CURVE('',#114,#104,#70,.T.);
#151=ORIENTED_EDGE('',*,*,#121,.T.);
#152=ORIENTED_EDGE('',*,*,#122,.T.);
#153=ORIENTED_EDGE('',*,*,#123,.T.);
#154=ORIENTED_EDGE('',*,*,#124,.T.);
#155=ORIENTED_EDGE('',*,*,#122,.F.);
#156=ORIENTED_EDGE('',*,*,#125,.F.);
#157=ORIENTED_EDGE('',*,*,#126,.F.);
#158=ORIENTED_EDGE('',*,*,#127,.F.);
#159=ORIENTED_EDGE('',*,*,#121,.F.);
#160=ORIENTED_EDGE('',*,*,#128,.T.);
#161=ORIENTED_EDGE('',*,*,#129,.F.);
#162=ORIENTED_EDGE('',*,*,#130,.T.);
#163=ORIENTED_EDGE('',*,*,#131,.F.);
#164=ORIENTED_EDGE('',*,*,#132,.T.);
#165=ORIENTED_EDGE('',*,*,#133,.F.);
#166=ORIENTED_EDGE('',*,*,#125,.T.);
#167=ORIENTED_EDGE('',*,*,#134,.T.);
#168=ORIENTED_EDGE('',*,*,#135,.T.);
#169=ORIENTED_EDGE('',*,*,#129,.T.);
#170=ORIENTED_EDGE('',*,*,#136,.T.);
#171=ORIENTED_EDGE('',*,*,#137,.T.);
#172=ORIENTED_EDGE('',*,*,#138,.T.);
#173=ORIENTED_EDGE('',*,*,#138,.F.);
#174=ORIENTED_EDGE('',*,*,#139,.F.);
#175=ORIENTED_EDGE('',*,*,#140,.F.);
#176=ORIENTED_EDGE('',*,*,#130,.F.);
#177=ORIENTED_EDGE('',*,*,#131,.T.);
#178=ORIENTED_EDGE('',*,*,#140,.T.);
#179=ORIENTED_EDGE('',*,*,#141,.T.);
#180=ORIENTED_EDGE('',*,*,#142,.T.);
#181=ORIENTED_EDGE('',*,*,#133,.T.);
#182=ORIENTED_EDGE('',*,*,#143,.T.);
#183=ORIENTED_EDGE('',*,*,#144,.T.);
#184=ORIENTED_EDGE('',*,*,#126,.T.);
#185=ORIENTED_EDGE('',*,*,#135,.F.);
#186=ORIENTED_EDGE('',*,*,#145,.T.);
#187=ORIENTED_EDGE('',*,*,#146,.F.);
#188=ORIENTED_EDGE('',*,*,#145,.F.);
#189=ORIENTED_EDGE('',*,*,#134,.F.);
#190=ORIENTED_EDGE('',*,*,#147,.T.);
#191=ORIENTED_EDGE('',*,*,#148,.F.);
#192=ORIENTED_EDGE('',*,*,#147,.F.);
#193=ORIENTED_EDGE('',*,*,#142,.F.);
#194=ORIENTED_EDGE('',*,*,#149,.F.);
#195=ORIENTED_EDGE('',*,*,#143,.F.);
#196=ORIENTED_EDGE('',*,*,#132,.F.);
#197=ORIENTED_EDGE('',*,*,#124,.F.);
#198=ORIENTED_EDGE('',*,*,#150,.F.);
#199=ORIENTED_EDGE('',*,*,#136,.F.);
#200=ORIENTED_EDGE('',*,*,#128,.F.);
#201=ORIENTED_EDGE('',*,*,#123,.F.);
#202=ORIENTED_EDGE('',*,*,#127,.T.);
#203=ORIENTED_EDGE('',*,*,#144,.F.);
#204=ORIENTED_EDGE('',*,*,#149,.T.);
#205=ORIENTED_EDGE('',*,*,#141,.F.);
#206=ORIENTED_EDGE('',*,*,#139,.T.);
#207=ORIENTED_EDGE('',*,*,#137,.F.);
#208=ORIENTED_EDGE('',*,*,#150,.T.);
#209=ORIENTED_EDGE('',*,*,#148,.T.);
#210=ORIENTED_EDGE('',*,*,#146,.T.);
#211=CYLINDRICAL_SURFACE('',#251,0.125);
#212=CYLINDRICAL_SURFACE('',#261,0.125);
#213=CYLINDRICAL_SURFACE('',#264,0.125);
#214=CYLINDRICAL_SURFACE('',#266,0.125);
#215=CYLINDRICAL_SURFACE('',#268,0.295275590551181);
#216=CYLINDRICAL_SURFACE('',#270,0.433070866141732);
#217=ADVANCED_FACE('',(#25),#211,.T.);
#218=ADVANCED_FACE('',(#26),#19,.T.);
#219=ADVANCED_FACE('',(#27,#15,#16),#20,.F.);
#220=ADVANCED_FACE('',(#28),#212,.T.);
#221=ADVANCED_FACE('',(#29),#21,.T.);
#222=ADVANCED_FACE('',(#30),#213,.T.);
#223=ADVANCED_FACE('',(#31),#214,.T.);
#224=ADVANCED_FACE('',(#32),#215,.F.);
#225=ADVANCED_FACE('',(#33),#216,.F.);
#226=ADVANCED_FACE('',(#34),#22,.T.);
#227=ADVANCED_FACE('',(#35),#23,.T.);
#228=ADVANCED_FACE('',(#36,#17,#18),#24,.T.);
#229=CLOSED_SHELL('',(#217,#218,#219,#220,#221,#222,#223,#224,#225,#226,
#227,#228));
#230=DERIVED_UNIT_ELEMENT(#232,1.);
#231=DERIVED_UNIT_ELEMENT(#414,-3.);
#232=(
CONVERSION_BASED_UNIT('gram',#234)
MASS_UNIT()
NAMED_UNIT(#411)
);
#233=(
MASS_UNIT()
NAMED_UNIT(*)
SI_UNIT(.KILO.,.GRAM.)
);
#234=MASS_MEASURE_WITH_UNIT(MASS_MEASURE(0.001),#233);
#235=DERIVED_UNIT((#230,#231));
#236=MEASURE_REPRESENTATION_ITEM('density measure',
POSITIVE_RATIO_MEASURE(2.7),#235);
#237=PROPERTY_DEFINITION_REPRESENTATION(#242,#239);
#238=PROPERTY_DEFINITION_REPRESENTATION(#243,#240);
#239=REPRESENTATION('material name',(#241),#408);
#240=REPRESENTATION('density',(#236),#408);
#241=DESCRIPTIVE_REPRESENTATION_ITEM('Aluminum 6061','Aluminum 6061');
#242=PROPERTY_DEFINITION('material property','material name',#422);
#243=PROPERTY_DEFINITION('material property','density of part',#422);
#244=DATE_TIME_ROLE('creation_date');
#245=APPLIED_DATE_AND_TIME_ASSIGNMENT(#246,#244,(#422));
#246=DATE_AND_TIME(#247,#248);
#247=CALENDAR_DATE(2026,11,6);
#248=LOCAL_TIME(0,0,0.,#249);
#249=COORDINATED_UNIVERSAL_TIME_OFFSET(0,0,.BEHIND.);
#250=AXIS2_PLACEMENT_3D('',#343,#275,#276);
#251=AXIS2_PLACEMENT_3D('',#344,#277,#278);
#252=AXIS2_PLACEMENT_3D('',#347,#279,#280);
#253=AXIS2_PLACEMENT_3D('',#351,#282,#283);
#254=AXIS2_PLACEMENT_3D('',#353,#285,#286);
#255=AXIS2_PLACEMENT_3D('',#359,#290,#291);
#256=AXIS2_PLACEMENT_3D('',#363,#293,#294);
#257=AXIS2_PLACEMENT_3D('',#367,#296,#297);
#258=AXIS2_PLACEMENT_3D('',#370,#299,#300);
#259=AXIS2_PLACEMENT_3D('',#372,#301,#302);
#260=AXIS2_PLACEMENT_3D('',#374,#303,#304);
#261=AXIS2_PLACEMENT_3D('',#375,#305,#306);
#262=AXIS2_PLACEMENT_3D('',#379,#308,#309);
#263=AXIS2_PLACEMENT_3D('',#381,#311,#312);
#264=AXIS2_PLACEMENT_3D('',#385,#315,#316);
#265=AXIS2_PLACEMENT_3D('',#387,#317,#318);
#266=AXIS2_PLACEMENT_3D('',#389,#320,#321);
#267=AXIS2_PLACEMENT_3D('',#392,#323,#324);
#268=AXIS2_PLACEMENT_3D('',#393,#325,#326);
#269=AXIS2_PLACEMENT_3D('',#396,#328,#329);
#270=AXIS2_PLACEMENT_3D('',#397,#330,#331);
#271=AXIS2_PLACEMENT_3D('',#400,#333,#334);
#272=AXIS2_PLACEMENT_3D('',#401,#335,#336);
#273=AXIS2_PLACEMENT_3D('',#403,#338,#339);
#274=AXIS2_PLACEMENT_3D('',#405,#341,#342);
#275=DIRECTION('axis',(0.,0.,1.));
#276=DIRECTION('refdir',(1.,0.,0.));
#277=DIRECTION('center_axis',(0.,0.,-1.));
#278=DIRECTION('ref_axis',(0.707106781186547,-0.707106781186549,0.));
#279=DIRECTION('center_axis',(0.,0.,1.));
#280=DIRECTION('ref_axis',(0.707106781186547,-0.707106781186549,0.));
#281=DIRECTION('',(0.,0.,1.));
#282=DIRECTION('center_axis',(0.,0.,-1.));
#283=DIRECTION('ref_axis',(0.707106781186547,-0.707106781186549,0.));
#284=DIRECTION('',(0.,0.,-1.));
#285=DIRECTION('center_axis',(1.,1.76225876924628E-16,0.));
#286=DIRECTION('ref_axis',(1.76225876924628E-16,-1.,0.));
#287=DIRECTION('',(1.76225876924628E-16,-1.,0.));
#288=DIRECTION('',(0.,0.,-1.));
#289=DIRECTION('',(-1.76225876924628E-16,1.,0.));
#290=DIRECTION('center_axis',(0.,0.,1.));
#291=DIRECTION('ref_axis',(1.,0.,0.));
#292=DIRECTION('',(-1.,0.,0.));
#293=DIRECTION('center_axis',(0.,0.,1.));
#294=DIRECTION('ref_axis',(-0.707106781186548,-0.707106781186548,0.));
#295=DIRECTION('',(-3.52451753849256E-16,1.,0.));
#296=DIRECTION('center_axis',(0.,0.,1.));
#297=DIRECTION('ref_axis',(-0.707106781186548,0.707106781186547,0.));
#298=DIRECTION('',(1.,1.04002156873551E-16,0.));
#299=DIRECTION('center_axis',(0.,0.,1.));
#300=DIRECTION('ref_axis',(0.707106781186548,0.707106781186548,0.));
#301=DIRECTION('center_axis',(0.,0.,1.));
#302=DIRECTION('ref_axis',(-1.,0.,0.));
#303=DIRECTION('center_axis',(0.,0.,1.));
#304=DIRECTION('ref_axis',(-1.,0.,0.));
#305=DIRECTION('center_axis',(0.,0.,-1.));
#306=DIRECTION('ref_axis',(-0.707106781186548,-0.707106781186548,0.));
#307=DIRECTION('',(0.,0.,1.));
#308=DIRECTION('center_axis',(0.,0.,-1.));
#309=DIRECTION('ref_axis',(-0.707106781186548,-0.707106781186548,0.));
#310=DIRECTION('',(0.,0.,-1.));
#311=DIRECTION('center_axis',(-1.,-3.52451753849256E-16,0.));
#312=DIRECTION('ref_axis',(-3.52451753849256E-16,1.,0.));
#313=DIRECTION('',(3.52451753849256E-16,-1.,0.));
#314=DIRECTION('',(0.,0.,1.));
#315=DIRECTION('center_axis',(0.,0.,-1.));
#316=DIRECTION('ref_axis',(-0.707106781186548,0.707106781186547,0.));
#317=DIRECTION('center_axis',(0.,0.,-1.));
#318=DIRECTION('ref_axis',(-0.707106781186548,0.707106781186547,0.));
#319=DIRECTION('',(0.,0.,-1.));
#320=DIRECTION('center_axis',(0.,0.,-1.));
#321=DIRECTION('ref_axis',(0.707106781186548,0.707106781186548,0.));
#322=DIRECTION('',(0.,0.,1.));
#323=DIRECTION('center_axis',(0.,0.,-1.));
#324=DIRECTION('ref_axis',(0.707106781186548,0.707106781186548,0.));
#325=DIRECTION('center_axis',(0.,0.,-1.));
#326=DIRECTION('ref_axis',(-1.,0.,0.));
#327=DIRECTION('',(0.,0.,1.));
#328=DIRECTION('center_axis',(0.,0.,-1.));
#329=DIRECTION('ref_axis',(-1.,0.,0.));
#330=DIRECTION('center_axis',(0.,0.,-1.));
#331=DIRECTION('ref_axis',(-1.,0.,0.));
#332=DIRECTION('',(0.,0.,1.));
#333=DIRECTION('center_axis',(0.,0.,-1.));
#334=DIRECTION('ref_axis',(-1.,0.,0.));
#335=DIRECTION('center_axis',(-1.04002156873551E-16,1.,0.));
#336=DIRECTION('ref_axis',(1.,1.04002156873551E-16,0.));
#337=DIRECTION('',(-1.,-1.04002156873551E-16,0.));
#338=DIRECTION('center_axis',(0.,-1.,0.));
#339=DIRECTION('ref_axis',(-1.,0.,0.));
#340=DIRECTION('',(1.,0.,0.));
#341=DIRECTION('center_axis',(0.,0.,1.));
#342=DIRECTION('ref_axis',(1.,0.,0.));
#343=CARTESIAN_POINT('',(0.,0.,0.));
#344=CARTESIAN_POINT('Origin',(2.73720472440945,-0.375,0.));
#345=CARTESIAN_POINT('',(2.73720472440945,-0.5,-0.015748031496063));
#346=CARTESIAN_POINT('',(2.86220472440945,-0.375,-0.015748031496063));
#347=CARTESIAN_POINT('Origin',(2.73720472440945,-0.375,-0.015748031496063));
#348=CARTESIAN_POINT('',(2.86220472440945,-0.375,0.));
#349=CARTESIAN_POINT('',(2.86220472440945,-0.375,0.));
#350=CARTESIAN_POINT('',(2.73720472440945,-0.5,0.));
#351=CARTESIAN_POINT('Origin',(2.73720472440945,-0.375,0.));
#352=CARTESIAN_POINT('',(2.73720472440945,-0.5,0.));
#353=CARTESIAN_POINT('Origin',(2.86220472440945,1.48425196850394,0.));
#354=CARTESIAN_POINT('',(2.86220472440945,1.35925196850394,-0.015748031496063));
#355=CARTESIAN_POINT('',(2.86220472440945,-0.5,-0.015748031496063));
#356=CARTESIAN_POINT('',(2.86220472440945,1.35925196850394,0.));
#357=CARTESIAN_POINT('',(2.86220472440945,1.35925196850394,0.));
#358=CARTESIAN_POINT('',(2.86220472440945,-0.5,0.));
#359=CARTESIAN_POINT('Origin',(1.18110236220472,0.492125984251968,-0.015748031496063));
#360=CARTESIAN_POINT('',(-0.375,-0.5,-0.015748031496063));
#361=CARTESIAN_POINT('',(-0.5,-0.5,-0.015748031496063));
#362=CARTESIAN_POINT('',(-0.5,-0.375,-0.015748031496063));
#363=CARTESIAN_POINT('Origin',(-0.375,-0.375,-0.015748031496063));
#364=CARTESIAN_POINT('',(-0.5,1.35925196850394,-0.015748031496063));
#365=CARTESIAN_POINT('',(-0.5,1.48425196850394,-0.015748031496063));
#366=CARTESIAN_POINT('',(-0.375,1.48425196850394,-0.015748031496063));
#367=CARTESIAN_POINT('Origin',(-0.375,1.35925196850394,-0.015748031496063));
#368=CARTESIAN_POINT('',(2.73720472440945,1.48425196850394,-0.015748031496063));
#369=CARTESIAN_POINT('',(2.86220472440945,1.48425196850394,-0.015748031496063));
#370=CARTESIAN_POINT('Origin',(2.73720472440945,1.35925196850394,-0.015748031496063));
#371=CARTESIAN_POINT('',(0.905511811023622,0.492125984251969,-0.015748031496063));
#372=CARTESIAN_POINT('Origin',(0.47244094488189,0.492125984251969,-0.015748031496063));
#373=CARTESIAN_POINT('',(2.14566929133858,0.492125984251968,-0.015748031496063));
#374=CARTESIAN_POINT('Origin',(1.8503937007874,0.492125984251968,-0.015748031496063));
#375=CARTESIAN_POINT('Origin',(-0.375,-0.375,0.));
#376=CARTESIAN_POINT('',(-0.375,-0.5,0.));
#377=CARTESIAN_POINT('',(-0.375,-0.5,0.));
#378=CARTESIAN_POINT('',(-0.5,-0.375,0.));
#379=CARTESIAN_POINT('Origin',(-0.375,-0.375,0.));
#380=CARTESIAN_POINT('',(-0.5,-0.375,0.));
#381=CARTESIAN_POINT('Origin',(-0.5,-0.5,0.));
#382=CARTESIAN_POINT('',(-0.5,1.35925196850394,0.));
#383=CARTESIAN_POINT('',(-0.5,1.48425196850394,0.));
#384=CARTESIAN_POINT('',(-0.5,1.35925196850394,0.));
#385=CARTESIAN_POINT('Origin',(-0.375,1.35925196850394,0.));
#386=CARTESIAN_POINT('',(-0.375,1.48425196850394,0.));
#387=CARTESIAN_POINT('Origin',(-0.375,1.35925196850394,0.));
#388=CARTESIAN_POINT('',(-0.375,1.48425196850394,0.));
#389=CARTESIAN_POINT('Origin',(2.73720472440945,1.35925196850394,0.));
#390=CARTESIAN_POINT('',(2.73720472440945,1.48425196850394,0.));
#391=CARTESIAN_POINT('',(2.73720472440945,1.48425196850394,0.));
#392=CARTESIAN_POINT('Origin',(2.73720472440945,1.35925196850394,0.));
#393=CARTESIAN_POINT('Origin',(1.8503937007874,0.492125984251968,0.));
#394=CARTESIAN_POINT('',(2.14566929133858,0.492125984251968,0.));
#395=CARTESIAN_POINT('',(2.14566929133858,0.492125984251968,0.));
#396=CARTESIAN_POINT('Origin',(1.8503937007874,0.492125984251968,0.));
#397=CARTESIAN_POINT('Origin',(0.47244094488189,0.492125984251969,0.));
#398=CARTESIAN_POINT('',(0.905511811023622,0.492125984251969,0.));
#399=CARTESIAN_POINT('',(0.905511811023622,0.492125984251969,0.));
#400=CARTESIAN_POINT('Origin',(0.47244094488189,0.492125984251969,0.));
#401=CARTESIAN_POINT('Origin',(-0.5,1.48425196850394,0.));
#402=CARTESIAN_POINT('',(2.86220472440945,1.48425196850394,0.));
#403=CARTESIAN_POINT('Origin',(2.86220472440945,-0.5,0.));
#404=CARTESIAN_POINT('',(-0.5,-0.5,0.));
#405=CARTESIAN_POINT('Origin',(1.18110236220472,0.492125984251968,0.));
#406=UNCERTAINTY_MEASURE_WITH_UNIT(LENGTH_MEASURE(0.000393700787401575),
#412,'DISTANCE_ACCURACY_VALUE',
'Maximum model space distance between geometric entities at asserted c
onnectivities');
#407=UNCERTAINTY_MEASURE_WITH_UNIT(LENGTH_MEASURE(0.000393700787401575),
#412,'DISTANCE_ACCURACY_VALUE',
'Maximum model space distance between geometric entities at asserted c
onnectivities');
#408=(
GEOMETRIC_REPRESENTATION_CONTEXT(3)
GLOBAL_UNCERTAINTY_ASSIGNED_CONTEXT((#406))
GLOBAL_UNIT_ASSIGNED_CONTEXT((#412,#416,#417))
REPRESENTATION_CONTEXT('','3D')
);
#409=(
GEOMETRIC_REPRESENTATION_CONTEXT(3)
GLOBAL_UNCERTAINTY_ASSIGNED_CONTEXT((#407))
GLOBAL_UNIT_ASSIGNED_CONTEXT((#412,#416,#417))
REPRESENTATION_CONTEXT('','3D')
);
#410=DIMENSIONAL_EXPONENTS(1.,0.,0.,0.,0.,0.,0.);
#411=DIMENSIONAL_EXPONENTS(0.,1.,0.,0.,0.,0.,0.);
#412=(
CONVERSION_BASED_UNIT('inch',#415)
LENGTH_UNIT()
NAMED_UNIT(#410)
);
#413=(
LENGTH_UNIT()
NAMED_UNIT(*)
SI_UNIT(.MILLI.,.METRE.)
);
#414=(
LENGTH_UNIT()
NAMED_UNIT(*)
SI_UNIT(.CENTI.,.METRE.)
);
#415=LENGTH_MEASURE_WITH_UNIT(LENGTH_MEASURE(25.4),#413);
#416=(
NAMED_UNIT(*)
PLANE_ANGLE_UNIT()
SI_UNIT($,.RADIAN.)
);
#417=(
NAMED_UNIT(*)
SI_UNIT($,.STERADIAN.)
SOLID_ANGLE_UNIT()
);
#418=SHAPE_DEFINITION_REPRESENTATION(#419,#420);
#419=PRODUCT_DEFINITION_SHAPE('',$,#422);
#420=SHAPE_REPRESENTATION('',(#250),#408);
#421=PRODUCT_DEFINITION_CONTEXT('part definition',#426,'design');
#422=PRODUCT_DEFINITION('Air Port Plate','Air Port Plate',#423,#421);
#423=PRODUCT_DEFINITION_FORMATION('',$,#428);
#424=PRODUCT_RELATED_PRODUCT_CATEGORY('Air Port Plate','Air Port Plate',
(#428));
#425=APPLICATION_PROTOCOL_DEFINITION('international standard',
'automotive_design',2009,#426);
#426=APPLICATION_CONTEXT(
'Core Data for Automotive Mechanical Design Process');
#427=PRODUCT_CONTEXT('part definition',#426,'mechanical');
#428=PRODUCT('Air Port Plate','Air Port Plate',$,(#427));
#429=PRESENTATION_STYLE_ASSIGNMENT((#430));
#430=SURFACE_STYLE_USAGE(.BOTH.,#433);
#431=SURFACE_STYLE_RENDERING_WITH_PROPERTIES($,#437,(#432));
#432=SURFACE_STYLE_TRANSPARENT(0.);
#433=SURFACE_SIDE_STYLE('',(#434,#431));
#434=SURFACE_STYLE_FILL_AREA(#435);
#435=FILL_AREA_STYLE('',(#436));
#436=FILL_AREA_STYLE_COLOUR('',#437);
#437=COLOUR_RGB('',0.956862745098039,0.956862745098039,0.956862745098039);
ENDSEC;
END-ISO-10303-21;
