ISO-10303-21;
HEADER;
/* Generated by software containing ST-Developer
 * from STEP Tools, Inc. (www.steptools.com) 
 */

FILE_DESCRIPTION(
/* description */ (''),
/* implementation_level */ '2;1');

FILE_NAME(
/* name */ 'Cyclone Hose Adapter (40mm).stp',
/* time_stamp */ '2026-06-23T10:57:53-04:00',
/* author */ ('Joshua Eah'),
/* organization */ (''),
/* preprocessor_version */ 'ST-DEVELOPER v20.1',
/* originating_system */ 'Autodesk Inventor 2026',
/* authorisation */ '');

FILE_SCHEMA (('AUTOMOTIVE_DESIGN { 1 0 10303 214 3 1 1 }'));
ENDSEC;

DATA;
#10=MECHANICAL_DESIGN_GEOMETRIC_PRESENTATION_REPRESENTATION('',(#13),#462);
#11=SHAPE_REPRESENTATION_RELATIONSHIP('SRR','None',#473,#12);
#12=ADVANCED_BREP_SHAPE_REPRESENTATION('',(#14),#461);
#13=STYLED_ITEM('',(#482),#14);
#14=MANIFOLD_SOLID_BREP('Solid1',#227);
#15=B_SPLINE_CURVE_WITH_KNOTS('',3,(#411,#412,#413,#414,#415,#416,#417,
#418,#419,#420),.UNSPECIFIED.,.F.,.F.,(4,2,2,2,4),(0.211057535983704,0.263821870011881,
0.316586204040058,0.369350638003733,0.422115071967407),.UNSPECIFIED.);
#16=B_SPLINE_CURVE_WITH_KNOTS('',3,(#422,#423,#424,#425,#426,#427,#428,
#429,#430,#431,#432,#433,#434,#435,#436,#437,#438,#439,#440),
 .UNSPECIFIED.,.F.,.F.,(4,2,2,2,3,2,2,2,4),(0.633172607951111,0.685936941979288,
0.738701276007466,0.79146570997114,0.844230143934814,0.896994577898489,
0.949759011862163,1.00252334589034,1.05528767991852),.UNSPECIFIED.);
#17=B_SPLINE_CURVE_WITH_KNOTS('',3,(#441,#442,#443,#444,#445,#446,#447,
#448,#449,#450),.UNSPECIFIED.,.F.,.F.,(4,2,2,2,4),(0.422115071967407,0.474879505931081,
0.527643939894756,0.580408273922933,0.633172607951111),.UNSPECIFIED.);
#18=TOROIDAL_SURFACE('',#260,0.709050076356906,0.125);
#19=TOROIDAL_SURFACE('',#267,0.760826771653543,0.125);
#20=FACE_BOUND('',#49,.T.);
#21=FACE_BOUND('',#51,.T.);
#22=FACE_BOUND('',#61,.T.);
#23=FACE_BOUND('',#63,.T.);
#24=PLANE('',#255);
#25=PLANE('',#258);
#26=PLANE('',#277);
#27=PLANE('',#280);
#28=PLANE('',#281);
#29=CONICAL_SURFACE('',#252,0.649606299212598,0.0872664625997165);
#30=CONICAL_SURFACE('',#264,0.823326771653543,0.785398163397448);
#31=CONICAL_SURFACE('',#272,0.047244094488189,0.785398163397448);
#32=FACE_OUTER_BOUND('',#46,.T.);
#33=FACE_OUTER_BOUND('',#47,.T.);
#34=FACE_OUTER_BOUND('',#48,.T.);
#35=FACE_OUTER_BOUND('',#50,.T.);
#36=FACE_OUTER_BOUND('',#52,.T.);
#37=FACE_OUTER_BOUND('',#53,.T.);
#38=FACE_OUTER_BOUND('',#54,.T.);
#39=FACE_OUTER_BOUND('',#55,.T.);
#40=FACE_OUTER_BOUND('',#56,.T.);
#41=FACE_OUTER_BOUND('',#57,.T.);
#42=FACE_OUTER_BOUND('',#58,.T.);
#43=FACE_OUTER_BOUND('',#59,.T.);
#44=FACE_OUTER_BOUND('',#60,.T.);
#45=FACE_OUTER_BOUND('',#62,.T.);
#46=EDGE_LOOP('',(#149,#150,#151,#152));
#47=EDGE_LOOP('',(#153,#154,#155,#156));
#48=EDGE_LOOP('',(#157));
#49=EDGE_LOOP('',(#158));
#50=EDGE_LOOP('',(#159));
#51=EDGE_LOOP('',(#160));
#52=EDGE_LOOP('',(#161,#162,#163,#164,#165));
#53=EDGE_LOOP('',(#166,#167,#168,#169,#170,#171));
#54=EDGE_LOOP('',(#172,#173,#174,#175,#176,#177));
#55=EDGE_LOOP('',(#178,#179,#180,#181,#182));
#56=EDGE_LOOP('',(#183,#184,#185,#186,#187));
#57=EDGE_LOOP('',(#188,#189,#190,#191,#192,#193,#194));
#58=EDGE_LOOP('',(#195));
#59=EDGE_LOOP('',(#196,#197,#198,#199,#200,#201,#202,#203,#204));
#60=EDGE_LOOP('',(#205));
#61=EDGE_LOOP('',(#206));
#62=EDGE_LOOP('',(#207));
#63=EDGE_LOOP('',(#208));
#64=LINE('',#363,#72);
#65=LINE('',#369,#73);
#66=LINE('',#387,#74);
#67=LINE('',#398,#75);
#68=LINE('',#403,#76);
#69=LINE('',#409,#77);
#70=LINE('',#453,#78);
#71=LINE('',#455,#79);
#72=VECTOR('',#288,0.433070866141732);
#73=VECTOR('',#295,0.649606299212598);
#74=VECTOR('',#318,0.823326771653543);
#75=VECTOR('',#333,0.885826771653543);
#76=VECTOR('',#338,0.047244094488189);
#77=VECTOR('',#345,0.0551181102362205);
#78=VECTOR('',#350,0.637795275590551);
#79=VECTOR('',#351,0.637795275590551);
#80=CIRCLE('',#250,0.433070866141732);
#81=CIRCLE('',#251,0.433070866141732);
#82=CIRCLE('',#253,0.649606299212598);
#83=CIRCLE('',#254,0.735717188509768);
#84=CIRCLE('',#256,0.709050076356906);
#85=CIRCLE('',#257,0.637795275590551);
#86=CIRCLE('',#259,0.885826771653543);
#87=CIRCLE('',#261,0.797438424005225);
#88=CIRCLE('',#262,0.125);
#89=CIRCLE('',#263,0.797438424005225);
#90=CIRCLE('',#265,0.849215119301862);
#91=CIRCLE('',#266,0.849215119301862);
#92=CIRCLE('',#268,0.125);
#93=CIRCLE('',#269,0.885826771653543);
#94=CIRCLE('',#270,0.885826771653543);
#95=CIRCLE('',#273,0.0393700787401575);
#96=CIRCLE('',#274,0.0551181102362205);
#97=CIRCLE('',#275,0.0551181102362205);
#98=CIRCLE('',#279,0.637795275590551);
#99=VERTEX_POINT('',#360);
#100=VERTEX_POINT('',#362);
#101=VERTEX_POINT('',#366);
#102=VERTEX_POINT('',#368);
#103=VERTEX_POINT('',#372);
#104=VERTEX_POINT('',#374);
#105=VERTEX_POINT('',#377);
#106=VERTEX_POINT('',#380);
#107=VERTEX_POINT('',#381);
#108=VERTEX_POINT('',#386);
#109=VERTEX_POINT('',#388);
#110=VERTEX_POINT('',#392);
#111=VERTEX_POINT('',#394);
#112=VERTEX_POINT('',#400);
#113=VERTEX_POINT('',#402);
#114=VERTEX_POINT('',#404);
#115=VERTEX_POINT('',#408);
#116=VERTEX_POINT('',#410);
#117=VERTEX_POINT('',#421);
#118=VERTEX_POINT('',#454);
#119=EDGE_CURVE('',#99,#99,#80,.T.);
#120=EDGE_CURVE('',#99,#100,#64,.T.);
#121=EDGE_CURVE('',#100,#100,#81,.T.);
#122=EDGE_CURVE('',#101,#101,#82,.T.);
#123=EDGE_CURVE('',#101,#102,#65,.T.);
#124=EDGE_CURVE('',#102,#102,#83,.T.);
#125=EDGE_CURVE('',#103,#103,#84,.T.);
#126=EDGE_CURVE('',#104,#104,#85,.T.);
#127=EDGE_CURVE('',#105,#105,#86,.T.);
#128=EDGE_CURVE('',#106,#107,#87,.T.);
#129=EDGE_CURVE('',#107,#103,#88,.T.);
#130=EDGE_CURVE('',#107,#106,#89,.T.);
#131=EDGE_CURVE('',#106,#108,#66,.T.);
#132=EDGE_CURVE('',#109,#108,#90,.T.);
#133=EDGE_CURVE('',#108,#109,#91,.T.);
#134=EDGE_CURVE('',#109,#110,#92,.T.);
#135=EDGE_CURVE('',#110,#111,#93,.T.);
#136=EDGE_CURVE('',#111,#110,#94,.T.);
#137=EDGE_CURVE('',#111,#105,#67,.T.);
#138=EDGE_CURVE('',#112,#112,#95,.T.);
#139=EDGE_CURVE('',#112,#113,#68,.T.);
#140=EDGE_CURVE('',#113,#114,#96,.T.);
#141=EDGE_CURVE('',#114,#113,#97,.T.);
#142=EDGE_CURVE('',#114,#115,#69,.T.);
#143=EDGE_CURVE('',#116,#115,#15,.T.);
#144=EDGE_CURVE('',#117,#116,#16,.T.);
#145=EDGE_CURVE('',#115,#117,#17,.T.);
#146=EDGE_CURVE('',#104,#117,#70,.T.);
#147=EDGE_CURVE('',#116,#118,#71,.T.);
#148=EDGE_CURVE('',#118,#118,#98,.T.);
#149=ORIENTED_EDGE('',*,*,#119,.T.);
#150=ORIENTED_EDGE('',*,*,#120,.T.);
#151=ORIENTED_EDGE('',*,*,#121,.T.);
#152=ORIENTED_EDGE('',*,*,#120,.F.);
#153=ORIENTED_EDGE('',*,*,#122,.T.);
#154=ORIENTED_EDGE('',*,*,#123,.T.);
#155=ORIENTED_EDGE('',*,*,#124,.F.);
#156=ORIENTED_EDGE('',*,*,#123,.F.);
#157=ORIENTED_EDGE('',*,*,#125,.F.);
#158=ORIENTED_EDGE('',*,*,#126,.T.);
#159=ORIENTED_EDGE('',*,*,#127,.T.);
#160=ORIENTED_EDGE('',*,*,#124,.T.);
#161=ORIENTED_EDGE('',*,*,#128,.T.);
#162=ORIENTED_EDGE('',*,*,#129,.T.);
#163=ORIENTED_EDGE('',*,*,#125,.T.);
#164=ORIENTED_EDGE('',*,*,#129,.F.);
#165=ORIENTED_EDGE('',*,*,#130,.T.);
#166=ORIENTED_EDGE('',*,*,#128,.F.);
#167=ORIENTED_EDGE('',*,*,#131,.T.);
#168=ORIENTED_EDGE('',*,*,#132,.F.);
#169=ORIENTED_EDGE('',*,*,#133,.F.);
#170=ORIENTED_EDGE('',*,*,#131,.F.);
#171=ORIENTED_EDGE('',*,*,#130,.F.);
#172=ORIENTED_EDGE('',*,*,#133,.T.);
#173=ORIENTED_EDGE('',*,*,#134,.T.);
#174=ORIENTED_EDGE('',*,*,#135,.T.);
#175=ORIENTED_EDGE('',*,*,#136,.T.);
#176=ORIENTED_EDGE('',*,*,#134,.F.);
#177=ORIENTED_EDGE('',*,*,#132,.T.);
#178=ORIENTED_EDGE('',*,*,#135,.F.);
#179=ORIENTED_EDGE('',*,*,#136,.F.);
#180=ORIENTED_EDGE('',*,*,#137,.T.);
#181=ORIENTED_EDGE('',*,*,#127,.F.);
#182=ORIENTED_EDGE('',*,*,#137,.F.);
#183=ORIENTED_EDGE('',*,*,#138,.T.);
#184=ORIENTED_EDGE('',*,*,#139,.T.);
#185=ORIENTED_EDGE('',*,*,#140,.T.);
#186=ORIENTED_EDGE('',*,*,#141,.T.);
#187=ORIENTED_EDGE('',*,*,#139,.F.);
#188=ORIENTED_EDGE('',*,*,#140,.F.);
#189=ORIENTED_EDGE('',*,*,#141,.F.);
#190=ORIENTED_EDGE('',*,*,#142,.T.);
#191=ORIENTED_EDGE('',*,*,#143,.F.);
#192=ORIENTED_EDGE('',*,*,#144,.F.);
#193=ORIENTED_EDGE('',*,*,#145,.F.);
#194=ORIENTED_EDGE('',*,*,#142,.F.);
#195=ORIENTED_EDGE('',*,*,#138,.F.);
#196=ORIENTED_EDGE('',*,*,#126,.F.);
#197=ORIENTED_EDGE('',*,*,#146,.T.);
#198=ORIENTED_EDGE('',*,*,#144,.T.);
#199=ORIENTED_EDGE('',*,*,#147,.T.);
#200=ORIENTED_EDGE('',*,*,#148,.F.);
#201=ORIENTED_EDGE('',*,*,#147,.F.);
#202=ORIENTED_EDGE('',*,*,#143,.T.);
#203=ORIENTED_EDGE('',*,*,#145,.T.);
#204=ORIENTED_EDGE('',*,*,#146,.F.);
#205=ORIENTED_EDGE('',*,*,#148,.T.);
#206=ORIENTED_EDGE('',*,*,#121,.F.);
#207=ORIENTED_EDGE('',*,*,#122,.F.);
#208=ORIENTED_EDGE('',*,*,#119,.F.);
#209=CYLINDRICAL_SURFACE('',#249,0.433070866141732);
#210=CYLINDRICAL_SURFACE('',#271,0.885826771653543);
#211=CYLINDRICAL_SURFACE('',#276,0.0551181102362205);
#212=CYLINDRICAL_SURFACE('',#278,0.637795275590551);
#213=ADVANCED_FACE('',(#32),#209,.F.);
#214=ADVANCED_FACE('',(#33),#29,.T.);
#215=ADVANCED_FACE('',(#34,#20),#24,.T.);
#216=ADVANCED_FACE('',(#35,#21),#25,.T.);
#217=ADVANCED_FACE('',(#36),#18,.T.);
#218=ADVANCED_FACE('',(#37),#30,.T.);
#219=ADVANCED_FACE('',(#38),#19,.T.);
#220=ADVANCED_FACE('',(#39),#210,.T.);
#221=ADVANCED_FACE('',(#40),#31,.T.);
#222=ADVANCED_FACE('',(#41),#211,.T.);
#223=ADVANCED_FACE('',(#42),#26,.T.);
#224=ADVANCED_FACE('',(#43),#212,.F.);
#225=ADVANCED_FACE('',(#44,#22),#27,.T.);
#226=ADVANCED_FACE('',(#45,#23),#28,.T.);
#227=CLOSED_SHELL('',(#213,#214,#215,#216,#217,#218,#219,#220,#221,#222,
#223,#224,#225,#226));
#228=DERIVED_UNIT_ELEMENT(#230,1.);
#229=DERIVED_UNIT_ELEMENT(#467,-3.);
#230=(
CONVERSION_BASED_UNIT('gram',#232)
MASS_UNIT()
NAMED_UNIT(#464)
);
#231=(
MASS_UNIT()
NAMED_UNIT(*)
SI_UNIT(.KILO.,.GRAM.)
);
#232=MASS_MEASURE_WITH_UNIT(MASS_MEASURE(0.001),#231);
#233=DERIVED_UNIT((#228,#229));
#234=MEASURE_REPRESENTATION_ITEM('density measure',
POSITIVE_RATIO_MEASURE(1.),#233);
#235=PROPERTY_DEFINITION_REPRESENTATION(#240,#237);
#236=PROPERTY_DEFINITION_REPRESENTATION(#241,#238);
#237=REPRESENTATION('material name',(#239),#461);
#238=REPRESENTATION('density',(#234),#461);
#239=DESCRIPTIVE_REPRESENTATION_ITEM('Generic','Generic');
#240=PROPERTY_DEFINITION('material property','material name',#475);
#241=PROPERTY_DEFINITION('material property','density of part',#475);
#242=DATE_TIME_ROLE('creation_date');
#243=APPLIED_DATE_AND_TIME_ASSIGNMENT(#244,#242,(#475));
#244=DATE_AND_TIME(#245,#246);
#245=CALENDAR_DATE(2026,17,6);
#246=LOCAL_TIME(0,0,0.,#247);
#247=COORDINATED_UNIVERSAL_TIME_OFFSET(0,0,.BEHIND.);
#248=AXIS2_PLACEMENT_3D('',#358,#282,#283);
#249=AXIS2_PLACEMENT_3D('',#359,#284,#285);
#250=AXIS2_PLACEMENT_3D('',#361,#286,#287);
#251=AXIS2_PLACEMENT_3D('',#364,#289,#290);
#252=AXIS2_PLACEMENT_3D('',#365,#291,#292);
#253=AXIS2_PLACEMENT_3D('',#367,#293,#294);
#254=AXIS2_PLACEMENT_3D('',#370,#296,#297);
#255=AXIS2_PLACEMENT_3D('',#371,#298,#299);
#256=AXIS2_PLACEMENT_3D('',#373,#300,#301);
#257=AXIS2_PLACEMENT_3D('',#375,#302,#303);
#258=AXIS2_PLACEMENT_3D('',#376,#304,#305);
#259=AXIS2_PLACEMENT_3D('',#378,#306,#307);
#260=AXIS2_PLACEMENT_3D('',#379,#308,#309);
#261=AXIS2_PLACEMENT_3D('',#382,#310,#311);
#262=AXIS2_PLACEMENT_3D('',#383,#312,#313);
#263=AXIS2_PLACEMENT_3D('',#384,#314,#315);
#264=AXIS2_PLACEMENT_3D('',#385,#316,#317);
#265=AXIS2_PLACEMENT_3D('',#389,#319,#320);
#266=AXIS2_PLACEMENT_3D('',#390,#321,#322);
#267=AXIS2_PLACEMENT_3D('',#391,#323,#324);
#268=AXIS2_PLACEMENT_3D('',#393,#325,#326);
#269=AXIS2_PLACEMENT_3D('',#395,#327,#328);
#270=AXIS2_PLACEMENT_3D('',#396,#329,#330);
#271=AXIS2_PLACEMENT_3D('',#397,#331,#332);
#272=AXIS2_PLACEMENT_3D('',#399,#334,#335);
#273=AXIS2_PLACEMENT_3D('',#401,#336,#337);
#274=AXIS2_PLACEMENT_3D('',#405,#339,#340);
#275=AXIS2_PLACEMENT_3D('',#406,#341,#342);
#276=AXIS2_PLACEMENT_3D('',#407,#343,#344);
#277=AXIS2_PLACEMENT_3D('',#451,#346,#347);
#278=AXIS2_PLACEMENT_3D('',#452,#348,#349);
#279=AXIS2_PLACEMENT_3D('',#456,#352,#353);
#280=AXIS2_PLACEMENT_3D('',#457,#354,#355);
#281=AXIS2_PLACEMENT_3D('',#458,#356,#357);
#282=DIRECTION('axis',(0.,0.,1.));
#283=DIRECTION('refdir',(1.,0.,0.));
#284=DIRECTION('center_axis',(0.,-1.,0.));
#285=DIRECTION('ref_axis',(-1.,0.,0.));
#286=DIRECTION('center_axis',(0.,-1.,0.));
#287=DIRECTION('ref_axis',(-1.,0.,0.));
#288=DIRECTION('',(0.,1.,0.));
#289=DIRECTION('center_axis',(0.,1.,0.));
#290=DIRECTION('ref_axis',(1.,0.,0.));
#291=DIRECTION('center_axis',(0.,1.,0.));
#292=DIRECTION('ref_axis',(1.,0.,0.));
#293=DIRECTION('center_axis',(0.,1.,0.));
#294=DIRECTION('ref_axis',(1.,0.,0.));
#295=DIRECTION('',(-0.0871557427476582,0.996194698091746,-1.0673500138323E-17));
#296=DIRECTION('center_axis',(0.,1.,0.));
#297=DIRECTION('ref_axis',(1.,0.,0.));
#298=DIRECTION('center_axis',(0.,1.,0.));
#299=DIRECTION('ref_axis',(0.,0.,1.));
#300=DIRECTION('center_axis',(0.,-1.,0.));
#301=DIRECTION('ref_axis',(1.,0.,0.));
#302=DIRECTION('center_axis',(0.,-1.,0.));
#303=DIRECTION('ref_axis',(1.,0.,0.));
#304=DIRECTION('center_axis',(0.,-1.,0.));
#305=DIRECTION('ref_axis',(0.,0.,-1.));
#306=DIRECTION('center_axis',(0.,-1.,0.));
#307=DIRECTION('ref_axis',(1.,0.,0.));
#308=DIRECTION('center_axis',(0.,-1.,0.));
#309=DIRECTION('ref_axis',(0.,0.,-1.));
#310=DIRECTION('center_axis',(0.,1.,0.));
#311=DIRECTION('ref_axis',(1.,0.,-6.12323399573677E-17));
#312=DIRECTION('center_axis',(-1.,0.,-1.22464679914735E-16));
#313=DIRECTION('ref_axis',(-1.22464679914735E-16,0.,1.));
#314=DIRECTION('center_axis',(0.,1.,0.));
#315=DIRECTION('ref_axis',(1.,0.,-6.12323399573677E-17));
#316=DIRECTION('center_axis',(0.,-1.,0.));
#317=DIRECTION('ref_axis',(1.,0.,0.));
#318=DIRECTION('',(-0.707106781186547,-0.707106781186548,8.65956056235493E-17));
#319=DIRECTION('center_axis',(0.,-1.,0.));
#320=DIRECTION('ref_axis',(1.,0.,-6.12323399573677E-17));
#321=DIRECTION('center_axis',(0.,-1.,0.));
#322=DIRECTION('ref_axis',(1.,0.,-6.12323399573677E-17));
#323=DIRECTION('center_axis',(0.,1.,0.));
#324=DIRECTION('ref_axis',(0.,0.,1.));
#325=DIRECTION('center_axis',(-1.,0.,1.22464679914735E-16));
#326=DIRECTION('ref_axis',(-1.22464679914735E-16,0.,-1.));
#327=DIRECTION('center_axis',(0.,1.,0.));
#328=DIRECTION('ref_axis',(1.,0.,0.));
#329=DIRECTION('center_axis',(0.,1.,0.));
#330=DIRECTION('ref_axis',(1.,0.,0.));
#331=DIRECTION('center_axis',(0.,1.,0.));
#332=DIRECTION('ref_axis',(-1.,0.,0.));
#333=DIRECTION('',(0.,-1.,0.));
#334=DIRECTION('center_axis',(-1.,0.,1.22464679914735E-16));
#335=DIRECTION('ref_axis',(5.1026949964473E-17,0.,1.));
#336=DIRECTION('center_axis',(-1.,0.,1.22464679914735E-16));
#337=DIRECTION('ref_axis',(1.22464679914735E-16,0.,1.));
#338=DIRECTION('',(-0.707106781186548,8.65956056235493E-17,-0.707106781186547));
#339=DIRECTION('center_axis',(1.,0.,-1.22464679914735E-16));
#340=DIRECTION('ref_axis',(0.,0.,1.));
#341=DIRECTION('center_axis',(1.,0.,-1.22464679914735E-16));
#342=DIRECTION('ref_axis',(0.,0.,1.));
#343=DIRECTION('center_axis',(1.,0.,-1.22464679914735E-16));
#344=DIRECTION('ref_axis',(0.,0.,-1.));
#345=DIRECTION('',(-1.,0.,1.22464679914735E-16));
#346=DIRECTION('center_axis',(1.,0.,-1.22464679914735E-16));
#347=DIRECTION('ref_axis',(-1.22464679914735E-16,0.,-1.));
#348=DIRECTION('center_axis',(0.,1.,0.));
#349=DIRECTION('ref_axis',(1.,0.,0.));
#350=DIRECTION('',(0.,-1.,0.));
#351=DIRECTION('',(0.,-1.,0.));
#352=DIRECTION('center_axis',(0.,1.,0.));
#353=DIRECTION('ref_axis',(1.,0.,0.));
#354=DIRECTION('center_axis',(0.,1.,0.));
#355=DIRECTION('ref_axis',(0.,0.,1.));
#356=DIRECTION('center_axis',(0.,-1.,0.));
#357=DIRECTION('ref_axis',(0.,0.,-1.));
#358=CARTESIAN_POINT('',(0.,0.,0.));
#359=CARTESIAN_POINT('Origin',(0.,-0.78740157480315,0.));
#360=CARTESIAN_POINT('',(0.433070866141732,-1.96850393700787,5.30358850024444E-17));
#361=CARTESIAN_POINT('Origin',(0.,-1.96850393700787,0.));
#362=CARTESIAN_POINT('',(0.433070866141732,-0.393700787401575,5.30358850024444E-17));
#363=CARTESIAN_POINT('',(0.433070866141732,-0.78740157480315,5.30358850024444E-17));
#364=CARTESIAN_POINT('Origin',(0.,-0.393700787401575,0.));
#365=CARTESIAN_POINT('Origin',(0.,-1.96850393700787,0.));
#366=CARTESIAN_POINT('',(-0.649606299212598,-1.96850393700787,7.95538275036666E-17));
#367=CARTESIAN_POINT('Origin',(0.,-1.96850393700787,0.));
#368=CARTESIAN_POINT('',(-0.735717188509768,-0.984251968503937,9.00993699986177E-17));
#369=CARTESIAN_POINT('',(-0.649606299212598,-1.96850393700787,-7.95538275036666E-17));
#370=CARTESIAN_POINT('Origin',(0.,-0.984251968503937,0.));
#371=CARTESIAN_POINT('Origin',(0.,0.393700787401575,0.));
#372=CARTESIAN_POINT('',(-8.68335906445672E-17,0.393700787401575,0.709050076356906));
#373=CARTESIAN_POINT('Origin',(0.,0.393700787401575,0.));
#374=CARTESIAN_POINT('',(-0.637795275590551,0.393700787401575,7.81073942763272E-17));
#375=CARTESIAN_POINT('Origin',(0.,0.393700787401575,0.));
#376=CARTESIAN_POINT('Origin',(0.,-0.984251968503937,0.));
#377=CARTESIAN_POINT('',(0.885826771653543,-0.984251968503937,0.));
#378=CARTESIAN_POINT('Origin',(0.,-0.984251968503937,0.));
#379=CARTESIAN_POINT('Origin',(0.,0.268700787401575,0.));
#380=CARTESIAN_POINT('',(-0.797438424005225,0.357089135049893,1.95316082695022E-16));
#381=CARTESIAN_POINT('',(-9.76580413475109E-17,0.357089135049893,0.797438424005225));
#382=CARTESIAN_POINT('Origin',(0.,0.357089135049893,4.88290206737554E-17));
#383=CARTESIAN_POINT('Origin',(-8.68335906445672E-17,0.268700787401575,
0.709050076356906));
#384=CARTESIAN_POINT('Origin',(0.,0.357089135049893,4.88290206737554E-17));
#385=CARTESIAN_POINT('Origin',(0.,0.331200787401575,0.));
#386=CARTESIAN_POINT('',(-0.849215119301862,0.305312439753256,1.94109474709895E-32));
#387=CARTESIAN_POINT('',(-0.823326771653543,0.331200787401575,1.00828449555784E-16));
#388=CARTESIAN_POINT('',(-1.03998857764056E-16,0.305312439753256,-0.849215119301862));
#389=CARTESIAN_POINT('Origin',(0.,0.305312439753256,5.19994288820281E-17));
#390=CARTESIAN_POINT('Origin',(0.,0.305312439753256,5.19994288820281E-17));
#391=CARTESIAN_POINT('Origin',(0.,0.216924092104938,0.));
#392=CARTESIAN_POINT('',(-1.08482492050455E-16,0.216924092104938,-0.885826771653543));
#393=CARTESIAN_POINT('Origin',(-9.31744070611126E-17,0.216924092104938,
-0.760826771653543));
#394=CARTESIAN_POINT('',(0.885826771653543,0.216924092104938,-1.08482492050455E-16));
#395=CARTESIAN_POINT('Origin',(0.,0.216924092104938,0.));
#396=CARTESIAN_POINT('Origin',(0.,0.216924092104938,0.));
#397=CARTESIAN_POINT('Origin',(0.,0.,0.));
#398=CARTESIAN_POINT('',(0.885826771653543,0.,-1.08482492050455E-16));
#399=CARTESIAN_POINT('Origin',(-0.590551181102362,0.,-1.92857763645251E-18));
#400=CARTESIAN_POINT('',(-0.582677165354331,-4.82144409113131E-18,-0.0393700787401575));
#401=CARTESIAN_POINT('Origin',(-0.582677165354331,0.,-2.89286645467877E-18));
#402=CARTESIAN_POINT('',(-0.598425196850394,6.75002172758384E-18,-0.0551181102362205));
#403=CARTESIAN_POINT('',(-0.590551181102362,5.78573290935757E-18,-0.047244094488189));
#404=CARTESIAN_POINT('',(-0.598425196850394,-6.75002172758384E-18,0.0551181102362205));
#405=CARTESIAN_POINT('Origin',(-0.598425196850394,0.,-9.64288818226244E-19));
#406=CARTESIAN_POINT('Origin',(-0.598425196850394,0.,-9.64288818226244E-19));
#407=CARTESIAN_POINT('Origin',(-0.610236220472441,0.,4.8214440911315E-19));
#408=CARTESIAN_POINT('',(-0.635409165412032,-1.32612486854372E-18,0.0551181102362205));
#409=CARTESIAN_POINT('',(-0.610236220472441,-6.75002172758384E-18,0.0551181102362205));
#410=CARTESIAN_POINT('',(-0.637795275590551,-0.0551181102362205,7.8107394276327E-17));
#411=CARTESIAN_POINT('Ctrl Pts',(-0.637795275590551,-0.0551181102362205,
2.73184799366426E-18));
#412=CARTESIAN_POINT('Ctrl Pts',(-0.637795275590551,-0.0551181102362205,
0.00692445328453773));
#413=CARTESIAN_POINT('Ctrl Pts',(-0.637670948969585,-0.0537335498482447,
0.0143081051114526));
#414=CARTESIAN_POINT('Ctrl Pts',(-0.637221525991325,-0.048107467200366,
0.0278870551626024));
#415=CARTESIAN_POINT('Ctrl Pts',(-0.636902822936456,-0.0438661357429716,
0.0340826432854667));
#416=CARTESIAN_POINT('Ctrl Pts',(-0.636303853399363,-0.0340826340205134,
0.0438661450079249));
#417=CARTESIAN_POINT('Ctrl Pts',(-0.635984629454945,-0.0278870499837331,
0.048107469268201));
#418=CARTESIAN_POINT('Ctrl Pts',(-0.635534014443157,-0.0143081135070069,
0.0537335464476604));
#419=CARTESIAN_POINT('Ctrl Pts',(-0.635409165412032,-0.00692446639943233,
0.0551181102362205));
#420=CARTESIAN_POINT('Ctrl Pts',(-0.635409165412032,1.36592399683213E-18,
0.0551181102362205));
#421=CARTESIAN_POINT('',(-0.637795275590551,0.0551181102362205,7.8107394276327E-17));
#422=CARTESIAN_POINT('Ctrl Pts',(-0.637795275590551,0.0551181102362205,
8.19554398099279E-18));
#423=CARTESIAN_POINT('Ctrl Pts',(-0.637795275590551,0.0551181102362205,
-0.00692445328453772));
#424=CARTESIAN_POINT('Ctrl Pts',(-0.637670948969585,0.0537335498482447,
-0.0143081051114526));
#425=CARTESIAN_POINT('Ctrl Pts',(-0.637221525991325,0.048107467200366,-0.0278870551626024));
#426=CARTESIAN_POINT('Ctrl Pts',(-0.636902822936455,0.0438661357429717,
-0.0340826432854667));
#427=CARTESIAN_POINT('Ctrl Pts',(-0.636303853399362,0.0340826340205134,
-0.0438661450079249));
#428=CARTESIAN_POINT('Ctrl Pts',(-0.635984629454945,0.0278870499837331,
-0.048107469268201));
#429=CARTESIAN_POINT('Ctrl Pts',(-0.635534014443157,0.0143081135070069,
-0.0537335464476604));
#430=CARTESIAN_POINT('Ctrl Pts',(-0.635409165412032,0.00692446639943233,
-0.0551181102362205));
#431=CARTESIAN_POINT('Ctrl Pts',(-0.635409165412032,0.,-0.0551181102362205));
#432=CARTESIAN_POINT('Ctrl Pts',(-0.635409165412032,-0.00692446639943233,
-0.0551181102362205));
#433=CARTESIAN_POINT('Ctrl Pts',(-0.635534014443157,-0.0143081135070069,
-0.0537335464476604));
#434=CARTESIAN_POINT('Ctrl Pts',(-0.635984629454945,-0.0278870499837331,
-0.048107469268201));
#435=CARTESIAN_POINT('Ctrl Pts',(-0.636303853399362,-0.0340826340205134,
-0.0438661450079249));
#436=CARTESIAN_POINT('Ctrl Pts',(-0.636902822936455,-0.0438661357429716,
-0.0340826432854667));
#437=CARTESIAN_POINT('Ctrl Pts',(-0.637221525991325,-0.048107467200366,
-0.0278870551626024));
#438=CARTESIAN_POINT('Ctrl Pts',(-0.637670948969585,-0.0537335498482447,
-0.0143081051114526));
#439=CARTESIAN_POINT('Ctrl Pts',(-0.637795275590551,-0.0551181102362205,
-0.00692445328453772));
#440=CARTESIAN_POINT('Ctrl Pts',(-0.637795275590551,-0.0551181102362205,
0.));
#441=CARTESIAN_POINT('Ctrl Pts',(-0.635409165412032,4.09777199049639E-18,
0.0551181102362205));
#442=CARTESIAN_POINT('Ctrl Pts',(-0.635409165412032,0.00692446639943233,
0.0551181102362205));
#443=CARTESIAN_POINT('Ctrl Pts',(-0.635534014443157,0.0143081135070069,
0.0537335464476604));
#444=CARTESIAN_POINT('Ctrl Pts',(-0.635984629454945,0.0278870499837331,
0.048107469268201));
#445=CARTESIAN_POINT('Ctrl Pts',(-0.636303853399363,0.0340826340205134,
0.0438661450079249));
#446=CARTESIAN_POINT('Ctrl Pts',(-0.636902822936456,0.0438661357429716,
0.0340826432854667));
#447=CARTESIAN_POINT('Ctrl Pts',(-0.637221525991325,0.048107467200366,0.0278870551626024));
#448=CARTESIAN_POINT('Ctrl Pts',(-0.637670948969585,0.0537335498482447,
0.0143081051114527));
#449=CARTESIAN_POINT('Ctrl Pts',(-0.637795275590551,0.0551181102362205,
0.00692445328453774));
#450=CARTESIAN_POINT('Ctrl Pts',(-0.637795275590551,0.0551181102362205,
1.36592399683213E-17));
#451=CARTESIAN_POINT('Origin',(-0.582677165354331,0.,0.));
#452=CARTESIAN_POINT('Origin',(0.,0.,0.));
#453=CARTESIAN_POINT('',(-0.637795275590551,0.,7.81073942763272E-17));
#454=CARTESIAN_POINT('',(-0.637795275590551,-0.393700787401575,7.81073942763272E-17));
#455=CARTESIAN_POINT('',(-0.637795275590551,0.,7.81073942763272E-17));
#456=CARTESIAN_POINT('Origin',(0.,-0.393700787401575,0.));
#457=CARTESIAN_POINT('Origin',(0.,-0.393700787401575,0.));
#458=CARTESIAN_POINT('Origin',(0.,-1.96850393700787,0.));
#459=UNCERTAINTY_MEASURE_WITH_UNIT(LENGTH_MEASURE(0.000393700787401575),
#465,'DISTANCE_ACCURACY_VALUE',
'Maximum model space distance between geometric entities at asserted c
onnectivities');
#460=UNCERTAINTY_MEASURE_WITH_UNIT(LENGTH_MEASURE(0.000393700787401575),
#465,'DISTANCE_ACCURACY_VALUE',
'Maximum model space distance between geometric entities at asserted c
onnectivities');
#461=(
GEOMETRIC_REPRESENTATION_CONTEXT(3)
GLOBAL_UNCERTAINTY_ASSIGNED_CONTEXT((#459))
GLOBAL_UNIT_ASSIGNED_CONTEXT((#465,#469,#470))
REPRESENTATION_CONTEXT('','3D')
);
#462=(
GEOMETRIC_REPRESENTATION_CONTEXT(3)
GLOBAL_UNCERTAINTY_ASSIGNED_CONTEXT((#460))
GLOBAL_UNIT_ASSIGNED_CONTEXT((#465,#469,#470))
REPRESENTATION_CONTEXT('','3D')
);
#463=DIMENSIONAL_EXPONENTS(1.,0.,0.,0.,0.,0.,0.);
#464=DIMENSIONAL_EXPONENTS(0.,1.,0.,0.,0.,0.,0.);
#465=(
CONVERSION_BASED_UNIT('inch',#468)
LENGTH_UNIT()
NAMED_UNIT(#463)
);
#466=(
LENGTH_UNIT()
NAMED_UNIT(*)
SI_UNIT(.MILLI.,.METRE.)
);
#467=(
LENGTH_UNIT()
NAMED_UNIT(*)
SI_UNIT(.CENTI.,.METRE.)
);
#468=LENGTH_MEASURE_WITH_UNIT(LENGTH_MEASURE(25.4),#466);
#469=(
NAMED_UNIT(*)
PLANE_ANGLE_UNIT()
SI_UNIT($,.RADIAN.)
);
#470=(
NAMED_UNIT(*)
SI_UNIT($,.STERADIAN.)
SOLID_ANGLE_UNIT()
);
#471=SHAPE_DEFINITION_REPRESENTATION(#472,#473);
#472=PRODUCT_DEFINITION_SHAPE('',$,#475);
#473=SHAPE_REPRESENTATION('',(#248),#461);
#474=PRODUCT_DEFINITION_CONTEXT('part definition',#479,'design');
#475=PRODUCT_DEFINITION('Cyclone Hose Adapter',
'Cyclone Hose Adapter (40mm)',#476,#474);
#476=PRODUCT_DEFINITION_FORMATION('',$,#481);
#477=PRODUCT_RELATED_PRODUCT_CATEGORY('Cyclone Hose Adapter (40mm)',
'Cyclone Hose Adapter (40mm)',(#481));
#478=APPLICATION_PROTOCOL_DEFINITION('international standard',
'automotive_design',2009,#479);
#479=APPLICATION_CONTEXT(
'Core Data for Automotive Mechanical Design Process');
#480=PRODUCT_CONTEXT('part definition',#479,'mechanical');
#481=PRODUCT('Cyclone Hose Adapter','Cyclone Hose Adapter (40mm)',$,(#480));
#482=PRESENTATION_STYLE_ASSIGNMENT((#483));
#483=SURFACE_STYLE_USAGE(.BOTH.,#486);
#484=SURFACE_STYLE_RENDERING_WITH_PROPERTIES($,#490,(#485));
#485=SURFACE_STYLE_TRANSPARENT(0.);
#486=SURFACE_SIDE_STYLE('',(#487,#484));
#487=SURFACE_STYLE_FILL_AREA(#488);
#488=FILL_AREA_STYLE('',(#489));
#489=FILL_AREA_STYLE_COLOUR('',#490);
#490=COLOUR_RGB('',0.749019607843137,0.749019607843137,0.749019607843137);
ENDSEC;
END-ISO-10303-21;
