ISO-10303-21;
HEADER;
/* Generated by software containing ST-Developer
 * from STEP Tools, Inc. (www.steptools.com) 
 */

FILE_DESCRIPTION(
/* description */ (''),
/* implementation_level */ '2;1');

FILE_NAME(
/* name */ 'Cyclone Hose Adapter.stp',
/* time_stamp */ '2026-06-17T23:08:23-04:00',
/* author */ ('JoshuaEah'),
/* organization */ (''),
/* preprocessor_version */ 'ST-DEVELOPER v20.1',
/* originating_system */ 'Autodesk Inventor 2026',
/* authorisation */ '');

FILE_SCHEMA (('AUTOMOTIVE_DESIGN { 1 0 10303 214 3 1 1 }'));
ENDSEC;

DATA;
#10=MECHANICAL_DESIGN_GEOMETRIC_PRESENTATION_REPRESENTATION('',(#13),#537);
#11=SHAPE_REPRESENTATION_RELATIONSHIP('SRR','None',#548,#12);
#12=ADVANCED_BREP_SHAPE_REPRESENTATION('',(#14),#536);
#13=STYLED_ITEM('',(#557),#14);
#14=MANIFOLD_SOLID_BREP('Solid1',#268);
#15=B_SPLINE_CURVE_WITH_KNOTS('',3,(#478,#479,#480,#481,#482,#483,#484,
#485,#486,#487),.UNSPECIFIED.,.F.,.F.,(4,2,2,2,4),(0.211057535983704,0.263821870011881,
0.316586204040058,0.369350638003733,0.422115071967407),.UNSPECIFIED.);
#16=B_SPLINE_CURVE_WITH_KNOTS('',3,(#489,#490,#491,#492,#493,#494,#495,
#496,#497,#498,#499,#500,#501,#502,#503,#504,#505,#506,#507),
 .UNSPECIFIED.,.F.,.F.,(4,2,2,2,3,2,2,2,4),(0.633172607951111,0.685936941979288,
0.738701276007466,0.79146570997114,0.844230143934814,0.896994577898489,
0.949759011862163,1.00252334589034,1.05528767991852),.UNSPECIFIED.);
#17=B_SPLINE_CURVE_WITH_KNOTS('',3,(#508,#509,#510,#511,#512,#513,#514,
#515,#516,#517),.UNSPECIFIED.,.F.,.F.,(4,2,2,2,4),(0.422115071967407,0.474879505931081,
0.527643939894756,0.580408273922933,0.633172607951111),.UNSPECIFIED.);
#18=FACE_BOUND('',#57,.T.);
#19=FACE_BOUND('',#64,.T.);
#20=FACE_BOUND('',#67,.T.);
#21=PLANE('',#313);
#22=PLANE('',#320);
#23=PLANE('',#326);
#24=PLANE('',#328);
#25=TOROIDAL_SURFACE('',#303,0.987204724409449,0.125);
#26=TOROIDAL_SURFACE('',#310,0.810428029112812,0.125);
#27=CYLINDRICAL_SURFACE('',#295,1.11220472440945);
#28=CYLINDRICAL_SURFACE('',#301,1.11220472440945);
#29=CYLINDRICAL_SURFACE('',#319,0.0551181102362205);
#30=CYLINDRICAL_SURFACE('',#321,0.637795275590551);
#31=CYLINDRICAL_SURFACE('',#323,0.433070866141732);
#32=CYLINDRICAL_SURFACE('',#327,1.13188976377953);
#33=FACE_OUTER_BOUND('',#49,.T.);
#34=FACE_OUTER_BOUND('',#50,.T.);
#35=FACE_OUTER_BOUND('',#51,.T.);
#36=FACE_OUTER_BOUND('',#52,.T.);
#37=FACE_OUTER_BOUND('',#53,.T.);
#38=FACE_OUTER_BOUND('',#54,.T.);
#39=FACE_OUTER_BOUND('',#55,.T.);
#40=FACE_OUTER_BOUND('',#56,.T.);
#41=FACE_OUTER_BOUND('',#58,.T.);
#42=FACE_OUTER_BOUND('',#59,.T.);
#43=FACE_OUTER_BOUND('',#60,.T.);
#44=FACE_OUTER_BOUND('',#61,.T.);
#45=FACE_OUTER_BOUND('',#62,.T.);
#46=FACE_OUTER_BOUND('',#63,.T.);
#47=FACE_OUTER_BOUND('',#65,.T.);
#48=FACE_OUTER_BOUND('',#66,.T.);
#49=EDGE_LOOP('',(#174,#175,#176,#177,#178,#179));
#50=EDGE_LOOP('',(#180,#181,#182,#183,#184,#185));
#51=EDGE_LOOP('',(#186,#187,#188,#189));
#52=EDGE_LOOP('',(#190,#191,#192,#193));
#53=EDGE_LOOP('',(#194,#195,#196,#197,#198,#199));
#54=EDGE_LOOP('',(#200,#201,#202,#203,#204,#205));
#55=EDGE_LOOP('',(#206,#207,#208,#209,#210));
#56=EDGE_LOOP('',(#211));
#57=EDGE_LOOP('',(#212));
#58=EDGE_LOOP('',(#213,#214,#215,#216,#217));
#59=EDGE_LOOP('',(#218,#219,#220,#221,#222,#223,#224));
#60=EDGE_LOOP('',(#225));
#61=EDGE_LOOP('',(#226,#227,#228,#229,#230,#231,#232,#233,#234));
#62=EDGE_LOOP('',(#235,#236,#237,#238));
#63=EDGE_LOOP('',(#239));
#64=EDGE_LOOP('',(#240));
#65=EDGE_LOOP('',(#241,#242,#243,#244,#245));
#66=EDGE_LOOP('',(#246));
#67=EDGE_LOOP('',(#247));
#68=LINE('',#427,#79);
#69=LINE('',#436,#80);
#70=LINE('',#441,#81);
#71=LINE('',#446,#82);
#72=LINE('',#457,#83);
#73=LINE('',#470,#84);
#74=LINE('',#476,#85);
#75=LINE('',#520,#86);
#76=LINE('',#522,#87);
#77=LINE('',#528,#88);
#78=LINE('',#532,#89);
#79=VECTOR('',#337,1.12204724409449);
#80=VECTOR('',#348,1.11220472440945);
#81=VECTOR('',#353,1.12204724409449);
#82=VECTOR('',#360,1.11220472440945);
#83=VECTOR('',#373,0.987204724409449);
#84=VECTOR('',#390,0.047244094488189);
#85=VECTOR('',#397,0.0551181102362205);
#86=VECTOR('',#402,0.637795275590551);
#87=VECTOR('',#403,0.637795275590551);
#88=VECTOR('',#410,0.433070866141732);
#89=VECTOR('',#417,1.13188976377953);
#90=CIRCLE('',#291,1.13188976377953);
#91=CIRCLE('',#292,1.13188976377953);
#92=CIRCLE('',#293,1.11220472440945);
#93=CIRCLE('',#294,1.11220472440945);
#94=CIRCLE('',#296,1.11220472440945);
#95=CIRCLE('',#297,1.11220472440945);
#96=CIRCLE('',#299,1.13188976377953);
#97=CIRCLE('',#300,1.11220472440945);
#98=CIRCLE('',#302,1.11220472440945);
#99=CIRCLE('',#304,1.07559307205777);
#100=CIRCLE('',#305,0.125);
#101=CIRCLE('',#306,1.07559307205777);
#102=CIRCLE('',#308,0.89881637676113);
#103=CIRCLE('',#309,0.89881637676113);
#104=CIRCLE('',#311,0.125);
#105=CIRCLE('',#312,0.810428029112812);
#106=CIRCLE('',#314,0.637795275590551);
#107=CIRCLE('',#316,0.0393700787401575);
#108=CIRCLE('',#317,0.0551181102362205);
#109=CIRCLE('',#318,0.0551181102362205);
#110=CIRCLE('',#322,0.637795275590551);
#111=CIRCLE('',#324,0.433070866141732);
#112=CIRCLE('',#325,0.433070866141732);
#113=VERTEX_POINT('',#422);
#114=VERTEX_POINT('',#423);
#115=VERTEX_POINT('',#426);
#116=VERTEX_POINT('',#428);
#117=VERTEX_POINT('',#432);
#118=VERTEX_POINT('',#433);
#119=VERTEX_POINT('',#438);
#120=VERTEX_POINT('',#440);
#121=VERTEX_POINT('',#444);
#122=VERTEX_POINT('',#448);
#123=VERTEX_POINT('',#449);
#124=VERTEX_POINT('',#454);
#125=VERTEX_POINT('',#455);
#126=VERTEX_POINT('',#460);
#127=VERTEX_POINT('',#464);
#128=VERTEX_POINT('',#467);
#129=VERTEX_POINT('',#469);
#130=VERTEX_POINT('',#471);
#131=VERTEX_POINT('',#475);
#132=VERTEX_POINT('',#477);
#133=VERTEX_POINT('',#488);
#134=VERTEX_POINT('',#521);
#135=VERTEX_POINT('',#525);
#136=VERTEX_POINT('',#527);
#137=EDGE_CURVE('',#113,#114,#90,.T.);
#138=EDGE_CURVE('',#114,#113,#91,.T.);
#139=EDGE_CURVE('',#114,#115,#68,.T.);
#140=EDGE_CURVE('',#115,#116,#92,.T.);
#141=EDGE_CURVE('',#116,#115,#93,.T.);
#142=EDGE_CURVE('',#117,#118,#94,.T.);
#143=EDGE_CURVE('',#118,#117,#95,.T.);
#144=EDGE_CURVE('',#118,#116,#69,.T.);
#145=EDGE_CURVE('',#119,#119,#96,.T.);
#146=EDGE_CURVE('',#119,#120,#70,.T.);
#147=EDGE_CURVE('',#120,#120,#97,.T.);
#148=EDGE_CURVE('',#121,#121,#98,.T.);
#149=EDGE_CURVE('',#121,#120,#71,.T.);
#150=EDGE_CURVE('',#122,#123,#99,.T.);
#151=EDGE_CURVE('',#123,#117,#100,.T.);
#152=EDGE_CURVE('',#123,#122,#101,.T.);
#153=EDGE_CURVE('',#124,#125,#102,.T.);
#154=EDGE_CURVE('',#124,#122,#72,.T.);
#155=EDGE_CURVE('',#125,#124,#103,.T.);
#156=EDGE_CURVE('',#125,#126,#104,.T.);
#157=EDGE_CURVE('',#126,#126,#105,.T.);
#158=EDGE_CURVE('',#127,#127,#106,.T.);
#159=EDGE_CURVE('',#128,#128,#107,.T.);
#160=EDGE_CURVE('',#128,#129,#73,.T.);
#161=EDGE_CURVE('',#129,#130,#108,.T.);
#162=EDGE_CURVE('',#130,#129,#109,.T.);
#163=EDGE_CURVE('',#130,#131,#74,.T.);
#164=EDGE_CURVE('',#132,#131,#15,.T.);
#165=EDGE_CURVE('',#133,#132,#16,.T.);
#166=EDGE_CURVE('',#131,#133,#17,.T.);
#167=EDGE_CURVE('',#127,#133,#75,.T.);
#168=EDGE_CURVE('',#132,#134,#76,.T.);
#169=EDGE_CURVE('',#134,#134,#110,.T.);
#170=EDGE_CURVE('',#135,#135,#111,.T.);
#171=EDGE_CURVE('',#135,#136,#77,.T.);
#172=EDGE_CURVE('',#136,#136,#112,.T.);
#173=EDGE_CURVE('',#119,#113,#78,.T.);
#174=ORIENTED_EDGE('',*,*,#137,.F.);
#175=ORIENTED_EDGE('',*,*,#138,.F.);
#176=ORIENTED_EDGE('',*,*,#139,.T.);
#177=ORIENTED_EDGE('',*,*,#140,.T.);
#178=ORIENTED_EDGE('',*,*,#141,.T.);
#179=ORIENTED_EDGE('',*,*,#139,.F.);
#180=ORIENTED_EDGE('',*,*,#142,.F.);
#181=ORIENTED_EDGE('',*,*,#143,.F.);
#182=ORIENTED_EDGE('',*,*,#144,.T.);
#183=ORIENTED_EDGE('',*,*,#140,.F.);
#184=ORIENTED_EDGE('',*,*,#141,.F.);
#185=ORIENTED_EDGE('',*,*,#144,.F.);
#186=ORIENTED_EDGE('',*,*,#145,.T.);
#187=ORIENTED_EDGE('',*,*,#146,.T.);
#188=ORIENTED_EDGE('',*,*,#147,.T.);
#189=ORIENTED_EDGE('',*,*,#146,.F.);
#190=ORIENTED_EDGE('',*,*,#148,.F.);
#191=ORIENTED_EDGE('',*,*,#149,.T.);
#192=ORIENTED_EDGE('',*,*,#147,.F.);
#193=ORIENTED_EDGE('',*,*,#149,.F.);
#194=ORIENTED_EDGE('',*,*,#150,.T.);
#195=ORIENTED_EDGE('',*,*,#151,.T.);
#196=ORIENTED_EDGE('',*,*,#142,.T.);
#197=ORIENTED_EDGE('',*,*,#143,.T.);
#198=ORIENTED_EDGE('',*,*,#151,.F.);
#199=ORIENTED_EDGE('',*,*,#152,.T.);
#200=ORIENTED_EDGE('',*,*,#153,.F.);
#201=ORIENTED_EDGE('',*,*,#154,.T.);
#202=ORIENTED_EDGE('',*,*,#152,.F.);
#203=ORIENTED_EDGE('',*,*,#150,.F.);
#204=ORIENTED_EDGE('',*,*,#154,.F.);
#205=ORIENTED_EDGE('',*,*,#155,.F.);
#206=ORIENTED_EDGE('',*,*,#153,.T.);
#207=ORIENTED_EDGE('',*,*,#156,.T.);
#208=ORIENTED_EDGE('',*,*,#157,.T.);
#209=ORIENTED_EDGE('',*,*,#156,.F.);
#210=ORIENTED_EDGE('',*,*,#155,.T.);
#211=ORIENTED_EDGE('',*,*,#157,.F.);
#212=ORIENTED_EDGE('',*,*,#158,.T.);
#213=ORIENTED_EDGE('',*,*,#159,.T.);
#214=ORIENTED_EDGE('',*,*,#160,.T.);
#215=ORIENTED_EDGE('',*,*,#161,.T.);
#216=ORIENTED_EDGE('',*,*,#162,.T.);
#217=ORIENTED_EDGE('',*,*,#160,.F.);
#218=ORIENTED_EDGE('',*,*,#161,.F.);
#219=ORIENTED_EDGE('',*,*,#162,.F.);
#220=ORIENTED_EDGE('',*,*,#163,.T.);
#221=ORIENTED_EDGE('',*,*,#164,.F.);
#222=ORIENTED_EDGE('',*,*,#165,.F.);
#223=ORIENTED_EDGE('',*,*,#166,.F.);
#224=ORIENTED_EDGE('',*,*,#163,.F.);
#225=ORIENTED_EDGE('',*,*,#159,.F.);
#226=ORIENTED_EDGE('',*,*,#158,.F.);
#227=ORIENTED_EDGE('',*,*,#167,.T.);
#228=ORIENTED_EDGE('',*,*,#165,.T.);
#229=ORIENTED_EDGE('',*,*,#168,.T.);
#230=ORIENTED_EDGE('',*,*,#169,.F.);
#231=ORIENTED_EDGE('',*,*,#168,.F.);
#232=ORIENTED_EDGE('',*,*,#164,.T.);
#233=ORIENTED_EDGE('',*,*,#166,.T.);
#234=ORIENTED_EDGE('',*,*,#167,.F.);
#235=ORIENTED_EDGE('',*,*,#170,.F.);
#236=ORIENTED_EDGE('',*,*,#171,.T.);
#237=ORIENTED_EDGE('',*,*,#172,.T.);
#238=ORIENTED_EDGE('',*,*,#171,.F.);
#239=ORIENTED_EDGE('',*,*,#169,.T.);
#240=ORIENTED_EDGE('',*,*,#172,.F.);
#241=ORIENTED_EDGE('',*,*,#145,.F.);
#242=ORIENTED_EDGE('',*,*,#173,.T.);
#243=ORIENTED_EDGE('',*,*,#137,.T.);
#244=ORIENTED_EDGE('',*,*,#138,.T.);
#245=ORIENTED_EDGE('',*,*,#173,.F.);
#246=ORIENTED_EDGE('',*,*,#148,.T.);
#247=ORIENTED_EDGE('',*,*,#170,.T.);
#248=CONICAL_SURFACE('',#290,1.12204724409449,0.785398163397446);
#249=CONICAL_SURFACE('',#298,1.12204724409449,0.785398163397446);
#250=CONICAL_SURFACE('',#307,0.987204724409449,0.785398163397448);
#251=CONICAL_SURFACE('',#315,0.047244094488189,0.785398163397448);
#252=ADVANCED_FACE('',(#33),#248,.T.);
#253=ADVANCED_FACE('',(#34),#27,.T.);
#254=ADVANCED_FACE('',(#35),#249,.T.);
#255=ADVANCED_FACE('',(#36),#28,.T.);
#256=ADVANCED_FACE('',(#37),#25,.T.);
#257=ADVANCED_FACE('',(#38),#250,.T.);
#258=ADVANCED_FACE('',(#39),#26,.T.);
#259=ADVANCED_FACE('',(#40,#18),#21,.T.);
#260=ADVANCED_FACE('',(#41),#251,.T.);
#261=ADVANCED_FACE('',(#42),#29,.T.);
#262=ADVANCED_FACE('',(#43),#22,.T.);
#263=ADVANCED_FACE('',(#44),#30,.F.);
#264=ADVANCED_FACE('',(#45),#31,.F.);
#265=ADVANCED_FACE('',(#46,#19),#23,.T.);
#266=ADVANCED_FACE('',(#47),#32,.T.);
#267=ADVANCED_FACE('',(#48,#20),#24,.F.);
#268=CLOSED_SHELL('',(#252,#253,#254,#255,#256,#257,#258,#259,#260,#261,
#262,#263,#264,#265,#266,#267));
#269=DERIVED_UNIT_ELEMENT(#271,1.);
#270=DERIVED_UNIT_ELEMENT(#542,-3.);
#271=(
CONVERSION_BASED_UNIT('gram',#273)
MASS_UNIT()
NAMED_UNIT(#539)
);
#272=(
MASS_UNIT()
NAMED_UNIT(*)
SI_UNIT(.KILO.,.GRAM.)
);
#273=MASS_MEASURE_WITH_UNIT(MASS_MEASURE(0.001),#272);
#274=DERIVED_UNIT((#269,#270));
#275=MEASURE_REPRESENTATION_ITEM('density measure',
POSITIVE_RATIO_MEASURE(1.),#274);
#276=PROPERTY_DEFINITION_REPRESENTATION(#281,#278);
#277=PROPERTY_DEFINITION_REPRESENTATION(#282,#279);
#278=REPRESENTATION('material name',(#280),#536);
#279=REPRESENTATION('density',(#275),#536);
#280=DESCRIPTIVE_REPRESENTATION_ITEM('Generic','Generic');
#281=PROPERTY_DEFINITION('material property','material name',#550);
#282=PROPERTY_DEFINITION('material property','density of part',#550);
#283=DATE_TIME_ROLE('creation_date');
#284=APPLIED_DATE_AND_TIME_ASSIGNMENT(#285,#283,(#550));
#285=DATE_AND_TIME(#286,#287);
#286=CALENDAR_DATE(2026,17,6);
#287=LOCAL_TIME(0,0,0.,#288);
#288=COORDINATED_UNIVERSAL_TIME_OFFSET(0,0,.BEHIND.);
#289=AXIS2_PLACEMENT_3D('',#420,#329,#330);
#290=AXIS2_PLACEMENT_3D('',#421,#331,#332);
#291=AXIS2_PLACEMENT_3D('',#424,#333,#334);
#292=AXIS2_PLACEMENT_3D('',#425,#335,#336);
#293=AXIS2_PLACEMENT_3D('',#429,#338,#339);
#294=AXIS2_PLACEMENT_3D('',#430,#340,#341);
#295=AXIS2_PLACEMENT_3D('',#431,#342,#343);
#296=AXIS2_PLACEMENT_3D('',#434,#344,#345);
#297=AXIS2_PLACEMENT_3D('',#435,#346,#347);
#298=AXIS2_PLACEMENT_3D('',#437,#349,#350);
#299=AXIS2_PLACEMENT_3D('',#439,#351,#352);
#300=AXIS2_PLACEMENT_3D('',#442,#354,#355);
#301=AXIS2_PLACEMENT_3D('',#443,#356,#357);
#302=AXIS2_PLACEMENT_3D('',#445,#358,#359);
#303=AXIS2_PLACEMENT_3D('',#447,#361,#362);
#304=AXIS2_PLACEMENT_3D('',#450,#363,#364);
#305=AXIS2_PLACEMENT_3D('',#451,#365,#366);
#306=AXIS2_PLACEMENT_3D('',#452,#367,#368);
#307=AXIS2_PLACEMENT_3D('',#453,#369,#370);
#308=AXIS2_PLACEMENT_3D('',#456,#371,#372);
#309=AXIS2_PLACEMENT_3D('',#458,#374,#375);
#310=AXIS2_PLACEMENT_3D('',#459,#376,#377);
#311=AXIS2_PLACEMENT_3D('',#461,#378,#379);
#312=AXIS2_PLACEMENT_3D('',#462,#380,#381);
#313=AXIS2_PLACEMENT_3D('',#463,#382,#383);
#314=AXIS2_PLACEMENT_3D('',#465,#384,#385);
#315=AXIS2_PLACEMENT_3D('',#466,#386,#387);
#316=AXIS2_PLACEMENT_3D('',#468,#388,#389);
#317=AXIS2_PLACEMENT_3D('',#472,#391,#392);
#318=AXIS2_PLACEMENT_3D('',#473,#393,#394);
#319=AXIS2_PLACEMENT_3D('',#474,#395,#396);
#320=AXIS2_PLACEMENT_3D('',#518,#398,#399);
#321=AXIS2_PLACEMENT_3D('',#519,#400,#401);
#322=AXIS2_PLACEMENT_3D('',#523,#404,#405);
#323=AXIS2_PLACEMENT_3D('',#524,#406,#407);
#324=AXIS2_PLACEMENT_3D('',#526,#408,#409);
#325=AXIS2_PLACEMENT_3D('',#529,#411,#412);
#326=AXIS2_PLACEMENT_3D('',#530,#413,#414);
#327=AXIS2_PLACEMENT_3D('',#531,#415,#416);
#328=AXIS2_PLACEMENT_3D('',#533,#418,#419);
#329=DIRECTION('axis',(0.,0.,1.));
#330=DIRECTION('refdir',(1.,0.,0.));
#331=DIRECTION('center_axis',(0.,-1.,0.));
#332=DIRECTION('ref_axis',(1.,0.,0.));
#333=DIRECTION('center_axis',(0.,-1.,0.));
#334=DIRECTION('ref_axis',(-1.,0.,0.));
#335=DIRECTION('center_axis',(0.,-1.,0.));
#336=DIRECTION('ref_axis',(-1.,0.,0.));
#337=DIRECTION('',(0.707106781186546,0.707106781186549,8.65956056235491E-17));
#338=DIRECTION('center_axis',(0.,-1.,0.));
#339=DIRECTION('ref_axis',(1.,0.,0.));
#340=DIRECTION('center_axis',(0.,-1.,0.));
#341=DIRECTION('ref_axis',(1.,0.,0.));
#342=DIRECTION('center_axis',(0.,1.,0.));
#343=DIRECTION('ref_axis',(-1.,0.,0.));
#344=DIRECTION('center_axis',(0.,1.,0.));
#345=DIRECTION('ref_axis',(1.,0.,0.));
#346=DIRECTION('center_axis',(0.,1.,0.));
#347=DIRECTION('ref_axis',(1.,0.,0.));
#348=DIRECTION('',(0.,-1.,0.));
#349=DIRECTION('center_axis',(0.,1.,0.));
#350=DIRECTION('ref_axis',(-1.,0.,0.));
#351=DIRECTION('center_axis',(0.,-1.,0.));
#352=DIRECTION('ref_axis',(-1.,0.,0.));
#353=DIRECTION('',(-0.707106781186546,-0.707106781186549,8.65956056235491E-17));
#354=DIRECTION('center_axis',(0.,1.,0.));
#355=DIRECTION('ref_axis',(-1.,0.,0.));
#356=DIRECTION('center_axis',(0.,-1.,0.));
#357=DIRECTION('ref_axis',(-1.,0.,0.));
#358=DIRECTION('center_axis',(0.,-1.,0.));
#359=DIRECTION('ref_axis',(-1.,0.,0.));
#360=DIRECTION('',(0.,1.,0.));
#361=DIRECTION('center_axis',(0.,1.,0.));
#362=DIRECTION('ref_axis',(0.,0.,1.));
#363=DIRECTION('center_axis',(0.,-1.,0.));
#364=DIRECTION('ref_axis',(1.,0.,-6.12323399573677E-17));
#365=DIRECTION('center_axis',(-1.,0.,1.22464679914735E-16));
#366=DIRECTION('ref_axis',(-1.22464679914735E-16,0.,-1.));
#367=DIRECTION('center_axis',(0.,-1.,0.));
#368=DIRECTION('ref_axis',(1.,0.,-6.12323399573677E-17));
#369=DIRECTION('center_axis',(0.,-1.,0.));
#370=DIRECTION('ref_axis',(1.,0.,0.));
#371=DIRECTION('center_axis',(0.,1.,0.));
#372=DIRECTION('ref_axis',(1.,0.,-6.12323399573677E-17));
#373=DIRECTION('',(-0.707106781186547,-0.707106781186548,8.65956056235493E-17));
#374=DIRECTION('center_axis',(0.,1.,0.));
#375=DIRECTION('ref_axis',(1.,0.,-6.12323399573677E-17));
#376=DIRECTION('center_axis',(0.,-1.,0.));
#377=DIRECTION('ref_axis',(0.,0.,-1.));
#378=DIRECTION('center_axis',(-1.,0.,-1.22464679914735E-16));
#379=DIRECTION('ref_axis',(-1.22464679914735E-16,0.,1.));
#380=DIRECTION('center_axis',(0.,-1.,0.));
#381=DIRECTION('ref_axis',(1.,0.,0.));
#382=DIRECTION('center_axis',(0.,1.,0.));
#383=DIRECTION('ref_axis',(0.,0.,1.));
#384=DIRECTION('center_axis',(0.,-1.,0.));
#385=DIRECTION('ref_axis',(1.,0.,0.));
#386=DIRECTION('center_axis',(-1.,0.,1.22464679914735E-16));
#387=DIRECTION('ref_axis',(5.1026949964473E-17,0.,1.));
#388=DIRECTION('center_axis',(-1.,0.,1.22464679914735E-16));
#389=DIRECTION('ref_axis',(1.22464679914735E-16,0.,1.));
#390=DIRECTION('',(-0.707106781186548,8.65956056235493E-17,-0.707106781186547));
#391=DIRECTION('center_axis',(1.,0.,-1.22464679914735E-16));
#392=DIRECTION('ref_axis',(0.,0.,1.));
#393=DIRECTION('center_axis',(1.,0.,-1.22464679914735E-16));
#394=DIRECTION('ref_axis',(0.,0.,1.));
#395=DIRECTION('center_axis',(1.,0.,-1.22464679914735E-16));
#396=DIRECTION('ref_axis',(0.,0.,-1.));
#397=DIRECTION('',(-1.,0.,1.22464679914735E-16));
#398=DIRECTION('center_axis',(1.,0.,-1.22464679914735E-16));
#399=DIRECTION('ref_axis',(-1.22464679914735E-16,0.,-1.));
#400=DIRECTION('center_axis',(0.,1.,0.));
#401=DIRECTION('ref_axis',(1.,0.,0.));
#402=DIRECTION('',(0.,-1.,0.));
#403=DIRECTION('',(0.,-1.,0.));
#404=DIRECTION('center_axis',(0.,1.,0.));
#405=DIRECTION('ref_axis',(1.,0.,0.));
#406=DIRECTION('center_axis',(0.,-1.,0.));
#407=DIRECTION('ref_axis',(1.,0.,0.));
#408=DIRECTION('center_axis',(0.,1.,0.));
#409=DIRECTION('ref_axis',(1.,0.,0.));
#410=DIRECTION('',(0.,1.,0.));
#411=DIRECTION('center_axis',(0.,1.,0.));
#412=DIRECTION('ref_axis',(1.,0.,0.));
#413=DIRECTION('center_axis',(0.,1.,0.));
#414=DIRECTION('ref_axis',(0.,0.,1.));
#415=DIRECTION('center_axis',(0.,-1.,0.));
#416=DIRECTION('ref_axis',(-1.,0.,0.));
#417=DIRECTION('',(0.,1.,0.));
#418=DIRECTION('center_axis',(0.,1.,0.));
#419=DIRECTION('ref_axis',(0.,0.,1.));
#420=CARTESIAN_POINT('',(0.,0.,0.));
#421=CARTESIAN_POINT('Origin',(0.,-0.383858267716535,0.));
#422=CARTESIAN_POINT('',(1.13188976377953,-0.393700787401575,1.38616517620025E-16));
#423=CARTESIAN_POINT('',(-1.13188976377953,-0.393700787401575,-1.38616517620025E-16));
#424=CARTESIAN_POINT('Origin',(0.,-0.393700787401575,0.));
#425=CARTESIAN_POINT('Origin',(0.,-0.393700787401575,0.));
#426=CARTESIAN_POINT('',(-1.11220472440945,-0.374015748031496,-1.3620579557446E-16));
#427=CARTESIAN_POINT('',(-1.12204724409449,-0.383858267716535,-1.37411156597242E-16));
#428=CARTESIAN_POINT('',(1.11220472440945,-0.374015748031496,-1.3620579557446E-16));
#429=CARTESIAN_POINT('Origin',(0.,-0.374015748031496,0.));
#430=CARTESIAN_POINT('Origin',(0.,-0.374015748031496,0.));
#431=CARTESIAN_POINT('Origin',(0.,0.,0.));
#432=CARTESIAN_POINT('',(-1.3620579557446E-16,0.0919240921049379,-1.11220472440945));
#433=CARTESIAN_POINT('',(1.11220472440945,0.0919240921049379,-1.3620579557446E-16));
#434=CARTESIAN_POINT('Origin',(0.,0.0919240921049379,0.));
#435=CARTESIAN_POINT('Origin',(0.,0.0919240921049379,0.));
#436=CARTESIAN_POINT('',(1.11220472440945,0.,-1.3620579557446E-16));
#437=CARTESIAN_POINT('Origin',(0.,-0.43503937007874,0.));
#438=CARTESIAN_POINT('',(1.13188976377953,-0.425196850393701,1.38616517620025E-16));
#439=CARTESIAN_POINT('Origin',(0.,-0.425196850393701,0.));
#440=CARTESIAN_POINT('',(1.11220472440945,-0.44488188976378,-1.3620579557446E-16));
#441=CARTESIAN_POINT('',(1.12204724409449,-0.43503937007874,-1.37411156597242E-16));
#442=CARTESIAN_POINT('Origin',(0.,-0.44488188976378,0.));
#443=CARTESIAN_POINT('Origin',(0.,0.,0.));
#444=CARTESIAN_POINT('',(1.11220472440945,-0.818897637795276,1.3620579557446E-16));
#445=CARTESIAN_POINT('Origin',(0.,-0.818897637795276,0.));
#446=CARTESIAN_POINT('',(1.11220472440945,0.,1.3620579557446E-16));
#447=CARTESIAN_POINT('Origin',(0.,0.0919240921049379,0.));
#448=CARTESIAN_POINT('',(-1.07559307205777,0.180312439753256,0.));
#449=CARTESIAN_POINT('',(-1.31722161288061E-16,0.180312439753256,-1.07559307205777));
#450=CARTESIAN_POINT('Origin',(0.,0.180312439753256,6.58610806440307E-17));
#451=CARTESIAN_POINT('Origin',(-1.20897710585118E-16,0.0919240921049379,
-0.987204724409449));
#452=CARTESIAN_POINT('Origin',(0.,0.180312439753256,6.58610806440307E-17));
#453=CARTESIAN_POINT('Origin',(0.,0.268700787401575,0.));
#454=CARTESIAN_POINT('',(-0.89881637676113,0.357089135049893,2.20146519764348E-16));
#455=CARTESIAN_POINT('',(-1.10073259882174E-16,0.357089135049893,0.89881637676113));
#456=CARTESIAN_POINT('Origin',(0.,0.357089135049893,5.5036629941087E-17));
#457=CARTESIAN_POINT('',(-0.987204724409449,0.268700787401575,1.20897710585118E-16));
#458=CARTESIAN_POINT('Origin',(0.,0.357089135049893,5.5036629941087E-17));
#459=CARTESIAN_POINT('Origin',(0.,0.268700787401575,0.));
#460=CARTESIAN_POINT('',(-9.92488091792303E-17,0.393700787401575,0.810428029112812));
#461=CARTESIAN_POINT('Origin',(-9.92488091792303E-17,0.268700787401575,
0.810428029112812));
#462=CARTESIAN_POINT('Origin',(0.,0.393700787401575,0.));
#463=CARTESIAN_POINT('Origin',(0.,0.393700787401575,0.));
#464=CARTESIAN_POINT('',(-0.637795275590551,0.393700787401575,7.81073942763272E-17));
#465=CARTESIAN_POINT('Origin',(0.,0.393700787401575,0.));
#466=CARTESIAN_POINT('Origin',(-0.590551181102362,0.,-1.92857763645251E-18));
#467=CARTESIAN_POINT('',(-0.582677165354331,-4.82144409113131E-18,-0.0393700787401575));
#468=CARTESIAN_POINT('Origin',(-0.582677165354331,0.,-2.89286645467877E-18));
#469=CARTESIAN_POINT('',(-0.598425196850394,6.75002172758384E-18,-0.0551181102362205));
#470=CARTESIAN_POINT('',(-0.590551181102362,5.78573290935757E-18,-0.047244094488189));
#471=CARTESIAN_POINT('',(-0.598425196850394,-6.75002172758384E-18,0.0551181102362205));
#472=CARTESIAN_POINT('Origin',(-0.598425196850394,0.,-9.64288818226244E-19));
#473=CARTESIAN_POINT('Origin',(-0.598425196850394,0.,-9.64288818226244E-19));
#474=CARTESIAN_POINT('Origin',(-0.610236220472441,0.,4.8214440911315E-19));
#475=CARTESIAN_POINT('',(-0.635409165412032,-1.32612486854372E-18,0.0551181102362205));
#476=CARTESIAN_POINT('',(-0.610236220472441,-6.75002172758384E-18,0.0551181102362205));
#477=CARTESIAN_POINT('',(-0.637795275590551,-0.0551181102362205,7.8107394276327E-17));
#478=CARTESIAN_POINT('Ctrl Pts',(-0.637795275590551,-0.0551181102362205,
2.73184799366426E-18));
#479=CARTESIAN_POINT('Ctrl Pts',(-0.637795275590551,-0.0551181102362205,
0.00692445328453773));
#480=CARTESIAN_POINT('Ctrl Pts',(-0.637670948969585,-0.0537335498482447,
0.0143081051114526));
#481=CARTESIAN_POINT('Ctrl Pts',(-0.637221525991325,-0.048107467200366,
0.0278870551626024));
#482=CARTESIAN_POINT('Ctrl Pts',(-0.636902822936456,-0.0438661357429716,
0.0340826432854667));
#483=CARTESIAN_POINT('Ctrl Pts',(-0.636303853399363,-0.0340826340205134,
0.0438661450079249));
#484=CARTESIAN_POINT('Ctrl Pts',(-0.635984629454945,-0.0278870499837331,
0.048107469268201));
#485=CARTESIAN_POINT('Ctrl Pts',(-0.635534014443157,-0.0143081135070069,
0.0537335464476604));
#486=CARTESIAN_POINT('Ctrl Pts',(-0.635409165412032,-0.00692446639943233,
0.0551181102362205));
#487=CARTESIAN_POINT('Ctrl Pts',(-0.635409165412032,1.36592399683213E-18,
0.0551181102362205));
#488=CARTESIAN_POINT('',(-0.637795275590551,0.0551181102362205,7.8107394276327E-17));
#489=CARTESIAN_POINT('Ctrl Pts',(-0.637795275590551,0.0551181102362205,
8.19554398099279E-18));
#490=CARTESIAN_POINT('Ctrl Pts',(-0.637795275590551,0.0551181102362205,
-0.00692445328453772));
#491=CARTESIAN_POINT('Ctrl Pts',(-0.637670948969585,0.0537335498482447,
-0.0143081051114526));
#492=CARTESIAN_POINT('Ctrl Pts',(-0.637221525991325,0.048107467200366,-0.0278870551626024));
#493=CARTESIAN_POINT('Ctrl Pts',(-0.636902822936455,0.0438661357429717,
-0.0340826432854667));
#494=CARTESIAN_POINT('Ctrl Pts',(-0.636303853399362,0.0340826340205134,
-0.0438661450079249));
#495=CARTESIAN_POINT('Ctrl Pts',(-0.635984629454945,0.0278870499837331,
-0.048107469268201));
#496=CARTESIAN_POINT('Ctrl Pts',(-0.635534014443157,0.0143081135070069,
-0.0537335464476604));
#497=CARTESIAN_POINT('Ctrl Pts',(-0.635409165412032,0.00692446639943233,
-0.0551181102362205));
#498=CARTESIAN_POINT('Ctrl Pts',(-0.635409165412032,0.,-0.0551181102362205));
#499=CARTESIAN_POINT('Ctrl Pts',(-0.635409165412032,-0.00692446639943233,
-0.0551181102362205));
#500=CARTESIAN_POINT('Ctrl Pts',(-0.635534014443157,-0.0143081135070069,
-0.0537335464476604));
#501=CARTESIAN_POINT('Ctrl Pts',(-0.635984629454945,-0.0278870499837331,
-0.048107469268201));
#502=CARTESIAN_POINT('Ctrl Pts',(-0.636303853399362,-0.0340826340205134,
-0.0438661450079249));
#503=CARTESIAN_POINT('Ctrl Pts',(-0.636902822936455,-0.0438661357429716,
-0.0340826432854667));
#504=CARTESIAN_POINT('Ctrl Pts',(-0.637221525991325,-0.048107467200366,
-0.0278870551626024));
#505=CARTESIAN_POINT('Ctrl Pts',(-0.637670948969585,-0.0537335498482447,
-0.0143081051114526));
#506=CARTESIAN_POINT('Ctrl Pts',(-0.637795275590551,-0.0551181102362205,
-0.00692445328453772));
#507=CARTESIAN_POINT('Ctrl Pts',(-0.637795275590551,-0.0551181102362205,
0.));
#508=CARTESIAN_POINT('Ctrl Pts',(-0.635409165412032,4.09777199049639E-18,
0.0551181102362205));
#509=CARTESIAN_POINT('Ctrl Pts',(-0.635409165412032,0.00692446639943233,
0.0551181102362205));
#510=CARTESIAN_POINT('Ctrl Pts',(-0.635534014443157,0.0143081135070069,
0.0537335464476604));
#511=CARTESIAN_POINT('Ctrl Pts',(-0.635984629454945,0.0278870499837331,
0.048107469268201));
#512=CARTESIAN_POINT('Ctrl Pts',(-0.636303853399363,0.0340826340205134,
0.0438661450079249));
#513=CARTESIAN_POINT('Ctrl Pts',(-0.636902822936456,0.0438661357429716,
0.0340826432854667));
#514=CARTESIAN_POINT('Ctrl Pts',(-0.637221525991325,0.048107467200366,0.0278870551626024));
#515=CARTESIAN_POINT('Ctrl Pts',(-0.637670948969585,0.0537335498482447,
0.0143081051114527));
#516=CARTESIAN_POINT('Ctrl Pts',(-0.637795275590551,0.0551181102362205,
0.00692445328453774));
#517=CARTESIAN_POINT('Ctrl Pts',(-0.637795275590551,0.0551181102362205,
1.36592399683213E-17));
#518=CARTESIAN_POINT('Origin',(-0.582677165354331,0.,0.));
#519=CARTESIAN_POINT('Origin',(0.,0.,0.));
#520=CARTESIAN_POINT('',(-0.637795275590551,0.,7.81073942763272E-17));
#521=CARTESIAN_POINT('',(-0.637795275590551,-0.425196850393701,7.81073942763272E-17));
#522=CARTESIAN_POINT('',(-0.637795275590551,0.,7.81073942763272E-17));
#523=CARTESIAN_POINT('Origin',(0.,-0.425196850393701,0.));
#524=CARTESIAN_POINT('Origin',(0.,0.,0.));
#525=CARTESIAN_POINT('',(-0.433070866141732,-0.818897637795276,5.30358850024444E-17));
#526=CARTESIAN_POINT('Origin',(0.,-0.818897637795276,0.));
#527=CARTESIAN_POINT('',(-0.433070866141732,-0.425196850393701,5.30358850024444E-17));
#528=CARTESIAN_POINT('',(-0.433070866141732,0.,-5.30358850024444E-17));
#529=CARTESIAN_POINT('Origin',(0.,-0.425196850393701,0.));
#530=CARTESIAN_POINT('Origin',(0.,-0.425196850393701,0.));
#531=CARTESIAN_POINT('Origin',(0.,0.,0.));
#532=CARTESIAN_POINT('',(1.13188976377953,0.,1.38616517620025E-16));
#533=CARTESIAN_POINT('Origin',(0.,-0.818897637795276,0.));
#534=UNCERTAINTY_MEASURE_WITH_UNIT(LENGTH_MEASURE(0.000393700787401575),
#540,'DISTANCE_ACCURACY_VALUE',
'Maximum model space distance between geometric entities at asserted c
onnectivities');
#535=UNCERTAINTY_MEASURE_WITH_UNIT(LENGTH_MEASURE(0.000393700787401575),
#540,'DISTANCE_ACCURACY_VALUE',
'Maximum model space distance between geometric entities at asserted c
onnectivities');
#536=(
GEOMETRIC_REPRESENTATION_CONTEXT(3)
GLOBAL_UNCERTAINTY_ASSIGNED_CONTEXT((#534))
GLOBAL_UNIT_ASSIGNED_CONTEXT((#540,#544,#545))
REPRESENTATION_CONTEXT('','3D')
);
#537=(
GEOMETRIC_REPRESENTATION_CONTEXT(3)
GLOBAL_UNCERTAINTY_ASSIGNED_CONTEXT((#535))
GLOBAL_UNIT_ASSIGNED_CONTEXT((#540,#544,#545))
REPRESENTATION_CONTEXT('','3D')
);
#538=DIMENSIONAL_EXPONENTS(1.,0.,0.,0.,0.,0.,0.);
#539=DIMENSIONAL_EXPONENTS(0.,1.,0.,0.,0.,0.,0.);
#540=(
CONVERSION_BASED_UNIT('inch',#543)
LENGTH_UNIT()
NAMED_UNIT(#538)
);
#541=(
LENGTH_UNIT()
NAMED_UNIT(*)
SI_UNIT(.MILLI.,.METRE.)
);
#542=(
LENGTH_UNIT()
NAMED_UNIT(*)
SI_UNIT(.CENTI.,.METRE.)
);
#543=LENGTH_MEASURE_WITH_UNIT(LENGTH_MEASURE(25.4),#541);
#544=(
NAMED_UNIT(*)
PLANE_ANGLE_UNIT()
SI_UNIT($,.RADIAN.)
);
#545=(
NAMED_UNIT(*)
SI_UNIT($,.STERADIAN.)
SOLID_ANGLE_UNIT()
);
#546=SHAPE_DEFINITION_REPRESENTATION(#547,#548);
#547=PRODUCT_DEFINITION_SHAPE('',$,#550);
#548=SHAPE_REPRESENTATION('',(#289),#536);
#549=PRODUCT_DEFINITION_CONTEXT('part definition',#554,'design');
#550=PRODUCT_DEFINITION('Cyclone Hose Adapter','Cyclone Hose Adapter',#551,
#549);
#551=PRODUCT_DEFINITION_FORMATION('',$,#556);
#552=PRODUCT_RELATED_PRODUCT_CATEGORY('Cyclone Hose Adapter',
'Cyclone Hose Adapter',(#556));
#553=APPLICATION_PROTOCOL_DEFINITION('international standard',
'automotive_design',2009,#554);
#554=APPLICATION_CONTEXT(
'Core Data for Automotive Mechanical Design Process');
#555=PRODUCT_CONTEXT('part definition',#554,'mechanical');
#556=PRODUCT('Cyclone Hose Adapter','Cyclone Hose Adapter',$,(#555));
#557=PRESENTATION_STYLE_ASSIGNMENT((#558));
#558=SURFACE_STYLE_USAGE(.BOTH.,#561);
#559=SURFACE_STYLE_RENDERING_WITH_PROPERTIES($,#565,(#560));
#560=SURFACE_STYLE_TRANSPARENT(0.);
#561=SURFACE_SIDE_STYLE('',(#562,#559));
#562=SURFACE_STYLE_FILL_AREA(#563);
#563=FILL_AREA_STYLE('',(#564));
#564=FILL_AREA_STYLE_COLOUR('',#565);
#565=COLOUR_RGB('',0.749019607843137,0.749019607843137,0.749019607843137);
ENDSEC;
END-ISO-10303-21;
