0
SECTION
2
HEADER
9
$INSUNITS
70
4
9
$ACADVER
1
AC1014
9
$HANDSEED
5
FFFF
0
ENDSEC
0
SECTION
2
TABLES
0
TABLE
2
VPORT
5
8
100
AcDbSymbolTable
0
ENDTAB
0
TABLE
2
LTYPE
5
5
100
AcDbSymbolTable
0
LTYPE
5
14
100
AcDbSymbolTableRecord
100
AcDbLinetypeTableRecord
2
BYBLOCK
70
0
0
LTYPE
5
15
100
AcDbSymbolTableRecord
100
AcDbLinetypeTableRecord
2
BYLAYER
70
0
0
LTYPE
5
16
100
AcDbSymbolTableRecord
100
AcDbLinetypeTableRecord
2
DASHED
70
0
3
Dashed __ __ __ __ __ __ __ __ __ __ __ __ __ _
72
65
73
2
40
0.75
49
0.5
74
0
49
-0.25
74
0
0
ENDTAB
0
TABLE
2
LAYER
5
2
100
AcDbSymbolTable
70
2
0
LAYER
5
50
100
AcDbSymbolTableRecord
100
AcDbLayerTableRecord
2
0
70
0
62
7
6
CONTINUOUS
0
ENDTAB
0
TABLE
2
STYLE
5
3
100
AcDbSymbolTable
70
1
0
STYLE
5
11
100
AcDbSymbolTableRecord
100
AcDbTextStyleTableRecord
2
STANDARD
70
0
0
ENDTAB
0
TABLE
2
VIEW
5
6
100
AcDbSymbolTable
70
0
0
ENDTAB
0
TABLE
2
UCS
5
7
100
AcDbSymbolTable
70
0
0
ENDTAB
0
TABLE
2
APPID
5
9
100
AcDbSymbolTable
70
2
0
APPID
5
12
100
AcDbSymbolTableRecord
100
AcDbRegAppTableRecord
2
ACAD
70
0
0
ENDTAB
0
TABLE
2
DIMSTYLE
5
A
100
AcDbSymbolTable
70
1
0
ENDTAB
0
TABLE
2
BLOCK_RECORD
5
1
100
AcDbSymbolTable
70
1
0
BLOCK_RECORD
5
1F
100
AcDbSymbolTableRecord
100
AcDbBlockTableRecord
2
*MODEL_SPACE
0
BLOCK_RECORD
5
1B
100
AcDbSymbolTableRecord
100
AcDbBlockTableRecord
2
*PAPER_SPACE
0
ENDTAB
0
ENDSEC
0
SECTION
2
BLOCKS
0
BLOCK
5
20
100
AcDbEntity
100
AcDbBlockBegin
2
*MODEL_SPACE
0
ENDBLK
5
21
100
AcDbEntity
100
AcDbBlockEnd
0
BLOCK
5
1C
100
AcDbEntity
100
AcDbBlockBegin
2
*PAPER_SPACE
0
ENDBLK
5
1D
100
AcDbEntity
100
AcDbBlockEnd
0
ENDSEC
0
SECTION
2
ENTITIES
0
CIRCLE
5
100
100
AcDbEntity
8
0
100
AcDbCircle
10
-62.855164718408325
20
-14.584579311421139
30
0
40
1.2192000000000001
210
0
220
0
230
1
0
CIRCLE
5
101
100
AcDbEntity
8
0
100
AcDbCircle
10
8.894835281591682
20
-14.584579311421136
30
0
40
1.2192000000000001
210
0
220
0
230
1
0
CIRCLE
5
102
100
AcDbEntity
8
0
100
AcDbCircle
10
88.714644467181245
20
-90.221912435383842
30
0
40
1.63195
210
0
220
0
230
1
0
CIRCLE
5
103
100
AcDbEntity
8
0
100
AcDbCircle
10
84.398208596225572
20
82.180641912333897
30
0
40
1.63195
210
0
220
0
230
1
0
CIRCLE
5
104
100
AcDbEntity
8
0
100
AcDbCircle
10
-99.52935534599446
20
82.353305676685125
30
0
40
1.63195
210
0
220
0
230
1
0
CIRCLE
5
105
100
AcDbEntity
8
0
100
AcDbCircle
10
-62.456998842139988
20
-71.126778248851537
30
0
40
1.63195
210
0
220
0
230
1
0
CIRCLE
5
106
100
AcDbEntity
8
0
100
AcDbCircle
10
-99.800191486873103
20
2.1103435731324258
30
0
40
1.63195
210
0
220
0
230
1
0
CIRCLE
5
107
100
AcDbEntity
8
0
100
AcDbCircle
10
32.463200957877291
20
80.316632800360296
30
0
40
1.63195
210
0
220
0
230
1
0
CIRCLE
5
108
100
AcDbEntity
8
0
100
AcDbCircle
10
89.587396139925147
20
-20.482441274608753
30
0
40
1.63195
210
0
220
0
230
1
0
CIRCLE
5
109
100
AcDbEntity
8
0
100
AcDbCircle
10
9.0563873681776546
20
-28.851695376475504
30
0
40
1.63195
210
0
220
0
230
1
0
SPLINE
5
110
100
AcDbEntity
8
0
100
AcDbSpline
70
0
71
3
72
14
73
10
74
0
42
0.000000001
43
0.0000000001
44
0.0000000001
40
0
40
0
40
0
40
0
40
0.29298335504019168
40
0.29298335504019168
40
0.58596671008038781
40
0.58596671008038781
40
0.77113704037883779
40
0.77113704037883779
40
0.95630737067728422
40
0.95630737067728422
40
0.95630737067728422
40
0.95630737067728422
10
-107.01097313900233
20
84.360428122956378
30
0
10
-106.72348837094098
20
85.293767242358385
30
0
10
-106.25645022955852
20
86.162030963156738
30
0
10
-105.01584355321296
20
87.670663684961653
30
0
10
-104.25413589425858
20
88.296609334879363
30
0
10
-102.85021366316791
20
89.051159679399348
30
0
10
-102.2725302994388
20
89.275137219193823
30
0
10
-101.07540111973552
20
89.576459496472793
30
0
10
-100.46052045893305
20
89.6526551658568
30
0
10
-99.843286024604907
20
89.6526551658568
30
0
0
SPLINE
5
111
100
AcDbEntity
8
0
100
AcDbSpline
70
4
71
5
72
40
73
34
74
0
42
0.000000001
43
0.0000000001
44
0.0000000001
40
0.046712756830690254
40
0.046712756830690254
40
0.046712756830690254
40
0.046712756830690254
40
0.046712756830690254
40
0.046712756830690254
40
0.066666666666666666
40
0.10000000000000001
40
0.13333333333333333
40
0.16666666666666666
40
0.19999999999999998
40
0.23333333333333331
40
0.26666666666666666
40
0.29999999999999999
40
0.33333333333333331
40
0.36666666666666664
40
0.39999999999999997
40
0.43333333333333329
40
0.46666666666666662
40
0.49999999999999994
40
0.53333333333333333
40
0.56666666666666665
40
0.59999999999999998
40
0.6333333333333333
40
0.66666666666666663
40
0.69999999999999996
40
0.73333333333333328
40
0.76666666666666661
40
0.79999999999999993
40
0.83333333333333326
40
0.86666666666666659
40
0.89999999999999991
40
0.93333333333333324
40
0.96666666666666656
40
0.99220851701568979
40
0.99220851701568979
40
0.99220851701568979
40
0.99220851701568979
40
0.99220851701568979
40
0.99220851701568979
41
1
41
1
41
1
41
1
41
1
41
1
41
1
41
1
41
1
41
1
41
1
41
1
41
1
41
1
41
1
41
1
41
1
41
1
41
1
41
1
41
1
41
1
41
1
41
1
41
1
41
1
41
1
41
1
41
1
41
1
41
1
41
1
41
1
41
1
10
-107.01097313900236
20
84.360428122956264
30
0
10
-107.16966501092236
20
83.845224020169042
30
0
10
-107.61145592533299
20
82.421450742657427
30
0
10
-108.40433928308173
20
79.883279777460046
30
0
10
-109.61387758816933
20
75.802659359336658
30
0
10
-111.03713776208728
20
69.664932385015945
30
0
10
-112.03743729154834
20
62.466638066653523
30
0
10
-112.54437843852511
20
55.841425409026719
30
0
10
-112.64411281029668
20
49.77966481932836
30
0
10
-112.46155724739151
20
43.84311370335336
30
0
10
-112.09598928216877
20
37.458385406768478
30
0
10
-111.60294980177801
20
30.198486787938567
30
0
10
-110.90767714494166
20
22.457819845175383
30
0
10
-109.92292484200794
20
14.554942131866024
30
0
10
-108.5899377344429
20
6.5350964780046272
30
0
10
-106.86876921452317
20
-1.6161404164553943
30
0
10
-104.75007574260991
20
-9.9369831565816327
30
0
10
-102.25862494181962
20
-18.373589098932875
30
0
10
-99.459100469642138
20
-26.707568982050201
30
0
10
-96.46706077821527
20
-34.424970463491157
30
0
10
-93.359579898308752
20
-41.418824790087037
30
0
10
-90.194279681418266
20
-47.746501587151329
30
0
10
-87.00551159895889
20
-53.540645981712956
30
0
10
-83.817642565323936
20
-58.893869844625755
30
0
10
-80.631600256644035
20
-63.682960051660224
30
0
10
-77.46764366190672
20
-67.571464116535907
30
0
10
-74.372133306612312
20
-70.865295183177622
30
0
10
-71.301641609178304
20
-73.902284081896312
30
0
10
-67.865160020953994
20
-76.730230858731773
30
0
10
-63.695053040545382
20
-78.740522597312776
30
0
10
-60.174439869771696
20
-79.801690434663413
30
0
10
-57.726914493588176
20
-80.308301869101996
30
0
10
-56.267993880646415
20
-80.527718464074511
30
0
10
-55.656107550195173
20
-80.603535962547767
30
0
0
SPLINE
5
112
100
AcDbEntity
8
0
100
AcDbSpline
70
0
71
3
72
16
73
12
74
0
42
0.000000001
43
0.0000000001
44
0.0000000001
40
0
40
0
40
0
40
0
40
0.031251557870953919
40
0.031251557870953919
40
0.062503115741906062
40
0.062503115741906062
40
0.093754673612860565
40
0.093754673612860565
40
0.11548880226358448
40
0.11548880226358448
40
0.13722293091430909
40
0.13722293091430909
40
0.13722293091430909
40
0.13722293091430909
10
-54.757845178021441
20
-79.796246319247999
30
0
10
-54.756105367462212
20
-79.900403649213104
30
0
10
-54.774726433097015
20
-80.003905002023444
30
0
10
-54.850594068858683
20
-80.197944191747808
30
0
10
-54.907115303036633
20
-80.286626908248536
30
0
10
-55.050969782408991
20
-80.437335216146494
30
0
10
-55.136927700373846
20
-80.497919953977856
30
0
10
-55.298250955915265
20
-80.569816146591492
30
0
10
-55.368124327132179
20
-80.590182126736053
30
0
10
-55.511434916461511
20
-80.611545683860783
30
0
10
-55.584210277047092
20
-80.612444596596021
30
0
10
-55.656107550195166
20
-80.603535962547724
30
0
0
LINE
5
113
100
AcDbEntity
8
0
100
AcDbLine
10
-54.757845178021441
20
-79.796246319247999
30
0
11
-55.502796602586464
21
-35.198200328025607
31
0
0
ARC
5
114
100
AcDbEntity
8
0
100
AcDbCircle
10
-49.503633466100908
20
-35.097992235375038
30
0
40
6.0000000000000009
210
0
220
0
230
1
100
AcDbArc
50
90.000000000000142
51
180.95696128884617
0
LINE
5
115
100
AcDbEntity
8
0
100
AcDbLine
10
-49.503633466100922
20
-29.097992235375038
30
0
11
-3.9559784593875591
21
-29.097992235374988
31
0
0
ARC
5
116
100
AcDbEntity
8
0
100
AcDbCircle
10
-3.9559784593875502
20
-35.097992235374988
30
0
40
6
210
-0
220
0
230
1
100
AcDbArc
50
-1.3744988767832451
51
90.000000000000099
0
LINE
5
117
100
AcDbEntity
8
0
100
AcDbLine
10
2.0422951306224935
20
-35.241915615643862
30
0
11
1.7789043225357259
21
-46.21921565575424
31
0
0
SPLINE
5
118
100
AcDbEntity
8
0
100
AcDbSpline
70
4
71
5
72
186
73
180
74
0
42
0.000000001
43
0.0000000001
44
0.0000000001
40
0
40
0
40
0
40
0
40
0
40
0
40
0.0057142857142857143
40
0.011428571428571429
40
0.017142857142857144
40
0.022857142857142857
40
0.028571428571428571
40
0.034285714285714287
40
0.040000000000000001
40
0.045714285714285714
40
0.051428571428571428
40
0.057142857142857141
40
0.062857142857142861
40
0.068571428571428575
40
0.074285714285714288
40
0.080000000000000002
40
0.085714285714285715
40
0.091428571428571428
40
0.097142857142857142
40
0.10285714285714286
40
0.10857142857142857
40
0.11428571428571428
40
0.12
40
0.12571428571428572
40
0.13142857142857145
40
0.13714285714285718
40
0.1428571428571429
40
0.14857142857142863
40
0.15428571428571436
40
0.16000000000000009
40
0.16571428571428581
40
0.17142857142857154
40
0.17714285714285727
40
0.182857142857143
40
0.18857142857142872
40
0.19428571428571445
40
0.20000000000000018
40
0.2057142857142859
40
0.21142857142857163
40
0.21714285714285736
40
0.22285714285714309
40
0.22857142857142881
40
0.23428571428571454
40
0.24000000000000027
40
0.245714285714286
40
0.25142857142857172
40
0.25714285714285745
40
0.26285714285714318
40
0.26857142857142891
40
0.27428571428571463
40
0.28000000000000036
40
0.28571428571428609
40
0.29142857142857181
40
0.29714285714285754
40
0.30285714285714327
40
0.308571428571429
40
0.31428571428571472
40
0.32000000000000045
40
0.32571428571428618
40
0.33142857142857191
40
0.33714285714285763
40
0.34285714285714336
40
0.34857142857142909
40
0.35428571428571481
40
0.36000000000000054
40
0.36571428571428627
40
0.371428571428572
40
0.37714285714285772
40
0.38285714285714345
40
0.38857142857142918
40
0.39428571428571491
40
0.40000000000000063
40
0.40571428571428636
40
0.41142857142857209
40
0.41714285714285781
40
0.42285714285714354
40
0.42857142857142927
40
0.434285714285715
40
0.44000000000000072
40
0.44571428571428645
40
0.45142857142857218
40
0.45714285714285791
40
0.46285714285714363
40
0.46857142857142936
40
0.47428571428571509
40
0.48000000000000081
40
0.48571428571428654
40
0.49142857142857227
40
0.497142857142858
40
0.50285714285714367
40
0.50857142857142934
40
0.51428571428571501
40
0.52000000000000068
40
0.52571428571428636
40
0.53142857142857203
40
0.5371428571428577
40
0.54285714285714337
40
0.54857142857142904
40
0.55428571428571471
40
0.56000000000000039
40
0.56571428571428606
40
0.57142857142857173
40
0.5771428571428574
40
0.58285714285714307
40
0.58857142857142875
40
0.59428571428571442
40
0.60000000000000009
40
0.60571428571428576
40
0.61142857142857143
40
0.6171428571428571
40
0.62285714285714278
40
0.62857142857142845
40
0.63428571428571412
40
0.63999999999999979
40
0.64571428571428546
40
0.65142857142857113
40
0.65714285714285681
40
0.66285714285714248
40
0.66857142857142815
40
0.67428571428571382
40
0.67999999999999949
40
0.68571428571428517
40
0.69142857142857084
40
0.69714285714285651
40
0.70285714285714218
40
0.70857142857142785
40
0.71428571428571352
40
0.7199999999999992
40
0.72571428571428487
40
0.73142857142857054
40
0.73714285714285621
40
0.74285714285714188
40
0.74857142857142756
40
0.75428571428571323
40
0.7599999999999989
40
0.76571428571428457
40
0.77142857142857024
40
0.77714285714285591
40
0.78285714285714159
40
0.78857142857142726
40
0.79428571428571293
40
0.7999999999999986
40
0.80571428571428427
40
0.81142857142856994
40
0.81714285714285562
40
0.82285714285714129
40
0.82857142857142696
40
0.83428571428571263
40
0.8399999999999983
40
0.84571428571428398
40
0.85142857142856965
40
0.85714285714285532
40
0.86285714285714099
40
0.86857142857142666
40
0.87428571428571233
40
0.87999999999999801
40
0.88571428571428368
40
0.89142857142856935
40
0.89714285714285502
40
0.90285714285714069
40
0.90857142857142636
40
0.91428571428571204
40
0.91999999999999771
40
0.92571428571428338
40
0.93142857142856905
40
0.93714285714285472
40
0.9428571428571404
40
0.94857142857142607
40
0.95428571428571174
40
0.95999999999999741
40
0.96571428571428308
40
0.97142857142856875
40
0.97714285714285443
40
0.9828571428571401
40
0.98857142857142577
40
0.99428571428571144
40
1
40
1
40
1
40
1
40
1
40
1
41
1
41
1
41
1
41
1
41
1
41
1
41
1
41
1
41
1
41
1
41
1
41
1
41
1
41
1
41
1
41
1
41
1
41
1
41
1
41
1
41
1
41
1
41
1
41
1
41
1
41
1
41
1
41
1
41
1
41
1
41
1
41
1
41
1
41
1
41
1
41
1
41
1
41
1
41
1
41
1
41
1
41
1
41
1
41
1
41
1
41
1
41
1
41
1
41
1
41
1
41
1
41
1
41
1
41
1
41
1
41
1
41
1
41
1
41
1
41
1
41
1
41
1
41
1
41
1
41
1
41
1
41
1
41
1
41
1
41
1
41
1
41
1
41
1
41
1
41
1
41
1
41
1
41
1
41
1
41
1
41
1
41
1
41
1
41
1
41
1
41
1
41
1
41
1
41
1
41
1
41
1
41
1
41
1
41
1
41
1
41
1
41
1
41
1
41
1
41
1
41
1
41
1
41
1
41
1
41
1
41
1
41
1
41
1
41
1
41
1
41
1
41
1
41
1
41
1
41
1
41
1
41
1
41
1
41
1
41
1
41
1
41
1
41
1
41
1
41
1
41
1
41
1
41
1
41
1
41
1
41
1
41
1
41
1
41
1
41
1
41
1
41
1
41
1
41
1
41
1
41
1
41
1
41
1
41
1
41
1
41
1
41
1
41
1
41
1
41
1
41
1
41
1
41
1
41
1
41
1
41
1
41
1
41
1
41
1
41
1
41
1
41
1
41
1
41
1
41
1
41
1
41
1
41
1
41
1
41
1
41
1
41
1
41
1
41
1
41
1
41
1
41
1
41
1
41
1
41
1
10
1.7789043225357257
20
-46.21921565575424
30
0
10
1.8253433139893882
20
-46.110407270880089
30
0
10
1.9340663252467118
20
-45.877756795190628
30
0
10
2.1447019983391997
20
-45.483662203923039
30
0
10
2.5205169498010549
20
-44.868114882503704
30
0
10
3.1421670915960345
20
-43.957170225631728
30
0
10
3.8936105796139446
20
-42.933813945680498
30
0
10
4.7421396382672523
20
-41.843595051256557
30
0
10
5.658488238306405
20
-40.734675634514957
30
0
10
6.6276816612611968
20
-39.647363338117309
30
0
10
7.6625473415245633
20
-38.601158952450909
30
0
10
8.793304077852774
20
-37.601466271489045
30
0
10
10.054763527783336
20
-36.64815743303744
30
0
10
11.475406061568572
20
-35.742716592872227
30
0
10
13.06313868267007
20
-34.897870220372212
30
0
10
14.805589765606131
20
-34.136375965381887
30
0
10
16.677281037860709
20
-33.484745704907276
30
0
10
18.644766237926927
20
-32.968363722928316
30
0
10
20.672322833426996
20
-32.60646288607294
30
0
10
22.728104069972154
20
-32.406103843337341
30
0
10
24.787687614851173
20
-32.360227935542639
30
0
10
26.832748463397106
20
-32.453118227469673
30
0
10
28.850835543994684
20
-32.664105287300735
30
0
10
30.834731386243046
20
-32.97212895644941
30
0
10
32.781930837289494
20
-33.359583197696466
30
0
10
34.694224160102245
20
-33.81736704916829
30
0
10
36.576336236979998
20
-34.344137487635457
30
0
10
38.434201856126762
20
-34.943422089635696
30
0
10
40.273319560524008
20
-35.621384464544285
30
0
10
42.09716596898388
20
-36.384414458782707
30
0
10
43.905360859002862
20
-37.236564117579491
30
0
10
45.692635217509476
20
-38.177765797263035
30
0
10
47.450517692862562
20
-39.204840389213004
30
0
10
49.168553319963955
20
-40.312042621950191
30
0
10
50.835735592201431
20
-41.491772808747726
30
0
10
52.441778538549642
20
-42.735252353206391
30
0
10
53.978630294633739
20
-44.033126334773314
30
0
10
55.441080298426968
20
-45.376500444306771
30
0
10
56.826794429162007
20
-46.758249689310162
30
0
10
58.136537116982112
20
-48.17427795346002
30
0
10
59.374283622837183
20
-49.624725728218735
30
0
10
60.547459049988184
20
-51.115373203248787
30
0
10
61.666890488833353
20
-52.658453251124357
30
0
10
62.744633517509286
20
-54.268899166314448
30
0
10
63.792062882087421
20
-55.961125106235095
30
0
10
64.81775003216012
20
-57.745442060545955
30
0
10
65.825687255215001
20
-59.62499505880033
30
0
10
66.812715299081816
20
-61.591549958285505
30
0
10
67.769485613912877
20
-63.626332378678683
30
0
10
68.683396955178452
20
-65.703657611391264
30
0
10
69.540876575200528
20
-67.793675796262448
30
0
10
70.330033238490458
20
-69.865532329632373
30
0
10
71.042917718862185
20
-71.890234313705562
30
0
10
71.678526470225961
20
-73.843928147270731
30
0
10
72.243315218023753
20
-75.709908873799904
30
0
10
72.748867367876286
20
-77.479105705486575
30
0
10
73.210282461325335
20
-79.151096146476164
30
0
10
73.644312076074655
20
-80.734618049367526
30
0
10
74.067510652802625
20
-82.248983728628104
30
0
10
74.494669342463766
20
-83.723019892473459
30
0
10
74.93858995654432
20
-85.185131325501473
30
0
10
75.409620025751721
20
-86.654393836219285
30
0
10
75.915335240902095
20
-88.131942948011201
30
0
10
76.460018674054396
20
-89.590383855796517
30
0
10
77.045715792199232
20
-90.986039899457424
30
0
10
77.673445857896468
20
-92.27554018924296
30
0
10
78.34446595887411
20
-93.428899278038656
30
0
10
79.061255261382414
20
-94.448909413975755
30
0
10
79.829781626953874
20
-95.362360502806069
30
0
10
80.66179844935796
20
-96.199742295154635
30
0
10
81.578117036445633
20
-96.976627104198428
30
0
10
82.608508568476751
20
-97.680144756692314
30
0
10
83.775475076304687
20
-98.284105659776174
30
0
10
85.082355880434562
20
-98.758799279701634
30
0
10
86.495385072811786
20
-99.084792217894503
30
0
10
87.951832721605655
20
-99.25490114977201
30
0
10
89.379947410736037
20
-99.271800999005592
30
0
10
90.714224663881822
20
-99.146583792265361
30
0
10
91.914896274657934
20
-98.8979094026474
30
0
10
92.971088721598846
20
-98.54556780866902
30
0
10
93.897116504562703
20
-98.103086906548
30
0
10
94.733738407172666
20
-97.568393254386876
30
0
10
95.538343773854052
20
-96.922977697901857
30
0
10
96.364127386032962
20
-96.142681162273306
30
0
10
97.23733407115725
20
-95.206970052930174
30
0
10
98.151537599417907
20
-94.10407981958403
30
0
10
99.082951951050148
20
-92.829920323253873
30
0
10
99.999344039115115
20
-91.388556889949314
30
0
10
100.87326507191042
20
-89.792415454327653
30
0
10
101.68693821114718
20
-88.061203564316912
30
0
10
102.42943857391336
20
-86.218952882360782
30
0
10
103.09583254089416
20
-84.291563707008549
30
0
10
103.68553256140225
20
-82.30417954031347
30
0
10
104.20096903875663
20
-80.278551334478308
30
0
10
104.64618272029472
20
-78.230643922537098
30
0
10
105.02625293204481
20
-76.171649400456744
30
0
10
105.34665583351655
20
-74.108760057326904
30
0
10
105.612631727753
20
-72.04603593353211
30
0
10
105.82859179812158
20
-69.985222510644121
30
0
10
105.99740352667891
20
-67.926610526858099
30
0
10
106.12006123348736
20
-65.869811572530324
30
0
10
106.19646565957717
20
-63.814355582789652
30
0
10
106.22598358046804
20
-61.760286108136455
30
0
10
106.20813225901452
20
-59.708827198585752
30
0
10
106.14312319848122
20
-57.662857480759968
30
0
10
106.03268342930541
20
-55.627870611801214
30
0
10
105.87985716698446
20
-53.611052293606932
30
0
10
105.68793269601062
20
-51.6187199992305
30
0
10
105.45962182272228
20
-49.654243287332349
30
0
10
105.19612142386623
20
-47.715723839017194
30
0
10
104.89625854272843
20
-45.793876966456182
30
0
10
104.55550900464338
20
-43.869555950982814
30
0
10
104.16740990546322
20
-41.918375491865248
30
0
10
103.72506252254124
20
-39.915595821722441
30
0
10
103.22264727838274
20
-37.841067720352555
30
0
10
102.6568321295339
20
-35.683800200348472
30
0
10
102.02847058216504
20
-33.447535721727625
30
0
10
101.34341800731539
20
-31.153267283883331
30
0
10
100.61042352166157
20
-28.831615067298777
30
0
10
99.839484472486646
20
-26.516809287630487
30
0
10
99.040067488577108
20
-24.240204398284146
30
0
10
98.219276663874254
20
-22.023623644834636
30
0
10
97.380300665577423
20
-19.873638041231164
30
0
10
96.520093961246275
20
-17.773270062051928
30
0
10
95.630403699571943
20
-15.684953286443552
30
0
10
94.700872507432067
20
-13.560483506604362
30
0
10
93.721533349309695
20
-11.348910545158933
30
0
10
92.685511693174163
20
-9.0051565078892573
30
0
10
91.591740735718531
20
-6.4986089223766994
30
0
10
90.447433647817718
20
-3.8210557636966174
30
0
10
89.271289345215052
20
-0.99667451968318266
30
0
10
88.090867309906272
20
1.9243890704316911
30
0
10
86.938791422010567
20
4.8757360025537624
30
0
10
85.849378722271837
20
7.7832418499716196
30
0
10
84.855050058942169
20
10.574174741907324
30
0
10
83.982927098768641
20
13.185843067410264
30
0
10
83.251132304506612
20
15.574950415516318
30
0
10
82.665721338433954
20
17.725469466354987
30
0
10
82.216045130904376
20
19.660179425088195
30
0
10
81.87828658323825
20
21.433134271108507
30
0
10
81.622034732104737
20
23.115023571878005
30
0
10
81.416103283250138
20
24.780342540240866
30
0
10
81.234143411160005
20
26.494935297652425
30
0
10
81.061630009175161
20
28.300597123174516
30
0
10
80.896928509726933
20
30.212473747121589
30
0
10
80.747177616774536
20
32.227683811284649
30
0
10
80.625638137693812
20
34.330769071456018
30
0
10
80.54844560486643
20
36.500429600141608
30
0
10
80.531609635780953
20
38.715739573942379
30
0
10
80.587934504123268
20
40.962494920516043
30
0
10
80.726690453079726
20
43.231441825056088
30
0
10
80.953212626764341
20
45.516634962008709
30
0
10
81.268560470773835
20
47.813779726837652
30
0
10
81.669075400499352
20
50.11850473609816
30
0
10
82.146156607272673
20
52.424844628769648
30
0
10
82.685496185767477
20
54.723174620669425
30
0
10
83.268875178090425
20
57.00076223744793
30
0
10
83.877253534154988
20
59.243618079793158
30
0
10
84.49339095660163
20
61.437917064785438
30
0
10
85.104799245959683
20
63.571643199766861
30
0
10
85.706237478236034
20
65.636034177095382
30
0
10
86.303166698339439
20
67.627364644811252
30
0
10
86.91235470388753
20
69.547783258797381
30
0
10
87.554651107144394
20
71.403668988259369
30
0
10
88.249274845751245
20
73.204378337337431
30
0
10
89.007351905011149
20
74.960974757092487
30
0
10
89.826122414506884
20
76.684652917497488
30
0
10
90.681927869893485
20
78.386074692664053
30
0
10
91.530541799825386
20
80.07032081206853
30
0
10
92.311846434611454
20
81.732085641737285
30
0
10
92.94978761130875
20
83.347758221787558
30
0
10
93.361619293614865
20
84.875561402270009
30
0
10
93.445638466953142
20
86.235966138130266
30
0
10
93.138889970416798
20
87.359492126607933
30
0
10
92.432129329369062
20
88.204259470279979
30
0
10
91.536869747609842
20
88.898102153391875
30
0
10
90.726393819131914
20
89.333477924624063
30
0
10
90.034481198508288
20
89.545077442129909
30
0
10
89.529368396034016
20
89.626729068570626
30
0
10
89.265796812079401
20
89.652655165856956
30
0
0
LINE
5
119
100
AcDbEntity
8
0
100
AcDbLine
10
89.265796812079401
20
89.652655165856956
30
0
11
78.976452810622135
21
89.652655165856942
31
0
0
ARC
5
120
100
AcDbEntity
8
0
100
AcDbCircle
10
62.976452810622149
20
89.652655165856956
30
0
40
15.999999999999996
210
0
220
0
230
1
100
AcDbArc
50
180
51
360
0
LINE
5
121
100
AcDbEntity
8
0
100
AcDbLine
10
46.976452810622149
20
89.652655165856942
30
0
11
16.745068894822133
21
89.652655165856942
31
0
0
LINE
5
122
100
AcDbEntity
8
0
100
AcDbLine
10
16.745068894822133
20
89.652655165856942
30
0
11
16.745068894822129
21
80.652655165856942
31
0
0
ARC
5
123
100
AcDbEntity
8
0
100
AcDbCircle
10
11.245068894822126
20
80.652655165856942
30
0
40
5.4999999999999982
210
0
220
0
230
1
100
AcDbArc
50
-90.000000000000099
51
0
0
LINE
5
124
100
AcDbEntity
8
0
100
AcDbLine
10
11.245068894822117
20
75.152655165856942
30
0
11
-64.764281012046681
21
75.152655165856942
31
0
0
ARC
5
125
100
AcDbEntity
8
0
100
AcDbCircle
10
-64.764281012046681
20
80.652655165856942
30
0
40
5.4999999999999982
210
0
220
0
230
1
100
AcDbArc
50
180
51
270
0
LINE
5
126
100
AcDbEntity
8
0
100
AcDbLine
10
-70.264281012046681
20
80.652655165856956
30
0
11
-70.264281012046652
21
89.652655165856942
31
0
0
LINE
5
127
100
AcDbEntity
8
0
100
AcDbLine
10
-70.264281012046652
20
89.652655165856942
30
0
11
-99.843286024604907
21
89.6526551658568
31
0
0
LWPOLYLINE
5
128
100
AcDbEntity
8
0
100
AcDbPolyline
90
4
70
1
43
0.0
10
-52.230164718408325
20
-7.0979922353750364
10
-1.7301647184083166
20
-7.0979922353750347
42
-0.99999999999999989
10
-1.7301647184083193
20
-22.097992235375035
10
-52.230164718408325
20
-22.097992235375035
42
-0.99999999999999989
0
ENDSEC
0
SECTION
2
OBJECTS
0
DICTIONARY
5
C
100
AcDbDictionary
3
ACAD_GROUP
350
D
3
ACAD_MLINESTYLE
350
17
0
DICTIONARY
5
D
100
AcDbDictionary
0
DICTIONARY
5
1A
330
C
100
AcDbDictionary
0
DICTIONARY
5
17
100
AcDbDictionary
0
ENDSEC
0
EOF
