ISO-10303-21;
HEADER;
/* Generated by software containing ST-Developer
 * from STEP Tools, Inc. (www.steptools.com) 
 */

FILE_DESCRIPTION(
/* description */ (''),
/* implementation_level */ '2;1');

FILE_NAME(
/* name */ 'Basic Vacuum Nozzle.stp',
/* time_stamp */ '2026-07-20T21:05:13-04:00',
/* author */ ('JoshuaEah'),
/* organization */ (''),
/* preprocessor_version */ 'ST-DEVELOPER v20.1',
/* originating_system */ 'Autodesk Inventor 2026',
/* authorisation */ '');

FILE_SCHEMA (('AUTOMOTIVE_DESIGN { 1 0 10303 214 3 1 1 }'));
ENDSEC;

DATA;
#10=MECHANICAL_DESIGN_GEOMETRIC_PRESENTATION_REPRESENTATION('',(#13),#1146);
#11=SHAPE_REPRESENTATION_RELATIONSHIP('SRR','None',#1157,#12);
#12=ADVANCED_BREP_SHAPE_REPRESENTATION('',(#14),#1145);
#13=STYLED_ITEM('',(#1166),#14);
#14=MANIFOLD_SOLID_BREP('Solid2',#378);
#15=B_SPLINE_SURFACE_WITH_KNOTS('',3,3,((#740,#741,#742,#743,#744,#745,
#746,#747,#748,#749,#750,#751,#752,#753,#754,#755,#756,#757,#758,#759,#760,
#761,#762,#763,#764),(#765,#766,#767,#768,#769,#770,#771,#772,#773,#774,
#775,#776,#777,#778,#779,#780,#781,#782,#783,#784,#785,#786,#787,#788,#789),
(#790,#791,#792,#793,#794,#795,#796,#797,#798,#799,#800,#801,#802,#803,
#804,#805,#806,#807,#808,#809,#810,#811,#812,#813,#814),(#815,#816,#817,
#818,#819,#820,#821,#822,#823,#824,#825,#826,#827,#828,#829,#830,#831,#832,
#833,#834,#835,#836,#837,#838,#839)),.UNSPECIFIED.,.F.,.T.,.F.,(4,4),(4,
1,2,1,2,2,2,1,1,1,1,1,2,2,2,4),(0.,1.),(0.,0.0565210879409451,0.11304217588189,
0.169563225679896,0.226084275477901,0.282605325275907,0.395647463014857,
0.430973133442213,0.466298803869569,0.501624474296925,0.53695014472428,
0.607601485578992,0.678252826433704,0.734773876231709,0.84781601397066,
0.904337101911605),.UNSPECIFIED.);
#16=B_SPLINE_SURFACE_WITH_KNOTS('',3,3,((#886,#887,#888,#889,#890,#891,
#892,#893,#894,#895,#896,#897,#898,#899,#900,#901,#902,#903,#904,#905,#906,
#907,#908,#909,#910,#911,#912,#913),(#914,#915,#916,#917,#918,#919,#920,
#921,#922,#923,#924,#925,#926,#927,#928,#929,#930,#931,#932,#933,#934,#935,
#936,#937,#938,#939,#940,#941),(#942,#943,#944,#945,#946,#947,#948,#949,
#950,#951,#952,#953,#954,#955,#956,#957,#958,#959,#960,#961,#962,#963,#964,
#965,#966,#967,#968,#969),(#970,#971,#972,#973,#974,#975,#976,#977,#978,
#979,#980,#981,#982,#983,#984,#985,#986,#987,#988,#989,#990,#991,#992,#993,
#994,#995,#996,#997)),.UNSPECIFIED.,.F.,.T.,.F.,(4,4),(4,1,1,1,1,1,1,2,
1,1,1,1,1,1,1,1,1,1,1,1,2,2,4),(0.,1.),(0.,0.0353256656594883,0.0706513313189767,
0.119224121600773,0.141302662637953,0.207538285749494,0.264942492446163,
0.282605325275907,0.298501875299463,0.362088075393689,0.409777725464359,
0.445544963017361,0.481312200570363,0.497208750593919,0.536950125652811,
0.552846675676367,0.600536325747037,0.664122525841263,0.695915625888375,
0.727708725935488,0.791294926029714,0.84781601397066,0.904337101911605),
 .UNSPECIFIED.);
#17=B_SPLINE_SURFACE_WITH_KNOTS('',3,3,((#1041,#1042,#1043,#1044,#1045,
#1046,#1047,#1048,#1049,#1050,#1051,#1052,#1053,#1054,#1055,#1056,#1057,
#1058,#1059,#1060,#1061,#1062,#1063,#1064,#1065),(#1066,#1067,#1068,#1069,
#1070,#1071,#1072,#1073,#1074,#1075,#1076,#1077,#1078,#1079,#1080,#1081,
#1082,#1083,#1084,#1085,#1086,#1087,#1088,#1089,#1090),(#1091,#1092,#1093,
#1094,#1095,#1096,#1097,#1098,#1099,#1100,#1101,#1102,#1103,#1104,#1105,
#1106,#1107,#1108,#1109,#1110,#1111,#1112,#1113,#1114,#1115),(#1116,#1117,
#1118,#1119,#1120,#1121,#1122,#1123,#1124,#1125,#1126,#1127,#1128,#1129,
#1130,#1131,#1132,#1133,#1134,#1135,#1136,#1137,#1138,#1139,#1140)),
 .UNSPECIFIED.,.F.,.T.,.F.,(4,4),(4,2,1,1,1,1,1,1,1,1,1,1,1,1,1,1,1,1,1,
1,1,4),(0.,1.),(0.,0.0565210879409451,0.0989118886394781,0.141302689338011,
0.194291190211177,0.226084290735077,0.26847509143361,0.310865892132143,
0.353256692830676,0.395647493529209,0.438038294227742,0.480429094926275,
0.522819895624808,0.565210696323341,0.586406096672607,0.649992297720407,
0.69238309841894,0.734773899117473,0.777164699816006,0.819555500514539,
0.861946301213071,0.904337101911604),.UNSPECIFIED.);
#18=B_SPLINE_CURVE_WITH_KNOTS('',3,(#611,#612,#613,#614,#615,#616,#617,
#618,#619,#620,#621,#622,#623,#624),.UNSPECIFIED.,.F.,.F.,(4,1,1,1,1,1,
1,1,1,1,1,4),(-0.678252826433703,-0.649992297720407,-0.586406096672607,
-0.565210696323341,-0.522819895624808,-0.480429094926275,-0.438038294227742,
-0.395647493529209,-0.353256692830676,-0.310865892132143,-0.26847509143361,
-0.226084275477902),.UNSPECIFIED.);
#19=B_SPLINE_CURVE_WITH_KNOTS('',3,(#627,#628,#629,#630,#631,#632,#633,
#634,#635),.UNSPECIFIED.,.F.,.F.,(4,1,1,1,1,1,4),(-0.904337101911604,-0.861946301213071,
-0.819555500514539,-0.777164699816006,-0.734773899117473,-0.69238309841894,
-0.678252826433703),.UNSPECIFIED.);
#20=B_SPLINE_CURVE_WITH_KNOTS('',3,(#636,#637,#638,#639,#640,#641,#642,
#643,#644),.UNSPECIFIED.,.F.,.F.,(4,1,1,1,2,4),(-0.226084275477902,-0.194291190211177,
-0.141302689338011,-0.0989118886394781,-0.0565210879409451,0.),
 .UNSPECIFIED.);
#21=B_SPLINE_CURVE_WITH_KNOTS('',3,(#646,#647,#648,#649,#650,#651,#652,
#653,#654,#655,#656,#657,#658,#659,#660,#661,#662,#663,#664,#665,#666,#667,
#668,#669,#670),.UNSPECIFIED.,.T.,.F.,(4,2,2,2,1,1,1,1,1,2,2,2,1,2,1,4),
(-0.904337101911605,-0.84781601397066,-0.734773876231709,-0.678252826433704,
-0.607601485578992,-0.53695014472428,-0.501624474296925,-0.466298803869569,
-0.430973133442213,-0.395647463014857,-0.282605325275907,-0.226084275477901,
-0.169563225679896,-0.11304217588189,-0.0565210879409451,0.),
 .UNSPECIFIED.);
#22=B_SPLINE_CURVE_WITH_KNOTS('',3,(#672,#673,#674,#675,#676,#677,#678,
#679,#680,#681,#682,#683,#684,#685,#686,#687,#688,#689,#690,#691,#692,#693,
#694,#695,#696,#697,#698,#699),.UNSPECIFIED.,.T.,.F.,(4,2,2,1,1,1,1,1,1,
1,1,1,1,1,1,2,1,1,1,1,1,1,4),(-0.904337101911605,-0.84781601397066,-0.791294926029714,
-0.727708725935488,-0.695915625888375,-0.664122525841263,-0.600536325747037,
-0.552846675676367,-0.536950125652811,-0.497208750593919,-0.481312200570363,
-0.445544963017361,-0.409777725464359,-0.362088075393689,-0.298501875299463,
-0.282605325275907,-0.264942492446163,-0.207538285749494,-0.141302662637953,
-0.119224121600773,-0.0706513313189767,-0.0353256656594883,0.),
 .UNSPECIFIED.);
#23=B_SPLINE_CURVE_WITH_KNOTS('',3,(#711,#712,#713,#714,#715,#716,#717,
#718,#719,#720,#721,#722,#723,#724,#725,#726,#727,#728,#729),
 .UNSPECIFIED.,.F.,.F.,(4,1,2,1,2,2,2,1,1,1,1,1,4),(0.,0.0565210879409451,
0.11304217588189,0.169563225679896,0.226084275477901,0.282605325275907,
0.395647463014857,0.430973133442213,0.466298803869569,0.501624474296925,
0.53695014472428,0.607601485578992,0.678252826433704),.UNSPECIFIED.);
#24=B_SPLINE_CURVE_WITH_KNOTS('',3,(#730,#731,#732,#733,#734,#735,#736,
#737),.UNSPECIFIED.,.F.,.F.,(4,2,2,4),(0.678252826433704,0.734773876231709,
0.84781601397066,0.904337101911605),.UNSPECIFIED.);
#25=B_SPLINE_CURVE_WITH_KNOTS('',3,(#852,#853,#854,#855,#856,#857,#858,
#859,#860,#861,#862,#863,#864,#865,#866,#867,#868,#869,#870,#871,#872,#873),
 .UNSPECIFIED.,.F.,.F.,(4,1,1,1,1,1,1,2,1,1,1,1,1,1,1,1,1,1,4),(0.,0.0353256656594883,
0.0706513313189767,0.119224121600773,0.141302662637953,0.207538285749494,
0.264942492446163,0.282605325275907,0.298501875299463,0.362088075393689,
0.409777725464359,0.445544963017361,0.481312200570363,0.497208750593919,
0.536950125652811,0.552846675676367,0.600536325747037,0.664122525841263,
0.678252826433703),.UNSPECIFIED.);
#26=B_SPLINE_CURVE_WITH_KNOTS('',3,(#874,#875,#876,#877,#878,#879,#880,
#881,#882,#883),.UNSPECIFIED.,.F.,.F.,(4,1,1,2,2,4),(0.678252826433703,
0.695915625888375,0.727708725935488,0.791294926029714,0.84781601397066,
0.904337101911605),.UNSPECIFIED.);
#27=B_SPLINE_CURVE_WITH_KNOTS('',3,(#1010,#1011,#1012,#1013,#1014,#1015,
#1016,#1017,#1018,#1019,#1020,#1021,#1022,#1023,#1024,#1025,#1026,#1027,
#1028,#1029),.UNSPECIFIED.,.F.,.F.,(4,2,1,1,1,1,1,1,1,1,1,1,1,1,1,1,4),
(0.,0.0565210879409451,0.0989118886394781,0.141302689338011,0.194291190211177,
0.226084290735077,0.26847509143361,0.310865892132143,0.353256692830676,
0.395647493529209,0.438038294227742,0.480429094926275,0.522819895624808,
0.565210696323341,0.586406096672607,0.649992297720407,0.678252826433703),
 .UNSPECIFIED.);
#28=B_SPLINE_CURVE_WITH_KNOTS('',3,(#1030,#1031,#1032,#1033,#1034,#1035,
#1036,#1037,#1038),.UNSPECIFIED.,.F.,.F.,(4,1,1,1,1,1,4),(0.678252826433703,
0.69238309841894,0.734773899117473,0.777164699816006,0.819555500514539,
0.861946301213071,0.904337101911604),.UNSPECIFIED.);
#29=CYLINDRICAL_SURFACE('',#422,0.787401574803149);
#30=CYLINDRICAL_SURFACE('',#427,0.883858267716535);
#31=CYLINDRICAL_SURFACE('',#433,0.0590551181102361);
#32=CYLINDRICAL_SURFACE('',#439,0.0590551181102361);
#33=CYLINDRICAL_SURFACE('',#445,0.0590551181102361);
#34=LINE('',#575,#48);
#35=LINE('',#585,#49);
#36=LINE('',#598,#50);
#37=LINE('',#609,#51);
#38=LINE('',#625,#52);
#39=LINE('',#706,#53);
#40=LINE('',#738,#54);
#41=LINE('',#840,#55);
#42=LINE('',#847,#56);
#43=LINE('',#884,#57);
#44=LINE('',#998,#58);
#45=LINE('',#1005,#59);
#46=LINE('',#1039,#60);
#47=LINE('',#1141,#61);
#48=VECTOR('',#468,0.772737406508247);
#49=VECTOR('',#481,0.678249217531869);
#50=VECTOR('',#498,0.787401574803149);
#51=VECTOR('',#511,0.883858267716535);
#52=VECTOR('',#512,0.883858267716535);
#53=VECTOR('',#519,0.0551181102362204);
#54=VECTOR('',#524,0.0590551181102361);
#55=VECTOR('',#527,0.393700787401575);
#56=VECTOR('',#534,0.0551181102362204);
#57=VECTOR('',#539,0.0590551181102361);
#58=VECTOR('',#542,0.393700787401575);
#59=VECTOR('',#549,0.0551181102362204);
#60=VECTOR('',#554,0.0590551181102361);
#61=VECTOR('',#557,0.393700787401575);
#62=CONICAL_SURFACE('',#407,0.772737406508247,0.0436332312998584);
#63=CONICAL_SURFACE('',#413,0.678249217531869,0.0436332312998585);
#64=CONICAL_SURFACE('',#429,0.0551181102362204,0.785398163397444);
#65=CONICAL_SURFACE('',#435,0.0551181102362204,0.785398163397444);
#66=CONICAL_SURFACE('',#441,0.0551181102362204,0.785398163397445);
#67=FACE_BOUND('',#103,.T.);
#68=FACE_BOUND('',#109,.T.);
#69=FACE_BOUND('',#113,.T.);
#70=FACE_BOUND('',#114,.T.);
#71=FACE_BOUND('',#128,.T.);
#72=PLANE('',#405);
#73=PLANE('',#420);
#74=PLANE('',#434);
#75=PLANE('',#440);
#76=PLANE('',#446);
#77=PLANE('',#447);
#78=FACE_OUTER_BOUND('',#101,.T.);
#79=FACE_OUTER_BOUND('',#102,.T.);
#80=FACE_OUTER_BOUND('',#104,.T.);
#81=FACE_OUTER_BOUND('',#105,.T.);
#82=FACE_OUTER_BOUND('',#106,.T.);
#83=FACE_OUTER_BOUND('',#107,.T.);
#84=FACE_OUTER_BOUND('',#108,.T.);
#85=FACE_OUTER_BOUND('',#110,.T.);
#86=FACE_OUTER_BOUND('',#111,.T.);
#87=FACE_OUTER_BOUND('',#112,.T.);
#88=FACE_OUTER_BOUND('',#115,.T.);
#89=FACE_OUTER_BOUND('',#116,.T.);
#90=FACE_OUTER_BOUND('',#117,.T.);
#91=FACE_OUTER_BOUND('',#118,.T.);
#92=FACE_OUTER_BOUND('',#119,.T.);
#93=FACE_OUTER_BOUND('',#120,.T.);
#94=FACE_OUTER_BOUND('',#121,.T.);
#95=FACE_OUTER_BOUND('',#122,.T.);
#96=FACE_OUTER_BOUND('',#123,.T.);
#97=FACE_OUTER_BOUND('',#124,.T.);
#98=FACE_OUTER_BOUND('',#125,.T.);
#99=FACE_OUTER_BOUND('',#126,.T.);
#100=FACE_OUTER_BOUND('',#127,.T.);
#101=EDGE_LOOP('',(#245,#246,#247,#248,#249));
#102=EDGE_LOOP('',(#250));
#103=EDGE_LOOP('',(#251));
#104=EDGE_LOOP('',(#252,#253,#254,#255,#256));
#105=EDGE_LOOP('',(#257,#258,#259,#260,#261));
#106=EDGE_LOOP('',(#262,#263,#264,#265,#266));
#107=EDGE_LOOP('',(#267,#268,#269,#270,#271));
#108=EDGE_LOOP('',(#272));
#109=EDGE_LOOP('',(#273));
#110=EDGE_LOOP('',(#274,#275,#276,#277,#278));
#111=EDGE_LOOP('',(#279,#280,#281,#282,#283));
#112=EDGE_LOOP('',(#284,#285,#286,#287,#288,#289,#290,#291,#292,#293));
#113=EDGE_LOOP('',(#294));
#114=EDGE_LOOP('',(#295));
#115=EDGE_LOOP('',(#296,#297,#298,#299,#300));
#116=EDGE_LOOP('',(#301,#302,#303,#304,#305,#306));
#117=EDGE_LOOP('',(#307));
#118=EDGE_LOOP('',(#308,#309,#310,#311,#312));
#119=EDGE_LOOP('',(#313,#314,#315,#316,#317));
#120=EDGE_LOOP('',(#318,#319,#320,#321,#322,#323));
#121=EDGE_LOOP('',(#324));
#122=EDGE_LOOP('',(#325,#326,#327,#328,#329));
#123=EDGE_LOOP('',(#330,#331,#332,#333,#334));
#124=EDGE_LOOP('',(#335,#336,#337,#338,#339,#340));
#125=EDGE_LOOP('',(#341));
#126=EDGE_LOOP('',(#342,#343,#344,#345,#346,#347,#348));
#127=EDGE_LOOP('',(#349));
#128=EDGE_LOOP('',(#350));
#129=CIRCLE('',#401,0.664242631588574);
#130=CIRCLE('',#402,0.664242631588574);
#131=CIRCLE('',#403,0.015748031496063);
#132=CIRCLE('',#404,0.648509588729017);
#133=CIRCLE('',#406,0.58554746857668);
#134=CIRCLE('',#408,0.881889763779528);
#135=CIRCLE('',#410,0.015748031496063);
#136=CIRCLE('',#411,0.569814425717123);
#137=CIRCLE('',#412,0.569814425717123);
#138=CIRCLE('',#414,0.787401574803149);
#139=CIRCLE('',#416,0.787401574803149);
#140=CIRCLE('',#417,0.015748031496063);
#141=CIRCLE('',#418,0.803149606299212);
#142=CIRCLE('',#419,0.787401574803149);
#143=CIRCLE('',#421,0.868110236220472);
#144=CIRCLE('',#424,0.883858267716535);
#145=CIRCLE('',#425,0.015748031496063);
#146=CIRCLE('',#426,0.883858267716535);
#147=CIRCLE('',#428,0.883858267716535);
#148=CIRCLE('',#430,0.0590551181102361);
#149=CIRCLE('',#431,0.0590551181102361);
#150=CIRCLE('',#432,0.0511811023622046);
#151=CIRCLE('',#436,0.0590551181102361);
#152=CIRCLE('',#437,0.0590551181102361);
#153=CIRCLE('',#438,0.0511811023622046);
#154=CIRCLE('',#442,0.0590551181102361);
#155=CIRCLE('',#443,0.0590551181102361);
#156=CIRCLE('',#444,0.0511811023622046);
#157=VERTEX_POINT('',#562);
#158=VERTEX_POINT('',#563);
#159=VERTEX_POINT('',#566);
#160=VERTEX_POINT('',#570);
#161=VERTEX_POINT('',#573);
#162=VERTEX_POINT('',#577);
#163=VERTEX_POINT('',#579);
#164=VERTEX_POINT('',#583);
#165=VERTEX_POINT('',#587);
#166=VERTEX_POINT('',#588);
#167=VERTEX_POINT('',#590);
#168=VERTEX_POINT('',#595);
#169=VERTEX_POINT('',#600);
#170=VERTEX_POINT('',#601);
#171=VERTEX_POINT('',#606);
#172=VERTEX_POINT('',#608);
#173=VERTEX_POINT('',#610);
#174=VERTEX_POINT('',#626);
#175=VERTEX_POINT('',#645);
#176=VERTEX_POINT('',#671);
#177=VERTEX_POINT('',#701);
#178=VERTEX_POINT('',#702);
#179=VERTEX_POINT('',#705);
#180=VERTEX_POINT('',#709);
#181=VERTEX_POINT('',#710);
#182=VERTEX_POINT('',#842);
#183=VERTEX_POINT('',#843);
#184=VERTEX_POINT('',#846);
#185=VERTEX_POINT('',#850);
#186=VERTEX_POINT('',#851);
#187=VERTEX_POINT('',#1000);
#188=VERTEX_POINT('',#1001);
#189=VERTEX_POINT('',#1004);
#190=VERTEX_POINT('',#1008);
#191=VERTEX_POINT('',#1009);
#192=EDGE_CURVE('',#157,#158,#129,.T.);
#193=EDGE_CURVE('',#158,#157,#130,.T.);
#194=EDGE_CURVE('',#157,#159,#131,.T.);
#195=EDGE_CURVE('',#159,#159,#132,.T.);
#196=EDGE_CURVE('',#160,#160,#133,.T.);
#197=EDGE_CURVE('',#161,#161,#134,.T.);
#198=EDGE_CURVE('',#161,#158,#34,.T.);
#199=EDGE_CURVE('',#160,#162,#135,.T.);
#200=EDGE_CURVE('',#162,#163,#136,.T.);
#201=EDGE_CURVE('',#163,#162,#137,.T.);
#202=EDGE_CURVE('',#164,#164,#138,.T.);
#203=EDGE_CURVE('',#164,#163,#35,.T.);
#204=EDGE_CURVE('',#165,#166,#139,.T.);
#205=EDGE_CURVE('',#166,#167,#140,.T.);
#206=EDGE_CURVE('',#167,#167,#141,.T.);
#207=EDGE_CURVE('',#166,#165,#142,.T.);
#208=EDGE_CURVE('',#168,#168,#143,.T.);
#209=EDGE_CURVE('',#164,#165,#36,.T.);
#210=EDGE_CURVE('',#169,#170,#144,.T.);
#211=EDGE_CURVE('',#170,#168,#145,.T.);
#212=EDGE_CURVE('',#170,#169,#146,.T.);
#213=EDGE_CURVE('',#171,#171,#147,.T.);
#214=EDGE_CURVE('',#171,#172,#37,.T.);
#215=EDGE_CURVE('',#173,#172,#18,.T.);
#216=EDGE_CURVE('',#173,#169,#38,.T.);
#217=EDGE_CURVE('',#174,#173,#19,.T.);
#218=EDGE_CURVE('',#172,#174,#20,.T.);
#219=EDGE_CURVE('',#175,#175,#21,.T.);
#220=EDGE_CURVE('',#176,#176,#22,.T.);
#221=EDGE_CURVE('',#177,#178,#148,.T.);
#222=EDGE_CURVE('',#178,#177,#149,.T.);
#223=EDGE_CURVE('',#177,#179,#39,.T.);
#224=EDGE_CURVE('',#179,#179,#150,.T.);
#225=EDGE_CURVE('',#180,#181,#23,.T.);
#226=EDGE_CURVE('',#181,#180,#24,.T.);
#227=EDGE_CURVE('',#181,#178,#40,.T.);
#228=EDGE_CURVE('',#175,#180,#41,.T.);
#229=EDGE_CURVE('',#182,#183,#151,.T.);
#230=EDGE_CURVE('',#183,#182,#152,.T.);
#231=EDGE_CURVE('',#182,#184,#42,.T.);
#232=EDGE_CURVE('',#184,#184,#153,.T.);
#233=EDGE_CURVE('',#185,#186,#25,.T.);
#234=EDGE_CURVE('',#186,#185,#26,.T.);
#235=EDGE_CURVE('',#186,#183,#43,.T.);
#236=EDGE_CURVE('',#176,#185,#44,.T.);
#237=EDGE_CURVE('',#187,#188,#154,.T.);
#238=EDGE_CURVE('',#188,#187,#155,.T.);
#239=EDGE_CURVE('',#187,#189,#45,.T.);
#240=EDGE_CURVE('',#189,#189,#156,.T.);
#241=EDGE_CURVE('',#190,#191,#27,.T.);
#242=EDGE_CURVE('',#191,#190,#28,.T.);
#243=EDGE_CURVE('',#191,#188,#46,.T.);
#244=EDGE_CURVE('',#174,#190,#47,.T.);
#245=ORIENTED_EDGE('',*,*,#192,.T.);
#246=ORIENTED_EDGE('',*,*,#193,.T.);
#247=ORIENTED_EDGE('',*,*,#194,.T.);
#248=ORIENTED_EDGE('',*,*,#195,.T.);
#249=ORIENTED_EDGE('',*,*,#194,.F.);
#250=ORIENTED_EDGE('',*,*,#195,.F.);
#251=ORIENTED_EDGE('',*,*,#196,.F.);
#252=ORIENTED_EDGE('',*,*,#197,.F.);
#253=ORIENTED_EDGE('',*,*,#198,.T.);
#254=ORIENTED_EDGE('',*,*,#192,.F.);
#255=ORIENTED_EDGE('',*,*,#193,.F.);
#256=ORIENTED_EDGE('',*,*,#198,.F.);
#257=ORIENTED_EDGE('',*,*,#196,.T.);
#258=ORIENTED_EDGE('',*,*,#199,.T.);
#259=ORIENTED_EDGE('',*,*,#200,.T.);
#260=ORIENTED_EDGE('',*,*,#201,.T.);
#261=ORIENTED_EDGE('',*,*,#199,.F.);
#262=ORIENTED_EDGE('',*,*,#202,.T.);
#263=ORIENTED_EDGE('',*,*,#203,.T.);
#264=ORIENTED_EDGE('',*,*,#200,.F.);
#265=ORIENTED_EDGE('',*,*,#201,.F.);
#266=ORIENTED_EDGE('',*,*,#203,.F.);
#267=ORIENTED_EDGE('',*,*,#204,.T.);
#268=ORIENTED_EDGE('',*,*,#205,.T.);
#269=ORIENTED_EDGE('',*,*,#206,.T.);
#270=ORIENTED_EDGE('',*,*,#205,.F.);
#271=ORIENTED_EDGE('',*,*,#207,.T.);
#272=ORIENTED_EDGE('',*,*,#208,.F.);
#273=ORIENTED_EDGE('',*,*,#206,.F.);
#274=ORIENTED_EDGE('',*,*,#202,.F.);
#275=ORIENTED_EDGE('',*,*,#209,.T.);
#276=ORIENTED_EDGE('',*,*,#207,.F.);
#277=ORIENTED_EDGE('',*,*,#204,.F.);
#278=ORIENTED_EDGE('',*,*,#209,.F.);
#279=ORIENTED_EDGE('',*,*,#210,.T.);
#280=ORIENTED_EDGE('',*,*,#211,.T.);
#281=ORIENTED_EDGE('',*,*,#208,.T.);
#282=ORIENTED_EDGE('',*,*,#211,.F.);
#283=ORIENTED_EDGE('',*,*,#212,.T.);
#284=ORIENTED_EDGE('',*,*,#213,.F.);
#285=ORIENTED_EDGE('',*,*,#214,.T.);
#286=ORIENTED_EDGE('',*,*,#215,.F.);
#287=ORIENTED_EDGE('',*,*,#216,.T.);
#288=ORIENTED_EDGE('',*,*,#212,.F.);
#289=ORIENTED_EDGE('',*,*,#210,.F.);
#290=ORIENTED_EDGE('',*,*,#216,.F.);
#291=ORIENTED_EDGE('',*,*,#217,.F.);
#292=ORIENTED_EDGE('',*,*,#218,.F.);
#293=ORIENTED_EDGE('',*,*,#214,.F.);
#294=ORIENTED_EDGE('',*,*,#219,.F.);
#295=ORIENTED_EDGE('',*,*,#220,.F.);
#296=ORIENTED_EDGE('',*,*,#221,.T.);
#297=ORIENTED_EDGE('',*,*,#222,.T.);
#298=ORIENTED_EDGE('',*,*,#223,.T.);
#299=ORIENTED_EDGE('',*,*,#224,.T.);
#300=ORIENTED_EDGE('',*,*,#223,.F.);
#301=ORIENTED_EDGE('',*,*,#225,.F.);
#302=ORIENTED_EDGE('',*,*,#226,.F.);
#303=ORIENTED_EDGE('',*,*,#227,.T.);
#304=ORIENTED_EDGE('',*,*,#221,.F.);
#305=ORIENTED_EDGE('',*,*,#222,.F.);
#306=ORIENTED_EDGE('',*,*,#227,.F.);
#307=ORIENTED_EDGE('',*,*,#224,.F.);
#308=ORIENTED_EDGE('',*,*,#228,.T.);
#309=ORIENTED_EDGE('',*,*,#225,.T.);
#310=ORIENTED_EDGE('',*,*,#226,.T.);
#311=ORIENTED_EDGE('',*,*,#228,.F.);
#312=ORIENTED_EDGE('',*,*,#219,.T.);
#313=ORIENTED_EDGE('',*,*,#229,.T.);
#314=ORIENTED_EDGE('',*,*,#230,.T.);
#315=ORIENTED_EDGE('',*,*,#231,.T.);
#316=ORIENTED_EDGE('',*,*,#232,.T.);
#317=ORIENTED_EDGE('',*,*,#231,.F.);
#318=ORIENTED_EDGE('',*,*,#233,.F.);
#319=ORIENTED_EDGE('',*,*,#234,.F.);
#320=ORIENTED_EDGE('',*,*,#235,.T.);
#321=ORIENTED_EDGE('',*,*,#229,.F.);
#322=ORIENTED_EDGE('',*,*,#230,.F.);
#323=ORIENTED_EDGE('',*,*,#235,.F.);
#324=ORIENTED_EDGE('',*,*,#232,.F.);
#325=ORIENTED_EDGE('',*,*,#236,.T.);
#326=ORIENTED_EDGE('',*,*,#233,.T.);
#327=ORIENTED_EDGE('',*,*,#234,.T.);
#328=ORIENTED_EDGE('',*,*,#236,.F.);
#329=ORIENTED_EDGE('',*,*,#220,.T.);
#330=ORIENTED_EDGE('',*,*,#237,.T.);
#331=ORIENTED_EDGE('',*,*,#238,.T.);
#332=ORIENTED_EDGE('',*,*,#239,.T.);
#333=ORIENTED_EDGE('',*,*,#240,.T.);
#334=ORIENTED_EDGE('',*,*,#239,.F.);
#335=ORIENTED_EDGE('',*,*,#241,.F.);
#336=ORIENTED_EDGE('',*,*,#242,.F.);
#337=ORIENTED_EDGE('',*,*,#243,.T.);
#338=ORIENTED_EDGE('',*,*,#237,.F.);
#339=ORIENTED_EDGE('',*,*,#238,.F.);
#340=ORIENTED_EDGE('',*,*,#243,.F.);
#341=ORIENTED_EDGE('',*,*,#240,.F.);
#342=ORIENTED_EDGE('',*,*,#244,.T.);
#343=ORIENTED_EDGE('',*,*,#241,.T.);
#344=ORIENTED_EDGE('',*,*,#242,.T.);
#345=ORIENTED_EDGE('',*,*,#244,.F.);
#346=ORIENTED_EDGE('',*,*,#217,.T.);
#347=ORIENTED_EDGE('',*,*,#215,.T.);
#348=ORIENTED_EDGE('',*,*,#218,.T.);
#349=ORIENTED_EDGE('',*,*,#213,.T.);
#350=ORIENTED_EDGE('',*,*,#197,.T.);
#351=TOROIDAL_SURFACE('',#400,0.648509588729017,0.015748031496063);
#352=TOROIDAL_SURFACE('',#409,0.58554746857668,0.015748031496063);
#353=TOROIDAL_SURFACE('',#415,0.803149606299212,0.015748031496063);
#354=TOROIDAL_SURFACE('',#423,0.868110236220472,0.015748031496063);
#355=ADVANCED_FACE('',(#78),#351,.T.);
#356=ADVANCED_FACE('',(#79,#67),#72,.T.);
#357=ADVANCED_FACE('',(#80),#62,.T.);
#358=ADVANCED_FACE('',(#81),#352,.T.);
#359=ADVANCED_FACE('',(#82),#63,.F.);
#360=ADVANCED_FACE('',(#83),#353,.T.);
#361=ADVANCED_FACE('',(#84,#68),#73,.F.);
#362=ADVANCED_FACE('',(#85),#29,.F.);
#363=ADVANCED_FACE('',(#86),#354,.T.);
#364=ADVANCED_FACE('',(#87,#69,#70),#30,.T.);
#365=ADVANCED_FACE('',(#88),#64,.T.);
#366=ADVANCED_FACE('',(#89),#31,.T.);
#367=ADVANCED_FACE('',(#90),#74,.T.);
#368=ADVANCED_FACE('',(#91),#15,.T.);
#369=ADVANCED_FACE('',(#92),#65,.T.);
#370=ADVANCED_FACE('',(#93),#32,.T.);
#371=ADVANCED_FACE('',(#94),#75,.T.);
#372=ADVANCED_FACE('',(#95),#16,.T.);
#373=ADVANCED_FACE('',(#96),#66,.T.);
#374=ADVANCED_FACE('',(#97),#33,.T.);
#375=ADVANCED_FACE('',(#98),#76,.T.);
#376=ADVANCED_FACE('',(#99),#17,.T.);
#377=ADVANCED_FACE('',(#100,#71),#77,.T.);
#378=CLOSED_SHELL('',(#355,#356,#357,#358,#359,#360,#361,#362,#363,#364,
#365,#366,#367,#368,#369,#370,#371,#372,#373,#374,#375,#376,#377));
#379=DERIVED_UNIT_ELEMENT(#381,1.);
#380=DERIVED_UNIT_ELEMENT(#1151,-3.);
#381=(
CONVERSION_BASED_UNIT('gram',#383)
MASS_UNIT()
NAMED_UNIT(#1148)
);
#382=(
MASS_UNIT()
NAMED_UNIT(*)
SI_UNIT(.KILO.,.GRAM.)
);
#383=MASS_MEASURE_WITH_UNIT(MASS_MEASURE(0.001),#382);
#384=DERIVED_UNIT((#379,#380));
#385=MEASURE_REPRESENTATION_ITEM('density measure',
POSITIVE_RATIO_MEASURE(1.29),#384);
#386=PROPERTY_DEFINITION_REPRESENTATION(#391,#388);
#387=PROPERTY_DEFINITION_REPRESENTATION(#392,#389);
#388=REPRESENTATION('material name',(#390),#1145);
#389=REPRESENTATION('density',(#385),#1145);
#390=DESCRIPTIVE_REPRESENTATION_ITEM('PVC, Unplasticized',
'PVC, Unplasticized');
#391=PROPERTY_DEFINITION('material property','material name',#1159);
#392=PROPERTY_DEFINITION('material property','density of part',#1159);
#393=DATE_TIME_ROLE('creation_date');
#394=APPLIED_DATE_AND_TIME_ASSIGNMENT(#395,#393,(#1159));
#395=DATE_AND_TIME(#396,#397);
#396=CALENDAR_DATE(2026,13,7);
#397=LOCAL_TIME(0,0,0.,#398);
#398=COORDINATED_UNIVERSAL_TIME_OFFSET(0,0,.BEHIND.);
#399=AXIS2_PLACEMENT_3D('',#560,#448,#449);
#400=AXIS2_PLACEMENT_3D('',#561,#450,#451);
#401=AXIS2_PLACEMENT_3D('',#564,#452,#453);
#402=AXIS2_PLACEMENT_3D('',#565,#454,#455);
#403=AXIS2_PLACEMENT_3D('',#567,#456,#457);
#404=AXIS2_PLACEMENT_3D('',#568,#458,#459);
#405=AXIS2_PLACEMENT_3D('',#569,#460,#461);
#406=AXIS2_PLACEMENT_3D('',#571,#462,#463);
#407=AXIS2_PLACEMENT_3D('',#572,#464,#465);
#408=AXIS2_PLACEMENT_3D('',#574,#466,#467);
#409=AXIS2_PLACEMENT_3D('',#576,#469,#470);
#410=AXIS2_PLACEMENT_3D('',#578,#471,#472);
#411=AXIS2_PLACEMENT_3D('',#580,#473,#474);
#412=AXIS2_PLACEMENT_3D('',#581,#475,#476);
#413=AXIS2_PLACEMENT_3D('',#582,#477,#478);
#414=AXIS2_PLACEMENT_3D('',#584,#479,#480);
#415=AXIS2_PLACEMENT_3D('',#586,#482,#483);
#416=AXIS2_PLACEMENT_3D('',#589,#484,#485);
#417=AXIS2_PLACEMENT_3D('',#591,#486,#487);
#418=AXIS2_PLACEMENT_3D('',#592,#488,#489);
#419=AXIS2_PLACEMENT_3D('',#593,#490,#491);
#420=AXIS2_PLACEMENT_3D('',#594,#492,#493);
#421=AXIS2_PLACEMENT_3D('',#596,#494,#495);
#422=AXIS2_PLACEMENT_3D('',#597,#496,#497);
#423=AXIS2_PLACEMENT_3D('',#599,#499,#500);
#424=AXIS2_PLACEMENT_3D('',#602,#501,#502);
#425=AXIS2_PLACEMENT_3D('',#603,#503,#504);
#426=AXIS2_PLACEMENT_3D('',#604,#505,#506);
#427=AXIS2_PLACEMENT_3D('',#605,#507,#508);
#428=AXIS2_PLACEMENT_3D('',#607,#509,#510);
#429=AXIS2_PLACEMENT_3D('',#700,#513,#514);
#430=AXIS2_PLACEMENT_3D('',#703,#515,#516);
#431=AXIS2_PLACEMENT_3D('',#704,#517,#518);
#432=AXIS2_PLACEMENT_3D('',#707,#520,#521);
#433=AXIS2_PLACEMENT_3D('',#708,#522,#523);
#434=AXIS2_PLACEMENT_3D('',#739,#525,#526);
#435=AXIS2_PLACEMENT_3D('',#841,#528,#529);
#436=AXIS2_PLACEMENT_3D('',#844,#530,#531);
#437=AXIS2_PLACEMENT_3D('',#845,#532,#533);
#438=AXIS2_PLACEMENT_3D('',#848,#535,#536);
#439=AXIS2_PLACEMENT_3D('',#849,#537,#538);
#440=AXIS2_PLACEMENT_3D('',#885,#540,#541);
#441=AXIS2_PLACEMENT_3D('',#999,#543,#544);
#442=AXIS2_PLACEMENT_3D('',#1002,#545,#546);
#443=AXIS2_PLACEMENT_3D('',#1003,#547,#548);
#444=AXIS2_PLACEMENT_3D('',#1006,#550,#551);
#445=AXIS2_PLACEMENT_3D('',#1007,#552,#553);
#446=AXIS2_PLACEMENT_3D('',#1040,#555,#556);
#447=AXIS2_PLACEMENT_3D('',#1142,#558,#559);
#448=DIRECTION('axis',(0.,0.,1.));
#449=DIRECTION('refdir',(1.,0.,0.));
#450=DIRECTION('center_axis',(0.,-1.,0.));
#451=DIRECTION('ref_axis',(0.,0.,-1.));
#452=DIRECTION('center_axis',(0.,1.,0.));
#453=DIRECTION('ref_axis',(-1.,0.,-1.46113381977359E-32));
#454=DIRECTION('center_axis',(0.,1.,0.));
#455=DIRECTION('ref_axis',(-1.,0.,-1.46113381977359E-32));
#456=DIRECTION('center_axis',(-1.,0.,-1.22464679914735E-16));
#457=DIRECTION('ref_axis',(-1.22464679914735E-16,0.,1.));
#458=DIRECTION('center_axis',(0.,-1.,0.));
#459=DIRECTION('ref_axis',(-1.,0.,1.22464679914735E-16));
#460=DIRECTION('center_axis',(0.,1.,0.));
#461=DIRECTION('ref_axis',(0.,0.,1.));
#462=DIRECTION('center_axis',(0.,1.,0.));
#463=DIRECTION('ref_axis',(-1.,0.,1.22464679914735E-16));
#464=DIRECTION('center_axis',(0.,-1.,0.));
#465=DIRECTION('ref_axis',(1.,0.,0.));
#466=DIRECTION('center_axis',(0.,-1.,0.));
#467=DIRECTION('ref_axis',(1.,0.,0.));
#468=DIRECTION('',(0.0436193873653361,0.999048221581858,5.34183431177274E-18));
#469=DIRECTION('center_axis',(0.,-1.,0.));
#470=DIRECTION('ref_axis',(0.,0.,-1.));
#471=DIRECTION('center_axis',(-1.,0.,-1.22464679914735E-16));
#472=DIRECTION('ref_axis',(-1.22464679914735E-16,0.,1.));
#473=DIRECTION('center_axis',(0.,-1.,0.));
#474=DIRECTION('ref_axis',(-1.,0.,0.));
#475=DIRECTION('center_axis',(0.,-1.,0.));
#476=DIRECTION('ref_axis',(-1.,0.,0.));
#477=DIRECTION('center_axis',(0.,-1.,0.));
#478=DIRECTION('ref_axis',(1.,0.,0.));
#479=DIRECTION('center_axis',(0.,-1.,0.));
#480=DIRECTION('ref_axis',(1.,0.,0.));
#481=DIRECTION('',(0.0436193873653362,0.999048221581858,5.34183431177275E-18));
#482=DIRECTION('center_axis',(0.,-1.,0.));
#483=DIRECTION('ref_axis',(0.,0.,-1.));
#484=DIRECTION('center_axis',(0.,1.,0.));
#485=DIRECTION('ref_axis',(1.,0.,0.));
#486=DIRECTION('center_axis',(-1.,0.,-1.22464679914735E-16));
#487=DIRECTION('ref_axis',(-1.22464679914735E-16,0.,1.));
#488=DIRECTION('center_axis',(0.,-1.,0.));
#489=DIRECTION('ref_axis',(1.,0.,0.));
#490=DIRECTION('center_axis',(0.,1.,0.));
#491=DIRECTION('ref_axis',(1.,0.,0.));
#492=DIRECTION('center_axis',(0.,1.,0.));
#493=DIRECTION('ref_axis',(0.,0.,1.));
#494=DIRECTION('center_axis',(0.,1.,0.));
#495=DIRECTION('ref_axis',(1.,0.,1.22464679914735E-16));
#496=DIRECTION('center_axis',(0.,1.,0.));
#497=DIRECTION('ref_axis',(1.,0.,0.));
#498=DIRECTION('',(0.,-1.,0.));
#499=DIRECTION('center_axis',(0.,1.,0.));
#500=DIRECTION('ref_axis',(0.,0.,1.));
#501=DIRECTION('center_axis',(0.,-1.,0.));
#502=DIRECTION('ref_axis',(1.,0.,1.22464679914735E-16));
#503=DIRECTION('center_axis',(-1.,0.,1.22464679914735E-16));
#504=DIRECTION('ref_axis',(-1.22464679914735E-16,0.,-1.));
#505=DIRECTION('center_axis',(0.,-1.,0.));
#506=DIRECTION('ref_axis',(1.,0.,1.22464679914735E-16));
#507=DIRECTION('center_axis',(0.,1.,0.));
#508=DIRECTION('ref_axis',(-1.,0.,0.));
#509=DIRECTION('center_axis',(0.,1.,0.));
#510=DIRECTION('ref_axis',(-1.,0.,0.));
#511=DIRECTION('',(0.,-1.,0.));
#512=DIRECTION('',(0.,-1.,0.));
#513=DIRECTION('center_axis',(0.499999999999999,0.,-0.866025403784439));
#514=DIRECTION('ref_axis',(0.,-1.,0.));
#515=DIRECTION('center_axis',(-0.5,0.,0.866025403784438));
#516=DIRECTION('ref_axis',(0.,-1.,0.));
#517=DIRECTION('center_axis',(-0.5,0.,0.866025403784438));
#518=DIRECTION('ref_axis',(0.,-1.,0.));
#519=DIRECTION('',(-0.353553390593274,-0.707106781186544,0.612372435695798));
#520=DIRECTION('center_axis',(0.5,0.,-0.866025403784438));
#521=DIRECTION('ref_axis',(0.,-1.,0.));
#522=DIRECTION('center_axis',(0.5,0.,-0.866025403784438));
#523=DIRECTION('ref_axis',(0.,1.,0.));
#524=DIRECTION('',(-0.5,0.,0.866025403784438));
#525=DIRECTION('center_axis',(-0.5,0.,0.866025403784438));
#526=DIRECTION('ref_axis',(0.866025403784438,0.,0.5));
#527=DIRECTION('',(0.224217218867659,0.,0.974539193035997));
#528=DIRECTION('center_axis',(0.499999999999999,0.,0.866025403784439));
#529=DIRECTION('ref_axis',(0.,-1.,0.));
#530=DIRECTION('center_axis',(-0.5,0.,-0.866025403784439));
#531=DIRECTION('ref_axis',(0.,-1.,0.));
#532=DIRECTION('center_axis',(-0.5,0.,-0.866025403784439));
#533=DIRECTION('ref_axis',(0.,-1.,0.));
#534=DIRECTION('',(-0.353553390593274,-0.707106781186545,-0.612372435695798));
#535=DIRECTION('center_axis',(0.5,0.,0.866025403784439));
#536=DIRECTION('ref_axis',(0.,-1.,0.));
#537=DIRECTION('center_axis',(0.5,0.,0.866025403784439));
#538=DIRECTION('ref_axis',(0.,1.,0.));
#539=DIRECTION('',(-0.5,0.,-0.866025403784439));
#540=DIRECTION('center_axis',(-0.5,0.,-0.866025403784439));
#541=DIRECTION('ref_axis',(-0.866025403784439,0.,0.5));
#542=DIRECTION('',(-0.956084307586594,0.,-0.293091789012696));
#543=DIRECTION('center_axis',(-1.,0.,0.));
#544=DIRECTION('ref_axis',(0.,-1.,0.));
#545=DIRECTION('center_axis',(1.,0.,0.));
#546=DIRECTION('ref_axis',(0.,-1.,0.));
#547=DIRECTION('center_axis',(1.,0.,0.));
#548=DIRECTION('ref_axis',(0.,-1.,0.));
#549=DIRECTION('',(0.70710678118655,-0.707106781186545,8.65956056235491E-17));
#550=DIRECTION('center_axis',(-1.,0.,0.));
#551=DIRECTION('ref_axis',(0.,-1.,0.));
#552=DIRECTION('center_axis',(-1.,0.,0.));
#553=DIRECTION('ref_axis',(0.,1.,0.));
#554=DIRECTION('',(1.,0.,0.));
#555=DIRECTION('center_axis',(1.,0.,0.));
#556=DIRECTION('ref_axis',(0.,0.,-1.));
#557=DIRECTION('',(0.73186708871892,3.79243390548041E-15,-0.681447404023299));
#558=DIRECTION('center_axis',(0.,1.,0.));
#559=DIRECTION('ref_axis',(0.,0.,1.));
#560=CARTESIAN_POINT('',(0.,0.,0.));
#561=CARTESIAN_POINT('Origin',(0.,5.5748031496063,0.));
#562=CARTESIAN_POINT('',(-8.13462612632161E-17,5.57549006909237,0.664242631588574));
#563=CARTESIAN_POINT('',(-0.664242631588574,5.57549006909237,-8.13462612632162E-17));
#564=CARTESIAN_POINT('Origin',(0.,5.57549006909237,-8.13462612632162E-17));
#565=CARTESIAN_POINT('Origin',(0.,5.57549006909237,-8.13462612632162E-17));
#566=CARTESIAN_POINT('',(-7.94195192053357E-17,5.59055118110236,0.648509588729017));
#567=CARTESIAN_POINT('Origin',(-7.94195192053357E-17,5.5748031496063,0.648509588729017));
#568=CARTESIAN_POINT('Origin',(0.,5.59055118110236,0.));
#569=CARTESIAN_POINT('Origin',(0.663585049236967,5.59055118110236,0.));
#570=CARTESIAN_POINT('',(-7.17088833141266E-17,5.59055118110236,0.58554746857668));
#571=CARTESIAN_POINT('Origin',(0.,5.59055118110236,0.));
#572=CARTESIAN_POINT('Origin',(0.,3.09055118110236,0.));
#573=CARTESIAN_POINT('',(-0.881889763779528,0.590551181102362,-1.08000347641341E-16));
#574=CARTESIAN_POINT('Origin',(0.,0.590551181102362,0.));
#575=CARTESIAN_POINT('',(-0.772737406508247,3.09055118110236,-9.46330391461752E-17));
#576=CARTESIAN_POINT('Origin',(0.,5.5748031496063,0.));
#577=CARTESIAN_POINT('',(-6.97821412562462E-17,5.57411623012023,0.569814425717123));
#578=CARTESIAN_POINT('Origin',(-7.17088833141266E-17,5.5748031496063,0.58554746857668));
#579=CARTESIAN_POINT('',(-0.569814425717123,5.57411623012023,-6.97821412562462E-17));
#580=CARTESIAN_POINT('Origin',(0.,5.57411623012023,-6.97821412562462E-17));
#581=CARTESIAN_POINT('Origin',(0.,5.57411623012023,-6.97821412562462E-17));
#582=CARTESIAN_POINT('Origin',(0.,3.09055118110236,0.));
#583=CARTESIAN_POINT('',(-0.787401574803149,0.590551181102362,9.64288818226262E-17));
#584=CARTESIAN_POINT('Origin',(0.,0.590551181102362,0.));
#585=CARTESIAN_POINT('',(-0.678249217531869,3.09055118110236,-8.306157332746E-17));
#586=CARTESIAN_POINT('Origin',(0.,0.015748031496063,0.));
#587=CARTESIAN_POINT('',(-0.787401574803149,0.015748031496063,9.64288818226262E-17));
#588=CARTESIAN_POINT('',(-9.64288818226262E-17,0.015748031496063,0.787401574803149));
#589=CARTESIAN_POINT('Origin',(0.,0.015748031496063,0.));
#590=CARTESIAN_POINT('',(-9.83574594590787E-17,0.,0.803149606299212));
#591=CARTESIAN_POINT('Origin',(-9.83574594590787E-17,0.015748031496063,
0.803149606299212));
#592=CARTESIAN_POINT('Origin',(0.,0.,0.));
#593=CARTESIAN_POINT('Origin',(0.,0.015748031496063,0.));
#594=CARTESIAN_POINT('Origin',(0.,0.,0.));
#595=CARTESIAN_POINT('',(-1.06312842209445E-16,0.,-0.868110236220472));
#596=CARTESIAN_POINT('Origin',(0.,0.,0.));
#597=CARTESIAN_POINT('Origin',(0.,0.,0.));
#598=CARTESIAN_POINT('',(-0.787401574803149,0.,9.64288818226262E-17));
#599=CARTESIAN_POINT('Origin',(0.,0.015748031496063,0.));
#600=CARTESIAN_POINT('',(0.883858267716535,0.015748031496063,-1.08241419845898E-16));
#601=CARTESIAN_POINT('',(-1.08241419845898E-16,0.015748031496063,-0.883858267716535));
#602=CARTESIAN_POINT('Origin',(0.,0.015748031496063,0.));
#603=CARTESIAN_POINT('Origin',(-1.06312842209445E-16,0.015748031496063,
-0.868110236220472));
#604=CARTESIAN_POINT('Origin',(0.,0.015748031496063,0.));
#605=CARTESIAN_POINT('Origin',(0.,0.,0.));
#606=CARTESIAN_POINT('',(0.883858267716535,0.590551181102362,-1.08241419845898E-16));
#607=CARTESIAN_POINT('Origin',(0.,0.590551181102362,0.));
#608=CARTESIAN_POINT('',(0.883857008326538,0.362178983239949,-3.48730475027181E-7));
#609=CARTESIAN_POINT('',(0.883858267716535,0.,-1.08241419845898E-16));
#610=CARTESIAN_POINT('',(0.883859957129476,0.22833926780225,-5.38620009458749E-8));
#611=CARTESIAN_POINT('Ctrl Pts',(0.883859957129476,0.22833926780225,-5.38620009462164E-8));
#612=CARTESIAN_POINT('Ctrl Pts',(0.883860599816524,0.228329191670551,-0.00427340324671161));
#613=CARTESIAN_POINT('Ctrl Pts',(0.883758240876028,0.229679889283673,-0.0180894416151625));
#614=CARTESIAN_POINT('Ctrl Pts',(0.883199559507088,0.237279108600409,-0.0354470630402417));
#615=CARTESIAN_POINT('Ctrl Pts',(0.882470842296597,0.249926537645156,-0.0498215051792715));
#616=CARTESIAN_POINT('Ctrl Pts',(0.881849692633846,0.262985208723951,-0.0598098663896337));
#617=CARTESIAN_POINT('Ctrl Pts',(0.881342498661647,0.282550635687522,-0.0666503731471542));
#618=CARTESIAN_POINT('Ctrl Pts',(0.881271100822784,0.301528390055878,-0.0675585819017773));
#619=CARTESIAN_POINT('Ctrl Pts',(0.881634128672472,0.321313283894714,-0.0628308785594333));
#620=CARTESIAN_POINT('Ctrl Pts',(0.882341104043819,0.338571995443067,-0.0522145681916415));
#621=CARTESIAN_POINT('Ctrl Pts',(0.883085410289922,0.35142507500593,-0.0381436218379665));
#622=CARTESIAN_POINT('Ctrl Pts',(0.883716998611856,0.360402681451427,-0.0194497774631057));
#623=CARTESIAN_POINT('Ctrl Pts',(0.883855399314321,0.362155595167874,-0.00645751438411556));
#624=CARTESIAN_POINT('Ctrl Pts',(0.88385612223646,0.362160872094939,-5.94092605930324E-7));
#625=CARTESIAN_POINT('',(0.883858267716535,0.,-1.08241419845898E-16));
#626=CARTESIAN_POINT('',(0.881322079308668,0.295275590551181,0.0669091169716156));
#627=CARTESIAN_POINT('Ctrl Pts',(0.881322079308668,0.295275590551181,0.0669091169716156));
#628=CARTESIAN_POINT('Ctrl Pts',(0.881322079308668,0.288969093188075,0.0669091169716156));
#629=CARTESIAN_POINT('Ctrl Pts',(0.881463249052122,0.275758036690818,0.0651406287356582));
#630=CARTESIAN_POINT('Ctrl Pts',(0.882094903670455,0.257181355394679,0.0561616849535178));
#631=CARTESIAN_POINT('Ctrl Pts',(0.882839117710443,0.243045528796262,0.0433425963146539));
#632=CARTESIAN_POINT('Ctrl Pts',(0.883546772178791,0.232441550433812,0.0260301205248815));
#633=CARTESIAN_POINT('Ctrl Pts',(0.883826212643569,0.228790133829872,0.010705584264006));
#634=CARTESIAN_POINT('Ctrl Pts',(0.883859635785778,0.228344305870819,0.00213662198389343));
#635=CARTESIAN_POINT('Ctrl Pts',(0.883859957129476,0.22833926780225,-5.38620009462164E-8));
#636=CARTESIAN_POINT('Ctrl Pts',(0.88385612223646,0.362160872094939,-5.94092605930324E-7));
#637=CARTESIAN_POINT('Ctrl Pts',(0.88385666442761,0.362164829786914,0.00484209205910435));
#638=CARTESIAN_POINT('Ctrl Pts',(0.883755394244678,0.360868615066806,0.0176971072497563));
#639=CARTESIAN_POINT('Ctrl Pts',(0.883153912175052,0.35255313741115,0.0370045412855109));
#640=CARTESIAN_POINT('Ctrl Pts',(0.882341332471185,0.338577156110965,0.0521850531672251));
#641=CARTESIAN_POINT('Ctrl Pts',(0.881876106267557,0.3271110893627,0.0592534040613761));
#642=CARTESIAN_POINT('Ctrl Pts',(0.881453864560869,0.312659257330374,0.0652385524794977));
#643=CARTESIAN_POINT('Ctrl Pts',(0.881322079308668,0.303684256728413,0.0669091169716156));
#644=CARTESIAN_POINT('Ctrl Pts',(0.881322079308668,0.295275590551181,0.0669091169716156));
#645=CARTESIAN_POINT('',(-0.498606034696538,0.295275590551181,0.729792751111622));
#646=CARTESIAN_POINT('Ctrl Pts',(-0.498606034696538,0.295275590551181,0.729792751111622));
#647=CARTESIAN_POINT('Ctrl Pts',(-0.498606034696538,0.286866924373951,0.729792751111622));
#648=CARTESIAN_POINT('Ctrl Pts',(-0.497225168658368,0.2778900042492,0.730742493810958));
#649=CARTESIAN_POINT('Ctrl Pts',(-0.488638264268429,0.253079267911714,0.736538344523446));
#650=CARTESIAN_POINT('Ctrl Pts',(-0.478080893430863,0.240399151014555,0.743583297035866));
#651=CARTESIAN_POINT('Ctrl Pts',(-0.456942270970858,0.229979542759777,0.756629005919617));
#652=CARTESIAN_POINT('Ctrl Pts',(-0.449259461545802,0.228358613095494,0.761212769710949));
#653=CARTESIAN_POINT('Ctrl Pts',(-0.432888611677732,0.228265019955104,0.77067146556962));
#654=CARTESIAN_POINT('Ctrl Pts',(-0.41283488265279,0.23408556159264,0.781714591513131));
#655=CARTESIAN_POINT('Ctrl Pts',(-0.394819889339878,0.252615289249477,0.79080284854528));
#656=CARTESIAN_POINT('Ctrl Pts',(-0.385615800413744,0.272576741400974,0.795308385279883));
#657=CARTESIAN_POINT('Ctrl Pts',(-0.382411158036037,0.289035299504518,0.796845164675095));
#658=CARTESIAN_POINT('Ctrl Pts',(-0.38275667788064,0.304863619526053,0.796681999621013));
#659=CARTESIAN_POINT('Ctrl Pts',(-0.3853860784293,0.315827667624115,0.795415561324076));
#660=CARTESIAN_POINT('Ctrl Pts',(-0.3935970230002,0.337564996165643,0.791410051169189));
#661=CARTESIAN_POINT('Ctrl Pts',(-0.404960971771595,0.350208175720668,0.785800288980619));
#662=CARTESIAN_POINT('Ctrl Pts',(-0.426785888174007,0.36055023729359,0.774036528729107));
#663=CARTESIAN_POINT('Ctrl Pts',(-0.434612089261069,0.362214947277741,0.769670194614031));
#664=CARTESIAN_POINT('Ctrl Pts',(-0.449187383650772,0.362212346422486,0.761256045240075));
#665=CARTESIAN_POINT('Ctrl Pts',(-0.464582411579181,0.358824742891653,0.752053732473034));
#666=CARTESIAN_POINT('Ctrl Pts',(-0.477276199029388,0.348549445167613,0.743939719740534));
#667=CARTESIAN_POINT('Ctrl Pts',(-0.487251369542506,0.336666082817802,0.737447849955571));
#668=CARTESIAN_POINT('Ctrl Pts',(-0.495818455411732,0.321616464675182,0.731713324991452));
#669=CARTESIAN_POINT('Ctrl Pts',(-0.498606034696538,0.303684256728413,0.729792751111622));
#670=CARTESIAN_POINT('Ctrl Pts',(-0.498606034696538,0.295275590551181,0.729792751111622));
#671=CARTESIAN_POINT('',(-0.38271604461213,0.295275590551181,-0.796701868083238));
#672=CARTESIAN_POINT('Ctrl Pts',(-0.38271604461213,0.295275590551181,-0.796701868083238));
#673=CARTESIAN_POINT('Ctrl Pts',(-0.38271604461213,0.286866924373951,-0.796701868083238));
#674=CARTESIAN_POINT('Ctrl Pts',(-0.384233140322282,0.277896701749936,-0.795978560935506));
#675=CARTESIAN_POINT('Ctrl Pts',(-0.390386837619218,0.261399754856903,-0.79298013548723));
#676=CARTESIAN_POINT('Ctrl Pts',(-0.395008706100455,0.253874508596427,-0.790703231936179));
#677=CARTESIAN_POINT('Ctrl Pts',(-0.40628309479215,0.241248376175671,-0.784975089080484));
#678=CARTESIAN_POINT('Ctrl Pts',(-0.417833023350405,0.232733792105343,-0.778975728095409));
#679=CARTESIAN_POINT('Ctrl Pts',(-0.435087492463175,0.228357721510145,-0.769393419845349));
#680=CARTESIAN_POINT('Ctrl Pts',(-0.451524347962675,0.22789256067423,-0.75994724388965));
#681=CARTESIAN_POINT('Ctrl Pts',(-0.470765286107255,0.235390728836853,-0.748175693535672));
#682=CARTESIAN_POINT('Ctrl Pts',(-0.483049680279555,0.248116782996291,-0.740196468353833));
#683=CARTESIAN_POINT('Ctrl Pts',(-0.491060364504248,0.260729393200784,-0.73490504908729));
#684=CARTESIAN_POINT('Ctrl Pts',(-0.495282798847582,0.271073949138289,-0.732053471882898));
#685=CARTESIAN_POINT('Ctrl Pts',(-0.498270544736073,0.285107108523801,-0.730022536177151));
#686=CARTESIAN_POINT('Ctrl Pts',(-0.499095543747055,0.298203634279649,-0.729455788069043));
#687=CARTESIAN_POINT('Ctrl Pts',(-0.496634526839323,0.316541487974414,-0.731142497479586));
#688=CARTESIAN_POINT('Ctrl Pts',(-0.48772913764905,0.337837989039374,-0.737154749511463));
#689=CARTESIAN_POINT('Ctrl Pts',(-0.475560588068035,0.350504672951517,-0.745081519016712));
#690=CARTESIAN_POINT('Ctrl Pts',(-0.465880744024759,0.356108338400438,-0.751107511621083));
#691=CARTESIAN_POINT('Ctrl Pts',(-0.461729400513014,0.358132543596751,-0.753667798246563));
#692=CARTESIAN_POINT('Ctrl Pts',(-0.451978015601645,0.361902473853768,-0.759612990003966));
#693=CARTESIAN_POINT('Ctrl Pts',(-0.433634194424949,0.363650755088545,-0.770363534519318));
#694=CARTESIAN_POINT('Ctrl Pts',(-0.413718723975967,0.35528148766145,-0.781125782733941));
#695=CARTESIAN_POINT('Ctrl Pts',(-0.399157163627588,0.34221276083891,-0.788625145860284));
#696=CARTESIAN_POINT('Ctrl Pts',(-0.390174152964589,0.329494901730794,-0.793098413584699));
#697=CARTESIAN_POINT('Ctrl Pts',(-0.383790532272718,0.311395381186766,-0.796188260942589));
#698=CARTESIAN_POINT('Ctrl Pts',(-0.38271604461213,0.300531004783998,-0.796701868083238));
#699=CARTESIAN_POINT('Ctrl Pts',(-0.38271604461213,0.295275590551181,-0.796701868083238));
#700=CARTESIAN_POINT('Origin',(-0.460629921259843,0.295275590551181,0.797834427108499));
#701=CARTESIAN_POINT('',(-0.458661417322835,0.354330708661418,0.794424878274702));
#702=CARTESIAN_POINT('',(-0.458661417322835,0.236220472440945,0.794424878274702));
#703=CARTESIAN_POINT('Origin',(-0.458661417322835,0.295275590551181,0.794424878274702));
#704=CARTESIAN_POINT('Origin',(-0.458661417322835,0.295275590551181,0.794424878274702));
#705=CARTESIAN_POINT('',(-0.462598425196851,0.346456692913386,0.801243975942296));
#706=CARTESIAN_POINT('',(-0.460629921259843,0.350393700787402,0.797834427108499));
#707=CARTESIAN_POINT('Origin',(-0.462598425196851,0.295275590551181,0.801243975942296));
#708=CARTESIAN_POINT('Origin',(-0.440944881889764,0.295275590551181,0.763738938770529));
#709=CARTESIAN_POINT('',(-0.496021826771918,0.295275590551181,0.741024769411618));
#710=CARTESIAN_POINT('',(-0.44591382367562,0.236193152495992,0.772238746552102));
#711=CARTESIAN_POINT('Ctrl Pts',(-0.496021826771918,0.295275590551181,0.741024769411618));
#712=CARTESIAN_POINT('Ctrl Pts',(-0.496021826771918,0.302626828293751,0.741024769411618));
#713=CARTESIAN_POINT('Ctrl Pts',(-0.493599729121662,0.31830507179726,0.742662793841932));
#714=CARTESIAN_POINT('Ctrl Pts',(-0.486088408430635,0.331581722782763,0.747610793385409));
#715=CARTESIAN_POINT('Ctrl Pts',(-0.477289394193421,0.342115815464525,0.753261609699592));
#716=CARTESIAN_POINT('Ctrl Pts',(-0.466046150349367,0.351286012942335,0.760367031242623));
#717=CARTESIAN_POINT('Ctrl Pts',(-0.452327706079774,0.354338571519737,0.768534488209495));
#718=CARTESIAN_POINT('Ctrl Pts',(-0.439352118952373,0.354340367148486,0.776025201395051));
#719=CARTESIAN_POINT('Ctrl Pts',(-0.432393452734384,0.352843159877281,0.779923265424662));
#720=CARTESIAN_POINT('Ctrl Pts',(-0.413069966267423,0.343585094300415,0.790423520162353));
#721=CARTESIAN_POINT('Ctrl Pts',(-0.403155603253889,0.332335502729224,0.795406594280603));
#722=CARTESIAN_POINT('Ctrl Pts',(-0.396041886893265,0.313257296317851,0.798945286722551));
#723=CARTESIAN_POINT('Ctrl Pts',(-0.393770168464499,0.303655402514335,0.800062517874356));
#724=CARTESIAN_POINT('Ctrl Pts',(-0.393472744657482,0.289824745407147,0.800206216325515));
#725=CARTESIAN_POINT('Ctrl Pts',(-0.396238288109962,0.275420941060708,0.798851459488284));
#726=CARTESIAN_POINT('Ctrl Pts',(-0.404220711008533,0.257873536106007,0.79486842478838));
#727=CARTESIAN_POINT('Ctrl Pts',(-0.419997677439342,0.241389608403127,0.786783585021016));
#728=CARTESIAN_POINT('Ctrl Pts',(-0.437816445037893,0.236146289722021,0.776916857610884));
#729=CARTESIAN_POINT('Ctrl Pts',(-0.44591382367562,0.236193152495992,0.772238746552102));
#730=CARTESIAN_POINT('Ctrl Pts',(-0.44591382367562,0.236193152495992,0.772238746552102));
#731=CARTESIAN_POINT('Ctrl Pts',(-0.452391723962854,0.236230642699989,0.768496259220436));
#732=CARTESIAN_POINT('Ctrl Pts',(-0.459235905300659,0.237688295845211,0.764428436071902));
#733=CARTESIAN_POINT('Ctrl Pts',(-0.478024882276716,0.247015223121565,0.752920980781995));
#734=CARTESIAN_POINT('Ctrl Pts',(-0.487313340281882,0.258296227249326,0.746818514947941));
#735=CARTESIAN_POINT('Ctrl Pts',(-0.494820192485576,0.280074677069506,0.741836137109958));
#736=CARTESIAN_POINT('Ctrl Pts',(-0.496021826771918,0.287924352808611,0.741024769411618));
#737=CARTESIAN_POINT('Ctrl Pts',(-0.496021826771918,0.295275590551181,0.741024769411618));
#738=CARTESIAN_POINT('',(-0.440944881889764,0.236220472440945,0.763738938770529));
#739=CARTESIAN_POINT('Origin',(-0.462598425196851,0.354330708661418,0.801243975942296));
#740=CARTESIAN_POINT('Ctrl Pts',(-0.498606034696538,0.295275590551181,0.729792751111622));
#741=CARTESIAN_POINT('Ctrl Pts',(-0.498606034696538,0.303684256728413,0.729792751111622));
#742=CARTESIAN_POINT('Ctrl Pts',(-0.495818455411732,0.321616464675182,0.731713324991452));
#743=CARTESIAN_POINT('Ctrl Pts',(-0.487251369542506,0.336666082817802,0.737447849955571));
#744=CARTESIAN_POINT('Ctrl Pts',(-0.477276199029388,0.348549445167613,0.743939719740534));
#745=CARTESIAN_POINT('Ctrl Pts',(-0.464582411579181,0.358824742891653,0.752053732473034));
#746=CARTESIAN_POINT('Ctrl Pts',(-0.449187383650772,0.362212346422486,0.761256045240075));
#747=CARTESIAN_POINT('Ctrl Pts',(-0.434612089261069,0.362214947277741,0.769670194614031));
#748=CARTESIAN_POINT('Ctrl Pts',(-0.426785888174007,0.36055023729359,0.774036528729107));
#749=CARTESIAN_POINT('Ctrl Pts',(-0.404960971771595,0.350208175720668,0.785800288980619));
#750=CARTESIAN_POINT('Ctrl Pts',(-0.3935970230002,0.337564996165643,0.791410051169189));
#751=CARTESIAN_POINT('Ctrl Pts',(-0.3853860784293,0.315827667624115,0.795415561324076));
#752=CARTESIAN_POINT('Ctrl Pts',(-0.38275667788064,0.304863619526053,0.796681999621013));
#753=CARTESIAN_POINT('Ctrl Pts',(-0.382411158036037,0.289035299504518,0.796845164675095));
#754=CARTESIAN_POINT('Ctrl Pts',(-0.385615800413744,0.272576741400974,0.795308385279883));
#755=CARTESIAN_POINT('Ctrl Pts',(-0.394819889339878,0.252615289249477,0.79080284854528));
#756=CARTESIAN_POINT('Ctrl Pts',(-0.41283488265279,0.23408556159264,0.781714591513131));
#757=CARTESIAN_POINT('Ctrl Pts',(-0.432888611677732,0.228265019955104,0.77067146556962));
#758=CARTESIAN_POINT('Ctrl Pts',(-0.449259461545802,0.228358613095494,0.761212769710949));
#759=CARTESIAN_POINT('Ctrl Pts',(-0.456942270970858,0.229979542759777,0.756629005919617));
#760=CARTESIAN_POINT('Ctrl Pts',(-0.478080893430863,0.240399151014555,0.743583297035866));
#761=CARTESIAN_POINT('Ctrl Pts',(-0.488638264268429,0.253079267911714,0.736538344523446));
#762=CARTESIAN_POINT('Ctrl Pts',(-0.497225168658368,0.2778900042492,0.730742493810958));
#763=CARTESIAN_POINT('Ctrl Pts',(-0.498606034696538,0.286866924373951,0.729792751111622));
#764=CARTESIAN_POINT('Ctrl Pts',(-0.498606034696538,0.295275590551181,0.729792751111622));
#765=CARTESIAN_POINT('Ctrl Pts',(-0.497744632054998,0.295275590551181,0.733536757211621));
#766=CARTESIAN_POINT('Ctrl Pts',(-0.497743260912819,0.303331713476249,0.733538013765957));
#767=CARTESIAN_POINT('Ctrl Pts',(-0.495078756693223,0.320512493051273,0.735363149048885));
#768=CARTESIAN_POINT('Ctrl Pts',(-0.486862775166392,0.334971366114887,0.740836206756587));
#769=CARTESIAN_POINT('Ctrl Pts',(-0.477279696688867,0.346404867767274,0.747047566067959));
#770=CARTESIAN_POINT('Ctrl Pts',(-0.465069660105402,0.35631157644027,0.754825201378919));
#771=CARTESIAN_POINT('Ctrl Pts',(-0.450232717283322,0.359587410926232,0.763682927597187));
#772=CARTESIAN_POINT('Ctrl Pts',(-0.436191552159455,0.359590636985617,0.771789105065277));
#773=CARTESIAN_POINT('Ctrl Pts',(-0.42865212699523,0.357979539655421,0.776000236999782));
#774=CARTESIAN_POINT('Ctrl Pts',(-0.407667080650363,0.348005271664364,0.787340097394136));
#775=CARTESIAN_POINT('Ctrl Pts',(-0.396779532486698,0.335821127777112,0.792743845220119));
#776=CARTESIAN_POINT('Ctrl Pts',(-0.388940657559349,0.314975084010396,0.796590896628463));
#777=CARTESIAN_POINT('Ctrl Pts',(-0.38642647367292,0.304463914029256,0.797809325670965));
#778=CARTESIAN_POINT('Ctrl Pts',(-0.386099644256075,0.289299610223367,0.797964899386415));
#779=CARTESIAN_POINT('Ctrl Pts',(-0.38915640868695,0.273527075196655,0.796489305913785));
#780=CARTESIAN_POINT('Ctrl Pts',(-0.397953172584012,0.254370313848444,0.792158031780231));
#781=CARTESIAN_POINT('Ctrl Pts',(-0.415225442413687,0.236516875489027,0.783403084313404));
#782=CARTESIAN_POINT('Ctrl Pts',(-0.434531406883157,0.230895598258425,0.772752508478158));
#783=CARTESIAN_POINT('Ctrl Pts',(-0.4503063065283,0.230980431032385,0.763639554395177));
#784=CARTESIAN_POINT('Ctrl Pts',(-0.457708817878158,0.232550761822496,0.759227534615723));
#785=CARTESIAN_POINT('Ctrl Pts',(-0.478063327506758,0.242602733000684,0.746695564460377));
#786=CARTESIAN_POINT('Ctrl Pts',(-0.488200402736494,0.254822960741248,0.739962466110314));
#787=CARTESIAN_POINT('Ctrl Pts',(-0.49642119624989,0.278615127193162,0.734442114698225));
#788=CARTESIAN_POINT('Ctrl Pts',(-0.497745098231283,0.2872217478344,0.733536574246798));
#789=CARTESIAN_POINT('Ctrl Pts',(-0.497744632054998,0.295275590551181,0.733536757211621));
#790=CARTESIAN_POINT('Ctrl Pts',(-0.496883229413458,0.295275590551181,0.737280763311619));
#791=CARTESIAN_POINT('Ctrl Pts',(-0.496884600555637,0.302979371545915,0.737279506757283));
#792=CARTESIAN_POINT('Ctrl Pts',(-0.494339427840172,0.319409043421169,0.739012969784499));
#793=CARTESIAN_POINT('Ctrl Pts',(-0.486477002806749,0.333276439485678,0.744222436584393));
#794=CARTESIAN_POINT('Ctrl Pts',(-0.477285896533942,0.344260392864864,0.750153763372167));
#795=CARTESIAN_POINT('Ctrl Pts',(-0.465558901823145,0.353799179393719,0.757595562336739));
#796=CARTESIAN_POINT('Ctrl Pts',(-0.451282372447224,0.35696350701599,0.766107605852382));
#797=CARTESIAN_POINT('Ctrl Pts',(-0.437772656053987,0.356964677440609,0.773906290943805));
#798=CARTESIAN_POINT('Ctrl Pts',(-0.430527213913161,0.355413857515449,0.777959557153987));
#799=CARTESIAN_POINT('Ctrl Pts',(-0.410363857388655,0.345787998356719,0.788883711748836));
#800=CARTESIAN_POINT('Ctrl Pts',(-0.399973093767391,0.334079371117755,0.794072800229674));
#801=CARTESIAN_POINT('Ctrl Pts',(-0.392487307763217,0.31410987993157,0.797769951418164));
#802=CARTESIAN_POINT('Ctrl Pts',(-0.390100372672218,0.304055108011132,0.798935191824404));
#803=CARTESIAN_POINT('Ctrl Pts',(-0.389784258437444,0.289560434688298,0.799086481614196));
#804=CARTESIAN_POINT('Ctrl Pts',(-0.392697679836756,0.274470607265026,0.797670538854382));
#805=CARTESIAN_POINT('Ctrl Pts',(-0.401087427764399,0.25611851150704,0.79351324155343));
#806=CARTESIAN_POINT('Ctrl Pts',(-0.417607117678445,0.23895829450674,0.785095092220744));
#807=CARTESIAN_POINT('Ctrl Pts',(-0.436173649832468,0.233515711418701,0.774835814702346));
#808=CARTESIAN_POINT('Ctrl Pts',(-0.451344878980356,0.233608824763098,0.766069474536208));
#809=CARTESIAN_POINT('Ctrl Pts',(-0.458469358393359,0.235117076782492,0.761829907375796));
#810=CARTESIAN_POINT('Ctrl Pts',(-0.478042448200821,0.244811641135436,0.749808713357483));
#811=CARTESIAN_POINT('Ctrl Pts',(-0.487751201813817,0.256552534419791,0.743394393361072));
#812=CARTESIAN_POINT('Ctrl Pts',(-0.495624164894053,0.279349554125544,0.738136516222691));
#813=CARTESIAN_POINT('Ctrl Pts',(-0.496882763237173,0.287569529348162,0.737280946276442));
#814=CARTESIAN_POINT('Ctrl Pts',(-0.496883229413458,0.295275590551181,0.737280763311619));
#815=CARTESIAN_POINT('Ctrl Pts',(-0.496021826771918,0.295275590551181,0.741024769411618));
#816=CARTESIAN_POINT('Ctrl Pts',(-0.496021826771918,0.302626828293751,0.741024769411618));
#817=CARTESIAN_POINT('Ctrl Pts',(-0.493599729121662,0.31830507179726,0.742662793841932));
#818=CARTESIAN_POINT('Ctrl Pts',(-0.486088408430635,0.331581722782763,0.747610793385409));
#819=CARTESIAN_POINT('Ctrl Pts',(-0.477289394193421,0.342115815464525,0.753261609699592));
#820=CARTESIAN_POINT('Ctrl Pts',(-0.466046150349367,0.351286012942335,0.760367031242623));
#821=CARTESIAN_POINT('Ctrl Pts',(-0.452327706079774,0.354338571519737,0.768534488209495));
#822=CARTESIAN_POINT('Ctrl Pts',(-0.439352118952373,0.354340367148486,0.776025201395051));
#823=CARTESIAN_POINT('Ctrl Pts',(-0.432393452734384,0.352843159877281,0.779923265424662));
#824=CARTESIAN_POINT('Ctrl Pts',(-0.413069966267423,0.343585094300415,0.790423520162353));
#825=CARTESIAN_POINT('Ctrl Pts',(-0.403155603253889,0.332335502729224,0.795406594280603));
#826=CARTESIAN_POINT('Ctrl Pts',(-0.396041886893265,0.313257296317851,0.798945286722551));
#827=CARTESIAN_POINT('Ctrl Pts',(-0.393770168464499,0.303655402514335,0.800062517874356));
#828=CARTESIAN_POINT('Ctrl Pts',(-0.393472744657482,0.289824745407147,0.800206216325515));
#829=CARTESIAN_POINT('Ctrl Pts',(-0.396238288109962,0.275420941060708,0.798851459488284));
#830=CARTESIAN_POINT('Ctrl Pts',(-0.404220711008533,0.257873536106007,0.79486842478838));
#831=CARTESIAN_POINT('Ctrl Pts',(-0.419997677439342,0.241389608403127,0.786783585021016));
#832=CARTESIAN_POINT('Ctrl Pts',(-0.437816445037893,0.236146289722021,0.776916857610884));
#833=CARTESIAN_POINT('Ctrl Pts',(-0.452391723962854,0.236230642699989,0.768496259220436));
#834=CARTESIAN_POINT('Ctrl Pts',(-0.459235905300659,0.237688295845211,0.764428436071902));
#835=CARTESIAN_POINT('Ctrl Pts',(-0.478024882276716,0.247015223121565,0.752920980781995));
#836=CARTESIAN_POINT('Ctrl Pts',(-0.487313340281882,0.258296227249326,0.746818514947941));
#837=CARTESIAN_POINT('Ctrl Pts',(-0.494820192485576,0.280074677069506,0.741836137109958));
#838=CARTESIAN_POINT('Ctrl Pts',(-0.496021826771918,0.287924352808611,0.741024769411618));
#839=CARTESIAN_POINT('Ctrl Pts',(-0.496021826771918,0.295275590551181,0.741024769411618));
#840=CARTESIAN_POINT('',(-0.498606034696538,0.295275590551181,0.729792751111622));
#841=CARTESIAN_POINT('Origin',(-0.460629921259842,0.295275590551181,-0.797834427108499));
#842=CARTESIAN_POINT('',(-0.458661417322835,0.354330708661418,-0.794424878274702));
#843=CARTESIAN_POINT('',(-0.458661417322835,0.236220472440945,-0.794424878274702));
#844=CARTESIAN_POINT('Origin',(-0.458661417322835,0.295275590551181,-0.794424878274702));
#845=CARTESIAN_POINT('Origin',(-0.458661417322835,0.295275590551181,-0.794424878274702));
#846=CARTESIAN_POINT('',(-0.46259842519685,0.346456692913386,-0.801243975942296));
#847=CARTESIAN_POINT('',(-0.460629921259842,0.350393700787402,-0.797834427108499));
#848=CARTESIAN_POINT('Origin',(-0.46259842519685,0.295275590551181,-0.801243975942296));
#849=CARTESIAN_POINT('Origin',(-0.440944881889764,0.295275590551181,-0.763738938770529));
#850=CARTESIAN_POINT('',(-0.393735361758008,0.295275590551181,-0.800079887521854));
#851=CARTESIAN_POINT('',(-0.445873691829743,0.236185762366661,-0.772262505396158));
#852=CARTESIAN_POINT('Ctrl Pts',(-0.393735361758008,0.295275590551181,-0.800079887521854));
#853=CARTESIAN_POINT('Ctrl Pts',(-0.393735361758008,0.299870112279935,-0.800079887521854));
#854=CARTESIAN_POINT('Ctrl Pts',(-0.394661462129743,0.309367071278561,-0.799627504740998));
#855=CARTESIAN_POINT('Ctrl Pts',(-0.400183941561917,0.325247687808764,-0.796899651117228));
#856=CARTESIAN_POINT('Ctrl Pts',(-0.408016892335879,0.336489166744055,-0.792931314640219));
#857=CARTESIAN_POINT('Ctrl Pts',(-0.420810006222242,0.348114110607773,-0.786253772860178));
#858=CARTESIAN_POINT('Ctrl Pts',(-0.438463786372915,0.355630587871554,-0.776639212130063));
#859=CARTESIAN_POINT('Ctrl Pts',(-0.454820836485423,0.354058073239975,-0.767069987395273));
#860=CARTESIAN_POINT('Ctrl Pts',(-0.463492148315241,0.350679116806027,-0.761816282701685));
#861=CARTESIAN_POINT('Ctrl Pts',(-0.467181475397495,0.348868014174165,-0.759558130966317));
#862=CARTESIAN_POINT('Ctrl Pts',(-0.475777896660721,0.343859794398025,-0.754252412608155));
#863=CARTESIAN_POINT('Ctrl Pts',(-0.48651752525008,0.332592210772253,-0.747349025914035));
#864=CARTESIAN_POINT('Ctrl Pts',(-0.494305236404193,0.313870091778866,-0.742178945073375));
#865=CARTESIAN_POINT('Ctrl Pts',(-0.496447850137582,0.297834417023,-0.740736882701667));
#866=CARTESIAN_POINT('Ctrl Pts',(-0.495729964646633,0.286386939613067,-0.741221078981575));
#867=CARTESIAN_POINT('Ctrl Pts',(-0.493122961741544,0.274098673919529,-0.742962522637133));
#868=CARTESIAN_POINT('Ctrl Pts',(-0.489429368741707,0.265005156415857,-0.7454153520468));
#869=CARTESIAN_POINT('Ctrl Pts',(-0.482385960847657,0.253866609929766,-0.749999572621063));
#870=CARTESIAN_POINT('Ctrl Pts',(-0.471538359384056,0.242548526866675,-0.756954389352605));
#871=CARTESIAN_POINT('Ctrl Pts',(-0.456526410198855,0.236643076268848,-0.766077876625763));
#872=CARTESIAN_POINT('Ctrl Pts',(-0.447514440721079,0.236173940913113,-0.771316241055743));
#873=CARTESIAN_POINT('Ctrl Pts',(-0.445873691829743,0.236185762366661,-0.772262505396158));
#874=CARTESIAN_POINT('Ctrl Pts',(-0.445873691829743,0.236185762366661,-0.772262505396158));
#875=CARTESIAN_POINT('Ctrl Pts',(-0.443822764573557,0.236200539119774,-0.773445330713038));
#876=CARTESIAN_POINT('Ctrl Pts',(-0.438070510999601,0.236666806376666,-0.776730263399377));
#877=CARTESIAN_POINT('Ctrl Pts',(-0.42444659817664,0.240159446172613,-0.784331028870607));
#878=CARTESIAN_POINT('Ctrl Pts',(-0.414268376344844,0.24776677890747,-0.789683867950364));
#879=CARTESIAN_POINT('Ctrl Pts',(-0.404395026634287,0.258958931303485,-0.794775909934348));
#880=CARTESIAN_POINT('Ctrl Pts',(-0.400374834496599,0.265598934258192,-0.796793166457281));
#881=CARTESIAN_POINT('Ctrl Pts',(-0.395042020411812,0.280080956486175,-0.799443113395868));
#882=CARTESIAN_POINT('Ctrl Pts',(-0.393735361758008,0.287924352808611,-0.800079887521854));
#883=CARTESIAN_POINT('Ctrl Pts',(-0.393735361758008,0.295275590551181,-0.800079887521854));
#884=CARTESIAN_POINT('',(-0.440944881889764,0.236220472440945,-0.763738938770529));
#885=CARTESIAN_POINT('Origin',(-0.46259842519685,0.354330708661418,-0.801243975942296));
#886=CARTESIAN_POINT('Ctrl Pts',(-0.38271604461213,0.295275590551181,-0.796701868083238));
#887=CARTESIAN_POINT('Ctrl Pts',(-0.38271604461213,0.300531004783998,-0.796701868083238));
#888=CARTESIAN_POINT('Ctrl Pts',(-0.383790532272718,0.311395381186766,-0.796188260942589));
#889=CARTESIAN_POINT('Ctrl Pts',(-0.390174152964589,0.329494901730794,-0.793098413584699));
#890=CARTESIAN_POINT('Ctrl Pts',(-0.399157163627588,0.34221276083891,-0.788625145860284));
#891=CARTESIAN_POINT('Ctrl Pts',(-0.413718723975967,0.35528148766145,-0.781125782733941));
#892=CARTESIAN_POINT('Ctrl Pts',(-0.433634194424949,0.363650755088545,-0.770363534519318));
#893=CARTESIAN_POINT('Ctrl Pts',(-0.451978015601645,0.361902473853768,-0.759612990003966));
#894=CARTESIAN_POINT('Ctrl Pts',(-0.461729400513014,0.358132543596751,-0.753667798246563));
#895=CARTESIAN_POINT('Ctrl Pts',(-0.465880744024759,0.356108338400438,-0.751107511621083));
#896=CARTESIAN_POINT('Ctrl Pts',(-0.475560588068035,0.350504672951517,-0.745081519016712));
#897=CARTESIAN_POINT('Ctrl Pts',(-0.48772913764905,0.337837989039374,-0.737154749511463));
#898=CARTESIAN_POINT('Ctrl Pts',(-0.496634526839323,0.316541487974414,-0.731142497479586));
#899=CARTESIAN_POINT('Ctrl Pts',(-0.499095543747055,0.298203634279649,-0.729455788069043));
#900=CARTESIAN_POINT('Ctrl Pts',(-0.498270544736073,0.285107108523801,-0.730022536177151));
#901=CARTESIAN_POINT('Ctrl Pts',(-0.495282798847582,0.271073949138289,-0.732053471882898));
#902=CARTESIAN_POINT('Ctrl Pts',(-0.491060364504248,0.260729393200784,-0.73490504908729));
#903=CARTESIAN_POINT('Ctrl Pts',(-0.483049680279555,0.248116782996291,-0.740196468353833));
#904=CARTESIAN_POINT('Ctrl Pts',(-0.470765286107255,0.235390728836853,-0.748175693535672));
#905=CARTESIAN_POINT('Ctrl Pts',(-0.451524347962675,0.22789256067423,-0.75994724388965));
#906=CARTESIAN_POINT('Ctrl Pts',(-0.435087492463175,0.228357721510145,-0.769393419845349));
#907=CARTESIAN_POINT('Ctrl Pts',(-0.417833023350405,0.232733792105343,-0.778975728095409));
#908=CARTESIAN_POINT('Ctrl Pts',(-0.40628309479215,0.241248376175671,-0.784975089080484));
#909=CARTESIAN_POINT('Ctrl Pts',(-0.395008706100455,0.253874508596427,-0.790703231936179));
#910=CARTESIAN_POINT('Ctrl Pts',(-0.390386837619218,0.261399754856903,-0.79298013548723));
#911=CARTESIAN_POINT('Ctrl Pts',(-0.384233140322282,0.277896701749936,-0.795978560935506));
#912=CARTESIAN_POINT('Ctrl Pts',(-0.38271604461213,0.286866924373951,-0.796701868083238));
#913=CARTESIAN_POINT('Ctrl Pts',(-0.38271604461213,0.295275590551181,-0.796701868083238));
#914=CARTESIAN_POINT('Ctrl Pts',(-0.386389150327423,0.295275590551181,-0.797827874562777));
#915=CARTESIAN_POINT('Ctrl Pts',(-0.386386970069634,0.300307713672003,-0.797828726060501));
#916=CARTESIAN_POINT('Ctrl Pts',(-0.387415135454291,0.310721029760721,-0.797334445845122));
#917=CARTESIAN_POINT('Ctrl Pts',(-0.393510926301571,0.328079021217245,-0.794365442045621));
#918=CARTESIAN_POINT('Ctrl Pts',(-0.402111592261987,0.340307517997032,-0.790060379293541));
#919=CARTESIAN_POINT('Ctrl Pts',(-0.416081702577296,0.352890976839017,-0.782835357429914));
#920=CARTESIAN_POINT('Ctrl Pts',(-0.435242197011646,0.360977284964662,-0.772456608250955));
#921=CARTESIAN_POINT('Ctrl Pts',(-0.452927474033242,0.359286766383517,-0.76209755981671));
#922=CARTESIAN_POINT('Ctrl Pts',(-0.462313792163833,0.355645124080267,-0.756385456706932));
#923=CARTESIAN_POINT('Ctrl Pts',(-0.466314494601349,0.353691551453802,-0.753924123289662));
#924=CARTESIAN_POINT('Ctrl Pts',(-0.475630470880882,0.348290510561783,-0.748140011535797));
#925=CARTESIAN_POINT('Ctrl Pts',(-0.487326578400195,0.336086997777078,-0.740551894868244));
#926=CARTESIAN_POINT('Ctrl Pts',(-0.49585814093747,0.315649798180234,-0.734821155018423));
#927=CARTESIAN_POINT('Ctrl Pts',(-0.498213530186778,0.298081444510264,-0.733215711303517));
#928=CARTESIAN_POINT('Ctrl Pts',(-0.497423756109786,0.285533933336556,-0.733755223592008));
#929=CARTESIAN_POINT('Ctrl Pts',(-0.494562969980866,0.272083218769273,-0.735689680677695));
#930=CARTESIAN_POINT('Ctrl Pts',(-0.490516684236393,0.262155446276988,-0.738408318969247));
#931=CARTESIAN_POINT('Ctrl Pts',(-0.482827552846237,0.250032643118347,-0.74346476715078));
#932=CARTESIAN_POINT('Ctrl Pts',(-0.471024555130458,0.23777930839546,-0.751100763785278));
#933=CARTESIAN_POINT('Ctrl Pts',(-0.452486986495037,0.230531694015154,-0.76241926090658));
#934=CARTESIAN_POINT('Ctrl Pts',(-0.436649775725536,0.230982147461753,-0.771522266382294));
#935=CARTESIAN_POINT('Ctrl Pts',(-0.420037163678178,0.235209124325843,-0.780761146306874));
#936=CARTESIAN_POINT('Ctrl Pts',(-0.408944535214481,0.243420965410374,-0.786545047089069));
#937=CARTESIAN_POINT('Ctrl Pts',(-0.398137964248287,0.2555690362974,-0.792060552304298));
#938=CARTESIAN_POINT('Ctrl Pts',(-0.393716219284649,0.262799699702475,-0.794251230551636));
#939=CARTESIAN_POINT('Ctrl Pts',(-0.387836273911551,0.278624408843767,-0.797133345147468));
#940=CARTESIAN_POINT('Ctrl Pts',(-0.386390633567961,0.287220041220124,-0.797827367988626));
#941=CARTESIAN_POINT('Ctrl Pts',(-0.386389150327423,0.295275590551181,-0.797827874562777));
#942=CARTESIAN_POINT('Ctrl Pts',(-0.390062256042715,0.295275590551181,-0.798953881042315));
#943=CARTESIAN_POINT('Ctrl Pts',(-0.390064436300504,0.300093403391929,-0.798953029544591));
#944=CARTESIAN_POINT('Ctrl Pts',(-0.39103685894817,0.310041422704605,-0.798481319838465));
#945=CARTESIAN_POINT('Ctrl Pts',(-0.396847168224934,0.326663568322313,-0.795632622656306));
#946=CARTESIAN_POINT('Ctrl Pts',(-0.40506246370148,0.338394409585934,-0.791496081206962));
#947=CARTESIAN_POINT('Ctrl Pts',(-0.418447027620913,0.350504621430206,-0.784544198164206));
#948=CARTESIAN_POINT('Ctrl Pts',(-0.436855783786218,0.358304057995437,-0.774546138398425));
#949=CARTESIAN_POINT('Ctrl Pts',(-0.453871378053826,0.356673780710226,-0.764585417582529));
#950=CARTESIAN_POINT('Ctrl Pts',(-0.462907756664422,0.353166536322511,-0.759098624241316));
#951=CARTESIAN_POINT('Ctrl Pts',(-0.466747724820905,0.351284801120801,-0.756741519297739));
#952=CARTESIAN_POINT('Ctrl Pts',(-0.475708013847874,0.346073956787759,-0.75119392008907));
#953=CARTESIAN_POINT('Ctrl Pts',(-0.486920084498935,0.334343202034549,-0.743951880557254));
#954=CARTESIAN_POINT('Ctrl Pts',(-0.495081622306046,0.314761781573047,-0.738500287534539));
#955=CARTESIAN_POINT('Ctrl Pts',(-0.497329863697859,0.297956606792385,-0.736976959467193));
#956=CARTESIAN_POINT('Ctrl Pts',(-0.49657675327292,0.285960114800312,-0.737488391566718));
#957=CARTESIAN_POINT('Ctrl Pts',(-0.493842790608259,0.273089404288544,-0.739326313842335));
#958=CARTESIAN_POINT('Ctrl Pts',(-0.489973049009562,0.263579103339654,-0.741912082164842));
#959=CARTESIAN_POINT('Ctrl Pts',(-0.482608088280975,0.25195074980771,-0.746731273824116));
#960=CARTESIAN_POINT('Ctrl Pts',(-0.471279090360853,0.240159947308069,-0.754029319103));
#961=CARTESIAN_POINT('Ctrl Pts',(-0.453449417256597,0.233172191144069,-0.764890855002281));
#962=CARTESIAN_POINT('Ctrl Pts',(-0.438211221437124,0.23360579927207,-0.773651318613859));
#963=CARTESIAN_POINT('Ctrl Pts',(-0.422242457848866,0.237684113952113,-0.782545610659142));
#964=CARTESIAN_POINT('Ctrl Pts',(-0.411606935922513,0.245594189672767,-0.788113909941779));
#965=CARTESIAN_POINT('Ctrl Pts',(-0.401265768486455,0.257264403602511,-0.793418589566229));
#966=CARTESIAN_POINT('Ctrl Pts',(-0.397045452831167,0.26419898941262,-0.795522071392875));
#967=CARTESIAN_POINT('Ctrl Pts',(-0.391438886822543,0.279353249392344,-0.798288329183906));
#968=CARTESIAN_POINT('Ctrl Pts',(-0.390060772802176,0.287571235962439,-0.798954387616466));
#969=CARTESIAN_POINT('Ctrl Pts',(-0.390062256042715,0.295275590551181,-0.798953881042315));
#970=CARTESIAN_POINT('Ctrl Pts',(-0.393735361758008,0.295275590551181,-0.800079887521854));
#971=CARTESIAN_POINT('Ctrl Pts',(-0.393735361758008,0.299870112279935,-0.800079887521854));
#972=CARTESIAN_POINT('Ctrl Pts',(-0.394661462129743,0.309367071278561,-0.799627504740998));
#973=CARTESIAN_POINT('Ctrl Pts',(-0.400183941561917,0.325247687808764,-0.796899651117228));
#974=CARTESIAN_POINT('Ctrl Pts',(-0.408016892335879,0.336489166744055,-0.792931314640219));
#975=CARTESIAN_POINT('Ctrl Pts',(-0.420810006222242,0.348114110607773,-0.786253772860178));
#976=CARTESIAN_POINT('Ctrl Pts',(-0.438463786372915,0.355630587871554,-0.776639212130063));
#977=CARTESIAN_POINT('Ctrl Pts',(-0.454820836485423,0.354058073239975,-0.767069987395273));
#978=CARTESIAN_POINT('Ctrl Pts',(-0.463492148315241,0.350679116806027,-0.761816282701685));
#979=CARTESIAN_POINT('Ctrl Pts',(-0.467181475397495,0.348868014174165,-0.759558130966317));
#980=CARTESIAN_POINT('Ctrl Pts',(-0.475777896660721,0.343859794398025,-0.754252412608155));
#981=CARTESIAN_POINT('Ctrl Pts',(-0.48651752525008,0.332592210772253,-0.747349025914035));
#982=CARTESIAN_POINT('Ctrl Pts',(-0.494305236404193,0.313870091778866,-0.742178945073375));
#983=CARTESIAN_POINT('Ctrl Pts',(-0.496447850137582,0.297834417023,-0.740736882701667));
#984=CARTESIAN_POINT('Ctrl Pts',(-0.495729964646633,0.286386939613067,-0.741221078981575));
#985=CARTESIAN_POINT('Ctrl Pts',(-0.493122961741544,0.274098673919529,-0.742962522637133));
#986=CARTESIAN_POINT('Ctrl Pts',(-0.489429368741707,0.265005156415857,-0.7454153520468));
#987=CARTESIAN_POINT('Ctrl Pts',(-0.482385960847657,0.253866609929766,-0.749999572621063));
#988=CARTESIAN_POINT('Ctrl Pts',(-0.471538359384056,0.242548526866675,-0.756954389352605));
#989=CARTESIAN_POINT('Ctrl Pts',(-0.454412055788959,0.235811324484992,-0.76736287201921));
#990=CARTESIAN_POINT('Ctrl Pts',(-0.439773504699485,0.236230225223678,-0.775780165150804));
#991=CARTESIAN_POINT('Ctrl Pts',(-0.42444659817664,0.240159446172613,-0.784331028870607));
#992=CARTESIAN_POINT('Ctrl Pts',(-0.414268376344844,0.24776677890747,-0.789683867950364));
#993=CARTESIAN_POINT('Ctrl Pts',(-0.404395026634287,0.258958931303485,-0.794775909934348));
#994=CARTESIAN_POINT('Ctrl Pts',(-0.400374834496599,0.265598934258192,-0.796793166457281));
#995=CARTESIAN_POINT('Ctrl Pts',(-0.395042020411812,0.280080956486175,-0.799443113395868));
#996=CARTESIAN_POINT('Ctrl Pts',(-0.393735361758008,0.287924352808611,-0.800079887521854));
#997=CARTESIAN_POINT('Ctrl Pts',(-0.393735361758008,0.295275590551181,-0.800079887521854));
#998=CARTESIAN_POINT('',(-0.38271604461213,0.295275590551181,-0.796701868083238));
#999=CARTESIAN_POINT('Origin',(0.921259842519685,0.295275590551181,0.));
#1000=CARTESIAN_POINT('',(0.917322834645669,0.354330708661418,7.23216613669695E-18));
#1001=CARTESIAN_POINT('',(0.917322834645669,0.236220472440945,7.23216613669695E-18));
#1002=CARTESIAN_POINT('Origin',(0.917322834645669,0.295275590551181,0.));
#1003=CARTESIAN_POINT('Origin',(0.917322834645669,0.295275590551181,0.));
#1004=CARTESIAN_POINT('',(0.925196850393701,0.346456692913386,-6.26787731847069E-18));
#1005=CARTESIAN_POINT('',(0.921259842519685,0.350393700787402,-6.75002172758382E-18));
#1006=CARTESIAN_POINT('Origin',(0.925196850393701,0.295275590551181,0.));
#1007=CARTESIAN_POINT('Origin',(0.881889763779528,0.295275590551181,0.));
#1008=CARTESIAN_POINT('',(0.889757188529926,0.295275590551181,0.0590551181102361));
#1009=CARTESIAN_POINT('',(0.891733581873787,0.236214023084621,-6.52655818481936E-7));
#1010=CARTESIAN_POINT('Ctrl Pts',(0.889757188529926,0.295275590551181,0.0590551181102361));
#1011=CARTESIAN_POINT('Ctrl Pts',(0.889757188529926,0.302626828293751,0.0590551181102361));
#1012=CARTESIAN_POINT('Ctrl Pts',(0.889858772846322,0.310474211157793,0.0576096286645181));
#1013=CARTESIAN_POINT('Ctrl Pts',(0.890185497557371,0.323161812521741,0.0524005366029715));
#1014=CARTESIAN_POINT('Ctrl Pts',(0.89054616579188,0.333263033435128,0.0462305268058348));
#1015=CARTESIAN_POINT('Ctrl Pts',(0.891179703852889,0.345678480397475,0.0328826797519904));
#1016=CARTESIAN_POINT('Ctrl Pts',(0.891651419242514,0.353129715015379,0.0157555119315496));
#1017=CARTESIAN_POINT('Ctrl Pts',(0.89177087612464,0.354879090026841,-0.00141161961619574));
#1018=CARTESIAN_POINT('Ctrl Pts',(0.891621203323996,0.352709584486361,-0.017315616338037));
#1019=CARTESIAN_POINT('Ctrl Pts',(0.891126295607064,0.34467581239174,-0.0338817983073082));
#1020=CARTESIAN_POINT('Ctrl Pts',(0.890545973810593,0.333258358185659,-0.0462570616341224));
#1021=CARTESIAN_POINT('Ctrl Pts',(0.889997935573057,0.318053839697414,-0.0555208395363153));
#1022=CARTESIAN_POINT('Ctrl Pts',(0.889717872791196,0.300737484109389,-0.0596175239186146));
#1023=CARTESIAN_POINT('Ctrl Pts',(0.889772869650535,0.284157321285714,-0.0588318012688657));
#1024=CARTESIAN_POINT('Ctrl Pts',(0.89016471030865,0.26700331209803,-0.0528924818509669));
#1025=CARTESIAN_POINT('Ctrl Pts',(0.890647118038906,0.255466711560386,-0.0441530734842551));
#1026=CARTESIAN_POINT('Ctrl Pts',(0.891215449687296,0.244231684272391,-0.0315001332180316));
#1027=CARTESIAN_POINT('Ctrl Pts',(0.891653654452127,0.23741850440008,-0.0161052494961596));
#1028=CARTESIAN_POINT('Ctrl Pts',(0.89173407520106,0.236205130580805,-0.00380516560455692));
#1029=CARTESIAN_POINT('Ctrl Pts',(0.891733581873787,0.236214023084621,-6.52655818480262E-7));
#1030=CARTESIAN_POINT('Ctrl Pts',(0.891733581873787,0.236214023084621,-6.52655818480262E-7));
#1031=CARTESIAN_POINT('Ctrl Pts',(0.891733335210017,0.236218469338929,0.00190160484553298));
#1032=CARTESIAN_POINT('Ctrl Pts',(0.891707110364749,0.236618492908752,0.00953050503590536));
#1033=CARTESIAN_POINT('Ctrl Pts',(0.891487545903113,0.239899784389897,0.0231587472910899));
#1034=CARTESIAN_POINT('Ctrl Pts',(0.890933856634447,0.249367757980808,0.0384661099844087));
#1035=CARTESIAN_POINT('Ctrl Pts',(0.89035476747539,0.261889038632774,0.049709298962685));
#1036=CARTESIAN_POINT('Ctrl Pts',(0.889865936428377,0.278214174377649,0.0575260169119669));
#1037=CARTESIAN_POINT('Ctrl Pts',(0.889757188529926,0.28976216422863,0.0590551181102361));
#1038=CARTESIAN_POINT('Ctrl Pts',(0.889757188529926,0.295275590551181,0.0590551181102361));
#1039=CARTESIAN_POINT('',(0.881889763779528,0.236220472440945,7.23216613669695E-18));
#1040=CARTESIAN_POINT('Origin',(0.925196850393701,0.354330708661418,0.));
#1041=CARTESIAN_POINT('Ctrl Pts',(0.881322079308668,0.295275590551181,0.0669091169716156));
#1042=CARTESIAN_POINT('Ctrl Pts',(0.881322079308668,0.303684256728413,0.0669091169716156));
#1043=CARTESIAN_POINT('Ctrl Pts',(0.881453864560869,0.312659257330374,0.0652385524794977));
#1044=CARTESIAN_POINT('Ctrl Pts',(0.881876106267557,0.3271110893627,0.0592534040613761));
#1045=CARTESIAN_POINT('Ctrl Pts',(0.882341332471185,0.338577156110965,0.0521850531672251));
#1046=CARTESIAN_POINT('Ctrl Pts',(0.883153912175052,0.35255313741115,0.0370045412855109));
#1047=CARTESIAN_POINT('Ctrl Pts',(0.883755394316839,0.360868616064434,0.0176971049333973));
#1048=CARTESIAN_POINT('Ctrl Pts',(0.883907299537668,0.362812937347949,-0.00158542131815368));
#1049=CARTESIAN_POINT('Ctrl Pts',(0.883716998536083,0.360402680374362,-0.0194497797058504));
#1050=CARTESIAN_POINT('Ctrl Pts',(0.883085410289922,0.35142507500593,-0.0381436218379665));
#1051=CARTESIAN_POINT('Ctrl Pts',(0.882341104043819,0.338571995443067,-0.0522145681916415));
#1052=CARTESIAN_POINT('Ctrl Pts',(0.881634128672472,0.321313283894714,-0.0628308785594333));
#1053=CARTESIAN_POINT('Ctrl Pts',(0.881271100822783,0.301528390055878,-0.0675585819017773));
#1054=CARTESIAN_POINT('Ctrl Pts',(0.881342498661647,0.282550635687522,-0.0666503731471541));
#1055=CARTESIAN_POINT('Ctrl Pts',(0.881849692633846,0.262985208723951,-0.0598098663896337));
#1056=CARTESIAN_POINT('Ctrl Pts',(0.882470842296596,0.249926537645156,-0.0498215051792715));
#1057=CARTESIAN_POINT('Ctrl Pts',(0.883199559507088,0.237279108600409,-0.0354470630402417));
#1058=CARTESIAN_POINT('Ctrl Pts',(0.883828076075422,0.228729986484459,-0.0159197380585002));
#1059=CARTESIAN_POINT('Ctrl Pts',(0.883906052757889,0.227746872184418,0.0063271463453899));
#1060=CARTESIAN_POINT('Ctrl Pts',(0.883546772178791,0.232441550433812,0.0260301205248815));
#1061=CARTESIAN_POINT('Ctrl Pts',(0.882839117710443,0.243045528796262,0.0433425963146539));
#1062=CARTESIAN_POINT('Ctrl Pts',(0.882094903670455,0.257181355394679,0.0561616849535178));
#1063=CARTESIAN_POINT('Ctrl Pts',(0.881463249052122,0.275758036690818,0.0651406287356582));
#1064=CARTESIAN_POINT('Ctrl Pts',(0.881322079308668,0.288969093188075,0.0669091169716156));
#1065=CARTESIAN_POINT('Ctrl Pts',(0.881322079308668,0.295275590551181,0.0669091169716156));
#1066=CARTESIAN_POINT('Ctrl Pts',(0.88413378238242,0.295275590551181,0.0642911173511558));
#1067=CARTESIAN_POINT('Ctrl Pts',(0.884133956714579,0.303330339722132,0.0642896501031149));
#1068=CARTESIAN_POINT('Ctrl Pts',(0.884255696531465,0.311932843598007,0.0626954634404951));
#1069=CARTESIAN_POINT('Ctrl Pts',(0.884645860501912,0.325793310432326,0.0569688110068861));
#1070=CARTESIAN_POINT('Ctrl Pts',(0.885076587452814,0.336808214751231,0.0501994903771607));
#1071=CARTESIAN_POINT('Ctrl Pts',(0.885829019848935,0.350259446246347,0.0356316518986217));
#1072=CARTESIAN_POINT('Ctrl Pts',(0.886387264560946,0.358287529802154,0.0170502116489905));
#1073=CARTESIAN_POINT('Ctrl Pts',(0.886528380250121,0.36016713979039,-0.00152804573510093));
#1074=CARTESIAN_POINT('Ctrl Pts',(0.886351592656803,0.357837234038728,-0.0187390023194479));
#1075=CARTESIAN_POINT('Ctrl Pts',(0.885765535355896,0.349173851788542,-0.0367237231240043));
#1076=CARTESIAN_POINT('Ctrl Pts',(0.885075897877817,0.336799818350438,-0.0502295813910343));
#1077=CARTESIAN_POINT('Ctrl Pts',(0.884421928344164,0.320226640736404,-0.0603951938585336));
#1078=CARTESIAN_POINT('Ctrl Pts',(0.884086505326994,0.301263587177719,-0.0649126050344098));
#1079=CARTESIAN_POINT('Ctrl Pts',(0.884152705641415,0.283087604724319,-0.0640438794682388));
#1080=CARTESIAN_POINT('Ctrl Pts',(0.884621179885766,0.264327240969391,-0.0575040799307997));
#1081=CARTESIAN_POINT('Ctrl Pts',(0.885196517678525,0.251772892865505,-0.0479318040925164));
#1082=CARTESIAN_POINT('Ctrl Pts',(0.885871254705272,0.239600390859257,-0.0341301372671408));
#1083=CARTESIAN_POINT('Ctrl Pts',(0.886454900024745,0.231342356030784,-0.0153393073668514));
#1084=CARTESIAN_POINT('Ctrl Pts',(0.88652733601577,0.230392047579622,0.00609828072033859));
#1085=CARTESIAN_POINT('Ctrl Pts',(0.886193808151215,0.234927217640579,0.0250734483359344));
#1086=CARTESIAN_POINT('Ctrl Pts',(0.885537478264639,0.245152379819809,0.0417175260424077));
#1087=CARTESIAN_POINT('Ctrl Pts',(0.884848159331413,0.258751229486487,0.054012017638297));
#1088=CARTESIAN_POINT('Ctrl Pts',(0.884264311644381,0.276576254560557,0.0626013989816996));
#1089=CARTESIAN_POINT('Ctrl Pts',(0.884133628933408,0.289234650480666,0.0642933888678862));
#1090=CARTESIAN_POINT('Ctrl Pts',(0.88413378238242,0.295275590551181,0.0642911173511558));
#1091=CARTESIAN_POINT('Ctrl Pts',(0.886945485456173,0.295275590551181,0.0616731177306959));
#1092=CARTESIAN_POINT('Ctrl Pts',(0.886945311124015,0.302980745300032,0.0616745849787368));
#1093=CARTESIAN_POINT('Ctrl Pts',(0.887056940875726,0.31120062489016,0.0601527177035207));
#1094=CARTESIAN_POINT('Ctrl Pts',(0.887415743323015,0.324479591452114,0.0546851296574614));
#1095=CARTESIAN_POINT('Ctrl Pts',(0.887810910810251,0.335031974794862,0.0482160895958992));
#1096=CARTESIAN_POINT('Ctrl Pts',(0.888504596179005,0.347972171562278,0.0342555691388796));
#1097=CARTESIAN_POINT('Ctrl Pts',(0.889019548998407,0.355710801277659,0.0164024052159564));
#1098=CARTESIAN_POINT('Ctrl Pts',(0.889149795412187,0.3575248875844,-0.0014689951992485));
#1099=CARTESIAN_POINT('Ctrl Pts',(0.888986609203276,0.355275030821995,-0.0180263937244395));
#1100=CARTESIAN_POINT('Ctrl Pts',(0.88844617054109,0.346927035609127,-0.0353016970212704));
#1101=CARTESIAN_POINT('Ctrl Pts',(0.887811179976595,0.335030535278288,-0.0482420484347296));
#1102=CARTESIAN_POINT('Ctrl Pts',(0.887210135901365,0.319140482855724,-0.057956524237215));
#1103=CARTESIAN_POINT('Ctrl Pts',(0.886902468286986,0.301002286987548,-0.0622635007859821));
#1104=CARTESIAN_POINT('Ctrl Pts',(0.886962662670767,0.283620352248917,-0.0614382949477811));
#1105=CARTESIAN_POINT('Ctrl Pts',(0.88739322305673,0.26566127985259,-0.0551982683098009));
#1106=CARTESIAN_POINT('Ctrl Pts',(0.887921442656977,0.253620356340037,-0.0460427745710101));
#1107=CARTESIAN_POINT('Ctrl Pts',(0.888543754489112,0.241910402013543,-0.0328170589911325));
#1108=CARTESIAN_POINT('Ctrl Pts',(0.889081606120586,0.233954487024878,-0.0147613189433878));
#1109=CARTESIAN_POINT('Ctrl Pts',(0.889148559795678,0.233035805878709,0.00586558806040066));
#1110=CARTESIAN_POINT('Ctrl Pts',(0.888840509930688,0.23741411718313,0.024115419480037));
#1111=CARTESIAN_POINT('Ctrl Pts',(0.888235496080251,0.247260906957261,0.0400911802566549));
#1112=CARTESIAN_POINT('Ctrl Pts',(0.887601511814431,0.260319164540965,0.0518589662779058));
#1113=CARTESIAN_POINT('Ctrl Pts',(0.887064873836118,0.27739595650791,0.0600652466659256));
#1114=CARTESIAN_POINT('Ctrl Pts',(0.886945638905186,0.289496606936039,0.0616708462139654));
#1115=CARTESIAN_POINT('Ctrl Pts',(0.886945485456173,0.295275590551181,0.0616731177306959));
#1116=CARTESIAN_POINT('Ctrl Pts',(0.889757188529926,0.295275590551181,0.0590551181102361));
#1117=CARTESIAN_POINT('Ctrl Pts',(0.889757188529926,0.302626828293751,0.0590551181102361));
#1118=CARTESIAN_POINT('Ctrl Pts',(0.889858772846322,0.310474211157793,0.0576096286645181));
#1119=CARTESIAN_POINT('Ctrl Pts',(0.890185497557371,0.323161812521741,0.0524005366029715));
#1120=CARTESIAN_POINT('Ctrl Pts',(0.89054616579188,0.333263033435128,0.0462305268058348));
#1121=CARTESIAN_POINT('Ctrl Pts',(0.891179703852889,0.345678480397475,0.0328826797519904));
#1122=CARTESIAN_POINT('Ctrl Pts',(0.891651419242514,0.353129715015379,0.0157555119315496));
#1123=CARTESIAN_POINT('Ctrl Pts',(0.89177087612464,0.354879090026841,-0.00141161961619574));
#1124=CARTESIAN_POINT('Ctrl Pts',(0.891621203323996,0.352709584486361,-0.017315616338037));
#1125=CARTESIAN_POINT('Ctrl Pts',(0.891126295607064,0.34467581239174,-0.0338817983073082));
#1126=CARTESIAN_POINT('Ctrl Pts',(0.890545973810593,0.333258358185659,-0.0462570616341224));
#1127=CARTESIAN_POINT('Ctrl Pts',(0.889997935573057,0.318053839697414,-0.0555208395363153));
#1128=CARTESIAN_POINT('Ctrl Pts',(0.889717872791196,0.300737484109389,-0.0596175239186146));
#1129=CARTESIAN_POINT('Ctrl Pts',(0.889772869650535,0.284157321285714,-0.0588318012688657));
#1130=CARTESIAN_POINT('Ctrl Pts',(0.89016471030865,0.26700331209803,-0.0528924818509669));
#1131=CARTESIAN_POINT('Ctrl Pts',(0.890647118038906,0.255466711560386,-0.0441530734842551));
#1132=CARTESIAN_POINT('Ctrl Pts',(0.891215449687296,0.244231684272391,-0.0315001332180316));
#1133=CARTESIAN_POINT('Ctrl Pts',(0.89170843006991,0.236566856571203,-0.014180888251739));
#1134=CARTESIAN_POINT('Ctrl Pts',(0.891769843053559,0.235680981273914,0.00563672243534935));
#1135=CARTESIAN_POINT('Ctrl Pts',(0.891487545903113,0.239899784389897,0.0231587472910899));
#1136=CARTESIAN_POINT('Ctrl Pts',(0.890933856634447,0.249367757980808,0.0384661099844087));
#1137=CARTESIAN_POINT('Ctrl Pts',(0.89035476747539,0.261889038632774,0.049709298962685));
#1138=CARTESIAN_POINT('Ctrl Pts',(0.889865936428377,0.278214174377649,0.0575260169119669));
#1139=CARTESIAN_POINT('Ctrl Pts',(0.889757188529926,0.28976216422863,0.0590551181102361));
#1140=CARTESIAN_POINT('Ctrl Pts',(0.889757188529926,0.295275590551181,0.0590551181102361));
#1141=CARTESIAN_POINT('',(0.881322079308668,0.295275590551181,0.0669091169716156));
#1142=CARTESIAN_POINT('Origin',(0.,0.590551181102362,0.));
#1143=UNCERTAINTY_MEASURE_WITH_UNIT(LENGTH_MEASURE(0.000393700787401575),
#1149,'DISTANCE_ACCURACY_VALUE',
'Maximum model space distance between geometric entities at asserted c
onnectivities');
#1144=UNCERTAINTY_MEASURE_WITH_UNIT(LENGTH_MEASURE(0.000393700787401575),
#1149,'DISTANCE_ACCURACY_VALUE',
'Maximum model space distance between geometric entities at asserted c
onnectivities');
#1145=(
GEOMETRIC_REPRESENTATION_CONTEXT(3)
GLOBAL_UNCERTAINTY_ASSIGNED_CONTEXT((#1143))
GLOBAL_UNIT_ASSIGNED_CONTEXT((#1149,#1153,#1154))
REPRESENTATION_CONTEXT('','3D')
);
#1146=(
GEOMETRIC_REPRESENTATION_CONTEXT(3)
GLOBAL_UNCERTAINTY_ASSIGNED_CONTEXT((#1144))
GLOBAL_UNIT_ASSIGNED_CONTEXT((#1149,#1153,#1154))
REPRESENTATION_CONTEXT('','3D')
);
#1147=DIMENSIONAL_EXPONENTS(1.,0.,0.,0.,0.,0.,0.);
#1148=DIMENSIONAL_EXPONENTS(0.,1.,0.,0.,0.,0.,0.);
#1149=(
CONVERSION_BASED_UNIT('inch',#1152)
LENGTH_UNIT()
NAMED_UNIT(#1147)
);
#1150=(
LENGTH_UNIT()
NAMED_UNIT(*)
SI_UNIT(.MILLI.,.METRE.)
);
#1151=(
LENGTH_UNIT()
NAMED_UNIT(*)
SI_UNIT(.CENTI.,.METRE.)
);
#1152=LENGTH_MEASURE_WITH_UNIT(LENGTH_MEASURE(25.4),#1150);
#1153=(
NAMED_UNIT(*)
PLANE_ANGLE_UNIT()
SI_UNIT($,.RADIAN.)
);
#1154=(
NAMED_UNIT(*)
SI_UNIT($,.STERADIAN.)
SOLID_ANGLE_UNIT()
);
#1155=SHAPE_DEFINITION_REPRESENTATION(#1156,#1157);
#1156=PRODUCT_DEFINITION_SHAPE('',$,#1159);
#1157=SHAPE_REPRESENTATION('',(#399),#1145);
#1158=PRODUCT_DEFINITION_CONTEXT('part definition',#1163,'design');
#1159=PRODUCT_DEFINITION('Tapered Vac Fitting','Basic Vacuum Nozzle',#1160,
#1158);
#1160=PRODUCT_DEFINITION_FORMATION('',$,#1165);
#1161=PRODUCT_RELATED_PRODUCT_CATEGORY('Basic Vacuum Nozzle',
'Basic Vacuum Nozzle',(#1165));
#1162=APPLICATION_PROTOCOL_DEFINITION('international standard',
'automotive_design',2009,#1163);
#1163=APPLICATION_CONTEXT(
'Core Data for Automotive Mechanical Design Process');
#1164=PRODUCT_CONTEXT('part definition',#1163,'mechanical');
#1165=PRODUCT('Tapered Vac Fitting','Basic Vacuum Nozzle',$,(#1164));
#1166=PRESENTATION_STYLE_ASSIGNMENT((#1167));
#1167=SURFACE_STYLE_USAGE(.BOTH.,#1170);
#1168=SURFACE_STYLE_RENDERING_WITH_PROPERTIES($,#1174,(#1169));
#1169=SURFACE_STYLE_TRANSPARENT(0.);
#1170=SURFACE_SIDE_STYLE('',(#1171,#1168));
#1171=SURFACE_STYLE_FILL_AREA(#1172);
#1172=FILL_AREA_STYLE('',(#1173));
#1173=FILL_AREA_STYLE_COLOUR('',#1174);
#1174=COLOUR_RGB('',0.0196078431372549,0.0196078431372549,0.0196078431372549);
ENDSEC;
END-ISO-10303-21;
