ISO-10303-21;
HEADER;
/* Generated by software containing ST-Developer
 * from STEP Tools, Inc. (www.steptools.com) 
 */

FILE_DESCRIPTION(
/* description */ (''),
/* implementation_level */ '2;1');

FILE_NAME(
/* name */ 'Cyclone Suction Side Fitting.stp',
/* time_stamp */ '2026-07-28T00:13:49-04:00',
/* author */ ('JoshuaEah'),
/* organization */ (''),
/* preprocessor_version */ 'ST-DEVELOPER v20.1',
/* originating_system */ 'Autodesk Inventor 2026',
/* authorisation */ '');

FILE_SCHEMA (('AUTOMOTIVE_DESIGN { 1 0 10303 214 3 1 1 }'));
ENDSEC;

DATA;
#10=MECHANICAL_DESIGN_GEOMETRIC_PRESENTATION_REPRESENTATION('',(#13),#795);
#11=SHAPE_REPRESENTATION_RELATIONSHIP('SRR','None',#806,#12);
#12=ADVANCED_BREP_SHAPE_REPRESENTATION('',(#14),#794);
#13=STYLED_ITEM('',(#815),#14);
#14=MANIFOLD_SOLID_BREP('Solid2',#407);
#15=LINE('',#681,#23);
#16=LINE('',#696,#24);
#17=LINE('',#710,#25);
#18=LINE('',#724,#26);
#19=LINE('',#750,#27);
#20=LINE('',#760,#28);
#21=LINE('',#772,#29);
#22=LINE('',#788,#30);
#23=VECTOR('',#523,0.797244094488189);
#24=VECTOR('',#542,0.875984251968504);
#25=VECTOR('',#559,0.953740157480315);
#26=VECTOR('',#576,1.07185039370079);
#27=VECTOR('',#611,0.953740157480315);
#28=VECTOR('',#624,0.875984251968504);
#29=VECTOR('',#639,0.875984251968504);
#30=VECTOR('',#660,0.953740157480315);
#31=CYLINDRICAL_SURFACE('',#436,0.797244094488189);
#32=CYLINDRICAL_SURFACE('',#443,0.875984251968504);
#33=CYLINDRICAL_SURFACE('',#453,0.953740157480315);
#34=CYLINDRICAL_SURFACE('',#460,1.07185039370079);
#35=CYLINDRICAL_SURFACE('',#477,0.953740157480315);
#36=CYLINDRICAL_SURFACE('',#484,0.875984251968504);
#37=CYLINDRICAL_SURFACE('',#491,0.875984251968504);
#38=CYLINDRICAL_SURFACE('',#500,0.953740157480315);
#39=FACE_BOUND('',#73,.T.);
#40=FACE_BOUND('',#79,.T.);
#41=FACE_BOUND('',#85,.T.);
#42=FACE_BOUND('',#88,.T.);
#43=PLANE('',#434);
#44=PLANE('',#451);
#45=PLANE('',#466);
#46=PLANE('',#471);
#47=FACE_OUTER_BOUND('',#71,.T.);
#48=FACE_OUTER_BOUND('',#72,.T.);
#49=FACE_OUTER_BOUND('',#74,.T.);
#50=FACE_OUTER_BOUND('',#75,.T.);
#51=FACE_OUTER_BOUND('',#76,.T.);
#52=FACE_OUTER_BOUND('',#77,.T.);
#53=FACE_OUTER_BOUND('',#78,.T.);
#54=FACE_OUTER_BOUND('',#80,.T.);
#55=FACE_OUTER_BOUND('',#81,.T.);
#56=FACE_OUTER_BOUND('',#82,.T.);
#57=FACE_OUTER_BOUND('',#83,.T.);
#58=FACE_OUTER_BOUND('',#84,.T.);
#59=FACE_OUTER_BOUND('',#86,.T.);
#60=FACE_OUTER_BOUND('',#87,.T.);
#61=FACE_OUTER_BOUND('',#89,.T.);
#62=FACE_OUTER_BOUND('',#90,.T.);
#63=FACE_OUTER_BOUND('',#91,.T.);
#64=FACE_OUTER_BOUND('',#92,.T.);
#65=FACE_OUTER_BOUND('',#93,.T.);
#66=FACE_OUTER_BOUND('',#94,.T.);
#67=FACE_OUTER_BOUND('',#95,.T.);
#68=FACE_OUTER_BOUND('',#96,.T.);
#69=FACE_OUTER_BOUND('',#97,.T.);
#70=FACE_OUTER_BOUND('',#98,.T.);
#71=EDGE_LOOP('',(#251,#252,#253,#254,#255));
#72=EDGE_LOOP('',(#256));
#73=EDGE_LOOP('',(#257));
#74=EDGE_LOOP('',(#258,#259,#260,#261,#262,#263));
#75=EDGE_LOOP('',(#264,#265,#266,#267,#268));
#76=EDGE_LOOP('',(#269,#270,#271,#272,#273,#274));
#77=EDGE_LOOP('',(#275,#276,#277,#278,#279));
#78=EDGE_LOOP('',(#280));
#79=EDGE_LOOP('',(#281));
#80=EDGE_LOOP('',(#282,#283,#284,#285,#286,#287));
#81=EDGE_LOOP('',(#288,#289,#290,#291,#292));
#82=EDGE_LOOP('',(#293,#294,#295,#296,#297,#298));
#83=EDGE_LOOP('',(#299,#300,#301,#302,#303));
#84=EDGE_LOOP('',(#304));
#85=EDGE_LOOP('',(#305));
#86=EDGE_LOOP('',(#306,#307,#308,#309,#310));
#87=EDGE_LOOP('',(#311));
#88=EDGE_LOOP('',(#312));
#89=EDGE_LOOP('',(#313,#314,#315,#316,#317));
#90=EDGE_LOOP('',(#318,#319,#320,#321,#322,#323));
#91=EDGE_LOOP('',(#324,#325,#326,#327,#328));
#92=EDGE_LOOP('',(#329,#330,#331,#332,#333,#334));
#93=EDGE_LOOP('',(#335,#336,#337,#338,#339,#340));
#94=EDGE_LOOP('',(#341,#342,#343,#344,#345,#346));
#95=EDGE_LOOP('',(#347,#348,#349,#350,#351,#352));
#96=EDGE_LOOP('',(#353,#354,#355,#356,#357,#358));
#97=EDGE_LOOP('',(#359,#360,#361,#362,#363,#364));
#98=EDGE_LOOP('',(#365,#366,#367,#368,#369,#370));
#99=CIRCLE('',#430,0.797244094488189);
#100=CIRCLE('',#431,0.797244094488189);
#101=CIRCLE('',#432,0.015748031496063);
#102=CIRCLE('',#433,0.812992125984252);
#103=CIRCLE('',#435,0.860236220472441);
#104=CIRCLE('',#437,0.797244094488189);
#105=CIRCLE('',#438,0.797244094488189);
#106=CIRCLE('',#440,0.875984251968504);
#107=CIRCLE('',#441,0.015748031496063);
#108=CIRCLE('',#442,0.875984251968504);
#109=CIRCLE('',#444,0.875984251968504);
#110=CIRCLE('',#445,0.875984251968504);
#111=CIRCLE('',#447,0.953740157480315);
#112=CIRCLE('',#448,0.031496062992126);
#113=CIRCLE('',#449,0.985236220472441);
#114=CIRCLE('',#450,0.953740157480315);
#115=CIRCLE('',#452,1.04035433070866);
#116=CIRCLE('',#454,0.953740157480315);
#117=CIRCLE('',#455,0.953740157480315);
#118=CIRCLE('',#457,1.07185039370079);
#119=CIRCLE('',#458,1.07185039370079);
#120=CIRCLE('',#459,0.031496062992126);
#121=CIRCLE('',#461,1.07185039370079);
#122=CIRCLE('',#462,1.07185039370079);
#123=CIRCLE('',#464,1.04035433070866);
#124=CIRCLE('',#465,0.031496062992126);
#125=CIRCLE('',#467,0.90748031496063);
#126=CIRCLE('',#469,0.828740157480315);
#127=CIRCLE('',#470,0.031496062992126);
#128=CIRCLE('',#472,0.922244094488189);
#129=CIRCLE('',#474,0.953740157480315);
#130=CIRCLE('',#475,0.953740157480315);
#131=CIRCLE('',#476,0.031496062992126);
#132=CIRCLE('',#478,0.953740157480315);
#133=CIRCLE('',#479,0.953740157480315);
#134=CIRCLE('',#481,0.875984251968504);
#135=CIRCLE('',#482,0.875984251968504);
#136=CIRCLE('',#483,0.031496062992126);
#137=CIRCLE('',#485,0.875984251968504);
#138=CIRCLE('',#486,0.875984251968504);
#139=CIRCLE('',#488,0.0344488188976378);
#140=CIRCLE('',#489,0.875984251968504);
#141=CIRCLE('',#490,0.875984251968504);
#142=CIRCLE('',#492,0.875984251968504);
#143=CIRCLE('',#493,0.875984251968504);
#144=CIRCLE('',#495,0.0344488188976378);
#145=CIRCLE('',#497,0.0344488188976378);
#146=CIRCLE('',#498,0.953740157480315);
#147=CIRCLE('',#499,0.953740157480315);
#148=CIRCLE('',#501,0.953740157480315);
#149=CIRCLE('',#502,0.953740157480315);
#150=CIRCLE('',#504,0.0344488188976378);
#151=VERTEX_POINT('',#669);
#152=VERTEX_POINT('',#670);
#153=VERTEX_POINT('',#673);
#154=VERTEX_POINT('',#677);
#155=VERTEX_POINT('',#680);
#156=VERTEX_POINT('',#682);
#157=VERTEX_POINT('',#686);
#158=VERTEX_POINT('',#687);
#159=VERTEX_POINT('',#692);
#160=VERTEX_POINT('',#693);
#161=VERTEX_POINT('',#698);
#162=VERTEX_POINT('',#699);
#163=VERTEX_POINT('',#701);
#164=VERTEX_POINT('',#706);
#165=VERTEX_POINT('',#709);
#166=VERTEX_POINT('',#711);
#167=VERTEX_POINT('',#715);
#168=VERTEX_POINT('',#716);
#169=VERTEX_POINT('',#721);
#170=VERTEX_POINT('',#722);
#171=VERTEX_POINT('',#727);
#172=VERTEX_POINT('',#731);
#173=VERTEX_POINT('',#734);
#174=VERTEX_POINT('',#738);
#175=VERTEX_POINT('',#741);
#176=VERTEX_POINT('',#742);
#177=VERTEX_POINT('',#747);
#178=VERTEX_POINT('',#748);
#179=VERTEX_POINT('',#753);
#180=VERTEX_POINT('',#754);
#181=VERTEX_POINT('',#759);
#182=VERTEX_POINT('',#761);
#183=VERTEX_POINT('',#765);
#184=VERTEX_POINT('',#767);
#185=VERTEX_POINT('',#771);
#186=VERTEX_POINT('',#773);
#187=VERTEX_POINT('',#779);
#188=VERTEX_POINT('',#781);
#189=VERTEX_POINT('',#785);
#190=VERTEX_POINT('',#786);
#191=EDGE_CURVE('',#151,#152,#99,.T.);
#192=EDGE_CURVE('',#152,#151,#100,.T.);
#193=EDGE_CURVE('',#151,#153,#101,.T.);
#194=EDGE_CURVE('',#153,#153,#102,.T.);
#195=EDGE_CURVE('',#154,#154,#103,.T.);
#196=EDGE_CURVE('',#152,#155,#15,.T.);
#197=EDGE_CURVE('',#156,#155,#104,.T.);
#198=EDGE_CURVE('',#155,#156,#105,.T.);
#199=EDGE_CURVE('',#157,#158,#106,.T.);
#200=EDGE_CURVE('',#158,#154,#107,.T.);
#201=EDGE_CURVE('',#158,#157,#108,.T.);
#202=EDGE_CURVE('',#159,#160,#109,.T.);
#203=EDGE_CURVE('',#160,#159,#110,.T.);
#204=EDGE_CURVE('',#159,#157,#16,.T.);
#205=EDGE_CURVE('',#161,#162,#111,.T.);
#206=EDGE_CURVE('',#162,#163,#112,.T.);
#207=EDGE_CURVE('',#163,#163,#113,.T.);
#208=EDGE_CURVE('',#162,#161,#114,.T.);
#209=EDGE_CURVE('',#164,#164,#115,.T.);
#210=EDGE_CURVE('',#161,#165,#17,.T.);
#211=EDGE_CURVE('',#165,#166,#116,.T.);
#212=EDGE_CURVE('',#166,#165,#117,.T.);
#213=EDGE_CURVE('',#167,#168,#118,.T.);
#214=EDGE_CURVE('',#168,#167,#119,.T.);
#215=EDGE_CURVE('',#167,#164,#120,.T.);
#216=EDGE_CURVE('',#169,#170,#121,.T.);
#217=EDGE_CURVE('',#169,#168,#18,.T.);
#218=EDGE_CURVE('',#170,#169,#122,.T.);
#219=EDGE_CURVE('',#171,#171,#123,.T.);
#220=EDGE_CURVE('',#171,#170,#124,.T.);
#221=EDGE_CURVE('',#172,#172,#125,.T.);
#222=EDGE_CURVE('',#173,#173,#126,.T.);
#223=EDGE_CURVE('',#173,#156,#127,.T.);
#224=EDGE_CURVE('',#174,#174,#128,.T.);
#225=EDGE_CURVE('',#175,#176,#129,.T.);
#226=EDGE_CURVE('',#176,#175,#130,.T.);
#227=EDGE_CURVE('',#175,#174,#131,.T.);
#228=EDGE_CURVE('',#177,#178,#132,.T.);
#229=EDGE_CURVE('',#177,#176,#19,.T.);
#230=EDGE_CURVE('',#178,#177,#133,.T.);
#231=EDGE_CURVE('',#179,#180,#134,.T.);
#232=EDGE_CURVE('',#180,#179,#135,.T.);
#233=EDGE_CURVE('',#179,#172,#136,.T.);
#234=EDGE_CURVE('',#180,#181,#20,.T.);
#235=EDGE_CURVE('',#182,#181,#137,.T.);
#236=EDGE_CURVE('',#181,#182,#138,.T.);
#237=EDGE_CURVE('',#182,#183,#139,.T.);
#238=EDGE_CURVE('',#184,#183,#140,.T.);
#239=EDGE_CURVE('',#183,#184,#141,.T.);
#240=EDGE_CURVE('',#184,#185,#21,.T.);
#241=EDGE_CURVE('',#186,#185,#142,.T.);
#242=EDGE_CURVE('',#185,#186,#143,.T.);
#243=EDGE_CURVE('',#186,#160,#144,.T.);
#244=EDGE_CURVE('',#178,#187,#145,.T.);
#245=EDGE_CURVE('',#188,#187,#146,.T.);
#246=EDGE_CURVE('',#187,#188,#147,.T.);
#247=EDGE_CURVE('',#189,#190,#148,.T.);
#248=EDGE_CURVE('',#189,#188,#22,.T.);
#249=EDGE_CURVE('',#190,#189,#149,.T.);
#250=EDGE_CURVE('',#190,#166,#150,.T.);
#251=ORIENTED_EDGE('',*,*,#191,.T.);
#252=ORIENTED_EDGE('',*,*,#192,.T.);
#253=ORIENTED_EDGE('',*,*,#193,.T.);
#254=ORIENTED_EDGE('',*,*,#194,.T.);
#255=ORIENTED_EDGE('',*,*,#193,.F.);
#256=ORIENTED_EDGE('',*,*,#195,.F.);
#257=ORIENTED_EDGE('',*,*,#194,.F.);
#258=ORIENTED_EDGE('',*,*,#191,.F.);
#259=ORIENTED_EDGE('',*,*,#192,.F.);
#260=ORIENTED_EDGE('',*,*,#196,.T.);
#261=ORIENTED_EDGE('',*,*,#197,.F.);
#262=ORIENTED_EDGE('',*,*,#198,.F.);
#263=ORIENTED_EDGE('',*,*,#196,.F.);
#264=ORIENTED_EDGE('',*,*,#199,.T.);
#265=ORIENTED_EDGE('',*,*,#200,.T.);
#266=ORIENTED_EDGE('',*,*,#195,.T.);
#267=ORIENTED_EDGE('',*,*,#200,.F.);
#268=ORIENTED_EDGE('',*,*,#201,.T.);
#269=ORIENTED_EDGE('',*,*,#202,.T.);
#270=ORIENTED_EDGE('',*,*,#203,.T.);
#271=ORIENTED_EDGE('',*,*,#204,.T.);
#272=ORIENTED_EDGE('',*,*,#201,.F.);
#273=ORIENTED_EDGE('',*,*,#199,.F.);
#274=ORIENTED_EDGE('',*,*,#204,.F.);
#275=ORIENTED_EDGE('',*,*,#205,.T.);
#276=ORIENTED_EDGE('',*,*,#206,.T.);
#277=ORIENTED_EDGE('',*,*,#207,.T.);
#278=ORIENTED_EDGE('',*,*,#206,.F.);
#279=ORIENTED_EDGE('',*,*,#208,.T.);
#280=ORIENTED_EDGE('',*,*,#209,.F.);
#281=ORIENTED_EDGE('',*,*,#207,.F.);
#282=ORIENTED_EDGE('',*,*,#205,.F.);
#283=ORIENTED_EDGE('',*,*,#210,.T.);
#284=ORIENTED_EDGE('',*,*,#211,.T.);
#285=ORIENTED_EDGE('',*,*,#212,.T.);
#286=ORIENTED_EDGE('',*,*,#210,.F.);
#287=ORIENTED_EDGE('',*,*,#208,.F.);
#288=ORIENTED_EDGE('',*,*,#213,.T.);
#289=ORIENTED_EDGE('',*,*,#214,.T.);
#290=ORIENTED_EDGE('',*,*,#215,.T.);
#291=ORIENTED_EDGE('',*,*,#209,.T.);
#292=ORIENTED_EDGE('',*,*,#215,.F.);
#293=ORIENTED_EDGE('',*,*,#216,.F.);
#294=ORIENTED_EDGE('',*,*,#217,.T.);
#295=ORIENTED_EDGE('',*,*,#213,.F.);
#296=ORIENTED_EDGE('',*,*,#214,.F.);
#297=ORIENTED_EDGE('',*,*,#217,.F.);
#298=ORIENTED_EDGE('',*,*,#218,.F.);
#299=ORIENTED_EDGE('',*,*,#219,.T.);
#300=ORIENTED_EDGE('',*,*,#220,.T.);
#301=ORIENTED_EDGE('',*,*,#218,.T.);
#302=ORIENTED_EDGE('',*,*,#216,.T.);
#303=ORIENTED_EDGE('',*,*,#220,.F.);
#304=ORIENTED_EDGE('',*,*,#219,.F.);
#305=ORIENTED_EDGE('',*,*,#221,.F.);
#306=ORIENTED_EDGE('',*,*,#222,.T.);
#307=ORIENTED_EDGE('',*,*,#223,.T.);
#308=ORIENTED_EDGE('',*,*,#197,.T.);
#309=ORIENTED_EDGE('',*,*,#198,.T.);
#310=ORIENTED_EDGE('',*,*,#223,.F.);
#311=ORIENTED_EDGE('',*,*,#224,.F.);
#312=ORIENTED_EDGE('',*,*,#222,.F.);
#313=ORIENTED_EDGE('',*,*,#225,.T.);
#314=ORIENTED_EDGE('',*,*,#226,.T.);
#315=ORIENTED_EDGE('',*,*,#227,.T.);
#316=ORIENTED_EDGE('',*,*,#224,.T.);
#317=ORIENTED_EDGE('',*,*,#227,.F.);
#318=ORIENTED_EDGE('',*,*,#228,.F.);
#319=ORIENTED_EDGE('',*,*,#229,.T.);
#320=ORIENTED_EDGE('',*,*,#225,.F.);
#321=ORIENTED_EDGE('',*,*,#226,.F.);
#322=ORIENTED_EDGE('',*,*,#229,.F.);
#323=ORIENTED_EDGE('',*,*,#230,.F.);
#324=ORIENTED_EDGE('',*,*,#231,.T.);
#325=ORIENTED_EDGE('',*,*,#232,.T.);
#326=ORIENTED_EDGE('',*,*,#233,.T.);
#327=ORIENTED_EDGE('',*,*,#221,.T.);
#328=ORIENTED_EDGE('',*,*,#233,.F.);
#329=ORIENTED_EDGE('',*,*,#231,.F.);
#330=ORIENTED_EDGE('',*,*,#232,.F.);
#331=ORIENTED_EDGE('',*,*,#234,.T.);
#332=ORIENTED_EDGE('',*,*,#235,.F.);
#333=ORIENTED_EDGE('',*,*,#236,.F.);
#334=ORIENTED_EDGE('',*,*,#234,.F.);
#335=ORIENTED_EDGE('',*,*,#236,.T.);
#336=ORIENTED_EDGE('',*,*,#237,.T.);
#337=ORIENTED_EDGE('',*,*,#238,.F.);
#338=ORIENTED_EDGE('',*,*,#239,.F.);
#339=ORIENTED_EDGE('',*,*,#237,.F.);
#340=ORIENTED_EDGE('',*,*,#235,.T.);
#341=ORIENTED_EDGE('',*,*,#238,.T.);
#342=ORIENTED_EDGE('',*,*,#239,.T.);
#343=ORIENTED_EDGE('',*,*,#240,.T.);
#344=ORIENTED_EDGE('',*,*,#241,.F.);
#345=ORIENTED_EDGE('',*,*,#242,.F.);
#346=ORIENTED_EDGE('',*,*,#240,.F.);
#347=ORIENTED_EDGE('',*,*,#242,.T.);
#348=ORIENTED_EDGE('',*,*,#243,.T.);
#349=ORIENTED_EDGE('',*,*,#202,.F.);
#350=ORIENTED_EDGE('',*,*,#203,.F.);
#351=ORIENTED_EDGE('',*,*,#243,.F.);
#352=ORIENTED_EDGE('',*,*,#241,.T.);
#353=ORIENTED_EDGE('',*,*,#228,.T.);
#354=ORIENTED_EDGE('',*,*,#244,.T.);
#355=ORIENTED_EDGE('',*,*,#245,.F.);
#356=ORIENTED_EDGE('',*,*,#246,.F.);
#357=ORIENTED_EDGE('',*,*,#244,.F.);
#358=ORIENTED_EDGE('',*,*,#230,.T.);
#359=ORIENTED_EDGE('',*,*,#247,.F.);
#360=ORIENTED_EDGE('',*,*,#248,.T.);
#361=ORIENTED_EDGE('',*,*,#245,.T.);
#362=ORIENTED_EDGE('',*,*,#246,.T.);
#363=ORIENTED_EDGE('',*,*,#248,.F.);
#364=ORIENTED_EDGE('',*,*,#249,.F.);
#365=ORIENTED_EDGE('',*,*,#247,.T.);
#366=ORIENTED_EDGE('',*,*,#250,.T.);
#367=ORIENTED_EDGE('',*,*,#211,.F.);
#368=ORIENTED_EDGE('',*,*,#212,.F.);
#369=ORIENTED_EDGE('',*,*,#250,.F.);
#370=ORIENTED_EDGE('',*,*,#249,.T.);
#371=TOROIDAL_SURFACE('',#429,0.812992125984252,0.015748031496063);
#372=TOROIDAL_SURFACE('',#439,0.860236220472441,0.015748031496063);
#373=TOROIDAL_SURFACE('',#446,0.985236220472441,0.031496062992126);
#374=TOROIDAL_SURFACE('',#456,1.04035433070866,0.031496062992126);
#375=TOROIDAL_SURFACE('',#463,1.04035433070866,0.031496062992126);
#376=TOROIDAL_SURFACE('',#468,0.828740157480315,0.031496062992126);
#377=TOROIDAL_SURFACE('',#473,0.922244094488189,0.031496062992126);
#378=TOROIDAL_SURFACE('',#480,0.90748031496063,0.031496062992126);
#379=TOROIDAL_SURFACE('',#487,0.875984251968504,0.0344488188976378);
#380=TOROIDAL_SURFACE('',#494,0.875984251968504,0.0344488188976378);
#381=TOROIDAL_SURFACE('',#496,0.953740157480315,0.0344488188976378);
#382=TOROIDAL_SURFACE('',#503,0.953740157480315,0.0344488188976378);
#383=ADVANCED_FACE('',(#47),#371,.T.);
#384=ADVANCED_FACE('',(#48,#39),#43,.T.);
#385=ADVANCED_FACE('',(#49),#31,.F.);
#386=ADVANCED_FACE('',(#50),#372,.F.);
#387=ADVANCED_FACE('',(#51),#32,.F.);
#388=ADVANCED_FACE('',(#52),#373,.F.);
#389=ADVANCED_FACE('',(#53,#40),#44,.T.);
#390=ADVANCED_FACE('',(#54),#33,.T.);
#391=ADVANCED_FACE('',(#55),#374,.T.);
#392=ADVANCED_FACE('',(#56),#34,.T.);
#393=ADVANCED_FACE('',(#57),#375,.T.);
#394=ADVANCED_FACE('',(#58,#41),#45,.T.);
#395=ADVANCED_FACE('',(#59),#376,.T.);
#396=ADVANCED_FACE('',(#60,#42),#46,.T.);
#397=ADVANCED_FACE('',(#61),#377,.T.);
#398=ADVANCED_FACE('',(#62),#35,.T.);
#399=ADVANCED_FACE('',(#63),#378,.T.);
#400=ADVANCED_FACE('',(#64),#36,.F.);
#401=ADVANCED_FACE('',(#65),#379,.F.);
#402=ADVANCED_FACE('',(#66),#37,.F.);
#403=ADVANCED_FACE('',(#67),#380,.F.);
#404=ADVANCED_FACE('',(#68),#381,.F.);
#405=ADVANCED_FACE('',(#69),#38,.T.);
#406=ADVANCED_FACE('',(#70),#382,.F.);
#407=CLOSED_SHELL('',(#383,#384,#385,#386,#387,#388,#389,#390,#391,#392,
#393,#394,#395,#396,#397,#398,#399,#400,#401,#402,#403,#404,#405,#406));
#408=DERIVED_UNIT_ELEMENT(#410,1.);
#409=DERIVED_UNIT_ELEMENT(#800,-3.);
#410=(
CONVERSION_BASED_UNIT('gram',#412)
MASS_UNIT()
NAMED_UNIT(#797)
);
#411=(
MASS_UNIT()
NAMED_UNIT(*)
SI_UNIT(.KILO.,.GRAM.)
);
#412=MASS_MEASURE_WITH_UNIT(MASS_MEASURE(0.001),#411);
#413=DERIVED_UNIT((#408,#409));
#414=MEASURE_REPRESENTATION_ITEM('density measure',
POSITIVE_RATIO_MEASURE(1.29),#413);
#415=PROPERTY_DEFINITION_REPRESENTATION(#420,#417);
#416=PROPERTY_DEFINITION_REPRESENTATION(#421,#418);
#417=REPRESENTATION('material name',(#419),#794);
#418=REPRESENTATION('density',(#414),#794);
#419=DESCRIPTIVE_REPRESENTATION_ITEM('PVC, Unplasticized',
'PVC, Unplasticized');
#420=PROPERTY_DEFINITION('material property','material name',#808);
#421=PROPERTY_DEFINITION('material property','density of part',#808);
#422=DATE_TIME_ROLE('creation_date');
#423=APPLIED_DATE_AND_TIME_ASSIGNMENT(#424,#422,(#808));
#424=DATE_AND_TIME(#425,#426);
#425=CALENDAR_DATE(2026,13,7);
#426=LOCAL_TIME(0,0,0.,#427);
#427=COORDINATED_UNIVERSAL_TIME_OFFSET(0,0,.BEHIND.);
#428=AXIS2_PLACEMENT_3D('',#667,#505,#506);
#429=AXIS2_PLACEMENT_3D('',#668,#507,#508);
#430=AXIS2_PLACEMENT_3D('',#671,#509,#510);
#431=AXIS2_PLACEMENT_3D('',#672,#511,#512);
#432=AXIS2_PLACEMENT_3D('',#674,#513,#514);
#433=AXIS2_PLACEMENT_3D('',#675,#515,#516);
#434=AXIS2_PLACEMENT_3D('',#676,#517,#518);
#435=AXIS2_PLACEMENT_3D('',#678,#519,#520);
#436=AXIS2_PLACEMENT_3D('',#679,#521,#522);
#437=AXIS2_PLACEMENT_3D('',#683,#524,#525);
#438=AXIS2_PLACEMENT_3D('',#684,#526,#527);
#439=AXIS2_PLACEMENT_3D('',#685,#528,#529);
#440=AXIS2_PLACEMENT_3D('',#688,#530,#531);
#441=AXIS2_PLACEMENT_3D('',#689,#532,#533);
#442=AXIS2_PLACEMENT_3D('',#690,#534,#535);
#443=AXIS2_PLACEMENT_3D('',#691,#536,#537);
#444=AXIS2_PLACEMENT_3D('',#694,#538,#539);
#445=AXIS2_PLACEMENT_3D('',#695,#540,#541);
#446=AXIS2_PLACEMENT_3D('',#697,#543,#544);
#447=AXIS2_PLACEMENT_3D('',#700,#545,#546);
#448=AXIS2_PLACEMENT_3D('',#702,#547,#548);
#449=AXIS2_PLACEMENT_3D('',#703,#549,#550);
#450=AXIS2_PLACEMENT_3D('',#704,#551,#552);
#451=AXIS2_PLACEMENT_3D('',#705,#553,#554);
#452=AXIS2_PLACEMENT_3D('',#707,#555,#556);
#453=AXIS2_PLACEMENT_3D('',#708,#557,#558);
#454=AXIS2_PLACEMENT_3D('',#712,#560,#561);
#455=AXIS2_PLACEMENT_3D('',#713,#562,#563);
#456=AXIS2_PLACEMENT_3D('',#714,#564,#565);
#457=AXIS2_PLACEMENT_3D('',#717,#566,#567);
#458=AXIS2_PLACEMENT_3D('',#718,#568,#569);
#459=AXIS2_PLACEMENT_3D('',#719,#570,#571);
#460=AXIS2_PLACEMENT_3D('',#720,#572,#573);
#461=AXIS2_PLACEMENT_3D('',#723,#574,#575);
#462=AXIS2_PLACEMENT_3D('',#725,#577,#578);
#463=AXIS2_PLACEMENT_3D('',#726,#579,#580);
#464=AXIS2_PLACEMENT_3D('',#728,#581,#582);
#465=AXIS2_PLACEMENT_3D('',#729,#583,#584);
#466=AXIS2_PLACEMENT_3D('',#730,#585,#586);
#467=AXIS2_PLACEMENT_3D('',#732,#587,#588);
#468=AXIS2_PLACEMENT_3D('',#733,#589,#590);
#469=AXIS2_PLACEMENT_3D('',#735,#591,#592);
#470=AXIS2_PLACEMENT_3D('',#736,#593,#594);
#471=AXIS2_PLACEMENT_3D('',#737,#595,#596);
#472=AXIS2_PLACEMENT_3D('',#739,#597,#598);
#473=AXIS2_PLACEMENT_3D('',#740,#599,#600);
#474=AXIS2_PLACEMENT_3D('',#743,#601,#602);
#475=AXIS2_PLACEMENT_3D('',#744,#603,#604);
#476=AXIS2_PLACEMENT_3D('',#745,#605,#606);
#477=AXIS2_PLACEMENT_3D('',#746,#607,#608);
#478=AXIS2_PLACEMENT_3D('',#749,#609,#610);
#479=AXIS2_PLACEMENT_3D('',#751,#612,#613);
#480=AXIS2_PLACEMENT_3D('',#752,#614,#615);
#481=AXIS2_PLACEMENT_3D('',#755,#616,#617);
#482=AXIS2_PLACEMENT_3D('',#756,#618,#619);
#483=AXIS2_PLACEMENT_3D('',#757,#620,#621);
#484=AXIS2_PLACEMENT_3D('',#758,#622,#623);
#485=AXIS2_PLACEMENT_3D('',#762,#625,#626);
#486=AXIS2_PLACEMENT_3D('',#763,#627,#628);
#487=AXIS2_PLACEMENT_3D('',#764,#629,#630);
#488=AXIS2_PLACEMENT_3D('',#766,#631,#632);
#489=AXIS2_PLACEMENT_3D('',#768,#633,#634);
#490=AXIS2_PLACEMENT_3D('',#769,#635,#636);
#491=AXIS2_PLACEMENT_3D('',#770,#637,#638);
#492=AXIS2_PLACEMENT_3D('',#774,#640,#641);
#493=AXIS2_PLACEMENT_3D('',#775,#642,#643);
#494=AXIS2_PLACEMENT_3D('',#776,#644,#645);
#495=AXIS2_PLACEMENT_3D('',#777,#646,#647);
#496=AXIS2_PLACEMENT_3D('',#778,#648,#649);
#497=AXIS2_PLACEMENT_3D('',#780,#650,#651);
#498=AXIS2_PLACEMENT_3D('',#782,#652,#653);
#499=AXIS2_PLACEMENT_3D('',#783,#654,#655);
#500=AXIS2_PLACEMENT_3D('',#784,#656,#657);
#501=AXIS2_PLACEMENT_3D('',#787,#658,#659);
#502=AXIS2_PLACEMENT_3D('',#789,#661,#662);
#503=AXIS2_PLACEMENT_3D('',#790,#663,#664);
#504=AXIS2_PLACEMENT_3D('',#791,#665,#666);
#505=DIRECTION('axis',(0.,0.,1.));
#506=DIRECTION('refdir',(1.,0.,0.));
#507=DIRECTION('center_axis',(6.12323399573677E-17,1.,0.));
#508=DIRECTION('ref_axis',(0.,0.,1.));
#509=DIRECTION('center_axis',(-6.12323399573677E-17,-1.,0.));
#510=DIRECTION('ref_axis',(-1.,6.16790569236198E-17,-1.22464679914735E-16));
#511=DIRECTION('center_axis',(-6.12323399573677E-17,-1.,0.));
#512=DIRECTION('ref_axis',(-1.,6.16790569236198E-17,-1.22464679914735E-16));
#513=DIRECTION('center_axis',(-1.,6.12323399573677E-17,1.22464679914735E-16));
#514=DIRECTION('ref_axis',(-1.22464679914735E-16,0.,-1.));
#515=DIRECTION('center_axis',(6.12323399573677E-17,1.,0.));
#516=DIRECTION('ref_axis',(-1.,6.12323399573677E-17,-1.22464679914735E-16));
#517=DIRECTION('center_axis',(6.12323399573677E-17,1.,0.));
#518=DIRECTION('ref_axis',(0.,0.,1.));
#519=DIRECTION('center_axis',(-6.12323399573677E-17,-1.,0.));
#520=DIRECTION('ref_axis',(-1.,6.12323399573677E-17,-1.22464679914735E-16));
#521=DIRECTION('center_axis',(6.12323399573677E-17,1.,0.));
#522=DIRECTION('ref_axis',(1.,0.,0.));
#523=DIRECTION('',(-6.12323399573677E-17,-1.,0.));
#524=DIRECTION('center_axis',(6.12323399573677E-17,1.,0.));
#525=DIRECTION('ref_axis',(-1.,6.16790569236198E-17,-1.22464679914735E-16));
#526=DIRECTION('center_axis',(6.12323399573677E-17,1.,0.));
#527=DIRECTION('ref_axis',(-1.,6.16790569236198E-17,-1.22464679914735E-16));
#528=DIRECTION('center_axis',(6.12323399573677E-17,1.,0.));
#529=DIRECTION('ref_axis',(0.,0.,1.));
#530=DIRECTION('center_axis',(6.12323399573677E-17,1.,0.));
#531=DIRECTION('ref_axis',(-1.,6.23720800351212E-17,-1.22464679914735E-16));
#532=DIRECTION('center_axis',(-1.,6.12323399573677E-17,1.22464679914735E-16));
#533=DIRECTION('ref_axis',(-1.22464679914735E-16,0.,-1.));
#534=DIRECTION('center_axis',(6.12323399573677E-17,1.,0.));
#535=DIRECTION('ref_axis',(-1.,6.23720800351212E-17,-1.22464679914735E-16));
#536=DIRECTION('center_axis',(6.12323399573677E-17,1.,0.));
#537=DIRECTION('ref_axis',(1.,0.,0.));
#538=DIRECTION('center_axis',(6.12323399573677E-17,1.,0.));
#539=DIRECTION('ref_axis',(1.,-6.12323399573677E-17,0.));
#540=DIRECTION('center_axis',(6.12323399573677E-17,1.,0.));
#541=DIRECTION('ref_axis',(1.,-6.12323399573677E-17,0.));
#542=DIRECTION('',(-6.12323399573677E-17,-1.,0.));
#543=DIRECTION('center_axis',(6.12323399573677E-17,1.,0.));
#544=DIRECTION('ref_axis',(0.,0.,1.));
#545=DIRECTION('center_axis',(6.12323399573677E-17,1.,0.));
#546=DIRECTION('ref_axis',(-1.,6.30157547516859E-17,-1.22464679914735E-16));
#547=DIRECTION('center_axis',(-1.,6.12323399573677E-17,1.22464679914735E-16));
#548=DIRECTION('ref_axis',(-1.22464679914735E-16,0.,-1.));
#549=DIRECTION('center_axis',(-6.12323399573677E-17,-1.,0.));
#550=DIRECTION('ref_axis',(-1.,6.12323399573677E-17,-1.22464679914735E-16));
#551=DIRECTION('center_axis',(6.12323399573677E-17,1.,0.));
#552=DIRECTION('ref_axis',(-1.,6.30157547516859E-17,-1.22464679914735E-16));
#553=DIRECTION('center_axis',(-6.12323399573677E-17,-1.,0.));
#554=DIRECTION('ref_axis',(0.,0.,-1.));
#555=DIRECTION('center_axis',(6.12323399573677E-17,1.,0.));
#556=DIRECTION('ref_axis',(-1.,6.12323399573677E-17,-1.22464679914735E-16));
#557=DIRECTION('center_axis',(6.12323399573677E-17,1.,0.));
#558=DIRECTION('ref_axis',(1.,0.,0.));
#559=DIRECTION('',(-6.12323399573677E-17,-1.,0.));
#560=DIRECTION('center_axis',(6.12323399573677E-17,1.,0.));
#561=DIRECTION('ref_axis',(1.,-6.12323399573677E-17,0.));
#562=DIRECTION('center_axis',(6.12323399573677E-17,1.,0.));
#563=DIRECTION('ref_axis',(1.,-6.12323399573677E-17,0.));
#564=DIRECTION('center_axis',(6.12323399573677E-17,1.,0.));
#565=DIRECTION('ref_axis',(0.,0.,1.));
#566=DIRECTION('center_axis',(-6.12323399573677E-17,-1.,0.));
#567=DIRECTION('ref_axis',(-1.,6.11693126515238E-17,-1.22464679914735E-16));
#568=DIRECTION('center_axis',(-6.12323399573677E-17,-1.,0.));
#569=DIRECTION('ref_axis',(-1.,6.11693126515238E-17,-1.22464679914735E-16));
#570=DIRECTION('center_axis',(-1.,6.12323399573677E-17,1.22464679914735E-16));
#571=DIRECTION('ref_axis',(-1.22464679914735E-16,0.,-1.));
#572=DIRECTION('center_axis',(6.12323399573677E-17,1.,0.));
#573=DIRECTION('ref_axis',(1.,0.,0.));
#574=DIRECTION('center_axis',(6.12323399573677E-17,1.,0.));
#575=DIRECTION('ref_axis',(-1.,6.11693126515238E-17,-1.22464679914735E-16));
#576=DIRECTION('',(-6.12323399573677E-17,-1.,0.));
#577=DIRECTION('center_axis',(6.12323399573677E-17,1.,0.));
#578=DIRECTION('ref_axis',(-1.,6.11693126515238E-17,-1.22464679914735E-16));
#579=DIRECTION('center_axis',(6.12323399573677E-17,1.,0.));
#580=DIRECTION('ref_axis',(0.,0.,1.));
#581=DIRECTION('center_axis',(-6.12323399573677E-17,-1.,0.));
#582=DIRECTION('ref_axis',(-1.,6.12323399573677E-17,-1.22464679914735E-16));
#583=DIRECTION('center_axis',(-1.,6.12323399573677E-17,1.22464679914735E-16));
#584=DIRECTION('ref_axis',(-1.22464679914735E-16,0.,-1.));
#585=DIRECTION('center_axis',(6.12323399573677E-17,1.,0.));
#586=DIRECTION('ref_axis',(0.,0.,1.));
#587=DIRECTION('center_axis',(6.12323399573677E-17,1.,0.));
#588=DIRECTION('ref_axis',(-1.,6.12323399573677E-17,-1.22464679914735E-16));
#589=DIRECTION('center_axis',(6.12323399573677E-17,1.,0.));
#590=DIRECTION('ref_axis',(0.,0.,1.));
#591=DIRECTION('center_axis',(-6.12323399573677E-17,-1.,0.));
#592=DIRECTION('ref_axis',(-1.,6.12323399573676E-17,-1.22464679914735E-16));
#593=DIRECTION('center_axis',(-1.,6.12323399573677E-17,1.22464679914735E-16));
#594=DIRECTION('ref_axis',(-1.22464679914735E-16,0.,-1.));
#595=DIRECTION('center_axis',(-6.12323399573677E-17,-1.,0.));
#596=DIRECTION('ref_axis',(0.,0.,-1.));
#597=DIRECTION('center_axis',(6.12323399573677E-17,1.,0.));
#598=DIRECTION('ref_axis',(-1.,6.12323399573677E-17,-1.22464679914735E-16));
#599=DIRECTION('center_axis',(6.12323399573677E-17,1.,0.));
#600=DIRECTION('ref_axis',(0.,0.,1.));
#601=DIRECTION('center_axis',(-6.12323399573677E-17,-1.,0.));
#602=DIRECTION('ref_axis',(-1.,6.30157547516859E-17,-1.22464679914735E-16));
#603=DIRECTION('center_axis',(-6.12323399573677E-17,-1.,0.));
#604=DIRECTION('ref_axis',(-1.,6.30157547516859E-17,-1.22464679914735E-16));
#605=DIRECTION('center_axis',(-1.,6.12323399573677E-17,1.22464679914735E-16));
#606=DIRECTION('ref_axis',(-1.22464679914735E-16,0.,-1.));
#607=DIRECTION('center_axis',(6.12323399573677E-17,1.,0.));
#608=DIRECTION('ref_axis',(1.,0.,0.));
#609=DIRECTION('center_axis',(6.12323399573677E-17,1.,0.));
#610=DIRECTION('ref_axis',(1.,-6.12323399573677E-17,0.));
#611=DIRECTION('',(-6.12323399573677E-17,-1.,0.));
#612=DIRECTION('center_axis',(6.12323399573677E-17,1.,0.));
#613=DIRECTION('ref_axis',(1.,-6.12323399573677E-17,0.));
#614=DIRECTION('center_axis',(6.12323399573677E-17,1.,0.));
#615=DIRECTION('ref_axis',(0.,0.,1.));
#616=DIRECTION('center_axis',(-6.12323399573677E-17,-1.,0.));
#617=DIRECTION('ref_axis',(-1.,6.23720800351212E-17,-1.22464679914735E-16));
#618=DIRECTION('center_axis',(-6.12323399573677E-17,-1.,0.));
#619=DIRECTION('ref_axis',(-1.,6.23720800351212E-17,-1.22464679914735E-16));
#620=DIRECTION('center_axis',(-1.,6.12323399573677E-17,1.22464679914735E-16));
#621=DIRECTION('ref_axis',(-1.22464679914735E-16,0.,-1.));
#622=DIRECTION('center_axis',(6.12323399573677E-17,1.,0.));
#623=DIRECTION('ref_axis',(1.,0.,0.));
#624=DIRECTION('',(-6.12323399573677E-17,-1.,0.));
#625=DIRECTION('center_axis',(6.12323399573677E-17,1.,0.));
#626=DIRECTION('ref_axis',(1.,-6.12323399573677E-17,0.));
#627=DIRECTION('center_axis',(6.12323399573677E-17,1.,0.));
#628=DIRECTION('ref_axis',(1.,-6.12323399573677E-17,0.));
#629=DIRECTION('center_axis',(6.12323399573677E-17,1.,0.));
#630=DIRECTION('ref_axis',(0.,0.,1.));
#631=DIRECTION('center_axis',(-1.,6.12323399573677E-17,1.22464679914735E-16));
#632=DIRECTION('ref_axis',(-1.22464679914735E-16,0.,-1.));
#633=DIRECTION('center_axis',(6.12323399573677E-17,1.,0.));
#634=DIRECTION('ref_axis',(1.,-6.12323399573677E-17,0.));
#635=DIRECTION('center_axis',(6.12323399573677E-17,1.,0.));
#636=DIRECTION('ref_axis',(1.,-6.12323399573677E-17,0.));
#637=DIRECTION('center_axis',(6.12323399573677E-17,1.,0.));
#638=DIRECTION('ref_axis',(1.,0.,0.));
#639=DIRECTION('',(-6.12323399573677E-17,-1.,0.));
#640=DIRECTION('center_axis',(6.12323399573677E-17,1.,0.));
#641=DIRECTION('ref_axis',(1.,-6.12323399573677E-17,0.));
#642=DIRECTION('center_axis',(6.12323399573677E-17,1.,0.));
#643=DIRECTION('ref_axis',(1.,-6.12323399573677E-17,0.));
#644=DIRECTION('center_axis',(6.12323399573677E-17,1.,0.));
#645=DIRECTION('ref_axis',(0.,0.,1.));
#646=DIRECTION('center_axis',(-1.,6.12323399573677E-17,1.22464679914735E-16));
#647=DIRECTION('ref_axis',(-1.22464679914735E-16,0.,-1.));
#648=DIRECTION('center_axis',(6.12323399573677E-17,1.,0.));
#649=DIRECTION('ref_axis',(0.,0.,1.));
#650=DIRECTION('center_axis',(-1.,6.12323399573677E-17,1.22464679914735E-16));
#651=DIRECTION('ref_axis',(-1.22464679914735E-16,0.,-1.));
#652=DIRECTION('center_axis',(6.12323399573677E-17,1.,0.));
#653=DIRECTION('ref_axis',(1.,-6.12323399573677E-17,0.));
#654=DIRECTION('center_axis',(6.12323399573677E-17,1.,0.));
#655=DIRECTION('ref_axis',(1.,-6.12323399573677E-17,0.));
#656=DIRECTION('center_axis',(6.12323399573677E-17,1.,0.));
#657=DIRECTION('ref_axis',(1.,0.,0.));
#658=DIRECTION('center_axis',(6.12323399573677E-17,1.,0.));
#659=DIRECTION('ref_axis',(1.,-6.12323399573677E-17,0.));
#660=DIRECTION('',(-6.12323399573677E-17,-1.,0.));
#661=DIRECTION('center_axis',(6.12323399573677E-17,1.,0.));
#662=DIRECTION('ref_axis',(1.,-6.12323399573677E-17,0.));
#663=DIRECTION('center_axis',(6.12323399573677E-17,1.,0.));
#664=DIRECTION('ref_axis',(0.,0.,1.));
#665=DIRECTION('center_axis',(-1.,6.12323399573677E-17,1.22464679914735E-16));
#666=DIRECTION('ref_axis',(-1.22464679914735E-16,0.,-1.));
#667=CARTESIAN_POINT('',(0.,0.,0.));
#668=CARTESIAN_POINT('Origin',(2.31429316374303E-17,0.377952755905512,0.));
#669=CARTESIAN_POINT('',(-7.44913112079788E-17,0.377952755905512,-0.797244094488189));
#670=CARTESIAN_POINT('',(-0.797244094488189,0.377952755905512,9.76342428454091E-17));
#671=CARTESIAN_POINT('Origin',(2.31429316374303E-17,0.377952755905512,0.));
#672=CARTESIAN_POINT('Origin',(2.31429316374303E-17,0.377952755905512,0.));
#673=CARTESIAN_POINT('',(-7.54556000262051E-17,0.393700787401575,-0.812992125984252));
#674=CARTESIAN_POINT('Origin',(-7.64198888444313E-17,0.377952755905512,
-0.812992125984252));
#675=CARTESIAN_POINT('Origin',(2.41072204556566E-17,0.393700787401575,0.));
#676=CARTESIAN_POINT('Origin',(0.797244094488189,0.393700787401575,0.));
#677=CARTESIAN_POINT('',(-8.12413329355626E-17,0.393700787401575,-0.860236220472441));
#678=CARTESIAN_POINT('Origin',(2.41072204556566E-17,0.393700787401575,0.));
#679=CARTESIAN_POINT('Origin',(1.20536102278283E-17,0.196850393700787,0.));
#680=CARTESIAN_POINT('',(-0.797244094488189,0.0314960629921262,9.76342428454091E-17));
#681=CARTESIAN_POINT('',(-0.797244094488189,0.196850393700787,9.76342428454091E-17));
#682=CARTESIAN_POINT('',(-9.57056652089565E-17,0.0314960629921262,-0.797244094488189));
#683=CARTESIAN_POINT('Origin',(1.92857763645254E-18,0.0314960629921262,
0.));
#684=CARTESIAN_POINT('Origin',(1.92857763645254E-18,0.0314960629921262,
0.));
#685=CARTESIAN_POINT('Origin',(2.50715092738828E-17,0.409448818897638,0.));
#686=CARTESIAN_POINT('',(-0.875984251968504,0.409448818897638,1.07277131027672E-16));
#687=CARTESIAN_POINT('',(-8.22056217537889E-17,0.409448818897638,-0.875984251968504));
#688=CARTESIAN_POINT('Origin',(2.50715092738828E-17,0.409448818897638,0.));
#689=CARTESIAN_POINT('Origin',(-8.02770441173364E-17,0.409448818897638,
-0.860236220472441));
#690=CARTESIAN_POINT('Origin',(2.50715092738828E-17,0.409448818897638,0.));
#691=CARTESIAN_POINT('Origin',(2.90793346746357E-17,0.474901574803149,0.));
#692=CARTESIAN_POINT('',(-0.875984251968504,0.556102362204724,1.07277131027672E-16));
#693=CARTESIAN_POINT('',(-7.32256821340568E-17,0.556102362204724,-0.875984251968504));
#694=CARTESIAN_POINT('Origin',(3.40514488936149E-17,0.556102362204724,0.));
#695=CARTESIAN_POINT('Origin',(3.40514488936149E-17,0.556102362204724,0.));
#696=CARTESIAN_POINT('',(-0.875984251968504,0.474901574803149,1.07277131027672E-16));
#697=CARTESIAN_POINT('Origin',(4.62858632748606E-17,0.755905511811024,0.));
#698=CARTESIAN_POINT('',(-0.953740157480315,0.755905511811024,1.16799483107656E-16));
#699=CARTESIAN_POINT('',(-7.05136198327954E-17,0.755905511811024,-0.953740157480315));
#700=CARTESIAN_POINT('Origin',(4.62858632748606E-17,0.755905511811024,0.));
#701=CARTESIAN_POINT('',(-7.24421974692479E-17,0.78740157480315,-0.985236220472441));
#702=CARTESIAN_POINT('Origin',(-7.43707751057005E-17,0.755905511811024,
-0.985236220472441));
#703=CARTESIAN_POINT('Origin',(4.82144409113131E-17,0.78740157480315,0.));
#704=CARTESIAN_POINT('Origin',(4.62858632748606E-17,0.755905511811024,0.));
#705=CARTESIAN_POINT('Origin',(1.07185039370079,0.78740157480315,0.));
#706=CARTESIAN_POINT('',(-7.91922191968318E-17,0.78740157480315,-1.04035433070866));
#707=CARTESIAN_POINT('Origin',(4.82144409113131E-17,0.78740157480315,0.));
#708=CARTESIAN_POINT('Origin',(3.48047995328542E-17,0.568405511811024,0.));
#709=CARTESIAN_POINT('',(-0.953740157480315,0.349409448818898,1.16799483107656E-16));
#710=CARTESIAN_POINT('',(-0.953740157480315,0.568405511811024,1.16799483107656E-16));
#711=CARTESIAN_POINT('',(-9.54043249532608E-17,0.349409448818898,-0.953740157480315));
#712=CARTESIAN_POINT('Origin',(2.13951581543952E-17,0.349409448818898,0.));
#713=CARTESIAN_POINT('Origin',(2.13951581543952E-17,0.349409448818898,0.));
#714=CARTESIAN_POINT('Origin',(5.01430185477657E-17,0.818897637795276,0.));
#715=CARTESIAN_POINT('',(-8.11207968332843E-17,0.818897637795276,-1.07185039370079));
#716=CARTESIAN_POINT('',(-1.07185039370079,0.818897637795276,1.3126381538105E-16));
#717=CARTESIAN_POINT('Origin',(5.01430185477657E-17,0.818897637795276,0.));
#718=CARTESIAN_POINT('Origin',(5.01430185477657E-17,0.818897637795276,0.));
#719=CARTESIAN_POINT('Origin',(-7.72636415603793E-17,0.818897637795276,
-1.04035433070866));
#720=CARTESIAN_POINT('Origin',(8.4375271594798E-17,1.37795275590551,0.));
#721=CARTESIAN_POINT('',(-1.07185039370079,1.93700787401575,1.3126381538105E-16));
#722=CARTESIAN_POINT('',(-1.26562907392197E-17,1.93700787401575,-1.07185039370079));
#723=CARTESIAN_POINT('Origin',(1.1860752464183E-16,1.93700787401575,0.));
#724=CARTESIAN_POINT('',(-1.07185039370079,1.37795275590551,1.3126381538105E-16));
#725=CARTESIAN_POINT('Origin',(1.1860752464183E-16,1.93700787401575,0.));
#726=CARTESIAN_POINT('Origin',(1.1860752464183E-16,1.93700787401575,0.));
#727=CARTESIAN_POINT('',(-6.87055782986214E-18,1.96850393700787,-1.04035433070866));
#728=CARTESIAN_POINT('Origin',(1.20536102278283E-16,1.96850393700787,0.));
#729=CARTESIAN_POINT('Origin',(-8.79913546631467E-18,1.93700787401575,-1.04035433070866));
#730=CARTESIAN_POINT('Origin',(0.875984251968504,1.96850393700787,0.));
#731=CARTESIAN_POINT('',(9.40181597770605E-18,1.96850393700787,-0.90748031496063));
#732=CARTESIAN_POINT('Origin',(1.20536102278283E-16,1.96850393700787,0.));
#733=CARTESIAN_POINT('Origin',(1.92857763645254E-18,0.0314960629921262,
0.));
#734=CARTESIAN_POINT('',(-1.01491398118314E-16,2.02156751531155E-16,-0.828740157480315));
#735=CARTESIAN_POINT('Origin',(1.48615066574763E-32,2.02156751531155E-16,
0.));
#736=CARTESIAN_POINT('Origin',(-9.95628204818616E-17,0.0314960629921262,
-0.828740157480315));
#737=CARTESIAN_POINT('Origin',(0.953740157480315,1.42520072477003E-16,0.));
#738=CARTESIAN_POINT('',(-1.12942327834751E-16,2.02156751531155E-16,-0.922244094488189));
#739=CARTESIAN_POINT('Origin',(2.00175395794579E-32,2.02156751531155E-16,
0.));
#740=CARTESIAN_POINT('Origin',(1.92857763645254E-18,0.0314960629921262,
0.));
#741=CARTESIAN_POINT('',(-1.14870905471203E-16,0.0314960629921262,-0.953740157480315));
#742=CARTESIAN_POINT('',(-0.953740157480315,0.0314960629921262,1.16799483107656E-16));
#743=CARTESIAN_POINT('Origin',(1.92857763645254E-18,0.0314960629921262,
0.));
#744=CARTESIAN_POINT('Origin',(1.92857763645254E-18,0.0314960629921262,
0.));
#745=CARTESIAN_POINT('Origin',(-1.11013750198298E-16,0.0314960629921262,
-0.922244094488189));
#746=CARTESIAN_POINT('Origin',(2.56139217341352E-18,0.0418307086614174,
0.));
#747=CARTESIAN_POINT('',(-0.953740157480315,0.0836614173228348,1.16799483107656E-16));
#748=CARTESIAN_POINT('',(-1.11676698760829E-16,0.0836614173228348,-0.953740157480315));
#749=CARTESIAN_POINT('Origin',(5.12278434682702E-18,0.0836614173228348,
0.));
#750=CARTESIAN_POINT('',(-0.953740157480315,0.0418307086614174,1.16799483107656E-16));
#751=CARTESIAN_POINT('Origin',(5.12278434682702E-18,0.0836614173228348,
0.));
#752=CARTESIAN_POINT('Origin',(1.1860752464183E-16,1.93700787401575,0.));
#753=CARTESIAN_POINT('',(1.13303936141586E-17,1.93700787401575,-0.875984251968504));
#754=CARTESIAN_POINT('',(-0.875984251968504,1.93700787401575,1.07277131027672E-16));
#755=CARTESIAN_POINT('Origin',(1.1860752464183E-16,1.93700787401575,0.));
#756=CARTESIAN_POINT('Origin',(1.1860752464183E-16,1.93700787401575,0.));
#757=CARTESIAN_POINT('Origin',(7.47323834125351E-18,1.93700787401575,-0.90748031496063));
#758=CARTESIAN_POINT('Origin',(8.54299624897329E-17,1.39517716535433,0.));
#759=CARTESIAN_POINT('',(-0.875984251968504,0.821850393700787,1.07277131027672E-16));
#760=CARTESIAN_POINT('',(-0.875984251968504,1.39517716535433,1.07277131027672E-16));
#761=CARTESIAN_POINT('',(-5.69533083264886E-17,0.821850393700787,-0.875984251968504));
#762=CARTESIAN_POINT('Origin',(5.03238227011831E-17,0.821850393700787,0.));
#763=CARTESIAN_POINT('Origin',(5.03238227011831E-17,0.821850393700787,0.));
#764=CARTESIAN_POINT('Origin',(4.82144409113131E-17,0.78740157480315,0.));
#765=CARTESIAN_POINT('',(-6.11720719062285E-17,0.752952755905512,-0.875984251968504));
#766=CARTESIAN_POINT('Origin',(-5.90626901163585E-17,0.78740157480315,-0.875984251968504));
#767=CARTESIAN_POINT('',(-0.875984251968504,0.752952755905512,1.07277131027672E-16));
#768=CARTESIAN_POINT('Origin',(4.61050591214432E-17,0.752952755905512,0.));
#769=CARTESIAN_POINT('Origin',(4.61050591214432E-17,0.752952755905512,0.));
#770=CARTESIAN_POINT('Origin',(4.2187635797399E-17,0.688976377952756,0.));
#771=CARTESIAN_POINT('',(-0.875984251968504,0.625,1.07277131027672E-16));
#772=CARTESIAN_POINT('',(-0.875984251968504,0.688976377952756,1.07277131027672E-16));
#773=CARTESIAN_POINT('',(-6.90069185543169E-17,0.625,-0.875984251968504));
#774=CARTESIAN_POINT('Origin',(3.82702124733548E-17,0.625,0.));
#775=CARTESIAN_POINT('Origin',(3.82702124733548E-17,0.625,0.));
#776=CARTESIAN_POINT('Origin',(3.61608306834848E-17,0.590551181102362,0.));
#777=CARTESIAN_POINT('Origin',(-7.11163003441868E-17,0.590551181102362,
-0.875984251968504));
#778=CARTESIAN_POINT('Origin',(7.23216613669698E-18,0.118110236220473,0.));
#779=CARTESIAN_POINT('',(-1.07457935181089E-16,0.15255905511811,-0.953740157480315));
#780=CARTESIAN_POINT('Origin',(-1.09567316970959E-16,0.118110236220473,
-0.953740157480315));
#781=CARTESIAN_POINT('',(-0.953740157480315,0.15255905511811,1.16799483107656E-16));
#782=CARTESIAN_POINT('Origin',(9.34154792656692E-18,0.15255905511811,0.));
#783=CARTESIAN_POINT('Origin',(9.34154792656692E-18,0.15255905511811,0.));
#784=CARTESIAN_POINT('Origin',(1.32589712506111E-17,0.216535433070866,0.));
#785=CARTESIAN_POINT('',(-0.953740157480315,0.280511811023622,1.16799483107656E-16));
#786=CARTESIAN_POINT('',(-9.96230885330007E-17,0.280511811023622,-0.953740157480315));
#787=CARTESIAN_POINT('Origin',(1.71763945746553E-17,0.280511811023622,0.));
#788=CARTESIAN_POINT('',(-0.953740157480315,0.216535433070866,1.16799483107656E-16));
#789=CARTESIAN_POINT('Origin',(1.71763945746553E-17,0.280511811023622,0.));
#790=CARTESIAN_POINT('Origin',(1.92857763645253E-17,0.31496062992126,0.));
#791=CARTESIAN_POINT('Origin',(-9.75137067431308E-17,0.31496062992126,-0.953740157480315));
#792=UNCERTAINTY_MEASURE_WITH_UNIT(LENGTH_MEASURE(0.000393700787401575),
#798,'DISTANCE_ACCURACY_VALUE',
'Maximum model space distance between geometric entities at asserted c
onnectivities');
#793=UNCERTAINTY_MEASURE_WITH_UNIT(LENGTH_MEASURE(0.000393700787401575),
#798,'DISTANCE_ACCURACY_VALUE',
'Maximum model space distance between geometric entities at asserted c
onnectivities');
#794=(
GEOMETRIC_REPRESENTATION_CONTEXT(3)
GLOBAL_UNCERTAINTY_ASSIGNED_CONTEXT((#792))
GLOBAL_UNIT_ASSIGNED_CONTEXT((#798,#802,#803))
REPRESENTATION_CONTEXT('','3D')
);
#795=(
GEOMETRIC_REPRESENTATION_CONTEXT(3)
GLOBAL_UNCERTAINTY_ASSIGNED_CONTEXT((#793))
GLOBAL_UNIT_ASSIGNED_CONTEXT((#798,#802,#803))
REPRESENTATION_CONTEXT('','3D')
);
#796=DIMENSIONAL_EXPONENTS(1.,0.,0.,0.,0.,0.,0.);
#797=DIMENSIONAL_EXPONENTS(0.,1.,0.,0.,0.,0.,0.);
#798=(
CONVERSION_BASED_UNIT('inch',#801)
LENGTH_UNIT()
NAMED_UNIT(#796)
);
#799=(
LENGTH_UNIT()
NAMED_UNIT(*)
SI_UNIT(.MILLI.,.METRE.)
);
#800=(
LENGTH_UNIT()
NAMED_UNIT(*)
SI_UNIT(.CENTI.,.METRE.)
);
#801=LENGTH_MEASURE_WITH_UNIT(LENGTH_MEASURE(25.4),#799);
#802=(
NAMED_UNIT(*)
PLANE_ANGLE_UNIT()
SI_UNIT($,.RADIAN.)
);
#803=(
NAMED_UNIT(*)
SI_UNIT($,.STERADIAN.)
SOLID_ANGLE_UNIT()
);
#804=SHAPE_DEFINITION_REPRESENTATION(#805,#806);
#805=PRODUCT_DEFINITION_SHAPE('',$,#808);
#806=SHAPE_REPRESENTATION('',(#428),#794);
#807=PRODUCT_DEFINITION_CONTEXT('part definition',#812,'design');
#808=PRODUCT_DEFINITION('Tapered Vac Fitting',
'Cyclone Suction Side Fitting',#809,#807);
#809=PRODUCT_DEFINITION_FORMATION('',$,#814);
#810=PRODUCT_RELATED_PRODUCT_CATEGORY('Cyclone Suction Side Fitting',
'Cyclone Suction Side Fitting',(#814));
#811=APPLICATION_PROTOCOL_DEFINITION('international standard',
'automotive_design',2009,#812);
#812=APPLICATION_CONTEXT(
'Core Data for Automotive Mechanical Design Process');
#813=PRODUCT_CONTEXT('part definition',#812,'mechanical');
#814=PRODUCT('Tapered Vac Fitting','Cyclone Suction Side Fitting',$,(#813));
#815=PRESENTATION_STYLE_ASSIGNMENT((#816));
#816=SURFACE_STYLE_USAGE(.BOTH.,#819);
#817=SURFACE_STYLE_RENDERING_WITH_PROPERTIES($,#823,(#818));
#818=SURFACE_STYLE_TRANSPARENT(0.);
#819=SURFACE_SIDE_STYLE('',(#820,#817));
#820=SURFACE_STYLE_FILL_AREA(#821);
#821=FILL_AREA_STYLE('',(#822));
#822=FILL_AREA_STYLE_COLOUR('',#823);
#823=COLOUR_RGB('',0.0196078431372549,0.0196078431372549,0.0196078431372549);
ENDSEC;
END-ISO-10303-21;
