ISO-10303-21;
HEADER;
/* Generated by software containing ST-Developer
 * from STEP Tools, Inc. (www.steptools.com) 
 */

FILE_DESCRIPTION(
/* description */ (''),
/* implementation_level */ '2;1');

FILE_NAME(
/* name */ 'Vac Basic Nozzle.stp',
/* time_stamp */ '2026-07-14T16:04:04-04:00',
/* author */ ('Joshua Eah'),
/* organization */ (''),
/* preprocessor_version */ 'ST-DEVELOPER v20.1',
/* originating_system */ 'Autodesk Inventor 2026',
/* authorisation */ '');

FILE_SCHEMA (('AUTOMOTIVE_DESIGN { 1 0 10303 214 3 1 1 }'));
ENDSEC;

DATA;
#10=MECHANICAL_DESIGN_GEOMETRIC_PRESENTATION_REPRESENTATION('',(#13),#796);
#11=SHAPE_REPRESENTATION_RELATIONSHIP('SRR','None',#807,#12);
#12=ADVANCED_BREP_SHAPE_REPRESENTATION('',(#14),#795);
#13=STYLED_ITEM('',(#816),#14);
#14=MANIFOLD_SOLID_BREP('Solid2',#333);
#15=(
BOUNDED_SURFACE()
B_SPLINE_SURFACE(2,2,((#688,#689,#690,#691,#692,#693,#694,#695,#696),(#697,
#698,#699,#700,#701,#702,#703,#704,#705),(#706,#707,#708,#709,#710,#711,
#712,#713,#714)),.UNSPECIFIED.,.F.,.T.,.F.)
B_SPLINE_SURFACE_WITH_KNOTS((3,3),(3,2,2,2,3),(-1.5707963267949,4.49766079150207E-15),
(-3.14159265358979,-1.5707963267949,0.,1.5707963267949,3.14159265358979),
 .UNSPECIFIED.)
GEOMETRIC_REPRESENTATION_ITEM()
RATIONAL_B_SPLINE_SURFACE(((1.,0.707106781186548,1.,0.707106781186548,1.,
0.707106781186548,1.,0.707106781186548,1.),(0.707106781186536,0.499999999999992,
0.707106781186536,0.499999999999992,0.707106781186536,0.499999999999992,
0.707106781186536,0.499999999999992,0.707106781186536),(1.,0.707106781186548,
1.,0.707106781186548,1.,0.707106781186548,1.,0.707106781186548,1.)))
REPRESENTATION_ITEM('')
SURFACE()
);
#16=(
BOUNDED_SURFACE()
B_SPLINE_SURFACE(2,2,((#725,#726,#727,#728,#729,#730,#731,#732,#733),(#734,
#735,#736,#737,#738,#739,#740,#741,#742),(#743,#744,#745,#746,#747,#748,
#749,#750,#751)),.UNSPECIFIED.,.F.,.T.,.F.)
B_SPLINE_SURFACE_WITH_KNOTS((3,3),(3,2,2,2,3),(-1.5707963267949,3.41532025081823E-15),
(-3.14159265358979,-1.5707963267949,0.,1.5707963267949,3.14159265358979),
 .UNSPECIFIED.)
GEOMETRIC_REPRESENTATION_ITEM()
RATIONAL_B_SPLINE_SURFACE(((1.,0.707106781186548,1.,0.707106781186548,1.,
0.707106781186548,1.,0.707106781186548,1.),(0.707106781186563,0.500000000000011,
0.707106781186563,0.500000000000011,0.707106781186563,0.500000000000011,
0.707106781186563,0.500000000000011,0.707106781186563),(1.,0.707106781186548,
1.,0.707106781186548,1.,0.707106781186548,1.,0.707106781186548,1.)))
REPRESENTATION_ITEM('')
SURFACE()
);
#17=(
BOUNDED_SURFACE()
B_SPLINE_SURFACE(2,2,((#756,#757,#758,#759,#760,#761,#762,#763,#764),(#765,
#766,#767,#768,#769,#770,#771,#772,#773),(#774,#775,#776,#777,#778,#779,
#780,#781,#782)),.UNSPECIFIED.,.F.,.T.,.F.)
B_SPLINE_SURFACE_WITH_KNOTS((3,3),(3,2,2,2,3),(-1.5707963267949,0.),(-3.14159265358979,
-1.5707963267949,0.,1.5707963267949,3.14159265358979),.UNSPECIFIED.)
GEOMETRIC_REPRESENTATION_ITEM()
RATIONAL_B_SPLINE_SURFACE(((1.,0.707106781186548,1.,0.707106781186548,1.,
0.707106781186548,1.,0.707106781186548,1.),(0.70710678118655,0.500000000000002,
0.70710678118655,0.500000000000002,0.70710678118655,0.500000000000002,0.70710678118655,
0.500000000000002,0.70710678118655),(1.,0.707106781186548,1.,0.707106781186548,
1.,0.707106781186548,1.,0.707106781186548,1.)))
REPRESENTATION_ITEM('')
SURFACE()
);
#18=B_SPLINE_CURVE_WITH_KNOTS('',3,(#565,#566,#567,#568,#569,#570,#571,
#572,#573,#574,#575,#576,#577,#578,#579,#580,#581,#582),.UNSPECIFIED.,.F.,
 .F.,(4,2,2,2,2,2,2,2,4),(0.113014986785157,0.141268732892734,0.16952247900031,
0.197776226285312,0.226029973570315,0.254283720855317,0.28253746814032,
0.310791214247896,0.339044960355472),.UNSPECIFIED.);
#19=B_SPLINE_CURVE_WITH_KNOTS('',3,(#585,#586,#587,#588,#589,#590,#591,
#592,#593,#594),.UNSPECIFIED.,.F.,.F.,(4,2,2,2,4),(0.339044960355472,0.367298706463049,
0.395552452570625,0.423806199855627,0.45205994714063),.UNSPECIFIED.);
#20=B_SPLINE_CURVE_WITH_KNOTS('',3,(#595,#596,#597,#598,#599,#600,#601,
#602,#603,#604),.UNSPECIFIED.,.F.,.F.,(4,2,2,2,4),(0.,0.0282537472850025,
0.0565074945700049,0.0847612406775812,0.113014986785157),.UNSPECIFIED.);
#21=B_SPLINE_CURVE_WITH_KNOTS('',3,(#607,#608,#609,#610,#611,#612,#613,
#614,#615,#616,#617,#618,#619,#620,#621,#622,#623,#624,#625,#626,#627,#628,
#629,#630,#631,#632),.UNSPECIFIED.,.F.,.F.,(4,2,2,2,2,2,2,2,2,2,2,2,4),
(0.,0.0282537472850025,0.0565074945700049,0.0847612406775812,0.113014986785157,
0.141268732892734,0.16952247900031,0.197776226285313,0.226029973570315,
0.254283720855317,0.28253746814032,0.310791214247896,0.339044960355473),
 .UNSPECIFIED.);
#22=B_SPLINE_CURVE_WITH_KNOTS('',3,(#633,#634,#635,#636,#637,#638,#639,
#640,#641,#642),.UNSPECIFIED.,.F.,.F.,(4,2,2,2,4),(0.339044960355473,0.367298706463049,
0.395552452570625,0.423806199855628,0.45205994714063),.UNSPECIFIED.);
#23=B_SPLINE_CURVE_WITH_KNOTS('',3,(#645,#646,#647,#648,#649,#650,#651,
#652,#653,#654,#655,#656,#657,#658,#659,#660,#661,#662,#663,#664,#665,#666,
#667,#668,#669,#670),.UNSPECIFIED.,.F.,.F.,(4,2,2,2,2,2,2,2,2,2,2,2,4),
(0.,0.0282537472850026,0.0565074945700052,0.0847612406775814,0.113014986785158,
0.141268732892734,0.16952247900031,0.197776226285313,0.226029973570315,
0.254283720855318,0.28253746814032,0.310791214247896,0.339044960355473),
 .UNSPECIFIED.);
#24=B_SPLINE_CURVE_WITH_KNOTS('',3,(#671,#672,#673,#674,#675,#676,#677,
#678,#679,#680),.UNSPECIFIED.,.F.,.F.,(4,2,2,2,4),(0.339044960355473,0.367298706463049,
0.395552452570625,0.423806199855628,0.45205994714063),.UNSPECIFIED.);
#25=CYLINDRICAL_SURFACE('',#378,0.787401574803149);
#26=CYLINDRICAL_SURFACE('',#384,0.885826771653543);
#27=CYLINDRICAL_SURFACE('',#386,0.0295275590551181);
#28=CYLINDRICAL_SURFACE('',#392,0.0295275590551181);
#29=CYLINDRICAL_SURFACE('',#402,0.0295275590551181);
#30=LINE('',#529,#38);
#31=LINE('',#539,#39);
#32=LINE('',#554,#40);
#33=LINE('',#563,#41);
#34=LINE('',#583,#42);
#35=LINE('',#684,#43);
#36=LINE('',#721,#44);
#37=LINE('',#791,#45);
#38=VECTOR('',#426,0.776674414382263);
#39=VECTOR('',#439,0.678155449307133);
#40=VECTOR('',#458,0.787401574803149);
#41=VECTOR('',#469,0.885826771653543);
#42=VECTOR('',#470,0.885826771653543);
#43=VECTOR('',#475,0.0295275590551181);
#44=VECTOR('',#488,0.0295275590551181);
#45=VECTOR('',#509,0.0295275590551181);
#46=CONICAL_SURFACE('',#362,0.776674414382263,0.0436332312998583);
#47=CONICAL_SURFACE('',#369,0.678155449307133,0.0436332312998585);
#48=FACE_BOUND('',#81,.T.);
#49=FACE_BOUND('',#87,.T.);
#50=FACE_BOUND('',#91,.T.);
#51=FACE_BOUND('',#92,.T.);
#52=FACE_BOUND('',#94,.T.);
#53=PLANE('',#360);
#54=PLANE('',#376);
#55=PLANE('',#385);
#56=PLANE('',#391);
#57=PLANE('',#397);
#58=PLANE('',#403);
#59=FACE_OUTER_BOUND('',#79,.T.);
#60=FACE_OUTER_BOUND('',#80,.T.);
#61=FACE_OUTER_BOUND('',#82,.T.);
#62=FACE_OUTER_BOUND('',#83,.T.);
#63=FACE_OUTER_BOUND('',#84,.T.);
#64=FACE_OUTER_BOUND('',#85,.T.);
#65=FACE_OUTER_BOUND('',#86,.T.);
#66=FACE_OUTER_BOUND('',#88,.T.);
#67=FACE_OUTER_BOUND('',#89,.T.);
#68=FACE_OUTER_BOUND('',#90,.T.);
#69=FACE_OUTER_BOUND('',#93,.T.);
#70=FACE_OUTER_BOUND('',#95,.T.);
#71=FACE_OUTER_BOUND('',#96,.T.);
#72=FACE_OUTER_BOUND('',#97,.T.);
#73=FACE_OUTER_BOUND('',#98,.T.);
#74=FACE_OUTER_BOUND('',#99,.T.);
#75=FACE_OUTER_BOUND('',#100,.T.);
#76=FACE_OUTER_BOUND('',#101,.T.);
#77=FACE_OUTER_BOUND('',#102,.T.);
#78=FACE_OUTER_BOUND('',#103,.T.);
#79=EDGE_LOOP('',(#215,#216,#217,#218,#219));
#80=EDGE_LOOP('',(#220));
#81=EDGE_LOOP('',(#221));
#82=EDGE_LOOP('',(#222,#223,#224,#225,#226,#227));
#83=EDGE_LOOP('',(#228,#229,#230,#231,#232));
#84=EDGE_LOOP('',(#233,#234,#235,#236,#237));
#85=EDGE_LOOP('',(#238,#239,#240,#241,#242));
#86=EDGE_LOOP('',(#243));
#87=EDGE_LOOP('',(#244));
#88=EDGE_LOOP('',(#245,#246,#247,#248,#249));
#89=EDGE_LOOP('',(#250,#251,#252,#253,#254));
#90=EDGE_LOOP('',(#255,#256,#257,#258,#259,#260,#261,#262,#263,#264,#265));
#91=EDGE_LOOP('',(#266,#267));
#92=EDGE_LOOP('',(#268,#269));
#93=EDGE_LOOP('',(#270));
#94=EDGE_LOOP('',(#271));
#95=EDGE_LOOP('',(#272,#273,#274,#275,#276,#277));
#96=EDGE_LOOP('',(#278,#279,#280,#281,#282));
#97=EDGE_LOOP('',(#283));
#98=EDGE_LOOP('',(#284,#285,#286,#287,#288,#289));
#99=EDGE_LOOP('',(#290,#291,#292,#293,#294));
#100=EDGE_LOOP('',(#295));
#101=EDGE_LOOP('',(#296,#297,#298,#299,#300));
#102=EDGE_LOOP('',(#301,#302,#303,#304,#305,#306,#307));
#103=EDGE_LOOP('',(#308));
#104=CIRCLE('',#356,0.66817963946259);
#105=CIRCLE('',#357,0.66817963946259);
#106=CIRCLE('',#358,0.015748031496063);
#107=CIRCLE('',#359,0.652446596603033);
#108=CIRCLE('',#361,0.585453700351944);
#109=CIRCLE('',#363,0.885826771653543);
#110=CIRCLE('',#364,0.885826771653543);
#111=CIRCLE('',#366,0.015748031496063);
#112=CIRCLE('',#367,0.569720657492387);
#113=CIRCLE('',#368,0.569720657492387);
#114=CIRCLE('',#370,0.787307806578414);
#115=CIRCLE('',#372,0.787401574803149);
#116=CIRCLE('',#373,0.015748031496063);
#117=CIRCLE('',#374,0.803149606299212);
#118=CIRCLE('',#375,0.787401574803149);
#119=CIRCLE('',#377,0.87007874015748);
#120=CIRCLE('',#379,0.787401574803149);
#121=CIRCLE('',#381,0.885826771653543);
#122=CIRCLE('',#382,0.015748031496063);
#123=CIRCLE('',#383,0.885826771653543);
#124=CIRCLE('',#387,0.0295275590551181);
#125=CIRCLE('',#388,0.0295275590551181);
#126=CIRCLE('',#389,0.0196850393700787);
#127=CIRCLE('',#390,0.00984251968503935);
#128=CIRCLE('',#393,0.0295275590551181);
#129=CIRCLE('',#394,0.0295275590551181);
#130=CIRCLE('',#395,0.0196850393700787);
#131=CIRCLE('',#396,0.00984251968503935);
#132=CIRCLE('',#398,0.0295275590551181);
#133=CIRCLE('',#399,0.0295275590551181);
#134=CIRCLE('',#400,0.0196850393700787);
#135=CIRCLE('',#401,0.00984251968503935);
#136=VERTEX_POINT('',#514);
#137=VERTEX_POINT('',#515);
#138=VERTEX_POINT('',#518);
#139=VERTEX_POINT('',#522);
#140=VERTEX_POINT('',#525);
#141=VERTEX_POINT('',#526);
#142=VERTEX_POINT('',#531);
#143=VERTEX_POINT('',#533);
#144=VERTEX_POINT('',#537);
#145=VERTEX_POINT('',#541);
#146=VERTEX_POINT('',#542);
#147=VERTEX_POINT('',#544);
#148=VERTEX_POINT('',#549);
#149=VERTEX_POINT('',#552);
#150=VERTEX_POINT('',#556);
#151=VERTEX_POINT('',#557);
#152=VERTEX_POINT('',#562);
#153=VERTEX_POINT('',#564);
#154=VERTEX_POINT('',#584);
#155=VERTEX_POINT('',#605);
#156=VERTEX_POINT('',#606);
#157=VERTEX_POINT('',#643);
#158=VERTEX_POINT('',#644);
#159=VERTEX_POINT('',#683);
#160=VERTEX_POINT('',#685);
#161=VERTEX_POINT('',#715);
#162=VERTEX_POINT('',#720);
#163=VERTEX_POINT('',#722);
#164=VERTEX_POINT('',#752);
#165=VERTEX_POINT('',#783);
#166=VERTEX_POINT('',#784);
#167=VERTEX_POINT('',#787);
#168=EDGE_CURVE('',#136,#137,#104,.T.);
#169=EDGE_CURVE('',#137,#136,#105,.T.);
#170=EDGE_CURVE('',#136,#138,#106,.T.);
#171=EDGE_CURVE('',#138,#138,#107,.T.);
#172=EDGE_CURVE('',#139,#139,#108,.T.);
#173=EDGE_CURVE('',#140,#141,#109,.T.);
#174=EDGE_CURVE('',#141,#140,#110,.T.);
#175=EDGE_CURVE('',#140,#137,#30,.T.);
#176=EDGE_CURVE('',#139,#142,#111,.T.);
#177=EDGE_CURVE('',#142,#143,#112,.T.);
#178=EDGE_CURVE('',#143,#142,#113,.T.);
#179=EDGE_CURVE('',#144,#144,#114,.T.);
#180=EDGE_CURVE('',#144,#143,#31,.T.);
#181=EDGE_CURVE('',#145,#146,#115,.T.);
#182=EDGE_CURVE('',#146,#147,#116,.T.);
#183=EDGE_CURVE('',#147,#147,#117,.T.);
#184=EDGE_CURVE('',#146,#145,#118,.T.);
#185=EDGE_CURVE('',#148,#148,#119,.T.);
#186=EDGE_CURVE('',#149,#149,#120,.T.);
#187=EDGE_CURVE('',#149,#145,#32,.T.);
#188=EDGE_CURVE('',#150,#151,#121,.T.);
#189=EDGE_CURVE('',#151,#148,#122,.T.);
#190=EDGE_CURVE('',#151,#150,#123,.T.);
#191=EDGE_CURVE('',#141,#152,#33,.T.);
#192=EDGE_CURVE('',#152,#153,#18,.T.);
#193=EDGE_CURVE('',#153,#150,#34,.T.);
#194=EDGE_CURVE('',#153,#154,#19,.T.);
#195=EDGE_CURVE('',#154,#152,#20,.T.);
#196=EDGE_CURVE('',#155,#156,#21,.T.);
#197=EDGE_CURVE('',#156,#155,#22,.T.);
#198=EDGE_CURVE('',#157,#158,#23,.T.);
#199=EDGE_CURVE('',#158,#157,#24,.T.);
#200=EDGE_CURVE('',#158,#159,#35,.T.);
#201=EDGE_CURVE('',#160,#159,#124,.T.);
#202=EDGE_CURVE('',#159,#160,#125,.T.);
#203=EDGE_CURVE('',#160,#161,#126,.T.);
#204=EDGE_CURVE('',#161,#161,#127,.T.);
#205=EDGE_CURVE('',#156,#162,#36,.T.);
#206=EDGE_CURVE('',#163,#162,#128,.T.);
#207=EDGE_CURVE('',#162,#163,#129,.T.);
#208=EDGE_CURVE('',#163,#164,#130,.T.);
#209=EDGE_CURVE('',#164,#164,#131,.T.);
#210=EDGE_CURVE('',#165,#166,#132,.T.);
#211=EDGE_CURVE('',#166,#165,#133,.T.);
#212=EDGE_CURVE('',#165,#167,#134,.T.);
#213=EDGE_CURVE('',#167,#167,#135,.T.);
#214=EDGE_CURVE('',#153,#166,#37,.T.);
#215=ORIENTED_EDGE('',*,*,#168,.T.);
#216=ORIENTED_EDGE('',*,*,#169,.T.);
#217=ORIENTED_EDGE('',*,*,#170,.T.);
#218=ORIENTED_EDGE('',*,*,#171,.T.);
#219=ORIENTED_EDGE('',*,*,#170,.F.);
#220=ORIENTED_EDGE('',*,*,#171,.F.);
#221=ORIENTED_EDGE('',*,*,#172,.F.);
#222=ORIENTED_EDGE('',*,*,#173,.T.);
#223=ORIENTED_EDGE('',*,*,#174,.T.);
#224=ORIENTED_EDGE('',*,*,#175,.T.);
#225=ORIENTED_EDGE('',*,*,#168,.F.);
#226=ORIENTED_EDGE('',*,*,#169,.F.);
#227=ORIENTED_EDGE('',*,*,#175,.F.);
#228=ORIENTED_EDGE('',*,*,#172,.T.);
#229=ORIENTED_EDGE('',*,*,#176,.T.);
#230=ORIENTED_EDGE('',*,*,#177,.T.);
#231=ORIENTED_EDGE('',*,*,#178,.T.);
#232=ORIENTED_EDGE('',*,*,#176,.F.);
#233=ORIENTED_EDGE('',*,*,#179,.T.);
#234=ORIENTED_EDGE('',*,*,#180,.T.);
#235=ORIENTED_EDGE('',*,*,#177,.F.);
#236=ORIENTED_EDGE('',*,*,#178,.F.);
#237=ORIENTED_EDGE('',*,*,#180,.F.);
#238=ORIENTED_EDGE('',*,*,#181,.T.);
#239=ORIENTED_EDGE('',*,*,#182,.T.);
#240=ORIENTED_EDGE('',*,*,#183,.T.);
#241=ORIENTED_EDGE('',*,*,#182,.F.);
#242=ORIENTED_EDGE('',*,*,#184,.T.);
#243=ORIENTED_EDGE('',*,*,#185,.F.);
#244=ORIENTED_EDGE('',*,*,#183,.F.);
#245=ORIENTED_EDGE('',*,*,#186,.F.);
#246=ORIENTED_EDGE('',*,*,#187,.T.);
#247=ORIENTED_EDGE('',*,*,#184,.F.);
#248=ORIENTED_EDGE('',*,*,#181,.F.);
#249=ORIENTED_EDGE('',*,*,#187,.F.);
#250=ORIENTED_EDGE('',*,*,#188,.T.);
#251=ORIENTED_EDGE('',*,*,#189,.T.);
#252=ORIENTED_EDGE('',*,*,#185,.T.);
#253=ORIENTED_EDGE('',*,*,#189,.F.);
#254=ORIENTED_EDGE('',*,*,#190,.T.);
#255=ORIENTED_EDGE('',*,*,#173,.F.);
#256=ORIENTED_EDGE('',*,*,#174,.F.);
#257=ORIENTED_EDGE('',*,*,#191,.T.);
#258=ORIENTED_EDGE('',*,*,#192,.T.);
#259=ORIENTED_EDGE('',*,*,#193,.T.);
#260=ORIENTED_EDGE('',*,*,#190,.F.);
#261=ORIENTED_EDGE('',*,*,#188,.F.);
#262=ORIENTED_EDGE('',*,*,#193,.F.);
#263=ORIENTED_EDGE('',*,*,#194,.T.);
#264=ORIENTED_EDGE('',*,*,#195,.T.);
#265=ORIENTED_EDGE('',*,*,#191,.F.);
#266=ORIENTED_EDGE('',*,*,#196,.T.);
#267=ORIENTED_EDGE('',*,*,#197,.T.);
#268=ORIENTED_EDGE('',*,*,#198,.T.);
#269=ORIENTED_EDGE('',*,*,#199,.T.);
#270=ORIENTED_EDGE('',*,*,#186,.T.);
#271=ORIENTED_EDGE('',*,*,#179,.F.);
#272=ORIENTED_EDGE('',*,*,#198,.F.);
#273=ORIENTED_EDGE('',*,*,#199,.F.);
#274=ORIENTED_EDGE('',*,*,#200,.T.);
#275=ORIENTED_EDGE('',*,*,#201,.F.);
#276=ORIENTED_EDGE('',*,*,#202,.F.);
#277=ORIENTED_EDGE('',*,*,#200,.F.);
#278=ORIENTED_EDGE('',*,*,#201,.T.);
#279=ORIENTED_EDGE('',*,*,#202,.T.);
#280=ORIENTED_EDGE('',*,*,#203,.T.);
#281=ORIENTED_EDGE('',*,*,#204,.T.);
#282=ORIENTED_EDGE('',*,*,#203,.F.);
#283=ORIENTED_EDGE('',*,*,#204,.F.);
#284=ORIENTED_EDGE('',*,*,#196,.F.);
#285=ORIENTED_EDGE('',*,*,#197,.F.);
#286=ORIENTED_EDGE('',*,*,#205,.T.);
#287=ORIENTED_EDGE('',*,*,#206,.F.);
#288=ORIENTED_EDGE('',*,*,#207,.F.);
#289=ORIENTED_EDGE('',*,*,#205,.F.);
#290=ORIENTED_EDGE('',*,*,#206,.T.);
#291=ORIENTED_EDGE('',*,*,#207,.T.);
#292=ORIENTED_EDGE('',*,*,#208,.T.);
#293=ORIENTED_EDGE('',*,*,#209,.T.);
#294=ORIENTED_EDGE('',*,*,#208,.F.);
#295=ORIENTED_EDGE('',*,*,#209,.F.);
#296=ORIENTED_EDGE('',*,*,#210,.T.);
#297=ORIENTED_EDGE('',*,*,#211,.T.);
#298=ORIENTED_EDGE('',*,*,#212,.T.);
#299=ORIENTED_EDGE('',*,*,#213,.T.);
#300=ORIENTED_EDGE('',*,*,#212,.F.);
#301=ORIENTED_EDGE('',*,*,#195,.F.);
#302=ORIENTED_EDGE('',*,*,#194,.F.);
#303=ORIENTED_EDGE('',*,*,#214,.T.);
#304=ORIENTED_EDGE('',*,*,#210,.F.);
#305=ORIENTED_EDGE('',*,*,#211,.F.);
#306=ORIENTED_EDGE('',*,*,#214,.F.);
#307=ORIENTED_EDGE('',*,*,#192,.F.);
#308=ORIENTED_EDGE('',*,*,#213,.F.);
#309=TOROIDAL_SURFACE('',#355,0.652446596603033,0.015748031496063);
#310=TOROIDAL_SURFACE('',#365,0.585453700351944,0.015748031496063);
#311=TOROIDAL_SURFACE('',#371,0.803149606299212,0.015748031496063);
#312=TOROIDAL_SURFACE('',#380,0.87007874015748,0.015748031496063);
#313=ADVANCED_FACE('',(#59),#309,.T.);
#314=ADVANCED_FACE('',(#60,#48),#53,.T.);
#315=ADVANCED_FACE('',(#61),#46,.T.);
#316=ADVANCED_FACE('',(#62),#310,.T.);
#317=ADVANCED_FACE('',(#63),#47,.F.);
#318=ADVANCED_FACE('',(#64),#311,.T.);
#319=ADVANCED_FACE('',(#65,#49),#54,.F.);
#320=ADVANCED_FACE('',(#66),#25,.F.);
#321=ADVANCED_FACE('',(#67),#312,.T.);
#322=ADVANCED_FACE('',(#68,#50,#51),#26,.T.);
#323=ADVANCED_FACE('',(#69,#52),#55,.T.);
#324=ADVANCED_FACE('',(#70),#27,.T.);
#325=ADVANCED_FACE('',(#71),#15,.F.);
#326=ADVANCED_FACE('',(#72),#56,.T.);
#327=ADVANCED_FACE('',(#73),#28,.T.);
#328=ADVANCED_FACE('',(#74),#16,.F.);
#329=ADVANCED_FACE('',(#75),#57,.T.);
#330=ADVANCED_FACE('',(#76),#17,.F.);
#331=ADVANCED_FACE('',(#77),#29,.T.);
#332=ADVANCED_FACE('',(#78),#58,.T.);
#333=CLOSED_SHELL('',(#313,#314,#315,#316,#317,#318,#319,#320,#321,#322,
#323,#324,#325,#326,#327,#328,#329,#330,#331,#332));
#334=DERIVED_UNIT_ELEMENT(#336,1.);
#335=DERIVED_UNIT_ELEMENT(#801,-3.);
#336=(
CONVERSION_BASED_UNIT('gram',#338)
MASS_UNIT()
NAMED_UNIT(#798)
);
#337=(
MASS_UNIT()
NAMED_UNIT(*)
SI_UNIT(.KILO.,.GRAM.)
);
#338=MASS_MEASURE_WITH_UNIT(MASS_MEASURE(0.001),#337);
#339=DERIVED_UNIT((#334,#335));
#340=MEASURE_REPRESENTATION_ITEM('density measure',
POSITIVE_RATIO_MEASURE(1.29),#339);
#341=PROPERTY_DEFINITION_REPRESENTATION(#346,#343);
#342=PROPERTY_DEFINITION_REPRESENTATION(#347,#344);
#343=REPRESENTATION('material name',(#345),#795);
#344=REPRESENTATION('density',(#340),#795);
#345=DESCRIPTIVE_REPRESENTATION_ITEM('PVC, Unplasticized',
'PVC, Unplasticized');
#346=PROPERTY_DEFINITION('material property','material name',#809);
#347=PROPERTY_DEFINITION('material property','density of part',#809);
#348=DATE_TIME_ROLE('creation_date');
#349=APPLIED_DATE_AND_TIME_ASSIGNMENT(#350,#348,(#809));
#350=DATE_AND_TIME(#351,#352);
#351=CALENDAR_DATE(2026,13,7);
#352=LOCAL_TIME(0,0,0.,#353);
#353=COORDINATED_UNIVERSAL_TIME_OFFSET(0,0,.BEHIND.);
#354=AXIS2_PLACEMENT_3D('',#512,#404,#405);
#355=AXIS2_PLACEMENT_3D('',#513,#406,#407);
#356=AXIS2_PLACEMENT_3D('',#516,#408,#409);
#357=AXIS2_PLACEMENT_3D('',#517,#410,#411);
#358=AXIS2_PLACEMENT_3D('',#519,#412,#413);
#359=AXIS2_PLACEMENT_3D('',#520,#414,#415);
#360=AXIS2_PLACEMENT_3D('',#521,#416,#417);
#361=AXIS2_PLACEMENT_3D('',#523,#418,#419);
#362=AXIS2_PLACEMENT_3D('',#524,#420,#421);
#363=AXIS2_PLACEMENT_3D('',#527,#422,#423);
#364=AXIS2_PLACEMENT_3D('',#528,#424,#425);
#365=AXIS2_PLACEMENT_3D('',#530,#427,#428);
#366=AXIS2_PLACEMENT_3D('',#532,#429,#430);
#367=AXIS2_PLACEMENT_3D('',#534,#431,#432);
#368=AXIS2_PLACEMENT_3D('',#535,#433,#434);
#369=AXIS2_PLACEMENT_3D('',#536,#435,#436);
#370=AXIS2_PLACEMENT_3D('',#538,#437,#438);
#371=AXIS2_PLACEMENT_3D('',#540,#440,#441);
#372=AXIS2_PLACEMENT_3D('',#543,#442,#443);
#373=AXIS2_PLACEMENT_3D('',#545,#444,#445);
#374=AXIS2_PLACEMENT_3D('',#546,#446,#447);
#375=AXIS2_PLACEMENT_3D('',#547,#448,#449);
#376=AXIS2_PLACEMENT_3D('',#548,#450,#451);
#377=AXIS2_PLACEMENT_3D('',#550,#452,#453);
#378=AXIS2_PLACEMENT_3D('',#551,#454,#455);
#379=AXIS2_PLACEMENT_3D('',#553,#456,#457);
#380=AXIS2_PLACEMENT_3D('',#555,#459,#460);
#381=AXIS2_PLACEMENT_3D('',#558,#461,#462);
#382=AXIS2_PLACEMENT_3D('',#559,#463,#464);
#383=AXIS2_PLACEMENT_3D('',#560,#465,#466);
#384=AXIS2_PLACEMENT_3D('',#561,#467,#468);
#385=AXIS2_PLACEMENT_3D('',#681,#471,#472);
#386=AXIS2_PLACEMENT_3D('',#682,#473,#474);
#387=AXIS2_PLACEMENT_3D('',#686,#476,#477);
#388=AXIS2_PLACEMENT_3D('',#687,#478,#479);
#389=AXIS2_PLACEMENT_3D('',#716,#480,#481);
#390=AXIS2_PLACEMENT_3D('',#717,#482,#483);
#391=AXIS2_PLACEMENT_3D('',#718,#484,#485);
#392=AXIS2_PLACEMENT_3D('',#719,#486,#487);
#393=AXIS2_PLACEMENT_3D('',#723,#489,#490);
#394=AXIS2_PLACEMENT_3D('',#724,#491,#492);
#395=AXIS2_PLACEMENT_3D('',#753,#493,#494);
#396=AXIS2_PLACEMENT_3D('',#754,#495,#496);
#397=AXIS2_PLACEMENT_3D('',#755,#497,#498);
#398=AXIS2_PLACEMENT_3D('',#785,#499,#500);
#399=AXIS2_PLACEMENT_3D('',#786,#501,#502);
#400=AXIS2_PLACEMENT_3D('',#788,#503,#504);
#401=AXIS2_PLACEMENT_3D('',#789,#505,#506);
#402=AXIS2_PLACEMENT_3D('',#790,#507,#508);
#403=AXIS2_PLACEMENT_3D('',#792,#510,#511);
#404=DIRECTION('axis',(0.,0.,1.));
#405=DIRECTION('refdir',(1.,0.,0.));
#406=DIRECTION('center_axis',(0.,-1.,0.));
#407=DIRECTION('ref_axis',(0.,0.,-1.));
#408=DIRECTION('center_axis',(0.,1.,0.));
#409=DIRECTION('ref_axis',(-1.,0.,0.));
#410=DIRECTION('center_axis',(0.,1.,0.));
#411=DIRECTION('ref_axis',(-1.,0.,0.));
#412=DIRECTION('center_axis',(-1.,0.,-1.22464679914735E-16));
#413=DIRECTION('ref_axis',(-1.22464679914735E-16,0.,1.));
#414=DIRECTION('center_axis',(0.,-1.,0.));
#415=DIRECTION('ref_axis',(-1.,0.,1.22464679914735E-16));
#416=DIRECTION('center_axis',(0.,1.,0.));
#417=DIRECTION('ref_axis',(0.,0.,1.));
#418=DIRECTION('center_axis',(0.,1.,0.));
#419=DIRECTION('ref_axis',(-1.,0.,1.22464679914735E-16));
#420=DIRECTION('center_axis',(0.,-1.,0.));
#421=DIRECTION('ref_axis',(1.,0.,0.));
#422=DIRECTION('center_axis',(0.,1.,0.));
#423=DIRECTION('ref_axis',(-1.,0.,0.));
#424=DIRECTION('center_axis',(0.,1.,0.));
#425=DIRECTION('ref_axis',(-1.,0.,0.));
#426=DIRECTION('',(0.0436193873653361,0.999048221581858,5.34183431177273E-18));
#427=DIRECTION('center_axis',(0.,-1.,0.));
#428=DIRECTION('ref_axis',(0.,0.,-1.));
#429=DIRECTION('center_axis',(-1.,0.,-1.22464679914735E-16));
#430=DIRECTION('ref_axis',(-1.22464679914735E-16,0.,1.));
#431=DIRECTION('center_axis',(0.,-1.,0.));
#432=DIRECTION('ref_axis',(-1.,0.,-1.70354955676228E-32));
#433=DIRECTION('center_axis',(0.,-1.,0.));
#434=DIRECTION('ref_axis',(-1.,0.,-1.70354955676228E-32));
#435=DIRECTION('center_axis',(0.,-1.,0.));
#436=DIRECTION('ref_axis',(1.,0.,0.));
#437=DIRECTION('center_axis',(0.,-1.,0.));
#438=DIRECTION('ref_axis',(1.,0.,0.));
#439=DIRECTION('',(0.0436193873653363,0.999048221581858,5.34183431177276E-18));
#440=DIRECTION('center_axis',(0.,-1.,0.));
#441=DIRECTION('ref_axis',(0.,0.,-1.));
#442=DIRECTION('center_axis',(0.,1.,0.));
#443=DIRECTION('ref_axis',(1.,0.,0.));
#444=DIRECTION('center_axis',(-1.,0.,-1.22464679914735E-16));
#445=DIRECTION('ref_axis',(-1.22464679914735E-16,0.,1.));
#446=DIRECTION('center_axis',(0.,-1.,0.));
#447=DIRECTION('ref_axis',(1.,0.,0.));
#448=DIRECTION('center_axis',(0.,1.,0.));
#449=DIRECTION('ref_axis',(1.,0.,0.));
#450=DIRECTION('center_axis',(0.,1.,0.));
#451=DIRECTION('ref_axis',(0.,0.,1.));
#452=DIRECTION('center_axis',(0.,1.,0.));
#453=DIRECTION('ref_axis',(1.,0.,1.22464679914735E-16));
#454=DIRECTION('center_axis',(0.,1.,0.));
#455=DIRECTION('ref_axis',(1.,0.,0.));
#456=DIRECTION('center_axis',(0.,-1.,0.));
#457=DIRECTION('ref_axis',(1.,0.,0.));
#458=DIRECTION('',(0.,-1.,0.));
#459=DIRECTION('center_axis',(0.,1.,0.));
#460=DIRECTION('ref_axis',(0.,0.,1.));
#461=DIRECTION('center_axis',(0.,-1.,0.));
#462=DIRECTION('ref_axis',(1.,0.,1.22464679914735E-16));
#463=DIRECTION('center_axis',(-1.,0.,1.22464679914735E-16));
#464=DIRECTION('ref_axis',(-1.22464679914735E-16,0.,-1.));
#465=DIRECTION('center_axis',(0.,-1.,0.));
#466=DIRECTION('ref_axis',(1.,0.,1.22464679914735E-16));
#467=DIRECTION('center_axis',(0.,1.,0.));
#468=DIRECTION('ref_axis',(-1.,0.,0.));
#469=DIRECTION('',(0.,-1.,0.));
#470=DIRECTION('',(0.,-1.,0.));
#471=DIRECTION('center_axis',(0.,-1.,0.));
#472=DIRECTION('ref_axis',(0.,0.,-1.));
#473=DIRECTION('center_axis',(0.5,0.,-0.866025403784438));
#474=DIRECTION('ref_axis',(0.,1.,0.));
#475=DIRECTION('',(-0.5,0.,0.866025403784438));
#476=DIRECTION('center_axis',(-0.5,0.,0.866025403784438));
#477=DIRECTION('ref_axis',(1.59086285808736E-16,-1.,9.18485099360516E-17));
#478=DIRECTION('center_axis',(-0.5,0.,0.866025403784438));
#479=DIRECTION('ref_axis',(1.59086285808736E-16,-1.,9.18485099360516E-17));
#480=DIRECTION('center_axis',(0.,-1.,0.));
#481=DIRECTION('ref_axis',(0.866025403784438,0.,0.500000000000002));
#482=DIRECTION('center_axis',(0.5,0.,-0.866025403784438));
#483=DIRECTION('ref_axis',(1.59086285808736E-16,-1.,9.18485099360516E-17));
#484=DIRECTION('center_axis',(-0.5,0.,0.866025403784438));
#485=DIRECTION('ref_axis',(0.866025403784438,0.,0.5));
#486=DIRECTION('center_axis',(0.5,0.,0.866025403784439));
#487=DIRECTION('ref_axis',(0.,1.,0.));
#488=DIRECTION('',(-0.5,0.,-0.866025403784439));
#489=DIRECTION('center_axis',(-0.5,0.,-0.866025403784439));
#490=DIRECTION('ref_axis',(-1.59086285808736E-16,-1.,9.18485099360515E-17));
#491=DIRECTION('center_axis',(-0.5,0.,-0.866025403784439));
#492=DIRECTION('ref_axis',(-1.59086285808736E-16,-1.,9.18485099360515E-17));
#493=DIRECTION('center_axis',(0.,-1.,0.));
#494=DIRECTION('ref_axis',(-0.866025403784439,0.,0.499999999999999));
#495=DIRECTION('center_axis',(0.5,0.,0.866025403784439));
#496=DIRECTION('ref_axis',(-1.59086285808736E-16,-1.,9.18485099360515E-17));
#497=DIRECTION('center_axis',(-0.5,0.,-0.866025403784439));
#498=DIRECTION('ref_axis',(-0.866025403784439,0.,0.5));
#499=DIRECTION('center_axis',(1.,0.,0.));
#500=DIRECTION('ref_axis',(0.,-1.,-1.83697019872103E-16));
#501=DIRECTION('center_axis',(1.,0.,0.));
#502=DIRECTION('ref_axis',(0.,-1.,-1.83697019872103E-16));
#503=DIRECTION('center_axis',(0.,-1.,0.));
#504=DIRECTION('ref_axis',(0.,0.,-1.));
#505=DIRECTION('center_axis',(-1.,0.,0.));
#506=DIRECTION('ref_axis',(0.,-1.,-1.83697019872103E-16));
#507=DIRECTION('center_axis',(-1.,0.,0.));
#508=DIRECTION('ref_axis',(0.,1.,0.));
#509=DIRECTION('',(1.,0.,0.));
#510=DIRECTION('center_axis',(1.,0.,0.));
#511=DIRECTION('ref_axis',(0.,0.,-1.));
#512=CARTESIAN_POINT('',(0.,0.,0.));
#513=CARTESIAN_POINT('Origin',(0.,5.5748031496063,0.));
#514=CARTESIAN_POINT('',(-8.18284056723293E-17,5.57549006909237,0.668179639462589));
#515=CARTESIAN_POINT('',(-0.66817963946259,5.57549006909237,-8.18284056723293E-17));
#516=CARTESIAN_POINT('Origin',(0.,5.57549006909237,-8.18284056723293E-17));
#517=CARTESIAN_POINT('Origin',(0.,5.57549006909237,-8.18284056723293E-17));
#518=CARTESIAN_POINT('',(-7.99016636144488E-17,5.59055118110236,0.652446596603033));
#519=CARTESIAN_POINT('Origin',(-7.99016636144488E-17,5.5748031496063,0.652446596603033));
#520=CARTESIAN_POINT('Origin',(0.,5.59055118110236,0.));
#521=CARTESIAN_POINT('Origin',(0.667522057110982,5.59055118110236,0.));
#522=CARTESIAN_POINT('',(-7.16974000184982E-17,5.59055118110236,0.585453700351944));
#523=CARTESIAN_POINT('Origin',(0.,5.59055118110236,0.));
#524=CARTESIAN_POINT('Origin',(0.,3.09055118110236,0.));
#525=CARTESIAN_POINT('',(-0.885826771653543,0.590551181102362,0.));
#526=CARTESIAN_POINT('',(0.885826771653543,0.590551181102362,-1.08482492050454E-16));
#527=CARTESIAN_POINT('Origin',(0.,0.590551181102362,0.));
#528=CARTESIAN_POINT('Origin',(0.,0.590551181102362,0.));
#529=CARTESIAN_POINT('',(-0.776674414382263,3.09055118110236,-9.51151835552883E-17));
#530=CARTESIAN_POINT('Origin',(0.,5.5748031496063,0.));
#531=CARTESIAN_POINT('',(-6.97706579606178E-17,5.57411623012023,0.569720657492387));
#532=CARTESIAN_POINT('Origin',(-7.16974000184982E-17,5.5748031496063,0.585453700351944));
#533=CARTESIAN_POINT('',(-0.569720657492387,5.57411623012023,-6.97706579606178E-17));
#534=CARTESIAN_POINT('Origin',(0.,5.57411623012023,-6.97706579606178E-17));
#535=CARTESIAN_POINT('Origin',(0.,5.57411623012023,-6.97706579606178E-17));
#536=CARTESIAN_POINT('Origin',(0.,3.09055118110236,0.));
#537=CARTESIAN_POINT('',(-0.787307806578414,0.590551181102362,-9.64173985269978E-17));
#538=CARTESIAN_POINT('Origin',(0.,0.590551181102362,0.));
#539=CARTESIAN_POINT('',(-0.678155449307133,3.09055118110236,-8.30500900318316E-17));
#540=CARTESIAN_POINT('Origin',(0.,0.015748031496063,0.));
#541=CARTESIAN_POINT('',(-0.787401574803149,0.015748031496063,9.64288818226262E-17));
#542=CARTESIAN_POINT('',(-9.64288818226262E-17,0.015748031496063,0.787401574803149));
#543=CARTESIAN_POINT('Origin',(0.,0.015748031496063,0.));
#544=CARTESIAN_POINT('',(-9.83574594590787E-17,0.,0.803149606299212));
#545=CARTESIAN_POINT('Origin',(-9.83574594590787E-17,0.015748031496063,
0.803149606299212));
#546=CARTESIAN_POINT('Origin',(0.,0.,0.));
#547=CARTESIAN_POINT('Origin',(0.,0.015748031496063,0.));
#548=CARTESIAN_POINT('Origin',(0.,0.,0.));
#549=CARTESIAN_POINT('',(-1.06553914414002E-16,0.,-0.87007874015748));
#550=CARTESIAN_POINT('Origin',(0.,0.,0.));
#551=CARTESIAN_POINT('Origin',(0.,0.,0.));
#552=CARTESIAN_POINT('',(-0.787401574803149,0.590551181102362,9.64288818226262E-17));
#553=CARTESIAN_POINT('Origin',(0.,0.590551181102362,0.));
#554=CARTESIAN_POINT('',(-0.787401574803149,0.,9.64288818226262E-17));
#555=CARTESIAN_POINT('Origin',(0.,0.015748031496063,0.));
#556=CARTESIAN_POINT('',(0.885826771653543,0.015748031496063,-1.08482492050454E-16));
#557=CARTESIAN_POINT('',(-1.08482492050454E-16,0.015748031496063,-0.885826771653543));
#558=CARTESIAN_POINT('Origin',(0.,0.015748031496063,0.));
#559=CARTESIAN_POINT('Origin',(-1.06553914414002E-16,0.015748031496063,
-0.87007874015748));
#560=CARTESIAN_POINT('Origin',(0.,0.015748031496063,0.));
#561=CARTESIAN_POINT('Origin',(0.,0.,0.));
#562=CARTESIAN_POINT('',(0.885826771653543,0.324803149606299,-5.42412460252272E-17));
#563=CARTESIAN_POINT('',(0.885826771653543,0.,-1.08482492050454E-16));
#564=CARTESIAN_POINT('',(0.885826771653543,0.265748031496063,-5.61193915208714E-17));
#565=CARTESIAN_POINT('Ctrl Pts',(0.885826771653543,0.324803149606299,0.));
#566=CARTESIAN_POINT('Ctrl Pts',(0.885826771653543,0.324803149606299,-0.00370784069653232));
#567=CARTESIAN_POINT('Ctrl Pts',(0.885801098740937,0.32406208060972,-0.00766263925483059));
#568=CARTESIAN_POINT('Ctrl Pts',(0.885708288612638,0.32104859961331,-0.0149375384151741));
#569=CARTESIAN_POINT('Ctrl Pts',(0.8856424804062,0.318776202820187,-0.0182576622105147));
#570=CARTESIAN_POINT('Ctrl Pts',(0.885518868544234,0.313533252652451,-0.0235006123782512));
#571=CARTESIAN_POINT('Ctrl Pts',(0.885453044379908,0.310213128909919,-0.0257730090961748));
#572=CARTESIAN_POINT('Ctrl Pts',(0.885360197769025,0.302938229901414,-0.0287864900083525));
#573=CARTESIAN_POINT('Ctrl Pts',(0.885334508891631,0.298983431402232,-0.0295275590551181));
#574=CARTESIAN_POINT('Ctrl Pts',(0.885334508891631,0.291567749700131,-0.0295275590551181));
#575=CARTESIAN_POINT('Ctrl Pts',(0.885360197769025,0.287612951200949,-0.0287864900083525));
#576=CARTESIAN_POINT('Ctrl Pts',(0.885453044379908,0.280338052192444,-0.0257730090961748));
#577=CARTESIAN_POINT('Ctrl Pts',(0.885518868544234,0.277017928449912,-0.0235006123782512));
#578=CARTESIAN_POINT('Ctrl Pts',(0.8856424804062,0.271774978282176,-0.0182576622105147));
#579=CARTESIAN_POINT('Ctrl Pts',(0.885708288612638,0.269502581489052,-0.0149375384151741));
#580=CARTESIAN_POINT('Ctrl Pts',(0.885801098740937,0.266489100492642,-0.00766263925483059));
#581=CARTESIAN_POINT('Ctrl Pts',(0.885826771653543,0.265748031496063,-0.00370784069653232));
#582=CARTESIAN_POINT('Ctrl Pts',(0.885826771653543,0.265748031496063,-3.75629099128836E-18));
#583=CARTESIAN_POINT('',(0.885826771653543,0.,-1.08482492050454E-16));
#584=CARTESIAN_POINT('',(0.885334508891631,0.295275590551181,0.0295275590551181));
#585=CARTESIAN_POINT('Ctrl Pts',(0.885826771653543,0.265748031496063,-3.75629099128836E-18));
#586=CARTESIAN_POINT('Ctrl Pts',(0.885826771653543,0.265748031496063,0.00370784069653231));
#587=CARTESIAN_POINT('Ctrl Pts',(0.885801098740937,0.266489100492642,0.00766263925483059));
#588=CARTESIAN_POINT('Ctrl Pts',(0.885708288612638,0.269502581489052,0.0149375384151741));
#589=CARTESIAN_POINT('Ctrl Pts',(0.8856424804062,0.271774978282176,0.0182576622105147));
#590=CARTESIAN_POINT('Ctrl Pts',(0.885518868544234,0.277017928449912,0.0235006123782512));
#591=CARTESIAN_POINT('Ctrl Pts',(0.885453044379908,0.280338052192444,0.0257730090961748));
#592=CARTESIAN_POINT('Ctrl Pts',(0.885360197769025,0.287612951200949,0.0287864900083525));
#593=CARTESIAN_POINT('Ctrl Pts',(0.885334508891631,0.291567749700131,0.0295275590551181));
#594=CARTESIAN_POINT('Ctrl Pts',(0.885334508891631,0.295275590551181,0.0295275590551181));
#595=CARTESIAN_POINT('Ctrl Pts',(0.885334508891631,0.295275590551181,0.0295275590551181));
#596=CARTESIAN_POINT('Ctrl Pts',(0.885334508891631,0.298983431402232,0.0295275590551181));
#597=CARTESIAN_POINT('Ctrl Pts',(0.885360197769025,0.302938229901414,0.0287864900083525));
#598=CARTESIAN_POINT('Ctrl Pts',(0.885453044379908,0.310213128909919,0.0257730090961748));
#599=CARTESIAN_POINT('Ctrl Pts',(0.885518868544234,0.313533252652451,0.0235006123782512));
#600=CARTESIAN_POINT('Ctrl Pts',(0.8856424804062,0.318776202820187,0.0182576622105147));
#601=CARTESIAN_POINT('Ctrl Pts',(0.885708288612638,0.32104859961331,0.0149375384151741));
#602=CARTESIAN_POINT('Ctrl Pts',(0.885801098740937,0.32406208060972,0.00766263925483059));
#603=CARTESIAN_POINT('Ctrl Pts',(0.885826771653543,0.324803149606299,0.00370784069653232));
#604=CARTESIAN_POINT('Ctrl Pts',(0.885826771653543,0.324803149606299,0.));
#605=CARTESIAN_POINT('',(-0.417095638192338,0.295275590551181,-0.781485955074731));
#606=CARTESIAN_POINT('',(-0.442913385826771,0.265748031496063,-0.767148487604326));
#607=CARTESIAN_POINT('Ctrl Pts',(-0.417095638192338,0.295275590551181,-0.781485955074731));
#608=CARTESIAN_POINT('Ctrl Pts',(-0.417095638192338,0.298983431402232,-0.781485955074731));
#609=CARTESIAN_POINT('Ctrl Pts',(-0.417750267251493,0.302938229901414,-0.781137667771767));
#610=CARTESIAN_POINT('Ctrl Pts',(-0.420406441580699,0.310213128909919,-0.779711334839358));
#611=CARTESIAN_POINT('Ctrl Pts',(-0.42240730694806,0.313533252652451,-0.778632141878885));
#612=CARTESIAN_POINT('Ctrl Pts',(-0.427009640915079,0.318776202820187,-0.776117717807689));
#613=CARTESIAN_POINT('Ctrl Pts',(-0.429917856568772,0.32104859961331,-0.774514647488571));
#614=CARTESIAN_POINT('Ctrl Pts',(-0.436264509115749,0.32406208060972,-0.770957573837235));
#615=CARTESIAN_POINT('Ctrl Pts',(-0.439702301590389,0.324803149606299,-0.769002407952592));
#616=CARTESIAN_POINT('Ctrl Pts',(-0.446124470063154,0.324803149606299,-0.765294567256059));
#617=CARTESIAN_POINT('Ctrl Pts',(-0.449536589625187,0.32406208060972,-0.763294934582404));
#618=CARTESIAN_POINT('Ctrl Pts',(-0.455790432043865,0.32104859961331,-0.759577109073397));
#619=CARTESIAN_POINT('Ctrl Pts',(-0.458632839491121,0.318776202820187,-0.757860055597174));
#620=CARTESIAN_POINT('Ctrl Pts',(-0.463111561596173,0.313533252652451,-0.755131529500634));
#621=CARTESIAN_POINT('Ctrl Pts',(-0.465046602799209,0.310213128909919,-0.753938325743183));
#622=CARTESIAN_POINT('Ctrl Pts',(-0.467609930517533,0.302938229901414,-0.752351177763415));
#623=CARTESIAN_POINT('Ctrl Pts',(-0.468238870699293,0.298983431402231,-0.751958396019613));
#624=CARTESIAN_POINT('Ctrl Pts',(-0.468238870699293,0.291567749700131,-0.751958396019613));
#625=CARTESIAN_POINT('Ctrl Pts',(-0.467609930517533,0.287612951200949,-0.752351177763415));
#626=CARTESIAN_POINT('Ctrl Pts',(-0.465046602799209,0.280338052192444,-0.753938325743183));
#627=CARTESIAN_POINT('Ctrl Pts',(-0.463111561596173,0.277017928449912,-0.755131529500634));
#628=CARTESIAN_POINT('Ctrl Pts',(-0.458632839491121,0.271774978282176,-0.757860055597174));
#629=CARTESIAN_POINT('Ctrl Pts',(-0.455790432043865,0.269502581489052,-0.759577109073397));
#630=CARTESIAN_POINT('Ctrl Pts',(-0.449536589625187,0.266489100492642,-0.763294934582404));
#631=CARTESIAN_POINT('Ctrl Pts',(-0.446124470063154,0.265748031496063,-0.765294567256059));
#632=CARTESIAN_POINT('Ctrl Pts',(-0.442913385826771,0.265748031496063,-0.767148487604326));
#633=CARTESIAN_POINT('Ctrl Pts',(-0.442913385826771,0.265748031496063,-0.767148487604326));
#634=CARTESIAN_POINT('Ctrl Pts',(-0.439702301590389,0.265748031496063,-0.769002407952592));
#635=CARTESIAN_POINT('Ctrl Pts',(-0.436264509115749,0.266489100492642,-0.770957573837235));
#636=CARTESIAN_POINT('Ctrl Pts',(-0.429917856568772,0.269502581489052,-0.774514647488571));
#637=CARTESIAN_POINT('Ctrl Pts',(-0.427009640915079,0.271774978282176,-0.776117717807689));
#638=CARTESIAN_POINT('Ctrl Pts',(-0.42240730694806,0.277017928449912,-0.778632141878885));
#639=CARTESIAN_POINT('Ctrl Pts',(-0.420406441580699,0.280338052192444,-0.779711334839358));
#640=CARTESIAN_POINT('Ctrl Pts',(-0.417750267251492,0.287612951200949,-0.781137667771767));
#641=CARTESIAN_POINT('Ctrl Pts',(-0.417095638192338,0.291567749700131,-0.781485955074731));
#642=CARTESIAN_POINT('Ctrl Pts',(-0.417095638192338,0.295275590551181,-0.781485955074731));
#643=CARTESIAN_POINT('',(-0.468238870699293,0.295275590551181,0.751958396019613));
#644=CARTESIAN_POINT('',(-0.442913385826772,0.265748031496063,0.767148487604325));
#645=CARTESIAN_POINT('Ctrl Pts',(-0.468238870699293,0.295275590551181,0.751958396019613));
#646=CARTESIAN_POINT('Ctrl Pts',(-0.468238870699293,0.298983431402232,0.751958396019613));
#647=CARTESIAN_POINT('Ctrl Pts',(-0.467609930517533,0.302938229901414,0.752351177763414));
#648=CARTESIAN_POINT('Ctrl Pts',(-0.465046602799209,0.310213128909919,0.753938325743183));
#649=CARTESIAN_POINT('Ctrl Pts',(-0.463111561596174,0.313533252652451,0.755131529500634));
#650=CARTESIAN_POINT('Ctrl Pts',(-0.458632839491121,0.318776202820187,0.757860055597174));
#651=CARTESIAN_POINT('Ctrl Pts',(-0.455790432043866,0.32104859961331,0.759577109073396));
#652=CARTESIAN_POINT('Ctrl Pts',(-0.449536589625188,0.32406208060972,0.763294934582404));
#653=CARTESIAN_POINT('Ctrl Pts',(-0.446124470063154,0.324803149606299,0.765294567256059));
#654=CARTESIAN_POINT('Ctrl Pts',(-0.439702301590389,0.324803149606299,0.769002407952591));
#655=CARTESIAN_POINT('Ctrl Pts',(-0.436264509115749,0.32406208060972,0.770957573837235));
#656=CARTESIAN_POINT('Ctrl Pts',(-0.429917856568772,0.32104859961331,0.774514647488571));
#657=CARTESIAN_POINT('Ctrl Pts',(-0.427009640915079,0.318776202820187,0.776117717807689));
#658=CARTESIAN_POINT('Ctrl Pts',(-0.422407306948061,0.313533252652451,0.778632141878885));
#659=CARTESIAN_POINT('Ctrl Pts',(-0.420406441580699,0.310213128909919,0.779711334839358));
#660=CARTESIAN_POINT('Ctrl Pts',(-0.417750267251493,0.302938229901414,0.781137667771767));
#661=CARTESIAN_POINT('Ctrl Pts',(-0.417095638192338,0.298983431402232,0.781485955074731));
#662=CARTESIAN_POINT('Ctrl Pts',(-0.417095638192338,0.291567749700131,0.781485955074731));
#663=CARTESIAN_POINT('Ctrl Pts',(-0.417750267251493,0.287612951200949,0.781137667771767));
#664=CARTESIAN_POINT('Ctrl Pts',(-0.420406441580699,0.280338052192444,0.779711334839358));
#665=CARTESIAN_POINT('Ctrl Pts',(-0.422407306948061,0.277017928449912,0.778632141878885));
#666=CARTESIAN_POINT('Ctrl Pts',(-0.427009640915079,0.271774978282176,0.776117717807689));
#667=CARTESIAN_POINT('Ctrl Pts',(-0.429917856568772,0.269502581489052,0.774514647488571));
#668=CARTESIAN_POINT('Ctrl Pts',(-0.43626450911575,0.266489100492642,0.770957573837235));
#669=CARTESIAN_POINT('Ctrl Pts',(-0.439702301590389,0.265748031496063,0.769002407952591));
#670=CARTESIAN_POINT('Ctrl Pts',(-0.442913385826772,0.265748031496063,0.767148487604325));
#671=CARTESIAN_POINT('Ctrl Pts',(-0.442913385826772,0.265748031496063,0.767148487604325));
#672=CARTESIAN_POINT('Ctrl Pts',(-0.446124470063154,0.265748031496063,0.765294567256059));
#673=CARTESIAN_POINT('Ctrl Pts',(-0.449536589625188,0.266489100492642,0.763294934582404));
#674=CARTESIAN_POINT('Ctrl Pts',(-0.455790432043866,0.269502581489052,0.759577109073396));
#675=CARTESIAN_POINT('Ctrl Pts',(-0.458632839491121,0.271774978282176,0.757860055597174));
#676=CARTESIAN_POINT('Ctrl Pts',(-0.463111561596174,0.277017928449912,0.755131529500634));
#677=CARTESIAN_POINT('Ctrl Pts',(-0.465046602799209,0.280338052192444,0.753938325743183));
#678=CARTESIAN_POINT('Ctrl Pts',(-0.467609930517533,0.287612951200949,0.752351177763414));
#679=CARTESIAN_POINT('Ctrl Pts',(-0.468238870699293,0.291567749700131,0.751958396019613));
#680=CARTESIAN_POINT('Ctrl Pts',(-0.468238870699293,0.295275590551181,0.751958396019613));
#681=CARTESIAN_POINT('Origin',(0.787307806578414,0.590551181102362,0.));
#682=CARTESIAN_POINT('Origin',(-0.442913385826772,0.295275590551181,0.767148487604326));
#683=CARTESIAN_POINT('',(-0.462598425196851,0.265748031496063,0.801243975942296));
#684=CARTESIAN_POINT('',(-0.442913385826772,0.265748031496063,0.767148487604326));
#685=CARTESIAN_POINT('',(-0.437026808943373,0.295275590551181,0.816007755469854));
#686=CARTESIAN_POINT('Origin',(-0.462598425196851,0.295275590551181,0.801243975942295));
#687=CARTESIAN_POINT('Origin',(-0.462598425196851,0.295275590551181,0.801243975942295));
#688=CARTESIAN_POINT('Ctrl Pts',(-0.463917072797398,0.295275590551181,0.8232129799538));
#689=CARTESIAN_POINT('Ctrl Pts',(-0.463917072797398,0.285433070866142,0.8232129799538));
#690=CARTESIAN_POINT('Ctrl Pts',(-0.47244094488189,0.285433070866142,0.81829172011128));
#691=CARTESIAN_POINT('Ctrl Pts',(-0.480964816966383,0.285433070866142,0.813370460268761));
#692=CARTESIAN_POINT('Ctrl Pts',(-0.480964816966383,0.295275590551181,0.813370460268761));
#693=CARTESIAN_POINT('Ctrl Pts',(-0.480964816966383,0.305118110236221,0.813370460268761));
#694=CARTESIAN_POINT('Ctrl Pts',(-0.47244094488189,0.305118110236221,0.81829172011128));
#695=CARTESIAN_POINT('Ctrl Pts',(-0.463917072797398,0.305118110236221,0.8232129799538));
#696=CARTESIAN_POINT('Ctrl Pts',(-0.463917072797398,0.295275590551181,0.8232129799538));
#697=CARTESIAN_POINT('Ctrl Pts',(-0.446869328628412,0.295275590551181,0.833055499638839));
#698=CARTESIAN_POINT('Ctrl Pts',(-0.446869328628412,0.265748031496063,0.833055499638839));
#699=CARTESIAN_POINT('Ctrl Pts',(-0.47244094488189,0.265748031496063,0.81829172011128));
#700=CARTESIAN_POINT('Ctrl Pts',(-0.498012561135368,0.265748031496063,0.803527940583721));
#701=CARTESIAN_POINT('Ctrl Pts',(-0.498012561135368,0.295275590551181,0.803527940583721));
#702=CARTESIAN_POINT('Ctrl Pts',(-0.498012561135368,0.3248031496063,0.803527940583721));
#703=CARTESIAN_POINT('Ctrl Pts',(-0.47244094488189,0.3248031496063,0.81829172011128));
#704=CARTESIAN_POINT('Ctrl Pts',(-0.446869328628412,0.3248031496063,0.833055499638839));
#705=CARTESIAN_POINT('Ctrl Pts',(-0.446869328628412,0.295275590551181,0.833055499638839));
#706=CARTESIAN_POINT('Ctrl Pts',(-0.437026808943373,0.295275590551181,0.816007755469854));
#707=CARTESIAN_POINT('Ctrl Pts',(-0.437026808943373,0.265748031496063,0.816007755469854));
#708=CARTESIAN_POINT('Ctrl Pts',(-0.462598425196851,0.265748031496063,0.801243975942295));
#709=CARTESIAN_POINT('Ctrl Pts',(-0.488170041450328,0.265748031496063,0.786480196414736));
#710=CARTESIAN_POINT('Ctrl Pts',(-0.488170041450328,0.295275590551181,0.786480196414736));
#711=CARTESIAN_POINT('Ctrl Pts',(-0.488170041450328,0.324803149606299,0.786480196414736));
#712=CARTESIAN_POINT('Ctrl Pts',(-0.462598425196851,0.324803149606299,0.801243975942295));
#713=CARTESIAN_POINT('Ctrl Pts',(-0.437026808943373,0.324803149606299,0.816007755469854));
#714=CARTESIAN_POINT('Ctrl Pts',(-0.437026808943373,0.295275590551181,0.816007755469854));
#715=CARTESIAN_POINT('',(-0.463917072797398,0.295275590551181,0.8232129799538));
#716=CARTESIAN_POINT('Origin',(-0.454074553112358,0.295275590551181,0.806165235784815));
#717=CARTESIAN_POINT('Origin',(-0.47244094488189,0.295275590551181,0.81829172011128));
#718=CARTESIAN_POINT('Origin',(-0.47244094488189,0.324803149606299,0.81829172011128));
#719=CARTESIAN_POINT('Origin',(-0.442913385826771,0.295275590551181,-0.767148487604326));
#720=CARTESIAN_POINT('',(-0.46259842519685,0.265748031496063,-0.801243975942296));
#721=CARTESIAN_POINT('',(-0.442913385826771,0.265748031496063,-0.767148487604326));
#722=CARTESIAN_POINT('',(-0.488170041450328,0.295275590551181,-0.786480196414737));
#723=CARTESIAN_POINT('Origin',(-0.46259842519685,0.295275590551181,-0.801243975942296));
#724=CARTESIAN_POINT('Origin',(-0.46259842519685,0.295275590551181,-0.801243975942296));
#725=CARTESIAN_POINT('Ctrl Pts',(-0.480964816966382,0.295275590551181,-0.813370460268761));
#726=CARTESIAN_POINT('Ctrl Pts',(-0.480964816966382,0.285433070866142,-0.813370460268761));
#727=CARTESIAN_POINT('Ctrl Pts',(-0.47244094488189,0.285433070866142,-0.818291720111281));
#728=CARTESIAN_POINT('Ctrl Pts',(-0.463917072797397,0.285433070866142,-0.8232129799538));
#729=CARTESIAN_POINT('Ctrl Pts',(-0.463917072797397,0.295275590551181,-0.8232129799538));
#730=CARTESIAN_POINT('Ctrl Pts',(-0.463917072797397,0.305118110236221,-0.8232129799538));
#731=CARTESIAN_POINT('Ctrl Pts',(-0.47244094488189,0.305118110236221,-0.818291720111281));
#732=CARTESIAN_POINT('Ctrl Pts',(-0.480964816966382,0.305118110236221,-0.813370460268761));
#733=CARTESIAN_POINT('Ctrl Pts',(-0.480964816966382,0.295275590551181,-0.813370460268761));
#734=CARTESIAN_POINT('Ctrl Pts',(-0.498012561135367,0.295275590551181,-0.803527940583722));
#735=CARTESIAN_POINT('Ctrl Pts',(-0.498012561135367,0.265748031496063,-0.803527940583722));
#736=CARTESIAN_POINT('Ctrl Pts',(-0.47244094488189,0.265748031496063,-0.818291720111281));
#737=CARTESIAN_POINT('Ctrl Pts',(-0.446869328628412,0.265748031496063,-0.83305549963884));
#738=CARTESIAN_POINT('Ctrl Pts',(-0.446869328628412,0.295275590551181,-0.83305549963884));
#739=CARTESIAN_POINT('Ctrl Pts',(-0.446869328628412,0.324803149606299,-0.83305549963884));
#740=CARTESIAN_POINT('Ctrl Pts',(-0.47244094488189,0.3248031496063,-0.818291720111281));
#741=CARTESIAN_POINT('Ctrl Pts',(-0.498012561135367,0.324803149606299,-0.803527940583722));
#742=CARTESIAN_POINT('Ctrl Pts',(-0.498012561135367,0.295275590551181,-0.803527940583722));
#743=CARTESIAN_POINT('Ctrl Pts',(-0.488170041450328,0.295275590551181,-0.786480196414737));
#744=CARTESIAN_POINT('Ctrl Pts',(-0.488170041450328,0.265748031496063,-0.786480196414737));
#745=CARTESIAN_POINT('Ctrl Pts',(-0.46259842519685,0.265748031496063,-0.801243975942296));
#746=CARTESIAN_POINT('Ctrl Pts',(-0.437026808943373,0.265748031496063,-0.816007755469855));
#747=CARTESIAN_POINT('Ctrl Pts',(-0.437026808943373,0.295275590551181,-0.816007755469855));
#748=CARTESIAN_POINT('Ctrl Pts',(-0.437026808943373,0.324803149606299,-0.816007755469855));
#749=CARTESIAN_POINT('Ctrl Pts',(-0.46259842519685,0.324803149606299,-0.801243975942296));
#750=CARTESIAN_POINT('Ctrl Pts',(-0.488170041450328,0.324803149606299,-0.786480196414737));
#751=CARTESIAN_POINT('Ctrl Pts',(-0.488170041450328,0.295275590551181,-0.786480196414737));
#752=CARTESIAN_POINT('',(-0.480964816966382,0.295275590551181,-0.813370460268761));
#753=CARTESIAN_POINT('Origin',(-0.471122297281343,0.295275590551181,-0.796322716099776));
#754=CARTESIAN_POINT('Origin',(-0.47244094488189,0.295275590551181,-0.818291720111281));
#755=CARTESIAN_POINT('Origin',(-0.47244094488189,0.324803149606299,-0.818291720111281));
#756=CARTESIAN_POINT('Ctrl Pts',(0.944881889763779,0.295275590551181,-0.00984251968503933));
#757=CARTESIAN_POINT('Ctrl Pts',(0.944881889763779,0.285433070866142,-0.00984251968503933));
#758=CARTESIAN_POINT('Ctrl Pts',(0.944881889763779,0.285433070866142,0.));
#759=CARTESIAN_POINT('Ctrl Pts',(0.944881889763779,0.285433070866142,0.00984251968503933));
#760=CARTESIAN_POINT('Ctrl Pts',(0.944881889763779,0.295275590551181,0.00984251968503933));
#761=CARTESIAN_POINT('Ctrl Pts',(0.944881889763779,0.305118110236221,0.00984251968503933));
#762=CARTESIAN_POINT('Ctrl Pts',(0.944881889763779,0.305118110236221,0.));
#763=CARTESIAN_POINT('Ctrl Pts',(0.944881889763779,0.305118110236221,-0.00984251968503933));
#764=CARTESIAN_POINT('Ctrl Pts',(0.944881889763779,0.295275590551181,-0.00984251968503933));
#765=CARTESIAN_POINT('Ctrl Pts',(0.944881889763779,0.295275590551181,-0.0295275590551181));
#766=CARTESIAN_POINT('Ctrl Pts',(0.944881889763779,0.265748031496063,-0.0295275590551181));
#767=CARTESIAN_POINT('Ctrl Pts',(0.944881889763779,0.265748031496063,0.));
#768=CARTESIAN_POINT('Ctrl Pts',(0.944881889763779,0.265748031496063,0.0295275590551181));
#769=CARTESIAN_POINT('Ctrl Pts',(0.944881889763779,0.295275590551181,0.0295275590551181));
#770=CARTESIAN_POINT('Ctrl Pts',(0.944881889763779,0.324803149606299,0.0295275590551181));
#771=CARTESIAN_POINT('Ctrl Pts',(0.944881889763779,0.324803149606299,0.));
#772=CARTESIAN_POINT('Ctrl Pts',(0.944881889763779,0.324803149606299,-0.0295275590551181));
#773=CARTESIAN_POINT('Ctrl Pts',(0.944881889763779,0.295275590551181,-0.0295275590551181));
#774=CARTESIAN_POINT('Ctrl Pts',(0.925196850393701,0.295275590551181,-0.0295275590551181));
#775=CARTESIAN_POINT('Ctrl Pts',(0.925196850393701,0.265748031496063,-0.0295275590551181));
#776=CARTESIAN_POINT('Ctrl Pts',(0.925196850393701,0.265748031496063,0.));
#777=CARTESIAN_POINT('Ctrl Pts',(0.925196850393701,0.265748031496063,0.0295275590551181));
#778=CARTESIAN_POINT('Ctrl Pts',(0.925196850393701,0.295275590551181,0.0295275590551181));
#779=CARTESIAN_POINT('Ctrl Pts',(0.925196850393701,0.324803149606299,0.0295275590551181));
#780=CARTESIAN_POINT('Ctrl Pts',(0.925196850393701,0.324803149606299,0.));
#781=CARTESIAN_POINT('Ctrl Pts',(0.925196850393701,0.324803149606299,-0.0295275590551181));
#782=CARTESIAN_POINT('Ctrl Pts',(0.925196850393701,0.295275590551181,-0.0295275590551181));
#783=CARTESIAN_POINT('',(0.925196850393701,0.295275590551181,-0.0295275590551181));
#784=CARTESIAN_POINT('',(0.925196850393701,0.265748031496063,3.61608306834848E-18));
#785=CARTESIAN_POINT('Origin',(0.925196850393701,0.295275590551181,0.));
#786=CARTESIAN_POINT('Origin',(0.925196850393701,0.295275590551181,0.));
#787=CARTESIAN_POINT('',(0.944881889763779,0.295275590551181,-0.00984251968503935));
#788=CARTESIAN_POINT('Origin',(0.925196850393701,0.295275590551181,-0.00984251968503935));
#789=CARTESIAN_POINT('Origin',(0.944881889763779,0.295275590551181,0.));
#790=CARTESIAN_POINT('Origin',(0.885826771653543,0.295275590551181,0.));
#791=CARTESIAN_POINT('',(0.885826771653543,0.265748031496063,3.61608306834848E-18));
#792=CARTESIAN_POINT('Origin',(0.944881889763779,0.324803149606299,0.));
#793=UNCERTAINTY_MEASURE_WITH_UNIT(LENGTH_MEASURE(0.000393700787401575),
#799,'DISTANCE_ACCURACY_VALUE',
'Maximum model space distance between geometric entities at asserted c
onnectivities');
#794=UNCERTAINTY_MEASURE_WITH_UNIT(LENGTH_MEASURE(0.000393700787401575),
#799,'DISTANCE_ACCURACY_VALUE',
'Maximum model space distance between geometric entities at asserted c
onnectivities');
#795=(
GEOMETRIC_REPRESENTATION_CONTEXT(3)
GLOBAL_UNCERTAINTY_ASSIGNED_CONTEXT((#793))
GLOBAL_UNIT_ASSIGNED_CONTEXT((#799,#803,#804))
REPRESENTATION_CONTEXT('','3D')
);
#796=(
GEOMETRIC_REPRESENTATION_CONTEXT(3)
GLOBAL_UNCERTAINTY_ASSIGNED_CONTEXT((#794))
GLOBAL_UNIT_ASSIGNED_CONTEXT((#799,#803,#804))
REPRESENTATION_CONTEXT('','3D')
);
#797=DIMENSIONAL_EXPONENTS(1.,0.,0.,0.,0.,0.,0.);
#798=DIMENSIONAL_EXPONENTS(0.,1.,0.,0.,0.,0.,0.);
#799=(
CONVERSION_BASED_UNIT('inch',#802)
LENGTH_UNIT()
NAMED_UNIT(#797)
);
#800=(
LENGTH_UNIT()
NAMED_UNIT(*)
SI_UNIT(.MILLI.,.METRE.)
);
#801=(
LENGTH_UNIT()
NAMED_UNIT(*)
SI_UNIT(.CENTI.,.METRE.)
);
#802=LENGTH_MEASURE_WITH_UNIT(LENGTH_MEASURE(25.4),#800);
#803=(
NAMED_UNIT(*)
PLANE_ANGLE_UNIT()
SI_UNIT($,.RADIAN.)
);
#804=(
NAMED_UNIT(*)
SI_UNIT($,.STERADIAN.)
SOLID_ANGLE_UNIT()
);
#805=SHAPE_DEFINITION_REPRESENTATION(#806,#807);
#806=PRODUCT_DEFINITION_SHAPE('',$,#809);
#807=SHAPE_REPRESENTATION('',(#354),#795);
#808=PRODUCT_DEFINITION_CONTEXT('part definition',#813,'design');
#809=PRODUCT_DEFINITION('Tapered Vac Fitting','Vac Basic Nozzle',#810,#808);
#810=PRODUCT_DEFINITION_FORMATION('',$,#815);
#811=PRODUCT_RELATED_PRODUCT_CATEGORY('Vac Basic Nozzle',
'Vac Basic Nozzle',(#815));
#812=APPLICATION_PROTOCOL_DEFINITION('international standard',
'automotive_design',2009,#813);
#813=APPLICATION_CONTEXT(
'Core Data for Automotive Mechanical Design Process');
#814=PRODUCT_CONTEXT('part definition',#813,'mechanical');
#815=PRODUCT('Tapered Vac Fitting','Vac Basic Nozzle',$,(#814));
#816=PRESENTATION_STYLE_ASSIGNMENT((#817));
#817=SURFACE_STYLE_USAGE(.BOTH.,#820);
#818=SURFACE_STYLE_RENDERING_WITH_PROPERTIES($,#824,(#819));
#819=SURFACE_STYLE_TRANSPARENT(0.);
#820=SURFACE_SIDE_STYLE('',(#821,#818));
#821=SURFACE_STYLE_FILL_AREA(#822);
#822=FILL_AREA_STYLE('',(#823));
#823=FILL_AREA_STYLE_COLOUR('',#824);
#824=COLOUR_RGB('',0.0196078431372549,0.0196078431372549,0.0196078431372549);
ENDSEC;
END-ISO-10303-21;
