ISO-10303-21;
HEADER;
/* Generated by software containing ST-Developer
 * from STEP Tools, Inc. (www.steptools.com) 
 */

FILE_DESCRIPTION(
/* description */ (''),
/* implementation_level */ '2;1');

FILE_NAME(
/* name */ 'CableWrapCore.stp',
/* time_stamp */ '2026-02-07T23:01:26-05:00',
/* author */ ('JoshuaEah'),
/* organization */ (''),
/* preprocessor_version */ 'ST-DEVELOPER v20.1',
/* originating_system */ 'Autodesk Inventor 2026',
/* authorisation */ '');

FILE_SCHEMA (('AUTOMOTIVE_DESIGN { 1 0 10303 214 3 1 1 }'));
ENDSEC;

DATA;
#10=MECHANICAL_DESIGN_GEOMETRIC_PRESENTATION_REPRESENTATION('',(#13),#1033);
#11=SHAPE_REPRESENTATION_RELATIONSHIP('SRR','None',#1044,#12);
#12=ADVANCED_BREP_SHAPE_REPRESENTATION('',(#14),#1032);
#13=STYLED_ITEM('',(#1053),#14);
#14=MANIFOLD_SOLID_BREP('Solid1',#593);
#15=FACE_BOUND('',#69,.T.);
#16=FACE_BOUND('',#70,.T.);
#17=FACE_BOUND('',#91,.T.);
#18=FACE_BOUND('',#92,.T.);
#19=FACE_BOUND('',#93,.T.);
#20=PLANE('',#621);
#21=PLANE('',#638);
#22=PLANE('',#639);
#23=PLANE('',#642);
#24=PLANE('',#645);
#25=PLANE('',#648);
#26=PLANE('',#651);
#27=PLANE('',#654);
#28=PLANE('',#657);
#29=PLANE('',#660);
#30=PLANE('',#663);
#31=PLANE('',#670);
#32=PLANE('',#671);
#33=PLANE('',#676);
#34=PLANE('',#677);
#35=FACE_OUTER_BOUND('',#66,.T.);
#36=FACE_OUTER_BOUND('',#67,.T.);
#37=FACE_OUTER_BOUND('',#68,.T.);
#38=FACE_OUTER_BOUND('',#71,.T.);
#39=FACE_OUTER_BOUND('',#72,.T.);
#40=FACE_OUTER_BOUND('',#73,.T.);
#41=FACE_OUTER_BOUND('',#74,.T.);
#42=FACE_OUTER_BOUND('',#75,.T.);
#43=FACE_OUTER_BOUND('',#76,.T.);
#44=FACE_OUTER_BOUND('',#77,.T.);
#45=FACE_OUTER_BOUND('',#78,.T.);
#46=FACE_OUTER_BOUND('',#79,.T.);
#47=FACE_OUTER_BOUND('',#80,.T.);
#48=FACE_OUTER_BOUND('',#81,.T.);
#49=FACE_OUTER_BOUND('',#82,.T.);
#50=FACE_OUTER_BOUND('',#83,.T.);
#51=FACE_OUTER_BOUND('',#84,.T.);
#52=FACE_OUTER_BOUND('',#85,.T.);
#53=FACE_OUTER_BOUND('',#86,.T.);
#54=FACE_OUTER_BOUND('',#87,.T.);
#55=FACE_OUTER_BOUND('',#88,.T.);
#56=FACE_OUTER_BOUND('',#89,.T.);
#57=FACE_OUTER_BOUND('',#90,.T.);
#58=FACE_OUTER_BOUND('',#94,.T.);
#59=FACE_OUTER_BOUND('',#95,.T.);
#60=FACE_OUTER_BOUND('',#96,.T.);
#61=FACE_OUTER_BOUND('',#97,.T.);
#62=FACE_OUTER_BOUND('',#98,.T.);
#63=FACE_OUTER_BOUND('',#99,.T.);
#64=FACE_OUTER_BOUND('',#100,.T.);
#65=FACE_OUTER_BOUND('',#101,.T.);
#66=EDGE_LOOP('',(#378,#379,#380,#381));
#67=EDGE_LOOP('',(#382,#383,#384,#385));
#68=EDGE_LOOP('',(#386,#387,#388,#389,#390,#391,#392,#393,#394,#395,#396,
#397,#398,#399,#400,#401));
#69=EDGE_LOOP('',(#402,#403,#404,#405));
#70=EDGE_LOOP('',(#406,#407,#408,#409));
#71=EDGE_LOOP('',(#410,#411,#412,#413));
#72=EDGE_LOOP('',(#414,#415,#416,#417));
#73=EDGE_LOOP('',(#418,#419,#420,#421));
#74=EDGE_LOOP('',(#422,#423,#424,#425));
#75=EDGE_LOOP('',(#426,#427,#428,#429));
#76=EDGE_LOOP('',(#430,#431,#432,#433));
#77=EDGE_LOOP('',(#434,#435,#436,#437));
#78=EDGE_LOOP('',(#438,#439,#440,#441));
#79=EDGE_LOOP('',(#442,#443,#444,#445));
#80=EDGE_LOOP('',(#446,#447,#448,#449));
#81=EDGE_LOOP('',(#450,#451,#452,#453));
#82=EDGE_LOOP('',(#454,#455,#456,#457));
#83=EDGE_LOOP('',(#458,#459,#460,#461));
#84=EDGE_LOOP('',(#462,#463,#464,#465));
#85=EDGE_LOOP('',(#466,#467,#468,#469));
#86=EDGE_LOOP('',(#470,#471,#472,#473));
#87=EDGE_LOOP('',(#474,#475,#476,#477));
#88=EDGE_LOOP('',(#478,#479,#480,#481));
#89=EDGE_LOOP('',(#482,#483,#484,#485));
#90=EDGE_LOOP('',(#486,#487,#488,#489,#490,#491,#492,#493,#494,#495,#496,
#497,#498,#499,#500,#501));
#91=EDGE_LOOP('',(#502,#503,#504,#505));
#92=EDGE_LOOP('',(#506,#507,#508,#509));
#93=EDGE_LOOP('',(#510,#511,#512,#513));
#94=EDGE_LOOP('',(#514,#515,#516,#517));
#95=EDGE_LOOP('',(#518,#519,#520,#521));
#96=EDGE_LOOP('',(#522,#523,#524,#525));
#97=EDGE_LOOP('',(#526,#527,#528,#529));
#98=EDGE_LOOP('',(#530,#531,#532,#533));
#99=EDGE_LOOP('',(#534,#535,#536,#537));
#100=EDGE_LOOP('',(#538,#539,#540,#541));
#101=EDGE_LOOP('',(#542,#543,#544,#545));
#102=LINE('',#864,#154);
#103=LINE('',#867,#155);
#104=LINE('',#872,#156);
#105=LINE('',#876,#157);
#106=LINE('',#880,#158);
#107=LINE('',#886,#159);
#108=LINE('',#892,#160);
#109=LINE('',#896,#161);
#110=LINE('',#901,#162);
#111=LINE('',#904,#163);
#112=LINE('',#908,#164);
#113=LINE('',#914,#165);
#114=LINE('',#917,#166);
#115=LINE('',#922,#167);
#116=LINE('',#923,#168);
#117=LINE('',#927,#169);
#118=LINE('',#929,#170);
#119=LINE('',#932,#171);
#120=LINE('',#933,#172);
#121=LINE('',#938,#173);
#122=LINE('',#939,#174);
#123=LINE('',#942,#175);
#124=LINE('',#943,#176);
#125=LINE('',#947,#177);
#126=LINE('',#949,#178);
#127=LINE('',#954,#179);
#128=LINE('',#955,#180);
#129=LINE('',#958,#181);
#130=LINE('',#959,#182);
#131=LINE('',#962,#183);
#132=LINE('',#965,#184);
#133=LINE('',#968,#185);
#134=LINE('',#969,#186);
#135=LINE('',#973,#187);
#136=LINE('',#976,#188);
#137=LINE('',#977,#189);
#138=LINE('',#982,#190);
#139=LINE('',#984,#191);
#140=LINE('',#985,#192);
#141=LINE('',#989,#193);
#142=LINE('',#992,#194);
#143=LINE('',#993,#195);
#144=LINE('',#998,#196);
#145=LINE('',#1003,#197);
#146=LINE('',#1007,#198);
#147=LINE('',#1010,#199);
#148=LINE('',#1018,#200);
#149=LINE('',#1021,#201);
#150=LINE('',#1023,#202);
#151=LINE('',#1024,#203);
#152=LINE('',#1026,#204);
#153=LINE('',#1027,#205);
#154=VECTOR('',#684,0.078740157480315);
#155=VECTOR('',#687,0.078740157480315);
#156=VECTOR('',#692,0.393700787401575);
#157=VECTOR('',#697,0.393700787401575);
#158=VECTOR('',#700,0.393700787401575);
#159=VECTOR('',#705,0.393700787401575);
#160=VECTOR('',#710,0.393700787401575);
#161=VECTOR('',#713,0.393700787401575);
#162=VECTOR('',#718,0.393700787401575);
#163=VECTOR('',#719,0.393700787401575);
#164=VECTOR('',#722,0.393700787401575);
#165=VECTOR('',#727,0.393700787401575);
#166=VECTOR('',#730,0.393700787401575);
#167=VECTOR('',#735,0.078740157480315);
#168=VECTOR('',#736,0.078740157480315);
#169=VECTOR('',#741,0.393700787401575);
#170=VECTOR('',#744,0.393700787401575);
#171=VECTOR('',#747,0.393700787401575);
#172=VECTOR('',#748,0.393700787401575);
#173=VECTOR('',#753,0.393700787401575);
#174=VECTOR('',#754,0.393700787401575);
#175=VECTOR('',#757,0.393700787401575);
#176=VECTOR('',#758,0.393700787401575);
#177=VECTOR('',#763,0.393700787401575);
#178=VECTOR('',#766,0.393700787401575);
#179=VECTOR('',#771,0.078740157480315);
#180=VECTOR('',#772,0.078740157480315);
#181=VECTOR('',#775,0.393700787401575);
#182=VECTOR('',#776,0.393700787401575);
#183=VECTOR('',#779,0.078740157480315);
#184=VECTOR('',#782,0.078740157480315);
#185=VECTOR('',#785,0.393700787401575);
#186=VECTOR('',#786,0.393700787401575);
#187=VECTOR('',#791,0.393700787401575);
#188=VECTOR('',#794,0.393700787401575);
#189=VECTOR('',#795,0.393700787401575);
#190=VECTOR('',#802,0.393700787401575);
#191=VECTOR('',#803,0.393700787401575);
#192=VECTOR('',#804,0.393700787401575);
#193=VECTOR('',#809,0.393700787401575);
#194=VECTOR('',#812,0.393700787401575);
#195=VECTOR('',#813,0.393700787401575);
#196=VECTOR('',#820,0.393700787401575);
#197=VECTOR('',#825,0.393700787401575);
#198=VECTOR('',#828,0.393700787401575);
#199=VECTOR('',#833,0.393700787401575);
#200=VECTOR('',#842,0.393700787401575);
#201=VECTOR('',#845,0.393700787401575);
#202=VECTOR('',#848,0.393700787401575);
#203=VECTOR('',#849,0.393700787401575);
#204=VECTOR('',#852,0.393700787401575);
#205=VECTOR('',#853,0.393700787401575);
#206=CIRCLE('',#616,0.078740157480315);
#207=CIRCLE('',#617,0.078740157480315);
#208=CIRCLE('',#619,0.078740157480315);
#209=CIRCLE('',#620,0.078740157480315);
#210=CIRCLE('',#622,0.590551181102362);
#211=CIRCLE('',#623,0.078740157480315);
#212=CIRCLE('',#624,0.078740157480315);
#213=CIRCLE('',#625,0.0787401574803149);
#214=CIRCLE('',#626,0.078740157480315);
#215=CIRCLE('',#627,0.590551181102362);
#216=CIRCLE('',#628,0.078740157480315);
#217=CIRCLE('',#629,0.078740157480315);
#218=CIRCLE('',#630,0.0393700787401575);
#219=CIRCLE('',#631,0.0393700787401575);
#220=CIRCLE('',#632,0.0393700787401575);
#221=CIRCLE('',#633,0.0393700787401575);
#222=CIRCLE('',#635,0.078740157480315);
#223=CIRCLE('',#637,0.078740157480315);
#224=CIRCLE('',#641,0.0393700787401575);
#225=CIRCLE('',#644,0.0393700787401575);
#226=CIRCLE('',#647,0.078740157480315);
#227=CIRCLE('',#650,0.078740157480315);
#228=CIRCLE('',#653,0.078740157480315);
#229=CIRCLE('',#656,0.0787401574803149);
#230=CIRCLE('',#659,0.0393700787401575);
#231=CIRCLE('',#662,0.0393700787401575);
#232=CIRCLE('',#664,0.590551181102362);
#233=CIRCLE('',#665,0.590551181102362);
#234=CIRCLE('',#666,0.236220472440945);
#235=CIRCLE('',#667,0.236220472440945);
#236=CIRCLE('',#672,0.236220472440945);
#237=CIRCLE('',#673,0.236220472440945);
#238=VERTEX_POINT('',#860);
#239=VERTEX_POINT('',#861);
#240=VERTEX_POINT('',#863);
#241=VERTEX_POINT('',#865);
#242=VERTEX_POINT('',#869);
#243=VERTEX_POINT('',#871);
#244=VERTEX_POINT('',#875);
#245=VERTEX_POINT('',#877);
#246=VERTEX_POINT('',#879);
#247=VERTEX_POINT('',#881);
#248=VERTEX_POINT('',#883);
#249=VERTEX_POINT('',#885);
#250=VERTEX_POINT('',#887);
#251=VERTEX_POINT('',#889);
#252=VERTEX_POINT('',#891);
#253=VERTEX_POINT('',#893);
#254=VERTEX_POINT('',#895);
#255=VERTEX_POINT('',#897);
#256=VERTEX_POINT('',#899);
#257=VERTEX_POINT('',#902);
#258=VERTEX_POINT('',#903);
#259=VERTEX_POINT('',#905);
#260=VERTEX_POINT('',#907);
#261=VERTEX_POINT('',#910);
#262=VERTEX_POINT('',#911);
#263=VERTEX_POINT('',#913);
#264=VERTEX_POINT('',#915);
#265=VERTEX_POINT('',#919);
#266=VERTEX_POINT('',#920);
#267=VERTEX_POINT('',#925);
#268=VERTEX_POINT('',#931);
#269=VERTEX_POINT('',#935);
#270=VERTEX_POINT('',#936);
#271=VERTEX_POINT('',#941);
#272=VERTEX_POINT('',#945);
#273=VERTEX_POINT('',#951);
#274=VERTEX_POINT('',#952);
#275=VERTEX_POINT('',#957);
#276=VERTEX_POINT('',#961);
#277=VERTEX_POINT('',#963);
#278=VERTEX_POINT('',#967);
#279=VERTEX_POINT('',#971);
#280=VERTEX_POINT('',#975);
#281=VERTEX_POINT('',#981);
#282=VERTEX_POINT('',#983);
#283=VERTEX_POINT('',#987);
#284=VERTEX_POINT('',#991);
#285=VERTEX_POINT('',#997);
#286=VERTEX_POINT('',#1001);
#287=VERTEX_POINT('',#1002);
#288=VERTEX_POINT('',#1004);
#289=VERTEX_POINT('',#1006);
#290=VERTEX_POINT('',#1014);
#291=VERTEX_POINT('',#1015);
#292=VERTEX_POINT('',#1017);
#293=VERTEX_POINT('',#1019);
#294=EDGE_CURVE('',#238,#239,#206,.T.);
#295=EDGE_CURVE('',#239,#240,#102,.T.);
#296=EDGE_CURVE('',#240,#241,#207,.T.);
#297=EDGE_CURVE('',#241,#238,#103,.T.);
#298=EDGE_CURVE('',#239,#242,#208,.T.);
#299=EDGE_CURVE('',#242,#243,#104,.T.);
#300=EDGE_CURVE('',#243,#240,#209,.T.);
#301=EDGE_CURVE('',#238,#244,#105,.T.);
#302=EDGE_CURVE('',#245,#244,#210,.T.);
#303=EDGE_CURVE('',#245,#246,#106,.T.);
#304=EDGE_CURVE('',#247,#246,#211,.T.);
#305=EDGE_CURVE('',#248,#247,#212,.T.);
#306=EDGE_CURVE('',#248,#249,#107,.T.);
#307=EDGE_CURVE('',#250,#249,#213,.T.);
#308=EDGE_CURVE('',#251,#250,#214,.T.);
#309=EDGE_CURVE('',#251,#252,#108,.T.);
#310=EDGE_CURVE('',#253,#252,#215,.T.);
#311=EDGE_CURVE('',#253,#254,#109,.T.);
#312=EDGE_CURVE('',#255,#254,#216,.T.);
#313=EDGE_CURVE('',#256,#255,#217,.T.);
#314=EDGE_CURVE('',#256,#242,#110,.T.);
#315=EDGE_CURVE('',#257,#258,#111,.T.);
#316=EDGE_CURVE('',#259,#258,#218,.T.);
#317=EDGE_CURVE('',#259,#260,#112,.T.);
#318=EDGE_CURVE('',#257,#260,#219,.T.);
#319=EDGE_CURVE('',#261,#262,#220,.T.);
#320=EDGE_CURVE('',#261,#263,#113,.T.);
#321=EDGE_CURVE('',#264,#263,#221,.T.);
#322=EDGE_CURVE('',#264,#262,#114,.T.);
#323=EDGE_CURVE('',#265,#266,#222,.T.);
#324=EDGE_CURVE('',#266,#255,#115,.T.);
#325=EDGE_CURVE('',#254,#265,#116,.T.);
#326=EDGE_CURVE('',#266,#267,#223,.T.);
#327=EDGE_CURVE('',#267,#256,#117,.T.);
#328=EDGE_CURVE('',#243,#267,#118,.T.);
#329=EDGE_CURVE('',#268,#241,#119,.T.);
#330=EDGE_CURVE('',#244,#268,#120,.T.);
#331=EDGE_CURVE('',#269,#270,#224,.T.);
#332=EDGE_CURVE('',#270,#261,#121,.T.);
#333=EDGE_CURVE('',#262,#269,#122,.T.);
#334=EDGE_CURVE('',#271,#270,#123,.T.);
#335=EDGE_CURVE('',#263,#271,#124,.T.);
#336=EDGE_CURVE('',#271,#272,#225,.T.);
#337=EDGE_CURVE('',#272,#264,#125,.T.);
#338=EDGE_CURVE('',#269,#272,#126,.T.);
#339=EDGE_CURVE('',#273,#274,#226,.T.);
#340=EDGE_CURVE('',#274,#247,#127,.T.);
#341=EDGE_CURVE('',#246,#273,#128,.T.);
#342=EDGE_CURVE('',#275,#245,#129,.T.);
#343=EDGE_CURVE('',#273,#275,#130,.T.);
#344=EDGE_CURVE('',#250,#276,#131,.T.);
#345=EDGE_CURVE('',#276,#277,#227,.T.);
#346=EDGE_CURVE('',#277,#251,#132,.T.);
#347=EDGE_CURVE('',#278,#277,#133,.T.);
#348=EDGE_CURVE('',#252,#278,#134,.T.);
#349=EDGE_CURVE('',#274,#279,#228,.T.);
#350=EDGE_CURVE('',#279,#248,#135,.T.);
#351=EDGE_CURVE('',#280,#279,#136,.T.);
#352=EDGE_CURVE('',#249,#280,#137,.T.);
#353=EDGE_CURVE('',#280,#276,#229,.T.);
#354=EDGE_CURVE('',#281,#259,#138,.T.);
#355=EDGE_CURVE('',#282,#281,#139,.T.);
#356=EDGE_CURVE('',#260,#282,#140,.T.);
#357=EDGE_CURVE('',#283,#281,#230,.T.);
#358=EDGE_CURVE('',#258,#283,#141,.T.);
#359=EDGE_CURVE('',#284,#257,#142,.T.);
#360=EDGE_CURVE('',#283,#284,#143,.T.);
#361=EDGE_CURVE('',#282,#284,#231,.T.);
#362=EDGE_CURVE('',#265,#285,#144,.T.);
#363=EDGE_CURVE('',#278,#285,#232,.T.);
#364=EDGE_CURVE('',#268,#275,#233,.T.);
#365=EDGE_CURVE('',#286,#287,#145,.T.);
#366=EDGE_CURVE('',#288,#287,#234,.F.);
#367=EDGE_CURVE('',#288,#289,#146,.T.);
#368=EDGE_CURVE('',#286,#289,#235,.F.);
#369=EDGE_CURVE('',#285,#253,#147,.T.);
#370=EDGE_CURVE('',#290,#291,#236,.T.);
#371=EDGE_CURVE('',#290,#292,#148,.T.);
#372=EDGE_CURVE('',#293,#292,#237,.T.);
#373=EDGE_CURVE('',#293,#291,#149,.T.);
#374=EDGE_CURVE('',#291,#288,#150,.T.);
#375=EDGE_CURVE('',#287,#290,#151,.T.);
#376=EDGE_CURVE('',#292,#286,#152,.T.);
#377=EDGE_CURVE('',#289,#293,#153,.T.);
#378=ORIENTED_EDGE('',*,*,#294,.T.);
#379=ORIENTED_EDGE('',*,*,#295,.T.);
#380=ORIENTED_EDGE('',*,*,#296,.T.);
#381=ORIENTED_EDGE('',*,*,#297,.T.);
#382=ORIENTED_EDGE('',*,*,#295,.F.);
#383=ORIENTED_EDGE('',*,*,#298,.T.);
#384=ORIENTED_EDGE('',*,*,#299,.T.);
#385=ORIENTED_EDGE('',*,*,#300,.T.);
#386=ORIENTED_EDGE('',*,*,#294,.F.);
#387=ORIENTED_EDGE('',*,*,#301,.T.);
#388=ORIENTED_EDGE('',*,*,#302,.F.);
#389=ORIENTED_EDGE('',*,*,#303,.T.);
#390=ORIENTED_EDGE('',*,*,#304,.F.);
#391=ORIENTED_EDGE('',*,*,#305,.F.);
#392=ORIENTED_EDGE('',*,*,#306,.T.);
#393=ORIENTED_EDGE('',*,*,#307,.F.);
#394=ORIENTED_EDGE('',*,*,#308,.F.);
#395=ORIENTED_EDGE('',*,*,#309,.T.);
#396=ORIENTED_EDGE('',*,*,#310,.F.);
#397=ORIENTED_EDGE('',*,*,#311,.T.);
#398=ORIENTED_EDGE('',*,*,#312,.F.);
#399=ORIENTED_EDGE('',*,*,#313,.F.);
#400=ORIENTED_EDGE('',*,*,#314,.T.);
#401=ORIENTED_EDGE('',*,*,#298,.F.);
#402=ORIENTED_EDGE('',*,*,#315,.T.);
#403=ORIENTED_EDGE('',*,*,#316,.F.);
#404=ORIENTED_EDGE('',*,*,#317,.T.);
#405=ORIENTED_EDGE('',*,*,#318,.F.);
#406=ORIENTED_EDGE('',*,*,#319,.F.);
#407=ORIENTED_EDGE('',*,*,#320,.T.);
#408=ORIENTED_EDGE('',*,*,#321,.F.);
#409=ORIENTED_EDGE('',*,*,#322,.T.);
#410=ORIENTED_EDGE('',*,*,#323,.T.);
#411=ORIENTED_EDGE('',*,*,#324,.T.);
#412=ORIENTED_EDGE('',*,*,#312,.T.);
#413=ORIENTED_EDGE('',*,*,#325,.T.);
#414=ORIENTED_EDGE('',*,*,#324,.F.);
#415=ORIENTED_EDGE('',*,*,#326,.T.);
#416=ORIENTED_EDGE('',*,*,#327,.T.);
#417=ORIENTED_EDGE('',*,*,#313,.T.);
#418=ORIENTED_EDGE('',*,*,#299,.F.);
#419=ORIENTED_EDGE('',*,*,#314,.F.);
#420=ORIENTED_EDGE('',*,*,#327,.F.);
#421=ORIENTED_EDGE('',*,*,#328,.F.);
#422=ORIENTED_EDGE('',*,*,#297,.F.);
#423=ORIENTED_EDGE('',*,*,#329,.F.);
#424=ORIENTED_EDGE('',*,*,#330,.F.);
#425=ORIENTED_EDGE('',*,*,#301,.F.);
#426=ORIENTED_EDGE('',*,*,#331,.T.);
#427=ORIENTED_EDGE('',*,*,#332,.T.);
#428=ORIENTED_EDGE('',*,*,#319,.T.);
#429=ORIENTED_EDGE('',*,*,#333,.T.);
#430=ORIENTED_EDGE('',*,*,#332,.F.);
#431=ORIENTED_EDGE('',*,*,#334,.F.);
#432=ORIENTED_EDGE('',*,*,#335,.F.);
#433=ORIENTED_EDGE('',*,*,#320,.F.);
#434=ORIENTED_EDGE('',*,*,#336,.T.);
#435=ORIENTED_EDGE('',*,*,#337,.T.);
#436=ORIENTED_EDGE('',*,*,#321,.T.);
#437=ORIENTED_EDGE('',*,*,#335,.T.);
#438=ORIENTED_EDGE('',*,*,#333,.F.);
#439=ORIENTED_EDGE('',*,*,#322,.F.);
#440=ORIENTED_EDGE('',*,*,#337,.F.);
#441=ORIENTED_EDGE('',*,*,#338,.F.);
#442=ORIENTED_EDGE('',*,*,#339,.T.);
#443=ORIENTED_EDGE('',*,*,#340,.T.);
#444=ORIENTED_EDGE('',*,*,#304,.T.);
#445=ORIENTED_EDGE('',*,*,#341,.T.);
#446=ORIENTED_EDGE('',*,*,#341,.F.);
#447=ORIENTED_EDGE('',*,*,#303,.F.);
#448=ORIENTED_EDGE('',*,*,#342,.F.);
#449=ORIENTED_EDGE('',*,*,#343,.F.);
#450=ORIENTED_EDGE('',*,*,#308,.T.);
#451=ORIENTED_EDGE('',*,*,#344,.T.);
#452=ORIENTED_EDGE('',*,*,#345,.T.);
#453=ORIENTED_EDGE('',*,*,#346,.T.);
#454=ORIENTED_EDGE('',*,*,#346,.F.);
#455=ORIENTED_EDGE('',*,*,#347,.F.);
#456=ORIENTED_EDGE('',*,*,#348,.F.);
#457=ORIENTED_EDGE('',*,*,#309,.F.);
#458=ORIENTED_EDGE('',*,*,#340,.F.);
#459=ORIENTED_EDGE('',*,*,#349,.T.);
#460=ORIENTED_EDGE('',*,*,#350,.T.);
#461=ORIENTED_EDGE('',*,*,#305,.T.);
#462=ORIENTED_EDGE('',*,*,#350,.F.);
#463=ORIENTED_EDGE('',*,*,#351,.F.);
#464=ORIENTED_EDGE('',*,*,#352,.F.);
#465=ORIENTED_EDGE('',*,*,#306,.F.);
#466=ORIENTED_EDGE('',*,*,#344,.F.);
#467=ORIENTED_EDGE('',*,*,#307,.T.);
#468=ORIENTED_EDGE('',*,*,#352,.T.);
#469=ORIENTED_EDGE('',*,*,#353,.T.);
#470=ORIENTED_EDGE('',*,*,#354,.F.);
#471=ORIENTED_EDGE('',*,*,#355,.F.);
#472=ORIENTED_EDGE('',*,*,#356,.F.);
#473=ORIENTED_EDGE('',*,*,#317,.F.);
#474=ORIENTED_EDGE('',*,*,#357,.T.);
#475=ORIENTED_EDGE('',*,*,#354,.T.);
#476=ORIENTED_EDGE('',*,*,#316,.T.);
#477=ORIENTED_EDGE('',*,*,#358,.T.);
#478=ORIENTED_EDGE('',*,*,#358,.F.);
#479=ORIENTED_EDGE('',*,*,#315,.F.);
#480=ORIENTED_EDGE('',*,*,#359,.F.);
#481=ORIENTED_EDGE('',*,*,#360,.F.);
#482=ORIENTED_EDGE('',*,*,#361,.T.);
#483=ORIENTED_EDGE('',*,*,#359,.T.);
#484=ORIENTED_EDGE('',*,*,#318,.T.);
#485=ORIENTED_EDGE('',*,*,#356,.T.);
#486=ORIENTED_EDGE('',*,*,#296,.F.);
#487=ORIENTED_EDGE('',*,*,#300,.F.);
#488=ORIENTED_EDGE('',*,*,#328,.T.);
#489=ORIENTED_EDGE('',*,*,#326,.F.);
#490=ORIENTED_EDGE('',*,*,#323,.F.);
#491=ORIENTED_EDGE('',*,*,#362,.T.);
#492=ORIENTED_EDGE('',*,*,#363,.F.);
#493=ORIENTED_EDGE('',*,*,#347,.T.);
#494=ORIENTED_EDGE('',*,*,#345,.F.);
#495=ORIENTED_EDGE('',*,*,#353,.F.);
#496=ORIENTED_EDGE('',*,*,#351,.T.);
#497=ORIENTED_EDGE('',*,*,#349,.F.);
#498=ORIENTED_EDGE('',*,*,#339,.F.);
#499=ORIENTED_EDGE('',*,*,#343,.T.);
#500=ORIENTED_EDGE('',*,*,#364,.F.);
#501=ORIENTED_EDGE('',*,*,#329,.T.);
#502=ORIENTED_EDGE('',*,*,#331,.F.);
#503=ORIENTED_EDGE('',*,*,#338,.T.);
#504=ORIENTED_EDGE('',*,*,#336,.F.);
#505=ORIENTED_EDGE('',*,*,#334,.T.);
#506=ORIENTED_EDGE('',*,*,#361,.F.);
#507=ORIENTED_EDGE('',*,*,#355,.T.);
#508=ORIENTED_EDGE('',*,*,#357,.F.);
#509=ORIENTED_EDGE('',*,*,#360,.T.);
#510=ORIENTED_EDGE('',*,*,#365,.T.);
#511=ORIENTED_EDGE('',*,*,#366,.F.);
#512=ORIENTED_EDGE('',*,*,#367,.T.);
#513=ORIENTED_EDGE('',*,*,#368,.F.);
#514=ORIENTED_EDGE('',*,*,#310,.T.);
#515=ORIENTED_EDGE('',*,*,#348,.T.);
#516=ORIENTED_EDGE('',*,*,#363,.T.);
#517=ORIENTED_EDGE('',*,*,#369,.T.);
#518=ORIENTED_EDGE('',*,*,#302,.T.);
#519=ORIENTED_EDGE('',*,*,#330,.T.);
#520=ORIENTED_EDGE('',*,*,#364,.T.);
#521=ORIENTED_EDGE('',*,*,#342,.T.);
#522=ORIENTED_EDGE('',*,*,#325,.F.);
#523=ORIENTED_EDGE('',*,*,#311,.F.);
#524=ORIENTED_EDGE('',*,*,#369,.F.);
#525=ORIENTED_EDGE('',*,*,#362,.F.);
#526=ORIENTED_EDGE('',*,*,#370,.F.);
#527=ORIENTED_EDGE('',*,*,#371,.T.);
#528=ORIENTED_EDGE('',*,*,#372,.F.);
#529=ORIENTED_EDGE('',*,*,#373,.T.);
#530=ORIENTED_EDGE('',*,*,#370,.T.);
#531=ORIENTED_EDGE('',*,*,#374,.T.);
#532=ORIENTED_EDGE('',*,*,#366,.T.);
#533=ORIENTED_EDGE('',*,*,#375,.T.);
#534=ORIENTED_EDGE('',*,*,#372,.T.);
#535=ORIENTED_EDGE('',*,*,#376,.T.);
#536=ORIENTED_EDGE('',*,*,#368,.T.);
#537=ORIENTED_EDGE('',*,*,#377,.T.);
#538=ORIENTED_EDGE('',*,*,#374,.F.);
#539=ORIENTED_EDGE('',*,*,#373,.F.);
#540=ORIENTED_EDGE('',*,*,#377,.F.);
#541=ORIENTED_EDGE('',*,*,#367,.F.);
#542=ORIENTED_EDGE('',*,*,#375,.F.);
#543=ORIENTED_EDGE('',*,*,#365,.F.);
#544=ORIENTED_EDGE('',*,*,#376,.F.);
#545=ORIENTED_EDGE('',*,*,#371,.F.);
#546=CYLINDRICAL_SURFACE('',#615,0.078740157480315);
#547=CYLINDRICAL_SURFACE('',#618,0.078740157480315);
#548=CYLINDRICAL_SURFACE('',#634,0.078740157480315);
#549=CYLINDRICAL_SURFACE('',#636,0.078740157480315);
#550=CYLINDRICAL_SURFACE('',#640,0.0393700787401575);
#551=CYLINDRICAL_SURFACE('',#643,0.0393700787401575);
#552=CYLINDRICAL_SURFACE('',#646,0.078740157480315);
#553=CYLINDRICAL_SURFACE('',#649,0.078740157480315);
#554=CYLINDRICAL_SURFACE('',#652,0.078740157480315);
#555=CYLINDRICAL_SURFACE('',#655,0.0787401574803149);
#556=CYLINDRICAL_SURFACE('',#658,0.0393700787401575);
#557=CYLINDRICAL_SURFACE('',#661,0.0393700787401575);
#558=CYLINDRICAL_SURFACE('',#668,0.590551181102362);
#559=CYLINDRICAL_SURFACE('',#669,0.590551181102362);
#560=CYLINDRICAL_SURFACE('',#674,0.236220472440945);
#561=CYLINDRICAL_SURFACE('',#675,0.236220472440945);
#562=ADVANCED_FACE('',(#35),#546,.T.);
#563=ADVANCED_FACE('',(#36),#547,.F.);
#564=ADVANCED_FACE('',(#37,#15,#16),#20,.T.);
#565=ADVANCED_FACE('',(#38),#548,.T.);
#566=ADVANCED_FACE('',(#39),#549,.F.);
#567=ADVANCED_FACE('',(#40),#21,.T.);
#568=ADVANCED_FACE('',(#41),#22,.T.);
#569=ADVANCED_FACE('',(#42),#550,.F.);
#570=ADVANCED_FACE('',(#43),#23,.T.);
#571=ADVANCED_FACE('',(#44),#551,.F.);
#572=ADVANCED_FACE('',(#45),#24,.T.);
#573=ADVANCED_FACE('',(#46),#552,.T.);
#574=ADVANCED_FACE('',(#47),#25,.T.);
#575=ADVANCED_FACE('',(#48),#553,.T.);
#576=ADVANCED_FACE('',(#49),#26,.T.);
#577=ADVANCED_FACE('',(#50),#554,.F.);
#578=ADVANCED_FACE('',(#51),#27,.F.);
#579=ADVANCED_FACE('',(#52),#555,.F.);
#580=ADVANCED_FACE('',(#53),#28,.F.);
#581=ADVANCED_FACE('',(#54),#556,.F.);
#582=ADVANCED_FACE('',(#55),#29,.F.);
#583=ADVANCED_FACE('',(#56),#557,.F.);
#584=ADVANCED_FACE('',(#57,#17,#18,#19),#30,.T.);
#585=ADVANCED_FACE('',(#58),#558,.T.);
#586=ADVANCED_FACE('',(#59),#559,.T.);
#587=ADVANCED_FACE('',(#60),#31,.T.);
#588=ADVANCED_FACE('',(#61),#32,.T.);
#589=ADVANCED_FACE('',(#62),#560,.T.);
#590=ADVANCED_FACE('',(#63),#561,.T.);
#591=ADVANCED_FACE('',(#64),#33,.T.);
#592=ADVANCED_FACE('',(#65),#34,.T.);
#593=CLOSED_SHELL('',(#562,#563,#564,#565,#566,#567,#568,#569,#570,#571,
#572,#573,#574,#575,#576,#577,#578,#579,#580,#581,#582,#583,#584,#585,#586,
#587,#588,#589,#590,#591,#592));
#594=DERIVED_UNIT_ELEMENT(#596,1.);
#595=DERIVED_UNIT_ELEMENT(#1038,-3.);
#596=(
CONVERSION_BASED_UNIT('gram',#598)
MASS_UNIT()
NAMED_UNIT(#1035)
);
#597=(
MASS_UNIT()
NAMED_UNIT(*)
SI_UNIT(.KILO.,.GRAM.)
);
#598=MASS_MEASURE_WITH_UNIT(MASS_MEASURE(0.001),#597);
#599=DERIVED_UNIT((#594,#595));
#600=MEASURE_REPRESENTATION_ITEM('density measure',
POSITIVE_RATIO_MEASURE(1.06),#599);
#601=PROPERTY_DEFINITION_REPRESENTATION(#606,#603);
#602=PROPERTY_DEFINITION_REPRESENTATION(#607,#604);
#603=REPRESENTATION('material name',(#605),#1032);
#604=REPRESENTATION('density',(#600),#1032);
#605=DESCRIPTIVE_REPRESENTATION_ITEM('ABS Plastic','ABS Plastic');
#606=PROPERTY_DEFINITION('material property','material name',#1046);
#607=PROPERTY_DEFINITION('material property','density of part',#1046);
#608=DATE_TIME_ROLE('creation_date');
#609=APPLIED_DATE_AND_TIME_ASSIGNMENT(#610,#608,(#1046));
#610=DATE_AND_TIME(#611,#612);
#611=CALENDAR_DATE(2026,7,2);
#612=LOCAL_TIME(0,0,0.,#613);
#613=COORDINATED_UNIVERSAL_TIME_OFFSET(0,0,.BEHIND.);
#614=AXIS2_PLACEMENT_3D('',#858,#678,#679);
#615=AXIS2_PLACEMENT_3D('',#859,#680,#681);
#616=AXIS2_PLACEMENT_3D('',#862,#682,#683);
#617=AXIS2_PLACEMENT_3D('',#866,#685,#686);
#618=AXIS2_PLACEMENT_3D('',#868,#688,#689);
#619=AXIS2_PLACEMENT_3D('',#870,#690,#691);
#620=AXIS2_PLACEMENT_3D('',#873,#693,#694);
#621=AXIS2_PLACEMENT_3D('',#874,#695,#696);
#622=AXIS2_PLACEMENT_3D('',#878,#698,#699);
#623=AXIS2_PLACEMENT_3D('',#882,#701,#702);
#624=AXIS2_PLACEMENT_3D('',#884,#703,#704);
#625=AXIS2_PLACEMENT_3D('',#888,#706,#707);
#626=AXIS2_PLACEMENT_3D('',#890,#708,#709);
#627=AXIS2_PLACEMENT_3D('',#894,#711,#712);
#628=AXIS2_PLACEMENT_3D('',#898,#714,#715);
#629=AXIS2_PLACEMENT_3D('',#900,#716,#717);
#630=AXIS2_PLACEMENT_3D('',#906,#720,#721);
#631=AXIS2_PLACEMENT_3D('',#909,#723,#724);
#632=AXIS2_PLACEMENT_3D('',#912,#725,#726);
#633=AXIS2_PLACEMENT_3D('',#916,#728,#729);
#634=AXIS2_PLACEMENT_3D('',#918,#731,#732);
#635=AXIS2_PLACEMENT_3D('',#921,#733,#734);
#636=AXIS2_PLACEMENT_3D('',#924,#737,#738);
#637=AXIS2_PLACEMENT_3D('',#926,#739,#740);
#638=AXIS2_PLACEMENT_3D('',#928,#742,#743);
#639=AXIS2_PLACEMENT_3D('',#930,#745,#746);
#640=AXIS2_PLACEMENT_3D('',#934,#749,#750);
#641=AXIS2_PLACEMENT_3D('',#937,#751,#752);
#642=AXIS2_PLACEMENT_3D('',#940,#755,#756);
#643=AXIS2_PLACEMENT_3D('',#944,#759,#760);
#644=AXIS2_PLACEMENT_3D('',#946,#761,#762);
#645=AXIS2_PLACEMENT_3D('',#948,#764,#765);
#646=AXIS2_PLACEMENT_3D('',#950,#767,#768);
#647=AXIS2_PLACEMENT_3D('',#953,#769,#770);
#648=AXIS2_PLACEMENT_3D('',#956,#773,#774);
#649=AXIS2_PLACEMENT_3D('',#960,#777,#778);
#650=AXIS2_PLACEMENT_3D('',#964,#780,#781);
#651=AXIS2_PLACEMENT_3D('',#966,#783,#784);
#652=AXIS2_PLACEMENT_3D('',#970,#787,#788);
#653=AXIS2_PLACEMENT_3D('',#972,#789,#790);
#654=AXIS2_PLACEMENT_3D('',#974,#792,#793);
#655=AXIS2_PLACEMENT_3D('',#978,#796,#797);
#656=AXIS2_PLACEMENT_3D('',#979,#798,#799);
#657=AXIS2_PLACEMENT_3D('',#980,#800,#801);
#658=AXIS2_PLACEMENT_3D('',#986,#805,#806);
#659=AXIS2_PLACEMENT_3D('',#988,#807,#808);
#660=AXIS2_PLACEMENT_3D('',#990,#810,#811);
#661=AXIS2_PLACEMENT_3D('',#994,#814,#815);
#662=AXIS2_PLACEMENT_3D('',#995,#816,#817);
#663=AXIS2_PLACEMENT_3D('',#996,#818,#819);
#664=AXIS2_PLACEMENT_3D('',#999,#821,#822);
#665=AXIS2_PLACEMENT_3D('',#1000,#823,#824);
#666=AXIS2_PLACEMENT_3D('',#1005,#826,#827);
#667=AXIS2_PLACEMENT_3D('',#1008,#829,#830);
#668=AXIS2_PLACEMENT_3D('',#1009,#831,#832);
#669=AXIS2_PLACEMENT_3D('',#1011,#834,#835);
#670=AXIS2_PLACEMENT_3D('',#1012,#836,#837);
#671=AXIS2_PLACEMENT_3D('',#1013,#838,#839);
#672=AXIS2_PLACEMENT_3D('',#1016,#840,#841);
#673=AXIS2_PLACEMENT_3D('',#1020,#843,#844);
#674=AXIS2_PLACEMENT_3D('',#1022,#846,#847);
#675=AXIS2_PLACEMENT_3D('',#1025,#850,#851);
#676=AXIS2_PLACEMENT_3D('',#1028,#854,#855);
#677=AXIS2_PLACEMENT_3D('',#1029,#856,#857);
#678=DIRECTION('axis',(0.,0.,1.));
#679=DIRECTION('refdir',(1.,0.,0.));
#680=DIRECTION('center_axis',(0.,1.,0.));
#681=DIRECTION('ref_axis',(-1.,0.,0.));
#682=DIRECTION('center_axis',(0.,1.,0.));
#683=DIRECTION('ref_axis',(-1.,0.,0.));
#684=DIRECTION('',(0.,1.,0.));
#685=DIRECTION('center_axis',(0.,-1.,0.));
#686=DIRECTION('ref_axis',(-1.,0.,0.));
#687=DIRECTION('',(0.,-1.,0.));
#688=DIRECTION('center_axis',(0.,-1.,0.));
#689=DIRECTION('ref_axis',(-0.707106781186546,0.,0.707106781186549));
#690=DIRECTION('center_axis',(0.,-1.,0.));
#691=DIRECTION('ref_axis',(-0.707106781186546,0.,0.707106781186549));
#692=DIRECTION('',(0.,1.,0.));
#693=DIRECTION('center_axis',(0.,1.,0.));
#694=DIRECTION('ref_axis',(-0.707106781186546,0.,0.707106781186549));
#695=DIRECTION('center_axis',(0.,-1.,0.));
#696=DIRECTION('ref_axis',(0.,0.,-1.));
#697=DIRECTION('',(0.,0.,1.));
#698=DIRECTION('center_axis',(0.,1.,0.));
#699=DIRECTION('ref_axis',(-0.707106781186547,0.,0.707106781186547));
#700=DIRECTION('',(0.,0.,-1.));
#701=DIRECTION('center_axis',(0.,1.,0.));
#702=DIRECTION('ref_axis',(1.,0.,0.));
#703=DIRECTION('center_axis',(0.,-1.,0.));
#704=DIRECTION('ref_axis',(0.707106781186549,0.,0.707106781186546));
#705=DIRECTION('',(0.,0.,-1.));
#706=DIRECTION('center_axis',(0.,-1.,0.));
#707=DIRECTION('ref_axis',(0.707106781186546,0.,-0.707106781186549));
#708=DIRECTION('center_axis',(0.,1.,0.));
#709=DIRECTION('ref_axis',(1.,0.,0.));
#710=DIRECTION('',(0.,0.,-1.));
#711=DIRECTION('center_axis',(0.,1.,0.));
#712=DIRECTION('ref_axis',(0.707106781186547,0.,-0.707106781186547));
#713=DIRECTION('',(0.,0.,1.));
#714=DIRECTION('center_axis',(0.,1.,0.));
#715=DIRECTION('ref_axis',(-1.,0.,0.));
#716=DIRECTION('center_axis',(0.,-1.,0.));
#717=DIRECTION('ref_axis',(-0.707106781186549,0.,-0.707106781186546));
#718=DIRECTION('',(0.,0.,1.));
#719=DIRECTION('',(0.,0.,1.));
#720=DIRECTION('center_axis',(0.,-1.,0.));
#721=DIRECTION('ref_axis',(0.707106781186548,0.,0.707106781186547));
#722=DIRECTION('',(0.,0.,-1.));
#723=DIRECTION('center_axis',(0.,-1.,0.));
#724=DIRECTION('ref_axis',(-0.707106781186548,0.,-0.707106781186547));
#725=DIRECTION('center_axis',(0.,-1.,0.));
#726=DIRECTION('ref_axis',(0.707106781186547,0.,0.707106781186547));
#727=DIRECTION('',(0.,0.,-1.));
#728=DIRECTION('center_axis',(0.,-1.,0.));
#729=DIRECTION('ref_axis',(-0.707106781186551,0.,-0.707106781186544));
#730=DIRECTION('',(0.,0.,1.));
#731=DIRECTION('center_axis',(0.,-1.,0.));
#732=DIRECTION('ref_axis',(-1.,0.,0.));
#733=DIRECTION('center_axis',(0.,-1.,0.));
#734=DIRECTION('ref_axis',(-1.,0.,0.));
#735=DIRECTION('',(0.,-1.,0.));
#736=DIRECTION('',(0.,1.,0.));
#737=DIRECTION('center_axis',(0.,-1.,0.));
#738=DIRECTION('ref_axis',(-0.707106781186549,0.,-0.707106781186546));
#739=DIRECTION('center_axis',(0.,1.,0.));
#740=DIRECTION('ref_axis',(-0.707106781186549,0.,-0.707106781186546));
#741=DIRECTION('',(0.,-1.,0.));
#742=DIRECTION('center_axis',(1.,0.,0.));
#743=DIRECTION('ref_axis',(0.,0.,1.));
#744=DIRECTION('',(0.,0.,-1.));
#745=DIRECTION('center_axis',(1.,0.,0.));
#746=DIRECTION('ref_axis',(0.,0.,1.));
#747=DIRECTION('',(0.,0.,-1.));
#748=DIRECTION('',(0.,1.,0.));
#749=DIRECTION('center_axis',(0.,-1.,0.));
#750=DIRECTION('ref_axis',(0.707106781186547,0.,0.707106781186547));
#751=DIRECTION('center_axis',(0.,1.,0.));
#752=DIRECTION('ref_axis',(-0.707106781186547,0.,0.707106781186547));
#753=DIRECTION('',(0.,-1.,0.));
#754=DIRECTION('',(0.,1.,0.));
#755=DIRECTION('center_axis',(-1.,0.,0.));
#756=DIRECTION('ref_axis',(0.,0.,-1.));
#757=DIRECTION('',(0.,0.,1.));
#758=DIRECTION('',(0.,1.,0.));
#759=DIRECTION('center_axis',(0.,-1.,0.));
#760=DIRECTION('ref_axis',(-0.707106781186551,0.,-0.707106781186544));
#761=DIRECTION('center_axis',(0.,1.,0.));
#762=DIRECTION('ref_axis',(0.707106781186547,0.,-0.707106781186547));
#763=DIRECTION('',(0.,-1.,0.));
#764=DIRECTION('center_axis',(1.,0.,0.));
#765=DIRECTION('ref_axis',(0.,0.,1.));
#766=DIRECTION('',(0.,0.,-1.));
#767=DIRECTION('center_axis',(0.,-1.,0.));
#768=DIRECTION('ref_axis',(1.,0.,0.));
#769=DIRECTION('center_axis',(0.,-1.,0.));
#770=DIRECTION('ref_axis',(1.,0.,0.));
#771=DIRECTION('',(0.,-1.,0.));
#772=DIRECTION('',(0.,1.,0.));
#773=DIRECTION('center_axis',(-1.,0.,0.));
#774=DIRECTION('ref_axis',(0.,0.,-1.));
#775=DIRECTION('',(0.,-1.,0.));
#776=DIRECTION('',(0.,0.,1.));
#777=DIRECTION('center_axis',(0.,1.,0.));
#778=DIRECTION('ref_axis',(1.,0.,0.));
#779=DIRECTION('',(0.,1.,0.));
#780=DIRECTION('center_axis',(0.,-1.,0.));
#781=DIRECTION('ref_axis',(1.,0.,0.));
#782=DIRECTION('',(0.,-1.,0.));
#783=DIRECTION('center_axis',(-1.,0.,0.));
#784=DIRECTION('ref_axis',(0.,0.,-1.));
#785=DIRECTION('',(0.,0.,1.));
#786=DIRECTION('',(0.,1.,0.));
#787=DIRECTION('center_axis',(0.,-1.,0.));
#788=DIRECTION('ref_axis',(0.707106781186549,0.,0.707106781186546));
#789=DIRECTION('center_axis',(0.,1.,0.));
#790=DIRECTION('ref_axis',(0.707106781186549,0.,0.707106781186546));
#791=DIRECTION('',(0.,-1.,0.));
#792=DIRECTION('center_axis',(1.,0.,0.));
#793=DIRECTION('ref_axis',(0.,0.,1.));
#794=DIRECTION('',(0.,0.,1.));
#795=DIRECTION('',(0.,1.,0.));
#796=DIRECTION('center_axis',(0.,-1.,0.));
#797=DIRECTION('ref_axis',(0.707106781186546,0.,-0.707106781186549));
#798=DIRECTION('center_axis',(0.,1.,0.));
#799=DIRECTION('ref_axis',(0.707106781186546,0.,-0.707106781186549));
#800=DIRECTION('center_axis',(1.,0.,0.));
#801=DIRECTION('ref_axis',(0.,0.,1.));
#802=DIRECTION('',(0.,-1.,0.));
#803=DIRECTION('',(0.,0.,1.));
#804=DIRECTION('',(0.,1.,0.));
#805=DIRECTION('center_axis',(0.,-1.,0.));
#806=DIRECTION('ref_axis',(-0.707106781186548,0.,0.707106781186547));
#807=DIRECTION('center_axis',(0.,1.,0.));
#808=DIRECTION('ref_axis',(-0.707106781186548,0.,0.707106781186547));
#809=DIRECTION('',(0.,1.,0.));
#810=DIRECTION('center_axis',(-1.,0.,0.));
#811=DIRECTION('ref_axis',(0.,0.,-1.));
#812=DIRECTION('',(0.,-1.,0.));
#813=DIRECTION('',(0.,0.,-1.));
#814=DIRECTION('center_axis',(0.,-1.,0.));
#815=DIRECTION('ref_axis',(0.707106781186548,0.,-0.707106781186547));
#816=DIRECTION('center_axis',(0.,1.,0.));
#817=DIRECTION('ref_axis',(0.707106781186548,0.,-0.707106781186547));
#818=DIRECTION('center_axis',(0.,1.,0.));
#819=DIRECTION('ref_axis',(0.,0.,1.));
#820=DIRECTION('',(0.,0.,-1.));
#821=DIRECTION('center_axis',(0.,-1.,0.));
#822=DIRECTION('ref_axis',(-0.707106781186547,0.,-0.707106781186547));
#823=DIRECTION('center_axis',(0.,-1.,0.));
#824=DIRECTION('ref_axis',(0.707106781186547,0.,0.707106781186547));
#825=DIRECTION('',(0.,0.,-1.));
#826=DIRECTION('center_axis',(0.,-1.,0.));
#827=DIRECTION('ref_axis',(0.707106781186549,0.,-0.707106781186546));
#828=DIRECTION('',(0.,0.,1.));
#829=DIRECTION('center_axis',(0.,-1.,0.));
#830=DIRECTION('ref_axis',(-0.707106781186547,0.,0.707106781186548));
#831=DIRECTION('center_axis',(0.,-1.,0.));
#832=DIRECTION('ref_axis',(-0.707106781186547,0.,-0.707106781186547));
#833=DIRECTION('',(0.,-1.,0.));
#834=DIRECTION('center_axis',(0.,-1.,0.));
#835=DIRECTION('ref_axis',(0.707106781186547,0.,0.707106781186547));
#836=DIRECTION('center_axis',(1.,0.,0.));
#837=DIRECTION('ref_axis',(0.,0.,1.));
#838=DIRECTION('center_axis',(0.,1.,0.));
#839=DIRECTION('ref_axis',(0.,0.,1.));
#840=DIRECTION('center_axis',(0.,-1.,0.));
#841=DIRECTION('ref_axis',(-0.707106781186547,0.,-0.707106781186548));
#842=DIRECTION('',(0.,0.,1.));
#843=DIRECTION('center_axis',(0.,-1.,0.));
#844=DIRECTION('ref_axis',(0.707106781186548,0.,0.707106781186548));
#845=DIRECTION('',(0.,0.,-1.));
#846=DIRECTION('center_axis',(0.,1.,0.));
#847=DIRECTION('ref_axis',(-0.707106781186547,0.,-0.707106781186548));
#848=DIRECTION('',(0.,-1.,0.));
#849=DIRECTION('',(0.,1.,0.));
#850=DIRECTION('center_axis',(0.,1.,0.));
#851=DIRECTION('ref_axis',(0.707106781186548,0.,0.707106781186548));
#852=DIRECTION('',(0.,-1.,0.));
#853=DIRECTION('',(0.,1.,0.));
#854=DIRECTION('center_axis',(1.,0.,0.));
#855=DIRECTION('ref_axis',(0.,0.,-1.));
#856=DIRECTION('center_axis',(-1.,0.,0.));
#857=DIRECTION('ref_axis',(0.,0.,1.));
#858=CARTESIAN_POINT('',(0.,0.,0.));
#859=CARTESIAN_POINT('Origin',(1.10236220472441,0.,-1.79633923833829));
#860=CARTESIAN_POINT('',(1.18110236220472,-0.118110236220472,-1.79633923833829));
#861=CARTESIAN_POINT('',(1.12204724409449,-0.118110236220472,-1.87257906798804));
#862=CARTESIAN_POINT('Origin',(1.10236220472441,-0.118110236220472,-1.79633923833829));
#863=CARTESIAN_POINT('',(1.12204724409449,0.,-1.87257906798804));
#864=CARTESIAN_POINT('',(1.12204724409449,0.,-1.87257906798804));
#865=CARTESIAN_POINT('',(1.18110236220472,0.,-1.79633923833829));
#866=CARTESIAN_POINT('Origin',(1.10236220472441,0.,-1.79633923833829));
#867=CARTESIAN_POINT('',(1.18110236220472,0.,-1.79633923833829));
#868=CARTESIAN_POINT('Origin',(1.14173228346457,0.,-1.9488188976378));
#869=CARTESIAN_POINT('',(1.06299212598425,-0.118110236220472,-1.9488188976378));
#870=CARTESIAN_POINT('Origin',(1.14173228346457,-0.118110236220472,-1.9488188976378));
#871=CARTESIAN_POINT('',(1.06299212598425,0.,-1.9488188976378));
#872=CARTESIAN_POINT('',(1.06299212598425,0.,-1.9488188976378));
#873=CARTESIAN_POINT('Origin',(1.14173228346457,0.,-1.9488188976378));
#874=CARTESIAN_POINT('Origin',(0.590551181102362,-0.118110236220472,-2.26377952755906));
#875=CARTESIAN_POINT('',(1.18110236220472,-0.118110236220472,-0.590551181102362));
#876=CARTESIAN_POINT('',(1.18110236220472,-0.118110236220472,0.));
#877=CARTESIAN_POINT('',(0.,-0.118110236220472,-0.590551181102362));
#878=CARTESIAN_POINT('Origin',(0.590551181102362,-0.118110236220472,-0.590551181102362));
#879=CARTESIAN_POINT('',(0.,-0.118110236220472,-1.79633923833829));
#880=CARTESIAN_POINT('',(0.,-0.118110236220472,-4.52755905511811));
#881=CARTESIAN_POINT('',(0.0590551181102367,-0.118110236220472,-1.87257906798804));
#882=CARTESIAN_POINT('Origin',(0.078740157480315,-0.118110236220472,-1.79633923833829));
#883=CARTESIAN_POINT('',(0.118110236220473,-0.118110236220472,-1.94881889763779));
#884=CARTESIAN_POINT('Origin',(0.0393700787401582,-0.118110236220472,-1.94881889763779));
#885=CARTESIAN_POINT('',(0.118110236220473,-0.118110236220472,-2.57874015748031));
#886=CARTESIAN_POINT('',(0.118110236220473,-0.118110236220472,-2.46062992125984));
#887=CARTESIAN_POINT('',(0.0590551181102367,-0.118110236220472,-2.65497998713007));
#888=CARTESIAN_POINT('Origin',(0.0393700787401582,-0.118110236220472,-2.57874015748031));
#889=CARTESIAN_POINT('',(0.,-0.118110236220472,-2.73121981677982));
#890=CARTESIAN_POINT('Origin',(0.078740157480315,-0.118110236220472,-2.73121981677982));
#891=CARTESIAN_POINT('',(0.,-0.118110236220472,-3.93700787401575));
#892=CARTESIAN_POINT('',(0.,-0.118110236220472,-4.52755905511811));
#893=CARTESIAN_POINT('',(1.18110236220472,-0.118110236220472,-3.93700787401575));
#894=CARTESIAN_POINT('Origin',(0.590551181102362,-0.118110236220472,-3.93700787401575));
#895=CARTESIAN_POINT('',(1.18110236220472,-0.118110236220472,-2.73121981677982));
#896=CARTESIAN_POINT('',(1.18110236220472,-0.118110236220472,0.));
#897=CARTESIAN_POINT('',(1.12204724409449,-0.118110236220472,-2.65497998713007));
#898=CARTESIAN_POINT('Origin',(1.10236220472441,-0.118110236220472,-2.73121981677982));
#899=CARTESIAN_POINT('',(1.06299212598425,-0.118110236220472,-2.57874015748031));
#900=CARTESIAN_POINT('Origin',(1.14173228346457,-0.118110236220472,-2.57874015748031));
#901=CARTESIAN_POINT('',(1.06299212598425,-0.118110236220472,-2.46062992125984));
#902=CARTESIAN_POINT('',(0.196850393700788,-0.118110236220472,-2.61811023622047));
#903=CARTESIAN_POINT('',(0.196850393700788,-0.118110236220472,-1.90944881889764));
#904=CARTESIAN_POINT('',(0.196850393700788,-0.118110236220472,-2.06692913385827));
#905=CARTESIAN_POINT('',(0.275590551181103,-0.118110236220472,-1.90944881889764));
#906=CARTESIAN_POINT('Origin',(0.236220472440946,-0.118110236220472,-1.90944881889764));
#907=CARTESIAN_POINT('',(0.275590551181103,-0.118110236220472,-2.61811023622047));
#908=CARTESIAN_POINT('',(0.275590551181103,-0.118110236220472,-2.46062992125984));
#909=CARTESIAN_POINT('Origin',(0.236220472440946,-0.118110236220472,-2.61811023622047));
#910=CARTESIAN_POINT('',(0.984251968503938,-0.118110236220472,-1.90944881889764));
#911=CARTESIAN_POINT('',(0.905511811023623,-0.118110236220472,-1.90944881889764));
#912=CARTESIAN_POINT('Origin',(0.94488188976378,-0.118110236220472,-1.90944881889764));
#913=CARTESIAN_POINT('',(0.984251968503938,-0.118110236220472,-2.61811023622047));
#914=CARTESIAN_POINT('',(0.984251968503938,-0.118110236220472,-2.06692913385827));
#915=CARTESIAN_POINT('',(0.905511811023623,-0.118110236220472,-2.61811023622047));
#916=CARTESIAN_POINT('Origin',(0.944881889763781,-0.118110236220472,-2.61811023622047));
#917=CARTESIAN_POINT('',(0.905511811023623,-0.118110236220472,-2.46062992125984));
#918=CARTESIAN_POINT('Origin',(1.10236220472441,0.,-2.73121981677982));
#919=CARTESIAN_POINT('',(1.18110236220472,0.,-2.73121981677982));
#920=CARTESIAN_POINT('',(1.12204724409449,0.,-2.65497998713007));
#921=CARTESIAN_POINT('Origin',(1.10236220472441,0.,-2.73121981677982));
#922=CARTESIAN_POINT('',(1.12204724409449,0.,-2.65497998713007));
#923=CARTESIAN_POINT('',(1.18110236220472,0.,-2.73121981677982));
#924=CARTESIAN_POINT('Origin',(1.14173228346457,0.,-2.57874015748031));
#925=CARTESIAN_POINT('',(1.06299212598425,0.,-2.57874015748031));
#926=CARTESIAN_POINT('Origin',(1.14173228346457,0.,-2.57874015748031));
#927=CARTESIAN_POINT('',(1.06299212598425,0.,-2.57874015748031));
#928=CARTESIAN_POINT('Origin',(1.06299212598425,0.,-2.65748031496063));
#929=CARTESIAN_POINT('',(1.06299212598425,0.,-2.46062992125984));
#930=CARTESIAN_POINT('Origin',(1.18110236220472,0.,-4.52755905511811));
#931=CARTESIAN_POINT('',(1.18110236220472,0.,-0.590551181102362));
#932=CARTESIAN_POINT('',(1.18110236220472,0.,0.));
#933=CARTESIAN_POINT('',(1.18110236220472,0.,-0.590551181102362));
#934=CARTESIAN_POINT('Origin',(0.94488188976378,0.,-1.90944881889764));
#935=CARTESIAN_POINT('',(0.905511811023623,0.,-1.90944881889764));
#936=CARTESIAN_POINT('',(0.984251968503938,0.,-1.90944881889764));
#937=CARTESIAN_POINT('Origin',(0.94488188976378,0.,-1.90944881889764));
#938=CARTESIAN_POINT('',(0.984251968503938,0.,-1.90944881889764));
#939=CARTESIAN_POINT('',(0.905511811023623,0.,-1.90944881889764));
#940=CARTESIAN_POINT('Origin',(0.984251968503938,0.,-1.87007874015748));
#941=CARTESIAN_POINT('',(0.984251968503938,0.,-2.61811023622047));
#942=CARTESIAN_POINT('',(0.984251968503938,0.,-2.06692913385827));
#943=CARTESIAN_POINT('',(0.984251968503938,0.,-2.61811023622047));
#944=CARTESIAN_POINT('Origin',(0.944881889763781,0.,-2.61811023622047));
#945=CARTESIAN_POINT('',(0.905511811023623,0.,-2.61811023622047));
#946=CARTESIAN_POINT('Origin',(0.94488188976378,0.,-2.61811023622047));
#947=CARTESIAN_POINT('',(0.905511811023623,0.,-2.61811023622047));
#948=CARTESIAN_POINT('Origin',(0.905511811023623,0.,-2.65748031496063));
#949=CARTESIAN_POINT('',(0.905511811023623,0.,-2.46062992125984));
#950=CARTESIAN_POINT('Origin',(0.078740157480315,0.,-1.79633923833829));
#951=CARTESIAN_POINT('',(0.,0.,-1.79633923833829));
#952=CARTESIAN_POINT('',(0.0590551181102367,0.,-1.87257906798804));
#953=CARTESIAN_POINT('Origin',(0.078740157480315,0.,-1.79633923833829));
#954=CARTESIAN_POINT('',(0.0590551181102366,0.,-1.87257906798804));
#955=CARTESIAN_POINT('',(0.,0.,-1.79633923833829));
#956=CARTESIAN_POINT('Origin',(0.,0.,0.));
#957=CARTESIAN_POINT('',(0.,0.,-0.590551181102362));
#958=CARTESIAN_POINT('',(0.,0.,-0.590551181102362));
#959=CARTESIAN_POINT('',(0.,0.,-4.52755905511811));
#960=CARTESIAN_POINT('Origin',(0.078740157480315,0.,-2.73121981677982));
#961=CARTESIAN_POINT('',(0.0590551181102367,0.,-2.65497998713007));
#962=CARTESIAN_POINT('',(0.0590551181102366,0.,-2.65497998713007));
#963=CARTESIAN_POINT('',(0.,0.,-2.73121981677982));
#964=CARTESIAN_POINT('Origin',(0.078740157480315,0.,-2.73121981677982));
#965=CARTESIAN_POINT('',(0.,0.,-2.73121981677982));
#966=CARTESIAN_POINT('Origin',(0.,0.,0.));
#967=CARTESIAN_POINT('',(0.,0.,-3.93700787401575));
#968=CARTESIAN_POINT('',(0.,0.,-4.52755905511811));
#969=CARTESIAN_POINT('',(0.,0.,-3.93700787401575));
#970=CARTESIAN_POINT('Origin',(0.0393700787401582,0.,-1.94881889763779));
#971=CARTESIAN_POINT('',(0.118110236220473,0.,-1.94881889763779));
#972=CARTESIAN_POINT('Origin',(0.0393700787401582,0.,-1.94881889763779));
#973=CARTESIAN_POINT('',(0.118110236220473,0.,-1.94881889763779));
#974=CARTESIAN_POINT('Origin',(0.118110236220473,0.,-2.65748031496063));
#975=CARTESIAN_POINT('',(0.118110236220473,0.,-2.57874015748031));
#976=CARTESIAN_POINT('',(0.118110236220473,0.,-2.46062992125984));
#977=CARTESIAN_POINT('',(0.118110236220473,0.,-2.57874015748031));
#978=CARTESIAN_POINT('Origin',(0.0393700787401582,0.,-2.57874015748031));
#979=CARTESIAN_POINT('Origin',(0.0393700787401582,0.,-2.57874015748031));
#980=CARTESIAN_POINT('Origin',(0.275590551181103,0.,-2.65748031496063));
#981=CARTESIAN_POINT('',(0.275590551181103,0.,-1.90944881889764));
#982=CARTESIAN_POINT('',(0.275590551181103,0.,-1.90944881889764));
#983=CARTESIAN_POINT('',(0.275590551181103,0.,-2.61811023622047));
#984=CARTESIAN_POINT('',(0.275590551181103,0.,-2.46062992125984));
#985=CARTESIAN_POINT('',(0.275590551181103,0.,-2.61811023622047));
#986=CARTESIAN_POINT('Origin',(0.236220472440946,0.,-1.90944881889764));
#987=CARTESIAN_POINT('',(0.196850393700788,0.,-1.90944881889764));
#988=CARTESIAN_POINT('Origin',(0.236220472440946,0.,-1.90944881889764));
#989=CARTESIAN_POINT('',(0.196850393700788,0.,-1.90944881889764));
#990=CARTESIAN_POINT('Origin',(0.196850393700788,0.,-1.87007874015748));
#991=CARTESIAN_POINT('',(0.196850393700788,0.,-2.61811023622047));
#992=CARTESIAN_POINT('',(0.196850393700788,0.,-2.61811023622047));
#993=CARTESIAN_POINT('',(0.196850393700788,0.,-2.06692913385827));
#994=CARTESIAN_POINT('Origin',(0.236220472440946,0.,-2.61811023622047));
#995=CARTESIAN_POINT('Origin',(0.236220472440946,0.,-2.61811023622047));
#996=CARTESIAN_POINT('Origin',(0.590551181102362,0.,-2.26377952755906));
#997=CARTESIAN_POINT('',(1.18110236220472,0.,-3.93700787401575));
#998=CARTESIAN_POINT('',(1.18110236220472,0.,0.));
#999=CARTESIAN_POINT('Origin',(0.590551181102362,0.,-3.93700787401575));
#1000=CARTESIAN_POINT('Origin',(0.590551181102362,0.,-0.590551181102362));
#1001=CARTESIAN_POINT('',(0.354330708661418,0.,-0.590551181102363));
#1002=CARTESIAN_POINT('',(0.354330708661418,0.,-3.93700787401575));
#1003=CARTESIAN_POINT('',(0.354330708661418,0.,-3.21850393700787));
#1004=CARTESIAN_POINT('',(0.826771653543308,0.,-3.93700787401575));
#1005=CARTESIAN_POINT('Origin',(0.590551181102363,0.,-3.93700787401575));
#1006=CARTESIAN_POINT('',(0.826771653543308,0.,-0.590551181102363));
#1007=CARTESIAN_POINT('',(0.826771653543308,0.,-1.30905511811024));
#1008=CARTESIAN_POINT('Origin',(0.590551181102363,0.,-0.590551181102363));
#1009=CARTESIAN_POINT('Origin',(0.590551181102362,0.,-3.93700787401575));
#1010=CARTESIAN_POINT('',(1.18110236220472,0.,-3.93700787401575));
#1011=CARTESIAN_POINT('Origin',(0.590551181102362,0.,-0.590551181102362));
#1012=CARTESIAN_POINT('Origin',(1.18110236220472,0.,-4.52755905511811));
#1013=CARTESIAN_POINT('Origin',(0.590551181102363,0.344488188976378,-2.26377952755906));
#1014=CARTESIAN_POINT('',(0.354330708661418,0.344488188976378,-3.93700787401575));
#1015=CARTESIAN_POINT('',(0.826771653543308,0.344488188976378,-3.93700787401575));
#1016=CARTESIAN_POINT('Origin',(0.590551181102363,0.344488188976378,-3.93700787401575));
#1017=CARTESIAN_POINT('',(0.354330708661418,0.344488188976378,-0.590551181102363));
#1018=CARTESIAN_POINT('',(0.354330708661418,0.344488188976378,-4.17322834645669));
#1019=CARTESIAN_POINT('',(0.826771653543308,0.344488188976378,-0.590551181102363));
#1020=CARTESIAN_POINT('Origin',(0.590551181102363,0.344488188976378,-0.590551181102363));
#1021=CARTESIAN_POINT('',(0.826771653543308,0.344488188976378,-0.354330708661418));
#1022=CARTESIAN_POINT('Origin',(0.590551181102363,0.,-3.93700787401575));
#1023=CARTESIAN_POINT('',(0.826771653543308,0.,-3.93700787401575));
#1024=CARTESIAN_POINT('',(0.354330708661418,0.,-3.93700787401575));
#1025=CARTESIAN_POINT('Origin',(0.590551181102363,0.,-0.590551181102363));
#1026=CARTESIAN_POINT('',(0.354330708661418,0.,-0.590551181102363));
#1027=CARTESIAN_POINT('',(0.826771653543308,0.,-0.590551181102363));
#1028=CARTESIAN_POINT('Origin',(0.826771653543308,0.,-0.354330708661418));
#1029=CARTESIAN_POINT('Origin',(0.354330708661418,0.,-4.17322834645669));
#1030=UNCERTAINTY_MEASURE_WITH_UNIT(LENGTH_MEASURE(0.000393700787401575),
#1036,'DISTANCE_ACCURACY_VALUE',
'Maximum model space distance between geometric entities at asserted c
onnectivities');
#1031=UNCERTAINTY_MEASURE_WITH_UNIT(LENGTH_MEASURE(0.000393700787401575),
#1036,'DISTANCE_ACCURACY_VALUE',
'Maximum model space distance between geometric entities at asserted c
onnectivities');
#1032=(
GEOMETRIC_REPRESENTATION_CONTEXT(3)
GLOBAL_UNCERTAINTY_ASSIGNED_CONTEXT((#1030))
GLOBAL_UNIT_ASSIGNED_CONTEXT((#1036,#1040,#1041))
REPRESENTATION_CONTEXT('','3D')
);
#1033=(
GEOMETRIC_REPRESENTATION_CONTEXT(3)
GLOBAL_UNCERTAINTY_ASSIGNED_CONTEXT((#1031))
GLOBAL_UNIT_ASSIGNED_CONTEXT((#1036,#1040,#1041))
REPRESENTATION_CONTEXT('','3D')
);
#1034=DIMENSIONAL_EXPONENTS(1.,0.,0.,0.,0.,0.,0.);
#1035=DIMENSIONAL_EXPONENTS(0.,1.,0.,0.,0.,0.,0.);
#1036=(
CONVERSION_BASED_UNIT('inch',#1039)
LENGTH_UNIT()
NAMED_UNIT(#1034)
);
#1037=(
LENGTH_UNIT()
NAMED_UNIT(*)
SI_UNIT(.MILLI.,.METRE.)
);
#1038=(
LENGTH_UNIT()
NAMED_UNIT(*)
SI_UNIT(.CENTI.,.METRE.)
);
#1039=LENGTH_MEASURE_WITH_UNIT(LENGTH_MEASURE(25.4),#1037);
#1040=(
NAMED_UNIT(*)
PLANE_ANGLE_UNIT()
SI_UNIT($,.RADIAN.)
);
#1041=(
NAMED_UNIT(*)
SI_UNIT($,.STERADIAN.)
SOLID_ANGLE_UNIT()
);
#1042=SHAPE_DEFINITION_REPRESENTATION(#1043,#1044);
#1043=PRODUCT_DEFINITION_SHAPE('',$,#1046);
#1044=SHAPE_REPRESENTATION('',(#614),#1032);
#1045=PRODUCT_DEFINITION_CONTEXT('part definition',#1050,'design');
#1046=PRODUCT_DEFINITION('CableWrapCore','CableWrapCore',#1047,#1045);
#1047=PRODUCT_DEFINITION_FORMATION('',$,#1052);
#1048=PRODUCT_RELATED_PRODUCT_CATEGORY('CableWrapCore','CableWrapCore',
(#1052));
#1049=APPLICATION_PROTOCOL_DEFINITION('international standard',
'automotive_design',2009,#1050);
#1050=APPLICATION_CONTEXT(
'Core Data for Automotive Mechanical Design Process');
#1051=PRODUCT_CONTEXT('part definition',#1050,'mechanical');
#1052=PRODUCT('CableWrapCore','CableWrapCore',$,(#1051));
#1053=PRESENTATION_STYLE_ASSIGNMENT((#1054));
#1054=SURFACE_STYLE_USAGE(.BOTH.,#1057);
#1055=SURFACE_STYLE_RENDERING_WITH_PROPERTIES($,#1061,(#1056));
#1056=SURFACE_STYLE_TRANSPARENT(0.);
#1057=SURFACE_SIDE_STYLE('',(#1058,#1055));
#1058=SURFACE_STYLE_FILL_AREA(#1059);
#1059=FILL_AREA_STYLE('',(#1060));
#1060=FILL_AREA_STYLE_COLOUR('',#1061);
#1061=COLOUR_RGB('',0.,0.,0.);
ENDSEC;
END-ISO-10303-21;
