ISO-10303-21;
HEADER;
/* Generated by software containing ST-Developer
 * from STEP Tools, Inc. (www.steptools.com) 
 */

FILE_DESCRIPTION(
/* description */ (''),
/* implementation_level */ '2;1');

FILE_NAME(
/* name */ 'PC4-M10.stp',
/* time_stamp */ '2025-11-18T14:40:25-05:00',
/* author */ ('JoshuaEah'),
/* organization */ (''),
/* preprocessor_version */ 'ST-DEVELOPER v20.1',
/* originating_system */ 'Autodesk Inventor 2026',
/* authorisation */ '');

FILE_SCHEMA (('AUTOMOTIVE_DESIGN { 1 0 10303 214 3 1 1 }'));
ENDSEC;

DATA;
#10=MECHANICAL_DESIGN_GEOMETRIC_PRESENTATION_REPRESENTATION('',(#13,#14),
#970);
#11=SHAPE_REPRESENTATION_RELATIONSHIP('SRR','None',#981,#12);
#12=ADVANCED_BREP_SHAPE_REPRESENTATION('',(#15,#16),#969);
#13=STYLED_ITEM('',(#990),#15);
#14=STYLED_ITEM('',(#991),#16);
#15=MANIFOLD_SOLID_BREP('PC4-M10 Body',#522);
#16=MANIFOLD_SOLID_BREP('Collet',#523);
#17=TOROIDAL_SURFACE('',#589,0.137795275590551,0.0590551181102362);
#18=(
BOUNDED_CURVE()
B_SPLINE_CURVE(2,(#813,#814,#815),.UNSPECIFIED.,.F.,.F.)
B_SPLINE_CURVE_WITH_KNOTS((3,3),(0.,0.300948040244893),.UNSPECIFIED.)
CURVE()
GEOMETRIC_REPRESENTATION_ITEM()
RATIONAL_B_SPLINE_CURVE((1.,1.03795484930205,1.))
REPRESENTATION_ITEM('')
);
#19=(
BOUNDED_CURVE()
B_SPLINE_CURVE(2,(#816,#817,#818),.UNSPECIFIED.,.F.,.F.)
B_SPLINE_CURVE_WITH_KNOTS((3,3),(0.300948040244893,0.601896080489786),
 .UNSPECIFIED.)
CURVE()
GEOMETRIC_REPRESENTATION_ITEM()
RATIONAL_B_SPLINE_CURVE((1.,1.03795484930206,1.))
REPRESENTATION_ITEM('')
);
#20=(
BOUNDED_CURVE()
B_SPLINE_CURVE(2,(#821,#822,#823),.UNSPECIFIED.,.F.,.F.)
B_SPLINE_CURVE_WITH_KNOTS((3,3),(0.,0.300948040244893),.UNSPECIFIED.)
CURVE()
GEOMETRIC_REPRESENTATION_ITEM()
RATIONAL_B_SPLINE_CURVE((1.,1.03795484930204,1.))
REPRESENTATION_ITEM('')
);
#21=(
BOUNDED_CURVE()
B_SPLINE_CURVE(2,(#824,#825,#826),.UNSPECIFIED.,.F.,.F.)
B_SPLINE_CURVE_WITH_KNOTS((3,3),(0.300948040244893,0.601896080489786),
 .UNSPECIFIED.)
CURVE()
GEOMETRIC_REPRESENTATION_ITEM()
RATIONAL_B_SPLINE_CURVE((1.,1.03795484930204,1.))
REPRESENTATION_ITEM('')
);
#22=(
BOUNDED_CURVE()
B_SPLINE_CURVE(2,(#829,#830,#831),.UNSPECIFIED.,.F.,.F.)
B_SPLINE_CURVE_WITH_KNOTS((3,3),(0.300948040244893,0.601896080489786),
 .UNSPECIFIED.)
CURVE()
GEOMETRIC_REPRESENTATION_ITEM()
RATIONAL_B_SPLINE_CURVE((1.,1.03795484930204,1.))
REPRESENTATION_ITEM('')
);
#23=(
BOUNDED_CURVE()
B_SPLINE_CURVE(2,(#832,#833,#834),.UNSPECIFIED.,.F.,.F.)
B_SPLINE_CURVE_WITH_KNOTS((3,3),(0.,0.300948040244893),.UNSPECIFIED.)
CURVE()
GEOMETRIC_REPRESENTATION_ITEM()
RATIONAL_B_SPLINE_CURVE((1.,1.03795484930205,1.))
REPRESENTATION_ITEM('')
);
#24=(
BOUNDED_CURVE()
B_SPLINE_CURVE(2,(#837,#838,#839),.UNSPECIFIED.,.F.,.F.)
B_SPLINE_CURVE_WITH_KNOTS((3,3),(0.,0.300948040244893),.UNSPECIFIED.)
CURVE()
GEOMETRIC_REPRESENTATION_ITEM()
RATIONAL_B_SPLINE_CURVE((1.,1.03795484930206,1.))
REPRESENTATION_ITEM('')
);
#25=(
BOUNDED_CURVE()
B_SPLINE_CURVE(2,(#840,#841,#842),.UNSPECIFIED.,.F.,.F.)
B_SPLINE_CURVE_WITH_KNOTS((3,3),(0.300948040244893,0.601896080489786),
 .UNSPECIFIED.)
CURVE()
GEOMETRIC_REPRESENTATION_ITEM()
RATIONAL_B_SPLINE_CURVE((1.,1.03795484930206,1.))
REPRESENTATION_ITEM('')
);
#26=(
BOUNDED_CURVE()
B_SPLINE_CURVE(2,(#845,#846,#847),.UNSPECIFIED.,.F.,.F.)
B_SPLINE_CURVE_WITH_KNOTS((3,3),(0.300948040244893,0.601896080489786),
 .UNSPECIFIED.)
CURVE()
GEOMETRIC_REPRESENTATION_ITEM()
RATIONAL_B_SPLINE_CURVE((1.,1.03795484930205,1.))
REPRESENTATION_ITEM('')
);
#27=(
BOUNDED_CURVE()
B_SPLINE_CURVE(2,(#848,#849,#850),.UNSPECIFIED.,.F.,.F.)
B_SPLINE_CURVE_WITH_KNOTS((3,3),(0.,0.300948040244893),.UNSPECIFIED.)
CURVE()
GEOMETRIC_REPRESENTATION_ITEM()
RATIONAL_B_SPLINE_CURVE((1.,1.03795484930204,1.))
REPRESENTATION_ITEM('')
);
#28=(
BOUNDED_CURVE()
B_SPLINE_CURVE(2,(#853,#854,#855),.UNSPECIFIED.,.F.,.F.)
B_SPLINE_CURVE_WITH_KNOTS((3,3),(0.300948040244893,0.601896080489785),
 .UNSPECIFIED.)
CURVE()
GEOMETRIC_REPRESENTATION_ITEM()
RATIONAL_B_SPLINE_CURVE((1.,1.03795484930203,1.))
REPRESENTATION_ITEM('')
);
#29=(
BOUNDED_CURVE()
B_SPLINE_CURVE(2,(#856,#857,#858),.UNSPECIFIED.,.F.,.F.)
B_SPLINE_CURVE_WITH_KNOTS((3,3),(0.,0.300948040244893),.UNSPECIFIED.)
CURVE()
GEOMETRIC_REPRESENTATION_ITEM()
RATIONAL_B_SPLINE_CURVE((1.,1.03795484930202,1.))
REPRESENTATION_ITEM('')
);
#30=(
BOUNDED_CURVE()
B_SPLINE_CURVE(2,(#862,#863,#864),.UNSPECIFIED.,.F.,.F.)
B_SPLINE_CURVE_WITH_KNOTS((3,3),(0.,0.300948040244893),.UNSPECIFIED.)
CURVE()
GEOMETRIC_REPRESENTATION_ITEM()
RATIONAL_B_SPLINE_CURVE((1.,1.03795484930206,1.))
REPRESENTATION_ITEM('')
);
#31=(
BOUNDED_CURVE()
B_SPLINE_CURVE(2,(#866,#867,#868),.UNSPECIFIED.,.F.,.F.)
B_SPLINE_CURVE_WITH_KNOTS((3,3),(0.300948040244893,0.601896080489785),
 .UNSPECIFIED.)
CURVE()
GEOMETRIC_REPRESENTATION_ITEM()
RATIONAL_B_SPLINE_CURVE((1.,1.03795484930205,1.))
REPRESENTATION_ITEM('')
);
#32=(
BOUNDED_CURVE()
B_SPLINE_CURVE(2,(#873,#874,#875),.UNSPECIFIED.,.F.,.F.)
B_SPLINE_CURVE_WITH_KNOTS((3,3),(0.300948040244893,0.601896080489785),
 .UNSPECIFIED.)
CURVE()
GEOMETRIC_REPRESENTATION_ITEM()
RATIONAL_B_SPLINE_CURVE((1.,1.03795484930204,1.))
REPRESENTATION_ITEM('')
);
#33=(
BOUNDED_CURVE()
B_SPLINE_CURVE(2,(#877,#878,#879),.UNSPECIFIED.,.F.,.F.)
B_SPLINE_CURVE_WITH_KNOTS((3,3),(0.,0.300948040244893),.UNSPECIFIED.)
CURVE()
GEOMETRIC_REPRESENTATION_ITEM()
RATIONAL_B_SPLINE_CURVE((1.,1.03795484930205,1.))
REPRESENTATION_ITEM('')
);
#34=(
BOUNDED_CURVE()
B_SPLINE_CURVE(2,(#883,#884,#885),.UNSPECIFIED.,.F.,.F.)
B_SPLINE_CURVE_WITH_KNOTS((3,3),(0.,0.300948040244893),.UNSPECIFIED.)
CURVE()
GEOMETRIC_REPRESENTATION_ITEM()
RATIONAL_B_SPLINE_CURVE((1.,1.03795484930204,1.))
REPRESENTATION_ITEM('')
);
#35=(
BOUNDED_CURVE()
B_SPLINE_CURVE(2,(#886,#887,#888),.UNSPECIFIED.,.F.,.F.)
B_SPLINE_CURVE_WITH_KNOTS((3,3),(0.300948040244893,0.601896080489786),
 .UNSPECIFIED.)
CURVE()
GEOMETRIC_REPRESENTATION_ITEM()
RATIONAL_B_SPLINE_CURVE((1.,1.03795484930205,1.))
REPRESENTATION_ITEM('')
);
#36=(
BOUNDED_CURVE()
B_SPLINE_CURVE(2,(#893,#894,#895),.UNSPECIFIED.,.F.,.F.)
B_SPLINE_CURVE_WITH_KNOTS((3,3),(0.,0.300948040244892),.UNSPECIFIED.)
CURVE()
GEOMETRIC_REPRESENTATION_ITEM()
RATIONAL_B_SPLINE_CURVE((1.,1.03795484930206,1.))
REPRESENTATION_ITEM('')
);
#37=(
BOUNDED_CURVE()
B_SPLINE_CURVE(2,(#896,#897,#898),.UNSPECIFIED.,.F.,.F.)
B_SPLINE_CURVE_WITH_KNOTS((3,3),(0.300948040244893,0.601896080489786),
 .UNSPECIFIED.)
CURVE()
GEOMETRIC_REPRESENTATION_ITEM()
RATIONAL_B_SPLINE_CURVE((1.,1.03795484930206,1.))
REPRESENTATION_ITEM('')
);
#38=(
BOUNDED_CURVE()
B_SPLINE_CURVE(2,(#903,#904,#905),.UNSPECIFIED.,.F.,.F.)
B_SPLINE_CURVE_WITH_KNOTS((3,3),(0.300948040244893,0.601896080489786),
 .UNSPECIFIED.)
CURVE()
GEOMETRIC_REPRESENTATION_ITEM()
RATIONAL_B_SPLINE_CURVE((1.,1.03795484930203,1.))
REPRESENTATION_ITEM('')
);
#39=(
BOUNDED_CURVE()
B_SPLINE_CURVE(2,(#907,#908,#909),.UNSPECIFIED.,.F.,.F.)
B_SPLINE_CURVE_WITH_KNOTS((3,3),(0.,0.300948040244893),.UNSPECIFIED.)
CURVE()
GEOMETRIC_REPRESENTATION_ITEM()
RATIONAL_B_SPLINE_CURVE((1.,1.03795484930204,1.))
REPRESENTATION_ITEM('')
);
#40=(
BOUNDED_CURVE()
B_SPLINE_CURVE(2,(#912,#913,#914),.UNSPECIFIED.,.F.,.F.)
B_SPLINE_CURVE_WITH_KNOTS((3,3),(0.300948040244892,0.601896080489785),
 .UNSPECIFIED.)
CURVE()
GEOMETRIC_REPRESENTATION_ITEM()
RATIONAL_B_SPLINE_CURVE((1.,1.03795484930205,1.))
REPRESENTATION_ITEM('')
);
#41=(
BOUNDED_CURVE()
B_SPLINE_CURVE(2,(#916,#917,#918),.UNSPECIFIED.,.F.,.F.)
B_SPLINE_CURVE_WITH_KNOTS((3,3),(0.,0.300948040244893),.UNSPECIFIED.)
CURVE()
GEOMETRIC_REPRESENTATION_ITEM()
RATIONAL_B_SPLINE_CURVE((1.,1.03795484930204,1.))
REPRESENTATION_ITEM('')
);
#42=CYLINDRICAL_SURFACE('',#558,0.0944881889763779);
#43=CYLINDRICAL_SURFACE('',#561,0.127952755905512);
#44=CYLINDRICAL_SURFACE('',#564,0.114173228346457);
#45=CYLINDRICAL_SURFACE('',#594,0.196850393700787);
#46=CYLINDRICAL_SURFACE('',#595,0.151574803149606);
#47=CYLINDRICAL_SURFACE('',#601,0.0826771653543307);
#48=CYLINDRICAL_SURFACE('',#604,0.110236220472441);
#49=CYLINDRICAL_SURFACE('',#608,0.196850393700787);
#50=FACE_BOUND('',#109,.T.);
#51=FACE_BOUND('',#113,.T.);
#52=FACE_BOUND('',#116,.T.);
#53=FACE_BOUND('',#136,.T.);
#54=FACE_BOUND('',#143,.T.);
#55=FACE_BOUND('',#146,.T.);
#56=FACE_BOUND('',#148,.T.);
#57=PLANE('',#556);
#58=PLANE('',#563);
#59=PLANE('',#567);
#60=PLANE('',#586);
#61=PLANE('',#587);
#62=PLANE('',#588);
#63=PLANE('',#597);
#64=PLANE('',#598);
#65=PLANE('',#599);
#66=PLANE('',#600);
#67=PLANE('',#607);
#68=PLANE('',#611);
#69=PLANE('',#612);
#70=FACE_OUTER_BOUND('',#106,.T.);
#71=FACE_OUTER_BOUND('',#107,.T.);
#72=FACE_OUTER_BOUND('',#108,.T.);
#73=FACE_OUTER_BOUND('',#110,.T.);
#74=FACE_OUTER_BOUND('',#111,.T.);
#75=FACE_OUTER_BOUND('',#112,.T.);
#76=FACE_OUTER_BOUND('',#114,.T.);
#77=FACE_OUTER_BOUND('',#115,.T.);
#78=FACE_OUTER_BOUND('',#117,.T.);
#79=FACE_OUTER_BOUND('',#118,.T.);
#80=FACE_OUTER_BOUND('',#119,.T.);
#81=FACE_OUTER_BOUND('',#120,.T.);
#82=FACE_OUTER_BOUND('',#121,.T.);
#83=FACE_OUTER_BOUND('',#122,.T.);
#84=FACE_OUTER_BOUND('',#123,.T.);
#85=FACE_OUTER_BOUND('',#124,.T.);
#86=FACE_OUTER_BOUND('',#125,.T.);
#87=FACE_OUTER_BOUND('',#126,.T.);
#88=FACE_OUTER_BOUND('',#127,.T.);
#89=FACE_OUTER_BOUND('',#128,.T.);
#90=FACE_OUTER_BOUND('',#129,.T.);
#91=FACE_OUTER_BOUND('',#130,.T.);
#92=FACE_OUTER_BOUND('',#131,.T.);
#93=FACE_OUTER_BOUND('',#132,.T.);
#94=FACE_OUTER_BOUND('',#133,.T.);
#95=FACE_OUTER_BOUND('',#134,.T.);
#96=FACE_OUTER_BOUND('',#135,.T.);
#97=FACE_OUTER_BOUND('',#137,.T.);
#98=FACE_OUTER_BOUND('',#138,.T.);
#99=FACE_OUTER_BOUND('',#139,.T.);
#100=FACE_OUTER_BOUND('',#140,.T.);
#101=FACE_OUTER_BOUND('',#141,.T.);
#102=FACE_OUTER_BOUND('',#142,.T.);
#103=FACE_OUTER_BOUND('',#144,.T.);
#104=FACE_OUTER_BOUND('',#145,.T.);
#105=FACE_OUTER_BOUND('',#147,.T.);
#106=EDGE_LOOP('',(#328,#329,#330,#331,#332));
#107=EDGE_LOOP('',(#333,#334,#335,#336,#337,#338,#339,#340,#341,#342));
#108=EDGE_LOOP('',(#343));
#109=EDGE_LOOP('',(#344));
#110=EDGE_LOOP('',(#345,#346,#347,#348));
#111=EDGE_LOOP('',(#349,#350,#351,#352));
#112=EDGE_LOOP('',(#353));
#113=EDGE_LOOP('',(#354));
#114=EDGE_LOOP('',(#355,#356,#357,#358));
#115=EDGE_LOOP('',(#359));
#116=EDGE_LOOP('',(#360));
#117=EDGE_LOOP('',(#361,#362,#363));
#118=EDGE_LOOP('',(#364,#365,#366));
#119=EDGE_LOOP('',(#367,#368,#369));
#120=EDGE_LOOP('',(#370,#371,#372));
#121=EDGE_LOOP('',(#373,#374,#375));
#122=EDGE_LOOP('',(#376,#377,#378));
#123=EDGE_LOOP('',(#379,#380,#381));
#124=EDGE_LOOP('',(#382,#383,#384));
#125=EDGE_LOOP('',(#385,#386,#387));
#126=EDGE_LOOP('',(#388,#389,#390));
#127=EDGE_LOOP('',(#391,#392,#393));
#128=EDGE_LOOP('',(#394,#395,#396));
#129=EDGE_LOOP('',(#397,#398,#399,#400,#401,#402));
#130=EDGE_LOOP('',(#403,#404,#405,#406,#407,#408));
#131=EDGE_LOOP('',(#409,#410,#411,#412,#413,#414));
#132=EDGE_LOOP('',(#415,#416,#417,#418,#419));
#133=EDGE_LOOP('',(#420,#421,#422,#423,#424,#425,#426,#427,#428,#429));
#134=EDGE_LOOP('',(#430,#431,#432,#433));
#135=EDGE_LOOP('',(#434));
#136=EDGE_LOOP('',(#435));
#137=EDGE_LOOP('',(#436,#437,#438,#439,#440,#441));
#138=EDGE_LOOP('',(#442,#443,#444,#445,#446,#447));
#139=EDGE_LOOP('',(#448,#449,#450,#451,#452,#453));
#140=EDGE_LOOP('',(#454,#455,#456,#457));
#141=EDGE_LOOP('',(#458,#459,#460,#461));
#142=EDGE_LOOP('',(#462));
#143=EDGE_LOOP('',(#463));
#144=EDGE_LOOP('',(#464,#465,#466,#467));
#145=EDGE_LOOP('',(#468));
#146=EDGE_LOOP('',(#469));
#147=EDGE_LOOP('',(#470));
#148=EDGE_LOOP('',(#471));
#149=LINE('',#774,#165);
#150=LINE('',#778,#166);
#151=LINE('',#797,#167);
#152=LINE('',#801,#168);
#153=LINE('',#808,#169);
#154=LINE('',#920,#170);
#155=LINE('',#921,#171);
#156=LINE('',#923,#172);
#157=LINE('',#924,#173);
#158=LINE('',#935,#174);
#159=LINE('',#939,#175);
#160=LINE('',#942,#176);
#161=LINE('',#944,#177);
#162=LINE('',#950,#178);
#163=LINE('',#956,#179);
#164=LINE('',#963,#180);
#165=VECTOR('',#621,0.169413682531906);
#166=VECTOR('',#626,0.196850393700787);
#167=VECTOR('',#647,0.0944881889763779);
#168=VECTOR('',#652,0.127952755905512);
#169=VECTOR('',#661,0.114173228346457);
#170=VECTOR('',#704,0.393700787401575);
#171=VECTOR('',#705,0.393700787401575);
#172=VECTOR('',#708,0.393700787401575);
#173=VECTOR('',#709,0.393700787401575);
#174=VECTOR('',#724,0.196850393700787);
#175=VECTOR('',#729,0.151574803149606);
#176=VECTOR('',#734,0.393700787401575);
#177=VECTOR('',#737,0.393700787401575);
#178=VECTOR('',#744,0.0826771653543307);
#179=VECTOR('',#751,0.110236220472441);
#180=VECTOR('',#760,0.196850393700787);
#181=CIRCLE('',#546,0.189713609929482);
#182=CIRCLE('',#547,0.189713609929482);
#183=CIRCLE('',#548,0.14911375513433);
#184=CIRCLE('',#550,0.196850393700787);
#185=CIRCLE('',#551,0.196850393700787);
#186=CIRCLE('',#552,0.196850393700787);
#187=CIRCLE('',#553,0.196850393700787);
#188=CIRCLE('',#554,0.196850393700787);
#189=CIRCLE('',#555,0.196850393700787);
#190=CIRCLE('',#557,0.127952755905512);
#191=CIRCLE('',#559,0.0944881889763779);
#192=CIRCLE('',#560,0.0944881889763779);
#193=CIRCLE('',#562,0.127952755905512);
#194=CIRCLE('',#565,0.114173228346457);
#195=CIRCLE('',#566,0.114173228346457);
#196=CIRCLE('',#575,0.196850393700787);
#197=CIRCLE('',#577,0.196850393700787);
#198=CIRCLE('',#579,0.196850393700787);
#199=CIRCLE('',#581,0.196850393700787);
#200=CIRCLE('',#583,0.196850393700787);
#201=CIRCLE('',#585,0.196850393700787);
#202=CIRCLE('',#590,0.196850393700787);
#203=CIRCLE('',#591,0.196850393700787);
#204=CIRCLE('',#592,0.0590551181102362);
#205=CIRCLE('',#593,0.151574803149606);
#206=CIRCLE('',#596,0.151574803149606);
#207=CIRCLE('',#602,0.0826771653543307);
#208=CIRCLE('',#603,0.0826771653543307);
#209=CIRCLE('',#605,0.110236220472441);
#210=CIRCLE('',#606,0.110236220472441);
#211=CIRCLE('',#609,0.196850393700787);
#212=CIRCLE('',#610,0.196850393700787);
#213=VERTEX_POINT('',#769);
#214=VERTEX_POINT('',#770);
#215=VERTEX_POINT('',#773);
#216=VERTEX_POINT('',#777);
#217=VERTEX_POINT('',#779);
#218=VERTEX_POINT('',#781);
#219=VERTEX_POINT('',#783);
#220=VERTEX_POINT('',#785);
#221=VERTEX_POINT('',#787);
#222=VERTEX_POINT('',#791);
#223=VERTEX_POINT('',#794);
#224=VERTEX_POINT('',#796);
#225=VERTEX_POINT('',#800);
#226=VERTEX_POINT('',#805);
#227=VERTEX_POINT('',#807);
#228=VERTEX_POINT('',#812);
#229=VERTEX_POINT('',#820);
#230=VERTEX_POINT('',#828);
#231=VERTEX_POINT('',#836);
#232=VERTEX_POINT('',#844);
#233=VERTEX_POINT('',#852);
#234=VERTEX_POINT('',#860);
#235=VERTEX_POINT('',#861);
#236=VERTEX_POINT('',#865);
#237=VERTEX_POINT('',#871);
#238=VERTEX_POINT('',#872);
#239=VERTEX_POINT('',#881);
#240=VERTEX_POINT('',#882);
#241=VERTEX_POINT('',#891);
#242=VERTEX_POINT('',#892);
#243=VERTEX_POINT('',#901);
#244=VERTEX_POINT('',#902);
#245=VERTEX_POINT('',#911);
#246=VERTEX_POINT('',#927);
#247=VERTEX_POINT('',#928);
#248=VERTEX_POINT('',#931);
#249=VERTEX_POINT('',#937);
#250=VERTEX_POINT('',#947);
#251=VERTEX_POINT('',#949);
#252=VERTEX_POINT('',#953);
#253=VERTEX_POINT('',#955);
#254=VERTEX_POINT('',#960);
#255=VERTEX_POINT('',#962);
#256=EDGE_CURVE('',#213,#214,#181,.T.);
#257=EDGE_CURVE('',#214,#213,#182,.T.);
#258=EDGE_CURVE('',#213,#215,#149,.T.);
#259=EDGE_CURVE('',#215,#215,#183,.T.);
#260=EDGE_CURVE('',#214,#216,#150,.T.);
#261=EDGE_CURVE('',#217,#216,#184,.T.);
#262=EDGE_CURVE('',#218,#217,#185,.T.);
#263=EDGE_CURVE('',#219,#218,#186,.T.);
#264=EDGE_CURVE('',#220,#219,#187,.T.);
#265=EDGE_CURVE('',#221,#220,#188,.T.);
#266=EDGE_CURVE('',#216,#221,#189,.T.);
#267=EDGE_CURVE('',#222,#222,#190,.T.);
#268=EDGE_CURVE('',#223,#223,#191,.T.);
#269=EDGE_CURVE('',#223,#224,#151,.T.);
#270=EDGE_CURVE('',#224,#224,#192,.T.);
#271=EDGE_CURVE('',#222,#225,#152,.T.);
#272=EDGE_CURVE('',#225,#225,#193,.T.);
#273=EDGE_CURVE('',#226,#226,#194,.T.);
#274=EDGE_CURVE('',#226,#227,#153,.T.);
#275=EDGE_CURVE('',#227,#227,#195,.T.);
#276=EDGE_CURVE('',#228,#221,#18,.T.);
#277=EDGE_CURVE('',#216,#228,#19,.T.);
#278=EDGE_CURVE('',#229,#220,#20,.T.);
#279=EDGE_CURVE('',#221,#229,#21,.T.);
#280=EDGE_CURVE('',#217,#230,#22,.T.);
#281=EDGE_CURVE('',#230,#216,#23,.T.);
#282=EDGE_CURVE('',#231,#219,#24,.T.);
#283=EDGE_CURVE('',#220,#231,#25,.T.);
#284=EDGE_CURVE('',#218,#232,#26,.T.);
#285=EDGE_CURVE('',#232,#217,#27,.T.);
#286=EDGE_CURVE('',#219,#233,#28,.T.);
#287=EDGE_CURVE('',#233,#218,#29,.T.);
#288=EDGE_CURVE('',#234,#235,#30,.T.);
#289=EDGE_CURVE('',#236,#234,#31,.T.);
#290=EDGE_CURVE('',#236,#235,#196,.T.);
#291=EDGE_CURVE('',#237,#238,#32,.T.);
#292=EDGE_CURVE('',#237,#236,#197,.T.);
#293=EDGE_CURVE('',#238,#236,#33,.T.);
#294=EDGE_CURVE('',#239,#240,#34,.T.);
#295=EDGE_CURVE('',#235,#239,#35,.T.);
#296=EDGE_CURVE('',#235,#240,#198,.T.);
#297=EDGE_CURVE('',#241,#242,#36,.T.);
#298=EDGE_CURVE('',#240,#241,#37,.T.);
#299=EDGE_CURVE('',#240,#242,#199,.T.);
#300=EDGE_CURVE('',#243,#244,#38,.T.);
#301=EDGE_CURVE('',#243,#237,#200,.T.);
#302=EDGE_CURVE('',#244,#237,#39,.T.);
#303=EDGE_CURVE('',#242,#245,#40,.T.);
#304=EDGE_CURVE('',#242,#243,#201,.T.);
#305=EDGE_CURVE('',#245,#243,#41,.T.);
#306=EDGE_CURVE('',#232,#239,#154,.T.);
#307=EDGE_CURVE('',#233,#241,#155,.T.);
#308=EDGE_CURVE('',#228,#238,#156,.T.);
#309=EDGE_CURVE('',#230,#234,#157,.T.);
#310=EDGE_CURVE('',#246,#247,#202,.T.);
#311=EDGE_CURVE('',#247,#246,#203,.T.);
#312=EDGE_CURVE('',#246,#248,#204,.T.);
#313=EDGE_CURVE('',#248,#248,#205,.T.);
#314=EDGE_CURVE('',#247,#236,#158,.T.);
#315=EDGE_CURVE('',#249,#249,#206,.T.);
#316=EDGE_CURVE('',#249,#248,#159,.T.);
#317=EDGE_CURVE('',#231,#245,#160,.T.);
#318=EDGE_CURVE('',#229,#244,#161,.T.);
#319=EDGE_CURVE('',#250,#250,#207,.T.);
#320=EDGE_CURVE('',#250,#251,#162,.T.);
#321=EDGE_CURVE('',#251,#251,#208,.T.);
#322=EDGE_CURVE('',#252,#252,#209,.T.);
#323=EDGE_CURVE('',#252,#253,#163,.T.);
#324=EDGE_CURVE('',#253,#253,#210,.T.);
#325=EDGE_CURVE('',#254,#254,#211,.T.);
#326=EDGE_CURVE('',#254,#255,#164,.T.);
#327=EDGE_CURVE('',#255,#255,#212,.T.);
#328=ORIENTED_EDGE('',*,*,#256,.T.);
#329=ORIENTED_EDGE('',*,*,#257,.T.);
#330=ORIENTED_EDGE('',*,*,#258,.T.);
#331=ORIENTED_EDGE('',*,*,#259,.T.);
#332=ORIENTED_EDGE('',*,*,#258,.F.);
#333=ORIENTED_EDGE('',*,*,#256,.F.);
#334=ORIENTED_EDGE('',*,*,#257,.F.);
#335=ORIENTED_EDGE('',*,*,#260,.T.);
#336=ORIENTED_EDGE('',*,*,#261,.F.);
#337=ORIENTED_EDGE('',*,*,#262,.F.);
#338=ORIENTED_EDGE('',*,*,#263,.F.);
#339=ORIENTED_EDGE('',*,*,#264,.F.);
#340=ORIENTED_EDGE('',*,*,#265,.F.);
#341=ORIENTED_EDGE('',*,*,#266,.F.);
#342=ORIENTED_EDGE('',*,*,#260,.F.);
#343=ORIENTED_EDGE('',*,*,#259,.F.);
#344=ORIENTED_EDGE('',*,*,#267,.T.);
#345=ORIENTED_EDGE('',*,*,#268,.F.);
#346=ORIENTED_EDGE('',*,*,#269,.T.);
#347=ORIENTED_EDGE('',*,*,#270,.F.);
#348=ORIENTED_EDGE('',*,*,#269,.F.);
#349=ORIENTED_EDGE('',*,*,#267,.F.);
#350=ORIENTED_EDGE('',*,*,#271,.T.);
#351=ORIENTED_EDGE('',*,*,#272,.F.);
#352=ORIENTED_EDGE('',*,*,#271,.F.);
#353=ORIENTED_EDGE('',*,*,#272,.T.);
#354=ORIENTED_EDGE('',*,*,#268,.T.);
#355=ORIENTED_EDGE('',*,*,#273,.F.);
#356=ORIENTED_EDGE('',*,*,#274,.T.);
#357=ORIENTED_EDGE('',*,*,#275,.F.);
#358=ORIENTED_EDGE('',*,*,#274,.F.);
#359=ORIENTED_EDGE('',*,*,#275,.T.);
#360=ORIENTED_EDGE('',*,*,#270,.T.);
#361=ORIENTED_EDGE('',*,*,#276,.F.);
#362=ORIENTED_EDGE('',*,*,#277,.F.);
#363=ORIENTED_EDGE('',*,*,#266,.T.);
#364=ORIENTED_EDGE('',*,*,#278,.F.);
#365=ORIENTED_EDGE('',*,*,#279,.F.);
#366=ORIENTED_EDGE('',*,*,#265,.T.);
#367=ORIENTED_EDGE('',*,*,#280,.F.);
#368=ORIENTED_EDGE('',*,*,#261,.T.);
#369=ORIENTED_EDGE('',*,*,#281,.F.);
#370=ORIENTED_EDGE('',*,*,#282,.F.);
#371=ORIENTED_EDGE('',*,*,#283,.F.);
#372=ORIENTED_EDGE('',*,*,#264,.T.);
#373=ORIENTED_EDGE('',*,*,#284,.F.);
#374=ORIENTED_EDGE('',*,*,#262,.T.);
#375=ORIENTED_EDGE('',*,*,#285,.F.);
#376=ORIENTED_EDGE('',*,*,#286,.F.);
#377=ORIENTED_EDGE('',*,*,#263,.T.);
#378=ORIENTED_EDGE('',*,*,#287,.F.);
#379=ORIENTED_EDGE('',*,*,#288,.F.);
#380=ORIENTED_EDGE('',*,*,#289,.F.);
#381=ORIENTED_EDGE('',*,*,#290,.T.);
#382=ORIENTED_EDGE('',*,*,#291,.F.);
#383=ORIENTED_EDGE('',*,*,#292,.T.);
#384=ORIENTED_EDGE('',*,*,#293,.F.);
#385=ORIENTED_EDGE('',*,*,#294,.F.);
#386=ORIENTED_EDGE('',*,*,#295,.F.);
#387=ORIENTED_EDGE('',*,*,#296,.T.);
#388=ORIENTED_EDGE('',*,*,#297,.F.);
#389=ORIENTED_EDGE('',*,*,#298,.F.);
#390=ORIENTED_EDGE('',*,*,#299,.T.);
#391=ORIENTED_EDGE('',*,*,#300,.F.);
#392=ORIENTED_EDGE('',*,*,#301,.T.);
#393=ORIENTED_EDGE('',*,*,#302,.F.);
#394=ORIENTED_EDGE('',*,*,#303,.F.);
#395=ORIENTED_EDGE('',*,*,#304,.T.);
#396=ORIENTED_EDGE('',*,*,#305,.F.);
#397=ORIENTED_EDGE('',*,*,#287,.T.);
#398=ORIENTED_EDGE('',*,*,#284,.T.);
#399=ORIENTED_EDGE('',*,*,#306,.T.);
#400=ORIENTED_EDGE('',*,*,#294,.T.);
#401=ORIENTED_EDGE('',*,*,#298,.T.);
#402=ORIENTED_EDGE('',*,*,#307,.F.);
#403=ORIENTED_EDGE('',*,*,#281,.T.);
#404=ORIENTED_EDGE('',*,*,#277,.T.);
#405=ORIENTED_EDGE('',*,*,#308,.T.);
#406=ORIENTED_EDGE('',*,*,#293,.T.);
#407=ORIENTED_EDGE('',*,*,#289,.T.);
#408=ORIENTED_EDGE('',*,*,#309,.F.);
#409=ORIENTED_EDGE('',*,*,#285,.T.);
#410=ORIENTED_EDGE('',*,*,#280,.T.);
#411=ORIENTED_EDGE('',*,*,#309,.T.);
#412=ORIENTED_EDGE('',*,*,#288,.T.);
#413=ORIENTED_EDGE('',*,*,#295,.T.);
#414=ORIENTED_EDGE('',*,*,#306,.F.);
#415=ORIENTED_EDGE('',*,*,#310,.T.);
#416=ORIENTED_EDGE('',*,*,#311,.T.);
#417=ORIENTED_EDGE('',*,*,#312,.T.);
#418=ORIENTED_EDGE('',*,*,#313,.T.);
#419=ORIENTED_EDGE('',*,*,#312,.F.);
#420=ORIENTED_EDGE('',*,*,#310,.F.);
#421=ORIENTED_EDGE('',*,*,#311,.F.);
#422=ORIENTED_EDGE('',*,*,#314,.T.);
#423=ORIENTED_EDGE('',*,*,#292,.F.);
#424=ORIENTED_EDGE('',*,*,#301,.F.);
#425=ORIENTED_EDGE('',*,*,#304,.F.);
#426=ORIENTED_EDGE('',*,*,#299,.F.);
#427=ORIENTED_EDGE('',*,*,#296,.F.);
#428=ORIENTED_EDGE('',*,*,#290,.F.);
#429=ORIENTED_EDGE('',*,*,#314,.F.);
#430=ORIENTED_EDGE('',*,*,#315,.F.);
#431=ORIENTED_EDGE('',*,*,#316,.T.);
#432=ORIENTED_EDGE('',*,*,#313,.F.);
#433=ORIENTED_EDGE('',*,*,#316,.F.);
#434=ORIENTED_EDGE('',*,*,#315,.T.);
#435=ORIENTED_EDGE('',*,*,#273,.T.);
#436=ORIENTED_EDGE('',*,*,#286,.T.);
#437=ORIENTED_EDGE('',*,*,#307,.T.);
#438=ORIENTED_EDGE('',*,*,#297,.T.);
#439=ORIENTED_EDGE('',*,*,#303,.T.);
#440=ORIENTED_EDGE('',*,*,#317,.F.);
#441=ORIENTED_EDGE('',*,*,#282,.T.);
#442=ORIENTED_EDGE('',*,*,#283,.T.);
#443=ORIENTED_EDGE('',*,*,#317,.T.);
#444=ORIENTED_EDGE('',*,*,#305,.T.);
#445=ORIENTED_EDGE('',*,*,#300,.T.);
#446=ORIENTED_EDGE('',*,*,#318,.F.);
#447=ORIENTED_EDGE('',*,*,#278,.T.);
#448=ORIENTED_EDGE('',*,*,#279,.T.);
#449=ORIENTED_EDGE('',*,*,#318,.T.);
#450=ORIENTED_EDGE('',*,*,#302,.T.);
#451=ORIENTED_EDGE('',*,*,#291,.T.);
#452=ORIENTED_EDGE('',*,*,#308,.F.);
#453=ORIENTED_EDGE('',*,*,#276,.T.);
#454=ORIENTED_EDGE('',*,*,#319,.F.);
#455=ORIENTED_EDGE('',*,*,#320,.T.);
#456=ORIENTED_EDGE('',*,*,#321,.F.);
#457=ORIENTED_EDGE('',*,*,#320,.F.);
#458=ORIENTED_EDGE('',*,*,#322,.F.);
#459=ORIENTED_EDGE('',*,*,#323,.T.);
#460=ORIENTED_EDGE('',*,*,#324,.F.);
#461=ORIENTED_EDGE('',*,*,#323,.F.);
#462=ORIENTED_EDGE('',*,*,#322,.T.);
#463=ORIENTED_EDGE('',*,*,#321,.T.);
#464=ORIENTED_EDGE('',*,*,#325,.F.);
#465=ORIENTED_EDGE('',*,*,#326,.T.);
#466=ORIENTED_EDGE('',*,*,#327,.T.);
#467=ORIENTED_EDGE('',*,*,#326,.F.);
#468=ORIENTED_EDGE('',*,*,#325,.T.);
#469=ORIENTED_EDGE('',*,*,#319,.T.);
#470=ORIENTED_EDGE('',*,*,#327,.F.);
#471=ORIENTED_EDGE('',*,*,#324,.T.);
#472=CONICAL_SURFACE('',#545,0.169413682531906,0.801018860202798);
#473=CONICAL_SURFACE('',#549,0.196850393700787,0.0312413936106985);
#474=CONICAL_SURFACE('',#568,0.212076824643627,0.785398163397448);
#475=CONICAL_SURFACE('',#569,0.212076824643627,0.785398163397448);
#476=CONICAL_SURFACE('',#570,0.212076824643627,0.785398163397448);
#477=CONICAL_SURFACE('',#571,0.212076824643627,0.785398163397448);
#478=CONICAL_SURFACE('',#572,0.212076824643627,0.785398163397448);
#479=CONICAL_SURFACE('',#573,0.212076824643627,0.785398163397448);
#480=CONICAL_SURFACE('',#574,0.212076824643627,0.785398163397449);
#481=CONICAL_SURFACE('',#576,0.212076824643627,0.785398163397449);
#482=CONICAL_SURFACE('',#578,0.212076824643627,0.785398163397449);
#483=CONICAL_SURFACE('',#580,0.212076824643627,0.785398163397449);
#484=CONICAL_SURFACE('',#582,0.212076824643627,0.785398163397449);
#485=CONICAL_SURFACE('',#584,0.212076824643627,0.785398163397449);
#486=ADVANCED_FACE('',(#70),#472,.T.);
#487=ADVANCED_FACE('',(#71),#473,.T.);
#488=ADVANCED_FACE('',(#72,#50),#57,.F.);
#489=ADVANCED_FACE('',(#73),#42,.F.);
#490=ADVANCED_FACE('',(#74),#43,.F.);
#491=ADVANCED_FACE('',(#75,#51),#58,.T.);
#492=ADVANCED_FACE('',(#76),#44,.F.);
#493=ADVANCED_FACE('',(#77,#52),#59,.T.);
#494=ADVANCED_FACE('',(#78),#474,.T.);
#495=ADVANCED_FACE('',(#79),#475,.T.);
#496=ADVANCED_FACE('',(#80),#476,.T.);
#497=ADVANCED_FACE('',(#81),#477,.T.);
#498=ADVANCED_FACE('',(#82),#478,.T.);
#499=ADVANCED_FACE('',(#83),#479,.T.);
#500=ADVANCED_FACE('',(#84),#480,.T.);
#501=ADVANCED_FACE('',(#85),#481,.T.);
#502=ADVANCED_FACE('',(#86),#482,.T.);
#503=ADVANCED_FACE('',(#87),#483,.T.);
#504=ADVANCED_FACE('',(#88),#484,.T.);
#505=ADVANCED_FACE('',(#89),#485,.T.);
#506=ADVANCED_FACE('',(#90),#60,.T.);
#507=ADVANCED_FACE('',(#91),#61,.T.);
#508=ADVANCED_FACE('',(#92),#62,.T.);
#509=ADVANCED_FACE('',(#93),#17,.T.);
#510=ADVANCED_FACE('',(#94),#45,.T.);
#511=ADVANCED_FACE('',(#95),#46,.T.);
#512=ADVANCED_FACE('',(#96,#53),#63,.T.);
#513=ADVANCED_FACE('',(#97),#64,.T.);
#514=ADVANCED_FACE('',(#98),#65,.T.);
#515=ADVANCED_FACE('',(#99),#66,.T.);
#516=ADVANCED_FACE('',(#100),#47,.F.);
#517=ADVANCED_FACE('',(#101),#48,.T.);
#518=ADVANCED_FACE('',(#102,#54),#67,.F.);
#519=ADVANCED_FACE('',(#103),#49,.T.);
#520=ADVANCED_FACE('',(#104,#55),#68,.T.);
#521=ADVANCED_FACE('',(#105,#56),#69,.F.);
#522=CLOSED_SHELL('',(#486,#487,#488,#489,#490,#491,#492,#493,#494,#495,
#496,#497,#498,#499,#500,#501,#502,#503,#504,#505,#506,#507,#508,#509,#510,
#511,#512,#513,#514,#515));
#523=CLOSED_SHELL('',(#516,#517,#518,#519,#520,#521));
#524=DERIVED_UNIT_ELEMENT(#526,1.);
#525=DERIVED_UNIT_ELEMENT(#975,-3.);
#526=(
CONVERSION_BASED_UNIT('gram',#528)
MASS_UNIT()
NAMED_UNIT(#972)
);
#527=(
MASS_UNIT()
NAMED_UNIT(*)
SI_UNIT(.KILO.,.GRAM.)
);
#528=MASS_MEASURE_WITH_UNIT(MASS_MEASURE(0.001),#527);
#529=DERIVED_UNIT((#524,#525));
#530=MEASURE_REPRESENTATION_ITEM('density measure',
POSITIVE_RATIO_MEASURE(8.),#529);
#531=PROPERTY_DEFINITION_REPRESENTATION(#536,#533);
#532=PROPERTY_DEFINITION_REPRESENTATION(#537,#534);
#533=REPRESENTATION('material name',(#535),#969);
#534=REPRESENTATION('density',(#530),#969);
#535=DESCRIPTIVE_REPRESENTATION_ITEM('Stainless Steel',
'Stainless Steel');
#536=PROPERTY_DEFINITION('material property','material name',#983);
#537=PROPERTY_DEFINITION('material property','density of part',#983);
#538=DATE_TIME_ROLE('creation_date');
#539=APPLIED_DATE_AND_TIME_ASSIGNMENT(#540,#538,(#983));
#540=DATE_AND_TIME(#541,#542);
#541=CALENDAR_DATE(2025,11,11);
#542=LOCAL_TIME(0,0,0.,#543);
#543=COORDINATED_UNIVERSAL_TIME_OFFSET(0,0,.BEHIND.);
#544=AXIS2_PLACEMENT_3D('',#767,#613,#614);
#545=AXIS2_PLACEMENT_3D('',#768,#615,#616);
#546=AXIS2_PLACEMENT_3D('',#771,#617,#618);
#547=AXIS2_PLACEMENT_3D('',#772,#619,#620);
#548=AXIS2_PLACEMENT_3D('',#775,#622,#623);
#549=AXIS2_PLACEMENT_3D('',#776,#624,#625);
#550=AXIS2_PLACEMENT_3D('',#780,#627,#628);
#551=AXIS2_PLACEMENT_3D('',#782,#629,#630);
#552=AXIS2_PLACEMENT_3D('',#784,#631,#632);
#553=AXIS2_PLACEMENT_3D('',#786,#633,#634);
#554=AXIS2_PLACEMENT_3D('',#788,#635,#636);
#555=AXIS2_PLACEMENT_3D('',#789,#637,#638);
#556=AXIS2_PLACEMENT_3D('',#790,#639,#640);
#557=AXIS2_PLACEMENT_3D('',#792,#641,#642);
#558=AXIS2_PLACEMENT_3D('',#793,#643,#644);
#559=AXIS2_PLACEMENT_3D('',#795,#645,#646);
#560=AXIS2_PLACEMENT_3D('',#798,#648,#649);
#561=AXIS2_PLACEMENT_3D('',#799,#650,#651);
#562=AXIS2_PLACEMENT_3D('',#802,#653,#654);
#563=AXIS2_PLACEMENT_3D('',#803,#655,#656);
#564=AXIS2_PLACEMENT_3D('',#804,#657,#658);
#565=AXIS2_PLACEMENT_3D('',#806,#659,#660);
#566=AXIS2_PLACEMENT_3D('',#809,#662,#663);
#567=AXIS2_PLACEMENT_3D('',#810,#664,#665);
#568=AXIS2_PLACEMENT_3D('',#811,#666,#667);
#569=AXIS2_PLACEMENT_3D('',#819,#668,#669);
#570=AXIS2_PLACEMENT_3D('',#827,#670,#671);
#571=AXIS2_PLACEMENT_3D('',#835,#672,#673);
#572=AXIS2_PLACEMENT_3D('',#843,#674,#675);
#573=AXIS2_PLACEMENT_3D('',#851,#676,#677);
#574=AXIS2_PLACEMENT_3D('',#859,#678,#679);
#575=AXIS2_PLACEMENT_3D('',#869,#680,#681);
#576=AXIS2_PLACEMENT_3D('',#870,#682,#683);
#577=AXIS2_PLACEMENT_3D('',#876,#684,#685);
#578=AXIS2_PLACEMENT_3D('',#880,#686,#687);
#579=AXIS2_PLACEMENT_3D('',#889,#688,#689);
#580=AXIS2_PLACEMENT_3D('',#890,#690,#691);
#581=AXIS2_PLACEMENT_3D('',#899,#692,#693);
#582=AXIS2_PLACEMENT_3D('',#900,#694,#695);
#583=AXIS2_PLACEMENT_3D('',#906,#696,#697);
#584=AXIS2_PLACEMENT_3D('',#910,#698,#699);
#585=AXIS2_PLACEMENT_3D('',#915,#700,#701);
#586=AXIS2_PLACEMENT_3D('',#919,#702,#703);
#587=AXIS2_PLACEMENT_3D('',#922,#706,#707);
#588=AXIS2_PLACEMENT_3D('',#925,#710,#711);
#589=AXIS2_PLACEMENT_3D('',#926,#712,#713);
#590=AXIS2_PLACEMENT_3D('',#929,#714,#715);
#591=AXIS2_PLACEMENT_3D('',#930,#716,#717);
#592=AXIS2_PLACEMENT_3D('',#932,#718,#719);
#593=AXIS2_PLACEMENT_3D('',#933,#720,#721);
#594=AXIS2_PLACEMENT_3D('',#934,#722,#723);
#595=AXIS2_PLACEMENT_3D('',#936,#725,#726);
#596=AXIS2_PLACEMENT_3D('',#938,#727,#728);
#597=AXIS2_PLACEMENT_3D('',#940,#730,#731);
#598=AXIS2_PLACEMENT_3D('',#941,#732,#733);
#599=AXIS2_PLACEMENT_3D('',#943,#735,#736);
#600=AXIS2_PLACEMENT_3D('',#945,#738,#739);
#601=AXIS2_PLACEMENT_3D('',#946,#740,#741);
#602=AXIS2_PLACEMENT_3D('',#948,#742,#743);
#603=AXIS2_PLACEMENT_3D('',#951,#745,#746);
#604=AXIS2_PLACEMENT_3D('',#952,#747,#748);
#605=AXIS2_PLACEMENT_3D('',#954,#749,#750);
#606=AXIS2_PLACEMENT_3D('',#957,#752,#753);
#607=AXIS2_PLACEMENT_3D('',#958,#754,#755);
#608=AXIS2_PLACEMENT_3D('',#959,#756,#757);
#609=AXIS2_PLACEMENT_3D('',#961,#758,#759);
#610=AXIS2_PLACEMENT_3D('',#964,#761,#762);
#611=AXIS2_PLACEMENT_3D('',#965,#763,#764);
#612=AXIS2_PLACEMENT_3D('',#966,#765,#766);
#613=DIRECTION('axis',(0.,0.,1.));
#614=DIRECTION('refdir',(1.,0.,0.));
#615=DIRECTION('center_axis',(0.,1.,0.));
#616=DIRECTION('ref_axis',(1.,0.,6.45012363307732E-17));
#617=DIRECTION('center_axis',(0.,-1.,0.));
#618=DIRECTION('ref_axis',(1.,0.,1.15198819723254E-16));
#619=DIRECTION('center_axis',(0.,-1.,0.));
#620=DIRECTION('ref_axis',(1.,0.,1.15198819723254E-16));
#621=DIRECTION('',(0.718065565180808,-0.6959754622841,-4.16215528769436E-17));
#622=DIRECTION('center_axis',(0.,1.,0.));
#623=DIRECTION('ref_axis',(1.,0.,0.));
#624=DIRECTION('center_axis',(0.,1.,0.));
#625=DIRECTION('ref_axis',(-1.,0.,0.));
#626=DIRECTION('',(0.0312363117968641,0.999512027354013,3.82534492591983E-18));
#627=DIRECTION('center_axis',(0.,1.,0.));
#628=DIRECTION('ref_axis',(-1.,0.,0.));
#629=DIRECTION('center_axis',(0.,1.,0.));
#630=DIRECTION('ref_axis',(-1.,0.,0.));
#631=DIRECTION('center_axis',(0.,1.,0.));
#632=DIRECTION('ref_axis',(-1.,0.,0.));
#633=DIRECTION('center_axis',(0.,1.,0.));
#634=DIRECTION('ref_axis',(-1.,0.,0.));
#635=DIRECTION('center_axis',(0.,1.,0.));
#636=DIRECTION('ref_axis',(-1.,0.,0.));
#637=DIRECTION('center_axis',(0.,1.,0.));
#638=DIRECTION('ref_axis',(-1.,0.,0.));
#639=DIRECTION('center_axis',(0.,1.,0.));
#640=DIRECTION('ref_axis',(0.,0.,1.));
#641=DIRECTION('center_axis',(0.,1.,0.));
#642=DIRECTION('ref_axis',(1.,0.,0.));
#643=DIRECTION('center_axis',(0.,-1.,0.));
#644=DIRECTION('ref_axis',(1.,0.,0.));
#645=DIRECTION('center_axis',(0.,1.,0.));
#646=DIRECTION('ref_axis',(1.,0.,0.));
#647=DIRECTION('',(0.,1.,0.));
#648=DIRECTION('center_axis',(0.,-1.,0.));
#649=DIRECTION('ref_axis',(1.,0.,0.));
#650=DIRECTION('center_axis',(0.,-1.,0.));
#651=DIRECTION('ref_axis',(1.,0.,0.));
#652=DIRECTION('',(0.,1.,0.));
#653=DIRECTION('center_axis',(0.,-1.,0.));
#654=DIRECTION('ref_axis',(1.,0.,0.));
#655=DIRECTION('center_axis',(0.,-1.,0.));
#656=DIRECTION('ref_axis',(1.,0.,0.));
#657=DIRECTION('center_axis',(0.,1.,0.));
#658=DIRECTION('ref_axis',(1.,0.,0.));
#659=DIRECTION('center_axis',(0.,-1.,0.));
#660=DIRECTION('ref_axis',(1.,0.,0.));
#661=DIRECTION('',(0.,-1.,0.));
#662=DIRECTION('center_axis',(0.,1.,0.));
#663=DIRECTION('ref_axis',(1.,0.,0.));
#664=DIRECTION('center_axis',(0.,1.,0.));
#665=DIRECTION('ref_axis',(1.,0.,0.));
#666=DIRECTION('center_axis',(1.70173689060492E-16,1.,-9.8249825188067E-17));
#667=DIRECTION('ref_axis',(0.866025403784438,-2.08064131757889E-16,-0.5));
#668=DIRECTION('center_axis',(1.70173689060492E-16,1.,-9.8249825188067E-17));
#669=DIRECTION('ref_axis',(0.866025403784438,-2.08064131757889E-16,-0.5));
#670=DIRECTION('center_axis',(1.70173689060492E-16,1.,-9.8249825188067E-17));
#671=DIRECTION('ref_axis',(0.866025403784438,-2.08064131757889E-16,-0.5));
#672=DIRECTION('center_axis',(1.70173689060492E-16,1.,-9.8249825188067E-17));
#673=DIRECTION('ref_axis',(0.866025403784438,-2.08064131757889E-16,-0.5));
#674=DIRECTION('center_axis',(1.70173689060492E-16,1.,-9.8249825188067E-17));
#675=DIRECTION('ref_axis',(0.866025403784438,-2.08064131757889E-16,-0.5));
#676=DIRECTION('center_axis',(1.70173689060492E-16,1.,-9.8249825188067E-17));
#677=DIRECTION('ref_axis',(-0.866025403784438,1.84935168994379E-16,0.5));
#678=DIRECTION('center_axis',(-1.70173689060492E-16,-1.,9.8249825188067E-17));
#679=DIRECTION('ref_axis',(0.866025403784438,-1.92296268638357E-16,-0.5));
#680=DIRECTION('center_axis',(0.,-1.,0.));
#681=DIRECTION('ref_axis',(-1.,0.,0.));
#682=DIRECTION('center_axis',(-1.70173689060492E-16,-1.,9.8249825188067E-17));
#683=DIRECTION('ref_axis',(0.866025403784438,-1.92296268638357E-16,-0.5));
#684=DIRECTION('center_axis',(0.,-1.,0.));
#685=DIRECTION('ref_axis',(-1.,0.,0.));
#686=DIRECTION('center_axis',(-1.70173689060492E-16,-1.,9.8249825188067E-17));
#687=DIRECTION('ref_axis',(0.866025403784438,-1.92296268638357E-16,-0.5));
#688=DIRECTION('center_axis',(0.,-1.,0.));
#689=DIRECTION('ref_axis',(-1.,0.,0.));
#690=DIRECTION('center_axis',(-1.70173689060492E-16,-1.,9.8249825188067E-17));
#691=DIRECTION('ref_axis',(-0.866025403784439,2.00703032113911E-16,0.5));
#692=DIRECTION('center_axis',(0.,-1.,0.));
#693=DIRECTION('ref_axis',(-1.,0.,0.));
#694=DIRECTION('center_axis',(-1.70173689060492E-16,-1.,9.8249825188067E-17));
#695=DIRECTION('ref_axis',(0.866025403784438,-1.92296268638357E-16,-0.5));
#696=DIRECTION('center_axis',(0.,-1.,0.));
#697=DIRECTION('ref_axis',(-1.,0.,0.));
#698=DIRECTION('center_axis',(-1.70173689060492E-16,-1.,9.8249825188067E-17));
#699=DIRECTION('ref_axis',(0.866025403784438,-1.92296268638357E-16,-0.5));
#700=DIRECTION('center_axis',(0.,-1.,0.));
#701=DIRECTION('ref_axis',(-1.,0.,0.));
#702=DIRECTION('center_axis',(-0.5,0.,0.866025403784439));
#703=DIRECTION('ref_axis',(0.866025403784439,0.,0.5));
#704=DIRECTION('',(0.,1.,0.));
#705=DIRECTION('',(0.,1.,0.));
#706=DIRECTION('center_axis',(1.,0.,-3.84592537276713E-16));
#707=DIRECTION('ref_axis',(-3.84592537276713E-16,0.,-1.));
#708=DIRECTION('',(0.,1.,0.));
#709=DIRECTION('',(0.,1.,0.));
#710=DIRECTION('center_axis',(0.5,0.,0.866025403784438));
#711=DIRECTION('ref_axis',(0.866025403784438,0.,-0.5));
#712=DIRECTION('center_axis',(0.,-1.,0.));
#713=DIRECTION('ref_axis',(1.,0.,2.8199664825479E-16));
#714=DIRECTION('center_axis',(0.,1.,0.));
#715=DIRECTION('ref_axis',(1.,0.,3.33066907387547E-16));
#716=DIRECTION('center_axis',(0.,1.,0.));
#717=DIRECTION('ref_axis',(1.,0.,3.33066907387547E-16));
#718=DIRECTION('center_axis',(2.22044604925031E-16,0.,-1.));
#719=DIRECTION('ref_axis',(-1.,0.,-2.22044604925031E-16));
#720=DIRECTION('center_axis',(0.,-1.,0.));
#721=DIRECTION('ref_axis',(1.,0.,0.));
#722=DIRECTION('center_axis',(0.,1.,0.));
#723=DIRECTION('ref_axis',(-1.,0.,0.));
#724=DIRECTION('',(0.,-1.,0.));
#725=DIRECTION('center_axis',(0.,1.,0.));
#726=DIRECTION('ref_axis',(1.,0.,0.));
#727=DIRECTION('center_axis',(0.,1.,0.));
#728=DIRECTION('ref_axis',(1.,0.,0.));
#729=DIRECTION('',(0.,-1.,0.));
#730=DIRECTION('center_axis',(0.,1.,0.));
#731=DIRECTION('ref_axis',(0.,0.,1.));
#732=DIRECTION('center_axis',(-1.,0.,1.92296268638357E-16));
#733=DIRECTION('ref_axis',(1.92296268638357E-16,0.,1.));
#734=DIRECTION('',(0.,1.,0.));
#735=DIRECTION('center_axis',(-0.5,0.,-0.866025403784439));
#736=DIRECTION('ref_axis',(-0.866025403784439,0.,0.5));
#737=DIRECTION('',(0.,1.,0.));
#738=DIRECTION('center_axis',(0.499999999999999,0.,-0.866025403784439));
#739=DIRECTION('ref_axis',(-0.866025403784439,0.,-0.499999999999999));
#740=DIRECTION('center_axis',(0.,1.,0.));
#741=DIRECTION('ref_axis',(1.,0.,0.));
#742=DIRECTION('center_axis',(0.,-1.,0.));
#743=DIRECTION('ref_axis',(1.,0.,0.));
#744=DIRECTION('',(0.,-1.,0.));
#745=DIRECTION('center_axis',(0.,1.,0.));
#746=DIRECTION('ref_axis',(1.,0.,0.));
#747=DIRECTION('center_axis',(0.,-1.,0.));
#748=DIRECTION('ref_axis',(1.,0.,0.));
#749=DIRECTION('center_axis',(0.,-1.,0.));
#750=DIRECTION('ref_axis',(1.,0.,0.));
#751=DIRECTION('',(0.,1.,0.));
#752=DIRECTION('center_axis',(0.,1.,0.));
#753=DIRECTION('ref_axis',(1.,0.,0.));
#754=DIRECTION('center_axis',(0.,1.,0.));
#755=DIRECTION('ref_axis',(0.,0.,1.));
#756=DIRECTION('center_axis',(0.,1.,0.));
#757=DIRECTION('ref_axis',(1.,0.,0.));
#758=DIRECTION('center_axis',(0.,1.,0.));
#759=DIRECTION('ref_axis',(1.,0.,0.));
#760=DIRECTION('',(0.,-1.,0.));
#761=DIRECTION('center_axis',(0.,1.,0.));
#762=DIRECTION('ref_axis',(1.,0.,0.));
#763=DIRECTION('center_axis',(0.,1.,0.));
#764=DIRECTION('ref_axis',(0.,0.,1.));
#765=DIRECTION('center_axis',(0.,1.,0.));
#766=DIRECTION('ref_axis',(0.,0.,1.));
#767=CARTESIAN_POINT('',(0.,0.,0.));
#768=CARTESIAN_POINT('Origin',(-0.196850393700787,-0.24804110182374,-0.113651627793233));
#769=CARTESIAN_POINT('',(-0.386564003630269,-0.228365668214409,-0.113651627793233));
#770=CARTESIAN_POINT('',(-0.00713678377130508,-0.228365668214409,-0.113651627793233));
#771=CARTESIAN_POINT('Origin',(-0.196850393700787,-0.228365668214409,-0.113651627793233));
#772=CARTESIAN_POINT('Origin',(-0.196850393700787,-0.228365668214409,-0.113651627793233));
#773=CARTESIAN_POINT('',(-0.345964148835117,-0.267716535433071,-0.113651627793233));
#774=CARTESIAN_POINT('',(-0.366264076232693,-0.24804110182374,-0.113651627793233));
#775=CARTESIAN_POINT('Origin',(-0.196850393700787,-0.267716535433071,-0.113651627793233));
#776=CARTESIAN_POINT('Origin',(-0.196850393700787,0.,-0.113651627793233));
#777=CARTESIAN_POINT('',(-4.37095678986282E-17,0.,-0.113651627793233));
#778=CARTESIAN_POINT('',(1.31128703695885E-16,0.,-0.113651627793233));
#779=CARTESIAN_POINT('',(-0.0984251968503936,0.,0.0568258138966167));
#780=CARTESIAN_POINT('Origin',(-0.196850393700787,0.,-0.113651627793233));
#781=CARTESIAN_POINT('',(-0.295275590551181,0.,0.0568258138966167));
#782=CARTESIAN_POINT('Origin',(-0.196850393700787,0.,-0.113651627793233));
#783=CARTESIAN_POINT('',(-0.393700787401575,0.,-0.113651627793233));
#784=CARTESIAN_POINT('Origin',(-0.196850393700787,0.,-0.113651627793233));
#785=CARTESIAN_POINT('',(-0.295275590551181,0.,-0.284129069483083));
#786=CARTESIAN_POINT('Origin',(-0.196850393700787,0.,-0.113651627793233));
#787=CARTESIAN_POINT('',(-0.0984251968503938,0.,-0.284129069483083));
#788=CARTESIAN_POINT('Origin',(-0.196850393700787,0.,-0.113651627793233));
#789=CARTESIAN_POINT('Origin',(-0.196850393700787,0.,-0.113651627793233));
#790=CARTESIAN_POINT('Origin',(-0.196850393700787,-0.267716535433071,-0.113651627793233));
#791=CARTESIAN_POINT('',(-0.324803149606299,-0.267716535433071,-0.113651627793233));
#792=CARTESIAN_POINT('Origin',(-0.196850393700787,-0.267716535433071,-0.113651627793233));
#793=CARTESIAN_POINT('Origin',(-0.196850393700787,0.616083274405602,-0.113651627793233));
#794=CARTESIAN_POINT('',(-0.291338582677165,-0.110236220472441,-0.113651627793233));
#795=CARTESIAN_POINT('Origin',(-0.196850393700787,-0.110236220472441,-0.113651627793233));
#796=CARTESIAN_POINT('',(-0.291338582677165,0.167322834645669,-0.113651627793233));
#797=CARTESIAN_POINT('',(-0.291338582677165,0.616083274405602,-0.113651627793233));
#798=CARTESIAN_POINT('Origin',(-0.196850393700787,0.167322834645669,-0.113651627793233));
#799=CARTESIAN_POINT('Origin',(-0.196850393700787,-0.188976377952756,-0.113651627793233));
#800=CARTESIAN_POINT('',(-0.324803149606299,-0.110236220472441,-0.113651627793233));
#801=CARTESIAN_POINT('',(-0.324803149606299,-0.188976377952756,-0.113651627793233));
#802=CARTESIAN_POINT('Origin',(-0.196850393700787,-0.110236220472441,-0.113651627793233));
#803=CARTESIAN_POINT('Origin',(-0.196850393700787,-0.110236220472441,-0.113651627793233));
#804=CARTESIAN_POINT('Origin',(-0.196850393700787,0.273622047244095,-0.113651627793233));
#805=CARTESIAN_POINT('',(-0.311023622047244,0.37992125984252,-0.113651627793233));
#806=CARTESIAN_POINT('Origin',(-0.196850393700787,0.37992125984252,-0.113651627793233));
#807=CARTESIAN_POINT('',(-0.311023622047244,0.167322834645669,-0.113651627793233));
#808=CARTESIAN_POINT('',(-0.311023622047244,0.273622047244095,-0.113651627793233));
#809=CARTESIAN_POINT('Origin',(-0.196850393700787,0.167322834645669,-0.113651627793233));
#810=CARTESIAN_POINT('Origin',(-0.196850393700787,0.167322834645669,-0.113651627793233));
#811=CARTESIAN_POINT('Origin',(-0.196850393700787,0.0152264309428395,-0.113651627793233));
#812=CARTESIAN_POINT('',(-1.52983487645199E-16,0.030452861885679,-0.227303255586467));
#813=CARTESIAN_POINT('Ctrl Pts',(-3.55140239176354E-17,0.0304528618856791,
-0.227303255586467));
#814=CARTESIAN_POINT('Ctrl Pts',(-0.0527459040218747,-3.34309898224664E-16,
-0.257756117472146));
#815=CARTESIAN_POINT('Ctrl Pts',(-0.0984251968503937,-3.16894367265055E-16,
-0.284129069483083));
#816=CARTESIAN_POINT('Ctrl Pts',(-5.46369598732853E-17,-3.25089911246047E-16,
-0.113651627793233));
#817=CARTESIAN_POINT('Ctrl Pts',(-7.21907929383477E-17,-3.23382506250007E-16,
-0.166397531815108));
#818=CARTESIAN_POINT('Ctrl Pts',(-9.28828317845849E-17,0.0304528618856791,
-0.227303255586467));
#819=CARTESIAN_POINT('Origin',(-0.196850393700787,0.0152264309428395,-0.113651627793233));
#820=CARTESIAN_POINT('',(-0.196850393700787,0.0304528618856791,-0.3409548833797));
#821=CARTESIAN_POINT('Ctrl Pts',(-0.196850393700787,0.0304528618856791,
-0.3409548833797));
#822=CARTESIAN_POINT('Ctrl Pts',(-0.249596297722662,-2.94698102316532E-16,
-0.31050202149402));
#823=CARTESIAN_POINT('Ctrl Pts',(-0.295275590551181,-2.84112191341083E-16,
-0.284129069483083));
#824=CARTESIAN_POINT('Ctrl Pts',(-0.0984251968503937,-3.16894367265055E-16,
-0.284129069483083));
#825=CARTESIAN_POINT('Ctrl Pts',(-0.144104489678913,-3.42505442205657E-16,
-0.31050202149402));
#826=CARTESIAN_POINT('Ctrl Pts',(-0.196850393700787,0.0304528618856792,
-0.3409548833797));
#827=CARTESIAN_POINT('Origin',(-0.196850393700787,0.0152264309428395,-0.113651627793233));
#828=CARTESIAN_POINT('',(-3.27821759239712E-17,0.0304528618856791,2.18547839493141E-17));
#829=CARTESIAN_POINT('Ctrl Pts',(-0.0984251968503936,-2.67721103379098E-16,
0.0568258138966167));
#830=CARTESIAN_POINT('Ctrl Pts',(-0.0527459040218744,-2.64989255385434E-16,
0.0304528618856794));
#831=CARTESIAN_POINT('Ctrl Pts',(3.27821759239712E-17,0.0304528618856791,
0.));
#832=CARTESIAN_POINT('Ctrl Pts',(0.,0.0304528618856792,1.20201311721228E-16));
#833=CARTESIAN_POINT('Ctrl Pts',(-2.88875828272301E-17,-3.39773594211993E-16,
-0.0609057237713588));
#834=CARTESIAN_POINT('Ctrl Pts',(-5.46369598732853E-17,-3.25089911246047E-16,
-0.113651627793233));
#835=CARTESIAN_POINT('Origin',(-0.196850393700787,0.0152264309428395,-0.113651627793233));
#836=CARTESIAN_POINT('',(-0.393700787401574,0.0304528618856791,-0.227303255586466));
#837=CARTESIAN_POINT('Ctrl Pts',(-0.393700787401574,0.0304528618856791,
-0.227303255586466));
#838=CARTESIAN_POINT('Ctrl Pts',(-0.393700787401574,-1.8405825857313E-16,
-0.166397531815108));
#839=CARTESIAN_POINT('Ctrl Pts',(-0.393700787401574,-1.72106423600849E-16,
-0.113651627793233));
#840=CARTESIAN_POINT('Ctrl Pts',(-0.295275590551181,-2.84112191341083E-16,
-0.284129069483083));
#841=CARTESIAN_POINT('Ctrl Pts',(-0.3409548833797,-2.73867761364842E-16,
-0.257756117472146));
#842=CARTESIAN_POINT('Ctrl Pts',(-0.393700787401574,0.0304528618856792,
-0.227303255586466));
#843=CARTESIAN_POINT('Origin',(-0.196850393700787,0.0152264309428395,-0.113651627793233));
#844=CARTESIAN_POINT('',(-0.196850393700787,0.0304528618856791,0.113651627793233));
#845=CARTESIAN_POINT('Ctrl Pts',(-0.295275590551181,-2.45866319429784E-16,
0.0568258138966168));
#846=CARTESIAN_POINT('Ctrl Pts',(-0.249596297722662,-2.58159635401273E-16,
0.083198765907554));
#847=CARTESIAN_POINT('Ctrl Pts',(-0.196850393700787,0.0304528618856791,
0.113651627793233));
#848=CARTESIAN_POINT('Ctrl Pts',(-0.196850393700787,0.0304528618856792,
0.113651627793233));
#849=CARTESIAN_POINT('Ctrl Pts',(-0.144104489678913,-2.52695939413944E-16,
0.0831987659075541));
#850=CARTESIAN_POINT('Ctrl Pts',(-0.0984251968503936,-2.67721103379098E-16,
0.0568258138966167));
#851=CARTESIAN_POINT('Origin',(-0.196850393700787,0.0152264309428395,-0.113651627793233));
#852=CARTESIAN_POINT('',(-0.393700787401574,0.0304528618856791,2.18547839493141E-17));
#853=CARTESIAN_POINT('Ctrl Pts',(-0.393700787401574,-1.72106423600849E-16,
-0.113651627793233));
#854=CARTESIAN_POINT('Ctrl Pts',(-0.393700787401574,-1.73813828596889E-16,
-0.0609057237713587));
#855=CARTESIAN_POINT('Ctrl Pts',(-0.393700787401574,0.0304528618856791,
9.56146797782492E-18));
#856=CARTESIAN_POINT('Ctrl Pts',(-0.393700787401574,0.0304528618856792,
1.32494627692717E-16));
#857=CARTESIAN_POINT('Ctrl Pts',(-0.3409548833797,-2.5337890141236E-16,
0.0304528618856795));
#858=CARTESIAN_POINT('Ctrl Pts',(-0.295275590551181,-2.45866319429784E-16,
0.0568258138966168));
#859=CARTESIAN_POINT('Origin',(-0.196850393700787,0.20721451393905,-0.113651627793233));
#860=CARTESIAN_POINT('',(-6.55643518479423E-17,0.191988082996211,4.37095678986282E-17));
#861=CARTESIAN_POINT('',(-0.0984251968503936,0.22244094488189,0.0568258138966167));
#862=CARTESIAN_POINT('Ctrl Pts',(1.22933159714892E-16,0.191988082996211,
-4.09777199049639E-17));
#863=CARTESIAN_POINT('Ctrl Pts',(-0.0527459040218743,0.22244094488189,0.0304528618856793));
#864=CARTESIAN_POINT('Ctrl Pts',(-0.0984251968503935,0.22244094488189,0.0568258138966167));
#865=CARTESIAN_POINT('',(-4.37095678986282E-17,0.22244094488189,-0.113651627793233));
#866=CARTESIAN_POINT('Ctrl Pts',(-1.63910879619856E-17,0.22244094488189,
-0.113651627793233));
#867=CARTESIAN_POINT('Ctrl Pts',(-4.30095088425162E-18,0.22244094488189,
-0.0609057237713587));
#868=CARTESIAN_POINT('Ctrl Pts',(1.09273919746571E-17,0.191988082996211,
-8.05895158130958E-17));
#869=CARTESIAN_POINT('Origin',(-0.196850393700787,0.22244094488189,-0.113651627793233));
#870=CARTESIAN_POINT('Origin',(-0.196850393700787,0.20721451393905,-0.113651627793233));
#871=CARTESIAN_POINT('',(-0.0984251968503938,0.22244094488189,-0.284129069483083));
#872=CARTESIAN_POINT('',(-1.31128703695885E-16,0.191988082996211,-0.227303255586467));
#873=CARTESIAN_POINT('Ctrl Pts',(-0.0984251968503937,0.22244094488189,-0.284129069483083));
#874=CARTESIAN_POINT('Ctrl Pts',(-0.0527459040218746,0.22244094488189,-0.257756117472146));
#875=CARTESIAN_POINT('Ctrl Pts',(-1.42056095670542E-16,0.191988082996211,
-0.227303255586467));
#876=CARTESIAN_POINT('Origin',(-0.196850393700787,0.22244094488189,-0.113651627793233));
#877=CARTESIAN_POINT('Ctrl Pts',(-6.28325038542781E-17,0.191988082996211,
-0.227303255586467));
#878=CARTESIAN_POINT('Ctrl Pts',(-3.80426930175445E-17,0.22244094488189,
-0.166397531815108));
#879=CARTESIAN_POINT('Ctrl Pts',(-1.63910879619856E-17,0.22244094488189,
-0.113651627793233));
#880=CARTESIAN_POINT('Origin',(-0.196850393700787,0.20721451393905,-0.113651627793233));
#881=CARTESIAN_POINT('',(-0.196850393700787,0.191988082996211,0.113651627793233));
#882=CARTESIAN_POINT('',(-0.295275590551181,0.22244094488189,0.0568258138966167));
#883=CARTESIAN_POINT('Ctrl Pts',(-0.196850393700787,0.191988082996211,0.113651627793233));
#884=CARTESIAN_POINT('Ctrl Pts',(-0.249596297722662,0.22244094488189,0.0831987659075539));
#885=CARTESIAN_POINT('Ctrl Pts',(-0.295275590551181,0.22244094488189,0.0568258138966167));
#886=CARTESIAN_POINT('Ctrl Pts',(-0.0984251968503935,0.22244094488189,0.0568258138966167));
#887=CARTESIAN_POINT('Ctrl Pts',(-0.144104489678913,0.22244094488189,0.083198765907554));
#888=CARTESIAN_POINT('Ctrl Pts',(-0.196850393700787,0.191988082996211,0.113651627793233));
#889=CARTESIAN_POINT('Origin',(-0.196850393700787,0.22244094488189,-0.113651627793233));
#890=CARTESIAN_POINT('Origin',(-0.196850393700787,0.20721451393905,-0.113651627793233));
#891=CARTESIAN_POINT('',(-0.393700787401574,0.191988082996211,-1.74838271594513E-16));
#892=CARTESIAN_POINT('',(-0.393700787401574,0.22244094488189,-0.113651627793233));
#893=CARTESIAN_POINT('Ctrl Pts',(-0.393700787401574,0.191988082996211,-2.86844039334748E-17));
#894=CARTESIAN_POINT('Ctrl Pts',(-0.393700787401574,0.22244094488189,-0.0609057237713589));
#895=CARTESIAN_POINT('Ctrl Pts',(-0.393700787401574,0.22244094488189,-0.113651627793233));
#896=CARTESIAN_POINT('Ctrl Pts',(-0.295275590551181,0.22244094488189,0.0568258138966167));
#897=CARTESIAN_POINT('Ctrl Pts',(-0.3409548833797,0.22244094488189,0.0304528618856795));
#898=CARTESIAN_POINT('Ctrl Pts',(-0.393700787401574,0.191988082996211,8.60532118004243E-17));
#899=CARTESIAN_POINT('Origin',(-0.196850393700787,0.22244094488189,-0.113651627793233));
#900=CARTESIAN_POINT('Origin',(-0.196850393700787,0.20721451393905,-0.113651627793233));
#901=CARTESIAN_POINT('',(-0.295275590551181,0.22244094488189,-0.284129069483083));
#902=CARTESIAN_POINT('',(-0.196850393700787,0.191988082996211,-0.3409548833797));
#903=CARTESIAN_POINT('Ctrl Pts',(-0.295275590551181,0.22244094488189,-0.284129069483083));
#904=CARTESIAN_POINT('Ctrl Pts',(-0.249596297722662,0.22244094488189,-0.310502021494021));
#905=CARTESIAN_POINT('Ctrl Pts',(-0.196850393700787,0.191988082996211,-0.3409548833797));
#906=CARTESIAN_POINT('Origin',(-0.196850393700787,0.22244094488189,-0.113651627793233));
#907=CARTESIAN_POINT('Ctrl Pts',(-0.196850393700787,0.191988082996211,-0.3409548833797));
#908=CARTESIAN_POINT('Ctrl Pts',(-0.144104489678913,0.22244094488189,-0.310502021494021));
#909=CARTESIAN_POINT('Ctrl Pts',(-0.0984251968503937,0.22244094488189,-0.284129069483083));
#910=CARTESIAN_POINT('Origin',(-0.196850393700787,0.20721451393905,-0.113651627793233));
#911=CARTESIAN_POINT('',(-0.393700787401574,0.191988082996211,-0.227303255586466));
#912=CARTESIAN_POINT('Ctrl Pts',(-0.393700787401574,0.22244094488189,-0.113651627793233));
#913=CARTESIAN_POINT('Ctrl Pts',(-0.393700787401574,0.22244094488189,-0.166397531815107));
#914=CARTESIAN_POINT('Ctrl Pts',(-0.393700787401574,0.191988082996211,-0.227303255586466));
#915=CARTESIAN_POINT('Origin',(-0.196850393700787,0.22244094488189,-0.113651627793233));
#916=CARTESIAN_POINT('Ctrl Pts',(-0.393700787401574,0.191988082996211,-0.227303255586466));
#917=CARTESIAN_POINT('Ctrl Pts',(-0.3409548833797,0.22244094488189,-0.257756117472146));
#918=CARTESIAN_POINT('Ctrl Pts',(-0.295275590551181,0.22244094488189,-0.284129069483083));
#919=CARTESIAN_POINT('Origin',(-0.393700787401574,0.,8.74191357972564E-17));
#920=CARTESIAN_POINT('',(-0.196850393700787,0.,0.113651627793233));
#921=CARTESIAN_POINT('',(-0.393700787401574,0.,8.74191357972564E-17));
#922=CARTESIAN_POINT('Origin',(0.,0.,0.));
#923=CARTESIAN_POINT('',(-8.74191357972564E-17,0.,-0.227303255586467));
#924=CARTESIAN_POINT('',(0.,0.,0.));
#925=CARTESIAN_POINT('Origin',(-0.196850393700787,0.,0.113651627793233));
#926=CARTESIAN_POINT('Origin',(-0.196850393700787,0.283126172654272,-0.113651627793233));
#927=CARTESIAN_POINT('',(-0.393700787401575,0.283126172654272,-0.113651627793233));
#928=CARTESIAN_POINT('',(1.31128703695885E-16,0.283126172654272,-0.113651627793233));
#929=CARTESIAN_POINT('Origin',(-0.196850393700787,0.283126172654272,-0.113651627793233));
#930=CARTESIAN_POINT('Origin',(-0.196850393700787,0.283126172654272,-0.113651627793233));
#931=CARTESIAN_POINT('',(-0.348425196850394,0.340551181102362,-0.113651627793233));
#932=CARTESIAN_POINT('Origin',(-0.334645669291338,0.283126172654272,-0.113651627793233));
#933=CARTESIAN_POINT('Origin',(-0.196850393700787,0.340551181102362,-0.113651627793233));
#934=CARTESIAN_POINT('Origin',(-0.196850393700787,0.,-0.113651627793233));
#935=CARTESIAN_POINT('',(1.31128703695885E-16,0.,-0.113651627793233));
#936=CARTESIAN_POINT('Origin',(-0.196850393700787,0.340551181102362,-0.113651627793233));
#937=CARTESIAN_POINT('',(-0.348425196850394,0.37992125984252,-0.113651627793233));
#938=CARTESIAN_POINT('Origin',(-0.196850393700787,0.37992125984252,-0.113651627793233));
#939=CARTESIAN_POINT('',(-0.348425196850394,0.340551181102362,-0.113651627793233));
#940=CARTESIAN_POINT('Origin',(-0.196850393700787,0.37992125984252,-0.113651627793233));
#941=CARTESIAN_POINT('Origin',(-0.393700787401574,0.,-0.227303255586466));
#942=CARTESIAN_POINT('',(-0.393700787401574,0.,-0.227303255586466));
#943=CARTESIAN_POINT('Origin',(-0.196850393700787,0.,-0.3409548833797));
#944=CARTESIAN_POINT('',(-0.196850393700787,0.,-0.3409548833797));
#945=CARTESIAN_POINT('Origin',(-8.74191357972564E-17,0.,-0.227303255586467));
#946=CARTESIAN_POINT('Origin',(-0.196850393700787,-0.138965899136201,-0.113651627793233));
#947=CARTESIAN_POINT('',(-0.279527559055118,0.482283464566929,-0.113651627793233));
#948=CARTESIAN_POINT('Origin',(-0.196850393700787,0.482283464566929,-0.113651627793233));
#949=CARTESIAN_POINT('',(-0.279527559055118,0.206692913385827,-0.113651627793233));
#950=CARTESIAN_POINT('',(-0.279527559055118,-0.138965899136201,-0.113651627793233));
#951=CARTESIAN_POINT('Origin',(-0.196850393700787,0.206692913385827,-0.113651627793233));
#952=CARTESIAN_POINT('Origin',(-0.196850393700787,0.419291338582677,-0.113651627793233));
#953=CARTESIAN_POINT('',(-0.307086614173228,0.206692913385827,-0.113651627793233));
#954=CARTESIAN_POINT('Origin',(-0.196850393700787,0.206692913385827,-0.113651627793233));
#955=CARTESIAN_POINT('',(-0.307086614173228,0.419291338582677,-0.113651627793233));
#956=CARTESIAN_POINT('',(-0.307086614173228,0.419291338582677,-0.113651627793233));
#957=CARTESIAN_POINT('Origin',(-0.196850393700787,0.419291338582677,-0.113651627793233));
#958=CARTESIAN_POINT('Origin',(-0.196850393700787,0.206692913385827,-0.113651627793233));
#959=CARTESIAN_POINT('Origin',(-0.196850393700787,0.419291338582677,-0.113651627793233));
#960=CARTESIAN_POINT('',(-0.393700787401575,0.482283464566929,-0.113651627793233));
#961=CARTESIAN_POINT('Origin',(-0.196850393700787,0.482283464566929,-0.113651627793233));
#962=CARTESIAN_POINT('',(-0.393700787401575,0.419291338582677,-0.113651627793233));
#963=CARTESIAN_POINT('',(-0.393700787401575,0.419291338582677,-0.113651627793233));
#964=CARTESIAN_POINT('Origin',(-0.196850393700787,0.419291338582677,-0.113651627793233));
#965=CARTESIAN_POINT('Origin',(-0.196850393700787,0.482283464566929,-0.113651627793233));
#966=CARTESIAN_POINT('Origin',(-0.196850393700787,0.419291338582677,-0.113651627793233));
#967=UNCERTAINTY_MEASURE_WITH_UNIT(LENGTH_MEASURE(0.000393700787401575),
#973,'DISTANCE_ACCURACY_VALUE',
'Maximum model space distance between geometric entities at asserted c
onnectivities');
#968=UNCERTAINTY_MEASURE_WITH_UNIT(LENGTH_MEASURE(0.000393700787401575),
#973,'DISTANCE_ACCURACY_VALUE',
'Maximum model space distance between geometric entities at asserted c
onnectivities');
#969=(
GEOMETRIC_REPRESENTATION_CONTEXT(3)
GLOBAL_UNCERTAINTY_ASSIGNED_CONTEXT((#967))
GLOBAL_UNIT_ASSIGNED_CONTEXT((#973,#977,#978))
REPRESENTATION_CONTEXT('','3D')
);
#970=(
GEOMETRIC_REPRESENTATION_CONTEXT(3)
GLOBAL_UNCERTAINTY_ASSIGNED_CONTEXT((#968))
GLOBAL_UNIT_ASSIGNED_CONTEXT((#973,#977,#978))
REPRESENTATION_CONTEXT('','3D')
);
#971=DIMENSIONAL_EXPONENTS(1.,0.,0.,0.,0.,0.,0.);
#972=DIMENSIONAL_EXPONENTS(0.,1.,0.,0.,0.,0.,0.);
#973=(
CONVERSION_BASED_UNIT('inch',#976)
LENGTH_UNIT()
NAMED_UNIT(#971)
);
#974=(
LENGTH_UNIT()
NAMED_UNIT(*)
SI_UNIT(.MILLI.,.METRE.)
);
#975=(
LENGTH_UNIT()
NAMED_UNIT(*)
SI_UNIT(.CENTI.,.METRE.)
);
#976=LENGTH_MEASURE_WITH_UNIT(LENGTH_MEASURE(25.4),#974);
#977=(
NAMED_UNIT(*)
PLANE_ANGLE_UNIT()
SI_UNIT($,.RADIAN.)
);
#978=(
NAMED_UNIT(*)
SI_UNIT($,.STERADIAN.)
SOLID_ANGLE_UNIT()
);
#979=SHAPE_DEFINITION_REPRESENTATION(#980,#981);
#980=PRODUCT_DEFINITION_SHAPE('',$,#983);
#981=SHAPE_REPRESENTATION('',(#544),#969);
#982=PRODUCT_DEFINITION_CONTEXT('part definition',#987,'design');
#983=PRODUCT_DEFINITION('PC4-M10','PC4-M10',#984,#982);
#984=PRODUCT_DEFINITION_FORMATION('',$,#989);
#985=PRODUCT_RELATED_PRODUCT_CATEGORY('PC4-M10','PC4-M10',(#989));
#986=APPLICATION_PROTOCOL_DEFINITION('international standard',
'automotive_design',2009,#987);
#987=APPLICATION_CONTEXT(
'Core Data for Automotive Mechanical Design Process');
#988=PRODUCT_CONTEXT('part definition',#987,'mechanical');
#989=PRODUCT('PC4-M10','PC4-M10',$,(#988));
#990=PRESENTATION_STYLE_ASSIGNMENT((#992));
#991=PRESENTATION_STYLE_ASSIGNMENT((#993));
#992=SURFACE_STYLE_USAGE(.BOTH.,#998);
#993=SURFACE_STYLE_USAGE(.BOTH.,#999);
#994=SURFACE_STYLE_RENDERING_WITH_PROPERTIES($,#1006,(#996));
#995=SURFACE_STYLE_RENDERING_WITH_PROPERTIES($,#1007,(#997));
#996=SURFACE_STYLE_TRANSPARENT(0.);
#997=SURFACE_STYLE_TRANSPARENT(0.);
#998=SURFACE_SIDE_STYLE('',(#1000,#994));
#999=SURFACE_SIDE_STYLE('',(#1001,#995));
#1000=SURFACE_STYLE_FILL_AREA(#1002);
#1001=SURFACE_STYLE_FILL_AREA(#1003);
#1002=FILL_AREA_STYLE('',(#1004));
#1003=FILL_AREA_STYLE('',(#1005));
#1004=FILL_AREA_STYLE_COLOUR('',#1006);
#1005=FILL_AREA_STYLE_COLOUR('',#1007);
#1006=COLOUR_RGB('',0.745098039215686,0.737254901960784,0.729411764705882);
#1007=COLOUR_RGB('',0.,0.,0.);
ENDSEC;
END-ISO-10303-21;
