ISO-10303-21;
HEADER;
/* Generated by software containing ST-Developer
 * from STEP Tools, Inc. (www.steptools.com) 
 */

FILE_DESCRIPTION(
/* description */ (''),
/* implementation_level */ '2;1');

FILE_NAME(
/* name */ 'Extrusion Sides.stp',
/* time_stamp */ '2026-07-25T00:30:49-04:00',
/* author */ ('JoshuaEah'),
/* organization */ (''),
/* preprocessor_version */ 'ST-DEVELOPER v20.1',
/* originating_system */ 'Autodesk Inventor 2026',
/* authorisation */ '');

FILE_SCHEMA (('AUTOMOTIVE_DESIGN { 1 0 10303 214 3 1 1 }'));
ENDSEC;

DATA;
#10=MECHANICAL_DESIGN_GEOMETRIC_PRESENTATION_REPRESENTATION('',(#13),#1027);
#11=SHAPE_REPRESENTATION_RELATIONSHIP('SRR','None',#1038,#12);
#12=ADVANCED_BREP_SHAPE_REPRESENTATION('',(#14),#1026);
#13=STYLED_ITEM('',(#1047),#14);
#14=MANIFOLD_SOLID_BREP('Solid1',#631);
#15=FACE_BOUND('',#93,.T.);
#16=FACE_BOUND('',#94,.T.);
#17=FACE_BOUND('',#103,.T.);
#18=FACE_BOUND('',#104,.T.);
#19=FACE_BOUND('',#105,.T.);
#20=FACE_BOUND('',#106,.T.);
#21=FACE_BOUND('',#122,.T.);
#22=FACE_BOUND('',#123,.T.);
#23=FACE_BOUND('',#125,.T.);
#24=FACE_BOUND('',#126,.T.);
#25=PLANE('',#665);
#26=PLANE('',#666);
#27=PLANE('',#667);
#28=PLANE('',#668);
#29=PLANE('',#669);
#30=PLANE('',#670);
#31=PLANE('',#671);
#32=PLANE('',#672);
#33=PLANE('',#673);
#34=PLANE('',#674);
#35=PLANE('',#675);
#36=PLANE('',#676);
#37=PLANE('',#677);
#38=PLANE('',#678);
#39=PLANE('',#679);
#40=PLANE('',#680);
#41=PLANE('',#681);
#42=PLANE('',#682);
#43=PLANE('',#683);
#44=PLANE('',#684);
#45=PLANE('',#685);
#46=PLANE('',#686);
#47=PLANE('',#687);
#48=PLANE('',#688);
#49=PLANE('',#689);
#50=PLANE('',#690);
#51=PLANE('',#691);
#52=PLANE('',#692);
#53=FACE_OUTER_BOUND('',#85,.T.);
#54=FACE_OUTER_BOUND('',#86,.T.);
#55=FACE_OUTER_BOUND('',#87,.T.);
#56=FACE_OUTER_BOUND('',#88,.T.);
#57=FACE_OUTER_BOUND('',#89,.T.);
#58=FACE_OUTER_BOUND('',#90,.T.);
#59=FACE_OUTER_BOUND('',#91,.T.);
#60=FACE_OUTER_BOUND('',#92,.T.);
#61=FACE_OUTER_BOUND('',#95,.T.);
#62=FACE_OUTER_BOUND('',#96,.T.);
#63=FACE_OUTER_BOUND('',#97,.T.);
#64=FACE_OUTER_BOUND('',#98,.T.);
#65=FACE_OUTER_BOUND('',#99,.T.);
#66=FACE_OUTER_BOUND('',#100,.T.);
#67=FACE_OUTER_BOUND('',#101,.T.);
#68=FACE_OUTER_BOUND('',#102,.T.);
#69=FACE_OUTER_BOUND('',#107,.T.);
#70=FACE_OUTER_BOUND('',#108,.T.);
#71=FACE_OUTER_BOUND('',#109,.T.);
#72=FACE_OUTER_BOUND('',#110,.T.);
#73=FACE_OUTER_BOUND('',#111,.T.);
#74=FACE_OUTER_BOUND('',#112,.T.);
#75=FACE_OUTER_BOUND('',#113,.T.);
#76=FACE_OUTER_BOUND('',#114,.T.);
#77=FACE_OUTER_BOUND('',#115,.T.);
#78=FACE_OUTER_BOUND('',#116,.T.);
#79=FACE_OUTER_BOUND('',#117,.T.);
#80=FACE_OUTER_BOUND('',#118,.T.);
#81=FACE_OUTER_BOUND('',#119,.T.);
#82=FACE_OUTER_BOUND('',#120,.T.);
#83=FACE_OUTER_BOUND('',#121,.T.);
#84=FACE_OUTER_BOUND('',#124,.T.);
#85=EDGE_LOOP('',(#427,#428,#429,#430));
#86=EDGE_LOOP('',(#431,#432,#433,#434));
#87=EDGE_LOOP('',(#435,#436,#437,#438));
#88=EDGE_LOOP('',(#439,#440,#441,#442));
#89=EDGE_LOOP('',(#443,#444,#445,#446,#447,#448));
#90=EDGE_LOOP('',(#449,#450,#451,#452,#453,#454));
#91=EDGE_LOOP('',(#455,#456,#457,#458,#459,#460));
#92=EDGE_LOOP('',(#461,#462,#463,#464));
#93=EDGE_LOOP('',(#465,#466,#467,#468));
#94=EDGE_LOOP('',(#469,#470,#471,#472));
#95=EDGE_LOOP('',(#473,#474,#475,#476,#477,#478));
#96=EDGE_LOOP('',(#479,#480,#481,#482,#483,#484));
#97=EDGE_LOOP('',(#485,#486,#487,#488,#489,#490));
#98=EDGE_LOOP('',(#491,#492,#493,#494,#495,#496));
#99=EDGE_LOOP('',(#497,#498,#499,#500));
#100=EDGE_LOOP('',(#501,#502,#503,#504,#505,#506));
#101=EDGE_LOOP('',(#507,#508,#509,#510,#511,#512));
#102=EDGE_LOOP('',(#513,#514,#515,#516));
#103=EDGE_LOOP('',(#517));
#104=EDGE_LOOP('',(#518));
#105=EDGE_LOOP('',(#519));
#106=EDGE_LOOP('',(#520));
#107=EDGE_LOOP('',(#521,#522,#523,#524,#525,#526));
#108=EDGE_LOOP('',(#527,#528,#529,#530,#531,#532));
#109=EDGE_LOOP('',(#533,#534,#535,#536));
#110=EDGE_LOOP('',(#537,#538,#539,#540,#541,#542));
#111=EDGE_LOOP('',(#543,#544,#545,#546));
#112=EDGE_LOOP('',(#547,#548,#549,#550));
#113=EDGE_LOOP('',(#551,#552,#553,#554));
#114=EDGE_LOOP('',(#555,#556,#557,#558));
#115=EDGE_LOOP('',(#559,#560,#561,#562));
#116=EDGE_LOOP('',(#563,#564,#565,#566));
#117=EDGE_LOOP('',(#567,#568,#569,#570));
#118=EDGE_LOOP('',(#571,#572,#573,#574));
#119=EDGE_LOOP('',(#575,#576,#577,#578));
#120=EDGE_LOOP('',(#579,#580,#581,#582));
#121=EDGE_LOOP('',(#583,#584,#585,#586));
#122=EDGE_LOOP('',(#587));
#123=EDGE_LOOP('',(#588));
#124=EDGE_LOOP('',(#589,#590,#591,#592));
#125=EDGE_LOOP('',(#593));
#126=EDGE_LOOP('',(#594));
#127=LINE('',#856,#203);
#128=LINE('',#862,#204);
#129=LINE('',#868,#205);
#130=LINE('',#874,#206);
#131=LINE('',#879,#207);
#132=LINE('',#881,#208);
#133=LINE('',#883,#209);
#134=LINE('',#885,#210);
#135=LINE('',#887,#211);
#136=LINE('',#888,#212);
#137=LINE('',#891,#213);
#138=LINE('',#893,#214);
#139=LINE('',#895,#215);
#140=LINE('',#897,#216);
#141=LINE('',#898,#217);
#142=LINE('',#901,#218);
#143=LINE('',#903,#219);
#144=LINE('',#905,#220);
#145=LINE('',#906,#221);
#146=LINE('',#909,#222);
#147=LINE('',#910,#223);
#148=LINE('',#913,#224);
#149=LINE('',#915,#225);
#150=LINE('',#917,#226);
#151=LINE('',#918,#227);
#152=LINE('',#921,#228);
#153=LINE('',#923,#229);
#154=LINE('',#925,#230);
#155=LINE('',#926,#231);
#156=LINE('',#930,#232);
#157=LINE('',#932,#233);
#158=LINE('',#933,#234);
#159=LINE('',#934,#235);
#160=LINE('',#937,#236);
#161=LINE('',#939,#237);
#162=LINE('',#941,#238);
#163=LINE('',#942,#239);
#164=LINE('',#945,#240);
#165=LINE('',#947,#241);
#166=LINE('',#948,#242);
#167=LINE('',#951,#243);
#168=LINE('',#953,#244);
#169=LINE('',#955,#245);
#170=LINE('',#956,#246);
#171=LINE('',#958,#247);
#172=LINE('',#961,#248);
#173=LINE('',#963,#249);
#174=LINE('',#964,#250);
#175=LINE('',#966,#251);
#176=LINE('',#968,#252);
#177=LINE('',#969,#253);
#178=LINE('',#972,#254);
#179=LINE('',#973,#255);
#180=LINE('',#976,#256);
#181=LINE('',#978,#257);
#182=LINE('',#979,#258);
#183=LINE('',#982,#259);
#184=LINE('',#983,#260);
#185=LINE('',#985,#261);
#186=LINE('',#987,#262);
#187=LINE('',#991,#263);
#188=LINE('',#993,#264);
#189=LINE('',#994,#265);
#190=LINE('',#997,#266);
#191=LINE('',#998,#267);
#192=LINE('',#1001,#268);
#193=LINE('',#1003,#269);
#194=LINE('',#1004,#270);
#195=LINE('',#1007,#271);
#196=LINE('',#1008,#272);
#197=LINE('',#1011,#273);
#198=LINE('',#1012,#274);
#199=LINE('',#1014,#275);
#200=LINE('',#1017,#276);
#201=LINE('',#1018,#277);
#202=LINE('',#1020,#278);
#203=VECTOR('',#699,0.1085);
#204=VECTOR('',#706,0.1085);
#205=VECTOR('',#713,0.1085);
#206=VECTOR('',#720,0.1085);
#207=VECTOR('',#725,0.393700787401575);
#208=VECTOR('',#726,0.393700787401575);
#209=VECTOR('',#727,0.393700787401575);
#210=VECTOR('',#728,0.393700787401575);
#211=VECTOR('',#729,0.393700787401575);
#212=VECTOR('',#730,0.393700787401575);
#213=VECTOR('',#733,0.393700787401575);
#214=VECTOR('',#734,0.393700787401575);
#215=VECTOR('',#735,0.393700787401575);
#216=VECTOR('',#736,0.393700787401575);
#217=VECTOR('',#737,0.393700787401575);
#218=VECTOR('',#740,0.393700787401575);
#219=VECTOR('',#741,0.393700787401575);
#220=VECTOR('',#742,0.393700787401575);
#221=VECTOR('',#743,0.393700787401575);
#222=VECTOR('',#746,0.393700787401575);
#223=VECTOR('',#747,0.393700787401575);
#224=VECTOR('',#748,0.393700787401575);
#225=VECTOR('',#749,0.393700787401575);
#226=VECTOR('',#750,0.393700787401575);
#227=VECTOR('',#751,0.393700787401575);
#228=VECTOR('',#752,0.393700787401575);
#229=VECTOR('',#753,0.393700787401575);
#230=VECTOR('',#754,0.393700787401575);
#231=VECTOR('',#755,0.393700787401575);
#232=VECTOR('',#758,0.393700787401575);
#233=VECTOR('',#759,0.393700787401575);
#234=VECTOR('',#760,0.393700787401575);
#235=VECTOR('',#761,0.393700787401575);
#236=VECTOR('',#764,0.393700787401575);
#237=VECTOR('',#765,0.393700787401575);
#238=VECTOR('',#766,0.393700787401575);
#239=VECTOR('',#767,0.393700787401575);
#240=VECTOR('',#770,0.393700787401575);
#241=VECTOR('',#771,0.393700787401575);
#242=VECTOR('',#772,0.393700787401575);
#243=VECTOR('',#775,0.393700787401575);
#244=VECTOR('',#776,0.393700787401575);
#245=VECTOR('',#777,0.393700787401575);
#246=VECTOR('',#778,0.393700787401575);
#247=VECTOR('',#781,0.393700787401575);
#248=VECTOR('',#784,0.393700787401575);
#249=VECTOR('',#785,0.393700787401575);
#250=VECTOR('',#786,0.393700787401575);
#251=VECTOR('',#789,0.393700787401575);
#252=VECTOR('',#790,0.393700787401575);
#253=VECTOR('',#791,0.393700787401575);
#254=VECTOR('',#794,0.393700787401575);
#255=VECTOR('',#795,0.393700787401575);
#256=VECTOR('',#798,0.393700787401575);
#257=VECTOR('',#799,0.393700787401575);
#258=VECTOR('',#800,0.393700787401575);
#259=VECTOR('',#803,0.393700787401575);
#260=VECTOR('',#804,0.393700787401575);
#261=VECTOR('',#807,0.393700787401575);
#262=VECTOR('',#810,0.393700787401575);
#263=VECTOR('',#815,0.393700787401575);
#264=VECTOR('',#816,0.393700787401575);
#265=VECTOR('',#817,0.393700787401575);
#266=VECTOR('',#820,0.393700787401575);
#267=VECTOR('',#821,0.393700787401575);
#268=VECTOR('',#824,0.393700787401575);
#269=VECTOR('',#825,0.393700787401575);
#270=VECTOR('',#826,0.393700787401575);
#271=VECTOR('',#829,0.393700787401575);
#272=VECTOR('',#830,0.393700787401575);
#273=VECTOR('',#833,0.393700787401575);
#274=VECTOR('',#834,0.393700787401575);
#275=VECTOR('',#837,0.393700787401575);
#276=VECTOR('',#840,0.393700787401575);
#277=VECTOR('',#841,0.393700787401575);
#278=VECTOR('',#844,0.393700787401575);
#279=CIRCLE('',#654,0.1085);
#280=CIRCLE('',#655,0.1085);
#281=CIRCLE('',#657,0.1085);
#282=CIRCLE('',#658,0.1085);
#283=CIRCLE('',#660,0.1085);
#284=CIRCLE('',#661,0.1085);
#285=CIRCLE('',#663,0.1085);
#286=CIRCLE('',#664,0.1085);
#287=VERTEX_POINT('',#853);
#288=VERTEX_POINT('',#855);
#289=VERTEX_POINT('',#859);
#290=VERTEX_POINT('',#861);
#291=VERTEX_POINT('',#865);
#292=VERTEX_POINT('',#867);
#293=VERTEX_POINT('',#871);
#294=VERTEX_POINT('',#873);
#295=VERTEX_POINT('',#877);
#296=VERTEX_POINT('',#878);
#297=VERTEX_POINT('',#880);
#298=VERTEX_POINT('',#882);
#299=VERTEX_POINT('',#884);
#300=VERTEX_POINT('',#886);
#301=VERTEX_POINT('',#890);
#302=VERTEX_POINT('',#892);
#303=VERTEX_POINT('',#894);
#304=VERTEX_POINT('',#896);
#305=VERTEX_POINT('',#900);
#306=VERTEX_POINT('',#902);
#307=VERTEX_POINT('',#904);
#308=VERTEX_POINT('',#908);
#309=VERTEX_POINT('',#911);
#310=VERTEX_POINT('',#912);
#311=VERTEX_POINT('',#914);
#312=VERTEX_POINT('',#916);
#313=VERTEX_POINT('',#919);
#314=VERTEX_POINT('',#920);
#315=VERTEX_POINT('',#922);
#316=VERTEX_POINT('',#924);
#317=VERTEX_POINT('',#928);
#318=VERTEX_POINT('',#929);
#319=VERTEX_POINT('',#931);
#320=VERTEX_POINT('',#936);
#321=VERTEX_POINT('',#938);
#322=VERTEX_POINT('',#940);
#323=VERTEX_POINT('',#944);
#324=VERTEX_POINT('',#946);
#325=VERTEX_POINT('',#950);
#326=VERTEX_POINT('',#952);
#327=VERTEX_POINT('',#954);
#328=VERTEX_POINT('',#960);
#329=VERTEX_POINT('',#962);
#330=VERTEX_POINT('',#967);
#331=VERTEX_POINT('',#971);
#332=VERTEX_POINT('',#975);
#333=VERTEX_POINT('',#977);
#334=VERTEX_POINT('',#981);
#335=VERTEX_POINT('',#990);
#336=VERTEX_POINT('',#992);
#337=VERTEX_POINT('',#996);
#338=VERTEX_POINT('',#1000);
#339=VERTEX_POINT('',#1002);
#340=VERTEX_POINT('',#1006);
#341=VERTEX_POINT('',#1010);
#342=VERTEX_POINT('',#1016);
#343=EDGE_CURVE('',#287,#287,#279,.T.);
#344=EDGE_CURVE('',#287,#288,#127,.T.);
#345=EDGE_CURVE('',#288,#288,#280,.T.);
#346=EDGE_CURVE('',#289,#289,#281,.T.);
#347=EDGE_CURVE('',#289,#290,#128,.T.);
#348=EDGE_CURVE('',#290,#290,#282,.T.);
#349=EDGE_CURVE('',#291,#291,#283,.T.);
#350=EDGE_CURVE('',#291,#292,#129,.T.);
#351=EDGE_CURVE('',#292,#292,#284,.T.);
#352=EDGE_CURVE('',#293,#293,#285,.T.);
#353=EDGE_CURVE('',#293,#294,#130,.T.);
#354=EDGE_CURVE('',#294,#294,#286,.T.);
#355=EDGE_CURVE('',#295,#296,#131,.T.);
#356=EDGE_CURVE('',#296,#297,#132,.T.);
#357=EDGE_CURVE('',#297,#298,#133,.T.);
#358=EDGE_CURVE('',#298,#299,#134,.T.);
#359=EDGE_CURVE('',#299,#300,#135,.T.);
#360=EDGE_CURVE('',#300,#295,#136,.T.);
#361=EDGE_CURVE('',#295,#301,#137,.T.);
#362=EDGE_CURVE('',#301,#302,#138,.T.);
#363=EDGE_CURVE('',#302,#303,#139,.T.);
#364=EDGE_CURVE('',#304,#303,#140,.T.);
#365=EDGE_CURVE('',#304,#296,#141,.T.);
#366=EDGE_CURVE('',#300,#305,#142,.T.);
#367=EDGE_CURVE('',#306,#305,#143,.T.);
#368=EDGE_CURVE('',#307,#306,#144,.T.);
#369=EDGE_CURVE('',#307,#301,#145,.T.);
#370=EDGE_CURVE('',#308,#299,#146,.T.);
#371=EDGE_CURVE('',#305,#308,#147,.T.);
#372=EDGE_CURVE('',#309,#310,#148,.T.);
#373=EDGE_CURVE('',#311,#309,#149,.T.);
#374=EDGE_CURVE('',#312,#311,#150,.T.);
#375=EDGE_CURVE('',#310,#312,#151,.T.);
#376=EDGE_CURVE('',#313,#314,#152,.T.);
#377=EDGE_CURVE('',#315,#313,#153,.T.);
#378=EDGE_CURVE('',#316,#315,#154,.T.);
#379=EDGE_CURVE('',#314,#316,#155,.T.);
#380=EDGE_CURVE('',#317,#318,#156,.T.);
#381=EDGE_CURVE('',#318,#319,#157,.T.);
#382=EDGE_CURVE('',#319,#306,#158,.T.);
#383=EDGE_CURVE('',#308,#317,#159,.T.);
#384=EDGE_CURVE('',#319,#320,#160,.T.);
#385=EDGE_CURVE('',#320,#321,#161,.T.);
#386=EDGE_CURVE('',#321,#322,#162,.T.);
#387=EDGE_CURVE('',#322,#307,#163,.T.);
#388=EDGE_CURVE('',#298,#323,#164,.T.);
#389=EDGE_CURVE('',#323,#324,#165,.T.);
#390=EDGE_CURVE('',#324,#317,#166,.T.);
#391=EDGE_CURVE('',#324,#325,#167,.T.);
#392=EDGE_CURVE('',#326,#325,#168,.T.);
#393=EDGE_CURVE('',#327,#326,#169,.T.);
#394=EDGE_CURVE('',#327,#318,#170,.T.);
#395=EDGE_CURVE('',#302,#322,#171,.T.);
#396=EDGE_CURVE('',#328,#321,#172,.T.);
#397=EDGE_CURVE('',#328,#329,#173,.T.);
#398=EDGE_CURVE('',#303,#329,#174,.T.);
#399=EDGE_CURVE('',#320,#327,#175,.T.);
#400=EDGE_CURVE('',#326,#330,#176,.T.);
#401=EDGE_CURVE('',#330,#328,#177,.T.);
#402=EDGE_CURVE('',#331,#330,#178,.T.);
#403=EDGE_CURVE('',#329,#331,#179,.T.);
#404=EDGE_CURVE('',#325,#332,#180,.T.);
#405=EDGE_CURVE('',#332,#333,#181,.T.);
#406=EDGE_CURVE('',#333,#331,#182,.T.);
#407=EDGE_CURVE('',#333,#334,#183,.T.);
#408=EDGE_CURVE('',#334,#304,#184,.T.);
#409=EDGE_CURVE('',#332,#323,#185,.T.);
#410=EDGE_CURVE('',#297,#334,#186,.T.);
#411=EDGE_CURVE('',#335,#311,#187,.F.);
#412=EDGE_CURVE('',#336,#335,#188,.T.);
#413=EDGE_CURVE('',#312,#336,#189,.T.);
#414=EDGE_CURVE('',#309,#337,#190,.F.);
#415=EDGE_CURVE('',#335,#337,#191,.T.);
#416=EDGE_CURVE('',#338,#315,#192,.F.);
#417=EDGE_CURVE('',#339,#338,#193,.T.);
#418=EDGE_CURVE('',#316,#339,#194,.T.);
#419=EDGE_CURVE('',#313,#340,#195,.T.);
#420=EDGE_CURVE('',#338,#340,#196,.T.);
#421=EDGE_CURVE('',#310,#341,#197,.T.);
#422=EDGE_CURVE('',#337,#341,#198,.T.);
#423=EDGE_CURVE('',#341,#336,#199,.T.);
#424=EDGE_CURVE('',#314,#342,#200,.F.);
#425=EDGE_CURVE('',#340,#342,#201,.T.);
#426=EDGE_CURVE('',#342,#339,#202,.T.);
#427=ORIENTED_EDGE('',*,*,#343,.F.);
#428=ORIENTED_EDGE('',*,*,#344,.T.);
#429=ORIENTED_EDGE('',*,*,#345,.F.);
#430=ORIENTED_EDGE('',*,*,#344,.F.);
#431=ORIENTED_EDGE('',*,*,#346,.F.);
#432=ORIENTED_EDGE('',*,*,#347,.T.);
#433=ORIENTED_EDGE('',*,*,#348,.F.);
#434=ORIENTED_EDGE('',*,*,#347,.F.);
#435=ORIENTED_EDGE('',*,*,#349,.F.);
#436=ORIENTED_EDGE('',*,*,#350,.T.);
#437=ORIENTED_EDGE('',*,*,#351,.F.);
#438=ORIENTED_EDGE('',*,*,#350,.F.);
#439=ORIENTED_EDGE('',*,*,#352,.F.);
#440=ORIENTED_EDGE('',*,*,#353,.T.);
#441=ORIENTED_EDGE('',*,*,#354,.F.);
#442=ORIENTED_EDGE('',*,*,#353,.F.);
#443=ORIENTED_EDGE('',*,*,#355,.T.);
#444=ORIENTED_EDGE('',*,*,#356,.T.);
#445=ORIENTED_EDGE('',*,*,#357,.T.);
#446=ORIENTED_EDGE('',*,*,#358,.T.);
#447=ORIENTED_EDGE('',*,*,#359,.T.);
#448=ORIENTED_EDGE('',*,*,#360,.T.);
#449=ORIENTED_EDGE('',*,*,#355,.F.);
#450=ORIENTED_EDGE('',*,*,#361,.T.);
#451=ORIENTED_EDGE('',*,*,#362,.T.);
#452=ORIENTED_EDGE('',*,*,#363,.T.);
#453=ORIENTED_EDGE('',*,*,#364,.F.);
#454=ORIENTED_EDGE('',*,*,#365,.T.);
#455=ORIENTED_EDGE('',*,*,#360,.F.);
#456=ORIENTED_EDGE('',*,*,#366,.T.);
#457=ORIENTED_EDGE('',*,*,#367,.F.);
#458=ORIENTED_EDGE('',*,*,#368,.F.);
#459=ORIENTED_EDGE('',*,*,#369,.T.);
#460=ORIENTED_EDGE('',*,*,#361,.F.);
#461=ORIENTED_EDGE('',*,*,#359,.F.);
#462=ORIENTED_EDGE('',*,*,#370,.F.);
#463=ORIENTED_EDGE('',*,*,#371,.F.);
#464=ORIENTED_EDGE('',*,*,#366,.F.);
#465=ORIENTED_EDGE('',*,*,#372,.F.);
#466=ORIENTED_EDGE('',*,*,#373,.F.);
#467=ORIENTED_EDGE('',*,*,#374,.F.);
#468=ORIENTED_EDGE('',*,*,#375,.F.);
#469=ORIENTED_EDGE('',*,*,#376,.F.);
#470=ORIENTED_EDGE('',*,*,#377,.F.);
#471=ORIENTED_EDGE('',*,*,#378,.F.);
#472=ORIENTED_EDGE('',*,*,#379,.F.);
#473=ORIENTED_EDGE('',*,*,#380,.T.);
#474=ORIENTED_EDGE('',*,*,#381,.T.);
#475=ORIENTED_EDGE('',*,*,#382,.T.);
#476=ORIENTED_EDGE('',*,*,#367,.T.);
#477=ORIENTED_EDGE('',*,*,#371,.T.);
#478=ORIENTED_EDGE('',*,*,#383,.T.);
#479=ORIENTED_EDGE('',*,*,#382,.F.);
#480=ORIENTED_EDGE('',*,*,#384,.T.);
#481=ORIENTED_EDGE('',*,*,#385,.T.);
#482=ORIENTED_EDGE('',*,*,#386,.T.);
#483=ORIENTED_EDGE('',*,*,#387,.T.);
#484=ORIENTED_EDGE('',*,*,#368,.T.);
#485=ORIENTED_EDGE('',*,*,#358,.F.);
#486=ORIENTED_EDGE('',*,*,#388,.T.);
#487=ORIENTED_EDGE('',*,*,#389,.T.);
#488=ORIENTED_EDGE('',*,*,#390,.T.);
#489=ORIENTED_EDGE('',*,*,#383,.F.);
#490=ORIENTED_EDGE('',*,*,#370,.T.);
#491=ORIENTED_EDGE('',*,*,#380,.F.);
#492=ORIENTED_EDGE('',*,*,#390,.F.);
#493=ORIENTED_EDGE('',*,*,#391,.T.);
#494=ORIENTED_EDGE('',*,*,#392,.F.);
#495=ORIENTED_EDGE('',*,*,#393,.F.);
#496=ORIENTED_EDGE('',*,*,#394,.T.);
#497=ORIENTED_EDGE('',*,*,#387,.F.);
#498=ORIENTED_EDGE('',*,*,#395,.F.);
#499=ORIENTED_EDGE('',*,*,#362,.F.);
#500=ORIENTED_EDGE('',*,*,#369,.F.);
#501=ORIENTED_EDGE('',*,*,#386,.F.);
#502=ORIENTED_EDGE('',*,*,#396,.F.);
#503=ORIENTED_EDGE('',*,*,#397,.T.);
#504=ORIENTED_EDGE('',*,*,#398,.F.);
#505=ORIENTED_EDGE('',*,*,#363,.F.);
#506=ORIENTED_EDGE('',*,*,#395,.T.);
#507=ORIENTED_EDGE('',*,*,#385,.F.);
#508=ORIENTED_EDGE('',*,*,#399,.T.);
#509=ORIENTED_EDGE('',*,*,#393,.T.);
#510=ORIENTED_EDGE('',*,*,#400,.T.);
#511=ORIENTED_EDGE('',*,*,#401,.T.);
#512=ORIENTED_EDGE('',*,*,#396,.T.);
#513=ORIENTED_EDGE('',*,*,#401,.F.);
#514=ORIENTED_EDGE('',*,*,#402,.F.);
#515=ORIENTED_EDGE('',*,*,#403,.F.);
#516=ORIENTED_EDGE('',*,*,#397,.F.);
#517=ORIENTED_EDGE('',*,*,#343,.T.);
#518=ORIENTED_EDGE('',*,*,#346,.T.);
#519=ORIENTED_EDGE('',*,*,#349,.T.);
#520=ORIENTED_EDGE('',*,*,#352,.T.);
#521=ORIENTED_EDGE('',*,*,#400,.F.);
#522=ORIENTED_EDGE('',*,*,#392,.T.);
#523=ORIENTED_EDGE('',*,*,#404,.T.);
#524=ORIENTED_EDGE('',*,*,#405,.T.);
#525=ORIENTED_EDGE('',*,*,#406,.T.);
#526=ORIENTED_EDGE('',*,*,#402,.T.);
#527=ORIENTED_EDGE('',*,*,#406,.F.);
#528=ORIENTED_EDGE('',*,*,#407,.T.);
#529=ORIENTED_EDGE('',*,*,#408,.T.);
#530=ORIENTED_EDGE('',*,*,#364,.T.);
#531=ORIENTED_EDGE('',*,*,#398,.T.);
#532=ORIENTED_EDGE('',*,*,#403,.T.);
#533=ORIENTED_EDGE('',*,*,#389,.F.);
#534=ORIENTED_EDGE('',*,*,#409,.F.);
#535=ORIENTED_EDGE('',*,*,#404,.F.);
#536=ORIENTED_EDGE('',*,*,#391,.F.);
#537=ORIENTED_EDGE('',*,*,#357,.F.);
#538=ORIENTED_EDGE('',*,*,#410,.T.);
#539=ORIENTED_EDGE('',*,*,#407,.F.);
#540=ORIENTED_EDGE('',*,*,#405,.F.);
#541=ORIENTED_EDGE('',*,*,#409,.T.);
#542=ORIENTED_EDGE('',*,*,#388,.F.);
#543=ORIENTED_EDGE('',*,*,#356,.F.);
#544=ORIENTED_EDGE('',*,*,#365,.F.);
#545=ORIENTED_EDGE('',*,*,#408,.F.);
#546=ORIENTED_EDGE('',*,*,#410,.F.);
#547=ORIENTED_EDGE('',*,*,#374,.T.);
#548=ORIENTED_EDGE('',*,*,#411,.F.);
#549=ORIENTED_EDGE('',*,*,#412,.F.);
#550=ORIENTED_EDGE('',*,*,#413,.F.);
#551=ORIENTED_EDGE('',*,*,#373,.T.);
#552=ORIENTED_EDGE('',*,*,#414,.T.);
#553=ORIENTED_EDGE('',*,*,#415,.F.);
#554=ORIENTED_EDGE('',*,*,#411,.T.);
#555=ORIENTED_EDGE('',*,*,#378,.T.);
#556=ORIENTED_EDGE('',*,*,#416,.F.);
#557=ORIENTED_EDGE('',*,*,#417,.F.);
#558=ORIENTED_EDGE('',*,*,#418,.F.);
#559=ORIENTED_EDGE('',*,*,#377,.T.);
#560=ORIENTED_EDGE('',*,*,#419,.T.);
#561=ORIENTED_EDGE('',*,*,#420,.F.);
#562=ORIENTED_EDGE('',*,*,#416,.T.);
#563=ORIENTED_EDGE('',*,*,#372,.T.);
#564=ORIENTED_EDGE('',*,*,#421,.T.);
#565=ORIENTED_EDGE('',*,*,#422,.F.);
#566=ORIENTED_EDGE('',*,*,#414,.F.);
#567=ORIENTED_EDGE('',*,*,#375,.T.);
#568=ORIENTED_EDGE('',*,*,#413,.T.);
#569=ORIENTED_EDGE('',*,*,#423,.F.);
#570=ORIENTED_EDGE('',*,*,#421,.F.);
#571=ORIENTED_EDGE('',*,*,#376,.T.);
#572=ORIENTED_EDGE('',*,*,#424,.T.);
#573=ORIENTED_EDGE('',*,*,#425,.F.);
#574=ORIENTED_EDGE('',*,*,#419,.F.);
#575=ORIENTED_EDGE('',*,*,#379,.T.);
#576=ORIENTED_EDGE('',*,*,#418,.T.);
#577=ORIENTED_EDGE('',*,*,#426,.F.);
#578=ORIENTED_EDGE('',*,*,#424,.F.);
#579=ORIENTED_EDGE('',*,*,#381,.F.);
#580=ORIENTED_EDGE('',*,*,#394,.F.);
#581=ORIENTED_EDGE('',*,*,#399,.F.);
#582=ORIENTED_EDGE('',*,*,#384,.F.);
#583=ORIENTED_EDGE('',*,*,#425,.T.);
#584=ORIENTED_EDGE('',*,*,#426,.T.);
#585=ORIENTED_EDGE('',*,*,#417,.T.);
#586=ORIENTED_EDGE('',*,*,#420,.T.);
#587=ORIENTED_EDGE('',*,*,#345,.T.);
#588=ORIENTED_EDGE('',*,*,#348,.T.);
#589=ORIENTED_EDGE('',*,*,#422,.T.);
#590=ORIENTED_EDGE('',*,*,#423,.T.);
#591=ORIENTED_EDGE('',*,*,#412,.T.);
#592=ORIENTED_EDGE('',*,*,#415,.T.);
#593=ORIENTED_EDGE('',*,*,#351,.T.);
#594=ORIENTED_EDGE('',*,*,#354,.T.);
#595=CYLINDRICAL_SURFACE('',#653,0.1085);
#596=CYLINDRICAL_SURFACE('',#656,0.1085);
#597=CYLINDRICAL_SURFACE('',#659,0.1085);
#598=CYLINDRICAL_SURFACE('',#662,0.1085);
#599=ADVANCED_FACE('',(#53),#595,.F.);
#600=ADVANCED_FACE('',(#54),#596,.F.);
#601=ADVANCED_FACE('',(#55),#597,.F.);
#602=ADVANCED_FACE('',(#56),#598,.F.);
#603=ADVANCED_FACE('',(#57),#25,.T.);
#604=ADVANCED_FACE('',(#58),#26,.T.);
#605=ADVANCED_FACE('',(#59),#27,.T.);
#606=ADVANCED_FACE('',(#60,#15,#16),#28,.T.);
#607=ADVANCED_FACE('',(#61),#29,.T.);
#608=ADVANCED_FACE('',(#62),#30,.T.);
#609=ADVANCED_FACE('',(#63),#31,.T.);
#610=ADVANCED_FACE('',(#64),#32,.T.);
#611=ADVANCED_FACE('',(#65),#33,.T.);
#612=ADVANCED_FACE('',(#66),#34,.T.);
#613=ADVANCED_FACE('',(#67),#35,.T.);
#614=ADVANCED_FACE('',(#68,#17,#18,#19,#20),#36,.T.);
#615=ADVANCED_FACE('',(#69),#37,.T.);
#616=ADVANCED_FACE('',(#70),#38,.T.);
#617=ADVANCED_FACE('',(#71),#39,.T.);
#618=ADVANCED_FACE('',(#72),#40,.T.);
#619=ADVANCED_FACE('',(#73),#41,.T.);
#620=ADVANCED_FACE('',(#74),#42,.T.);
#621=ADVANCED_FACE('',(#75),#43,.T.);
#622=ADVANCED_FACE('',(#76),#44,.T.);
#623=ADVANCED_FACE('',(#77),#45,.T.);
#624=ADVANCED_FACE('',(#78),#46,.T.);
#625=ADVANCED_FACE('',(#79),#47,.T.);
#626=ADVANCED_FACE('',(#80),#48,.T.);
#627=ADVANCED_FACE('',(#81),#49,.T.);
#628=ADVANCED_FACE('',(#82),#50,.T.);
#629=ADVANCED_FACE('',(#83,#21,#22),#51,.T.);
#630=ADVANCED_FACE('',(#84,#23,#24),#52,.T.);
#631=CLOSED_SHELL('',(#599,#600,#601,#602,#603,#604,#605,#606,#607,#608,
#609,#610,#611,#612,#613,#614,#615,#616,#617,#618,#619,#620,#621,#622,#623,
#624,#625,#626,#627,#628,#629,#630));
#632=DERIVED_UNIT_ELEMENT(#634,1.);
#633=DERIVED_UNIT_ELEMENT(#1032,-3.);
#634=(
CONVERSION_BASED_UNIT('gram',#636)
MASS_UNIT()
NAMED_UNIT(#1029)
);
#635=(
MASS_UNIT()
NAMED_UNIT(*)
SI_UNIT(.KILO.,.GRAM.)
);
#636=MASS_MEASURE_WITH_UNIT(MASS_MEASURE(0.001),#635);
#637=DERIVED_UNIT((#632,#633));
#638=MEASURE_REPRESENTATION_ITEM('density measure',
POSITIVE_RATIO_MEASURE(1.06),#637);
#639=PROPERTY_DEFINITION_REPRESENTATION(#644,#641);
#640=PROPERTY_DEFINITION_REPRESENTATION(#645,#642);
#641=REPRESENTATION('material name',(#643),#1026);
#642=REPRESENTATION('density',(#638),#1026);
#643=DESCRIPTIVE_REPRESENTATION_ITEM('ABS Plastic','ABS Plastic');
#644=PROPERTY_DEFINITION('material property','material name',#1040);
#645=PROPERTY_DEFINITION('material property','density of part',#1040);
#646=DATE_TIME_ROLE('creation_date');
#647=APPLIED_DATE_AND_TIME_ASSIGNMENT(#648,#646,(#1040));
#648=DATE_AND_TIME(#649,#650);
#649=CALENDAR_DATE(2026,24,7);
#650=LOCAL_TIME(0,0,0.,#651);
#651=COORDINATED_UNIVERSAL_TIME_OFFSET(0,0,.BEHIND.);
#652=AXIS2_PLACEMENT_3D('',#851,#693,#694);
#653=AXIS2_PLACEMENT_3D('',#852,#695,#696);
#654=AXIS2_PLACEMENT_3D('',#854,#697,#698);
#655=AXIS2_PLACEMENT_3D('',#857,#700,#701);
#656=AXIS2_PLACEMENT_3D('',#858,#702,#703);
#657=AXIS2_PLACEMENT_3D('',#860,#704,#705);
#658=AXIS2_PLACEMENT_3D('',#863,#707,#708);
#659=AXIS2_PLACEMENT_3D('',#864,#709,#710);
#660=AXIS2_PLACEMENT_3D('',#866,#711,#712);
#661=AXIS2_PLACEMENT_3D('',#869,#714,#715);
#662=AXIS2_PLACEMENT_3D('',#870,#716,#717);
#663=AXIS2_PLACEMENT_3D('',#872,#718,#719);
#664=AXIS2_PLACEMENT_3D('',#875,#721,#722);
#665=AXIS2_PLACEMENT_3D('',#876,#723,#724);
#666=AXIS2_PLACEMENT_3D('',#889,#731,#732);
#667=AXIS2_PLACEMENT_3D('',#899,#738,#739);
#668=AXIS2_PLACEMENT_3D('',#907,#744,#745);
#669=AXIS2_PLACEMENT_3D('',#927,#756,#757);
#670=AXIS2_PLACEMENT_3D('',#935,#762,#763);
#671=AXIS2_PLACEMENT_3D('',#943,#768,#769);
#672=AXIS2_PLACEMENT_3D('',#949,#773,#774);
#673=AXIS2_PLACEMENT_3D('',#957,#779,#780);
#674=AXIS2_PLACEMENT_3D('',#959,#782,#783);
#675=AXIS2_PLACEMENT_3D('',#965,#787,#788);
#676=AXIS2_PLACEMENT_3D('',#970,#792,#793);
#677=AXIS2_PLACEMENT_3D('',#974,#796,#797);
#678=AXIS2_PLACEMENT_3D('',#980,#801,#802);
#679=AXIS2_PLACEMENT_3D('',#984,#805,#806);
#680=AXIS2_PLACEMENT_3D('',#986,#808,#809);
#681=AXIS2_PLACEMENT_3D('',#988,#811,#812);
#682=AXIS2_PLACEMENT_3D('',#989,#813,#814);
#683=AXIS2_PLACEMENT_3D('',#995,#818,#819);
#684=AXIS2_PLACEMENT_3D('',#999,#822,#823);
#685=AXIS2_PLACEMENT_3D('',#1005,#827,#828);
#686=AXIS2_PLACEMENT_3D('',#1009,#831,#832);
#687=AXIS2_PLACEMENT_3D('',#1013,#835,#836);
#688=AXIS2_PLACEMENT_3D('',#1015,#838,#839);
#689=AXIS2_PLACEMENT_3D('',#1019,#842,#843);
#690=AXIS2_PLACEMENT_3D('',#1021,#845,#846);
#691=AXIS2_PLACEMENT_3D('',#1022,#847,#848);
#692=AXIS2_PLACEMENT_3D('',#1023,#849,#850);
#693=DIRECTION('axis',(0.,0.,1.));
#694=DIRECTION('refdir',(1.,0.,0.));
#695=DIRECTION('center_axis',(0.,0.,1.));
#696=DIRECTION('ref_axis',(1.,0.,0.));
#697=DIRECTION('center_axis',(0.,0.,-1.));
#698=DIRECTION('ref_axis',(1.,0.,0.));
#699=DIRECTION('',(0.,0.,-1.));
#700=DIRECTION('center_axis',(0.,0.,1.));
#701=DIRECTION('ref_axis',(1.,0.,0.));
#702=DIRECTION('center_axis',(0.,0.,1.));
#703=DIRECTION('ref_axis',(1.,0.,0.));
#704=DIRECTION('center_axis',(0.,0.,-1.));
#705=DIRECTION('ref_axis',(1.,0.,0.));
#706=DIRECTION('',(0.,0.,-1.));
#707=DIRECTION('center_axis',(0.,0.,1.));
#708=DIRECTION('ref_axis',(1.,0.,0.));
#709=DIRECTION('center_axis',(0.,0.,1.));
#710=DIRECTION('ref_axis',(1.,0.,0.));
#711=DIRECTION('center_axis',(0.,0.,-1.));
#712=DIRECTION('ref_axis',(1.,0.,0.));
#713=DIRECTION('',(0.,0.,-1.));
#714=DIRECTION('center_axis',(0.,0.,1.));
#715=DIRECTION('ref_axis',(1.,0.,0.));
#716=DIRECTION('center_axis',(0.,0.,1.));
#717=DIRECTION('ref_axis',(1.,0.,0.));
#718=DIRECTION('center_axis',(0.,0.,-1.));
#719=DIRECTION('ref_axis',(1.,0.,0.));
#720=DIRECTION('',(0.,0.,-1.));
#721=DIRECTION('center_axis',(0.,0.,1.));
#722=DIRECTION('ref_axis',(1.,0.,0.));
#723=DIRECTION('center_axis',(0.707106781186547,0.,-0.707106781186549));
#724=DIRECTION('ref_axis',(-0.707106781186549,0.,-0.707106781186547));
#725=DIRECTION('',(0.577350269189627,-0.577350269189625,0.577350269189625));
#726=DIRECTION('',(0.,-1.,0.));
#727=DIRECTION('',(-0.577350269189627,-0.577350269189625,-0.577350269189625));
#728=DIRECTION('',(-0.577350269189627,0.577350269189625,-0.577350269189625));
#729=DIRECTION('',(0.,1.,0.));
#730=DIRECTION('',(0.577350269189627,0.577350269189625,0.577350269189626));
#731=DIRECTION('center_axis',(0.707106781186547,0.707106781186549,0.));
#732=DIRECTION('ref_axis',(0.,0.,-1.));
#733=DIRECTION('',(-0.577350269189627,0.577350269189625,0.577350269189626));
#734=DIRECTION('',(0.,0.,1.));
#735=DIRECTION('',(0.577350269189627,-0.577350269189625,0.577350269189625));
#736=DIRECTION('',(-0.577350269189627,0.577350269189625,0.577350269189625));
#737=DIRECTION('',(0.,0.,-1.));
#738=DIRECTION('center_axis',(-9.46551595287883E-17,0.707106781186548,-0.707106781186547));
#739=DIRECTION('ref_axis',(-1.,0.,1.33862610354201E-16));
#740=DIRECTION('',(-1.,-1.33862610354201E-16,0.));
#741=DIRECTION('',(0.577350269189626,-0.577350269189625,-0.577350269189626));
#742=DIRECTION('',(-0.577350269189626,-0.577350269189626,-0.577350269189626));
#743=DIRECTION('',(1.,1.33862610354201E-16,0.));
#744=DIRECTION('center_axis',(0.,0.,-1.));
#745=DIRECTION('ref_axis',(-1.,0.,0.));
#746=DIRECTION('',(1.,-1.33862610354215E-16,0.));
#747=DIRECTION('',(2.83949216314502E-29,-1.,0.));
#748=DIRECTION('',(-1.,1.29526019539602E-16,0.));
#749=DIRECTION('',(0.,-1.,0.));
#750=DIRECTION('',(1.,1.48029736616688E-16,0.));
#751=DIRECTION('',(0.,1.,0.));
#752=DIRECTION('',(1.,1.48029736616688E-16,0.));
#753=DIRECTION('',(0.,1.,0.));
#754=DIRECTION('',(-1.,1.29526019539602E-16,0.));
#755=DIRECTION('',(0.,-1.,0.));
#756=DIRECTION('center_axis',(-0.707106781186548,-2.0078241636859E-29,-0.707106781186548));
#757=DIRECTION('ref_axis',(-0.707106781186548,0.,0.707106781186548));
#758=DIRECTION('',(-0.577350269189626,0.577350269189626,0.577350269189626));
#759=DIRECTION('',(-2.83949216314502E-29,1.,0.));
#760=DIRECTION('',(0.577350269189626,0.577350269189626,-0.577350269189626));
#761=DIRECTION('',(-0.577350269189626,-0.577350269189626,0.577350269189626));
#762=DIRECTION('center_axis',(-0.707106781186547,0.707106781186548,0.));
#763=DIRECTION('ref_axis',(0.,0.,1.));
#764=DIRECTION('',(0.,0.,1.));
#765=DIRECTION('',(0.577350269189626,0.577350269189626,0.577350269189626));
#766=DIRECTION('',(0.577350269189626,0.577350269189626,-0.577350269189626));
#767=DIRECTION('',(0.,0.,-1.));
#768=DIRECTION('center_axis',(-9.46551595287981E-17,-0.707106781186548,
-0.707106781186548));
#769=DIRECTION('ref_axis',(-1.,0.,1.33862610354215E-16));
#770=DIRECTION('',(-0.577350269189627,-0.577350269189625,0.577350269189625));
#771=DIRECTION('',(-1.,1.33862610354215E-16,0.));
#772=DIRECTION('',(-0.577350269189626,0.577350269189626,-0.577350269189626));
#773=DIRECTION('center_axis',(-0.707106781186548,-0.707106781186547,0.));
#774=DIRECTION('ref_axis',(0.,0.,1.));
#775=DIRECTION('',(0.,0.,1.));
#776=DIRECTION('',(0.577350269189626,-0.577350269189626,-0.577350269189626));
#777=DIRECTION('',(0.577350269189626,-0.577350269189626,0.577350269189626));
#778=DIRECTION('',(0.,0.,-1.));
#779=DIRECTION('center_axis',(-1.33862610354201E-16,1.,0.));
#780=DIRECTION('ref_axis',(1.,1.33862610354201E-16,0.));
#781=DIRECTION('',(-1.,-1.33862610354201E-16,0.));
#782=DIRECTION('center_axis',(-9.46551595287883E-17,0.707106781186548,0.707106781186547));
#783=DIRECTION('ref_axis',(1.,0.,1.33862610354201E-16));
#784=DIRECTION('',(-0.577350269189626,0.577350269189626,-0.577350269189626));
#785=DIRECTION('',(1.,1.33862610354201E-16,0.));
#786=DIRECTION('',(-0.577350269189627,-0.577350269189625,0.577350269189625));
#787=DIRECTION('center_axis',(-0.707106781186548,-2.0078241636859E-29,0.707106781186547));
#788=DIRECTION('ref_axis',(0.707106781186547,0.,0.707106781186548));
#789=DIRECTION('',(2.83949216314502E-29,-1.,0.));
#790=DIRECTION('',(0.577350269189626,0.577350269189626,0.577350269189626));
#791=DIRECTION('',(-2.83949216314502E-29,1.,0.));
#792=DIRECTION('center_axis',(0.,0.,1.));
#793=DIRECTION('ref_axis',(1.,0.,0.));
#794=DIRECTION('',(-1.,1.33862610354215E-16,0.));
#795=DIRECTION('',(0.,-1.,0.));
#796=DIRECTION('center_axis',(-9.46551595287981E-17,-0.707106781186548,
0.707106781186548));
#797=DIRECTION('ref_axis',(1.,0.,1.33862610354215E-16));
#798=DIRECTION('',(1.,-1.33862610354215E-16,0.));
#799=DIRECTION('',(0.577350269189627,0.577350269189625,0.577350269189625));
#800=DIRECTION('',(-0.577350269189627,0.577350269189625,0.577350269189625));
#801=DIRECTION('center_axis',(0.707106781186547,0.,0.707106781186548));
#802=DIRECTION('ref_axis',(0.707106781186548,0.,-0.707106781186547));
#803=DIRECTION('',(0.577350269189627,0.577350269189625,-0.577350269189626));
#804=DIRECTION('',(0.,1.,0.));
#805=DIRECTION('center_axis',(-1.33862610354215E-16,-1.,0.));
#806=DIRECTION('ref_axis',(-1.,1.33862610354215E-16,0.));
#807=DIRECTION('',(0.,0.,-1.));
#808=DIRECTION('center_axis',(0.707106781186546,-0.707106781186549,0.));
#809=DIRECTION('ref_axis',(0.,0.,-1.));
#810=DIRECTION('',(0.,0.,1.));
#811=DIRECTION('center_axis',(1.,0.,0.));
#812=DIRECTION('ref_axis',(0.,-1.,0.));
#813=DIRECTION('center_axis',(1.48029736616688E-16,-1.,0.));
#814=DIRECTION('ref_axis',(-1.,-1.48029736616688E-16,0.));
#815=DIRECTION('',(0.,0.,1.));
#816=DIRECTION('',(1.,1.48029736616688E-16,0.));
#817=DIRECTION('',(0.,0.,1.));
#818=DIRECTION('center_axis',(-1.,0.,0.));
#819=DIRECTION('ref_axis',(0.,1.,0.));
#820=DIRECTION('',(0.,0.,-1.));
#821=DIRECTION('',(0.,-1.,0.));
#822=DIRECTION('center_axis',(1.29526019539602E-16,1.,0.));
#823=DIRECTION('ref_axis',(1.,-1.29526019539602E-16,0.));
#824=DIRECTION('',(0.,0.,1.));
#825=DIRECTION('',(-1.,1.29526019539602E-16,0.));
#826=DIRECTION('',(0.,0.,1.));
#827=DIRECTION('center_axis',(1.,0.,0.));
#828=DIRECTION('ref_axis',(0.,-1.,0.));
#829=DIRECTION('',(0.,0.,1.));
#830=DIRECTION('',(0.,1.,0.));
#831=DIRECTION('center_axis',(1.29526019539602E-16,1.,0.));
#832=DIRECTION('ref_axis',(1.,-1.29526019539602E-16,0.));
#833=DIRECTION('',(0.,0.,1.));
#834=DIRECTION('',(-1.,1.29526019539602E-16,0.));
#835=DIRECTION('center_axis',(1.,0.,0.));
#836=DIRECTION('ref_axis',(0.,-1.,0.));
#837=DIRECTION('',(0.,1.,0.));
#838=DIRECTION('center_axis',(1.48029736616688E-16,-1.,0.));
#839=DIRECTION('ref_axis',(-1.,-1.48029736616688E-16,0.));
#840=DIRECTION('',(0.,0.,-1.));
#841=DIRECTION('',(1.,1.48029736616688E-16,0.));
#842=DIRECTION('center_axis',(-1.,0.,0.));
#843=DIRECTION('ref_axis',(0.,1.,0.));
#844=DIRECTION('',(0.,-1.,0.));
#845=DIRECTION('center_axis',(-1.,-2.83949216314502E-29,0.));
#846=DIRECTION('ref_axis',(-2.83949216314502E-29,1.,0.));
#847=DIRECTION('center_axis',(0.,0.,-1.));
#848=DIRECTION('ref_axis',(-1.,0.,0.));
#849=DIRECTION('center_axis',(0.,0.,-1.));
#850=DIRECTION('ref_axis',(-1.,0.,0.));
#851=CARTESIAN_POINT('',(0.,0.,0.));
#852=CARTESIAN_POINT('Origin',(4.58070866141732,0.643700787401574,-5.45137431330062));
#853=CARTESIAN_POINT('',(4.47220866141732,0.643700787401574,0.));
#854=CARTESIAN_POINT('Origin',(4.58070866141732,0.643700787401574,0.));
#855=CARTESIAN_POINT('',(4.47220866141732,0.643700787401574,-0.75));
#856=CARTESIAN_POINT('',(4.47220866141732,0.643700787401574,-5.45137431330062));
#857=CARTESIAN_POINT('Origin',(4.58070866141732,0.643700787401574,-0.75));
#858=CARTESIAN_POINT('Origin',(3.79330708661417,0.643700787401574,-5.45137431330062));
#859=CARTESIAN_POINT('',(3.68480708661417,0.643700787401574,0.));
#860=CARTESIAN_POINT('Origin',(3.79330708661417,0.643700787401574,0.));
#861=CARTESIAN_POINT('',(3.68480708661417,0.643700787401574,-0.75));
#862=CARTESIAN_POINT('',(3.68480708661417,0.643700787401574,-5.45137431330062));
#863=CARTESIAN_POINT('Origin',(3.79330708661417,0.643700787401574,-0.75));
#864=CARTESIAN_POINT('Origin',(1.43110236220472,0.643700787401574,-5.45137431330062));
#865=CARTESIAN_POINT('',(1.32260236220472,0.643700787401574,0.));
#866=CARTESIAN_POINT('Origin',(1.43110236220472,0.643700787401574,0.));
#867=CARTESIAN_POINT('',(1.32260236220472,0.643700787401574,-0.75));
#868=CARTESIAN_POINT('',(1.32260236220472,0.643700787401574,-5.45137431330062));
#869=CARTESIAN_POINT('Origin',(1.43110236220472,0.643700787401574,-0.75));
#870=CARTESIAN_POINT('Origin',(0.643700787401575,0.643700787401574,-5.45137431330062));
#871=CARTESIAN_POINT('',(0.535200787401575,0.643700787401574,0.));
#872=CARTESIAN_POINT('Origin',(0.643700787401575,0.643700787401574,0.));
#873=CARTESIAN_POINT('',(0.535200787401575,0.643700787401574,-0.75));
#874=CARTESIAN_POINT('',(0.535200787401575,0.643700787401574,-5.45137431330062));
#875=CARTESIAN_POINT('Origin',(0.643700787401575,0.643700787401574,-0.75));
#876=CARTESIAN_POINT('Origin',(5.1619094488189,0.965551181102362,-0.8125));
#877=CARTESIAN_POINT('',(5.1619094488189,1.22490157480315,-0.8125));
#878=CARTESIAN_POINT('',(5.2244094488189,1.16240157480315,-0.75));
#879=CARTESIAN_POINT('',(5.34055118110236,1.04625984251968,-0.633858267716536));
#880=CARTESIAN_POINT('',(5.2244094488189,0.124999999999999,-0.75));
#881=CARTESIAN_POINT('',(5.2244094488189,0.965551181102362,-0.75));
#882=CARTESIAN_POINT('',(5.1619094488189,0.0624999999999991,-0.8125));
#883=CARTESIAN_POINT('',(5.44783464566929,0.348425196850392,-0.526574803149607));
#884=CARTESIAN_POINT('',(5.0994094488189,0.124999999999999,-0.875));
#885=CARTESIAN_POINT('',(4.80413385826772,0.420275590551181,-1.17027559055118));
#886=CARTESIAN_POINT('',(5.0994094488189,1.16240157480315,-0.875));
#887=CARTESIAN_POINT('',(5.0994094488189,0.965551181102362,-0.875));
#888=CARTESIAN_POINT('',(4.4760498687664,0.539041994750656,-1.49835958005249));
#889=CARTESIAN_POINT('Origin',(5.1619094488189,1.22490157480315,0.));
#890=CARTESIAN_POINT('',(5.0994094488189,1.28740157480315,-0.75));
#891=CARTESIAN_POINT('',(4.38385826771653,2.00295275590551,-0.0344488188976368));
#892=CARTESIAN_POINT('',(5.0994094488189,1.28740157480315,-0.125));
#893=CARTESIAN_POINT('',(5.0994094488189,1.28740157480315,0.));
#894=CARTESIAN_POINT('',(5.1619094488189,1.22490157480315,-0.0624999999999997));
#895=CARTESIAN_POINT('',(4.52969160104987,1.85711942257218,-0.69471784776903));
#896=CARTESIAN_POINT('',(5.2244094488189,1.16240157480315,-0.125));
#897=CARTESIAN_POINT('',(5.19471784776903,1.19209317585302,-0.0953083989501311));
#898=CARTESIAN_POINT('',(5.2244094488189,1.16240157480315,0.));
#899=CARTESIAN_POINT('Origin',(1.30610236220472,1.22490157480315,-0.8125));
#900=CARTESIAN_POINT('',(0.125,1.16240157480315,-0.875));
#901=CARTESIAN_POINT('',(1.30610236220472,1.16240157480315,-0.875));
#902=CARTESIAN_POINT('',(0.0624999999999999,1.22490157480315,-0.8125));
#903=CARTESIAN_POINT('',(0.420275590551181,0.867125984251968,-1.17027559055118));
#904=CARTESIAN_POINT('',(0.125,1.28740157480315,-0.75));
#905=CARTESIAN_POINT('',(0.405183727034121,1.56758530183727,-0.469816272965879));
#906=CARTESIAN_POINT('',(1.30610236220472,1.28740157480315,-0.75));
#907=CARTESIAN_POINT('Origin',(2.61220472440945,0.643700787401574,-0.875));
#908=CARTESIAN_POINT('',(0.125,0.125,-0.875));
#909=CARTESIAN_POINT('',(3.91830708661417,0.124999999999999,-0.875));
#910=CARTESIAN_POINT('',(0.125,0.321850393700787,-0.875));
#911=CARTESIAN_POINT('',(1.82874015748031,0.246062992125984,-0.875));
#912=CARTESIAN_POINT('',(0.246062992125984,0.246062992125984,-0.875));
#913=CARTESIAN_POINT('',(1.43110236220472,0.246062992125984,-0.875));
#914=CARTESIAN_POINT('',(1.82874015748031,1.04133858267716,-0.875));
#915=CARTESIAN_POINT('',(1.82874015748031,0.446850393700787,-0.875));
#916=CARTESIAN_POINT('',(0.246062992125984,1.04133858267716,-0.875));
#917=CARTESIAN_POINT('',(2.21850393700787,1.04133858267716,-0.875));
#918=CARTESIAN_POINT('',(0.246062992125984,0.840551181102361,-0.875));
#919=CARTESIAN_POINT('',(3.39566929133858,1.04133858267716,-0.875));
#920=CARTESIAN_POINT('',(4.97834645669291,1.04133858267716,-0.875));
#921=CARTESIAN_POINT('',(3.79330708661417,1.04133858267716,-0.875));
#922=CARTESIAN_POINT('',(3.39566929133858,0.246062992125984,-0.875));
#923=CARTESIAN_POINT('',(3.39566929133858,0.840551181102361,-0.875));
#924=CARTESIAN_POINT('',(4.97834645669291,0.246062992125984,-0.875));
#925=CARTESIAN_POINT('',(3.00590551181102,0.246062992125984,-0.875));
#926=CARTESIAN_POINT('',(4.97834645669291,0.446850393700787,-0.875));
#927=CARTESIAN_POINT('Origin',(0.0625,0.321850393700787,-0.8125));
#928=CARTESIAN_POINT('',(0.0624999999999997,0.0625,-0.8125));
#929=CARTESIAN_POINT('',(0.,0.125,-0.75));
#930=CARTESIAN_POINT('',(-0.116141732283465,0.241141732283465,-0.633858267716536));
#931=CARTESIAN_POINT('',(0.,1.16240157480315,-0.75));
#932=CARTESIAN_POINT('',(0.,0.321850393700787,-0.75));
#933=CARTESIAN_POINT('',(-0.223425196850394,0.938976377952755,-0.526574803149606));
#934=CARTESIAN_POINT('',(0.748359580052493,0.748359580052493,-1.49835958005249));
#935=CARTESIAN_POINT('Origin',(0.0625,1.22490157480315,0.));
#936=CARTESIAN_POINT('',(-2.38673849146244E-29,1.16240157480315,-0.125));
#937=CARTESIAN_POINT('',(0.,1.16240157480315,0.));
#938=CARTESIAN_POINT('',(0.0624999999999999,1.22490157480315,-0.0625));
#939=CARTESIAN_POINT('',(-0.0775918635170602,1.08480971128609,-0.20259186351706));
#940=CARTESIAN_POINT('',(0.125,1.28740157480315,-0.125));
#941=CARTESIAN_POINT('',(0.259350393700787,1.42175196850394,-0.259350393700787));
#942=CARTESIAN_POINT('',(0.125,1.28740157480315,0.));
#943=CARTESIAN_POINT('Origin',(3.91830708661417,0.0624999999999995,-0.8125));
#944=CARTESIAN_POINT('',(5.0994094488189,-6.77498302428737E-16,-0.75));
#945=CARTESIAN_POINT('',(4.81922572178478,-0.280183727034121,-0.469816272965879));
#946=CARTESIAN_POINT('',(0.125,-2.18547839493141E-17,-0.75));
#947=CARTESIAN_POINT('',(3.91830708661417,-5.24514814783538E-16,-0.75));
#948=CARTESIAN_POINT('',(0.840551181102361,-0.715551181102362,-0.0344488188976378));
#949=CARTESIAN_POINT('Origin',(0.0625,0.0625,0.));
#950=CARTESIAN_POINT('',(0.125,-2.18547839493141E-17,-0.125));
#951=CARTESIAN_POINT('',(0.125,-2.18547839493141E-17,0.));
#952=CARTESIAN_POINT('',(0.0624999999999996,0.0625000000000001,-0.0625000000000001));
#953=CARTESIAN_POINT('',(0.694717847769028,-0.569717847769029,-0.694717847769029));
#954=CARTESIAN_POINT('',(0.,0.125,-0.125));
#955=CARTESIAN_POINT('',(0.0296916010498688,0.0953083989501312,-0.0953083989501312));
#956=CARTESIAN_POINT('',(0.,0.125,0.));
#957=CARTESIAN_POINT('Origin',(0.,1.28740157480315,0.));
#958=CARTESIAN_POINT('',(1.30610236220472,1.28740157480315,-0.125));
#959=CARTESIAN_POINT('Origin',(1.30610236220472,1.22490157480315,-0.0625));
#960=CARTESIAN_POINT('',(0.125,1.16240157480315,0.));
#961=CARTESIAN_POINT('',(0.420275590551181,0.867125984251967,0.295275590551181));
#962=CARTESIAN_POINT('',(5.0994094488189,1.16240157480315,0.));
#963=CARTESIAN_POINT('',(1.30610236220472,1.16240157480315,0.));
#964=CARTESIAN_POINT('',(4.4760498687664,0.539041994750655,0.623359580052494));
#965=CARTESIAN_POINT('Origin',(0.0625,0.321850393700787,-0.0625));
#966=CARTESIAN_POINT('',(0.,0.321850393700787,-0.125));
#967=CARTESIAN_POINT('',(0.125,0.125,0.));
#968=CARTESIAN_POINT('',(0.748359580052493,0.748359580052493,0.623359580052493));
#969=CARTESIAN_POINT('',(0.125,0.321850393700787,0.));
#970=CARTESIAN_POINT('Origin',(2.61220472440945,0.643700787401574,0.));
#971=CARTESIAN_POINT('',(5.0994094488189,0.124999999999999,0.));
#972=CARTESIAN_POINT('',(3.91830708661417,0.124999999999999,0.));
#973=CARTESIAN_POINT('',(5.0994094488189,0.965551181102362,0.));
#974=CARTESIAN_POINT('Origin',(3.91830708661417,0.0624999999999995,-0.0625));
#975=CARTESIAN_POINT('',(5.0994094488189,-6.77498302428737E-16,-0.125));
#976=CARTESIAN_POINT('',(3.91830708661417,-5.24514814783538E-16,-0.125));
#977=CARTESIAN_POINT('',(5.1619094488189,0.0624999999999995,-0.0624999999999999));
#978=CARTESIAN_POINT('',(4.96505905511811,-0.134350393700788,-0.259350393700788));
#979=CARTESIAN_POINT('',(4.80413385826772,0.42027559055118,0.295275590551181));
#980=CARTESIAN_POINT('Origin',(5.1619094488189,0.965551181102362,-0.0625));
#981=CARTESIAN_POINT('',(5.2244094488189,0.124999999999999,-0.125));
#982=CARTESIAN_POINT('',(5.30200131233596,0.20259186351706,-0.20259186351706));
#983=CARTESIAN_POINT('',(5.2244094488189,0.965551181102362,-0.125));
#984=CARTESIAN_POINT('Origin',(5.2244094488189,-6.99353086378124E-16,0.));
#985=CARTESIAN_POINT('',(5.0994094488189,-6.77498302428737E-16,0.));
#986=CARTESIAN_POINT('Origin',(5.1619094488189,0.0624999999999993,0.));
#987=CARTESIAN_POINT('',(5.2244094488189,0.124999999999999,0.));
#988=CARTESIAN_POINT('Origin',(5.2244094488189,1.28740157480315,0.));
#989=CARTESIAN_POINT('Origin',(1.8248031496063,1.04133858267716,0.));
#990=CARTESIAN_POINT('',(1.82874015748031,1.04133858267716,-0.75));
#991=CARTESIAN_POINT('',(1.82874015748031,1.04133858267716,0.));
#992=CARTESIAN_POINT('',(0.246062992125984,1.04133858267716,-0.75));
#993=CARTESIAN_POINT('',(2.21850393700787,1.04133858267716,-0.75));
#994=CARTESIAN_POINT('',(0.246062992125984,1.04133858267716,0.));
#995=CARTESIAN_POINT('Origin',(1.82874015748031,0.25,0.));
#996=CARTESIAN_POINT('',(1.82874015748031,0.246062992125984,-0.75));
#997=CARTESIAN_POINT('',(1.82874015748031,0.246062992125984,0.));
#998=CARTESIAN_POINT('',(1.82874015748031,0.446850393700787,-0.75));
#999=CARTESIAN_POINT('Origin',(3.3996062992126,0.246062992125984,0.));
#1000=CARTESIAN_POINT('',(3.39566929133858,0.246062992125984,-0.75));
#1001=CARTESIAN_POINT('',(3.39566929133858,0.246062992125984,0.));
#1002=CARTESIAN_POINT('',(4.97834645669291,0.246062992125984,-0.75));
#1003=CARTESIAN_POINT('',(3.00590551181102,0.246062992125984,-0.75));
#1004=CARTESIAN_POINT('',(4.97834645669291,0.246062992125984,0.));
#1005=CARTESIAN_POINT('Origin',(3.39566929133858,1.03740157480315,0.));
#1006=CARTESIAN_POINT('',(3.39566929133858,1.04133858267716,-0.75));
#1007=CARTESIAN_POINT('',(3.39566929133858,1.04133858267716,0.));
#1008=CARTESIAN_POINT('',(3.39566929133858,0.840551181102361,-0.75));
#1009=CARTESIAN_POINT('Origin',(0.25,0.246062992125984,0.));
#1010=CARTESIAN_POINT('',(0.246062992125984,0.246062992125984,-0.75));
#1011=CARTESIAN_POINT('',(0.246062992125984,0.246062992125984,0.));
#1012=CARTESIAN_POINT('',(1.43110236220472,0.246062992125984,-0.75));
#1013=CARTESIAN_POINT('Origin',(0.246062992125984,1.03740157480315,0.));
#1014=CARTESIAN_POINT('',(0.246062992125984,0.840551181102361,-0.75));
#1015=CARTESIAN_POINT('Origin',(4.9744094488189,1.04133858267716,0.));
#1016=CARTESIAN_POINT('',(4.97834645669291,1.04133858267716,-0.75));
#1017=CARTESIAN_POINT('',(4.97834645669291,1.04133858267716,0.));
#1018=CARTESIAN_POINT('',(3.79330708661417,1.04133858267716,-0.75));
#1019=CARTESIAN_POINT('Origin',(4.97834645669291,0.249999999999999,0.));
#1020=CARTESIAN_POINT('',(4.97834645669291,0.446850393700787,-0.75));
#1021=CARTESIAN_POINT('Origin',(4.41353847031438E-45,0.,0.));
#1022=CARTESIAN_POINT('Origin',(2.61220472440945,0.643700787401574,-0.75));
#1023=CARTESIAN_POINT('Origin',(2.61220472440945,0.643700787401574,-0.75));
#1024=UNCERTAINTY_MEASURE_WITH_UNIT(LENGTH_MEASURE(0.000393700787401575),
#1030,'DISTANCE_ACCURACY_VALUE',
'Maximum model space distance between geometric entities at asserted c
onnectivities');
#1025=UNCERTAINTY_MEASURE_WITH_UNIT(LENGTH_MEASURE(0.000393700787401575),
#1030,'DISTANCE_ACCURACY_VALUE',
'Maximum model space distance between geometric entities at asserted c
onnectivities');
#1026=(
GEOMETRIC_REPRESENTATION_CONTEXT(3)
GLOBAL_UNCERTAINTY_ASSIGNED_CONTEXT((#1024))
GLOBAL_UNIT_ASSIGNED_CONTEXT((#1030,#1034,#1035))
REPRESENTATION_CONTEXT('','3D')
);
#1027=(
GEOMETRIC_REPRESENTATION_CONTEXT(3)
GLOBAL_UNCERTAINTY_ASSIGNED_CONTEXT((#1025))
GLOBAL_UNIT_ASSIGNED_CONTEXT((#1030,#1034,#1035))
REPRESENTATION_CONTEXT('','3D')
);
#1028=DIMENSIONAL_EXPONENTS(1.,0.,0.,0.,0.,0.,0.);
#1029=DIMENSIONAL_EXPONENTS(0.,1.,0.,0.,0.,0.,0.);
#1030=(
CONVERSION_BASED_UNIT('inch',#1033)
LENGTH_UNIT()
NAMED_UNIT(#1028)
);
#1031=(
LENGTH_UNIT()
NAMED_UNIT(*)
SI_UNIT(.MILLI.,.METRE.)
);
#1032=(
LENGTH_UNIT()
NAMED_UNIT(*)
SI_UNIT(.CENTI.,.METRE.)
);
#1033=LENGTH_MEASURE_WITH_UNIT(LENGTH_MEASURE(25.4),#1031);
#1034=(
NAMED_UNIT(*)
PLANE_ANGLE_UNIT()
SI_UNIT($,.RADIAN.)
);
#1035=(
NAMED_UNIT(*)
SI_UNIT($,.STERADIAN.)
SOLID_ANGLE_UNIT()
);
#1036=SHAPE_DEFINITION_REPRESENTATION(#1037,#1038);
#1037=PRODUCT_DEFINITION_SHAPE('',$,#1040);
#1038=SHAPE_REPRESENTATION('',(#652),#1026);
#1039=PRODUCT_DEFINITION_CONTEXT('part definition',#1044,'design');
#1040=PRODUCT_DEFINITION('Extrusion Sides','Extrusion Sides',#1041,#1039);
#1041=PRODUCT_DEFINITION_FORMATION('',$,#1046);
#1042=PRODUCT_RELATED_PRODUCT_CATEGORY('Extrusion Sides',
'Extrusion Sides',(#1046));
#1043=APPLICATION_PROTOCOL_DEFINITION('international standard',
'automotive_design',2009,#1044);
#1044=APPLICATION_CONTEXT(
'Core Data for Automotive Mechanical Design Process');
#1045=PRODUCT_CONTEXT('part definition',#1044,'mechanical');
#1046=PRODUCT('Extrusion Sides','Extrusion Sides',$,(#1045));
#1047=PRESENTATION_STYLE_ASSIGNMENT((#1048));
#1048=SURFACE_STYLE_USAGE(.BOTH.,#1051);
#1049=SURFACE_STYLE_RENDERING_WITH_PROPERTIES($,#1055,(#1050));
#1050=SURFACE_STYLE_TRANSPARENT(0.);
#1051=SURFACE_SIDE_STYLE('',(#1052,#1049));
#1052=SURFACE_STYLE_FILL_AREA(#1053);
#1053=FILL_AREA_STYLE('',(#1054));
#1054=FILL_AREA_STYLE_COLOUR('',#1055);
#1055=COLOUR_RGB('',0.0196078431372549,0.0196078431372549,0.0196078431372549);
ENDSEC;
END-ISO-10303-21;
