ISO-10303-21;
HEADER;
/* Generated by software containing ST-Developer
 * from STEP Tools, Inc. (www.steptools.com) 
 */

FILE_DESCRIPTION(
/* description */ (''),
/* implementation_level */ '2;1');

FILE_NAME(
/* name */ 'Fixed Jaw (M3).stp',
/* time_stamp */ '2026-07-24T21:34:33-04:00',
/* author */ ('JoshuaEah'),
/* organization */ (''),
/* preprocessor_version */ 'ST-DEVELOPER v20.1',
/* originating_system */ 'Autodesk Inventor 2026',
/* authorisation */ '');

FILE_SCHEMA (('AUTOMOTIVE_DESIGN { 1 0 10303 214 3 1 1 }'));
ENDSEC;

DATA;
#10=MECHANICAL_DESIGN_GEOMETRIC_PRESENTATION_REPRESENTATION('',(#13),#1226);
#11=SHAPE_REPRESENTATION_RELATIONSHIP('SRR','None',#1237,#12);
#12=ADVANCED_BREP_SHAPE_REPRESENTATION('',(#14),#1225);
#13=STYLED_ITEM('',(#1246),#14);
#14=MANIFOLD_SOLID_BREP('Solid1',#746);
#15=CYLINDRICAL_SURFACE('',#773,0.128);
#16=CYLINDRICAL_SURFACE('',#811,0.067);
#17=CYLINDRICAL_SURFACE('',#820,0.067);
#18=FACE_BOUND('',#116,.T.);
#19=FACE_BOUND('',#151,.T.);
#20=FACE_BOUND('',#152,.T.);
#21=FACE_BOUND('',#154,.T.);
#22=FACE_BOUND('',#163,.T.);
#23=FACE_BOUND('',#166,.T.);
#24=PLANE('',#772);
#25=PLANE('',#775);
#26=PLANE('',#776);
#27=PLANE('',#777);
#28=PLANE('',#778);
#29=PLANE('',#779);
#30=PLANE('',#780);
#31=PLANE('',#781);
#32=PLANE('',#782);
#33=PLANE('',#783);
#34=PLANE('',#784);
#35=PLANE('',#785);
#36=PLANE('',#786);
#37=PLANE('',#787);
#38=PLANE('',#788);
#39=PLANE('',#789);
#40=PLANE('',#790);
#41=PLANE('',#791);
#42=PLANE('',#792);
#43=PLANE('',#793);
#44=PLANE('',#794);
#45=PLANE('',#795);
#46=PLANE('',#796);
#47=PLANE('',#797);
#48=PLANE('',#798);
#49=PLANE('',#799);
#50=PLANE('',#800);
#51=PLANE('',#801);
#52=PLANE('',#802);
#53=PLANE('',#803);
#54=PLANE('',#804);
#55=PLANE('',#805);
#56=PLANE('',#806);
#57=PLANE('',#807);
#58=PLANE('',#809);
#59=PLANE('',#812);
#60=PLANE('',#813);
#61=PLANE('',#814);
#62=PLANE('',#815);
#63=PLANE('',#816);
#64=PLANE('',#817);
#65=PLANE('',#818);
#66=PLANE('',#822);
#67=FACE_OUTER_BOUND('',#114,.T.);
#68=FACE_OUTER_BOUND('',#115,.T.);
#69=FACE_OUTER_BOUND('',#117,.T.);
#70=FACE_OUTER_BOUND('',#118,.T.);
#71=FACE_OUTER_BOUND('',#119,.T.);
#72=FACE_OUTER_BOUND('',#120,.T.);
#73=FACE_OUTER_BOUND('',#121,.T.);
#74=FACE_OUTER_BOUND('',#122,.T.);
#75=FACE_OUTER_BOUND('',#123,.T.);
#76=FACE_OUTER_BOUND('',#124,.T.);
#77=FACE_OUTER_BOUND('',#125,.T.);
#78=FACE_OUTER_BOUND('',#126,.T.);
#79=FACE_OUTER_BOUND('',#127,.T.);
#80=FACE_OUTER_BOUND('',#128,.T.);
#81=FACE_OUTER_BOUND('',#129,.T.);
#82=FACE_OUTER_BOUND('',#130,.T.);
#83=FACE_OUTER_BOUND('',#131,.T.);
#84=FACE_OUTER_BOUND('',#132,.T.);
#85=FACE_OUTER_BOUND('',#133,.T.);
#86=FACE_OUTER_BOUND('',#134,.T.);
#87=FACE_OUTER_BOUND('',#135,.T.);
#88=FACE_OUTER_BOUND('',#136,.T.);
#89=FACE_OUTER_BOUND('',#137,.T.);
#90=FACE_OUTER_BOUND('',#138,.T.);
#91=FACE_OUTER_BOUND('',#139,.T.);
#92=FACE_OUTER_BOUND('',#140,.T.);
#93=FACE_OUTER_BOUND('',#141,.T.);
#94=FACE_OUTER_BOUND('',#142,.T.);
#95=FACE_OUTER_BOUND('',#143,.T.);
#96=FACE_OUTER_BOUND('',#144,.T.);
#97=FACE_OUTER_BOUND('',#145,.T.);
#98=FACE_OUTER_BOUND('',#146,.T.);
#99=FACE_OUTER_BOUND('',#147,.T.);
#100=FACE_OUTER_BOUND('',#148,.T.);
#101=FACE_OUTER_BOUND('',#149,.T.);
#102=FACE_OUTER_BOUND('',#150,.T.);
#103=FACE_OUTER_BOUND('',#153,.T.);
#104=FACE_OUTER_BOUND('',#155,.T.);
#105=FACE_OUTER_BOUND('',#156,.T.);
#106=FACE_OUTER_BOUND('',#157,.T.);
#107=FACE_OUTER_BOUND('',#158,.T.);
#108=FACE_OUTER_BOUND('',#159,.T.);
#109=FACE_OUTER_BOUND('',#160,.T.);
#110=FACE_OUTER_BOUND('',#161,.T.);
#111=FACE_OUTER_BOUND('',#162,.T.);
#112=FACE_OUTER_BOUND('',#164,.T.);
#113=FACE_OUTER_BOUND('',#165,.T.);
#114=EDGE_LOOP('',(#504,#505,#506,#507,#508));
#115=EDGE_LOOP('',(#509,#510,#511,#512));
#116=EDGE_LOOP('',(#513));
#117=EDGE_LOOP('',(#514,#515,#516,#517,#518));
#118=EDGE_LOOP('',(#519,#520,#521));
#119=EDGE_LOOP('',(#522,#523,#524));
#120=EDGE_LOOP('',(#525,#526,#527,#528));
#121=EDGE_LOOP('',(#529,#530,#531));
#122=EDGE_LOOP('',(#532,#533,#534));
#123=EDGE_LOOP('',(#535,#536,#537));
#124=EDGE_LOOP('',(#538,#539,#540));
#125=EDGE_LOOP('',(#541,#542,#543,#544));
#126=EDGE_LOOP('',(#545,#546,#547));
#127=EDGE_LOOP('',(#548,#549,#550,#551));
#128=EDGE_LOOP('',(#552,#553,#554));
#129=EDGE_LOOP('',(#555,#556,#557));
#130=EDGE_LOOP('',(#558,#559,#560));
#131=EDGE_LOOP('',(#561,#562,#563,#564));
#132=EDGE_LOOP('',(#565,#566,#567,#568));
#133=EDGE_LOOP('',(#569,#570,#571,#572));
#134=EDGE_LOOP('',(#573,#574,#575,#576));
#135=EDGE_LOOP('',(#577,#578,#579,#580));
#136=EDGE_LOOP('',(#581,#582,#583,#584));
#137=EDGE_LOOP('',(#585,#586,#587,#588));
#138=EDGE_LOOP('',(#589,#590,#591,#592));
#139=EDGE_LOOP('',(#593,#594,#595,#596));
#140=EDGE_LOOP('',(#597,#598,#599,#600));
#141=EDGE_LOOP('',(#601,#602,#603,#604));
#142=EDGE_LOOP('',(#605,#606,#607,#608));
#143=EDGE_LOOP('',(#609,#610,#611,#612));
#144=EDGE_LOOP('',(#613,#614,#615,#616));
#145=EDGE_LOOP('',(#617,#618,#619,#620));
#146=EDGE_LOOP('',(#621,#622,#623,#624));
#147=EDGE_LOOP('',(#625,#626,#627,#628,#629,#630));
#148=EDGE_LOOP('',(#631,#632,#633,#634,#635,#636));
#149=EDGE_LOOP('',(#637,#638,#639,#640));
#150=EDGE_LOOP('',(#641,#642,#643,#644));
#151=EDGE_LOOP('',(#645,#646,#647,#648,#649,#650));
#152=EDGE_LOOP('',(#651));
#153=EDGE_LOOP('',(#652));
#154=EDGE_LOOP('',(#653));
#155=EDGE_LOOP('',(#654,#655,#656,#657));
#156=EDGE_LOOP('',(#658,#659,#660,#661));
#157=EDGE_LOOP('',(#662,#663,#664,#665));
#158=EDGE_LOOP('',(#666,#667,#668,#669));
#159=EDGE_LOOP('',(#670,#671,#672,#673));
#160=EDGE_LOOP('',(#674,#675,#676,#677));
#161=EDGE_LOOP('',(#678,#679,#680,#681));
#162=EDGE_LOOP('',(#682,#683,#684,#685,#686,#687));
#163=EDGE_LOOP('',(#688));
#164=EDGE_LOOP('',(#689,#690,#691,#692));
#165=EDGE_LOOP('',(#693,#694,#695,#696));
#166=EDGE_LOOP('',(#697));
#167=LINE('',#1029,#256);
#168=LINE('',#1036,#257);
#169=LINE('',#1038,#258);
#170=LINE('',#1040,#259);
#171=LINE('',#1041,#260);
#172=LINE('',#1044,#261);
#173=LINE('',#1049,#262);
#174=LINE('',#1051,#263);
#175=LINE('',#1052,#264);
#176=LINE('',#1055,#265);
#177=LINE('',#1057,#266);
#178=LINE('',#1058,#267);
#179=LINE('',#1060,#268);
#180=LINE('',#1061,#269);
#181=LINE('',#1065,#270);
#182=LINE('',#1067,#271);
#183=LINE('',#1068,#272);
#184=LINE('',#1072,#273);
#185=LINE('',#1074,#274);
#186=LINE('',#1075,#275);
#187=LINE('',#1078,#276);
#188=LINE('',#1080,#277);
#189=LINE('',#1081,#278);
#190=LINE('',#1084,#279);
#191=LINE('',#1086,#280);
#192=LINE('',#1087,#281);
#193=LINE('',#1089,#282);
#194=LINE('',#1090,#283);
#195=LINE('',#1094,#284);
#196=LINE('',#1096,#285);
#197=LINE('',#1097,#286);
#198=LINE('',#1100,#287);
#199=LINE('',#1102,#288);
#200=LINE('',#1103,#289);
#201=LINE('',#1107,#290);
#202=LINE('',#1109,#291);
#203=LINE('',#1110,#292);
#204=LINE('',#1113,#293);
#205=LINE('',#1115,#294);
#206=LINE('',#1116,#295);
#207=LINE('',#1120,#296);
#208=LINE('',#1122,#297);
#209=LINE('',#1123,#298);
#210=LINE('',#1126,#299);
#211=LINE('',#1128,#300);
#212=LINE('',#1129,#301);
#213=LINE('',#1131,#302);
#214=LINE('',#1132,#303);
#215=LINE('',#1134,#304);
#216=LINE('',#1135,#305);
#217=LINE('',#1137,#306);
#218=LINE('',#1138,#307);
#219=LINE('',#1140,#308);
#220=LINE('',#1142,#309);
#221=LINE('',#1144,#310);
#222=LINE('',#1145,#311);
#223=LINE('',#1147,#312);
#224=LINE('',#1148,#313);
#225=LINE('',#1150,#314);
#226=LINE('',#1151,#315);
#227=LINE('',#1153,#316);
#228=LINE('',#1155,#317);
#229=LINE('',#1156,#318);
#230=LINE('',#1158,#319);
#231=LINE('',#1160,#320);
#232=LINE('',#1161,#321);
#233=LINE('',#1163,#322);
#234=LINE('',#1164,#323);
#235=LINE('',#1166,#324);
#236=LINE('',#1174,#325);
#237=LINE('',#1176,#326);
#238=LINE('',#1178,#327);
#239=LINE('',#1180,#328);
#240=LINE('',#1182,#329);
#241=LINE('',#1183,#330);
#242=LINE('',#1190,#331);
#243=LINE('',#1193,#332);
#244=LINE('',#1195,#333);
#245=LINE('',#1196,#334);
#246=LINE('',#1199,#335);
#247=LINE('',#1200,#336);
#248=LINE('',#1203,#337);
#249=LINE('',#1204,#338);
#250=LINE('',#1207,#339);
#251=LINE('',#1208,#340);
#252=LINE('',#1211,#341);
#253=LINE('',#1212,#342);
#254=LINE('',#1214,#343);
#255=LINE('',#1221,#344);
#256=VECTOR('',#829,0.139811023622047);
#257=VECTOR('',#836,0.393700787401575);
#258=VECTOR('',#837,0.393700787401575);
#259=VECTOR('',#838,0.393700787401575);
#260=VECTOR('',#839,0.393700787401575);
#261=VECTOR('',#842,0.128);
#262=VECTOR('',#847,0.393700787401575);
#263=VECTOR('',#848,0.393700787401575);
#264=VECTOR('',#849,0.393700787401575);
#265=VECTOR('',#852,0.393700787401575);
#266=VECTOR('',#853,0.393700787401575);
#267=VECTOR('',#854,0.393700787401575);
#268=VECTOR('',#857,0.393700787401575);
#269=VECTOR('',#858,0.393700787401575);
#270=VECTOR('',#861,0.393700787401575);
#271=VECTOR('',#862,0.393700787401575);
#272=VECTOR('',#863,0.393700787401575);
#273=VECTOR('',#866,0.393700787401575);
#274=VECTOR('',#867,0.393700787401575);
#275=VECTOR('',#868,0.393700787401575);
#276=VECTOR('',#871,0.393700787401575);
#277=VECTOR('',#872,0.393700787401575);
#278=VECTOR('',#873,0.393700787401575);
#279=VECTOR('',#876,0.393700787401575);
#280=VECTOR('',#877,0.393700787401575);
#281=VECTOR('',#878,0.393700787401575);
#282=VECTOR('',#881,0.393700787401575);
#283=VECTOR('',#882,0.393700787401575);
#284=VECTOR('',#885,0.393700787401575);
#285=VECTOR('',#886,0.393700787401575);
#286=VECTOR('',#887,0.393700787401575);
#287=VECTOR('',#890,0.393700787401575);
#288=VECTOR('',#891,0.393700787401575);
#289=VECTOR('',#892,0.393700787401575);
#290=VECTOR('',#895,0.393700787401575);
#291=VECTOR('',#896,0.393700787401575);
#292=VECTOR('',#897,0.393700787401575);
#293=VECTOR('',#900,0.393700787401575);
#294=VECTOR('',#901,0.393700787401575);
#295=VECTOR('',#902,0.393700787401575);
#296=VECTOR('',#905,0.393700787401575);
#297=VECTOR('',#906,0.393700787401575);
#298=VECTOR('',#907,0.393700787401575);
#299=VECTOR('',#910,0.393700787401575);
#300=VECTOR('',#911,0.393700787401575);
#301=VECTOR('',#912,0.393700787401575);
#302=VECTOR('',#915,0.393700787401575);
#303=VECTOR('',#916,0.393700787401575);
#304=VECTOR('',#919,0.393700787401575);
#305=VECTOR('',#920,0.393700787401575);
#306=VECTOR('',#923,0.393700787401575);
#307=VECTOR('',#924,0.393700787401575);
#308=VECTOR('',#927,0.393700787401575);
#309=VECTOR('',#930,0.393700787401575);
#310=VECTOR('',#933,0.393700787401575);
#311=VECTOR('',#934,0.393700787401575);
#312=VECTOR('',#937,0.393700787401575);
#313=VECTOR('',#938,0.393700787401575);
#314=VECTOR('',#941,0.393700787401575);
#315=VECTOR('',#942,0.393700787401575);
#316=VECTOR('',#945,0.393700787401575);
#317=VECTOR('',#948,0.393700787401575);
#318=VECTOR('',#949,0.393700787401575);
#319=VECTOR('',#952,0.393700787401575);
#320=VECTOR('',#955,0.393700787401575);
#321=VECTOR('',#956,0.393700787401575);
#322=VECTOR('',#959,0.393700787401575);
#323=VECTOR('',#960,0.393700787401575);
#324=VECTOR('',#963,0.393700787401575);
#325=VECTOR('',#974,0.393700787401575);
#326=VECTOR('',#975,0.393700787401575);
#327=VECTOR('',#976,0.393700787401575);
#328=VECTOR('',#977,0.393700787401575);
#329=VECTOR('',#978,0.393700787401575);
#330=VECTOR('',#979,0.393700787401575);
#331=VECTOR('',#988,0.067);
#332=VECTOR('',#991,0.393700787401575);
#333=VECTOR('',#992,0.393700787401575);
#334=VECTOR('',#993,0.393700787401575);
#335=VECTOR('',#996,0.393700787401575);
#336=VECTOR('',#997,0.393700787401575);
#337=VECTOR('',#1000,0.393700787401575);
#338=VECTOR('',#1001,0.393700787401575);
#339=VECTOR('',#1004,0.393700787401575);
#340=VECTOR('',#1005,0.393700787401575);
#341=VECTOR('',#1008,0.393700787401575);
#342=VECTOR('',#1009,0.393700787401575);
#343=VECTOR('',#1012,0.393700787401575);
#344=VECTOR('',#1021,0.067);
#345=CIRCLE('',#769,0.151622047244095);
#346=CIRCLE('',#770,0.128);
#347=CIRCLE('',#771,0.128);
#348=CIRCLE('',#774,0.128);
#349=CIRCLE('',#808,0.067);
#350=CIRCLE('',#810,0.067);
#351=CIRCLE('',#819,0.067);
#352=CIRCLE('',#821,0.067);
#353=VERTEX_POINT('',#1026);
#354=VERTEX_POINT('',#1028);
#355=VERTEX_POINT('',#1030);
#356=VERTEX_POINT('',#1034);
#357=VERTEX_POINT('',#1035);
#358=VERTEX_POINT('',#1037);
#359=VERTEX_POINT('',#1039);
#360=VERTEX_POINT('',#1043);
#361=VERTEX_POINT('',#1047);
#362=VERTEX_POINT('',#1048);
#363=VERTEX_POINT('',#1050);
#364=VERTEX_POINT('',#1054);
#365=VERTEX_POINT('',#1056);
#366=VERTEX_POINT('',#1063);
#367=VERTEX_POINT('',#1064);
#368=VERTEX_POINT('',#1066);
#369=VERTEX_POINT('',#1070);
#370=VERTEX_POINT('',#1071);
#371=VERTEX_POINT('',#1073);
#372=VERTEX_POINT('',#1077);
#373=VERTEX_POINT('',#1079);
#374=VERTEX_POINT('',#1083);
#375=VERTEX_POINT('',#1085);
#376=VERTEX_POINT('',#1092);
#377=VERTEX_POINT('',#1093);
#378=VERTEX_POINT('',#1095);
#379=VERTEX_POINT('',#1099);
#380=VERTEX_POINT('',#1101);
#381=VERTEX_POINT('',#1105);
#382=VERTEX_POINT('',#1106);
#383=VERTEX_POINT('',#1108);
#384=VERTEX_POINT('',#1112);
#385=VERTEX_POINT('',#1114);
#386=VERTEX_POINT('',#1118);
#387=VERTEX_POINT('',#1119);
#388=VERTEX_POINT('',#1121);
#389=VERTEX_POINT('',#1125);
#390=VERTEX_POINT('',#1127);
#391=VERTEX_POINT('',#1172);
#392=VERTEX_POINT('',#1173);
#393=VERTEX_POINT('',#1175);
#394=VERTEX_POINT('',#1177);
#395=VERTEX_POINT('',#1179);
#396=VERTEX_POINT('',#1181);
#397=VERTEX_POINT('',#1184);
#398=VERTEX_POINT('',#1187);
#399=VERTEX_POINT('',#1192);
#400=VERTEX_POINT('',#1194);
#401=VERTEX_POINT('',#1198);
#402=VERTEX_POINT('',#1202);
#403=VERTEX_POINT('',#1206);
#404=VERTEX_POINT('',#1210);
#405=VERTEX_POINT('',#1216);
#406=VERTEX_POINT('',#1219);
#407=EDGE_CURVE('',#353,#353,#345,.T.);
#408=EDGE_CURVE('',#353,#354,#167,.T.);
#409=EDGE_CURVE('',#354,#355,#346,.T.);
#410=EDGE_CURVE('',#355,#354,#347,.T.);
#411=EDGE_CURVE('',#356,#357,#168,.T.);
#412=EDGE_CURVE('',#358,#356,#169,.T.);
#413=EDGE_CURVE('',#359,#358,#170,.T.);
#414=EDGE_CURVE('',#357,#359,#171,.T.);
#415=EDGE_CURVE('',#355,#360,#172,.T.);
#416=EDGE_CURVE('',#360,#360,#348,.T.);
#417=EDGE_CURVE('',#361,#362,#173,.T.);
#418=EDGE_CURVE('',#363,#361,#174,.T.);
#419=EDGE_CURVE('',#362,#363,#175,.T.);
#420=EDGE_CURVE('',#364,#358,#176,.T.);
#421=EDGE_CURVE('',#365,#364,#177,.T.);
#422=EDGE_CURVE('',#358,#365,#178,.T.);
#423=EDGE_CURVE('',#364,#363,#179,.T.);
#424=EDGE_CURVE('',#361,#365,#180,.T.);
#425=EDGE_CURVE('',#366,#367,#181,.T.);
#426=EDGE_CURVE('',#368,#366,#182,.T.);
#427=EDGE_CURVE('',#367,#368,#183,.T.);
#428=EDGE_CURVE('',#369,#370,#184,.T.);
#429=EDGE_CURVE('',#371,#369,#185,.T.);
#430=EDGE_CURVE('',#370,#371,#186,.T.);
#431=EDGE_CURVE('',#372,#356,#187,.T.);
#432=EDGE_CURVE('',#373,#372,#188,.T.);
#433=EDGE_CURVE('',#356,#373,#189,.T.);
#434=EDGE_CURVE('',#374,#359,#190,.T.);
#435=EDGE_CURVE('',#375,#374,#191,.T.);
#436=EDGE_CURVE('',#359,#375,#192,.T.);
#437=EDGE_CURVE('',#374,#371,#193,.T.);
#438=EDGE_CURVE('',#369,#375,#194,.T.);
#439=EDGE_CURVE('',#376,#377,#195,.T.);
#440=EDGE_CURVE('',#378,#376,#196,.T.);
#441=EDGE_CURVE('',#377,#378,#197,.T.);
#442=EDGE_CURVE('',#379,#378,#198,.T.);
#443=EDGE_CURVE('',#376,#380,#199,.T.);
#444=EDGE_CURVE('',#380,#379,#200,.T.);
#445=EDGE_CURVE('',#381,#382,#201,.T.);
#446=EDGE_CURVE('',#383,#381,#202,.T.);
#447=EDGE_CURVE('',#382,#383,#203,.T.);
#448=EDGE_CURVE('',#384,#357,#204,.T.);
#449=EDGE_CURVE('',#385,#384,#205,.T.);
#450=EDGE_CURVE('',#357,#385,#206,.T.);
#451=EDGE_CURVE('',#386,#387,#207,.T.);
#452=EDGE_CURVE('',#388,#386,#208,.T.);
#453=EDGE_CURVE('',#387,#388,#209,.T.);
#454=EDGE_CURVE('',#389,#388,#210,.T.);
#455=EDGE_CURVE('',#386,#390,#211,.T.);
#456=EDGE_CURVE('',#390,#389,#212,.T.);
#457=EDGE_CURVE('',#390,#385,#213,.T.);
#458=EDGE_CURVE('',#384,#389,#214,.T.);
#459=EDGE_CURVE('',#381,#387,#215,.T.);
#460=EDGE_CURVE('',#388,#383,#216,.T.);
#461=EDGE_CURVE('',#378,#386,#217,.T.);
#462=EDGE_CURVE('',#387,#377,#218,.T.);
#463=EDGE_CURVE('',#385,#372,#219,.T.);
#464=EDGE_CURVE('',#375,#384,#220,.T.);
#465=EDGE_CURVE('',#370,#382,#221,.T.);
#466=EDGE_CURVE('',#383,#369,#222,.T.);
#467=EDGE_CURVE('',#382,#367,#223,.T.);
#468=EDGE_CURVE('',#368,#381,#224,.T.);
#469=EDGE_CURVE('',#366,#376,#225,.T.);
#470=EDGE_CURVE('',#377,#368,#226,.T.);
#471=EDGE_CURVE('',#365,#374,#227,.T.);
#472=EDGE_CURVE('',#380,#373,#228,.T.);
#473=EDGE_CURVE('',#372,#379,#229,.T.);
#474=EDGE_CURVE('',#373,#364,#230,.T.);
#475=EDGE_CURVE('',#362,#370,#231,.T.);
#476=EDGE_CURVE('',#371,#361,#232,.T.);
#477=EDGE_CURVE('',#367,#362,#233,.T.);
#478=EDGE_CURVE('',#363,#366,#234,.T.);
#479=EDGE_CURVE('',#379,#390,#235,.T.);
#480=EDGE_CURVE('',#391,#392,#236,.T.);
#481=EDGE_CURVE('',#392,#393,#237,.T.);
#482=EDGE_CURVE('',#393,#394,#238,.T.);
#483=EDGE_CURVE('',#394,#395,#239,.T.);
#484=EDGE_CURVE('',#395,#396,#240,.T.);
#485=EDGE_CURVE('',#396,#391,#241,.T.);
#486=EDGE_CURVE('',#397,#397,#349,.T.);
#487=EDGE_CURVE('',#398,#398,#350,.T.);
#488=EDGE_CURVE('',#398,#397,#242,.T.);
#489=EDGE_CURVE('',#391,#399,#243,.T.);
#490=EDGE_CURVE('',#399,#400,#244,.T.);
#491=EDGE_CURVE('',#392,#400,#245,.T.);
#492=EDGE_CURVE('',#396,#401,#246,.T.);
#493=EDGE_CURVE('',#401,#399,#247,.T.);
#494=EDGE_CURVE('',#395,#402,#248,.T.);
#495=EDGE_CURVE('',#402,#401,#249,.T.);
#496=EDGE_CURVE('',#394,#403,#250,.T.);
#497=EDGE_CURVE('',#403,#402,#251,.T.);
#498=EDGE_CURVE('',#393,#404,#252,.T.);
#499=EDGE_CURVE('',#404,#403,#253,.T.);
#500=EDGE_CURVE('',#400,#404,#254,.T.);
#501=EDGE_CURVE('',#405,#405,#351,.T.);
#502=EDGE_CURVE('',#406,#406,#352,.T.);
#503=EDGE_CURVE('',#406,#405,#255,.T.);
#504=ORIENTED_EDGE('',*,*,#407,.T.);
#505=ORIENTED_EDGE('',*,*,#408,.T.);
#506=ORIENTED_EDGE('',*,*,#409,.T.);
#507=ORIENTED_EDGE('',*,*,#410,.T.);
#508=ORIENTED_EDGE('',*,*,#408,.F.);
#509=ORIENTED_EDGE('',*,*,#411,.F.);
#510=ORIENTED_EDGE('',*,*,#412,.F.);
#511=ORIENTED_EDGE('',*,*,#413,.F.);
#512=ORIENTED_EDGE('',*,*,#414,.F.);
#513=ORIENTED_EDGE('',*,*,#407,.F.);
#514=ORIENTED_EDGE('',*,*,#409,.F.);
#515=ORIENTED_EDGE('',*,*,#410,.F.);
#516=ORIENTED_EDGE('',*,*,#415,.T.);
#517=ORIENTED_EDGE('',*,*,#416,.F.);
#518=ORIENTED_EDGE('',*,*,#415,.F.);
#519=ORIENTED_EDGE('',*,*,#417,.F.);
#520=ORIENTED_EDGE('',*,*,#418,.F.);
#521=ORIENTED_EDGE('',*,*,#419,.F.);
#522=ORIENTED_EDGE('',*,*,#420,.F.);
#523=ORIENTED_EDGE('',*,*,#421,.F.);
#524=ORIENTED_EDGE('',*,*,#422,.F.);
#525=ORIENTED_EDGE('',*,*,#421,.T.);
#526=ORIENTED_EDGE('',*,*,#423,.T.);
#527=ORIENTED_EDGE('',*,*,#418,.T.);
#528=ORIENTED_EDGE('',*,*,#424,.T.);
#529=ORIENTED_EDGE('',*,*,#425,.F.);
#530=ORIENTED_EDGE('',*,*,#426,.F.);
#531=ORIENTED_EDGE('',*,*,#427,.F.);
#532=ORIENTED_EDGE('',*,*,#428,.F.);
#533=ORIENTED_EDGE('',*,*,#429,.F.);
#534=ORIENTED_EDGE('',*,*,#430,.F.);
#535=ORIENTED_EDGE('',*,*,#431,.F.);
#536=ORIENTED_EDGE('',*,*,#432,.F.);
#537=ORIENTED_EDGE('',*,*,#433,.F.);
#538=ORIENTED_EDGE('',*,*,#434,.F.);
#539=ORIENTED_EDGE('',*,*,#435,.F.);
#540=ORIENTED_EDGE('',*,*,#436,.F.);
#541=ORIENTED_EDGE('',*,*,#435,.T.);
#542=ORIENTED_EDGE('',*,*,#437,.T.);
#543=ORIENTED_EDGE('',*,*,#429,.T.);
#544=ORIENTED_EDGE('',*,*,#438,.T.);
#545=ORIENTED_EDGE('',*,*,#439,.F.);
#546=ORIENTED_EDGE('',*,*,#440,.F.);
#547=ORIENTED_EDGE('',*,*,#441,.F.);
#548=ORIENTED_EDGE('',*,*,#442,.T.);
#549=ORIENTED_EDGE('',*,*,#440,.T.);
#550=ORIENTED_EDGE('',*,*,#443,.T.);
#551=ORIENTED_EDGE('',*,*,#444,.T.);
#552=ORIENTED_EDGE('',*,*,#445,.F.);
#553=ORIENTED_EDGE('',*,*,#446,.F.);
#554=ORIENTED_EDGE('',*,*,#447,.F.);
#555=ORIENTED_EDGE('',*,*,#448,.F.);
#556=ORIENTED_EDGE('',*,*,#449,.F.);
#557=ORIENTED_EDGE('',*,*,#450,.F.);
#558=ORIENTED_EDGE('',*,*,#451,.F.);
#559=ORIENTED_EDGE('',*,*,#452,.F.);
#560=ORIENTED_EDGE('',*,*,#453,.F.);
#561=ORIENTED_EDGE('',*,*,#454,.T.);
#562=ORIENTED_EDGE('',*,*,#452,.T.);
#563=ORIENTED_EDGE('',*,*,#455,.T.);
#564=ORIENTED_EDGE('',*,*,#456,.T.);
#565=ORIENTED_EDGE('',*,*,#457,.T.);
#566=ORIENTED_EDGE('',*,*,#449,.T.);
#567=ORIENTED_EDGE('',*,*,#458,.T.);
#568=ORIENTED_EDGE('',*,*,#456,.F.);
#569=ORIENTED_EDGE('',*,*,#446,.T.);
#570=ORIENTED_EDGE('',*,*,#459,.T.);
#571=ORIENTED_EDGE('',*,*,#453,.T.);
#572=ORIENTED_EDGE('',*,*,#460,.T.);
#573=ORIENTED_EDGE('',*,*,#441,.T.);
#574=ORIENTED_EDGE('',*,*,#461,.T.);
#575=ORIENTED_EDGE('',*,*,#451,.T.);
#576=ORIENTED_EDGE('',*,*,#462,.T.);
#577=ORIENTED_EDGE('',*,*,#431,.T.);
#578=ORIENTED_EDGE('',*,*,#411,.T.);
#579=ORIENTED_EDGE('',*,*,#450,.T.);
#580=ORIENTED_EDGE('',*,*,#463,.T.);
#581=ORIENTED_EDGE('',*,*,#448,.T.);
#582=ORIENTED_EDGE('',*,*,#414,.T.);
#583=ORIENTED_EDGE('',*,*,#436,.T.);
#584=ORIENTED_EDGE('',*,*,#464,.T.);
#585=ORIENTED_EDGE('',*,*,#428,.T.);
#586=ORIENTED_EDGE('',*,*,#465,.T.);
#587=ORIENTED_EDGE('',*,*,#447,.T.);
#588=ORIENTED_EDGE('',*,*,#466,.T.);
#589=ORIENTED_EDGE('',*,*,#445,.T.);
#590=ORIENTED_EDGE('',*,*,#467,.T.);
#591=ORIENTED_EDGE('',*,*,#427,.T.);
#592=ORIENTED_EDGE('',*,*,#468,.T.);
#593=ORIENTED_EDGE('',*,*,#426,.T.);
#594=ORIENTED_EDGE('',*,*,#469,.T.);
#595=ORIENTED_EDGE('',*,*,#439,.T.);
#596=ORIENTED_EDGE('',*,*,#470,.T.);
#597=ORIENTED_EDGE('',*,*,#434,.T.);
#598=ORIENTED_EDGE('',*,*,#413,.T.);
#599=ORIENTED_EDGE('',*,*,#422,.T.);
#600=ORIENTED_EDGE('',*,*,#471,.T.);
#601=ORIENTED_EDGE('',*,*,#472,.T.);
#602=ORIENTED_EDGE('',*,*,#432,.T.);
#603=ORIENTED_EDGE('',*,*,#473,.T.);
#604=ORIENTED_EDGE('',*,*,#444,.F.);
#605=ORIENTED_EDGE('',*,*,#420,.T.);
#606=ORIENTED_EDGE('',*,*,#412,.T.);
#607=ORIENTED_EDGE('',*,*,#433,.T.);
#608=ORIENTED_EDGE('',*,*,#474,.T.);
#609=ORIENTED_EDGE('',*,*,#417,.T.);
#610=ORIENTED_EDGE('',*,*,#475,.T.);
#611=ORIENTED_EDGE('',*,*,#430,.T.);
#612=ORIENTED_EDGE('',*,*,#476,.T.);
#613=ORIENTED_EDGE('',*,*,#425,.T.);
#614=ORIENTED_EDGE('',*,*,#477,.T.);
#615=ORIENTED_EDGE('',*,*,#419,.T.);
#616=ORIENTED_EDGE('',*,*,#478,.T.);
#617=ORIENTED_EDGE('',*,*,#473,.F.);
#618=ORIENTED_EDGE('',*,*,#463,.F.);
#619=ORIENTED_EDGE('',*,*,#457,.F.);
#620=ORIENTED_EDGE('',*,*,#479,.F.);
#621=ORIENTED_EDGE('',*,*,#437,.F.);
#622=ORIENTED_EDGE('',*,*,#471,.F.);
#623=ORIENTED_EDGE('',*,*,#424,.F.);
#624=ORIENTED_EDGE('',*,*,#476,.F.);
#625=ORIENTED_EDGE('',*,*,#443,.F.);
#626=ORIENTED_EDGE('',*,*,#469,.F.);
#627=ORIENTED_EDGE('',*,*,#478,.F.);
#628=ORIENTED_EDGE('',*,*,#423,.F.);
#629=ORIENTED_EDGE('',*,*,#474,.F.);
#630=ORIENTED_EDGE('',*,*,#472,.F.);
#631=ORIENTED_EDGE('',*,*,#454,.F.);
#632=ORIENTED_EDGE('',*,*,#458,.F.);
#633=ORIENTED_EDGE('',*,*,#464,.F.);
#634=ORIENTED_EDGE('',*,*,#438,.F.);
#635=ORIENTED_EDGE('',*,*,#466,.F.);
#636=ORIENTED_EDGE('',*,*,#460,.F.);
#637=ORIENTED_EDGE('',*,*,#459,.F.);
#638=ORIENTED_EDGE('',*,*,#468,.F.);
#639=ORIENTED_EDGE('',*,*,#470,.F.);
#640=ORIENTED_EDGE('',*,*,#462,.F.);
#641=ORIENTED_EDGE('',*,*,#465,.F.);
#642=ORIENTED_EDGE('',*,*,#475,.F.);
#643=ORIENTED_EDGE('',*,*,#477,.F.);
#644=ORIENTED_EDGE('',*,*,#467,.F.);
#645=ORIENTED_EDGE('',*,*,#480,.T.);
#646=ORIENTED_EDGE('',*,*,#481,.T.);
#647=ORIENTED_EDGE('',*,*,#482,.T.);
#648=ORIENTED_EDGE('',*,*,#483,.T.);
#649=ORIENTED_EDGE('',*,*,#484,.T.);
#650=ORIENTED_EDGE('',*,*,#485,.T.);
#651=ORIENTED_EDGE('',*,*,#486,.T.);
#652=ORIENTED_EDGE('',*,*,#416,.T.);
#653=ORIENTED_EDGE('',*,*,#487,.F.);
#654=ORIENTED_EDGE('',*,*,#487,.T.);
#655=ORIENTED_EDGE('',*,*,#488,.T.);
#656=ORIENTED_EDGE('',*,*,#486,.F.);
#657=ORIENTED_EDGE('',*,*,#488,.F.);
#658=ORIENTED_EDGE('',*,*,#480,.F.);
#659=ORIENTED_EDGE('',*,*,#489,.T.);
#660=ORIENTED_EDGE('',*,*,#490,.T.);
#661=ORIENTED_EDGE('',*,*,#491,.F.);
#662=ORIENTED_EDGE('',*,*,#485,.F.);
#663=ORIENTED_EDGE('',*,*,#492,.T.);
#664=ORIENTED_EDGE('',*,*,#493,.T.);
#665=ORIENTED_EDGE('',*,*,#489,.F.);
#666=ORIENTED_EDGE('',*,*,#484,.F.);
#667=ORIENTED_EDGE('',*,*,#494,.T.);
#668=ORIENTED_EDGE('',*,*,#495,.T.);
#669=ORIENTED_EDGE('',*,*,#492,.F.);
#670=ORIENTED_EDGE('',*,*,#483,.F.);
#671=ORIENTED_EDGE('',*,*,#496,.T.);
#672=ORIENTED_EDGE('',*,*,#497,.T.);
#673=ORIENTED_EDGE('',*,*,#494,.F.);
#674=ORIENTED_EDGE('',*,*,#482,.F.);
#675=ORIENTED_EDGE('',*,*,#498,.T.);
#676=ORIENTED_EDGE('',*,*,#499,.T.);
#677=ORIENTED_EDGE('',*,*,#496,.F.);
#678=ORIENTED_EDGE('',*,*,#481,.F.);
#679=ORIENTED_EDGE('',*,*,#491,.T.);
#680=ORIENTED_EDGE('',*,*,#500,.T.);
#681=ORIENTED_EDGE('',*,*,#498,.F.);
#682=ORIENTED_EDGE('',*,*,#500,.F.);
#683=ORIENTED_EDGE('',*,*,#490,.F.);
#684=ORIENTED_EDGE('',*,*,#493,.F.);
#685=ORIENTED_EDGE('',*,*,#495,.F.);
#686=ORIENTED_EDGE('',*,*,#497,.F.);
#687=ORIENTED_EDGE('',*,*,#499,.F.);
#688=ORIENTED_EDGE('',*,*,#501,.F.);
#689=ORIENTED_EDGE('',*,*,#502,.F.);
#690=ORIENTED_EDGE('',*,*,#503,.T.);
#691=ORIENTED_EDGE('',*,*,#501,.T.);
#692=ORIENTED_EDGE('',*,*,#503,.F.);
#693=ORIENTED_EDGE('',*,*,#442,.F.);
#694=ORIENTED_EDGE('',*,*,#479,.T.);
#695=ORIENTED_EDGE('',*,*,#455,.F.);
#696=ORIENTED_EDGE('',*,*,#461,.F.);
#697=ORIENTED_EDGE('',*,*,#502,.T.);
#698=CONICAL_SURFACE('',#768,0.139811023622047,0.785398163397448);
#699=ADVANCED_FACE('',(#67),#698,.F.);
#700=ADVANCED_FACE('',(#68,#18),#24,.T.);
#701=ADVANCED_FACE('',(#69),#15,.F.);
#702=ADVANCED_FACE('',(#70),#25,.T.);
#703=ADVANCED_FACE('',(#71),#26,.T.);
#704=ADVANCED_FACE('',(#72),#27,.T.);
#705=ADVANCED_FACE('',(#73),#28,.T.);
#706=ADVANCED_FACE('',(#74),#29,.T.);
#707=ADVANCED_FACE('',(#75),#30,.T.);
#708=ADVANCED_FACE('',(#76),#31,.T.);
#709=ADVANCED_FACE('',(#77),#32,.T.);
#710=ADVANCED_FACE('',(#78),#33,.T.);
#711=ADVANCED_FACE('',(#79),#34,.T.);
#712=ADVANCED_FACE('',(#80),#35,.T.);
#713=ADVANCED_FACE('',(#81),#36,.T.);
#714=ADVANCED_FACE('',(#82),#37,.T.);
#715=ADVANCED_FACE('',(#83),#38,.T.);
#716=ADVANCED_FACE('',(#84),#39,.T.);
#717=ADVANCED_FACE('',(#85),#40,.T.);
#718=ADVANCED_FACE('',(#86),#41,.T.);
#719=ADVANCED_FACE('',(#87),#42,.T.);
#720=ADVANCED_FACE('',(#88),#43,.T.);
#721=ADVANCED_FACE('',(#89),#44,.T.);
#722=ADVANCED_FACE('',(#90),#45,.T.);
#723=ADVANCED_FACE('',(#91),#46,.T.);
#724=ADVANCED_FACE('',(#92),#47,.T.);
#725=ADVANCED_FACE('',(#93),#48,.T.);
#726=ADVANCED_FACE('',(#94),#49,.T.);
#727=ADVANCED_FACE('',(#95),#50,.T.);
#728=ADVANCED_FACE('',(#96),#51,.T.);
#729=ADVANCED_FACE('',(#97),#52,.T.);
#730=ADVANCED_FACE('',(#98),#53,.T.);
#731=ADVANCED_FACE('',(#99),#54,.T.);
#732=ADVANCED_FACE('',(#100),#55,.T.);
#733=ADVANCED_FACE('',(#101),#56,.T.);
#734=ADVANCED_FACE('',(#102,#19,#20),#57,.T.);
#735=ADVANCED_FACE('',(#103,#21),#58,.T.);
#736=ADVANCED_FACE('',(#104),#16,.F.);
#737=ADVANCED_FACE('',(#105),#59,.F.);
#738=ADVANCED_FACE('',(#106),#60,.F.);
#739=ADVANCED_FACE('',(#107),#61,.F.);
#740=ADVANCED_FACE('',(#108),#62,.F.);
#741=ADVANCED_FACE('',(#109),#63,.F.);
#742=ADVANCED_FACE('',(#110),#64,.F.);
#743=ADVANCED_FACE('',(#111,#22),#65,.F.);
#744=ADVANCED_FACE('',(#112),#17,.F.);
#745=ADVANCED_FACE('',(#113,#23),#66,.T.);
#746=CLOSED_SHELL('',(#699,#700,#701,#702,#703,#704,#705,#706,#707,#708,
#709,#710,#711,#712,#713,#714,#715,#716,#717,#718,#719,#720,#721,#722,#723,
#724,#725,#726,#727,#728,#729,#730,#731,#732,#733,#734,#735,#736,#737,#738,
#739,#740,#741,#742,#743,#744,#745));
#747=DERIVED_UNIT_ELEMENT(#749,1.);
#748=DERIVED_UNIT_ELEMENT(#1231,-3.);
#749=(
CONVERSION_BASED_UNIT('gram',#751)
MASS_UNIT()
NAMED_UNIT(#1228)
);
#750=(
MASS_UNIT()
NAMED_UNIT(*)
SI_UNIT(.KILO.,.GRAM.)
);
#751=MASS_MEASURE_WITH_UNIT(MASS_MEASURE(0.001),#750);
#752=DERIVED_UNIT((#747,#748));
#753=MEASURE_REPRESENTATION_ITEM('density measure',
POSITIVE_RATIO_MEASURE(1.),#752);
#754=PROPERTY_DEFINITION_REPRESENTATION(#759,#756);
#755=PROPERTY_DEFINITION_REPRESENTATION(#760,#757);
#756=REPRESENTATION('material name',(#758),#1225);
#757=REPRESENTATION('density',(#753),#1225);
#758=DESCRIPTIVE_REPRESENTATION_ITEM('Generic','Generic');
#759=PROPERTY_DEFINITION('material property','material name',#1239);
#760=PROPERTY_DEFINITION('material property','density of part',#1239);
#761=DATE_TIME_ROLE('creation_date');
#762=APPLIED_DATE_AND_TIME_ASSIGNMENT(#763,#761,(#1239));
#763=DATE_AND_TIME(#764,#765);
#764=CALENDAR_DATE(2026,19,7);
#765=LOCAL_TIME(0,0,0.,#766);
#766=COORDINATED_UNIVERSAL_TIME_OFFSET(0,0,.BEHIND.);
#767=AXIS2_PLACEMENT_3D('',#1024,#823,#824);
#768=AXIS2_PLACEMENT_3D('',#1025,#825,#826);
#769=AXIS2_PLACEMENT_3D('',#1027,#827,#828);
#770=AXIS2_PLACEMENT_3D('',#1031,#830,#831);
#771=AXIS2_PLACEMENT_3D('',#1032,#832,#833);
#772=AXIS2_PLACEMENT_3D('',#1033,#834,#835);
#773=AXIS2_PLACEMENT_3D('',#1042,#840,#841);
#774=AXIS2_PLACEMENT_3D('',#1045,#843,#844);
#775=AXIS2_PLACEMENT_3D('',#1046,#845,#846);
#776=AXIS2_PLACEMENT_3D('',#1053,#850,#851);
#777=AXIS2_PLACEMENT_3D('',#1059,#855,#856);
#778=AXIS2_PLACEMENT_3D('',#1062,#859,#860);
#779=AXIS2_PLACEMENT_3D('',#1069,#864,#865);
#780=AXIS2_PLACEMENT_3D('',#1076,#869,#870);
#781=AXIS2_PLACEMENT_3D('',#1082,#874,#875);
#782=AXIS2_PLACEMENT_3D('',#1088,#879,#880);
#783=AXIS2_PLACEMENT_3D('',#1091,#883,#884);
#784=AXIS2_PLACEMENT_3D('',#1098,#888,#889);
#785=AXIS2_PLACEMENT_3D('',#1104,#893,#894);
#786=AXIS2_PLACEMENT_3D('',#1111,#898,#899);
#787=AXIS2_PLACEMENT_3D('',#1117,#903,#904);
#788=AXIS2_PLACEMENT_3D('',#1124,#908,#909);
#789=AXIS2_PLACEMENT_3D('',#1130,#913,#914);
#790=AXIS2_PLACEMENT_3D('',#1133,#917,#918);
#791=AXIS2_PLACEMENT_3D('',#1136,#921,#922);
#792=AXIS2_PLACEMENT_3D('',#1139,#925,#926);
#793=AXIS2_PLACEMENT_3D('',#1141,#928,#929);
#794=AXIS2_PLACEMENT_3D('',#1143,#931,#932);
#795=AXIS2_PLACEMENT_3D('',#1146,#935,#936);
#796=AXIS2_PLACEMENT_3D('',#1149,#939,#940);
#797=AXIS2_PLACEMENT_3D('',#1152,#943,#944);
#798=AXIS2_PLACEMENT_3D('',#1154,#946,#947);
#799=AXIS2_PLACEMENT_3D('',#1157,#950,#951);
#800=AXIS2_PLACEMENT_3D('',#1159,#953,#954);
#801=AXIS2_PLACEMENT_3D('',#1162,#957,#958);
#802=AXIS2_PLACEMENT_3D('',#1165,#961,#962);
#803=AXIS2_PLACEMENT_3D('',#1167,#964,#965);
#804=AXIS2_PLACEMENT_3D('',#1168,#966,#967);
#805=AXIS2_PLACEMENT_3D('',#1169,#968,#969);
#806=AXIS2_PLACEMENT_3D('',#1170,#970,#971);
#807=AXIS2_PLACEMENT_3D('',#1171,#972,#973);
#808=AXIS2_PLACEMENT_3D('',#1185,#980,#981);
#809=AXIS2_PLACEMENT_3D('',#1186,#982,#983);
#810=AXIS2_PLACEMENT_3D('',#1188,#984,#985);
#811=AXIS2_PLACEMENT_3D('',#1189,#986,#987);
#812=AXIS2_PLACEMENT_3D('',#1191,#989,#990);
#813=AXIS2_PLACEMENT_3D('',#1197,#994,#995);
#814=AXIS2_PLACEMENT_3D('',#1201,#998,#999);
#815=AXIS2_PLACEMENT_3D('',#1205,#1002,#1003);
#816=AXIS2_PLACEMENT_3D('',#1209,#1006,#1007);
#817=AXIS2_PLACEMENT_3D('',#1213,#1010,#1011);
#818=AXIS2_PLACEMENT_3D('',#1215,#1013,#1014);
#819=AXIS2_PLACEMENT_3D('',#1217,#1015,#1016);
#820=AXIS2_PLACEMENT_3D('',#1218,#1017,#1018);
#821=AXIS2_PLACEMENT_3D('',#1220,#1019,#1020);
#822=AXIS2_PLACEMENT_3D('',#1222,#1022,#1023);
#823=DIRECTION('axis',(0.,0.,1.));
#824=DIRECTION('refdir',(1.,0.,0.));
#825=DIRECTION('center_axis',(0.,1.,0.));
#826=DIRECTION('ref_axis',(-1.,0.,0.));
#827=DIRECTION('center_axis',(0.,1.,0.));
#828=DIRECTION('ref_axis',(-1.,0.,0.));
#829=DIRECTION('',(-0.707106781186547,-0.707106781186547,8.65956056235493E-17));
#830=DIRECTION('center_axis',(0.,-1.,0.));
#831=DIRECTION('ref_axis',(-1.,0.,0.));
#832=DIRECTION('center_axis',(0.,-1.,0.));
#833=DIRECTION('ref_axis',(-1.,0.,0.));
#834=DIRECTION('center_axis',(0.,1.,0.));
#835=DIRECTION('ref_axis',(0.,0.,1.));
#836=DIRECTION('',(0.,0.,-1.));
#837=DIRECTION('',(-1.,0.,-1.93082265152201E-16));
#838=DIRECTION('',(0.,0.,1.));
#839=DIRECTION('',(1.,0.,-1.93082265152201E-16));
#840=DIRECTION('center_axis',(0.,1.,0.));
#841=DIRECTION('ref_axis',(1.,0.,0.));
#842=DIRECTION('',(0.,-1.,0.));
#843=DIRECTION('center_axis',(0.,1.,0.));
#844=DIRECTION('ref_axis',(1.,0.,0.));
#845=DIRECTION('center_axis',(0.577350269189626,-0.577350269189626,0.577350269189626));
#846=DIRECTION('ref_axis',(0.707106781186548,0.,-0.707106781186547));
#847=DIRECTION('',(-0.707106781186548,-0.707106781186548,0.));
#848=DIRECTION('',(0.707106781186548,0.,-0.707106781186547));
#849=DIRECTION('',(0.,0.707106781186548,0.707106781186547));
#850=DIRECTION('center_axis',(0.577350269189626,0.577350269189626,0.577350269189626));
#851=DIRECTION('ref_axis',(0.707106781186548,0.,-0.707106781186547));
#852=DIRECTION('',(0.,0.707106781186548,-0.707106781186547));
#853=DIRECTION('',(-0.707106781186548,0.,0.707106781186547));
#854=DIRECTION('',(0.707106781186548,-0.707106781186548,0.));
#855=DIRECTION('center_axis',(0.707106781186547,0.,0.707106781186548));
#856=DIRECTION('ref_axis',(0.707106781186548,0.,-0.707106781186547));
#857=DIRECTION('',(0.,-1.,0.));
#858=DIRECTION('',(0.,1.,0.));
#859=DIRECTION('center_axis',(-0.577350269189626,-0.577350269189626,0.577350269189626));
#860=DIRECTION('ref_axis',(0.707106781186548,0.,0.707106781186547));
#861=DIRECTION('',(0.,-0.707106781186548,-0.707106781186547));
#862=DIRECTION('',(0.707106781186548,0.,0.707106781186547));
#863=DIRECTION('',(-0.707106781186548,0.707106781186548,0.));
#864=DIRECTION('center_axis',(0.577350269189626,-0.577350269189626,-0.577350269189626));
#865=DIRECTION('ref_axis',(-0.707106781186547,0.,-0.707106781186547));
#866=DIRECTION('',(0.,-0.707106781186546,0.707106781186549));
#867=DIRECTION('',(-0.707106781186548,0.,-0.707106781186548));
#868=DIRECTION('',(0.707106781186548,0.707106781186548,0.));
#869=DIRECTION('center_axis',(-0.577350269189628,0.577350269189625,0.577350269189625));
#870=DIRECTION('ref_axis',(0.707106781186546,0.,0.707106781186549));
#871=DIRECTION('',(0.707106781186548,0.707106781186548,2.61682076447296E-15));
#872=DIRECTION('',(-0.707106781186546,0.,-0.707106781186549));
#873=DIRECTION('',(0.,-0.707106781186548,0.707106781186547));
#874=DIRECTION('center_axis',(0.577350269189626,0.577350269189626,-0.577350269189626));
#875=DIRECTION('ref_axis',(-0.707106781186547,0.,-0.707106781186547));
#876=DIRECTION('',(-0.707106781186548,0.707106781186548,0.));
#877=DIRECTION('',(0.707106781186548,0.,0.707106781186548));
#878=DIRECTION('',(0.,-0.707106781186548,-0.707106781186548));
#879=DIRECTION('center_axis',(0.707106781186548,0.,-0.707106781186548));
#880=DIRECTION('ref_axis',(-0.707106781186548,0.,-0.707106781186548));
#881=DIRECTION('',(0.,-1.,0.));
#882=DIRECTION('',(0.,1.,0.));
#883=DIRECTION('center_axis',(-0.577350269189625,0.577350269189626,0.577350269189626));
#884=DIRECTION('ref_axis',(0.707106781186548,0.,0.707106781186547));
#885=DIRECTION('',(-0.707106781186548,0.,-0.707106781186547));
#886=DIRECTION('',(0.,-0.707106781186547,0.707106781186547));
#887=DIRECTION('',(0.707106781186548,0.707106781186547,0.));
#888=DIRECTION('center_axis',(-1.36529779015981E-16,0.707106781186548,0.707106781186548));
#889=DIRECTION('ref_axis',(1.,0.,1.93082265152201E-16));
#890=DIRECTION('',(-1.,0.,-1.93082265152201E-16));
#891=DIRECTION('',(1.,0.,1.93082265152201E-16));
#892=DIRECTION('',(-0.577350269189627,0.577350269189626,-0.577350269189625));
#893=DIRECTION('center_axis',(-0.577350269189626,-0.577350269189626,-0.577350269189625));
#894=DIRECTION('ref_axis',(-0.707106781186547,0.,0.707106781186548));
#895=DIRECTION('',(0.707106781186548,-0.707106781186548,0.));
#896=DIRECTION('',(-0.707106781186547,0.,0.707106781186548));
#897=DIRECTION('',(-1.30841038223648E-15,0.707106781186548,-0.707106781186548));
#898=DIRECTION('center_axis',(-0.577350269189629,0.577350269189624,-0.577350269189624));
#899=DIRECTION('ref_axis',(-0.707106781186545,0.,0.70710678118655));
#900=DIRECTION('',(0.,0.707106781186549,0.707106781186546));
#901=DIRECTION('',(0.707106781186545,0.,-0.70710678118655));
#902=DIRECTION('',(-0.707106781186548,-0.707106781186548,5.23364152894591E-15));
#903=DIRECTION('center_axis',(-0.577350269189626,0.577350269189627,-0.577350269189625));
#904=DIRECTION('ref_axis',(-0.707106781186547,0.,0.707106781186548));
#905=DIRECTION('',(-0.707106781186548,-0.707106781186547,0.));
#906=DIRECTION('',(1.30841038223648E-15,0.707106781186547,0.707106781186548));
#907=DIRECTION('',(0.707106781186547,0.,-0.707106781186548));
#908=DIRECTION('center_axis',(-1.36529779015981E-16,0.707106781186548,-0.707106781186547));
#909=DIRECTION('ref_axis',(-1.,0.,1.93082265152201E-16));
#910=DIRECTION('',(-1.,0.,1.93082265152201E-16));
#911=DIRECTION('',(1.,0.,-1.93082265152201E-16));
#912=DIRECTION('',(0.577350269189625,-0.577350269189625,-0.577350269189627));
#913=DIRECTION('center_axis',(-0.70710678118655,0.,-0.707106781186545));
#914=DIRECTION('ref_axis',(-0.707106781186545,0.,0.70710678118655));
#915=DIRECTION('',(0.,1.,0.));
#916=DIRECTION('',(0.,-1.,0.));
#917=DIRECTION('center_axis',(-0.707106781186548,0.,-0.707106781186547));
#918=DIRECTION('ref_axis',(-0.707106781186547,0.,0.707106781186548));
#919=DIRECTION('',(0.,1.,0.));
#920=DIRECTION('',(0.,-1.,0.));
#921=DIRECTION('center_axis',(-0.707106781186547,0.707106781186548,0.));
#922=DIRECTION('ref_axis',(0.,0.,1.));
#923=DIRECTION('',(0.,0.,-1.));
#924=DIRECTION('',(0.,0.,1.));
#925=DIRECTION('center_axis',(-0.707106781186548,0.707106781186548,0.));
#926=DIRECTION('ref_axis',(0.,0.,1.));
#927=DIRECTION('',(0.,0.,1.));
#928=DIRECTION('center_axis',(-1.36529779015981E-16,0.707106781186546,-0.707106781186549));
#929=DIRECTION('ref_axis',(-1.,0.,1.93082265152201E-16));
#930=DIRECTION('',(-1.,0.,1.93082265152201E-16));
#931=DIRECTION('center_axis',(-1.36529779015981E-16,-0.707106781186548,
-0.707106781186548));
#932=DIRECTION('ref_axis',(-1.,0.,1.93082265152201E-16));
#933=DIRECTION('',(-1.,0.,1.93082265152201E-16));
#934=DIRECTION('',(1.,0.,-1.93082265152201E-16));
#935=DIRECTION('center_axis',(-0.707106781186548,-0.707106781186548,0.));
#936=DIRECTION('ref_axis',(0.,0.,1.));
#937=DIRECTION('',(0.,0.,1.));
#938=DIRECTION('',(0.,0.,-1.));
#939=DIRECTION('center_axis',(-0.707106781186547,0.,0.707106781186548));
#940=DIRECTION('ref_axis',(0.707106781186548,0.,0.707106781186547));
#941=DIRECTION('',(0.,1.,0.));
#942=DIRECTION('',(0.,-1.,0.));
#943=DIRECTION('center_axis',(0.707106781186548,0.707106781186548,0.));
#944=DIRECTION('ref_axis',(0.,0.,-1.));
#945=DIRECTION('',(0.,0.,-1.));
#946=DIRECTION('center_axis',(-0.707106781186549,0.,0.707106781186546));
#947=DIRECTION('ref_axis',(0.707106781186546,0.,0.707106781186549));
#948=DIRECTION('',(0.,1.,0.));
#949=DIRECTION('',(0.,-1.,0.));
#950=DIRECTION('center_axis',(-1.36529779015981E-16,0.707106781186547,0.707106781186548));
#951=DIRECTION('ref_axis',(1.,0.,1.93082265152201E-16));
#952=DIRECTION('',(1.,0.,1.93082265152201E-16));
#953=DIRECTION('center_axis',(0.707106781186548,-0.707106781186548,0.));
#954=DIRECTION('ref_axis',(0.,0.,-1.));
#955=DIRECTION('',(0.,0.,-1.));
#956=DIRECTION('',(0.,0.,1.));
#957=DIRECTION('center_axis',(-1.36529779015981E-16,-0.707106781186547,
0.707106781186548));
#958=DIRECTION('ref_axis',(1.,0.,1.93082265152201E-16));
#959=DIRECTION('',(1.,0.,1.93082265152201E-16));
#960=DIRECTION('',(-1.,0.,-1.93082265152201E-16));
#961=DIRECTION('center_axis',(-1.,0.,0.));
#962=DIRECTION('ref_axis',(0.,0.,1.));
#963=DIRECTION('',(0.,0.,-1.));
#964=DIRECTION('center_axis',(1.,0.,0.));
#965=DIRECTION('ref_axis',(0.,0.,1.));
#966=DIRECTION('center_axis',(-1.93082265152201E-16,0.,1.));
#967=DIRECTION('ref_axis',(-1.,0.,-1.93082265152201E-16));
#968=DIRECTION('center_axis',(-1.93082265152201E-16,0.,-1.));
#969=DIRECTION('ref_axis',(1.,0.,-1.93082265152201E-16));
#970=DIRECTION('center_axis',(-1.,0.,0.));
#971=DIRECTION('ref_axis',(0.,0.,-1.));
#972=DIRECTION('center_axis',(0.,-1.,0.));
#973=DIRECTION('ref_axis',(0.,0.,-1.));
#974=DIRECTION('',(0.499999999999999,0.,0.866025403784439));
#975=DIRECTION('',(1.,0.,2.0977774760548E-15));
#976=DIRECTION('',(0.500000000000002,0.,-0.866025403784437));
#977=DIRECTION('',(-0.499999999999999,0.,-0.866025403784439));
#978=DIRECTION('',(-1.,0.,-1.39851831736987E-15));
#979=DIRECTION('',(-0.500000000000001,0.,0.866025403784438));
#980=DIRECTION('center_axis',(0.,1.,0.));
#981=DIRECTION('ref_axis',(1.,0.,0.));
#982=DIRECTION('center_axis',(0.,1.,0.));
#983=DIRECTION('ref_axis',(1.,0.,0.));
#984=DIRECTION('center_axis',(0.,1.,0.));
#985=DIRECTION('ref_axis',(1.,0.,0.));
#986=DIRECTION('center_axis',(0.,1.,0.));
#987=DIRECTION('ref_axis',(1.,0.,0.));
#988=DIRECTION('',(0.,-1.,0.));
#989=DIRECTION('center_axis',(-0.866025403784439,0.,0.499999999999999));
#990=DIRECTION('ref_axis',(0.499999999999999,0.,0.866025403784439));
#991=DIRECTION('',(0.,1.,0.));
#992=DIRECTION('',(0.499999999999999,0.,0.866025403784439));
#993=DIRECTION('',(0.,1.,0.));
#994=DIRECTION('center_axis',(-0.866025403784438,0.,-0.500000000000001));
#995=DIRECTION('ref_axis',(-0.500000000000001,0.,0.866025403784438));
#996=DIRECTION('',(0.,1.,0.));
#997=DIRECTION('',(-0.500000000000001,0.,0.866025403784438));
#998=DIRECTION('center_axis',(1.39851831736986E-15,0.,-1.));
#999=DIRECTION('ref_axis',(-1.,0.,-1.39851831736986E-15));
#1000=DIRECTION('',(0.,1.,0.));
#1001=DIRECTION('',(-1.,0.,-1.39851831736987E-15));
#1002=DIRECTION('center_axis',(0.866025403784439,0.,-0.499999999999999));
#1003=DIRECTION('ref_axis',(-0.499999999999999,0.,-0.866025403784439));
#1004=DIRECTION('',(0.,1.,0.));
#1005=DIRECTION('',(-0.499999999999999,0.,-0.866025403784439));
#1006=DIRECTION('center_axis',(0.866025403784437,0.,0.500000000000002));
#1007=DIRECTION('ref_axis',(0.500000000000002,0.,-0.866025403784437));
#1008=DIRECTION('',(0.,1.,0.));
#1009=DIRECTION('',(0.500000000000002,0.,-0.866025403784437));
#1010=DIRECTION('center_axis',(-2.0977774760548E-15,0.,1.));
#1011=DIRECTION('ref_axis',(1.,0.,2.0977774760548E-15));
#1012=DIRECTION('',(1.,0.,2.0977774760548E-15));
#1013=DIRECTION('center_axis',(0.,1.,0.));
#1014=DIRECTION('ref_axis',(0.,0.,1.));
#1015=DIRECTION('center_axis',(0.,-1.,0.));
#1016=DIRECTION('ref_axis',(-1.,0.,0.));
#1017=DIRECTION('center_axis',(0.,1.,0.));
#1018=DIRECTION('ref_axis',(-1.,0.,0.));
#1019=DIRECTION('center_axis',(0.,-1.,0.));
#1020=DIRECTION('ref_axis',(-1.,0.,0.));
#1021=DIRECTION('',(0.,-1.,0.));
#1022=DIRECTION('center_axis',(0.,1.,0.));
#1023=DIRECTION('ref_axis',(0.,0.,1.));
#1024=CARTESIAN_POINT('',(0.,0.,0.));
#1025=CARTESIAN_POINT('Origin',(0.708661417322834,0.224409448818898,-0.393700787401575));
#1026=CARTESIAN_POINT('',(0.860283464566929,0.236220472440945,-0.393700787401575));
#1027=CARTESIAN_POINT('Origin',(0.708661417322834,0.236220472440945,-0.393700787401575));
#1028=CARTESIAN_POINT('',(0.836661417322834,0.21259842519685,-0.393700787401575));
#1029=CARTESIAN_POINT('',(0.848472440944881,0.224409448818898,-0.393700787401575));
#1030=CARTESIAN_POINT('',(0.580661417322834,0.21259842519685,-0.393700787401575));
#1031=CARTESIAN_POINT('Origin',(0.708661417322834,0.21259842519685,-0.393700787401575));
#1032=CARTESIAN_POINT('Origin',(0.708661417322834,0.21259842519685,-0.393700787401575));
#1033=CARTESIAN_POINT('Origin',(0.708661417322834,0.236220472440945,-0.393700787401575));
#1034=CARTESIAN_POINT('',(0.535433070866141,0.236220472440945,-0.0236220472440944));
#1035=CARTESIAN_POINT('',(0.535433070866141,0.236220472440945,-0.763779527559055));
#1036=CARTESIAN_POINT('',(0.535433070866141,0.236220472440945,-0.590551181102362));
#1037=CARTESIAN_POINT('',(0.881889763779527,0.236220472440945,-0.0236220472440943));
#1038=CARTESIAN_POINT('',(0.807086614173227,0.236220472440945,-0.0236220472440943));
#1039=CARTESIAN_POINT('',(0.881889763779527,0.236220472440945,-0.763779527559055));
#1040=CARTESIAN_POINT('',(0.881889763779527,0.236220472440945,-0.590551181102362));
#1041=CARTESIAN_POINT('',(0.354330708661417,0.236220472440945,-0.763779527559055));
#1042=CARTESIAN_POINT('Origin',(0.708661417322834,0.177220472440945,-0.393700787401575));
#1043=CARTESIAN_POINT('',(0.580661417322834,0.118220472440945,-0.393700787401575));
#1044=CARTESIAN_POINT('',(0.580661417322834,0.177220472440945,-0.393700787401575));
#1045=CARTESIAN_POINT('Origin',(0.708661417322834,0.118220472440945,-0.393700787401575));
#1046=CARTESIAN_POINT('Origin',(0.881889763779527,-0.21259842519685,1.69374575607184E-16));
#1047=CARTESIAN_POINT('',(0.905511811023621,-0.21259842519685,-0.0236220472440943));
#1048=CARTESIAN_POINT('',(0.881889763779527,-0.236220472440945,-0.0236220472440943));
#1049=CARTESIAN_POINT('',(0.905511811023621,-0.21259842519685,-0.0236220472440943));
#1050=CARTESIAN_POINT('',(0.881889763779527,-0.21259842519685,1.70277273205091E-16));
#1051=CARTESIAN_POINT('',(0.881889763779527,-0.21259842519685,1.69374575607184E-16));
#1052=CARTESIAN_POINT('',(0.881889763779527,-0.236220472440945,-0.0236220472440943));
#1053=CARTESIAN_POINT('Origin',(0.905511811023621,0.21259842519685,-0.0236220472440943));
#1054=CARTESIAN_POINT('',(0.881889763779527,0.21259842519685,1.69374575607184E-16));
#1055=CARTESIAN_POINT('',(0.881889763779527,0.21259842519685,1.70158497205366E-16));
#1056=CARTESIAN_POINT('',(0.905511811023621,0.21259842519685,-0.0236220472440943));
#1057=CARTESIAN_POINT('',(0.905511811023621,0.21259842519685,-0.0236220472440943));
#1058=CARTESIAN_POINT('',(0.881889763779527,0.236220472440945,-0.0236220472440943));
#1059=CARTESIAN_POINT('Origin',(0.893700787401574,0.,-0.0118110236220471));
#1060=CARTESIAN_POINT('',(0.881889763779527,0.,1.69374575607184E-16));
#1061=CARTESIAN_POINT('',(0.905511811023621,0.,-0.0236220472440943));
#1062=CARTESIAN_POINT('Origin',(0.,-0.21259842519685,-0.0236220472440945));
#1063=CARTESIAN_POINT('',(0.0236220472440945,-0.21259842519685,5.46369598732853E-18));
#1064=CARTESIAN_POINT('',(0.0236220472440945,-0.236220472440945,-0.0236220472440945));
#1065=CARTESIAN_POINT('',(0.0236220472440945,-0.21259842519685,4.56099838942209E-18));
#1066=CARTESIAN_POINT('',(0.,-0.21259842519685,-0.0236220472440945));
#1067=CARTESIAN_POINT('',(0.,-0.21259842519685,-0.0236220472440945));
#1068=CARTESIAN_POINT('',(0.0236220472440945,-0.236220472440945,-0.0236220472440945));
#1069=CARTESIAN_POINT('Origin',(0.905511811023621,-0.21259842519685,-0.763779527559055));
#1070=CARTESIAN_POINT('',(0.881889763779527,-0.21259842519685,-0.78740157480315));
#1071=CARTESIAN_POINT('',(0.881889763779527,-0.236220472440945,-0.763779527559055));
#1072=CARTESIAN_POINT('',(0.881889763779527,-0.21259842519685,-0.78740157480315));
#1073=CARTESIAN_POINT('',(0.905511811023621,-0.21259842519685,-0.763779527559055));
#1074=CARTESIAN_POINT('',(0.905511811023621,-0.21259842519685,-0.763779527559055));
#1075=CARTESIAN_POINT('',(0.881889763779527,-0.236220472440945,-0.763779527559055));
#1076=CARTESIAN_POINT('Origin',(0.535433070866141,0.21259842519685,1.03810223759242E-16));
#1077=CARTESIAN_POINT('',(0.511811023622047,0.21259842519685,-0.0236220472440945));
#1078=CARTESIAN_POINT('',(0.511811023622047,0.21259842519685,-0.0236220472440945));
#1079=CARTESIAN_POINT('',(0.535433070866141,0.21259842519685,1.03263854160509E-16));
#1080=CARTESIAN_POINT('',(0.535433070866141,0.21259842519685,1.03810223759242E-16));
#1081=CARTESIAN_POINT('',(0.535433070866141,0.236220472440945,-0.0236220472440944));
#1082=CARTESIAN_POINT('Origin',(0.881889763779527,0.21259842519685,-0.78740157480315));
#1083=CARTESIAN_POINT('',(0.905511811023621,0.21259842519685,-0.763779527559055));
#1084=CARTESIAN_POINT('',(0.905511811023621,0.21259842519685,-0.763779527559055));
#1085=CARTESIAN_POINT('',(0.881889763779527,0.21259842519685,-0.78740157480315));
#1086=CARTESIAN_POINT('',(0.881889763779527,0.21259842519685,-0.78740157480315));
#1087=CARTESIAN_POINT('',(0.881889763779527,0.236220472440945,-0.763779527559055));
#1088=CARTESIAN_POINT('Origin',(0.893700787401574,0.,-0.775590551181102));
#1089=CARTESIAN_POINT('',(0.905511811023621,0.,-0.763779527559055));
#1090=CARTESIAN_POINT('',(0.881889763779527,0.,-0.78740157480315));
#1091=CARTESIAN_POINT('Origin',(0.0236220472440945,0.,-0.0236220472440945));
#1092=CARTESIAN_POINT('',(0.0236220472440945,-0.0236220472440945,4.56099838942209E-18));
#1093=CARTESIAN_POINT('',(0.,-0.0236220472440945,-0.0236220472440945));
#1094=CARTESIAN_POINT('',(0.0236220472440945,-0.0236220472440945,5.46369598732853E-18));
#1095=CARTESIAN_POINT('',(0.0236220472440945,0.,-0.0236220472440945));
#1096=CARTESIAN_POINT('',(0.0236220472440945,0.,-0.0236220472440945));
#1097=CARTESIAN_POINT('',(0.,-0.0236220472440945,-0.0236220472440945));
#1098=CARTESIAN_POINT('Origin',(0.679133858267716,-0.0118110236220472,-0.0118110236220471));
#1099=CARTESIAN_POINT('',(0.511811023622047,0.,-0.0236220472440943));
#1100=CARTESIAN_POINT('',(0.679133858267716,0.,-0.0236220472440944));
#1101=CARTESIAN_POINT('',(0.535433070866141,-0.0236220472440945,1.03810223759242E-16));
#1102=CARTESIAN_POINT('',(0.679133858267716,-0.0236220472440945,1.31128703695885E-16));
#1103=CARTESIAN_POINT('',(0.535433070866141,-0.0236220472440945,1.03810223759242E-16));
#1104=CARTESIAN_POINT('Origin',(0.0236220472440945,-0.21259842519685,-0.78740157480315));
#1105=CARTESIAN_POINT('',(0.,-0.21259842519685,-0.763779527559055));
#1106=CARTESIAN_POINT('',(0.0236220472440945,-0.236220472440945,-0.763779527559055));
#1107=CARTESIAN_POINT('',(0.,-0.21259842519685,-0.763779527559055));
#1108=CARTESIAN_POINT('',(0.0236220472440945,-0.21259842519685,-0.78740157480315));
#1109=CARTESIAN_POINT('',(0.0236220472440945,-0.21259842519685,-0.78740157480315));
#1110=CARTESIAN_POINT('',(0.0236220472440945,-0.236220472440945,-0.763779527559055));
#1111=CARTESIAN_POINT('Origin',(0.511811023622047,0.21259842519685,-0.763779527559055));
#1112=CARTESIAN_POINT('',(0.535433070866141,0.21259842519685,-0.78740157480315));
#1113=CARTESIAN_POINT('',(0.535433070866141,0.21259842519685,-0.78740157480315));
#1114=CARTESIAN_POINT('',(0.511811023622047,0.21259842519685,-0.763779527559055));
#1115=CARTESIAN_POINT('',(0.511811023622047,0.21259842519685,-0.763779527559055));
#1116=CARTESIAN_POINT('',(0.535433070866141,0.236220472440945,-0.763779527559055));
#1117=CARTESIAN_POINT('Origin',(0.0236220472440945,-0.0236220472440945,
-0.78740157480315));
#1118=CARTESIAN_POINT('',(0.0236220472440945,0.,-0.763779527559055));
#1119=CARTESIAN_POINT('',(0.,-0.0236220472440945,-0.763779527559055));
#1120=CARTESIAN_POINT('',(0.0236220472440945,0.,-0.763779527559055));
#1121=CARTESIAN_POINT('',(0.0236220472440945,-0.0236220472440945,-0.78740157480315));
#1122=CARTESIAN_POINT('',(0.0236220472440945,-0.0236220472440945,-0.78740157480315));
#1123=CARTESIAN_POINT('',(0.,-0.0236220472440945,-0.763779527559055));
#1124=CARTESIAN_POINT('Origin',(0.226377952755905,-0.0118110236220472,-0.775590551181102));
#1125=CARTESIAN_POINT('',(0.535433070866141,-0.0236220472440945,-0.78740157480315));
#1126=CARTESIAN_POINT('',(0.226377952755905,-0.0236220472440945,-0.78740157480315));
#1127=CARTESIAN_POINT('',(0.511811023622047,0.,-0.763779527559055));
#1128=CARTESIAN_POINT('',(0.226377952755905,0.,-0.763779527559055));
#1129=CARTESIAN_POINT('',(0.511811023622047,0.,-0.763779527559055));
#1130=CARTESIAN_POINT('Origin',(0.523622047244094,0.,-0.775590551181102));
#1131=CARTESIAN_POINT('',(0.511811023622047,0.,-0.763779527559055));
#1132=CARTESIAN_POINT('',(0.535433070866141,0.,-0.78740157480315));
#1133=CARTESIAN_POINT('Origin',(0.0118110236220472,0.,-0.775590551181102));
#1134=CARTESIAN_POINT('',(0.,0.,-0.763779527559055));
#1135=CARTESIAN_POINT('',(0.0236220472440945,0.,-0.78740157480315));
#1136=CARTESIAN_POINT('Origin',(0.0118110236220473,-0.0118110236220472,
-0.196850393700787));
#1137=CARTESIAN_POINT('',(0.0236220472440945,0.,-0.196850393700787));
#1138=CARTESIAN_POINT('',(0.,-0.0236220472440945,-0.196850393700787));
#1139=CARTESIAN_POINT('Origin',(0.523622047244094,0.224409448818898,-0.590551181102362));
#1140=CARTESIAN_POINT('',(0.511811023622047,0.21259842519685,-0.590551181102362));
#1141=CARTESIAN_POINT('Origin',(0.354330708661417,0.224409448818898,-0.775590551181102));
#1142=CARTESIAN_POINT('',(0.354330708661417,0.21259842519685,-0.78740157480315));
#1143=CARTESIAN_POINT('Origin',(0.226377952755905,-0.224409448818898,-0.775590551181102));
#1144=CARTESIAN_POINT('',(0.226377952755905,-0.236220472440945,-0.763779527559055));
#1145=CARTESIAN_POINT('',(0.226377952755905,-0.21259842519685,-0.78740157480315));
#1146=CARTESIAN_POINT('Origin',(0.0118110236220473,-0.224409448818898,-0.196850393700787));
#1147=CARTESIAN_POINT('',(0.0236220472440945,-0.236220472440945,-0.196850393700787));
#1148=CARTESIAN_POINT('',(0.,-0.21259842519685,-0.196850393700787));
#1149=CARTESIAN_POINT('Origin',(0.0118110236220473,0.,-0.0118110236220472));
#1150=CARTESIAN_POINT('',(0.0236220472440945,0.,5.46369598732853E-18));
#1151=CARTESIAN_POINT('',(0.,0.,-0.0236220472440945));
#1152=CARTESIAN_POINT('Origin',(0.893700787401574,0.224409448818898,-0.590551181102362));
#1153=CARTESIAN_POINT('',(0.905511811023621,0.21259842519685,-0.590551181102362));
#1154=CARTESIAN_POINT('Origin',(0.523622047244094,0.,-0.0118110236220472));
#1155=CARTESIAN_POINT('',(0.535433070866141,0.,1.03810223759242E-16));
#1156=CARTESIAN_POINT('',(0.511811023622047,0.,-0.0236220472440945));
#1157=CARTESIAN_POINT('Origin',(0.807086614173227,0.224409448818898,-0.0118110236220471));
#1158=CARTESIAN_POINT('',(0.807086614173227,0.21259842519685,1.55715335638863E-16));
#1159=CARTESIAN_POINT('Origin',(0.893700787401574,-0.224409448818898,-0.590551181102362));
#1160=CARTESIAN_POINT('',(0.881889763779527,-0.236220472440945,-0.590551181102362));
#1161=CARTESIAN_POINT('',(0.905511811023621,-0.21259842519685,-0.590551181102362));
#1162=CARTESIAN_POINT('Origin',(0.679133858267716,-0.224409448818898,-0.0118110236220471));
#1163=CARTESIAN_POINT('',(0.679133858267716,-0.236220472440945,-0.0236220472440944));
#1164=CARTESIAN_POINT('',(0.679133858267716,-0.21259842519685,1.31128703695885E-16));
#1165=CARTESIAN_POINT('Origin',(0.511811023622047,0.,-0.78740157480315));
#1166=CARTESIAN_POINT('',(0.511811023622047,0.,-0.590551181102362));
#1167=CARTESIAN_POINT('Origin',(0.905511811023621,0.,-0.78740157480315));
#1168=CARTESIAN_POINT('Origin',(0.905511811023621,0.,1.74838271594513E-16));
#1169=CARTESIAN_POINT('Origin',(0.,0.,-0.78740157480315));
#1170=CARTESIAN_POINT('Origin',(0.,0.,0.));
#1171=CARTESIAN_POINT('Origin',(0.452755905511811,-0.236220472440945,-0.393700787401575));
#1172=CARTESIAN_POINT('',(0.130888721238467,-0.236220472440945,-0.393700787401575));
#1173=CARTESIAN_POINT('',(0.193397116524745,-0.236220472440945,-0.285433070866142));
#1174=CARTESIAN_POINT('',(0.171122119272635,-0.236220472440945,-0.324014497845254));
#1175=CARTESIAN_POINT('',(0.318413907097302,-0.236220472440945,-0.285433070866142));
#1176=CARTESIAN_POINT('',(0.323076511018278,-0.236220472440945,-0.285433070866142));
#1177=CARTESIAN_POINT('',(0.380922302383581,-0.236220472440945,-0.393700787401575));
#1178=CARTESIAN_POINT('',(0.35864730513147,-0.236220472440945,-0.355119360422462));
#1179=CARTESIAN_POINT('',(0.318413907097302,-0.236220472440945,-0.501968503937008));
#1180=CARTESIAN_POINT('',(0.389901502774609,-0.236220472440945,-0.378148356112971));
#1181=CARTESIAN_POINT('',(0.193397116524746,-0.236220472440945,-0.501968503937008));
#1182=CARTESIAN_POINT('',(0.385584906304557,-0.236220472440945,-0.501968503937008));
#1183=CARTESIAN_POINT('',(0.202376316915774,-0.236220472440945,-0.517520935225612));
#1184=CARTESIAN_POINT('',(0.641661417322834,-0.236220472440945,-0.393700787401575));
#1185=CARTESIAN_POINT('Origin',(0.708661417322834,-0.236220472440945,-0.393700787401575));
#1186=CARTESIAN_POINT('Origin',(0.708661417322834,0.118220472440945,-0.393700787401575));
#1187=CARTESIAN_POINT('',(0.641661417322834,0.118220472440945,-0.393700787401575));
#1188=CARTESIAN_POINT('Origin',(0.708661417322834,0.118220472440945,-0.393700787401575));
#1189=CARTESIAN_POINT('Origin',(0.708661417322834,-1.05341254757159,-0.393700787401575));
#1190=CARTESIAN_POINT('',(0.641661417322834,-1.05341254757159,-0.393700787401575));
#1191=CARTESIAN_POINT('Origin',(0.130888721238467,-0.236220472440945,-0.393700787401575));
#1192=CARTESIAN_POINT('',(0.130888721238467,-0.149606299212598,-0.393700787401575));
#1193=CARTESIAN_POINT('',(0.130888721238467,-0.236220472440945,-0.393700787401575));
#1194=CARTESIAN_POINT('',(0.193397116524745,-0.149606299212598,-0.285433070866142));
#1195=CARTESIAN_POINT('',(0.193397116524745,-0.149606299212598,-0.285433070866142));
#1196=CARTESIAN_POINT('',(0.193397116524745,-0.236220472440945,-0.285433070866142));
#1197=CARTESIAN_POINT('Origin',(0.193397116524746,-0.236220472440945,-0.501968503937008));
#1198=CARTESIAN_POINT('',(0.193397116524746,-0.149606299212598,-0.501968503937008));
#1199=CARTESIAN_POINT('',(0.193397116524746,-0.236220472440945,-0.501968503937008));
#1200=CARTESIAN_POINT('',(0.130888721238467,-0.149606299212598,-0.393700787401575));
#1201=CARTESIAN_POINT('Origin',(0.318413907097302,-0.236220472440945,-0.501968503937008));
#1202=CARTESIAN_POINT('',(0.318413907097302,-0.149606299212598,-0.501968503937008));
#1203=CARTESIAN_POINT('',(0.318413907097302,-0.236220472440945,-0.501968503937008));
#1204=CARTESIAN_POINT('',(0.193397116524746,-0.149606299212598,-0.501968503937008));
#1205=CARTESIAN_POINT('Origin',(0.380922302383581,-0.236220472440945,-0.393700787401575));
#1206=CARTESIAN_POINT('',(0.380922302383581,-0.149606299212598,-0.393700787401575));
#1207=CARTESIAN_POINT('',(0.380922302383581,-0.236220472440945,-0.393700787401575));
#1208=CARTESIAN_POINT('',(0.318413907097302,-0.149606299212598,-0.501968503937008));
#1209=CARTESIAN_POINT('Origin',(0.318413907097302,-0.236220472440945,-0.285433070866142));
#1210=CARTESIAN_POINT('',(0.318413907097302,-0.149606299212598,-0.285433070866142));
#1211=CARTESIAN_POINT('',(0.318413907097302,-0.236220472440945,-0.285433070866142));
#1212=CARTESIAN_POINT('',(0.380922302383581,-0.149606299212598,-0.393700787401575));
#1213=CARTESIAN_POINT('Origin',(0.193397116524745,-0.236220472440945,-0.285433070866142));
#1214=CARTESIAN_POINT('',(0.318413907097302,-0.149606299212598,-0.285433070866142));
#1215=CARTESIAN_POINT('Origin',(0.255905511811024,-0.149606299212598,-0.393700787401575));
#1216=CARTESIAN_POINT('',(0.322905511811024,-0.149606299212598,-0.393700787401575));
#1217=CARTESIAN_POINT('Origin',(0.255905511811024,-0.149606299212598,-0.393700787401575));
#1218=CARTESIAN_POINT('Origin',(0.255905511811024,-1.22300980842591,-0.393700787401575));
#1219=CARTESIAN_POINT('',(0.322905511811024,0.,-0.393700787401575));
#1220=CARTESIAN_POINT('Origin',(0.255905511811024,0.,-0.393700787401575));
#1221=CARTESIAN_POINT('',(0.322905511811024,-1.22300980842591,-0.393700787401575));
#1222=CARTESIAN_POINT('Origin',(0.452755905511811,0.,-0.393700787401575));
#1223=UNCERTAINTY_MEASURE_WITH_UNIT(LENGTH_MEASURE(0.000393700787401575),
#1229,'DISTANCE_ACCURACY_VALUE',
'Maximum model space distance between geometric entities at asserted c
onnectivities');
#1224=UNCERTAINTY_MEASURE_WITH_UNIT(LENGTH_MEASURE(0.000393700787401575),
#1229,'DISTANCE_ACCURACY_VALUE',
'Maximum model space distance between geometric entities at asserted c
onnectivities');
#1225=(
GEOMETRIC_REPRESENTATION_CONTEXT(3)
GLOBAL_UNCERTAINTY_ASSIGNED_CONTEXT((#1223))
GLOBAL_UNIT_ASSIGNED_CONTEXT((#1229,#1233,#1234))
REPRESENTATION_CONTEXT('','3D')
);
#1226=(
GEOMETRIC_REPRESENTATION_CONTEXT(3)
GLOBAL_UNCERTAINTY_ASSIGNED_CONTEXT((#1224))
GLOBAL_UNIT_ASSIGNED_CONTEXT((#1229,#1233,#1234))
REPRESENTATION_CONTEXT('','3D')
);
#1227=DIMENSIONAL_EXPONENTS(1.,0.,0.,0.,0.,0.,0.);
#1228=DIMENSIONAL_EXPONENTS(0.,1.,0.,0.,0.,0.,0.);
#1229=(
CONVERSION_BASED_UNIT('inch',#1232)
LENGTH_UNIT()
NAMED_UNIT(#1227)
);
#1230=(
LENGTH_UNIT()
NAMED_UNIT(*)
SI_UNIT(.MILLI.,.METRE.)
);
#1231=(
LENGTH_UNIT()
NAMED_UNIT(*)
SI_UNIT(.CENTI.,.METRE.)
);
#1232=LENGTH_MEASURE_WITH_UNIT(LENGTH_MEASURE(25.4),#1230);
#1233=(
NAMED_UNIT(*)
PLANE_ANGLE_UNIT()
SI_UNIT($,.RADIAN.)
);
#1234=(
NAMED_UNIT(*)
SI_UNIT($,.STERADIAN.)
SOLID_ANGLE_UNIT()
);
#1235=SHAPE_DEFINITION_REPRESENTATION(#1236,#1237);
#1236=PRODUCT_DEFINITION_SHAPE('',$,#1239);
#1237=SHAPE_REPRESENTATION('',(#767),#1225);
#1238=PRODUCT_DEFINITION_CONTEXT('part definition',#1243,'design');
#1239=PRODUCT_DEFINITION('Part2','Fixed Jaw (M3)',#1240,#1238);
#1240=PRODUCT_DEFINITION_FORMATION('',$,#1245);
#1241=PRODUCT_RELATED_PRODUCT_CATEGORY('Fixed Jaw (M3)',
'Fixed Jaw (M3)',(#1245));
#1242=APPLICATION_PROTOCOL_DEFINITION('international standard',
'automotive_design',2009,#1243);
#1243=APPLICATION_CONTEXT(
'Core Data for Automotive Mechanical Design Process');
#1244=PRODUCT_CONTEXT('part definition',#1243,'mechanical');
#1245=PRODUCT('Part2','Fixed Jaw (M3)',$,(#1244));
#1246=PRESENTATION_STYLE_ASSIGNMENT((#1247));
#1247=SURFACE_STYLE_USAGE(.BOTH.,#1250);
#1248=SURFACE_STYLE_RENDERING_WITH_PROPERTIES($,#1254,(#1249));
#1249=SURFACE_STYLE_TRANSPARENT(0.);
#1250=SURFACE_SIDE_STYLE('',(#1251,#1248));
#1251=SURFACE_STYLE_FILL_AREA(#1252);
#1252=FILL_AREA_STYLE('',(#1253));
#1253=FILL_AREA_STYLE_COLOUR('',#1254);
#1254=COLOUR_RGB('',0.749019607843137,0.749019607843137,0.749019607843137);
ENDSEC;
END-ISO-10303-21;
