ISO-10303-21;
HEADER;
/* Generated by software containing ST-Developer
 * from STEP Tools, Inc. (www.steptools.com) 
 */

FILE_DESCRIPTION(
/* description */ (''),
/* implementation_level */ '2;1');

FILE_NAME(
/* name */ 'Moving Jaw (M4).stp',
/* time_stamp */ '2026-07-26T11:38:45-04:00',
/* author */ ('JoshuaEah'),
/* organization */ (''),
/* preprocessor_version */ 'ST-DEVELOPER v20.1',
/* originating_system */ 'Autodesk Inventor 2026',
/* authorisation */ '');

FILE_SCHEMA (('AUTOMOTIVE_DESIGN { 1 0 10303 214 3 1 1 }'));
ENDSEC;

DATA;
#10=MECHANICAL_DESIGN_GEOMETRIC_PRESENTATION_REPRESENTATION('',(#13),#1467);
#11=SHAPE_REPRESENTATION_RELATIONSHIP('SRR','None',#1478,#12);
#12=ADVANCED_BREP_SHAPE_REPRESENTATION('',(#14),#1466);
#13=STYLED_ITEM('',(#1487),#14);
#14=MANIFOLD_SOLID_BREP('Solid1',#899);
#15=CYLINDRICAL_SURFACE('',#935,0.1575);
#16=CYLINDRICAL_SURFACE('',#972,0.1575);
#17=CYLINDRICAL_SURFACE('',#978,0.0826771653543307);
#18=CYLINDRICAL_SURFACE('',#980,0.0826771653543307);
#19=CIRCLE('',#927,0.181122047244095);
#20=CIRCLE('',#928,0.1575);
#21=CIRCLE('',#931,0.181122047244094);
#22=CIRCLE('',#932,0.1575);
#23=CIRCLE('',#936,0.1575);
#24=CIRCLE('',#960,0.0826771653543307);
#25=CIRCLE('',#961,0.0826771653543307);
#26=CIRCLE('',#973,0.1575);
#27=CIRCLE('',#975,0.0826771653543307);
#28=CIRCLE('',#976,0.0826771653543307);
#29=CONICAL_SURFACE('',#926,0.169311023622047,0.785398163397445);
#30=CONICAL_SURFACE('',#930,0.169311023622047,0.785398163397448);
#31=FACE_BOUND('',#90,.T.);
#32=FACE_BOUND('',#98,.T.);
#33=FACE_BOUND('',#121,.T.);
#34=FACE_BOUND('',#134,.T.);
#35=FACE_OUTER_BOUND('',#85,.T.);
#36=FACE_OUTER_BOUND('',#86,.T.);
#37=FACE_OUTER_BOUND('',#87,.T.);
#38=FACE_OUTER_BOUND('',#88,.T.);
#39=FACE_OUTER_BOUND('',#89,.T.);
#40=FACE_OUTER_BOUND('',#91,.T.);
#41=FACE_OUTER_BOUND('',#92,.T.);
#42=FACE_OUTER_BOUND('',#93,.T.);
#43=FACE_OUTER_BOUND('',#94,.T.);
#44=FACE_OUTER_BOUND('',#95,.T.);
#45=FACE_OUTER_BOUND('',#96,.T.);
#46=FACE_OUTER_BOUND('',#97,.T.);
#47=FACE_OUTER_BOUND('',#99,.T.);
#48=FACE_OUTER_BOUND('',#100,.T.);
#49=FACE_OUTER_BOUND('',#101,.T.);
#50=FACE_OUTER_BOUND('',#102,.T.);
#51=FACE_OUTER_BOUND('',#103,.T.);
#52=FACE_OUTER_BOUND('',#104,.T.);
#53=FACE_OUTER_BOUND('',#105,.T.);
#54=FACE_OUTER_BOUND('',#106,.T.);
#55=FACE_OUTER_BOUND('',#107,.T.);
#56=FACE_OUTER_BOUND('',#108,.T.);
#57=FACE_OUTER_BOUND('',#109,.T.);
#58=FACE_OUTER_BOUND('',#110,.T.);
#59=FACE_OUTER_BOUND('',#111,.T.);
#60=FACE_OUTER_BOUND('',#112,.T.);
#61=FACE_OUTER_BOUND('',#113,.T.);
#62=FACE_OUTER_BOUND('',#114,.T.);
#63=FACE_OUTER_BOUND('',#115,.T.);
#64=FACE_OUTER_BOUND('',#116,.T.);
#65=FACE_OUTER_BOUND('',#117,.T.);
#66=FACE_OUTER_BOUND('',#118,.T.);
#67=FACE_OUTER_BOUND('',#119,.T.);
#68=FACE_OUTER_BOUND('',#120,.T.);
#69=FACE_OUTER_BOUND('',#122,.T.);
#70=FACE_OUTER_BOUND('',#123,.T.);
#71=FACE_OUTER_BOUND('',#124,.T.);
#72=FACE_OUTER_BOUND('',#125,.T.);
#73=FACE_OUTER_BOUND('',#126,.T.);
#74=FACE_OUTER_BOUND('',#127,.T.);
#75=FACE_OUTER_BOUND('',#128,.T.);
#76=FACE_OUTER_BOUND('',#129,.T.);
#77=FACE_OUTER_BOUND('',#130,.T.);
#78=FACE_OUTER_BOUND('',#131,.T.);
#79=FACE_OUTER_BOUND('',#132,.T.);
#80=FACE_OUTER_BOUND('',#133,.T.);
#81=FACE_OUTER_BOUND('',#135,.T.);
#82=FACE_OUTER_BOUND('',#136,.T.);
#83=FACE_OUTER_BOUND('',#137,.T.);
#84=FACE_OUTER_BOUND('',#138,.T.);
#85=EDGE_LOOP('',(#561,#562,#563,#564));
#86=EDGE_LOOP('',(#565,#566,#567,#568));
#87=EDGE_LOOP('',(#569,#570,#571,#572));
#88=EDGE_LOOP('',(#573,#574,#575,#576));
#89=EDGE_LOOP('',(#577,#578,#579,#580));
#90=EDGE_LOOP('',(#581,#582,#583,#584));
#91=EDGE_LOOP('',(#585,#586,#587,#588));
#92=EDGE_LOOP('',(#589,#590,#591,#592));
#93=EDGE_LOOP('',(#593,#594,#595,#596));
#94=EDGE_LOOP('',(#597,#598,#599,#600));
#95=EDGE_LOOP('',(#601,#602,#603,#604));
#96=EDGE_LOOP('',(#605,#606,#607,#608));
#97=EDGE_LOOP('',(#609,#610,#611,#612));
#98=EDGE_LOOP('',(#613,#614,#615,#616));
#99=EDGE_LOOP('',(#617,#618,#619,#620,#621,#622));
#100=EDGE_LOOP('',(#623,#624,#625,#626,#627,#628));
#101=EDGE_LOOP('',(#629,#630,#631,#632,#633));
#102=EDGE_LOOP('',(#634,#635,#636,#637));
#103=EDGE_LOOP('',(#638,#639,#640,#641,#642));
#104=EDGE_LOOP('',(#643,#644,#645,#646));
#105=EDGE_LOOP('',(#647,#648,#649,#650));
#106=EDGE_LOOP('',(#651,#652,#653,#654));
#107=EDGE_LOOP('',(#655,#656,#657,#658));
#108=EDGE_LOOP('',(#659,#660,#661,#662));
#109=EDGE_LOOP('',(#663,#664,#665,#666));
#110=EDGE_LOOP('',(#667,#668,#669,#670,#671,#672,#673,#674,#675));
#111=EDGE_LOOP('',(#676,#677,#678,#679,#680));
#112=EDGE_LOOP('',(#681,#682,#683,#684));
#113=EDGE_LOOP('',(#685,#686,#687,#688));
#114=EDGE_LOOP('',(#689,#690,#691,#692));
#115=EDGE_LOOP('',(#693,#694,#695,#696));
#116=EDGE_LOOP('',(#697,#698,#699,#700));
#117=EDGE_LOOP('',(#701,#702,#703,#704,#705));
#118=EDGE_LOOP('',(#706,#707,#708,#709,#710,#711));
#119=EDGE_LOOP('',(#712,#713,#714,#715));
#120=EDGE_LOOP('',(#716,#717,#718,#719));
#121=EDGE_LOOP('',(#720,#721,#722,#723));
#122=EDGE_LOOP('',(#724,#725,#726,#727));
#123=EDGE_LOOP('',(#728,#729,#730,#731));
#124=EDGE_LOOP('',(#732,#733,#734,#735));
#125=EDGE_LOOP('',(#736,#737,#738,#739,#740,#741));
#126=EDGE_LOOP('',(#742,#743,#744,#745,#746,#747));
#127=EDGE_LOOP('',(#748,#749,#750,#751,#752,#753));
#128=EDGE_LOOP('',(#754,#755,#756,#757,#758,#759));
#129=EDGE_LOOP('',(#760,#761,#762,#763,#764,#765,#766,#767,#768));
#130=EDGE_LOOP('',(#769,#770,#771,#772));
#131=EDGE_LOOP('',(#773,#774,#775,#776));
#132=EDGE_LOOP('',(#777,#778,#779,#780));
#133=EDGE_LOOP('',(#781,#782,#783,#784));
#134=EDGE_LOOP('',(#785,#786,#787,#788));
#135=EDGE_LOOP('',(#789,#790,#791,#792));
#136=EDGE_LOOP('',(#793,#794,#795,#796));
#137=EDGE_LOOP('',(#797,#798,#799,#800));
#138=EDGE_LOOP('',(#801,#802,#803,#804));
#139=LINE('',#1219,#251);
#140=LINE('',#1221,#252);
#141=LINE('',#1223,#253);
#142=LINE('',#1224,#254);
#143=LINE('',#1227,#255);
#144=LINE('',#1229,#256);
#145=LINE('',#1230,#257);
#146=LINE('',#1233,#258);
#147=LINE('',#1235,#259);
#148=LINE('',#1236,#260);
#149=LINE('',#1238,#261);
#150=LINE('',#1239,#262);
#151=LINE('',#1243,#263);
#152=LINE('',#1245,#264);
#153=LINE('',#1247,#265);
#154=LINE('',#1248,#266);
#155=LINE('',#1252,#267);
#156=LINE('',#1256,#268);
#157=LINE('',#1261,#269);
#158=LINE('',#1262,#270);
#159=LINE('',#1263,#271);
#160=LINE('',#1267,#272);
#161=LINE('',#1271,#273);
#162=LINE('',#1272,#274);
#163=LINE('',#1275,#275);
#164=LINE('',#1277,#276);
#165=LINE('',#1278,#277);
#166=LINE('',#1281,#278);
#167=LINE('',#1286,#279);
#168=LINE('',#1288,#280);
#169=LINE('',#1290,#281);
#170=LINE('',#1291,#282);
#171=LINE('',#1295,#283);
#172=LINE('',#1297,#284);
#173=LINE('',#1299,#285);
#174=LINE('',#1300,#286);
#175=LINE('',#1301,#287);
#176=LINE('',#1304,#288);
#177=LINE('',#1306,#289);
#178=LINE('',#1308,#290);
#179=LINE('',#1309,#291);
#180=LINE('',#1312,#292);
#181=LINE('',#1314,#293);
#182=LINE('',#1315,#294);
#183=LINE('',#1319,#295);
#184=LINE('',#1321,#296);
#185=LINE('',#1323,#297);
#186=LINE('',#1324,#298);
#187=LINE('',#1327,#299);
#188=LINE('',#1329,#300);
#189=LINE('',#1331,#301);
#190=LINE('',#1332,#302);
#191=LINE('',#1335,#303);
#192=LINE('',#1337,#304);
#193=LINE('',#1338,#305);
#194=LINE('',#1341,#306);
#195=LINE('',#1343,#307);
#196=LINE('',#1344,#308);
#197=LINE('',#1347,#309);
#198=LINE('',#1349,#310);
#199=LINE('',#1350,#311);
#200=LINE('',#1352,#312);
#201=LINE('',#1353,#313);
#202=LINE('',#1356,#314);
#203=LINE('',#1358,#315);
#204=LINE('',#1359,#316);
#205=LINE('',#1361,#317);
#206=LINE('',#1363,#318);
#207=LINE('',#1366,#319);
#208=LINE('',#1368,#320);
#209=LINE('',#1369,#321);
#210=LINE('',#1372,#322);
#211=LINE('',#1373,#323);
#212=LINE('',#1376,#324);
#213=LINE('',#1378,#325);
#214=LINE('',#1379,#326);
#215=LINE('',#1382,#327);
#216=LINE('',#1384,#328);
#217=LINE('',#1385,#329);
#218=LINE('',#1388,#330);
#219=LINE('',#1390,#331);
#220=LINE('',#1391,#332);
#221=LINE('',#1394,#333);
#222=LINE('',#1396,#334);
#223=LINE('',#1397,#335);
#224=LINE('',#1400,#336);
#225=LINE('',#1402,#337);
#226=LINE('',#1404,#338);
#227=LINE('',#1405,#339);
#228=LINE('',#1408,#340);
#229=LINE('',#1410,#341);
#230=LINE('',#1411,#342);
#231=LINE('',#1413,#343);
#232=LINE('',#1415,#344);
#233=LINE('',#1418,#345);
#234=LINE('',#1422,#346);
#235=LINE('',#1425,#347);
#236=LINE('',#1427,#348);
#237=LINE('',#1429,#349);
#238=LINE('',#1431,#350);
#239=LINE('',#1432,#351);
#240=LINE('',#1434,#352);
#241=LINE('',#1436,#353);
#242=LINE('',#1438,#354);
#243=LINE('',#1443,#355);
#244=LINE('',#1444,#356);
#245=LINE('',#1450,#357);
#246=LINE('',#1454,#358);
#247=LINE('',#1457,#359);
#248=LINE('',#1458,#360);
#249=LINE('',#1460,#361);
#250=LINE('',#1462,#362);
#251=VECTOR('',#985,0.393700787401575);
#252=VECTOR('',#986,0.393700787401575);
#253=VECTOR('',#987,0.393700787401575);
#254=VECTOR('',#988,0.393700787401575);
#255=VECTOR('',#991,0.393700787401575);
#256=VECTOR('',#992,0.393700787401575);
#257=VECTOR('',#993,0.393700787401575);
#258=VECTOR('',#996,0.393700787401575);
#259=VECTOR('',#997,0.393700787401575);
#260=VECTOR('',#998,0.393700787401575);
#261=VECTOR('',#1001,0.393700787401575);
#262=VECTOR('',#1002,0.393700787401575);
#263=VECTOR('',#1005,0.393700787401575);
#264=VECTOR('',#1006,0.393700787401575);
#265=VECTOR('',#1007,0.393700787401575);
#266=VECTOR('',#1008,0.393700787401575);
#267=VECTOR('',#1011,0.393700787401575);
#268=VECTOR('',#1014,0.393700787401575);
#269=VECTOR('',#1019,0.393700787401575);
#270=VECTOR('',#1020,0.393700787401575);
#271=VECTOR('',#1021,0.393700787401575);
#272=VECTOR('',#1024,0.393700787401575);
#273=VECTOR('',#1031,0.393700787401575);
#274=VECTOR('',#1032,0.393700787401575);
#275=VECTOR('',#1035,0.393700787401575);
#276=VECTOR('',#1036,0.393700787401575);
#277=VECTOR('',#1037,0.393700787401575);
#278=VECTOR('',#1040,0.393700787401575);
#279=VECTOR('',#1045,0.393700787401575);
#280=VECTOR('',#1046,0.393700787401575);
#281=VECTOR('',#1047,0.393700787401575);
#282=VECTOR('',#1048,0.393700787401575);
#283=VECTOR('',#1051,0.393700787401575);
#284=VECTOR('',#1052,0.393700787401575);
#285=VECTOR('',#1053,0.393700787401575);
#286=VECTOR('',#1054,0.393700787401575);
#287=VECTOR('',#1055,0.393700787401575);
#288=VECTOR('',#1058,0.393700787401575);
#289=VECTOR('',#1059,0.393700787401575);
#290=VECTOR('',#1060,0.393700787401575);
#291=VECTOR('',#1061,0.393700787401575);
#292=VECTOR('',#1064,0.393700787401575);
#293=VECTOR('',#1065,0.393700787401575);
#294=VECTOR('',#1066,0.393700787401575);
#295=VECTOR('',#1069,0.393700787401575);
#296=VECTOR('',#1070,0.393700787401575);
#297=VECTOR('',#1071,0.393700787401575);
#298=VECTOR('',#1072,0.393700787401575);
#299=VECTOR('',#1075,0.393700787401575);
#300=VECTOR('',#1076,0.393700787401575);
#301=VECTOR('',#1077,0.393700787401575);
#302=VECTOR('',#1078,0.393700787401575);
#303=VECTOR('',#1081,0.393700787401575);
#304=VECTOR('',#1082,0.393700787401575);
#305=VECTOR('',#1083,0.393700787401575);
#306=VECTOR('',#1086,0.393700787401575);
#307=VECTOR('',#1087,0.393700787401575);
#308=VECTOR('',#1088,0.393700787401575);
#309=VECTOR('',#1091,0.393700787401575);
#310=VECTOR('',#1092,0.393700787401575);
#311=VECTOR('',#1093,0.393700787401575);
#312=VECTOR('',#1096,0.393700787401575);
#313=VECTOR('',#1097,0.393700787401575);
#314=VECTOR('',#1100,0.393700787401575);
#315=VECTOR('',#1101,0.393700787401575);
#316=VECTOR('',#1102,0.393700787401575);
#317=VECTOR('',#1105,0.393700787401575);
#318=VECTOR('',#1108,0.393700787401575);
#319=VECTOR('',#1111,0.393700787401575);
#320=VECTOR('',#1112,0.393700787401575);
#321=VECTOR('',#1113,0.393700787401575);
#322=VECTOR('',#1116,0.393700787401575);
#323=VECTOR('',#1117,0.393700787401575);
#324=VECTOR('',#1120,0.393700787401575);
#325=VECTOR('',#1121,0.393700787401575);
#326=VECTOR('',#1122,0.393700787401575);
#327=VECTOR('',#1125,0.393700787401575);
#328=VECTOR('',#1126,0.393700787401575);
#329=VECTOR('',#1127,0.393700787401575);
#330=VECTOR('',#1130,0.393700787401575);
#331=VECTOR('',#1131,0.393700787401575);
#332=VECTOR('',#1132,0.393700787401575);
#333=VECTOR('',#1135,0.393700787401575);
#334=VECTOR('',#1136,0.393700787401575);
#335=VECTOR('',#1137,0.393700787401575);
#336=VECTOR('',#1140,0.393700787401575);
#337=VECTOR('',#1141,0.393700787401575);
#338=VECTOR('',#1142,0.393700787401575);
#339=VECTOR('',#1143,0.393700787401575);
#340=VECTOR('',#1146,0.393700787401575);
#341=VECTOR('',#1147,0.393700787401575);
#342=VECTOR('',#1148,0.393700787401575);
#343=VECTOR('',#1151,0.393700787401575);
#344=VECTOR('',#1154,0.393700787401575);
#345=VECTOR('',#1155,0.393700787401575);
#346=VECTOR('',#1158,0.393700787401575);
#347=VECTOR('',#1163,0.393700787401575);
#348=VECTOR('',#1166,0.393700787401575);
#349=VECTOR('',#1169,0.393700787401575);
#350=VECTOR('',#1172,0.393700787401575);
#351=VECTOR('',#1173,0.393700787401575);
#352=VECTOR('',#1176,0.393700787401575);
#353=VECTOR('',#1179,0.393700787401575);
#354=VECTOR('',#1182,0.393700787401575);
#355=VECTOR('',#1189,0.393700787401575);
#356=VECTOR('',#1190,0.393700787401575);
#357=VECTOR('',#1197,0.393700787401575);
#358=VECTOR('',#1200,0.393700787401575);
#359=VECTOR('',#1205,0.393700787401575);
#360=VECTOR('',#1206,0.393700787401575);
#361=VECTOR('',#1209,0.393700787401575);
#362=VECTOR('',#1212,0.393700787401575);
#363=VERTEX_POINT('',#1217);
#364=VERTEX_POINT('',#1218);
#365=VERTEX_POINT('',#1220);
#366=VERTEX_POINT('',#1222);
#367=VERTEX_POINT('',#1226);
#368=VERTEX_POINT('',#1228);
#369=VERTEX_POINT('',#1232);
#370=VERTEX_POINT('',#1234);
#371=VERTEX_POINT('',#1241);
#372=VERTEX_POINT('',#1242);
#373=VERTEX_POINT('',#1244);
#374=VERTEX_POINT('',#1246);
#375=VERTEX_POINT('',#1250);
#376=VERTEX_POINT('',#1251);
#377=VERTEX_POINT('',#1253);
#378=VERTEX_POINT('',#1255);
#379=VERTEX_POINT('',#1259);
#380=VERTEX_POINT('',#1260);
#381=VERTEX_POINT('',#1265);
#382=VERTEX_POINT('',#1266);
#383=VERTEX_POINT('',#1274);
#384=VERTEX_POINT('',#1276);
#385=VERTEX_POINT('',#1280);
#386=VERTEX_POINT('',#1284);
#387=VERTEX_POINT('',#1285);
#388=VERTEX_POINT('',#1287);
#389=VERTEX_POINT('',#1289);
#390=VERTEX_POINT('',#1293);
#391=VERTEX_POINT('',#1294);
#392=VERTEX_POINT('',#1296);
#393=VERTEX_POINT('',#1298);
#394=VERTEX_POINT('',#1303);
#395=VERTEX_POINT('',#1305);
#396=VERTEX_POINT('',#1307);
#397=VERTEX_POINT('',#1311);
#398=VERTEX_POINT('',#1313);
#399=VERTEX_POINT('',#1317);
#400=VERTEX_POINT('',#1318);
#401=VERTEX_POINT('',#1320);
#402=VERTEX_POINT('',#1322);
#403=VERTEX_POINT('',#1326);
#404=VERTEX_POINT('',#1328);
#405=VERTEX_POINT('',#1330);
#406=VERTEX_POINT('',#1334);
#407=VERTEX_POINT('',#1336);
#408=VERTEX_POINT('',#1340);
#409=VERTEX_POINT('',#1342);
#410=VERTEX_POINT('',#1346);
#411=VERTEX_POINT('',#1348);
#412=VERTEX_POINT('',#1355);
#413=VERTEX_POINT('',#1357);
#414=VERTEX_POINT('',#1365);
#415=VERTEX_POINT('',#1367);
#416=VERTEX_POINT('',#1371);
#417=VERTEX_POINT('',#1375);
#418=VERTEX_POINT('',#1377);
#419=VERTEX_POINT('',#1381);
#420=VERTEX_POINT('',#1383);
#421=VERTEX_POINT('',#1387);
#422=VERTEX_POINT('',#1389);
#423=VERTEX_POINT('',#1393);
#424=VERTEX_POINT('',#1395);
#425=VERTEX_POINT('',#1399);
#426=VERTEX_POINT('',#1401);
#427=VERTEX_POINT('',#1403);
#428=VERTEX_POINT('',#1407);
#429=VERTEX_POINT('',#1409);
#430=VERTEX_POINT('',#1416);
#431=VERTEX_POINT('',#1417);
#432=VERTEX_POINT('',#1419);
#433=VERTEX_POINT('',#1421);
#434=VERTEX_POINT('',#1442);
#435=VERTEX_POINT('',#1448);
#436=VERTEX_POINT('',#1449);
#437=VERTEX_POINT('',#1451);
#438=VERTEX_POINT('',#1453);
#439=EDGE_CURVE('',#363,#364,#139,.T.);
#440=EDGE_CURVE('',#364,#365,#140,.T.);
#441=EDGE_CURVE('',#365,#366,#141,.T.);
#442=EDGE_CURVE('',#363,#366,#142,.T.);
#443=EDGE_CURVE('',#364,#367,#143,.T.);
#444=EDGE_CURVE('',#367,#368,#144,.T.);
#445=EDGE_CURVE('',#368,#365,#145,.T.);
#446=EDGE_CURVE('',#366,#369,#146,.T.);
#447=EDGE_CURVE('',#369,#370,#147,.T.);
#448=EDGE_CURVE('',#370,#363,#148,.T.);
#449=EDGE_CURVE('',#367,#370,#149,.T.);
#450=EDGE_CURVE('',#369,#368,#150,.T.);
#451=EDGE_CURVE('',#371,#372,#151,.T.);
#452=EDGE_CURVE('',#373,#371,#152,.T.);
#453=EDGE_CURVE('',#374,#373,#153,.T.);
#454=EDGE_CURVE('',#372,#374,#154,.T.);
#455=EDGE_CURVE('',#375,#376,#155,.T.);
#456=EDGE_CURVE('',#376,#377,#19,.T.);
#457=EDGE_CURVE('',#377,#378,#156,.T.);
#458=EDGE_CURVE('',#378,#375,#20,.T.);
#459=EDGE_CURVE('',#379,#380,#157,.T.);
#460=EDGE_CURVE('',#380,#376,#158,.T.);
#461=EDGE_CURVE('',#375,#379,#159,.T.);
#462=EDGE_CURVE('',#381,#382,#160,.T.);
#463=EDGE_CURVE('',#382,#380,#21,.T.);
#464=EDGE_CURVE('',#379,#381,#22,.T.);
#465=EDGE_CURVE('',#377,#382,#161,.T.);
#466=EDGE_CURVE('',#381,#378,#162,.T.);
#467=EDGE_CURVE('',#375,#383,#163,.T.);
#468=EDGE_CURVE('',#383,#384,#164,.T.);
#469=EDGE_CURVE('',#379,#384,#165,.T.);
#470=EDGE_CURVE('',#378,#385,#166,.T.);
#471=EDGE_CURVE('',#385,#383,#23,.T.);
#472=EDGE_CURVE('',#386,#387,#167,.T.);
#473=EDGE_CURVE('',#388,#386,#168,.T.);
#474=EDGE_CURVE('',#389,#388,#169,.T.);
#475=EDGE_CURVE('',#387,#389,#170,.T.);
#476=EDGE_CURVE('',#390,#391,#171,.T.);
#477=EDGE_CURVE('',#391,#392,#172,.T.);
#478=EDGE_CURVE('',#392,#393,#173,.T.);
#479=EDGE_CURVE('',#393,#386,#174,.T.);
#480=EDGE_CURVE('',#387,#390,#175,.T.);
#481=EDGE_CURVE('',#394,#393,#176,.T.);
#482=EDGE_CURVE('',#394,#395,#177,.T.);
#483=EDGE_CURVE('',#396,#395,#178,.T.);
#484=EDGE_CURVE('',#388,#396,#179,.T.);
#485=EDGE_CURVE('',#392,#397,#180,.T.);
#486=EDGE_CURVE('',#398,#397,#181,.T.);
#487=EDGE_CURVE('',#398,#394,#182,.T.);
#488=EDGE_CURVE('',#399,#400,#183,.T.);
#489=EDGE_CURVE('',#400,#401,#184,.T.);
#490=EDGE_CURVE('',#401,#402,#185,.T.);
#491=EDGE_CURVE('',#402,#399,#186,.T.);
#492=EDGE_CURVE('',#400,#403,#187,.T.);
#493=EDGE_CURVE('',#403,#404,#188,.T.);
#494=EDGE_CURVE('',#404,#405,#189,.T.);
#495=EDGE_CURVE('',#405,#401,#190,.T.);
#496=EDGE_CURVE('',#406,#399,#191,.T.);
#497=EDGE_CURVE('',#402,#407,#192,.T.);
#498=EDGE_CURVE('',#407,#406,#193,.T.);
#499=EDGE_CURVE('',#408,#406,#194,.T.);
#500=EDGE_CURVE('',#407,#409,#195,.T.);
#501=EDGE_CURVE('',#409,#408,#196,.T.);
#502=EDGE_CURVE('',#410,#408,#197,.T.);
#503=EDGE_CURVE('',#409,#411,#198,.T.);
#504=EDGE_CURVE('',#411,#410,#199,.T.);
#505=EDGE_CURVE('',#397,#410,#200,.T.);
#506=EDGE_CURVE('',#411,#398,#201,.T.);
#507=EDGE_CURVE('',#397,#412,#202,.T.);
#508=EDGE_CURVE('',#413,#412,#203,.T.);
#509=EDGE_CURVE('',#410,#413,#204,.T.);
#510=EDGE_CURVE('',#412,#391,#205,.T.);
#511=EDGE_CURVE('',#395,#405,#206,.T.);
#512=EDGE_CURVE('',#390,#414,#207,.T.);
#513=EDGE_CURVE('',#414,#415,#208,.T.);
#514=EDGE_CURVE('',#415,#412,#209,.T.);
#515=EDGE_CURVE('',#415,#416,#210,.T.);
#516=EDGE_CURVE('',#416,#413,#211,.T.);
#517=EDGE_CURVE('',#416,#417,#212,.T.);
#518=EDGE_CURVE('',#417,#418,#213,.T.);
#519=EDGE_CURVE('',#418,#413,#214,.T.);
#520=EDGE_CURVE('',#417,#419,#215,.T.);
#521=EDGE_CURVE('',#419,#420,#216,.T.);
#522=EDGE_CURVE('',#420,#418,#217,.T.);
#523=EDGE_CURVE('',#419,#421,#218,.T.);
#524=EDGE_CURVE('',#421,#422,#219,.T.);
#525=EDGE_CURVE('',#422,#420,#220,.T.);
#526=EDGE_CURVE('',#421,#423,#221,.T.);
#527=EDGE_CURVE('',#423,#424,#222,.T.);
#528=EDGE_CURVE('',#424,#422,#223,.T.);
#529=EDGE_CURVE('',#423,#425,#224,.T.);
#530=EDGE_CURVE('',#425,#426,#225,.T.);
#531=EDGE_CURVE('',#426,#427,#226,.T.);
#532=EDGE_CURVE('',#427,#424,#227,.T.);
#533=EDGE_CURVE('',#428,#389,#228,.T.);
#534=EDGE_CURVE('',#429,#428,#229,.T.);
#535=EDGE_CURVE('',#429,#414,#230,.T.);
#536=EDGE_CURVE('',#408,#418,#231,.T.);
#537=EDGE_CURVE('',#406,#420,#232,.T.);
#538=EDGE_CURVE('',#430,#431,#233,.T.);
#539=EDGE_CURVE('',#431,#432,#24,.T.);
#540=EDGE_CURVE('',#432,#433,#234,.T.);
#541=EDGE_CURVE('',#433,#430,#25,.T.);
#542=EDGE_CURVE('',#399,#422,#235,.T.);
#543=EDGE_CURVE('',#400,#424,#236,.T.);
#544=EDGE_CURVE('',#403,#427,#237,.T.);
#545=EDGE_CURVE('',#373,#426,#238,.T.);
#546=EDGE_CURVE('',#404,#371,#239,.T.);
#547=EDGE_CURVE('',#372,#396,#240,.T.);
#548=EDGE_CURVE('',#428,#374,#241,.T.);
#549=EDGE_CURVE('',#425,#429,#242,.T.);
#550=EDGE_CURVE('',#381,#434,#243,.T.);
#551=EDGE_CURVE('',#434,#385,#244,.T.);
#552=EDGE_CURVE('',#384,#434,#26,.T.);
#553=EDGE_CURVE('',#435,#436,#245,.T.);
#554=EDGE_CURVE('',#437,#435,#27,.T.);
#555=EDGE_CURVE('',#438,#437,#246,.T.);
#556=EDGE_CURVE('',#436,#438,#28,.T.);
#557=EDGE_CURVE('',#437,#431,#247,.T.);
#558=EDGE_CURVE('',#438,#430,#248,.T.);
#559=EDGE_CURVE('',#435,#432,#249,.T.);
#560=EDGE_CURVE('',#436,#433,#250,.T.);
#561=ORIENTED_EDGE('',*,*,#439,.T.);
#562=ORIENTED_EDGE('',*,*,#440,.T.);
#563=ORIENTED_EDGE('',*,*,#441,.T.);
#564=ORIENTED_EDGE('',*,*,#442,.F.);
#565=ORIENTED_EDGE('',*,*,#443,.T.);
#566=ORIENTED_EDGE('',*,*,#444,.T.);
#567=ORIENTED_EDGE('',*,*,#445,.T.);
#568=ORIENTED_EDGE('',*,*,#440,.F.);
#569=ORIENTED_EDGE('',*,*,#446,.T.);
#570=ORIENTED_EDGE('',*,*,#447,.T.);
#571=ORIENTED_EDGE('',*,*,#448,.T.);
#572=ORIENTED_EDGE('',*,*,#442,.T.);
#573=ORIENTED_EDGE('',*,*,#449,.T.);
#574=ORIENTED_EDGE('',*,*,#447,.F.);
#575=ORIENTED_EDGE('',*,*,#450,.T.);
#576=ORIENTED_EDGE('',*,*,#444,.F.);
#577=ORIENTED_EDGE('',*,*,#451,.F.);
#578=ORIENTED_EDGE('',*,*,#452,.F.);
#579=ORIENTED_EDGE('',*,*,#453,.F.);
#580=ORIENTED_EDGE('',*,*,#454,.F.);
#581=ORIENTED_EDGE('',*,*,#439,.F.);
#582=ORIENTED_EDGE('',*,*,#448,.F.);
#583=ORIENTED_EDGE('',*,*,#449,.F.);
#584=ORIENTED_EDGE('',*,*,#443,.F.);
#585=ORIENTED_EDGE('',*,*,#455,.T.);
#586=ORIENTED_EDGE('',*,*,#456,.T.);
#587=ORIENTED_EDGE('',*,*,#457,.T.);
#588=ORIENTED_EDGE('',*,*,#458,.T.);
#589=ORIENTED_EDGE('',*,*,#459,.T.);
#590=ORIENTED_EDGE('',*,*,#460,.T.);
#591=ORIENTED_EDGE('',*,*,#455,.F.);
#592=ORIENTED_EDGE('',*,*,#461,.T.);
#593=ORIENTED_EDGE('',*,*,#462,.T.);
#594=ORIENTED_EDGE('',*,*,#463,.T.);
#595=ORIENTED_EDGE('',*,*,#459,.F.);
#596=ORIENTED_EDGE('',*,*,#464,.T.);
#597=ORIENTED_EDGE('',*,*,#457,.F.);
#598=ORIENTED_EDGE('',*,*,#465,.T.);
#599=ORIENTED_EDGE('',*,*,#462,.F.);
#600=ORIENTED_EDGE('',*,*,#466,.T.);
#601=ORIENTED_EDGE('',*,*,#461,.F.);
#602=ORIENTED_EDGE('',*,*,#467,.T.);
#603=ORIENTED_EDGE('',*,*,#468,.T.);
#604=ORIENTED_EDGE('',*,*,#469,.F.);
#605=ORIENTED_EDGE('',*,*,#458,.F.);
#606=ORIENTED_EDGE('',*,*,#470,.T.);
#607=ORIENTED_EDGE('',*,*,#471,.T.);
#608=ORIENTED_EDGE('',*,*,#467,.F.);
#609=ORIENTED_EDGE('',*,*,#472,.F.);
#610=ORIENTED_EDGE('',*,*,#473,.F.);
#611=ORIENTED_EDGE('',*,*,#474,.F.);
#612=ORIENTED_EDGE('',*,*,#475,.F.);
#613=ORIENTED_EDGE('',*,*,#456,.F.);
#614=ORIENTED_EDGE('',*,*,#460,.F.);
#615=ORIENTED_EDGE('',*,*,#463,.F.);
#616=ORIENTED_EDGE('',*,*,#465,.F.);
#617=ORIENTED_EDGE('',*,*,#476,.T.);
#618=ORIENTED_EDGE('',*,*,#477,.T.);
#619=ORIENTED_EDGE('',*,*,#478,.T.);
#620=ORIENTED_EDGE('',*,*,#479,.T.);
#621=ORIENTED_EDGE('',*,*,#472,.T.);
#622=ORIENTED_EDGE('',*,*,#480,.T.);
#623=ORIENTED_EDGE('',*,*,#479,.F.);
#624=ORIENTED_EDGE('',*,*,#481,.F.);
#625=ORIENTED_EDGE('',*,*,#482,.T.);
#626=ORIENTED_EDGE('',*,*,#483,.F.);
#627=ORIENTED_EDGE('',*,*,#484,.F.);
#628=ORIENTED_EDGE('',*,*,#473,.T.);
#629=ORIENTED_EDGE('',*,*,#478,.F.);
#630=ORIENTED_EDGE('',*,*,#485,.T.);
#631=ORIENTED_EDGE('',*,*,#486,.F.);
#632=ORIENTED_EDGE('',*,*,#487,.T.);
#633=ORIENTED_EDGE('',*,*,#481,.T.);
#634=ORIENTED_EDGE('',*,*,#488,.T.);
#635=ORIENTED_EDGE('',*,*,#489,.T.);
#636=ORIENTED_EDGE('',*,*,#490,.T.);
#637=ORIENTED_EDGE('',*,*,#491,.T.);
#638=ORIENTED_EDGE('',*,*,#492,.T.);
#639=ORIENTED_EDGE('',*,*,#493,.T.);
#640=ORIENTED_EDGE('',*,*,#494,.T.);
#641=ORIENTED_EDGE('',*,*,#495,.T.);
#642=ORIENTED_EDGE('',*,*,#489,.F.);
#643=ORIENTED_EDGE('',*,*,#496,.T.);
#644=ORIENTED_EDGE('',*,*,#491,.F.);
#645=ORIENTED_EDGE('',*,*,#497,.T.);
#646=ORIENTED_EDGE('',*,*,#498,.T.);
#647=ORIENTED_EDGE('',*,*,#499,.T.);
#648=ORIENTED_EDGE('',*,*,#498,.F.);
#649=ORIENTED_EDGE('',*,*,#500,.T.);
#650=ORIENTED_EDGE('',*,*,#501,.T.);
#651=ORIENTED_EDGE('',*,*,#502,.T.);
#652=ORIENTED_EDGE('',*,*,#501,.F.);
#653=ORIENTED_EDGE('',*,*,#503,.T.);
#654=ORIENTED_EDGE('',*,*,#504,.T.);
#655=ORIENTED_EDGE('',*,*,#505,.T.);
#656=ORIENTED_EDGE('',*,*,#504,.F.);
#657=ORIENTED_EDGE('',*,*,#506,.T.);
#658=ORIENTED_EDGE('',*,*,#486,.T.);
#659=ORIENTED_EDGE('',*,*,#505,.F.);
#660=ORIENTED_EDGE('',*,*,#507,.T.);
#661=ORIENTED_EDGE('',*,*,#508,.F.);
#662=ORIENTED_EDGE('',*,*,#509,.F.);
#663=ORIENTED_EDGE('',*,*,#477,.F.);
#664=ORIENTED_EDGE('',*,*,#510,.F.);
#665=ORIENTED_EDGE('',*,*,#507,.F.);
#666=ORIENTED_EDGE('',*,*,#485,.F.);
#667=ORIENTED_EDGE('',*,*,#487,.F.);
#668=ORIENTED_EDGE('',*,*,#506,.F.);
#669=ORIENTED_EDGE('',*,*,#503,.F.);
#670=ORIENTED_EDGE('',*,*,#500,.F.);
#671=ORIENTED_EDGE('',*,*,#497,.F.);
#672=ORIENTED_EDGE('',*,*,#490,.F.);
#673=ORIENTED_EDGE('',*,*,#495,.F.);
#674=ORIENTED_EDGE('',*,*,#511,.F.);
#675=ORIENTED_EDGE('',*,*,#482,.F.);
#676=ORIENTED_EDGE('',*,*,#476,.F.);
#677=ORIENTED_EDGE('',*,*,#512,.T.);
#678=ORIENTED_EDGE('',*,*,#513,.T.);
#679=ORIENTED_EDGE('',*,*,#514,.T.);
#680=ORIENTED_EDGE('',*,*,#510,.T.);
#681=ORIENTED_EDGE('',*,*,#515,.T.);
#682=ORIENTED_EDGE('',*,*,#516,.T.);
#683=ORIENTED_EDGE('',*,*,#508,.T.);
#684=ORIENTED_EDGE('',*,*,#514,.F.);
#685=ORIENTED_EDGE('',*,*,#517,.T.);
#686=ORIENTED_EDGE('',*,*,#518,.T.);
#687=ORIENTED_EDGE('',*,*,#519,.T.);
#688=ORIENTED_EDGE('',*,*,#516,.F.);
#689=ORIENTED_EDGE('',*,*,#520,.T.);
#690=ORIENTED_EDGE('',*,*,#521,.T.);
#691=ORIENTED_EDGE('',*,*,#522,.T.);
#692=ORIENTED_EDGE('',*,*,#518,.F.);
#693=ORIENTED_EDGE('',*,*,#523,.T.);
#694=ORIENTED_EDGE('',*,*,#524,.T.);
#695=ORIENTED_EDGE('',*,*,#525,.T.);
#696=ORIENTED_EDGE('',*,*,#521,.F.);
#697=ORIENTED_EDGE('',*,*,#526,.T.);
#698=ORIENTED_EDGE('',*,*,#527,.T.);
#699=ORIENTED_EDGE('',*,*,#528,.T.);
#700=ORIENTED_EDGE('',*,*,#524,.F.);
#701=ORIENTED_EDGE('',*,*,#529,.T.);
#702=ORIENTED_EDGE('',*,*,#530,.T.);
#703=ORIENTED_EDGE('',*,*,#531,.T.);
#704=ORIENTED_EDGE('',*,*,#532,.T.);
#705=ORIENTED_EDGE('',*,*,#527,.F.);
#706=ORIENTED_EDGE('',*,*,#480,.F.);
#707=ORIENTED_EDGE('',*,*,#475,.T.);
#708=ORIENTED_EDGE('',*,*,#533,.F.);
#709=ORIENTED_EDGE('',*,*,#534,.F.);
#710=ORIENTED_EDGE('',*,*,#535,.T.);
#711=ORIENTED_EDGE('',*,*,#512,.F.);
#712=ORIENTED_EDGE('',*,*,#502,.F.);
#713=ORIENTED_EDGE('',*,*,#509,.T.);
#714=ORIENTED_EDGE('',*,*,#519,.F.);
#715=ORIENTED_EDGE('',*,*,#536,.F.);
#716=ORIENTED_EDGE('',*,*,#499,.F.);
#717=ORIENTED_EDGE('',*,*,#536,.T.);
#718=ORIENTED_EDGE('',*,*,#522,.F.);
#719=ORIENTED_EDGE('',*,*,#537,.F.);
#720=ORIENTED_EDGE('',*,*,#538,.T.);
#721=ORIENTED_EDGE('',*,*,#539,.T.);
#722=ORIENTED_EDGE('',*,*,#540,.T.);
#723=ORIENTED_EDGE('',*,*,#541,.T.);
#724=ORIENTED_EDGE('',*,*,#496,.F.);
#725=ORIENTED_EDGE('',*,*,#537,.T.);
#726=ORIENTED_EDGE('',*,*,#525,.F.);
#727=ORIENTED_EDGE('',*,*,#542,.F.);
#728=ORIENTED_EDGE('',*,*,#488,.F.);
#729=ORIENTED_EDGE('',*,*,#542,.T.);
#730=ORIENTED_EDGE('',*,*,#528,.F.);
#731=ORIENTED_EDGE('',*,*,#543,.F.);
#732=ORIENTED_EDGE('',*,*,#492,.F.);
#733=ORIENTED_EDGE('',*,*,#543,.T.);
#734=ORIENTED_EDGE('',*,*,#532,.F.);
#735=ORIENTED_EDGE('',*,*,#544,.F.);
#736=ORIENTED_EDGE('',*,*,#493,.F.);
#737=ORIENTED_EDGE('',*,*,#544,.T.);
#738=ORIENTED_EDGE('',*,*,#531,.F.);
#739=ORIENTED_EDGE('',*,*,#545,.F.);
#740=ORIENTED_EDGE('',*,*,#452,.T.);
#741=ORIENTED_EDGE('',*,*,#546,.F.);
#742=ORIENTED_EDGE('',*,*,#494,.F.);
#743=ORIENTED_EDGE('',*,*,#546,.T.);
#744=ORIENTED_EDGE('',*,*,#451,.T.);
#745=ORIENTED_EDGE('',*,*,#547,.T.);
#746=ORIENTED_EDGE('',*,*,#483,.T.);
#747=ORIENTED_EDGE('',*,*,#511,.T.);
#748=ORIENTED_EDGE('',*,*,#547,.F.);
#749=ORIENTED_EDGE('',*,*,#454,.T.);
#750=ORIENTED_EDGE('',*,*,#548,.F.);
#751=ORIENTED_EDGE('',*,*,#533,.T.);
#752=ORIENTED_EDGE('',*,*,#474,.T.);
#753=ORIENTED_EDGE('',*,*,#484,.T.);
#754=ORIENTED_EDGE('',*,*,#530,.F.);
#755=ORIENTED_EDGE('',*,*,#549,.T.);
#756=ORIENTED_EDGE('',*,*,#534,.T.);
#757=ORIENTED_EDGE('',*,*,#548,.T.);
#758=ORIENTED_EDGE('',*,*,#453,.T.);
#759=ORIENTED_EDGE('',*,*,#545,.T.);
#760=ORIENTED_EDGE('',*,*,#513,.F.);
#761=ORIENTED_EDGE('',*,*,#535,.F.);
#762=ORIENTED_EDGE('',*,*,#549,.F.);
#763=ORIENTED_EDGE('',*,*,#529,.F.);
#764=ORIENTED_EDGE('',*,*,#526,.F.);
#765=ORIENTED_EDGE('',*,*,#523,.F.);
#766=ORIENTED_EDGE('',*,*,#520,.F.);
#767=ORIENTED_EDGE('',*,*,#517,.F.);
#768=ORIENTED_EDGE('',*,*,#515,.F.);
#769=ORIENTED_EDGE('',*,*,#450,.F.);
#770=ORIENTED_EDGE('',*,*,#446,.F.);
#771=ORIENTED_EDGE('',*,*,#441,.F.);
#772=ORIENTED_EDGE('',*,*,#445,.F.);
#773=ORIENTED_EDGE('',*,*,#466,.F.);
#774=ORIENTED_EDGE('',*,*,#550,.T.);
#775=ORIENTED_EDGE('',*,*,#551,.T.);
#776=ORIENTED_EDGE('',*,*,#470,.F.);
#777=ORIENTED_EDGE('',*,*,#464,.F.);
#778=ORIENTED_EDGE('',*,*,#469,.T.);
#779=ORIENTED_EDGE('',*,*,#552,.T.);
#780=ORIENTED_EDGE('',*,*,#550,.F.);
#781=ORIENTED_EDGE('',*,*,#471,.F.);
#782=ORIENTED_EDGE('',*,*,#551,.F.);
#783=ORIENTED_EDGE('',*,*,#552,.F.);
#784=ORIENTED_EDGE('',*,*,#468,.F.);
#785=ORIENTED_EDGE('',*,*,#553,.F.);
#786=ORIENTED_EDGE('',*,*,#554,.F.);
#787=ORIENTED_EDGE('',*,*,#555,.F.);
#788=ORIENTED_EDGE('',*,*,#556,.F.);
#789=ORIENTED_EDGE('',*,*,#555,.T.);
#790=ORIENTED_EDGE('',*,*,#557,.T.);
#791=ORIENTED_EDGE('',*,*,#538,.F.);
#792=ORIENTED_EDGE('',*,*,#558,.F.);
#793=ORIENTED_EDGE('',*,*,#554,.T.);
#794=ORIENTED_EDGE('',*,*,#559,.T.);
#795=ORIENTED_EDGE('',*,*,#539,.F.);
#796=ORIENTED_EDGE('',*,*,#557,.F.);
#797=ORIENTED_EDGE('',*,*,#553,.T.);
#798=ORIENTED_EDGE('',*,*,#560,.T.);
#799=ORIENTED_EDGE('',*,*,#540,.F.);
#800=ORIENTED_EDGE('',*,*,#559,.F.);
#801=ORIENTED_EDGE('',*,*,#556,.T.);
#802=ORIENTED_EDGE('',*,*,#558,.T.);
#803=ORIENTED_EDGE('',*,*,#541,.F.);
#804=ORIENTED_EDGE('',*,*,#560,.F.);
#805=PLANE('',#921);
#806=PLANE('',#922);
#807=PLANE('',#923);
#808=PLANE('',#924);
#809=PLANE('',#925);
#810=PLANE('',#929);
#811=PLANE('',#933);
#812=PLANE('',#934);
#813=PLANE('',#937);
#814=PLANE('',#938);
#815=PLANE('',#939);
#816=PLANE('',#940);
#817=PLANE('',#941);
#818=PLANE('',#942);
#819=PLANE('',#943);
#820=PLANE('',#944);
#821=PLANE('',#945);
#822=PLANE('',#946);
#823=PLANE('',#947);
#824=PLANE('',#948);
#825=PLANE('',#949);
#826=PLANE('',#950);
#827=PLANE('',#951);
#828=PLANE('',#952);
#829=PLANE('',#953);
#830=PLANE('',#954);
#831=PLANE('',#955);
#832=PLANE('',#956);
#833=PLANE('',#957);
#834=PLANE('',#958);
#835=PLANE('',#959);
#836=PLANE('',#962);
#837=PLANE('',#963);
#838=PLANE('',#964);
#839=PLANE('',#965);
#840=PLANE('',#966);
#841=PLANE('',#967);
#842=PLANE('',#968);
#843=PLANE('',#969);
#844=PLANE('',#970);
#845=PLANE('',#971);
#846=PLANE('',#974);
#847=PLANE('',#977);
#848=PLANE('',#979);
#849=ADVANCED_FACE('',(#35),#805,.T.);
#850=ADVANCED_FACE('',(#36),#806,.T.);
#851=ADVANCED_FACE('',(#37),#807,.T.);
#852=ADVANCED_FACE('',(#38),#808,.T.);
#853=ADVANCED_FACE('',(#39,#31),#809,.T.);
#854=ADVANCED_FACE('',(#40),#29,.F.);
#855=ADVANCED_FACE('',(#41),#810,.T.);
#856=ADVANCED_FACE('',(#42),#30,.F.);
#857=ADVANCED_FACE('',(#43),#811,.T.);
#858=ADVANCED_FACE('',(#44),#812,.F.);
#859=ADVANCED_FACE('',(#45),#15,.F.);
#860=ADVANCED_FACE('',(#46,#32),#813,.T.);
#861=ADVANCED_FACE('',(#47),#814,.T.);
#862=ADVANCED_FACE('',(#48),#815,.T.);
#863=ADVANCED_FACE('',(#49),#816,.T.);
#864=ADVANCED_FACE('',(#50),#817,.T.);
#865=ADVANCED_FACE('',(#51),#818,.T.);
#866=ADVANCED_FACE('',(#52),#819,.T.);
#867=ADVANCED_FACE('',(#53),#820,.T.);
#868=ADVANCED_FACE('',(#54),#821,.T.);
#869=ADVANCED_FACE('',(#55),#822,.T.);
#870=ADVANCED_FACE('',(#56),#823,.T.);
#871=ADVANCED_FACE('',(#57),#824,.T.);
#872=ADVANCED_FACE('',(#58),#825,.F.);
#873=ADVANCED_FACE('',(#59),#826,.T.);
#874=ADVANCED_FACE('',(#60),#827,.T.);
#875=ADVANCED_FACE('',(#61),#828,.T.);
#876=ADVANCED_FACE('',(#62),#829,.T.);
#877=ADVANCED_FACE('',(#63),#830,.T.);
#878=ADVANCED_FACE('',(#64),#831,.T.);
#879=ADVANCED_FACE('',(#65),#832,.T.);
#880=ADVANCED_FACE('',(#66),#833,.T.);
#881=ADVANCED_FACE('',(#67),#834,.T.);
#882=ADVANCED_FACE('',(#68,#33),#835,.T.);
#883=ADVANCED_FACE('',(#69),#836,.T.);
#884=ADVANCED_FACE('',(#70),#837,.T.);
#885=ADVANCED_FACE('',(#71),#838,.T.);
#886=ADVANCED_FACE('',(#72),#839,.T.);
#887=ADVANCED_FACE('',(#73),#840,.T.);
#888=ADVANCED_FACE('',(#74),#841,.T.);
#889=ADVANCED_FACE('',(#75),#842,.T.);
#890=ADVANCED_FACE('',(#76),#843,.T.);
#891=ADVANCED_FACE('',(#77),#844,.F.);
#892=ADVANCED_FACE('',(#78),#845,.F.);
#893=ADVANCED_FACE('',(#79),#16,.F.);
#894=ADVANCED_FACE('',(#80,#34),#846,.T.);
#895=ADVANCED_FACE('',(#81),#847,.F.);
#896=ADVANCED_FACE('',(#82),#17,.F.);
#897=ADVANCED_FACE('',(#83),#848,.F.);
#898=ADVANCED_FACE('',(#84),#18,.F.);
#899=CLOSED_SHELL('',(#849,#850,#851,#852,#853,#854,#855,#856,#857,#858,
#859,#860,#861,#862,#863,#864,#865,#866,#867,#868,#869,#870,#871,#872,#873,
#874,#875,#876,#877,#878,#879,#880,#881,#882,#883,#884,#885,#886,#887,#888,
#889,#890,#891,#892,#893,#894,#895,#896,#897,#898));
#900=DERIVED_UNIT_ELEMENT(#902,1.);
#901=DERIVED_UNIT_ELEMENT(#1472,-3.);
#902=(
CONVERSION_BASED_UNIT('gram',#904)
MASS_UNIT()
NAMED_UNIT(#1469)
);
#903=(
MASS_UNIT()
NAMED_UNIT(*)
SI_UNIT(.KILO.,.GRAM.)
);
#904=MASS_MEASURE_WITH_UNIT(MASS_MEASURE(0.001),#903);
#905=DERIVED_UNIT((#900,#901));
#906=MEASURE_REPRESENTATION_ITEM('density measure',
POSITIVE_RATIO_MEASURE(1.),#905);
#907=PROPERTY_DEFINITION_REPRESENTATION(#912,#909);
#908=PROPERTY_DEFINITION_REPRESENTATION(#913,#910);
#909=REPRESENTATION('material name',(#911),#1466);
#910=REPRESENTATION('density',(#906),#1466);
#911=DESCRIPTIVE_REPRESENTATION_ITEM('Generic','Generic');
#912=PROPERTY_DEFINITION('material property','material name',#1480);
#913=PROPERTY_DEFINITION('material property','density of part',#1480);
#914=DATE_TIME_ROLE('creation_date');
#915=APPLIED_DATE_AND_TIME_ASSIGNMENT(#916,#914,(#1480));
#916=DATE_AND_TIME(#917,#918);
#917=CALENDAR_DATE(2026,19,7);
#918=LOCAL_TIME(0,0,0.,#919);
#919=COORDINATED_UNIVERSAL_TIME_OFFSET(0,0,.BEHIND.);
#920=AXIS2_PLACEMENT_3D('',#1215,#981,#982);
#921=AXIS2_PLACEMENT_3D('',#1216,#983,#984);
#922=AXIS2_PLACEMENT_3D('',#1225,#989,#990);
#923=AXIS2_PLACEMENT_3D('',#1231,#994,#995);
#924=AXIS2_PLACEMENT_3D('',#1237,#999,#1000);
#925=AXIS2_PLACEMENT_3D('',#1240,#1003,#1004);
#926=AXIS2_PLACEMENT_3D('',#1249,#1009,#1010);
#927=AXIS2_PLACEMENT_3D('',#1254,#1012,#1013);
#928=AXIS2_PLACEMENT_3D('',#1257,#1015,#1016);
#929=AXIS2_PLACEMENT_3D('',#1258,#1017,#1018);
#930=AXIS2_PLACEMENT_3D('',#1264,#1022,#1023);
#931=AXIS2_PLACEMENT_3D('',#1268,#1025,#1026);
#932=AXIS2_PLACEMENT_3D('',#1269,#1027,#1028);
#933=AXIS2_PLACEMENT_3D('',#1270,#1029,#1030);
#934=AXIS2_PLACEMENT_3D('',#1273,#1033,#1034);
#935=AXIS2_PLACEMENT_3D('',#1279,#1038,#1039);
#936=AXIS2_PLACEMENT_3D('',#1282,#1041,#1042);
#937=AXIS2_PLACEMENT_3D('',#1283,#1043,#1044);
#938=AXIS2_PLACEMENT_3D('',#1292,#1049,#1050);
#939=AXIS2_PLACEMENT_3D('',#1302,#1056,#1057);
#940=AXIS2_PLACEMENT_3D('',#1310,#1062,#1063);
#941=AXIS2_PLACEMENT_3D('',#1316,#1067,#1068);
#942=AXIS2_PLACEMENT_3D('',#1325,#1073,#1074);
#943=AXIS2_PLACEMENT_3D('',#1333,#1079,#1080);
#944=AXIS2_PLACEMENT_3D('',#1339,#1084,#1085);
#945=AXIS2_PLACEMENT_3D('',#1345,#1089,#1090);
#946=AXIS2_PLACEMENT_3D('',#1351,#1094,#1095);
#947=AXIS2_PLACEMENT_3D('',#1354,#1098,#1099);
#948=AXIS2_PLACEMENT_3D('',#1360,#1103,#1104);
#949=AXIS2_PLACEMENT_3D('',#1362,#1106,#1107);
#950=AXIS2_PLACEMENT_3D('',#1364,#1109,#1110);
#951=AXIS2_PLACEMENT_3D('',#1370,#1114,#1115);
#952=AXIS2_PLACEMENT_3D('',#1374,#1118,#1119);
#953=AXIS2_PLACEMENT_3D('',#1380,#1123,#1124);
#954=AXIS2_PLACEMENT_3D('',#1386,#1128,#1129);
#955=AXIS2_PLACEMENT_3D('',#1392,#1133,#1134);
#956=AXIS2_PLACEMENT_3D('',#1398,#1138,#1139);
#957=AXIS2_PLACEMENT_3D('',#1406,#1144,#1145);
#958=AXIS2_PLACEMENT_3D('',#1412,#1149,#1150);
#959=AXIS2_PLACEMENT_3D('',#1414,#1152,#1153);
#960=AXIS2_PLACEMENT_3D('',#1420,#1156,#1157);
#961=AXIS2_PLACEMENT_3D('',#1423,#1159,#1160);
#962=AXIS2_PLACEMENT_3D('',#1424,#1161,#1162);
#963=AXIS2_PLACEMENT_3D('',#1426,#1164,#1165);
#964=AXIS2_PLACEMENT_3D('',#1428,#1167,#1168);
#965=AXIS2_PLACEMENT_3D('',#1430,#1170,#1171);
#966=AXIS2_PLACEMENT_3D('',#1433,#1174,#1175);
#967=AXIS2_PLACEMENT_3D('',#1435,#1177,#1178);
#968=AXIS2_PLACEMENT_3D('',#1437,#1180,#1181);
#969=AXIS2_PLACEMENT_3D('',#1439,#1183,#1184);
#970=AXIS2_PLACEMENT_3D('',#1440,#1185,#1186);
#971=AXIS2_PLACEMENT_3D('',#1441,#1187,#1188);
#972=AXIS2_PLACEMENT_3D('',#1445,#1191,#1192);
#973=AXIS2_PLACEMENT_3D('',#1446,#1193,#1194);
#974=AXIS2_PLACEMENT_3D('',#1447,#1195,#1196);
#975=AXIS2_PLACEMENT_3D('',#1452,#1198,#1199);
#976=AXIS2_PLACEMENT_3D('',#1455,#1201,#1202);
#977=AXIS2_PLACEMENT_3D('',#1456,#1203,#1204);
#978=AXIS2_PLACEMENT_3D('',#1459,#1207,#1208);
#979=AXIS2_PLACEMENT_3D('',#1461,#1210,#1211);
#980=AXIS2_PLACEMENT_3D('',#1463,#1213,#1214);
#981=DIRECTION('axis',(0.,0.,1.));
#982=DIRECTION('refdir',(1.,0.,0.));
#983=DIRECTION('center_axis',(-0.707106781186548,-2.09345661157837E-16,
-0.707106781186547));
#984=DIRECTION('ref_axis',(-0.707106781186547,0.,0.707106781186548));
#985=DIRECTION('',(-2.96059473233375E-16,1.,0.));
#986=DIRECTION('',(0.577350269189626,-0.577350269189627,-0.577350269189625));
#987=DIRECTION('',(2.96059473233375E-16,-1.,0.));
#988=DIRECTION('',(0.577350269189625,0.577350269189626,-0.577350269189626));
#989=DIRECTION('center_axis',(-0.707106781186548,-0.707106781186547,0.));
#990=DIRECTION('ref_axis',(0.,0.,1.));
#991=DIRECTION('',(0.,0.,-1.));
#992=DIRECTION('',(0.577350269189625,-0.577350269189627,0.577350269189625));
#993=DIRECTION('',(0.,0.,1.));
#994=DIRECTION('center_axis',(-0.707106781186548,0.707106781186547,-8.41120960009165E-17));
#995=DIRECTION('ref_axis',(-1.18952466924124E-16,0.,1.));
#996=DIRECTION('',(3.52170046973666E-32,-1.18952466924124E-16,-1.));
#997=DIRECTION('',(-0.577350269189626,-0.577350269189626,-0.577350269189626));
#998=DIRECTION('',(-3.52170046973666E-32,1.18952466924124E-16,1.));
#999=DIRECTION('center_axis',(-0.707106781186548,-1.22118302342072E-16,
0.707106781186547));
#1000=DIRECTION('ref_axis',(0.707106781186547,0.,0.707106781186548));
#1001=DIRECTION('',(2.96059473233375E-16,-1.,1.2335811384724E-16));
#1002=DIRECTION('',(-2.96059473233375E-16,1.,-1.2335811384724E-16));
#1003=DIRECTION('center_axis',(-1.,-2.96059473233375E-16,0.));
#1004=DIRECTION('ref_axis',(2.96059473233375E-16,-1.,0.));
#1005=DIRECTION('',(-2.96059473233375E-16,1.,0.));
#1006=DIRECTION('',(0.,0.,-1.));
#1007=DIRECTION('',(2.96059473233375E-16,-1.,0.));
#1008=DIRECTION('',(0.,0.,1.));
#1009=DIRECTION('center_axis',(0.,1.,0.));
#1010=DIRECTION('ref_axis',(0.,0.,1.));
#1011=DIRECTION('',(2.61682076447295E-15,0.707106781186551,0.707106781186544));
#1012=DIRECTION('center_axis',(-4.22942104619107E-16,1.,0.));
#1013=DIRECTION('ref_axis',(0.,0.,1.));
#1014=DIRECTION('',(0.,-0.707106781186551,0.707106781186544));
#1015=DIRECTION('center_axis',(4.22942104619107E-16,-1.,0.));
#1016=DIRECTION('ref_axis',(0.,0.,1.));
#1017=DIRECTION('center_axis',(-2.99065230225481E-16,0.707106781186548,
-0.707106781186548));
#1018=DIRECTION('ref_axis',(-1.,0.,4.22942104619107E-16));
#1019=DIRECTION('',(0.,0.707106781186548,0.707106781186548));
#1020=DIRECTION('',(1.,4.22942104619107E-16,0.));
#1021=DIRECTION('',(-1.,-4.22942104619107E-16,0.));
#1022=DIRECTION('center_axis',(0.,1.,0.));
#1023=DIRECTION('ref_axis',(0.,0.,-1.));
#1024=DIRECTION('',(-2.61682076447296E-15,0.70710678118655,-0.707106781186546));
#1025=DIRECTION('center_axis',(-4.22942104619107E-16,1.,0.));
#1026=DIRECTION('ref_axis',(0.,0.,-1.));
#1027=DIRECTION('center_axis',(4.22942104619107E-16,-1.,0.));
#1028=DIRECTION('ref_axis',(0.,0.,-1.));
#1029=DIRECTION('center_axis',(-2.99065230225481E-16,0.707106781186548,
0.707106781186548));
#1030=DIRECTION('ref_axis',(1.,0.,4.22942104619107E-16));
#1031=DIRECTION('',(-1.,-4.22942104619107E-16,0.));
#1032=DIRECTION('',(1.,4.22942104619107E-16,0.));
#1033=DIRECTION('center_axis',(0.,0.,1.));
#1034=DIRECTION('ref_axis',(-1.,-4.22942104619107E-16,0.));
#1035=DIRECTION('',(5.55111512312578E-16,-1.,0.));
#1036=DIRECTION('',(-1.,-4.22942104619107E-16,0.));
#1037=DIRECTION('',(5.55111512312578E-16,-1.,0.));
#1038=DIRECTION('center_axis',(5.55111512312578E-16,-1.,0.));
#1039=DIRECTION('ref_axis',(0.,0.,1.));
#1040=DIRECTION('',(5.55111512312578E-16,-1.,0.));
#1041=DIRECTION('center_axis',(4.22942104619107E-16,-1.,0.));
#1042=DIRECTION('ref_axis',(0.,0.,1.));
#1043=DIRECTION('center_axis',(-4.22942104619107E-16,1.,0.));
#1044=DIRECTION('ref_axis',(-1.,-4.22942104619107E-16,0.));
#1045=DIRECTION('',(0.,0.,1.));
#1046=DIRECTION('',(1.,4.22942104619107E-16,0.));
#1047=DIRECTION('',(0.,0.,-1.));
#1048=DIRECTION('',(-1.,-4.22942104619107E-16,0.));
#1049=DIRECTION('center_axis',(0.707106781186545,0.70710678118655,0.));
#1050=DIRECTION('ref_axis',(0.,0.,-1.));
#1051=DIRECTION('',(0.577350269189627,-0.577350269189623,-0.577350269189627));
#1052=DIRECTION('',(0.,0.,-1.));
#1053=DIRECTION('',(-0.577350269189627,0.577350269189623,-0.577350269189627));
#1054=DIRECTION('',(-0.577350269189629,0.577350269189624,0.577350269189624));
#1055=DIRECTION('',(0.577350269189629,-0.577350269189624,0.577350269189624));
#1056=DIRECTION('center_axis',(-2.99065230225481E-16,0.707106781186547,
-0.707106781186548));
#1057=DIRECTION('ref_axis',(-1.,0.,4.22942104619107E-16));
#1058=DIRECTION('',(0.577350269189626,0.577350269189626,0.577350269189625));
#1059=DIRECTION('',(-1.,-4.22942104619107E-16,0.));
#1060=DIRECTION('',(0.577350269189626,-0.577350269189626,-0.577350269189625));
#1061=DIRECTION('',(-0.577350269189626,-0.577350269189626,-0.577350269189625));
#1062=DIRECTION('center_axis',(0.707106781186547,0.,-0.707106781186548));
#1063=DIRECTION('ref_axis',(-0.707106781186548,0.,-0.707106781186547));
#1064=DIRECTION('',(0.,-1.,0.));
#1065=DIRECTION('',(0.678598344545848,-0.281084637714819,0.678598344545847));
#1066=DIRECTION('',(0.,1.,0.));
#1067=DIRECTION('center_axis',(0.707106781186547,1.30841038223648E-16,-0.707106781186548));
#1068=DIRECTION('ref_axis',(-0.707106781186548,0.,-0.707106781186547));
#1069=DIRECTION('',(1.85037170770859E-16,-1.,0.));
#1070=DIRECTION('',(-0.577350269189626,0.577350269189626,-0.577350269189625));
#1071=DIRECTION('',(-1.85037170770859E-16,1.,0.));
#1072=DIRECTION('',(0.678598344545848,-0.281084637714818,0.678598344545847));
#1073=DIRECTION('center_axis',(0.,-0.707106781186547,-0.707106781186548));
#1074=DIRECTION('ref_axis',(-1.,0.,0.));
#1075=DIRECTION('',(-1.,0.,0.));
#1076=DIRECTION('',(-0.577350269189626,0.577350269189626,-0.577350269189626));
#1077=DIRECTION('',(0.577350269189626,0.577350269189626,-0.577350269189625));
#1078=DIRECTION('',(1.,0.,0.));
#1079=DIRECTION('center_axis',(0.5,-0.5,-0.707106781186547));
#1080=DIRECTION('ref_axis',(-0.816496580927726,0.,-0.577350269189626));
#1081=DIRECTION('',(-0.707106781186547,-0.707106781186548,0.));
#1082=DIRECTION('',(0.707106781186547,0.707106781186548,0.));
#1083=DIRECTION('',(0.281084637714819,-0.678598344545848,0.678598344545847));
#1084=DIRECTION('center_axis',(0.,-0.707106781186547,-0.707106781186548));
#1085=DIRECTION('ref_axis',(-1.,0.,0.));
#1086=DIRECTION('',(-1.,0.,0.));
#1087=DIRECTION('',(1.,0.,0.));
#1088=DIRECTION('',(0.577350269189626,-0.577350269189626,0.577350269189625));
#1089=DIRECTION('center_axis',(0.707106781186547,0.,-0.707106781186548));
#1090=DIRECTION('ref_axis',(-0.707106781186548,0.,-0.707106781186547));
#1091=DIRECTION('',(0.,-1.,0.));
#1092=DIRECTION('',(0.,1.,0.));
#1093=DIRECTION('',(0.678598344545848,-0.281084637714819,0.678598344545847));
#1094=DIRECTION('center_axis',(0.5,-0.5,-0.707106781186547));
#1095=DIRECTION('ref_axis',(-0.816496580927726,0.,-0.577350269189626));
#1096=DIRECTION('',(-0.707106781186548,-0.707106781186548,0.));
#1097=DIRECTION('',(0.707106781186548,0.707106781186548,0.));
#1098=DIRECTION('center_axis',(0.707106781186548,-0.707106781186548,0.));
#1099=DIRECTION('ref_axis',(0.707106781186548,0.707106781186548,0.));
#1100=DIRECTION('',(0.,0.,1.));
#1101=DIRECTION('',(0.707106781186548,0.707106781186548,0.));
#1102=DIRECTION('',(0.,0.,1.));
#1103=DIRECTION('center_axis',(1.,0.,0.));
#1104=DIRECTION('ref_axis',(0.,1.,0.));
#1105=DIRECTION('',(0.,1.,0.));
#1106=DIRECTION('center_axis',(0.,0.,1.));
#1107=DIRECTION('ref_axis',(1.,0.,0.));
#1108=DIRECTION('',(2.96059473233375E-16,-1.,0.));
#1109=DIRECTION('center_axis',(0.707106781186548,0.,0.707106781186548));
#1110=DIRECTION('ref_axis',(0.707106781186548,0.,-0.707106781186548));
#1111=DIRECTION('',(-0.577350269189626,-0.577350269189626,0.577350269189626));
#1112=DIRECTION('',(0.,-1.,0.));
#1113=DIRECTION('',(0.678598344545847,-0.281084637714819,-0.678598344545847));
#1114=DIRECTION('center_axis',(0.5,-0.5,0.707106781186547));
#1115=DIRECTION('ref_axis',(0.816496580927725,0.,-0.577350269189627));
#1116=DIRECTION('',(-0.707106781186548,-0.707106781186548,0.));
#1117=DIRECTION('',(0.678598344545847,-0.281084637714819,-0.678598344545847));
#1118=DIRECTION('center_axis',(0.707106781186548,0.,0.707106781186548));
#1119=DIRECTION('ref_axis',(0.707106781186548,0.,-0.707106781186548));
#1120=DIRECTION('',(0.,-1.,0.));
#1121=DIRECTION('',(0.577350269189626,-0.577350269189626,-0.577350269189626));
#1122=DIRECTION('',(0.,1.,0.));
#1123=DIRECTION('center_axis',(0.,-0.707106781186548,0.707106781186548));
#1124=DIRECTION('ref_axis',(1.,0.,0.));
#1125=DIRECTION('',(-1.,0.,0.));
#1126=DIRECTION('',(0.281084637714819,-0.678598344545847,-0.678598344545847));
#1127=DIRECTION('',(1.,0.,0.));
#1128=DIRECTION('center_axis',(0.500000000000001,-0.5,0.707106781186547));
#1129=DIRECTION('ref_axis',(0.816496580927725,0.,-0.577350269189627));
#1130=DIRECTION('',(-0.707106781186547,-0.707106781186548,0.));
#1131=DIRECTION('',(0.678598344545847,-0.281084637714819,-0.678598344545848));
#1132=DIRECTION('',(0.707106781186547,0.707106781186548,0.));
#1133=DIRECTION('center_axis',(0.707106781186548,1.30841038223648E-16,0.707106781186547));
#1134=DIRECTION('ref_axis',(0.707106781186547,0.,-0.707106781186548));
#1135=DIRECTION('',(1.85037170770859E-16,-1.,0.));
#1136=DIRECTION('',(0.577350269189626,-0.577350269189626,-0.577350269189626));
#1137=DIRECTION('',(-1.85037170770859E-16,1.,0.));
#1138=DIRECTION('center_axis',(0.,-0.707106781186548,0.707106781186547));
#1139=DIRECTION('ref_axis',(1.,0.,0.));
#1140=DIRECTION('',(-1.,0.,0.));
#1141=DIRECTION('',(-0.577350269189626,-0.577350269189626,-0.577350269189626));
#1142=DIRECTION('',(0.577350269189626,-0.577350269189626,-0.577350269189626));
#1143=DIRECTION('',(1.,0.,0.));
#1144=DIRECTION('center_axis',(-2.99065230225481E-16,0.707106781186548,
0.707106781186548));
#1145=DIRECTION('ref_axis',(1.,0.,4.22942104619107E-16));
#1146=DIRECTION('',(0.577350269189626,0.577350269189626,-0.577350269189626));
#1147=DIRECTION('',(-0.577350269189626,0.577350269189626,-0.577350269189626));
#1148=DIRECTION('',(1.,4.22942104619107E-16,0.));
#1149=DIRECTION('center_axis',(1.,0.,0.));
#1150=DIRECTION('ref_axis',(0.,1.,0.));
#1151=DIRECTION('',(0.,0.,1.));
#1152=DIRECTION('center_axis',(0.,-1.,0.));
#1153=DIRECTION('ref_axis',(1.,0.,0.));
#1154=DIRECTION('',(0.,0.,1.));
#1155=DIRECTION('',(-1.,0.,-3.70074341541719E-16));
#1156=DIRECTION('center_axis',(0.,1.,0.));
#1157=DIRECTION('ref_axis',(0.,0.,-1.));
#1158=DIRECTION('',(1.,0.,0.));
#1159=DIRECTION('center_axis',(0.,1.,0.));
#1160=DIRECTION('ref_axis',(-2.11471052309554E-15,-8.34773444678319E-31,
1.));
#1161=DIRECTION('center_axis',(0.707106781186548,-0.707106781186547,0.));
#1162=DIRECTION('ref_axis',(0.707106781186547,0.707106781186548,0.));
#1163=DIRECTION('',(0.,0.,1.));
#1164=DIRECTION('center_axis',(1.,1.85037170770859E-16,0.));
#1165=DIRECTION('ref_axis',(-1.85037170770859E-16,1.,0.));
#1166=DIRECTION('',(0.,0.,1.));
#1167=DIRECTION('center_axis',(0.,-1.,0.));
#1168=DIRECTION('ref_axis',(1.,0.,0.));
#1169=DIRECTION('',(0.,0.,1.));
#1170=DIRECTION('center_axis',(-0.707106781186548,-0.707106781186547,0.));
#1171=DIRECTION('ref_axis',(0.,0.,1.));
#1172=DIRECTION('',(0.577350269189626,-0.577350269189626,0.577350269189626));
#1173=DIRECTION('',(-0.577350269189626,0.577350269189626,0.577350269189625));
#1174=DIRECTION('center_axis',(-0.707106781186547,-2.09345661157837E-16,
-0.707106781186548));
#1175=DIRECTION('ref_axis',(-0.707106781186548,0.,0.707106781186547));
#1176=DIRECTION('',(0.577350269189626,0.577350269189626,-0.577350269189625));
#1177=DIRECTION('center_axis',(-0.707106781186548,0.707106781186547,0.));
#1178=DIRECTION('ref_axis',(0.,0.,1.));
#1179=DIRECTION('',(-0.577350269189625,-0.577350269189626,-0.577350269189626));
#1180=DIRECTION('center_axis',(-0.707106781186548,-2.09345661157837E-16,
0.707106781186547));
#1181=DIRECTION('ref_axis',(0.707106781186547,0.,0.707106781186548));
#1182=DIRECTION('',(-2.96059473233375E-16,1.,0.));
#1183=DIRECTION('center_axis',(0.,0.,1.));
#1184=DIRECTION('ref_axis',(1.,0.,0.));
#1185=DIRECTION('center_axis',(1.,0.,0.));
#1186=DIRECTION('ref_axis',(0.,0.,-1.));
#1187=DIRECTION('center_axis',(0.,0.,-1.));
#1188=DIRECTION('ref_axis',(1.,4.22942104619107E-16,0.));
#1189=DIRECTION('',(5.55111512312578E-16,-1.,0.));
#1190=DIRECTION('',(1.,4.22942104619107E-16,0.));
#1191=DIRECTION('center_axis',(5.55111512312578E-16,-1.,0.));
#1192=DIRECTION('ref_axis',(0.,0.,-1.));
#1193=DIRECTION('center_axis',(4.22942104619107E-16,-1.,0.));
#1194=DIRECTION('ref_axis',(0.,0.,-1.));
#1195=DIRECTION('center_axis',(-4.22942104619107E-16,1.,0.));
#1196=DIRECTION('ref_axis',(0.,0.,1.));
#1197=DIRECTION('',(1.,4.22942104619107E-16,0.));
#1198=DIRECTION('center_axis',(-4.22942104619107E-16,1.,0.));
#1199=DIRECTION('ref_axis',(0.,0.,-1.));
#1200=DIRECTION('',(-1.,-4.22942104619107E-16,-3.70074341541719E-16));
#1201=DIRECTION('center_axis',(-4.22942104619107E-16,1.,0.));
#1202=DIRECTION('ref_axis',(-2.11471052309554E-15,-8.34773444678319E-31,
1.));
#1203=DIRECTION('center_axis',(3.70074341541719E-16,1.46085352818706E-31,
-1.));
#1204=DIRECTION('ref_axis',(1.,4.22942104619107E-16,3.70074341541719E-16));
#1205=DIRECTION('',(3.94745964311167E-16,-1.,0.));
#1206=DIRECTION('',(3.94745964311167E-16,-1.,0.));
#1207=DIRECTION('center_axis',(3.94745964311167E-16,-1.,0.));
#1208=DIRECTION('ref_axis',(0.,0.,-1.));
#1209=DIRECTION('',(3.94745964311167E-16,-1.,0.));
#1210=DIRECTION('center_axis',(0.,0.,1.));
#1211=DIRECTION('ref_axis',(-1.,-4.22942104619107E-16,0.));
#1212=DIRECTION('',(3.94745964311167E-16,-1.,0.));
#1213=DIRECTION('center_axis',(3.94745964311167E-16,-1.,0.));
#1214=DIRECTION('ref_axis',(-2.11471052309554E-15,-8.34773444678319E-31,
1.));
#1215=CARTESIAN_POINT('',(0.,0.,0.));
#1216=CARTESIAN_POINT('Origin',(0.0196850393700786,0.531496062992126,0.688976377952756));
#1217=CARTESIAN_POINT('',(-2.44045087434008E-17,0.078740157480315,0.708661417322835));
#1218=CARTESIAN_POINT('',(-1.52983487645199E-16,0.511811023622047,0.708661417322834));
#1219=CARTESIAN_POINT('',(-1.58447183632527E-16,0.531496062992126,0.708661417322835));
#1220=CARTESIAN_POINT('',(0.0393700787401573,0.472440944881889,0.669291338582677));
#1221=CARTESIAN_POINT('',(-1.52983487645199E-16,0.511811023622047,0.708661417322834));
#1222=CARTESIAN_POINT('',(0.0393700787401574,0.118110236220473,0.669291338582677));
#1223=CARTESIAN_POINT('',(0.0393700787401574,0.118110236220473,0.669291338582677));
#1224=CARTESIAN_POINT('',(-2.44045087434008E-17,0.078740157480315,0.708661417322835));
#1225=CARTESIAN_POINT('Origin',(0.0196850393700786,0.492125984251968,0.0590551181102362));
#1226=CARTESIAN_POINT('',(-1.50433762851112E-16,0.511811023622047,0.078740157480315));
#1227=CARTESIAN_POINT('',(-1.52983487645199E-16,0.511811023622047,0.0590551181102362));
#1228=CARTESIAN_POINT('',(0.0393700787401573,0.472440944881889,0.118110236220472));
#1229=CARTESIAN_POINT('',(-1.50433762851112E-16,0.511811023622047,0.078740157480315));
#1230=CARTESIAN_POINT('',(0.0393700787401573,0.472440944881889,0.669291338582677));
#1231=CARTESIAN_POINT('Origin',(0.0196850393700787,0.0984251968503938,0.334645669291339));
#1232=CARTESIAN_POINT('',(0.0393700787401574,0.118110236220472,0.118110236220473));
#1233=CARTESIAN_POINT('',(0.0393700787401574,0.118110236220472,0.118110236220473));
#1234=CARTESIAN_POINT('',(-2.18547839493141E-17,0.078740157480315,0.078740157480315));
#1235=CARTESIAN_POINT('',(0.0393700787401574,0.118110236220472,0.118110236220473));
#1236=CARTESIAN_POINT('',(-2.18547839493141E-17,0.078740157480315,0.334645669291339));
#1237=CARTESIAN_POINT('Origin',(0.0196850393700786,0.354330708661417,0.0984251968503937));
#1238=CARTESIAN_POINT('',(-1.03810223759242E-16,0.354330708661417,0.078740157480315));
#1239=CARTESIAN_POINT('',(0.0393700787401573,0.472440944881889,0.118110236220472));
#1240=CARTESIAN_POINT('Origin',(-1.74838271594513E-16,0.590551181102362,
0.));
#1241=CARTESIAN_POINT('',(-8.19554398099279E-18,0.0236220472440945,0.0236220472440945));
#1242=CARTESIAN_POINT('',(-1.6664272761352E-16,0.566929133858267,0.0236220472440945));
#1243=CARTESIAN_POINT('',(-1.31128703695885E-16,0.442913385826771,0.0236220472440945));
#1244=CARTESIAN_POINT('',(-8.19554398099279E-18,0.0236220472440945,0.763779527559055));
#1245=CARTESIAN_POINT('',(-8.19554398099279E-18,0.0236220472440945,0.));
#1246=CARTESIAN_POINT('',(-1.6664272761352E-16,0.566929133858267,0.763779527559055));
#1247=CARTESIAN_POINT('',(-1.31128703695885E-16,0.442913385826771,0.763779527559055));
#1248=CARTESIAN_POINT('',(-1.6664272761352E-16,0.566929133858267,0.));
#1249=CARTESIAN_POINT('Origin',(0.570866141732283,0.578740157480315,0.393700787401575));
#1250=CARTESIAN_POINT('',(0.570866141732283,0.566929133858267,0.551200787401575));
#1251=CARTESIAN_POINT('',(0.570866141732283,0.590551181102362,0.574822834645669));
#1252=CARTESIAN_POINT('',(0.570866141732283,0.566929133858267,0.551200787401575));
#1253=CARTESIAN_POINT('',(0.570866141732283,0.590551181102362,0.21257874015748));
#1254=CARTESIAN_POINT('Origin',(0.570866141732283,0.590551181102362,0.393700787401575));
#1255=CARTESIAN_POINT('',(0.570866141732283,0.566929133858267,0.236200787401575));
#1256=CARTESIAN_POINT('',(0.570866141732283,0.590551181102362,0.21257874015748));
#1257=CARTESIAN_POINT('Origin',(0.570866141732283,0.566929133858267,0.393700787401575));
#1258=CARTESIAN_POINT('Origin',(0.698818897637795,0.578740157480315,0.563011811023622));
#1259=CARTESIAN_POINT('',(0.452755905511811,0.566929133858267,0.551200787401575));
#1260=CARTESIAN_POINT('',(0.452755905511811,0.590551181102362,0.574822834645669));
#1261=CARTESIAN_POINT('',(0.452755905511811,0.566929133858267,0.551200787401575));
#1262=CARTESIAN_POINT('',(0.698818897637795,0.590551181102362,0.574822834645669));
#1263=CARTESIAN_POINT('',(0.698818897637795,0.566929133858268,0.551200787401575));
#1264=CARTESIAN_POINT('Origin',(0.452755905511811,0.578740157480315,0.393700787401575));
#1265=CARTESIAN_POINT('',(0.452755905511811,0.566929133858267,0.236200787401575));
#1266=CARTESIAN_POINT('',(0.452755905511811,0.590551181102362,0.21257874015748));
#1267=CARTESIAN_POINT('',(0.452755905511811,0.566929133858267,0.236200787401575));
#1268=CARTESIAN_POINT('Origin',(0.452755905511811,0.590551181102362,0.393700787401575));
#1269=CARTESIAN_POINT('Origin',(0.452755905511811,0.566929133858267,0.393700787401575));
#1270=CARTESIAN_POINT('Origin',(0.639763779527559,0.578740157480315,0.224389763779527));
#1271=CARTESIAN_POINT('',(0.639763779527559,0.590551181102362,0.21257874015748));
#1272=CARTESIAN_POINT('',(0.639763779527559,0.566929133858268,0.236200787401575));
#1273=CARTESIAN_POINT('Origin',(0.570866141732283,0.590551181102362,0.551200787401575));
#1274=CARTESIAN_POINT('',(0.570866141732283,0.433070866141732,0.551200787401575));
#1275=CARTESIAN_POINT('',(0.570866141732283,0.590551181102362,0.551200787401575));
#1276=CARTESIAN_POINT('',(0.452755905511811,0.433070866141732,0.551200787401575));
#1277=CARTESIAN_POINT('',(0.452755905511811,0.433070866141732,0.551200787401575));
#1278=CARTESIAN_POINT('',(0.452755905511811,0.590551181102362,0.551200787401575));
#1279=CARTESIAN_POINT('Origin',(0.570866141732283,0.590551181102362,0.393700787401575));
#1280=CARTESIAN_POINT('',(0.570866141732283,0.433070866141732,0.236200787401575));
#1281=CARTESIAN_POINT('',(0.570866141732283,0.590551181102362,0.236200787401575));
#1282=CARTESIAN_POINT('Origin',(0.570866141732283,0.433070866141732,0.393700787401575));
#1283=CARTESIAN_POINT('Origin',(0.826771653543307,0.590551181102362,0.));
#1284=CARTESIAN_POINT('',(0.803149606299212,0.590551181102362,0.0236220472440945));
#1285=CARTESIAN_POINT('',(0.803149606299212,0.590551181102362,0.763779527559055));
#1286=CARTESIAN_POINT('',(0.803149606299212,0.590551181102362,0.));
#1287=CARTESIAN_POINT('',(0.0236220472440943,0.590551181102362,0.0236220472440945));
#1288=CARTESIAN_POINT('',(0.62007874015748,0.590551181102362,0.0236220472440945));
#1289=CARTESIAN_POINT('',(0.0236220472440943,0.590551181102362,0.763779527559055));
#1290=CARTESIAN_POINT('',(0.0236220472440943,0.590551181102362,0.));
#1291=CARTESIAN_POINT('',(0.62007874015748,0.590551181102362,0.763779527559055));
#1292=CARTESIAN_POINT('Origin',(0.81496062992126,0.578740157480315,0.));
#1293=CARTESIAN_POINT('',(0.81496062992126,0.578740157480315,0.775590551181102));
#1294=CARTESIAN_POINT('',(0.826771653543307,0.566929133858268,0.763779527559055));
#1295=CARTESIAN_POINT('',(0.976706036745407,0.416994750656169,0.613845144356955));
#1296=CARTESIAN_POINT('',(0.826771653543307,0.566929133858268,0.0236220472440945));
#1297=CARTESIAN_POINT('',(0.826771653543307,0.566929133858268,0.));
#1298=CARTESIAN_POINT('',(0.81496062992126,0.578740157480315,0.0118110236220473));
#1299=CARTESIAN_POINT('',(0.845472440944881,0.548228346456693,0.0423228346456691));
#1300=CARTESIAN_POINT('',(0.784448818897637,0.609251968503937,0.0423228346456693));
#1301=CARTESIAN_POINT('',(0.653215223097112,0.740485564304461,0.613845144356956));
#1302=CARTESIAN_POINT('Origin',(0.62007874015748,0.578740157480315,0.0118110236220472));
#1303=CARTESIAN_POINT('',(0.803149606299212,0.566929133858268,0.));
#1304=CARTESIAN_POINT('',(0.75,0.513779527559055,-0.0531496062992126));
#1305=CARTESIAN_POINT('',(0.0236220472440944,0.566929133858267,0.));
#1306=CARTESIAN_POINT('',(0.62007874015748,0.566929133858268,0.));
#1307=CARTESIAN_POINT('',(0.0118110236220471,0.578740157480315,0.0118110236220472));
#1308=CARTESIAN_POINT('',(0.135826771653543,0.454724409448819,-0.112204724409449));
#1309=CARTESIAN_POINT('',(0.111220472440945,0.678149606299212,0.111220472440945));
#1310=CARTESIAN_POINT('Origin',(0.81496062992126,0.383858267716535,0.0118110236220472));
#1311=CARTESIAN_POINT('',(0.826771653543307,0.47244094488189,0.0236220472440945));
#1312=CARTESIAN_POINT('',(0.826771653543307,0.383858267716535,0.0236220472440945));
#1313=CARTESIAN_POINT('',(0.803149606299212,0.482225517221412,0.));
#1314=CARTESIAN_POINT('',(0.803149606299212,0.482225517221412,0.));
#1315=CARTESIAN_POINT('',(0.803149606299212,0.383858267716535,0.));
#1316=CARTESIAN_POINT('Origin',(0.18503937007874,0.147637795275591,0.0118110236220472));
#1317=CARTESIAN_POINT('',(0.196850393700787,0.118110236220472,0.0236220472440945));
#1318=CARTESIAN_POINT('',(0.196850393700787,0.,0.0236220472440945));
#1319=CARTESIAN_POINT('',(0.196850393700787,0.147637795275591,0.0236220472440945));
#1320=CARTESIAN_POINT('',(0.173228346456693,0.0236220472440945,0.));
#1321=CARTESIAN_POINT('',(0.196850393700787,0.,0.0236220472440945));
#1322=CARTESIAN_POINT('',(0.173228346456693,0.127894808559994,0.));
#1323=CARTESIAN_POINT('',(0.173228346456693,0.147637795275591,0.));
#1324=CARTESIAN_POINT('',(0.173228346456693,0.127894808559994,0.));
#1325=CARTESIAN_POINT('Origin',(0.206692913385827,0.0118110236220473,0.0118110236220472));
#1326=CARTESIAN_POINT('',(0.0236220472440945,0.,0.0236220472440945));
#1327=CARTESIAN_POINT('',(0.206692913385827,0.,0.0236220472440945));
#1328=CARTESIAN_POINT('',(0.0118110236220472,0.0118110236220472,0.0118110236220473));
#1329=CARTESIAN_POINT('',(0.0423228346456693,-0.0187007874015748,0.0423228346456693));
#1330=CARTESIAN_POINT('',(0.0236220472440945,0.0236220472440945,0.));
#1331=CARTESIAN_POINT('',(0.116141732283465,0.116141732283465,-0.09251968503937));
#1332=CARTESIAN_POINT('',(0.206692913385827,0.0236220472440945,0.));
#1333=CARTESIAN_POINT('Origin',(0.286923935655277,0.22488708796677,0.0118110236220472));
#1334=CARTESIAN_POINT('',(0.31496062992126,0.236220472440945,0.0236220472440945));
#1335=CARTESIAN_POINT('',(0.295275590551181,0.216535433070866,0.0236220472440945));
#1336=CARTESIAN_POINT('',(0.305176057581738,0.259842519685039,0.));
#1337=CARTESIAN_POINT('',(0.278572280759373,0.233238742862674,0.));
#1338=CARTESIAN_POINT('',(0.305176057581738,0.259842519685039,0.));
#1339=CARTESIAN_POINT('Origin',(0.364173228346457,0.248031496062992,0.0118110236220472));
#1340=CARTESIAN_POINT('',(0.708661417322834,0.236220472440945,0.0236220472440945));
#1341=CARTESIAN_POINT('',(0.364173228346457,0.236220472440945,0.0236220472440945));
#1342=CARTESIAN_POINT('',(0.68503937007874,0.259842519685039,0.));
#1343=CARTESIAN_POINT('',(0.364173228346457,0.259842519685039,0.));
#1344=CARTESIAN_POINT('',(0.68503937007874,0.259842519685039,0.));
#1345=CARTESIAN_POINT('Origin',(0.696850393700787,0.265748031496063,0.0118110236220472));
#1346=CARTESIAN_POINT('',(0.708661417322834,0.354330708661417,0.0236220472440945));
#1347=CARTESIAN_POINT('',(0.708661417322834,0.265748031496063,0.0236220472440945));
#1348=CARTESIAN_POINT('',(0.68503937007874,0.364115281000939,0.));
#1349=CARTESIAN_POINT('',(0.68503937007874,0.265748031496063,0.));
#1350=CARTESIAN_POINT('',(0.68503937007874,0.364115281000939,0.));
#1351=CARTESIAN_POINT('Origin',(0.611727085261576,0.274099686391967,0.0118110236220472));
#1352=CARTESIAN_POINT('',(0.62007874015748,0.265748031496063,0.0236220472440945));
#1353=CARTESIAN_POINT('',(0.603375430365672,0.282451341287871,0.));
#1354=CARTESIAN_POINT('Origin',(0.708661417322834,0.354330708661417,0.));
#1355=CARTESIAN_POINT('',(0.826771653543307,0.47244094488189,0.763779527559055));
#1356=CARTESIAN_POINT('',(0.826771653543307,0.47244094488189,0.));
#1357=CARTESIAN_POINT('',(0.708661417322834,0.354330708661417,0.763779527559055));
#1358=CARTESIAN_POINT('',(0.62007874015748,0.265748031496063,0.763779527559055));
#1359=CARTESIAN_POINT('',(0.708661417322834,0.354330708661417,0.));
#1360=CARTESIAN_POINT('Origin',(0.826771653543307,0.47244094488189,0.));
#1361=CARTESIAN_POINT('',(0.826771653543307,0.383858267716535,0.763779527559055));
#1362=CARTESIAN_POINT('Origin',(0.413385826771653,0.295275590551181,0.));
#1363=CARTESIAN_POINT('',(0.0236220472440944,0.442913385826771,0.));
#1364=CARTESIAN_POINT('Origin',(0.81496062992126,0.383858267716535,0.775590551181102));
#1365=CARTESIAN_POINT('',(0.803149606299212,0.566929133858268,0.78740157480315));
#1366=CARTESIAN_POINT('',(0.75,0.513779527559055,0.840551181102362));
#1367=CARTESIAN_POINT('',(0.803149606299212,0.482225517221412,0.78740157480315));
#1368=CARTESIAN_POINT('',(0.803149606299212,0.383858267716535,0.78740157480315));
#1369=CARTESIAN_POINT('',(0.803149606299212,0.482225517221412,0.78740157480315));
#1370=CARTESIAN_POINT('Origin',(0.611727085261576,0.274099686391967,0.775590551181102));
#1371=CARTESIAN_POINT('',(0.68503937007874,0.364115281000939,0.78740157480315));
#1372=CARTESIAN_POINT('',(0.603375430365672,0.282451341287871,0.78740157480315));
#1373=CARTESIAN_POINT('',(0.68503937007874,0.364115281000939,0.78740157480315));
#1374=CARTESIAN_POINT('Origin',(0.696850393700787,0.265748031496063,0.775590551181102));
#1375=CARTESIAN_POINT('',(0.68503937007874,0.259842519685039,0.78740157480315));
#1376=CARTESIAN_POINT('',(0.68503937007874,0.265748031496063,0.78740157480315));
#1377=CARTESIAN_POINT('',(0.708661417322834,0.236220472440945,0.763779527559055));
#1378=CARTESIAN_POINT('',(0.68503937007874,0.259842519685039,0.78740157480315));
#1379=CARTESIAN_POINT('',(0.708661417322834,0.265748031496063,0.763779527559055));
#1380=CARTESIAN_POINT('Origin',(0.364173228346457,0.248031496062992,0.775590551181102));
#1381=CARTESIAN_POINT('',(0.305176057581738,0.259842519685039,0.78740157480315));
#1382=CARTESIAN_POINT('',(0.364173228346457,0.259842519685039,0.78740157480315));
#1383=CARTESIAN_POINT('',(0.31496062992126,0.236220472440945,0.763779527559055));
#1384=CARTESIAN_POINT('',(0.305176057581738,0.259842519685039,0.78740157480315));
#1385=CARTESIAN_POINT('',(0.364173228346457,0.236220472440945,0.763779527559055));
#1386=CARTESIAN_POINT('Origin',(0.286923935655277,0.22488708796677,0.775590551181102));
#1387=CARTESIAN_POINT('',(0.173228346456693,0.127894808559994,0.78740157480315));
#1388=CARTESIAN_POINT('',(0.278572280759373,0.233238742862674,0.78740157480315));
#1389=CARTESIAN_POINT('',(0.196850393700787,0.118110236220472,0.763779527559055));
#1390=CARTESIAN_POINT('',(0.173228346456693,0.127894808559994,0.78740157480315));
#1391=CARTESIAN_POINT('',(0.295275590551181,0.216535433070866,0.763779527559055));
#1392=CARTESIAN_POINT('Origin',(0.18503937007874,0.147637795275591,0.775590551181102));
#1393=CARTESIAN_POINT('',(0.173228346456693,0.0236220472440945,0.78740157480315));
#1394=CARTESIAN_POINT('',(0.173228346456693,0.147637795275591,0.78740157480315));
#1395=CARTESIAN_POINT('',(0.196850393700787,0.,0.763779527559055));
#1396=CARTESIAN_POINT('',(0.173228346456693,0.0236220472440945,0.78740157480315));
#1397=CARTESIAN_POINT('',(0.196850393700787,0.147637795275591,0.763779527559055));
#1398=CARTESIAN_POINT('Origin',(0.206692913385827,0.0118110236220472,0.775590551181102));
#1399=CARTESIAN_POINT('',(0.0236220472440945,0.0236220472440945,0.78740157480315));
#1400=CARTESIAN_POINT('',(0.206692913385827,0.0236220472440945,0.78740157480315));
#1401=CARTESIAN_POINT('',(0.0118110236220473,0.0118110236220472,0.775590551181102));
#1402=CARTESIAN_POINT('',(0.116141732283464,0.116141732283464,0.87992125984252));
#1403=CARTESIAN_POINT('',(0.0236220472440945,0.,0.763779527559055));
#1404=CARTESIAN_POINT('',(0.173556430446194,-0.1499343832021,0.613845144356955));
#1405=CARTESIAN_POINT('',(0.206692913385827,0.,0.763779527559055));
#1406=CARTESIAN_POINT('Origin',(0.62007874015748,0.578740157480315,0.775590551181102));
#1407=CARTESIAN_POINT('',(0.0118110236220471,0.578740157480315,0.775590551181102));
#1408=CARTESIAN_POINT('',(0.24245406824147,0.809383202099737,0.54494750656168));
#1409=CARTESIAN_POINT('',(0.0236220472440943,0.566929133858267,0.78740157480315));
#1410=CARTESIAN_POINT('',(0.135826771653543,0.454724409448819,0.899606299212598));
#1411=CARTESIAN_POINT('',(0.62007874015748,0.566929133858268,0.78740157480315));
#1412=CARTESIAN_POINT('Origin',(0.708661417322834,0.236220472440945,0.));
#1413=CARTESIAN_POINT('',(0.708661417322834,0.236220472440945,0.));
#1414=CARTESIAN_POINT('Origin',(0.31496062992126,0.236220472440945,0.));
#1415=CARTESIAN_POINT('',(0.31496062992126,0.236220472440945,0.));
#1416=CARTESIAN_POINT('',(0.570866141732283,0.236220472440945,0.311023622047244));
#1417=CARTESIAN_POINT('',(0.452755905511811,0.236220472440945,0.311023622047244));
#1418=CARTESIAN_POINT('',(0.383858267716535,0.236220472440945,0.311023622047244));
#1419=CARTESIAN_POINT('',(0.452755905511811,0.236220472440945,0.476377952755905));
#1420=CARTESIAN_POINT('Origin',(0.452755905511811,0.236220472440945,0.393700787401575));
#1421=CARTESIAN_POINT('',(0.570866141732283,0.236220472440945,0.476377952755905));
#1422=CARTESIAN_POINT('',(0.442913385826771,0.236220472440945,0.476377952755905));
#1423=CARTESIAN_POINT('Origin',(0.570866141732283,0.236220472440945,0.393700787401575));
#1424=CARTESIAN_POINT('Origin',(0.196850393700787,0.118110236220472,0.));
#1425=CARTESIAN_POINT('',(0.196850393700787,0.118110236220472,0.));
#1426=CARTESIAN_POINT('Origin',(0.196850393700787,0.,0.));
#1427=CARTESIAN_POINT('',(0.196850393700787,0.,0.));
#1428=CARTESIAN_POINT('Origin',(0.,0.,0.));
#1429=CARTESIAN_POINT('',(0.0236220472440945,0.,0.));
#1430=CARTESIAN_POINT('Origin',(0.0118110236220472,0.0118110236220472,0.));
#1431=CARTESIAN_POINT('',(-0.189304461942257,0.212926509186352,0.574475065616798));
#1432=CARTESIAN_POINT('',(-0.0580708661417323,0.0816929133858268,0.0816929133858267));
#1433=CARTESIAN_POINT('Origin',(0.0118110236220471,0.442913385826771,0.0118110236220472));
#1434=CARTESIAN_POINT('',(-0.00885826771653559,0.558070866141732,0.0324803149606299));
#1435=CARTESIAN_POINT('Origin',(0.0118110236220471,0.578740157480315,0.));
#1436=CARTESIAN_POINT('',(-0.14009186351706,0.426837270341207,0.623687664041994));
#1437=CARTESIAN_POINT('Origin',(0.0118110236220471,0.442913385826771,0.775590551181102));
#1438=CARTESIAN_POINT('',(0.0236220472440944,0.442913385826771,0.78740157480315));
#1439=CARTESIAN_POINT('Origin',(0.413385826771653,0.295275590551181,0.78740157480315));
#1440=CARTESIAN_POINT('Origin',(0.0393700787401573,0.295275590551181,0.393700787401575));
#1441=CARTESIAN_POINT('Origin',(0.452755905511811,0.590551181102362,0.236200787401575));
#1442=CARTESIAN_POINT('',(0.452755905511811,0.433070866141732,0.236200787401575));
#1443=CARTESIAN_POINT('',(0.452755905511811,0.590551181102362,0.236200787401575));
#1444=CARTESIAN_POINT('',(0.570866141732283,0.433070866141732,0.236200787401575));
#1445=CARTESIAN_POINT('Origin',(0.452755905511811,0.590551181102362,0.393700787401575));
#1446=CARTESIAN_POINT('Origin',(0.452755905511811,0.433070866141732,0.393700787401575));
#1447=CARTESIAN_POINT('Origin',(0.511811023622047,0.433070866141732,0.393700787401575));
#1448=CARTESIAN_POINT('',(0.452755905511811,0.433070866141732,0.476377952755905));
#1449=CARTESIAN_POINT('',(0.570866141732283,0.433070866141732,0.476377952755905));
#1450=CARTESIAN_POINT('',(0.541338582677165,0.433070866141732,0.476377952755905));
#1451=CARTESIAN_POINT('',(0.452755905511811,0.433070866141732,0.311023622047244));
#1452=CARTESIAN_POINT('Origin',(0.452755905511811,0.433070866141732,0.393700787401575));
#1453=CARTESIAN_POINT('',(0.570866141732283,0.433070866141732,0.311023622047244));
#1454=CARTESIAN_POINT('',(0.482283464566929,0.433070866141732,0.311023622047244));
#1455=CARTESIAN_POINT('Origin',(0.570866141732283,0.433070866141732,0.393700787401575));
#1456=CARTESIAN_POINT('Origin',(0.452755905511811,0.590551181102362,0.311023622047244));
#1457=CARTESIAN_POINT('',(0.452755905511811,0.590551181102362,0.311023622047244));
#1458=CARTESIAN_POINT('',(0.570866141732283,0.590551181102362,0.311023622047244));
#1459=CARTESIAN_POINT('Origin',(0.452755905511811,0.590551181102362,0.393700787401575));
#1460=CARTESIAN_POINT('',(0.452755905511811,0.590551181102362,0.476377952755905));
#1461=CARTESIAN_POINT('Origin',(0.570866141732283,0.590551181102362,0.476377952755905));
#1462=CARTESIAN_POINT('',(0.570866141732283,0.590551181102362,0.476377952755905));
#1463=CARTESIAN_POINT('Origin',(0.570866141732283,0.590551181102362,0.393700787401575));
#1464=UNCERTAINTY_MEASURE_WITH_UNIT(LENGTH_MEASURE(0.000393700787401575),
#1470,'DISTANCE_ACCURACY_VALUE',
'Maximum model space distance between geometric entities at asserted c
onnectivities');
#1465=UNCERTAINTY_MEASURE_WITH_UNIT(LENGTH_MEASURE(0.000393700787401575),
#1470,'DISTANCE_ACCURACY_VALUE',
'Maximum model space distance between geometric entities at asserted c
onnectivities');
#1466=(
GEOMETRIC_REPRESENTATION_CONTEXT(3)
GLOBAL_UNCERTAINTY_ASSIGNED_CONTEXT((#1464))
GLOBAL_UNIT_ASSIGNED_CONTEXT((#1470,#1474,#1475))
REPRESENTATION_CONTEXT('','3D')
);
#1467=(
GEOMETRIC_REPRESENTATION_CONTEXT(3)
GLOBAL_UNCERTAINTY_ASSIGNED_CONTEXT((#1465))
GLOBAL_UNIT_ASSIGNED_CONTEXT((#1470,#1474,#1475))
REPRESENTATION_CONTEXT('','3D')
);
#1468=DIMENSIONAL_EXPONENTS(1.,0.,0.,0.,0.,0.,0.);
#1469=DIMENSIONAL_EXPONENTS(0.,1.,0.,0.,0.,0.,0.);
#1470=(
CONVERSION_BASED_UNIT('inch',#1473)
LENGTH_UNIT()
NAMED_UNIT(#1468)
);
#1471=(
LENGTH_UNIT()
NAMED_UNIT(*)
SI_UNIT(.MILLI.,.METRE.)
);
#1472=(
LENGTH_UNIT()
NAMED_UNIT(*)
SI_UNIT(.CENTI.,.METRE.)
);
#1473=LENGTH_MEASURE_WITH_UNIT(LENGTH_MEASURE(25.4),#1471);
#1474=(
NAMED_UNIT(*)
PLANE_ANGLE_UNIT()
SI_UNIT($,.RADIAN.)
);
#1475=(
NAMED_UNIT(*)
SI_UNIT($,.STERADIAN.)
SOLID_ANGLE_UNIT()
);
#1476=SHAPE_DEFINITION_REPRESENTATION(#1477,#1478);
#1477=PRODUCT_DEFINITION_SHAPE('',$,#1480);
#1478=SHAPE_REPRESENTATION('',(#920),#1466);
#1479=PRODUCT_DEFINITION_CONTEXT('part definition',#1484,'design');
#1480=PRODUCT_DEFINITION('Part1','Moving Jaw (M4)',#1481,#1479);
#1481=PRODUCT_DEFINITION_FORMATION('',$,#1486);
#1482=PRODUCT_RELATED_PRODUCT_CATEGORY('Moving Jaw (M4)',
'Moving Jaw (M4)',(#1486));
#1483=APPLICATION_PROTOCOL_DEFINITION('international standard',
'automotive_design',2009,#1484);
#1484=APPLICATION_CONTEXT(
'Core Data for Automotive Mechanical Design Process');
#1485=PRODUCT_CONTEXT('part definition',#1484,'mechanical');
#1486=PRODUCT('Part1','Moving Jaw (M4)',$,(#1485));
#1487=PRESENTATION_STYLE_ASSIGNMENT((#1488));
#1488=SURFACE_STYLE_USAGE(.BOTH.,#1491);
#1489=SURFACE_STYLE_RENDERING_WITH_PROPERTIES($,#1495,(#1490));
#1490=SURFACE_STYLE_TRANSPARENT(0.);
#1491=SURFACE_SIDE_STYLE('',(#1492,#1489));
#1492=SURFACE_STYLE_FILL_AREA(#1493);
#1493=FILL_AREA_STYLE('',(#1494));
#1494=FILL_AREA_STYLE_COLOUR('',#1495);
#1495=COLOUR_RGB('',0.749019607843137,0.749019607843137,0.749019607843137);
ENDSEC;
END-ISO-10303-21;
