ISO-10303-21;
HEADER;
/* Generated by software containing ST-Developer
 * from STEP Tools, Inc. (www.steptools.com) 
 */

FILE_DESCRIPTION(
/* description */ (''),
/* implementation_level */ '2;1');

FILE_NAME(
/* name */ 'Part1.stp',
/* time_stamp */ '2026-07-19T15:34:28-04:00',
/* author */ ('JoshuaEah'),
/* organization */ (''),
/* preprocessor_version */ 'ST-DEVELOPER v20.1',
/* originating_system */ 'Autodesk Inventor 2026',
/* authorisation */ '');

FILE_SCHEMA (('AUTOMOTIVE_DESIGN { 1 0 10303 214 3 1 1 }'));
ENDSEC;

DATA;
#10=MECHANICAL_DESIGN_GEOMETRIC_PRESENTATION_REPRESENTATION('',(#13),#1325);
#11=SHAPE_REPRESENTATION_RELATIONSHIP('SRR','None',#1336,#12);
#12=ADVANCED_BREP_SHAPE_REPRESENTATION('',(#14),#1324);
#13=STYLED_ITEM('',(#1345),#14);
#14=MANIFOLD_SOLID_BREP('Solid1',#809);
#15=FACE_BOUND('',#113,.T.);
#16=FACE_BOUND('',#136,.T.);
#17=FACE_BOUND('',#149,.T.);
#18=CYLINDRICAL_SURFACE('',#840,0.125);
#19=CYLINDRICAL_SURFACE('',#877,0.125);
#20=CYLINDRICAL_SURFACE('',#883,0.062992125984252);
#21=CYLINDRICAL_SURFACE('',#885,0.062992125984252);
#22=PLANE('',#834);
#23=PLANE('',#838);
#24=PLANE('',#839);
#25=PLANE('',#842);
#26=PLANE('',#843);
#27=PLANE('',#844);
#28=PLANE('',#845);
#29=PLANE('',#846);
#30=PLANE('',#847);
#31=PLANE('',#848);
#32=PLANE('',#849);
#33=PLANE('',#850);
#34=PLANE('',#851);
#35=PLANE('',#852);
#36=PLANE('',#853);
#37=PLANE('',#854);
#38=PLANE('',#855);
#39=PLANE('',#856);
#40=PLANE('',#857);
#41=PLANE('',#858);
#42=PLANE('',#859);
#43=PLANE('',#860);
#44=PLANE('',#861);
#45=PLANE('',#862);
#46=PLANE('',#863);
#47=PLANE('',#864);
#48=PLANE('',#867);
#49=PLANE('',#868);
#50=PLANE('',#869);
#51=PLANE('',#870);
#52=PLANE('',#871);
#53=PLANE('',#872);
#54=PLANE('',#873);
#55=PLANE('',#874);
#56=PLANE('',#875);
#57=PLANE('',#876);
#58=PLANE('',#879);
#59=PLANE('',#882);
#60=PLANE('',#884);
#61=FACE_OUTER_BOUND('',#106,.T.);
#62=FACE_OUTER_BOUND('',#107,.T.);
#63=FACE_OUTER_BOUND('',#108,.T.);
#64=FACE_OUTER_BOUND('',#109,.T.);
#65=FACE_OUTER_BOUND('',#110,.T.);
#66=FACE_OUTER_BOUND('',#111,.T.);
#67=FACE_OUTER_BOUND('',#112,.T.);
#68=FACE_OUTER_BOUND('',#114,.T.);
#69=FACE_OUTER_BOUND('',#115,.T.);
#70=FACE_OUTER_BOUND('',#116,.T.);
#71=FACE_OUTER_BOUND('',#117,.T.);
#72=FACE_OUTER_BOUND('',#118,.T.);
#73=FACE_OUTER_BOUND('',#119,.T.);
#74=FACE_OUTER_BOUND('',#120,.T.);
#75=FACE_OUTER_BOUND('',#121,.T.);
#76=FACE_OUTER_BOUND('',#122,.T.);
#77=FACE_OUTER_BOUND('',#123,.T.);
#78=FACE_OUTER_BOUND('',#124,.T.);
#79=FACE_OUTER_BOUND('',#125,.T.);
#80=FACE_OUTER_BOUND('',#126,.T.);
#81=FACE_OUTER_BOUND('',#127,.T.);
#82=FACE_OUTER_BOUND('',#128,.T.);
#83=FACE_OUTER_BOUND('',#129,.T.);
#84=FACE_OUTER_BOUND('',#130,.T.);
#85=FACE_OUTER_BOUND('',#131,.T.);
#86=FACE_OUTER_BOUND('',#132,.T.);
#87=FACE_OUTER_BOUND('',#133,.T.);
#88=FACE_OUTER_BOUND('',#134,.T.);
#89=FACE_OUTER_BOUND('',#135,.T.);
#90=FACE_OUTER_BOUND('',#137,.T.);
#91=FACE_OUTER_BOUND('',#138,.T.);
#92=FACE_OUTER_BOUND('',#139,.T.);
#93=FACE_OUTER_BOUND('',#140,.T.);
#94=FACE_OUTER_BOUND('',#141,.T.);
#95=FACE_OUTER_BOUND('',#142,.T.);
#96=FACE_OUTER_BOUND('',#143,.T.);
#97=FACE_OUTER_BOUND('',#144,.T.);
#98=FACE_OUTER_BOUND('',#145,.T.);
#99=FACE_OUTER_BOUND('',#146,.T.);
#100=FACE_OUTER_BOUND('',#147,.T.);
#101=FACE_OUTER_BOUND('',#148,.T.);
#102=FACE_OUTER_BOUND('',#150,.T.);
#103=FACE_OUTER_BOUND('',#151,.T.);
#104=FACE_OUTER_BOUND('',#152,.T.);
#105=FACE_OUTER_BOUND('',#153,.T.);
#106=EDGE_LOOP('',(#542,#543,#544,#545));
#107=EDGE_LOOP('',(#546,#547,#548,#549));
#108=EDGE_LOOP('',(#550,#551,#552,#553));
#109=EDGE_LOOP('',(#554,#555,#556,#557));
#110=EDGE_LOOP('',(#558,#559,#560,#561));
#111=EDGE_LOOP('',(#562,#563,#564,#565));
#112=EDGE_LOOP('',(#566,#567,#568,#569));
#113=EDGE_LOOP('',(#570,#571,#572,#573));
#114=EDGE_LOOP('',(#574,#575,#576,#577,#578,#579));
#115=EDGE_LOOP('',(#580,#581,#582,#583,#584,#585));
#116=EDGE_LOOP('',(#586,#587,#588,#589,#590));
#117=EDGE_LOOP('',(#591,#592,#593,#594));
#118=EDGE_LOOP('',(#595,#596,#597,#598,#599));
#119=EDGE_LOOP('',(#600,#601,#602,#603));
#120=EDGE_LOOP('',(#604,#605,#606,#607));
#121=EDGE_LOOP('',(#608,#609,#610,#611));
#122=EDGE_LOOP('',(#612,#613,#614,#615));
#123=EDGE_LOOP('',(#616,#617,#618,#619));
#124=EDGE_LOOP('',(#620,#621,#622,#623));
#125=EDGE_LOOP('',(#624,#625,#626,#627,#628,#629,#630,#631,#632));
#126=EDGE_LOOP('',(#633,#634,#635,#636,#637));
#127=EDGE_LOOP('',(#638,#639,#640,#641));
#128=EDGE_LOOP('',(#642,#643,#644,#645));
#129=EDGE_LOOP('',(#646,#647,#648,#649));
#130=EDGE_LOOP('',(#650,#651,#652,#653));
#131=EDGE_LOOP('',(#654,#655,#656,#657));
#132=EDGE_LOOP('',(#658,#659,#660,#661,#662));
#133=EDGE_LOOP('',(#663,#664,#665,#666,#667,#668));
#134=EDGE_LOOP('',(#669,#670,#671,#672));
#135=EDGE_LOOP('',(#673,#674,#675,#676));
#136=EDGE_LOOP('',(#677,#678,#679,#680));
#137=EDGE_LOOP('',(#681,#682,#683,#684));
#138=EDGE_LOOP('',(#685,#686,#687,#688));
#139=EDGE_LOOP('',(#689,#690,#691,#692));
#140=EDGE_LOOP('',(#693,#694,#695,#696,#697,#698));
#141=EDGE_LOOP('',(#699,#700,#701,#702,#703,#704));
#142=EDGE_LOOP('',(#705,#706,#707,#708,#709,#710));
#143=EDGE_LOOP('',(#711,#712,#713,#714));
#144=EDGE_LOOP('',(#715,#716,#717,#718,#719,#720));
#145=EDGE_LOOP('',(#721,#722,#723,#724,#725,#726,#727,#728,#729));
#146=EDGE_LOOP('',(#730,#731,#732,#733));
#147=EDGE_LOOP('',(#734,#735,#736,#737));
#148=EDGE_LOOP('',(#738,#739,#740,#741));
#149=EDGE_LOOP('',(#742,#743,#744,#745));
#150=EDGE_LOOP('',(#746,#747,#748,#749));
#151=EDGE_LOOP('',(#750,#751,#752,#753));
#152=EDGE_LOOP('',(#754,#755,#756,#757));
#153=EDGE_LOOP('',(#758,#759,#760,#761));
#154=CIRCLE('',#832,0.148622047244094);
#155=CIRCLE('',#833,0.125);
#156=CIRCLE('',#836,0.148622047244094);
#157=CIRCLE('',#837,0.125);
#158=CIRCLE('',#841,0.125);
#159=CIRCLE('',#865,0.062992125984252);
#160=CIRCLE('',#866,0.062992125984252);
#161=CIRCLE('',#878,0.125);
#162=CIRCLE('',#880,0.062992125984252);
#163=CIRCLE('',#881,0.062992125984252);
#164=LINE('',#1102,#264);
#165=LINE('',#1106,#265);
#166=LINE('',#1111,#266);
#167=LINE('',#1112,#267);
#168=LINE('',#1113,#268);
#169=LINE('',#1117,#269);
#170=LINE('',#1121,#270);
#171=LINE('',#1122,#271);
#172=LINE('',#1125,#272);
#173=LINE('',#1127,#273);
#174=LINE('',#1128,#274);
#175=LINE('',#1131,#275);
#176=LINE('',#1136,#276);
#177=LINE('',#1138,#277);
#178=LINE('',#1140,#278);
#179=LINE('',#1141,#279);
#180=LINE('',#1145,#280);
#181=LINE('',#1147,#281);
#182=LINE('',#1149,#282);
#183=LINE('',#1150,#283);
#184=LINE('',#1151,#284);
#185=LINE('',#1154,#285);
#186=LINE('',#1156,#286);
#187=LINE('',#1158,#287);
#188=LINE('',#1159,#288);
#189=LINE('',#1162,#289);
#190=LINE('',#1164,#290);
#191=LINE('',#1165,#291);
#192=LINE('',#1169,#292);
#193=LINE('',#1171,#293);
#194=LINE('',#1173,#294);
#195=LINE('',#1174,#295);
#196=LINE('',#1177,#296);
#197=LINE('',#1179,#297);
#198=LINE('',#1181,#298);
#199=LINE('',#1182,#299);
#200=LINE('',#1185,#300);
#201=LINE('',#1187,#301);
#202=LINE('',#1188,#302);
#203=LINE('',#1191,#303);
#204=LINE('',#1193,#304);
#205=LINE('',#1194,#305);
#206=LINE('',#1197,#306);
#207=LINE('',#1199,#307);
#208=LINE('',#1200,#308);
#209=LINE('',#1202,#309);
#210=LINE('',#1203,#310);
#211=LINE('',#1206,#311);
#212=LINE('',#1208,#312);
#213=LINE('',#1209,#313);
#214=LINE('',#1211,#314);
#215=LINE('',#1213,#315);
#216=LINE('',#1216,#316);
#217=LINE('',#1218,#317);
#218=LINE('',#1219,#318);
#219=LINE('',#1222,#319);
#220=LINE('',#1223,#320);
#221=LINE('',#1226,#321);
#222=LINE('',#1228,#322);
#223=LINE('',#1229,#323);
#224=LINE('',#1232,#324);
#225=LINE('',#1234,#325);
#226=LINE('',#1235,#326);
#227=LINE('',#1238,#327);
#228=LINE('',#1240,#328);
#229=LINE('',#1241,#329);
#230=LINE('',#1244,#330);
#231=LINE('',#1246,#331);
#232=LINE('',#1247,#332);
#233=LINE('',#1250,#333);
#234=LINE('',#1252,#334);
#235=LINE('',#1254,#335);
#236=LINE('',#1255,#336);
#237=LINE('',#1258,#337);
#238=LINE('',#1260,#338);
#239=LINE('',#1261,#339);
#240=LINE('',#1263,#340);
#241=LINE('',#1265,#341);
#242=LINE('',#1268,#342);
#243=LINE('',#1272,#343);
#244=LINE('',#1275,#344);
#245=LINE('',#1277,#345);
#246=LINE('',#1279,#346);
#247=LINE('',#1282,#347);
#248=LINE('',#1284,#348);
#249=LINE('',#1285,#349);
#250=LINE('',#1288,#350);
#251=LINE('',#1289,#351);
#252=LINE('',#1292,#352);
#253=LINE('',#1293,#353);
#254=LINE('',#1295,#354);
#255=LINE('',#1297,#355);
#256=LINE('',#1301,#356);
#257=LINE('',#1302,#357);
#258=LINE('',#1308,#358);
#259=LINE('',#1312,#359);
#260=LINE('',#1315,#360);
#261=LINE('',#1316,#361);
#262=LINE('',#1318,#362);
#263=LINE('',#1320,#363);
#264=VECTOR('',#890,0.393700787401575);
#265=VECTOR('',#893,0.393700787401575);
#266=VECTOR('',#898,0.393700787401575);
#267=VECTOR('',#899,0.393700787401575);
#268=VECTOR('',#900,0.393700787401575);
#269=VECTOR('',#903,0.393700787401575);
#270=VECTOR('',#910,0.393700787401575);
#271=VECTOR('',#911,0.393700787401575);
#272=VECTOR('',#914,0.393700787401575);
#273=VECTOR('',#915,0.393700787401575);
#274=VECTOR('',#916,0.393700787401575);
#275=VECTOR('',#919,0.393700787401575);
#276=VECTOR('',#924,0.393700787401575);
#277=VECTOR('',#925,0.393700787401575);
#278=VECTOR('',#926,0.393700787401575);
#279=VECTOR('',#927,0.393700787401575);
#280=VECTOR('',#930,0.393700787401575);
#281=VECTOR('',#931,0.393700787401575);
#282=VECTOR('',#932,0.393700787401575);
#283=VECTOR('',#933,0.393700787401575);
#284=VECTOR('',#934,0.393700787401575);
#285=VECTOR('',#937,0.393700787401575);
#286=VECTOR('',#938,0.393700787401575);
#287=VECTOR('',#939,0.393700787401575);
#288=VECTOR('',#940,0.393700787401575);
#289=VECTOR('',#943,0.393700787401575);
#290=VECTOR('',#944,0.393700787401575);
#291=VECTOR('',#945,0.393700787401575);
#292=VECTOR('',#948,0.393700787401575);
#293=VECTOR('',#949,0.393700787401575);
#294=VECTOR('',#950,0.393700787401575);
#295=VECTOR('',#951,0.393700787401575);
#296=VECTOR('',#954,0.393700787401575);
#297=VECTOR('',#955,0.393700787401575);
#298=VECTOR('',#956,0.393700787401575);
#299=VECTOR('',#957,0.393700787401575);
#300=VECTOR('',#960,0.393700787401575);
#301=VECTOR('',#961,0.393700787401575);
#302=VECTOR('',#962,0.393700787401575);
#303=VECTOR('',#965,0.393700787401575);
#304=VECTOR('',#966,0.393700787401575);
#305=VECTOR('',#967,0.393700787401575);
#306=VECTOR('',#970,0.393700787401575);
#307=VECTOR('',#971,0.393700787401575);
#308=VECTOR('',#972,0.393700787401575);
#309=VECTOR('',#975,0.393700787401575);
#310=VECTOR('',#976,0.393700787401575);
#311=VECTOR('',#979,0.393700787401575);
#312=VECTOR('',#980,0.393700787401575);
#313=VECTOR('',#981,0.393700787401575);
#314=VECTOR('',#984,0.393700787401575);
#315=VECTOR('',#987,0.393700787401575);
#316=VECTOR('',#990,0.393700787401575);
#317=VECTOR('',#991,0.393700787401575);
#318=VECTOR('',#992,0.393700787401575);
#319=VECTOR('',#995,0.393700787401575);
#320=VECTOR('',#996,0.393700787401575);
#321=VECTOR('',#999,0.393700787401575);
#322=VECTOR('',#1000,0.393700787401575);
#323=VECTOR('',#1001,0.393700787401575);
#324=VECTOR('',#1004,0.393700787401575);
#325=VECTOR('',#1005,0.393700787401575);
#326=VECTOR('',#1006,0.393700787401575);
#327=VECTOR('',#1009,0.393700787401575);
#328=VECTOR('',#1010,0.393700787401575);
#329=VECTOR('',#1011,0.393700787401575);
#330=VECTOR('',#1014,0.393700787401575);
#331=VECTOR('',#1015,0.393700787401575);
#332=VECTOR('',#1016,0.393700787401575);
#333=VECTOR('',#1019,0.393700787401575);
#334=VECTOR('',#1020,0.393700787401575);
#335=VECTOR('',#1021,0.393700787401575);
#336=VECTOR('',#1022,0.393700787401575);
#337=VECTOR('',#1025,0.393700787401575);
#338=VECTOR('',#1026,0.393700787401575);
#339=VECTOR('',#1027,0.393700787401575);
#340=VECTOR('',#1030,0.393700787401575);
#341=VECTOR('',#1033,0.393700787401575);
#342=VECTOR('',#1034,0.393700787401575);
#343=VECTOR('',#1037,0.393700787401575);
#344=VECTOR('',#1042,0.393700787401575);
#345=VECTOR('',#1045,0.393700787401575);
#346=VECTOR('',#1048,0.393700787401575);
#347=VECTOR('',#1051,0.393700787401575);
#348=VECTOR('',#1052,0.393700787401575);
#349=VECTOR('',#1053,0.393700787401575);
#350=VECTOR('',#1056,0.393700787401575);
#351=VECTOR('',#1057,0.393700787401575);
#352=VECTOR('',#1060,0.393700787401575);
#353=VECTOR('',#1061,0.393700787401575);
#354=VECTOR('',#1064,0.393700787401575);
#355=VECTOR('',#1067,0.393700787401575);
#356=VECTOR('',#1072,0.393700787401575);
#357=VECTOR('',#1073,0.393700787401575);
#358=VECTOR('',#1080,0.393700787401575);
#359=VECTOR('',#1083,0.393700787401575);
#360=VECTOR('',#1088,0.393700787401575);
#361=VECTOR('',#1089,0.393700787401575);
#362=VECTOR('',#1092,0.393700787401575);
#363=VECTOR('',#1095,0.393700787401575);
#364=VERTEX_POINT('',#1100);
#365=VERTEX_POINT('',#1101);
#366=VERTEX_POINT('',#1103);
#367=VERTEX_POINT('',#1105);
#368=VERTEX_POINT('',#1109);
#369=VERTEX_POINT('',#1110);
#370=VERTEX_POINT('',#1115);
#371=VERTEX_POINT('',#1116);
#372=VERTEX_POINT('',#1124);
#373=VERTEX_POINT('',#1126);
#374=VERTEX_POINT('',#1130);
#375=VERTEX_POINT('',#1134);
#376=VERTEX_POINT('',#1135);
#377=VERTEX_POINT('',#1137);
#378=VERTEX_POINT('',#1139);
#379=VERTEX_POINT('',#1143);
#380=VERTEX_POINT('',#1144);
#381=VERTEX_POINT('',#1146);
#382=VERTEX_POINT('',#1148);
#383=VERTEX_POINT('',#1153);
#384=VERTEX_POINT('',#1155);
#385=VERTEX_POINT('',#1157);
#386=VERTEX_POINT('',#1161);
#387=VERTEX_POINT('',#1163);
#388=VERTEX_POINT('',#1167);
#389=VERTEX_POINT('',#1168);
#390=VERTEX_POINT('',#1170);
#391=VERTEX_POINT('',#1172);
#392=VERTEX_POINT('',#1176);
#393=VERTEX_POINT('',#1178);
#394=VERTEX_POINT('',#1180);
#395=VERTEX_POINT('',#1184);
#396=VERTEX_POINT('',#1186);
#397=VERTEX_POINT('',#1190);
#398=VERTEX_POINT('',#1192);
#399=VERTEX_POINT('',#1196);
#400=VERTEX_POINT('',#1198);
#401=VERTEX_POINT('',#1205);
#402=VERTEX_POINT('',#1207);
#403=VERTEX_POINT('',#1215);
#404=VERTEX_POINT('',#1217);
#405=VERTEX_POINT('',#1221);
#406=VERTEX_POINT('',#1225);
#407=VERTEX_POINT('',#1227);
#408=VERTEX_POINT('',#1231);
#409=VERTEX_POINT('',#1233);
#410=VERTEX_POINT('',#1237);
#411=VERTEX_POINT('',#1239);
#412=VERTEX_POINT('',#1243);
#413=VERTEX_POINT('',#1245);
#414=VERTEX_POINT('',#1249);
#415=VERTEX_POINT('',#1251);
#416=VERTEX_POINT('',#1253);
#417=VERTEX_POINT('',#1257);
#418=VERTEX_POINT('',#1259);
#419=VERTEX_POINT('',#1266);
#420=VERTEX_POINT('',#1267);
#421=VERTEX_POINT('',#1269);
#422=VERTEX_POINT('',#1271);
#423=VERTEX_POINT('',#1281);
#424=VERTEX_POINT('',#1283);
#425=VERTEX_POINT('',#1287);
#426=VERTEX_POINT('',#1291);
#427=VERTEX_POINT('',#1300);
#428=VERTEX_POINT('',#1306);
#429=VERTEX_POINT('',#1307);
#430=VERTEX_POINT('',#1309);
#431=VERTEX_POINT('',#1311);
#432=EDGE_CURVE('',#364,#365,#164,.T.);
#433=EDGE_CURVE('',#365,#366,#154,.T.);
#434=EDGE_CURVE('',#366,#367,#165,.T.);
#435=EDGE_CURVE('',#367,#364,#155,.T.);
#436=EDGE_CURVE('',#368,#369,#166,.T.);
#437=EDGE_CURVE('',#369,#365,#167,.T.);
#438=EDGE_CURVE('',#364,#368,#168,.T.);
#439=EDGE_CURVE('',#370,#371,#169,.T.);
#440=EDGE_CURVE('',#371,#369,#156,.T.);
#441=EDGE_CURVE('',#368,#370,#157,.T.);
#442=EDGE_CURVE('',#366,#371,#170,.T.);
#443=EDGE_CURVE('',#370,#367,#171,.T.);
#444=EDGE_CURVE('',#364,#372,#172,.T.);
#445=EDGE_CURVE('',#372,#373,#173,.T.);
#446=EDGE_CURVE('',#368,#373,#174,.T.);
#447=EDGE_CURVE('',#367,#374,#175,.T.);
#448=EDGE_CURVE('',#374,#372,#158,.T.);
#449=EDGE_CURVE('',#375,#376,#176,.T.);
#450=EDGE_CURVE('',#377,#375,#177,.T.);
#451=EDGE_CURVE('',#378,#377,#178,.T.);
#452=EDGE_CURVE('',#376,#378,#179,.T.);
#453=EDGE_CURVE('',#379,#380,#180,.T.);
#454=EDGE_CURVE('',#380,#381,#181,.T.);
#455=EDGE_CURVE('',#381,#382,#182,.T.);
#456=EDGE_CURVE('',#382,#375,#183,.T.);
#457=EDGE_CURVE('',#376,#379,#184,.T.);
#458=EDGE_CURVE('',#383,#382,#185,.T.);
#459=EDGE_CURVE('',#383,#384,#186,.T.);
#460=EDGE_CURVE('',#385,#384,#187,.T.);
#461=EDGE_CURVE('',#377,#385,#188,.T.);
#462=EDGE_CURVE('',#381,#386,#189,.T.);
#463=EDGE_CURVE('',#387,#386,#190,.T.);
#464=EDGE_CURVE('',#387,#383,#191,.T.);
#465=EDGE_CURVE('',#388,#389,#192,.T.);
#466=EDGE_CURVE('',#389,#390,#193,.T.);
#467=EDGE_CURVE('',#390,#391,#194,.T.);
#468=EDGE_CURVE('',#391,#388,#195,.T.);
#469=EDGE_CURVE('',#389,#392,#196,.T.);
#470=EDGE_CURVE('',#392,#393,#197,.T.);
#471=EDGE_CURVE('',#393,#394,#198,.T.);
#472=EDGE_CURVE('',#394,#390,#199,.T.);
#473=EDGE_CURVE('',#395,#388,#200,.T.);
#474=EDGE_CURVE('',#391,#396,#201,.T.);
#475=EDGE_CURVE('',#396,#395,#202,.T.);
#476=EDGE_CURVE('',#397,#395,#203,.T.);
#477=EDGE_CURVE('',#396,#398,#204,.T.);
#478=EDGE_CURVE('',#398,#397,#205,.T.);
#479=EDGE_CURVE('',#399,#397,#206,.T.);
#480=EDGE_CURVE('',#398,#400,#207,.T.);
#481=EDGE_CURVE('',#400,#399,#208,.T.);
#482=EDGE_CURVE('',#386,#399,#209,.T.);
#483=EDGE_CURVE('',#400,#387,#210,.T.);
#484=EDGE_CURVE('',#386,#401,#211,.T.);
#485=EDGE_CURVE('',#402,#401,#212,.T.);
#486=EDGE_CURVE('',#399,#402,#213,.T.);
#487=EDGE_CURVE('',#401,#380,#214,.T.);
#488=EDGE_CURVE('',#384,#394,#215,.T.);
#489=EDGE_CURVE('',#379,#403,#216,.T.);
#490=EDGE_CURVE('',#403,#404,#217,.T.);
#491=EDGE_CURVE('',#404,#401,#218,.T.);
#492=EDGE_CURVE('',#404,#405,#219,.T.);
#493=EDGE_CURVE('',#405,#402,#220,.T.);
#494=EDGE_CURVE('',#405,#406,#221,.T.);
#495=EDGE_CURVE('',#406,#407,#222,.T.);
#496=EDGE_CURVE('',#407,#402,#223,.T.);
#497=EDGE_CURVE('',#406,#408,#224,.T.);
#498=EDGE_CURVE('',#408,#409,#225,.T.);
#499=EDGE_CURVE('',#409,#407,#226,.T.);
#500=EDGE_CURVE('',#408,#410,#227,.T.);
#501=EDGE_CURVE('',#410,#411,#228,.T.);
#502=EDGE_CURVE('',#411,#409,#229,.T.);
#503=EDGE_CURVE('',#410,#412,#230,.T.);
#504=EDGE_CURVE('',#412,#413,#231,.T.);
#505=EDGE_CURVE('',#413,#411,#232,.T.);
#506=EDGE_CURVE('',#412,#414,#233,.T.);
#507=EDGE_CURVE('',#414,#415,#234,.T.);
#508=EDGE_CURVE('',#415,#416,#235,.T.);
#509=EDGE_CURVE('',#416,#413,#236,.T.);
#510=EDGE_CURVE('',#417,#378,#237,.T.);
#511=EDGE_CURVE('',#418,#417,#238,.T.);
#512=EDGE_CURVE('',#418,#403,#239,.T.);
#513=EDGE_CURVE('',#397,#407,#240,.T.);
#514=EDGE_CURVE('',#395,#409,#241,.T.);
#515=EDGE_CURVE('',#419,#420,#242,.T.);
#516=EDGE_CURVE('',#420,#421,#159,.T.);
#517=EDGE_CURVE('',#421,#422,#243,.T.);
#518=EDGE_CURVE('',#422,#419,#160,.T.);
#519=EDGE_CURVE('',#388,#411,#244,.T.);
#520=EDGE_CURVE('',#389,#413,#245,.T.);
#521=EDGE_CURVE('',#392,#416,#246,.T.);
#522=EDGE_CURVE('',#423,#415,#247,.T.);
#523=EDGE_CURVE('',#423,#424,#248,.T.);
#524=EDGE_CURVE('',#393,#424,#249,.T.);
#525=EDGE_CURVE('',#424,#425,#250,.T.);
#526=EDGE_CURVE('',#425,#385,#251,.T.);
#527=EDGE_CURVE('',#425,#426,#252,.T.);
#528=EDGE_CURVE('',#417,#426,#253,.T.);
#529=EDGE_CURVE('',#426,#423,#254,.T.);
#530=EDGE_CURVE('',#414,#418,#255,.T.);
#531=EDGE_CURVE('',#370,#427,#256,.T.);
#532=EDGE_CURVE('',#427,#374,#257,.T.);
#533=EDGE_CURVE('',#373,#427,#161,.T.);
#534=EDGE_CURVE('',#428,#429,#258,.T.);
#535=EDGE_CURVE('',#430,#428,#162,.T.);
#536=EDGE_CURVE('',#431,#430,#259,.T.);
#537=EDGE_CURVE('',#429,#431,#163,.T.);
#538=EDGE_CURVE('',#430,#420,#260,.T.);
#539=EDGE_CURVE('',#431,#419,#261,.T.);
#540=EDGE_CURVE('',#428,#421,#262,.T.);
#541=EDGE_CURVE('',#429,#422,#263,.T.);
#542=ORIENTED_EDGE('',*,*,#432,.T.);
#543=ORIENTED_EDGE('',*,*,#433,.T.);
#544=ORIENTED_EDGE('',*,*,#434,.T.);
#545=ORIENTED_EDGE('',*,*,#435,.T.);
#546=ORIENTED_EDGE('',*,*,#436,.T.);
#547=ORIENTED_EDGE('',*,*,#437,.T.);
#548=ORIENTED_EDGE('',*,*,#432,.F.);
#549=ORIENTED_EDGE('',*,*,#438,.T.);
#550=ORIENTED_EDGE('',*,*,#439,.T.);
#551=ORIENTED_EDGE('',*,*,#440,.T.);
#552=ORIENTED_EDGE('',*,*,#436,.F.);
#553=ORIENTED_EDGE('',*,*,#441,.T.);
#554=ORIENTED_EDGE('',*,*,#434,.F.);
#555=ORIENTED_EDGE('',*,*,#442,.T.);
#556=ORIENTED_EDGE('',*,*,#439,.F.);
#557=ORIENTED_EDGE('',*,*,#443,.T.);
#558=ORIENTED_EDGE('',*,*,#438,.F.);
#559=ORIENTED_EDGE('',*,*,#444,.T.);
#560=ORIENTED_EDGE('',*,*,#445,.T.);
#561=ORIENTED_EDGE('',*,*,#446,.F.);
#562=ORIENTED_EDGE('',*,*,#435,.F.);
#563=ORIENTED_EDGE('',*,*,#447,.T.);
#564=ORIENTED_EDGE('',*,*,#448,.T.);
#565=ORIENTED_EDGE('',*,*,#444,.F.);
#566=ORIENTED_EDGE('',*,*,#449,.F.);
#567=ORIENTED_EDGE('',*,*,#450,.F.);
#568=ORIENTED_EDGE('',*,*,#451,.F.);
#569=ORIENTED_EDGE('',*,*,#452,.F.);
#570=ORIENTED_EDGE('',*,*,#433,.F.);
#571=ORIENTED_EDGE('',*,*,#437,.F.);
#572=ORIENTED_EDGE('',*,*,#440,.F.);
#573=ORIENTED_EDGE('',*,*,#442,.F.);
#574=ORIENTED_EDGE('',*,*,#453,.T.);
#575=ORIENTED_EDGE('',*,*,#454,.T.);
#576=ORIENTED_EDGE('',*,*,#455,.T.);
#577=ORIENTED_EDGE('',*,*,#456,.T.);
#578=ORIENTED_EDGE('',*,*,#449,.T.);
#579=ORIENTED_EDGE('',*,*,#457,.T.);
#580=ORIENTED_EDGE('',*,*,#456,.F.);
#581=ORIENTED_EDGE('',*,*,#458,.F.);
#582=ORIENTED_EDGE('',*,*,#459,.T.);
#583=ORIENTED_EDGE('',*,*,#460,.F.);
#584=ORIENTED_EDGE('',*,*,#461,.F.);
#585=ORIENTED_EDGE('',*,*,#450,.T.);
#586=ORIENTED_EDGE('',*,*,#455,.F.);
#587=ORIENTED_EDGE('',*,*,#462,.T.);
#588=ORIENTED_EDGE('',*,*,#463,.F.);
#589=ORIENTED_EDGE('',*,*,#464,.T.);
#590=ORIENTED_EDGE('',*,*,#458,.T.);
#591=ORIENTED_EDGE('',*,*,#465,.T.);
#592=ORIENTED_EDGE('',*,*,#466,.T.);
#593=ORIENTED_EDGE('',*,*,#467,.T.);
#594=ORIENTED_EDGE('',*,*,#468,.T.);
#595=ORIENTED_EDGE('',*,*,#469,.T.);
#596=ORIENTED_EDGE('',*,*,#470,.T.);
#597=ORIENTED_EDGE('',*,*,#471,.T.);
#598=ORIENTED_EDGE('',*,*,#472,.T.);
#599=ORIENTED_EDGE('',*,*,#466,.F.);
#600=ORIENTED_EDGE('',*,*,#473,.T.);
#601=ORIENTED_EDGE('',*,*,#468,.F.);
#602=ORIENTED_EDGE('',*,*,#474,.T.);
#603=ORIENTED_EDGE('',*,*,#475,.T.);
#604=ORIENTED_EDGE('',*,*,#476,.T.);
#605=ORIENTED_EDGE('',*,*,#475,.F.);
#606=ORIENTED_EDGE('',*,*,#477,.T.);
#607=ORIENTED_EDGE('',*,*,#478,.T.);
#608=ORIENTED_EDGE('',*,*,#479,.T.);
#609=ORIENTED_EDGE('',*,*,#478,.F.);
#610=ORIENTED_EDGE('',*,*,#480,.T.);
#611=ORIENTED_EDGE('',*,*,#481,.T.);
#612=ORIENTED_EDGE('',*,*,#482,.T.);
#613=ORIENTED_EDGE('',*,*,#481,.F.);
#614=ORIENTED_EDGE('',*,*,#483,.T.);
#615=ORIENTED_EDGE('',*,*,#463,.T.);
#616=ORIENTED_EDGE('',*,*,#482,.F.);
#617=ORIENTED_EDGE('',*,*,#484,.T.);
#618=ORIENTED_EDGE('',*,*,#485,.F.);
#619=ORIENTED_EDGE('',*,*,#486,.F.);
#620=ORIENTED_EDGE('',*,*,#454,.F.);
#621=ORIENTED_EDGE('',*,*,#487,.F.);
#622=ORIENTED_EDGE('',*,*,#484,.F.);
#623=ORIENTED_EDGE('',*,*,#462,.F.);
#624=ORIENTED_EDGE('',*,*,#464,.F.);
#625=ORIENTED_EDGE('',*,*,#483,.F.);
#626=ORIENTED_EDGE('',*,*,#480,.F.);
#627=ORIENTED_EDGE('',*,*,#477,.F.);
#628=ORIENTED_EDGE('',*,*,#474,.F.);
#629=ORIENTED_EDGE('',*,*,#467,.F.);
#630=ORIENTED_EDGE('',*,*,#472,.F.);
#631=ORIENTED_EDGE('',*,*,#488,.F.);
#632=ORIENTED_EDGE('',*,*,#459,.F.);
#633=ORIENTED_EDGE('',*,*,#453,.F.);
#634=ORIENTED_EDGE('',*,*,#489,.T.);
#635=ORIENTED_EDGE('',*,*,#490,.T.);
#636=ORIENTED_EDGE('',*,*,#491,.T.);
#637=ORIENTED_EDGE('',*,*,#487,.T.);
#638=ORIENTED_EDGE('',*,*,#492,.T.);
#639=ORIENTED_EDGE('',*,*,#493,.T.);
#640=ORIENTED_EDGE('',*,*,#485,.T.);
#641=ORIENTED_EDGE('',*,*,#491,.F.);
#642=ORIENTED_EDGE('',*,*,#494,.T.);
#643=ORIENTED_EDGE('',*,*,#495,.T.);
#644=ORIENTED_EDGE('',*,*,#496,.T.);
#645=ORIENTED_EDGE('',*,*,#493,.F.);
#646=ORIENTED_EDGE('',*,*,#497,.T.);
#647=ORIENTED_EDGE('',*,*,#498,.T.);
#648=ORIENTED_EDGE('',*,*,#499,.T.);
#649=ORIENTED_EDGE('',*,*,#495,.F.);
#650=ORIENTED_EDGE('',*,*,#500,.T.);
#651=ORIENTED_EDGE('',*,*,#501,.T.);
#652=ORIENTED_EDGE('',*,*,#502,.T.);
#653=ORIENTED_EDGE('',*,*,#498,.F.);
#654=ORIENTED_EDGE('',*,*,#503,.T.);
#655=ORIENTED_EDGE('',*,*,#504,.T.);
#656=ORIENTED_EDGE('',*,*,#505,.T.);
#657=ORIENTED_EDGE('',*,*,#501,.F.);
#658=ORIENTED_EDGE('',*,*,#506,.T.);
#659=ORIENTED_EDGE('',*,*,#507,.T.);
#660=ORIENTED_EDGE('',*,*,#508,.T.);
#661=ORIENTED_EDGE('',*,*,#509,.T.);
#662=ORIENTED_EDGE('',*,*,#504,.F.);
#663=ORIENTED_EDGE('',*,*,#457,.F.);
#664=ORIENTED_EDGE('',*,*,#452,.T.);
#665=ORIENTED_EDGE('',*,*,#510,.F.);
#666=ORIENTED_EDGE('',*,*,#511,.F.);
#667=ORIENTED_EDGE('',*,*,#512,.T.);
#668=ORIENTED_EDGE('',*,*,#489,.F.);
#669=ORIENTED_EDGE('',*,*,#479,.F.);
#670=ORIENTED_EDGE('',*,*,#486,.T.);
#671=ORIENTED_EDGE('',*,*,#496,.F.);
#672=ORIENTED_EDGE('',*,*,#513,.F.);
#673=ORIENTED_EDGE('',*,*,#476,.F.);
#674=ORIENTED_EDGE('',*,*,#513,.T.);
#675=ORIENTED_EDGE('',*,*,#499,.F.);
#676=ORIENTED_EDGE('',*,*,#514,.F.);
#677=ORIENTED_EDGE('',*,*,#515,.T.);
#678=ORIENTED_EDGE('',*,*,#516,.T.);
#679=ORIENTED_EDGE('',*,*,#517,.T.);
#680=ORIENTED_EDGE('',*,*,#518,.T.);
#681=ORIENTED_EDGE('',*,*,#473,.F.);
#682=ORIENTED_EDGE('',*,*,#514,.T.);
#683=ORIENTED_EDGE('',*,*,#502,.F.);
#684=ORIENTED_EDGE('',*,*,#519,.F.);
#685=ORIENTED_EDGE('',*,*,#465,.F.);
#686=ORIENTED_EDGE('',*,*,#519,.T.);
#687=ORIENTED_EDGE('',*,*,#505,.F.);
#688=ORIENTED_EDGE('',*,*,#520,.F.);
#689=ORIENTED_EDGE('',*,*,#469,.F.);
#690=ORIENTED_EDGE('',*,*,#520,.T.);
#691=ORIENTED_EDGE('',*,*,#509,.F.);
#692=ORIENTED_EDGE('',*,*,#521,.F.);
#693=ORIENTED_EDGE('',*,*,#470,.F.);
#694=ORIENTED_EDGE('',*,*,#521,.T.);
#695=ORIENTED_EDGE('',*,*,#508,.F.);
#696=ORIENTED_EDGE('',*,*,#522,.F.);
#697=ORIENTED_EDGE('',*,*,#523,.T.);
#698=ORIENTED_EDGE('',*,*,#524,.F.);
#699=ORIENTED_EDGE('',*,*,#471,.F.);
#700=ORIENTED_EDGE('',*,*,#524,.T.);
#701=ORIENTED_EDGE('',*,*,#525,.T.);
#702=ORIENTED_EDGE('',*,*,#526,.T.);
#703=ORIENTED_EDGE('',*,*,#460,.T.);
#704=ORIENTED_EDGE('',*,*,#488,.T.);
#705=ORIENTED_EDGE('',*,*,#526,.F.);
#706=ORIENTED_EDGE('',*,*,#527,.T.);
#707=ORIENTED_EDGE('',*,*,#528,.F.);
#708=ORIENTED_EDGE('',*,*,#510,.T.);
#709=ORIENTED_EDGE('',*,*,#451,.T.);
#710=ORIENTED_EDGE('',*,*,#461,.T.);
#711=ORIENTED_EDGE('',*,*,#525,.F.);
#712=ORIENTED_EDGE('',*,*,#523,.F.);
#713=ORIENTED_EDGE('',*,*,#529,.F.);
#714=ORIENTED_EDGE('',*,*,#527,.F.);
#715=ORIENTED_EDGE('',*,*,#507,.F.);
#716=ORIENTED_EDGE('',*,*,#530,.T.);
#717=ORIENTED_EDGE('',*,*,#511,.T.);
#718=ORIENTED_EDGE('',*,*,#528,.T.);
#719=ORIENTED_EDGE('',*,*,#529,.T.);
#720=ORIENTED_EDGE('',*,*,#522,.T.);
#721=ORIENTED_EDGE('',*,*,#490,.F.);
#722=ORIENTED_EDGE('',*,*,#512,.F.);
#723=ORIENTED_EDGE('',*,*,#530,.F.);
#724=ORIENTED_EDGE('',*,*,#506,.F.);
#725=ORIENTED_EDGE('',*,*,#503,.F.);
#726=ORIENTED_EDGE('',*,*,#500,.F.);
#727=ORIENTED_EDGE('',*,*,#497,.F.);
#728=ORIENTED_EDGE('',*,*,#494,.F.);
#729=ORIENTED_EDGE('',*,*,#492,.F.);
#730=ORIENTED_EDGE('',*,*,#443,.F.);
#731=ORIENTED_EDGE('',*,*,#531,.T.);
#732=ORIENTED_EDGE('',*,*,#532,.T.);
#733=ORIENTED_EDGE('',*,*,#447,.F.);
#734=ORIENTED_EDGE('',*,*,#441,.F.);
#735=ORIENTED_EDGE('',*,*,#446,.T.);
#736=ORIENTED_EDGE('',*,*,#533,.T.);
#737=ORIENTED_EDGE('',*,*,#531,.F.);
#738=ORIENTED_EDGE('',*,*,#448,.F.);
#739=ORIENTED_EDGE('',*,*,#532,.F.);
#740=ORIENTED_EDGE('',*,*,#533,.F.);
#741=ORIENTED_EDGE('',*,*,#445,.F.);
#742=ORIENTED_EDGE('',*,*,#534,.F.);
#743=ORIENTED_EDGE('',*,*,#535,.F.);
#744=ORIENTED_EDGE('',*,*,#536,.F.);
#745=ORIENTED_EDGE('',*,*,#537,.F.);
#746=ORIENTED_EDGE('',*,*,#536,.T.);
#747=ORIENTED_EDGE('',*,*,#538,.T.);
#748=ORIENTED_EDGE('',*,*,#515,.F.);
#749=ORIENTED_EDGE('',*,*,#539,.F.);
#750=ORIENTED_EDGE('',*,*,#535,.T.);
#751=ORIENTED_EDGE('',*,*,#540,.T.);
#752=ORIENTED_EDGE('',*,*,#516,.F.);
#753=ORIENTED_EDGE('',*,*,#538,.F.);
#754=ORIENTED_EDGE('',*,*,#534,.T.);
#755=ORIENTED_EDGE('',*,*,#541,.T.);
#756=ORIENTED_EDGE('',*,*,#517,.F.);
#757=ORIENTED_EDGE('',*,*,#540,.F.);
#758=ORIENTED_EDGE('',*,*,#537,.T.);
#759=ORIENTED_EDGE('',*,*,#539,.T.);
#760=ORIENTED_EDGE('',*,*,#518,.F.);
#761=ORIENTED_EDGE('',*,*,#541,.F.);
#762=CONICAL_SURFACE('',#831,0.136811023622047,0.785398163397446);
#763=CONICAL_SURFACE('',#835,0.136811023622047,0.785398163397445);
#764=ADVANCED_FACE('',(#61),#762,.F.);
#765=ADVANCED_FACE('',(#62),#22,.T.);
#766=ADVANCED_FACE('',(#63),#763,.F.);
#767=ADVANCED_FACE('',(#64),#23,.T.);
#768=ADVANCED_FACE('',(#65),#24,.F.);
#769=ADVANCED_FACE('',(#66),#18,.F.);
#770=ADVANCED_FACE('',(#67,#15),#25,.T.);
#771=ADVANCED_FACE('',(#68),#26,.T.);
#772=ADVANCED_FACE('',(#69),#27,.T.);
#773=ADVANCED_FACE('',(#70),#28,.T.);
#774=ADVANCED_FACE('',(#71),#29,.T.);
#775=ADVANCED_FACE('',(#72),#30,.T.);
#776=ADVANCED_FACE('',(#73),#31,.T.);
#777=ADVANCED_FACE('',(#74),#32,.T.);
#778=ADVANCED_FACE('',(#75),#33,.T.);
#779=ADVANCED_FACE('',(#76),#34,.T.);
#780=ADVANCED_FACE('',(#77),#35,.T.);
#781=ADVANCED_FACE('',(#78),#36,.T.);
#782=ADVANCED_FACE('',(#79),#37,.F.);
#783=ADVANCED_FACE('',(#80),#38,.T.);
#784=ADVANCED_FACE('',(#81),#39,.T.);
#785=ADVANCED_FACE('',(#82),#40,.T.);
#786=ADVANCED_FACE('',(#83),#41,.T.);
#787=ADVANCED_FACE('',(#84),#42,.T.);
#788=ADVANCED_FACE('',(#85),#43,.T.);
#789=ADVANCED_FACE('',(#86),#44,.T.);
#790=ADVANCED_FACE('',(#87),#45,.T.);
#791=ADVANCED_FACE('',(#88),#46,.T.);
#792=ADVANCED_FACE('',(#89,#16),#47,.T.);
#793=ADVANCED_FACE('',(#90),#48,.T.);
#794=ADVANCED_FACE('',(#91),#49,.T.);
#795=ADVANCED_FACE('',(#92),#50,.T.);
#796=ADVANCED_FACE('',(#93),#51,.T.);
#797=ADVANCED_FACE('',(#94),#52,.T.);
#798=ADVANCED_FACE('',(#95),#53,.T.);
#799=ADVANCED_FACE('',(#96),#54,.T.);
#800=ADVANCED_FACE('',(#97),#55,.T.);
#801=ADVANCED_FACE('',(#98),#56,.T.);
#802=ADVANCED_FACE('',(#99),#57,.F.);
#803=ADVANCED_FACE('',(#100),#19,.F.);
#804=ADVANCED_FACE('',(#101,#17),#58,.T.);
#805=ADVANCED_FACE('',(#102),#59,.F.);
#806=ADVANCED_FACE('',(#103),#20,.F.);
#807=ADVANCED_FACE('',(#104),#60,.F.);
#808=ADVANCED_FACE('',(#105),#21,.F.);
#809=CLOSED_SHELL('',(#764,#765,#766,#767,#768,#769,#770,#771,#772,#773,
#774,#775,#776,#777,#778,#779,#780,#781,#782,#783,#784,#785,#786,#787,#788,
#789,#790,#791,#792,#793,#794,#795,#796,#797,#798,#799,#800,#801,#802,#803,
#804,#805,#806,#807,#808));
#810=DERIVED_UNIT_ELEMENT(#812,1.);
#811=DERIVED_UNIT_ELEMENT(#1330,-3.);
#812=(
CONVERSION_BASED_UNIT('gram',#814)
MASS_UNIT()
NAMED_UNIT(#1327)
);
#813=(
MASS_UNIT()
NAMED_UNIT(*)
SI_UNIT(.KILO.,.GRAM.)
);
#814=MASS_MEASURE_WITH_UNIT(MASS_MEASURE(0.001),#813);
#815=DERIVED_UNIT((#810,#811));
#816=MEASURE_REPRESENTATION_ITEM('density measure',
POSITIVE_RATIO_MEASURE(1.),#815);
#817=PROPERTY_DEFINITION_REPRESENTATION(#822,#819);
#818=PROPERTY_DEFINITION_REPRESENTATION(#823,#820);
#819=REPRESENTATION('material name',(#821),#1324);
#820=REPRESENTATION('density',(#816),#1324);
#821=DESCRIPTIVE_REPRESENTATION_ITEM('Generic','Generic');
#822=PROPERTY_DEFINITION('material property','material name',#1338);
#823=PROPERTY_DEFINITION('material property','density of part',#1338);
#824=DATE_TIME_ROLE('creation_date');
#825=APPLIED_DATE_AND_TIME_ASSIGNMENT(#826,#824,(#1338));
#826=DATE_AND_TIME(#827,#828);
#827=CALENDAR_DATE(2026,19,7);
#828=LOCAL_TIME(0,0,0.,#829);
#829=COORDINATED_UNIVERSAL_TIME_OFFSET(0,0,.BEHIND.);
#830=AXIS2_PLACEMENT_3D('',#1098,#886,#887);
#831=AXIS2_PLACEMENT_3D('',#1099,#888,#889);
#832=AXIS2_PLACEMENT_3D('',#1104,#891,#892);
#833=AXIS2_PLACEMENT_3D('',#1107,#894,#895);
#834=AXIS2_PLACEMENT_3D('',#1108,#896,#897);
#835=AXIS2_PLACEMENT_3D('',#1114,#901,#902);
#836=AXIS2_PLACEMENT_3D('',#1118,#904,#905);
#837=AXIS2_PLACEMENT_3D('',#1119,#906,#907);
#838=AXIS2_PLACEMENT_3D('',#1120,#908,#909);
#839=AXIS2_PLACEMENT_3D('',#1123,#912,#913);
#840=AXIS2_PLACEMENT_3D('',#1129,#917,#918);
#841=AXIS2_PLACEMENT_3D('',#1132,#920,#921);
#842=AXIS2_PLACEMENT_3D('',#1133,#922,#923);
#843=AXIS2_PLACEMENT_3D('',#1142,#928,#929);
#844=AXIS2_PLACEMENT_3D('',#1152,#935,#936);
#845=AXIS2_PLACEMENT_3D('',#1160,#941,#942);
#846=AXIS2_PLACEMENT_3D('',#1166,#946,#947);
#847=AXIS2_PLACEMENT_3D('',#1175,#952,#953);
#848=AXIS2_PLACEMENT_3D('',#1183,#958,#959);
#849=AXIS2_PLACEMENT_3D('',#1189,#963,#964);
#850=AXIS2_PLACEMENT_3D('',#1195,#968,#969);
#851=AXIS2_PLACEMENT_3D('',#1201,#973,#974);
#852=AXIS2_PLACEMENT_3D('',#1204,#977,#978);
#853=AXIS2_PLACEMENT_3D('',#1210,#982,#983);
#854=AXIS2_PLACEMENT_3D('',#1212,#985,#986);
#855=AXIS2_PLACEMENT_3D('',#1214,#988,#989);
#856=AXIS2_PLACEMENT_3D('',#1220,#993,#994);
#857=AXIS2_PLACEMENT_3D('',#1224,#997,#998);
#858=AXIS2_PLACEMENT_3D('',#1230,#1002,#1003);
#859=AXIS2_PLACEMENT_3D('',#1236,#1007,#1008);
#860=AXIS2_PLACEMENT_3D('',#1242,#1012,#1013);
#861=AXIS2_PLACEMENT_3D('',#1248,#1017,#1018);
#862=AXIS2_PLACEMENT_3D('',#1256,#1023,#1024);
#863=AXIS2_PLACEMENT_3D('',#1262,#1028,#1029);
#864=AXIS2_PLACEMENT_3D('',#1264,#1031,#1032);
#865=AXIS2_PLACEMENT_3D('',#1270,#1035,#1036);
#866=AXIS2_PLACEMENT_3D('',#1273,#1038,#1039);
#867=AXIS2_PLACEMENT_3D('',#1274,#1040,#1041);
#868=AXIS2_PLACEMENT_3D('',#1276,#1043,#1044);
#869=AXIS2_PLACEMENT_3D('',#1278,#1046,#1047);
#870=AXIS2_PLACEMENT_3D('',#1280,#1049,#1050);
#871=AXIS2_PLACEMENT_3D('',#1286,#1054,#1055);
#872=AXIS2_PLACEMENT_3D('',#1290,#1058,#1059);
#873=AXIS2_PLACEMENT_3D('',#1294,#1062,#1063);
#874=AXIS2_PLACEMENT_3D('',#1296,#1065,#1066);
#875=AXIS2_PLACEMENT_3D('',#1298,#1068,#1069);
#876=AXIS2_PLACEMENT_3D('',#1299,#1070,#1071);
#877=AXIS2_PLACEMENT_3D('',#1303,#1074,#1075);
#878=AXIS2_PLACEMENT_3D('',#1304,#1076,#1077);
#879=AXIS2_PLACEMENT_3D('',#1305,#1078,#1079);
#880=AXIS2_PLACEMENT_3D('',#1310,#1081,#1082);
#881=AXIS2_PLACEMENT_3D('',#1313,#1084,#1085);
#882=AXIS2_PLACEMENT_3D('',#1314,#1086,#1087);
#883=AXIS2_PLACEMENT_3D('',#1317,#1090,#1091);
#884=AXIS2_PLACEMENT_3D('',#1319,#1093,#1094);
#885=AXIS2_PLACEMENT_3D('',#1321,#1096,#1097);
#886=DIRECTION('axis',(0.,0.,1.));
#887=DIRECTION('refdir',(1.,0.,0.));
#888=DIRECTION('center_axis',(0.,1.,0.));
#889=DIRECTION('ref_axis',(0.,0.,1.));
#890=DIRECTION('',(0.,0.707106781186551,0.707106781186544));
#891=DIRECTION('center_axis',(-3.91843420455938E-16,1.,0.));
#892=DIRECTION('ref_axis',(0.,0.,1.));
#893=DIRECTION('',(0.,-0.70710678118655,0.707106781186545));
#894=DIRECTION('center_axis',(3.91843420455938E-16,-1.,0.));
#895=DIRECTION('ref_axis',(0.,0.,1.));
#896=DIRECTION('center_axis',(-2.77075139767725E-16,0.707106781186547,-0.707106781186548));
#897=DIRECTION('ref_axis',(-1.,0.,3.91843420455937E-16));
#898=DIRECTION('',(0.,0.707106781186548,0.707106781186547));
#899=DIRECTION('',(1.,3.91843420455938E-16,0.));
#900=DIRECTION('',(-1.,-3.91843420455938E-16,0.));
#901=DIRECTION('center_axis',(0.,1.,0.));
#902=DIRECTION('ref_axis',(0.,0.,-1.));
#903=DIRECTION('',(-1.30841038223648E-15,0.707106781186551,-0.707106781186544));
#904=DIRECTION('center_axis',(-3.91843420455938E-16,1.,0.));
#905=DIRECTION('ref_axis',(0.,0.,-1.));
#906=DIRECTION('center_axis',(3.91843420455938E-16,-1.,0.));
#907=DIRECTION('ref_axis',(0.,0.,-1.));
#908=DIRECTION('center_axis',(-2.77075139767725E-16,0.707106781186548,0.707106781186548));
#909=DIRECTION('ref_axis',(1.,0.,3.91843420455938E-16));
#910=DIRECTION('',(-1.,-3.91843420455938E-16,0.));
#911=DIRECTION('',(1.,3.91843420455938E-16,0.));
#912=DIRECTION('center_axis',(0.,0.,1.));
#913=DIRECTION('ref_axis',(-1.,-3.91843420455938E-16,0.));
#914=DIRECTION('',(7.40148683083438E-16,-1.,0.));
#915=DIRECTION('',(-1.,-3.91843420455938E-16,0.));
#916=DIRECTION('',(7.40148683083438E-16,-1.,0.));
#917=DIRECTION('center_axis',(7.40148683083438E-16,-1.,0.));
#918=DIRECTION('ref_axis',(0.,0.,1.));
#919=DIRECTION('',(7.40148683083438E-16,-1.,0.));
#920=DIRECTION('center_axis',(3.91843420455938E-16,-1.,0.));
#921=DIRECTION('ref_axis',(0.,0.,1.));
#922=DIRECTION('center_axis',(-3.91843420455938E-16,1.,0.));
#923=DIRECTION('ref_axis',(-1.,-3.91843420455938E-16,0.));
#924=DIRECTION('',(0.,0.,1.));
#925=DIRECTION('',(1.,3.91843420455938E-16,0.));
#926=DIRECTION('',(0.,0.,-1.));
#927=DIRECTION('',(-1.,-3.91843420455938E-16,0.));
#928=DIRECTION('center_axis',(0.707106781186548,0.707106781186548,0.));
#929=DIRECTION('ref_axis',(0.,0.,-1.));
#930=DIRECTION('',(0.577350269189626,-0.577350269189626,-0.577350269189625));
#931=DIRECTION('',(0.,0.,-1.));
#932=DIRECTION('',(-0.577350269189626,0.577350269189626,-0.577350269189625));
#933=DIRECTION('',(-0.577350269189626,0.577350269189626,0.577350269189626));
#934=DIRECTION('',(0.577350269189625,-0.577350269189625,0.577350269189627));
#935=DIRECTION('center_axis',(-2.77075139767725E-16,0.707106781186548,-0.707106781186547));
#936=DIRECTION('ref_axis',(-1.,0.,3.91843420455938E-16));
#937=DIRECTION('',(0.577350269189626,0.577350269189626,0.577350269189626));
#938=DIRECTION('',(-1.,-3.91843420455938E-16,0.));
#939=DIRECTION('',(0.577350269189626,-0.577350269189625,-0.577350269189626));
#940=DIRECTION('',(-0.577350269189625,-0.577350269189626,-0.577350269189626));
#941=DIRECTION('center_axis',(0.707106781186547,7.85046229341888E-16,-0.707106781186548));
#942=DIRECTION('ref_axis',(-0.707106781186548,0.,-0.707106781186547));
#943=DIRECTION('',(1.11022302462516E-15,-1.,0.));
#944=DIRECTION('',(0.678598344545848,-0.281084637714819,0.678598344545847));
#945=DIRECTION('',(-1.11022302462516E-15,1.,0.));
#946=DIRECTION('center_axis',(0.707106781186547,1.96261557335472E-16,-0.707106781186548));
#947=DIRECTION('ref_axis',(-0.707106781186548,0.,-0.707106781186547));
#948=DIRECTION('',(2.77555756156289E-16,-1.,0.));
#949=DIRECTION('',(-0.577350269189626,0.577350269189626,-0.577350269189626));
#950=DIRECTION('',(-2.77555756156289E-16,1.,0.));
#951=DIRECTION('',(0.678598344545847,-0.28108463771482,0.678598344545846));
#952=DIRECTION('center_axis',(0.,-0.707106781186547,-0.707106781186548));
#953=DIRECTION('ref_axis',(-1.,0.,0.));
#954=DIRECTION('',(-1.,0.,0.));
#955=DIRECTION('',(-0.577350269189626,0.577350269189626,-0.577350269189625));
#956=DIRECTION('',(0.577350269189625,0.577350269189626,-0.577350269189626));
#957=DIRECTION('',(1.,0.,0.));
#958=DIRECTION('center_axis',(0.5,-0.5,-0.707106781186548));
#959=DIRECTION('ref_axis',(-0.816496580927726,0.,-0.577350269189625));
#960=DIRECTION('',(-0.707106781186547,-0.707106781186548,0.));
#961=DIRECTION('',(0.707106781186547,0.707106781186548,0.));
#962=DIRECTION('',(0.281084637714822,-0.678598344545846,0.678598344545847));
#963=DIRECTION('center_axis',(0.,-0.707106781186548,-0.707106781186547));
#964=DIRECTION('ref_axis',(-1.,0.,0.));
#965=DIRECTION('',(-1.,0.,0.));
#966=DIRECTION('',(1.,0.,0.));
#967=DIRECTION('',(0.577350269189626,-0.577350269189625,0.577350269189626));
#968=DIRECTION('center_axis',(0.707106781186547,0.,-0.707106781186548));
#969=DIRECTION('ref_axis',(-0.707106781186548,0.,-0.707106781186547));
#970=DIRECTION('',(0.,-1.,0.));
#971=DIRECTION('',(0.,1.,0.));
#972=DIRECTION('',(0.678598344545848,-0.281084637714819,0.678598344545847));
#973=DIRECTION('center_axis',(0.5,-0.5,-0.707106781186547));
#974=DIRECTION('ref_axis',(-0.816496580927726,0.,-0.577350269189626));
#975=DIRECTION('',(-0.707106781186548,-0.707106781186548,0.));
#976=DIRECTION('',(0.707106781186548,0.707106781186548,0.));
#977=DIRECTION('center_axis',(0.707106781186548,-0.707106781186548,0.));
#978=DIRECTION('ref_axis',(0.707106781186548,0.707106781186548,0.));
#979=DIRECTION('',(0.,0.,1.));
#980=DIRECTION('',(0.707106781186548,0.707106781186548,0.));
#981=DIRECTION('',(0.,0.,1.));
#982=DIRECTION('center_axis',(1.,1.11022302462516E-15,0.));
#983=DIRECTION('ref_axis',(-1.11022302462516E-15,1.,0.));
#984=DIRECTION('',(-1.11022302462516E-15,1.,0.));
#985=DIRECTION('center_axis',(0.,0.,1.));
#986=DIRECTION('ref_axis',(1.,0.,0.));
#987=DIRECTION('',(3.33066907387547E-16,-1.,0.));
#988=DIRECTION('center_axis',(0.707106781186548,7.85046229341889E-16,0.707106781186548));
#989=DIRECTION('ref_axis',(0.707106781186548,0.,-0.707106781186548));
#990=DIRECTION('',(-0.577350269189626,-0.577350269189625,0.577350269189627));
#991=DIRECTION('',(1.11022302462516E-15,-1.,0.));
#992=DIRECTION('',(0.678598344545847,-0.281084637714819,-0.678598344545847));
#993=DIRECTION('center_axis',(0.5,-0.5,0.707106781186547));
#994=DIRECTION('ref_axis',(0.816496580927725,0.,-0.577350269189627));
#995=DIRECTION('',(-0.707106781186548,-0.707106781186548,0.));
#996=DIRECTION('',(0.678598344545848,-0.281084637714818,-0.678598344545848));
#997=DIRECTION('center_axis',(0.707106781186548,0.,0.707106781186548));
#998=DIRECTION('ref_axis',(0.707106781186548,0.,-0.707106781186548));
#999=DIRECTION('',(0.,-1.,0.));
#1000=DIRECTION('',(0.577350269189626,-0.577350269189625,-0.577350269189626));
#1001=DIRECTION('',(0.,1.,0.));
#1002=DIRECTION('center_axis',(0.,-0.707106781186548,0.707106781186547));
#1003=DIRECTION('ref_axis',(1.,0.,0.));
#1004=DIRECTION('',(-1.,0.,0.));
#1005=DIRECTION('',(0.281084637714821,-0.678598344545847,-0.678598344545847));
#1006=DIRECTION('',(1.,0.,0.));
#1007=DIRECTION('center_axis',(0.5,-0.5,0.707106781186547));
#1008=DIRECTION('ref_axis',(0.816496580927726,0.,-0.577350269189626));
#1009=DIRECTION('',(-0.707106781186547,-0.707106781186548,0.));
#1010=DIRECTION('',(0.678598344545847,-0.28108463771482,-0.678598344545847));
#1011=DIRECTION('',(0.707106781186547,0.707106781186548,0.));
#1012=DIRECTION('center_axis',(0.707106781186548,1.96261557335472E-16,0.707106781186547));
#1013=DIRECTION('ref_axis',(0.707106781186547,0.,-0.707106781186548));
#1014=DIRECTION('',(2.77555756156289E-16,-1.,0.));
#1015=DIRECTION('',(0.577350269189626,-0.577350269189626,-0.577350269189626));
#1016=DIRECTION('',(-2.77555756156289E-16,1.,0.));
#1017=DIRECTION('center_axis',(0.,-0.707106781186548,0.707106781186547));
#1018=DIRECTION('ref_axis',(1.,0.,0.));
#1019=DIRECTION('',(-1.,0.,0.));
#1020=DIRECTION('',(-0.577350269189625,-0.577350269189626,-0.577350269189626));
#1021=DIRECTION('',(0.577350269189626,-0.577350269189625,-0.577350269189626));
#1022=DIRECTION('',(1.,0.,0.));
#1023=DIRECTION('center_axis',(-2.77075139767725E-16,0.707106781186549,
0.707106781186546));
#1024=DIRECTION('ref_axis',(1.,0.,3.91843420455939E-16));
#1025=DIRECTION('',(0.577350269189625,0.577350269189625,-0.577350269189627));
#1026=DIRECTION('',(-0.577350269189626,0.577350269189625,-0.577350269189627));
#1027=DIRECTION('',(1.,3.91843420455938E-16,0.));
#1028=DIRECTION('center_axis',(1.,0.,0.));
#1029=DIRECTION('ref_axis',(0.,1.,0.));
#1030=DIRECTION('',(0.,0.,1.));
#1031=DIRECTION('center_axis',(0.,-1.,0.));
#1032=DIRECTION('ref_axis',(1.,0.,0.));
#1033=DIRECTION('',(0.,0.,1.));
#1034=DIRECTION('',(-1.,0.,1.11022302462516E-15));
#1035=DIRECTION('center_axis',(0.,1.,0.));
#1036=DIRECTION('ref_axis',(-6.93889390390723E-16,-3.08148791101958E-31,
-1.));
#1037=DIRECTION('',(1.,0.,-1.11022302462516E-15));
#1038=DIRECTION('center_axis',(0.,1.,0.));
#1039=DIRECTION('ref_axis',(0.,0.,1.));
#1040=DIRECTION('center_axis',(0.707106781186548,-0.707106781186547,0.));
#1041=DIRECTION('ref_axis',(0.707106781186547,0.707106781186548,0.));
#1042=DIRECTION('',(0.,0.,1.));
#1043=DIRECTION('center_axis',(1.,2.77555756156289E-16,0.));
#1044=DIRECTION('ref_axis',(-2.77555756156289E-16,1.,0.));
#1045=DIRECTION('',(0.,0.,1.));
#1046=DIRECTION('center_axis',(0.,-1.,0.));
#1047=DIRECTION('ref_axis',(1.,0.,0.));
#1048=DIRECTION('',(0.,0.,1.));
#1049=DIRECTION('center_axis',(-0.707106781186547,-0.707106781186548,0.));
#1050=DIRECTION('ref_axis',(0.,0.,1.));
#1051=DIRECTION('',(0.577350269189626,-0.577350269189625,0.577350269189626));
#1052=DIRECTION('',(0.,0.,-1.));
#1053=DIRECTION('',(-0.577350269189626,0.577350269189625,0.577350269189626));
#1054=DIRECTION('center_axis',(-0.707106781186548,-2.35513868802567E-16,
-0.707106781186547));
#1055=DIRECTION('ref_axis',(-0.707106781186547,0.,0.707106781186548));
#1056=DIRECTION('',(-3.33066907387547E-16,1.,0.));
#1057=DIRECTION('',(0.577350269189625,0.577350269189626,-0.577350269189626));
#1058=DIRECTION('center_axis',(-0.707106781186548,0.707106781186547,0.));
#1059=DIRECTION('ref_axis',(0.,0.,1.));
#1060=DIRECTION('',(0.,0.,1.));
#1061=DIRECTION('',(-0.577350269189625,-0.577350269189626,-0.577350269189626));
#1062=DIRECTION('center_axis',(-1.,-3.33066907387547E-16,0.));
#1063=DIRECTION('ref_axis',(3.33066907387547E-16,-1.,0.));
#1064=DIRECTION('',(3.33066907387547E-16,-1.,0.));
#1065=DIRECTION('center_axis',(-0.707106781186548,-2.35513868802567E-16,
0.707106781186547));
#1066=DIRECTION('ref_axis',(0.707106781186547,0.,0.707106781186548));
#1067=DIRECTION('',(-3.33066907387547E-16,1.,0.));
#1068=DIRECTION('center_axis',(0.,0.,1.));
#1069=DIRECTION('ref_axis',(1.,0.,0.));
#1070=DIRECTION('center_axis',(0.,0.,-1.));
#1071=DIRECTION('ref_axis',(1.,3.91843420455938E-16,0.));
#1072=DIRECTION('',(7.40148683083438E-16,-1.,0.));
#1073=DIRECTION('',(1.,3.91843420455938E-16,0.));
#1074=DIRECTION('center_axis',(7.40148683083438E-16,-1.,0.));
#1075=DIRECTION('ref_axis',(0.,0.,-1.));
#1076=DIRECTION('center_axis',(3.91843420455938E-16,-1.,0.));
#1077=DIRECTION('ref_axis',(0.,0.,-1.));
#1078=DIRECTION('center_axis',(-3.91843420455938E-16,1.,0.));
#1079=DIRECTION('ref_axis',(0.,0.,1.));
#1080=DIRECTION('',(1.,3.91843420455938E-16,-1.11022302462516E-15));
#1081=DIRECTION('center_axis',(-3.91843420455938E-16,1.,0.));
#1082=DIRECTION('ref_axis',(-6.93889390390723E-16,-3.08148791101958E-31,
-1.));
#1083=DIRECTION('',(-1.,-3.91843420455938E-16,1.11022302462516E-15));
#1084=DIRECTION('center_axis',(-3.91843420455938E-16,1.,0.));
#1085=DIRECTION('ref_axis',(0.,0.,1.));
#1086=DIRECTION('center_axis',(-1.11022302462516E-15,-4.93038065763132E-31,
-1.));
#1087=DIRECTION('ref_axis',(1.,3.91843420455938E-16,-1.11022302462516E-15));
#1088=DIRECTION('',(4.44089209850063E-16,-1.,0.));
#1089=DIRECTION('',(4.44089209850063E-16,-1.,0.));
#1090=DIRECTION('center_axis',(4.44089209850063E-16,-1.,0.));
#1091=DIRECTION('ref_axis',(-6.93889390390723E-16,-3.08148791101958E-31,
-1.));
#1092=DIRECTION('',(4.44089209850063E-16,-1.,0.));
#1093=DIRECTION('center_axis',(1.11022302462516E-15,4.93038065763133E-31,
1.));
#1094=DIRECTION('ref_axis',(-1.,-3.91843420455938E-16,1.11022302462516E-15));
#1095=DIRECTION('',(4.44089209850063E-16,-1.,0.));
#1096=DIRECTION('center_axis',(4.44089209850063E-16,-1.,0.));
#1097=DIRECTION('ref_axis',(0.,0.,1.));
#1098=CARTESIAN_POINT('',(0.,0.,0.));
#1099=CARTESIAN_POINT('Origin',(0.433070866141732,0.381889763779527,0.393700787401575));
#1100=CARTESIAN_POINT('',(0.433070866141732,0.37007874015748,0.518700787401575));
#1101=CARTESIAN_POINT('',(0.433070866141732,0.393700787401575,0.542322834645669));
#1102=CARTESIAN_POINT('',(0.433070866141732,0.37007874015748,0.518700787401575));
#1103=CARTESIAN_POINT('',(0.433070866141732,0.393700787401575,0.24507874015748));
#1104=CARTESIAN_POINT('Origin',(0.433070866141732,0.393700787401575,0.393700787401575));
#1105=CARTESIAN_POINT('',(0.433070866141732,0.37007874015748,0.268700787401575));
#1106=CARTESIAN_POINT('',(0.433070866141732,0.393700787401575,0.24507874015748));
#1107=CARTESIAN_POINT('Origin',(0.433070866141732,0.37007874015748,0.393700787401575));
#1108=CARTESIAN_POINT('Origin',(0.551181102362205,0.381889763779527,0.530511811023622));
#1109=CARTESIAN_POINT('',(0.354330708661417,0.37007874015748,0.518700787401575));
#1110=CARTESIAN_POINT('',(0.354330708661417,0.393700787401575,0.542322834645669));
#1111=CARTESIAN_POINT('',(0.354330708661417,0.37007874015748,0.518700787401575));
#1112=CARTESIAN_POINT('',(0.551181102362205,0.393700787401575,0.542322834645669));
#1113=CARTESIAN_POINT('',(0.551181102362205,0.37007874015748,0.518700787401575));
#1114=CARTESIAN_POINT('Origin',(0.354330708661417,0.381889763779527,0.393700787401575));
#1115=CARTESIAN_POINT('',(0.354330708661417,0.37007874015748,0.268700787401575));
#1116=CARTESIAN_POINT('',(0.354330708661417,0.393700787401575,0.24507874015748));
#1117=CARTESIAN_POINT('',(0.354330708661417,0.37007874015748,0.268700787401575));
#1118=CARTESIAN_POINT('Origin',(0.354330708661417,0.393700787401575,0.393700787401575));
#1119=CARTESIAN_POINT('Origin',(0.354330708661417,0.37007874015748,0.393700787401575));
#1120=CARTESIAN_POINT('Origin',(0.511811023622047,0.381889763779527,0.256889763779527));
#1121=CARTESIAN_POINT('',(0.511811023622047,0.393700787401575,0.24507874015748));
#1122=CARTESIAN_POINT('',(0.511811023622047,0.37007874015748,0.268700787401575));
#1123=CARTESIAN_POINT('Origin',(0.433070866141732,0.393700787401575,0.518700787401575));
#1124=CARTESIAN_POINT('',(0.433070866141732,0.275590551181102,0.518700787401575));
#1125=CARTESIAN_POINT('',(0.433070866141732,0.393700787401575,0.518700787401575));
#1126=CARTESIAN_POINT('',(0.354330708661417,0.275590551181102,0.518700787401575));
#1127=CARTESIAN_POINT('',(0.354330708661417,0.275590551181102,0.518700787401575));
#1128=CARTESIAN_POINT('',(0.354330708661417,0.393700787401575,0.518700787401575));
#1129=CARTESIAN_POINT('Origin',(0.433070866141732,0.393700787401575,0.393700787401575));
#1130=CARTESIAN_POINT('',(0.433070866141732,0.275590551181102,0.268700787401575));
#1131=CARTESIAN_POINT('',(0.433070866141732,0.393700787401575,0.268700787401575));
#1132=CARTESIAN_POINT('Origin',(0.433070866141732,0.275590551181102,0.393700787401575));
#1133=CARTESIAN_POINT('Origin',(0.669291338582677,0.393700787401575,0.));
#1134=CARTESIAN_POINT('',(0.645669291338583,0.393700787401575,0.0236220472440945));
#1135=CARTESIAN_POINT('',(0.645669291338583,0.393700787401575,0.763779527559055));
#1136=CARTESIAN_POINT('',(0.645669291338583,0.393700787401575,0.));
#1137=CARTESIAN_POINT('',(0.0236220472440943,0.393700787401574,0.0236220472440945));
#1138=CARTESIAN_POINT('',(0.501968503937008,0.393700787401575,0.0236220472440945));
#1139=CARTESIAN_POINT('',(0.0236220472440943,0.393700787401574,0.763779527559055));
#1140=CARTESIAN_POINT('',(0.0236220472440944,0.393700787401574,0.));
#1141=CARTESIAN_POINT('',(0.501968503937008,0.393700787401575,0.763779527559055));
#1142=CARTESIAN_POINT('Origin',(0.65748031496063,0.381889763779527,0.));
#1143=CARTESIAN_POINT('',(0.65748031496063,0.381889763779527,0.775590551181102));
#1144=CARTESIAN_POINT('',(0.669291338582677,0.37007874015748,0.763779527559055));
#1145=CARTESIAN_POINT('',(0.807742782152231,0.231627296587927,0.625328083989501));
#1146=CARTESIAN_POINT('',(0.669291338582677,0.37007874015748,0.0236220472440945));
#1147=CARTESIAN_POINT('',(0.669291338582677,0.37007874015748,0.));
#1148=CARTESIAN_POINT('',(0.65748031496063,0.381889763779527,0.0118110236220472));
#1149=CARTESIAN_POINT('',(0.676509186351706,0.362860892388451,0.0308398950131233));
#1150=CARTESIAN_POINT('',(0.633530183727034,0.405839895013123,0.035761154855643));
#1151=CARTESIAN_POINT('',(0.502296587926509,0.537073490813648,0.620406824146981));
#1152=CARTESIAN_POINT('Origin',(0.501968503937008,0.381889763779527,0.0118110236220472));
#1153=CARTESIAN_POINT('',(0.645669291338583,0.37007874015748,0.));
#1154=CARTESIAN_POINT('',(0.610564304461942,0.33497375328084,-0.0351049868766404));
#1155=CARTESIAN_POINT('',(0.0236220472440943,0.37007874015748,0.));
#1156=CARTESIAN_POINT('',(0.501968503937008,0.37007874015748,0.));
#1157=CARTESIAN_POINT('',(0.0118110236220471,0.381889763779527,0.0118110236220473));
#1158=CARTESIAN_POINT('',(0.107939632545932,0.285761154855643,-0.0843175853018373));
#1159=CARTESIAN_POINT('',(0.091535433070866,0.461614173228346,0.0915354330708662));
#1160=CARTESIAN_POINT('Origin',(0.65748031496063,0.255905511811024,0.0118110236220472));
#1161=CARTESIAN_POINT('',(0.669291338582677,0.31496062992126,0.0236220472440945));
#1162=CARTESIAN_POINT('',(0.669291338582677,0.255905511811024,0.0236220472440945));
#1163=CARTESIAN_POINT('',(0.645669291338583,0.324745202260782,0.));
#1164=CARTESIAN_POINT('',(0.645669291338583,0.324745202260782,0.));
#1165=CARTESIAN_POINT('',(0.645669291338583,0.255905511811024,0.));
#1166=CARTESIAN_POINT('Origin',(0.106299212598425,0.0984251968503937,0.0118110236220472));
#1167=CARTESIAN_POINT('',(0.118110236220472,0.078740157480315,0.0236220472440945));
#1168=CARTESIAN_POINT('',(0.118110236220472,0.,0.0236220472440945));
#1169=CARTESIAN_POINT('',(0.118110236220472,0.0984251968503937,0.0236220472440945));
#1170=CARTESIAN_POINT('',(0.0944881889763779,0.0236220472440945,0.));
#1171=CARTESIAN_POINT('',(0.118110236220472,0.,0.0236220472440945));
#1172=CARTESIAN_POINT('',(0.0944881889763779,0.0885247298198369,0.));
#1173=CARTESIAN_POINT('',(0.0944881889763779,0.0984251968503937,0.));
#1174=CARTESIAN_POINT('',(0.0944881889763779,0.0885247298198369,0.));
#1175=CARTESIAN_POINT('Origin',(0.167322834645669,0.0118110236220472,0.0118110236220472));
#1176=CARTESIAN_POINT('',(0.0236220472440945,0.,0.0236220472440945));
#1177=CARTESIAN_POINT('',(0.167322834645669,0.,0.0236220472440945));
#1178=CARTESIAN_POINT('',(0.0118110236220472,0.0118110236220472,0.0118110236220473));
#1179=CARTESIAN_POINT('',(0.0357611548556431,-0.0121391076115486,0.035761154855643));
#1180=CARTESIAN_POINT('',(0.0236220472440944,0.0236220472440945,0.));
#1181=CARTESIAN_POINT('',(0.0849737532808397,0.0849737532808399,-0.0613517060367454));
#1182=CARTESIAN_POINT('',(0.167322834645669,0.0236220472440945,0.));
#1183=CARTESIAN_POINT('Origin',(0.193419998647403,0.170753229699054,0.0118110236220472));
#1184=CARTESIAN_POINT('',(0.196850393700787,0.15748031496063,0.0236220472440945));
#1185=CARTESIAN_POINT('',(0.201771653543307,0.16240157480315,0.0236220472440945));
#1186=CARTESIAN_POINT('',(0.187065821361265,0.181102362204724,0.));
#1187=CARTESIAN_POINT('',(0.185068343751499,0.179104884594958,0.));
#1188=CARTESIAN_POINT('',(0.187065821361265,0.181102362204724,0.));
#1189=CARTESIAN_POINT('Origin',(0.265748031496063,0.169291338582677,0.0118110236220472));
#1190=CARTESIAN_POINT('',(0.590551181102362,0.15748031496063,0.0236220472440945));
#1191=CARTESIAN_POINT('',(0.265748031496063,0.15748031496063,0.0236220472440945));
#1192=CARTESIAN_POINT('',(0.566929133858268,0.181102362204724,0.));
#1193=CARTESIAN_POINT('',(0.265748031496063,0.181102362204724,0.));
#1194=CARTESIAN_POINT('',(0.566929133858268,0.181102362204724,0.));
#1195=CARTESIAN_POINT('Origin',(0.578740157480315,0.177165354330709,0.0118110236220472));
#1196=CARTESIAN_POINT('',(0.590551181102362,0.236220472440945,0.0236220472440945));
#1197=CARTESIAN_POINT('',(0.590551181102362,0.177165354330709,0.0236220472440945));
#1198=CARTESIAN_POINT('',(0.566929133858268,0.246005044780467,0.));
#1199=CARTESIAN_POINT('',(0.566929133858268,0.177165354330709,0.));
#1200=CARTESIAN_POINT('',(0.566929133858268,0.246005044780467,0.));
#1201=CARTESIAN_POINT('Origin',(0.508380628568663,0.170753229699054,0.0118110236220472));
#1202=CARTESIAN_POINT('',(0.516732283464567,0.16240157480315,0.0236220472440945));
#1203=CARTESIAN_POINT('',(0.500028973672759,0.179104884594958,0.));
#1204=CARTESIAN_POINT('Origin',(0.590551181102362,0.236220472440945,0.));
#1205=CARTESIAN_POINT('',(0.669291338582677,0.31496062992126,0.763779527559055));
#1206=CARTESIAN_POINT('',(0.669291338582677,0.31496062992126,0.));
#1207=CARTESIAN_POINT('',(0.590551181102362,0.236220472440945,0.763779527559055));
#1208=CARTESIAN_POINT('',(0.516732283464567,0.16240157480315,0.763779527559055));
#1209=CARTESIAN_POINT('',(0.590551181102362,0.236220472440945,0.));
#1210=CARTESIAN_POINT('Origin',(0.669291338582677,0.31496062992126,0.));
#1211=CARTESIAN_POINT('',(0.669291338582677,0.255905511811024,0.763779527559055));
#1212=CARTESIAN_POINT('Origin',(0.334645669291338,0.196850393700787,0.));
#1213=CARTESIAN_POINT('',(0.0236220472440944,0.295275590551181,0.));
#1214=CARTESIAN_POINT('Origin',(0.65748031496063,0.255905511811024,0.775590551181102));
#1215=CARTESIAN_POINT('',(0.645669291338583,0.37007874015748,0.78740157480315));
#1216=CARTESIAN_POINT('',(0.610564304461942,0.33497375328084,0.82250656167979));
#1217=CARTESIAN_POINT('',(0.645669291338583,0.324745202260782,0.78740157480315));
#1218=CARTESIAN_POINT('',(0.645669291338583,0.255905511811024,0.78740157480315));
#1219=CARTESIAN_POINT('',(0.645669291338583,0.324745202260782,0.78740157480315));
#1220=CARTESIAN_POINT('Origin',(0.508380628568663,0.170753229699054,0.775590551181102));
#1221=CARTESIAN_POINT('',(0.566929133858268,0.246005044780467,0.78740157480315));
#1222=CARTESIAN_POINT('',(0.500028973672759,0.179104884594958,0.78740157480315));
#1223=CARTESIAN_POINT('',(0.566929133858268,0.246005044780467,0.78740157480315));
#1224=CARTESIAN_POINT('Origin',(0.578740157480315,0.177165354330709,0.775590551181102));
#1225=CARTESIAN_POINT('',(0.566929133858268,0.181102362204724,0.78740157480315));
#1226=CARTESIAN_POINT('',(0.566929133858268,0.177165354330709,0.78740157480315));
#1227=CARTESIAN_POINT('',(0.590551181102362,0.15748031496063,0.763779527559055));
#1228=CARTESIAN_POINT('',(0.566929133858268,0.181102362204724,0.78740157480315));
#1229=CARTESIAN_POINT('',(0.590551181102362,0.177165354330709,0.763779527559055));
#1230=CARTESIAN_POINT('Origin',(0.265748031496063,0.169291338582677,0.775590551181102));
#1231=CARTESIAN_POINT('',(0.187065821361265,0.181102362204724,0.78740157480315));
#1232=CARTESIAN_POINT('',(0.265748031496063,0.181102362204724,0.78740157480315));
#1233=CARTESIAN_POINT('',(0.196850393700787,0.15748031496063,0.763779527559055));
#1234=CARTESIAN_POINT('',(0.187065821361265,0.181102362204724,0.78740157480315));
#1235=CARTESIAN_POINT('',(0.265748031496063,0.15748031496063,0.763779527559055));
#1236=CARTESIAN_POINT('Origin',(0.193419998647403,0.170753229699054,0.775590551181102));
#1237=CARTESIAN_POINT('',(0.0944881889763779,0.0885247298198369,0.78740157480315));
#1238=CARTESIAN_POINT('',(0.185068343751499,0.179104884594958,0.78740157480315));
#1239=CARTESIAN_POINT('',(0.118110236220472,0.078740157480315,0.763779527559055));
#1240=CARTESIAN_POINT('',(0.0944881889763779,0.0885247298198369,0.78740157480315));
#1241=CARTESIAN_POINT('',(0.201771653543307,0.16240157480315,0.763779527559055));
#1242=CARTESIAN_POINT('Origin',(0.106299212598425,0.0984251968503937,0.775590551181102));
#1243=CARTESIAN_POINT('',(0.094488188976378,0.0236220472440945,0.78740157480315));
#1244=CARTESIAN_POINT('',(0.0944881889763779,0.0984251968503937,0.78740157480315));
#1245=CARTESIAN_POINT('',(0.118110236220472,0.,0.763779527559055));
#1246=CARTESIAN_POINT('',(0.094488188976378,0.0236220472440945,0.78740157480315));
#1247=CARTESIAN_POINT('',(0.118110236220472,0.0984251968503937,0.763779527559055));
#1248=CARTESIAN_POINT('Origin',(0.167322834645669,0.0118110236220472,0.775590551181102));
#1249=CARTESIAN_POINT('',(0.0236220472440945,0.0236220472440945,0.78740157480315));
#1250=CARTESIAN_POINT('',(0.167322834645669,0.0236220472440945,0.78740157480315));
#1251=CARTESIAN_POINT('',(0.0118110236220473,0.0118110236220472,0.775590551181102));
#1252=CARTESIAN_POINT('',(0.0849737532808398,0.0849737532808398,0.848753280839895));
#1253=CARTESIAN_POINT('',(0.0236220472440945,0.,0.763779527559055));
#1254=CARTESIAN_POINT('',(0.166994750656168,-0.143372703412073,0.620406824146981));
#1255=CARTESIAN_POINT('',(0.167322834645669,0.,0.763779527559055));
#1256=CARTESIAN_POINT('Origin',(0.501968503937008,0.381889763779527,0.775590551181102));
#1257=CARTESIAN_POINT('',(0.0118110236220472,0.381889763779527,0.775590551181102));
#1258=CARTESIAN_POINT('',(0.222769028871391,0.592847769028871,0.564632545931758));
#1259=CARTESIAN_POINT('',(0.0236220472440943,0.37007874015748,0.78740157480315));
#1260=CARTESIAN_POINT('',(0.107939632545932,0.285761154855643,0.871719160104987));
#1261=CARTESIAN_POINT('',(0.501968503937008,0.37007874015748,0.78740157480315));
#1262=CARTESIAN_POINT('Origin',(0.590551181102362,0.15748031496063,0.));
#1263=CARTESIAN_POINT('',(0.590551181102362,0.15748031496063,0.));
#1264=CARTESIAN_POINT('Origin',(0.196850393700787,0.15748031496063,0.));
#1265=CARTESIAN_POINT('',(0.196850393700787,0.15748031496063,0.));
#1266=CARTESIAN_POINT('',(0.433070866141732,0.15748031496063,0.330708661417323));
#1267=CARTESIAN_POINT('',(0.354330708661417,0.15748031496063,0.330708661417323));
#1268=CARTESIAN_POINT('',(0.275590551181102,0.15748031496063,0.330708661417323));
#1269=CARTESIAN_POINT('',(0.354330708661417,0.15748031496063,0.456692913385827));
#1270=CARTESIAN_POINT('Origin',(0.354330708661417,0.15748031496063,0.393700787401575));
#1271=CARTESIAN_POINT('',(0.433070866141732,0.15748031496063,0.456692913385827));
#1272=CARTESIAN_POINT('',(0.31496062992126,0.15748031496063,0.456692913385827));
#1273=CARTESIAN_POINT('Origin',(0.433070866141732,0.15748031496063,0.393700787401575));
#1274=CARTESIAN_POINT('Origin',(0.118110236220472,0.078740157480315,0.));
#1275=CARTESIAN_POINT('',(0.118110236220472,0.078740157480315,0.));
#1276=CARTESIAN_POINT('Origin',(0.118110236220472,0.,0.));
#1277=CARTESIAN_POINT('',(0.118110236220472,0.,0.));
#1278=CARTESIAN_POINT('Origin',(0.,0.,0.));
#1279=CARTESIAN_POINT('',(0.0236220472440945,0.,0.));
#1280=CARTESIAN_POINT('Origin',(0.0118110236220472,0.0118110236220472,0.));
#1281=CARTESIAN_POINT('',(-8.19554398099279E-18,0.0236220472440945,0.763779527559055));
#1282=CARTESIAN_POINT('',(-0.164698162729659,0.188320209973753,0.599081364829396));
#1283=CARTESIAN_POINT('',(-8.19554398099279E-18,0.0236220472440945,0.0236220472440945));
#1284=CARTESIAN_POINT('',(-8.19554398099279E-18,0.0236220472440945,0.));
#1285=CARTESIAN_POINT('',(-0.0334645669291338,0.0570866141732282,0.0570866141732283));
#1286=CARTESIAN_POINT('Origin',(0.0118110236220471,0.295275590551181,0.0118110236220472));
#1287=CARTESIAN_POINT('',(-1.22933159714892E-16,0.37007874015748,0.0236220472440945));
#1288=CARTESIAN_POINT('',(-9.83465277719135E-17,0.295275590551181,0.0236220472440945));
#1289=CARTESIAN_POINT('',(-0.000656167979002724,0.369422572178477,0.0242782152230971));
#1290=CARTESIAN_POINT('Origin',(0.0118110236220471,0.381889763779527,0.));
#1291=CARTESIAN_POINT('',(-1.22933159714892E-16,0.37007874015748,0.763779527559055));
#1292=CARTESIAN_POINT('',(-1.22933159714892E-16,0.37007874015748,0.));
#1293=CARTESIAN_POINT('',(-0.131889763779528,0.238188976377952,0.631889763779527));
#1294=CARTESIAN_POINT('Origin',(-1.31128703695885E-16,0.393700787401574,
0.));
#1295=CARTESIAN_POINT('',(-9.83465277719135E-17,0.295275590551181,0.763779527559055));
#1296=CARTESIAN_POINT('Origin',(0.0118110236220471,0.295275590551181,0.775590551181102));
#1297=CARTESIAN_POINT('',(0.0236220472440944,0.295275590551181,0.78740157480315));
#1298=CARTESIAN_POINT('Origin',(0.334645669291338,0.196850393700787,0.78740157480315));
#1299=CARTESIAN_POINT('Origin',(0.354330708661417,0.393700787401575,0.268700787401575));
#1300=CARTESIAN_POINT('',(0.354330708661417,0.275590551181102,0.268700787401575));
#1301=CARTESIAN_POINT('',(0.354330708661417,0.393700787401575,0.268700787401575));
#1302=CARTESIAN_POINT('',(0.433070866141732,0.275590551181102,0.268700787401575));
#1303=CARTESIAN_POINT('Origin',(0.354330708661417,0.393700787401575,0.393700787401575));
#1304=CARTESIAN_POINT('Origin',(0.354330708661417,0.275590551181102,0.393700787401575));
#1305=CARTESIAN_POINT('Origin',(0.393700787401575,0.275590551181102,0.393700787401575));
#1306=CARTESIAN_POINT('',(0.354330708661417,0.275590551181102,0.456692913385827));
#1307=CARTESIAN_POINT('',(0.433070866141732,0.275590551181102,0.456692913385827));
#1308=CARTESIAN_POINT('',(0.413385826771653,0.275590551181102,0.456692913385827));
#1309=CARTESIAN_POINT('',(0.354330708661417,0.275590551181102,0.330708661417323));
#1310=CARTESIAN_POINT('Origin',(0.354330708661417,0.275590551181102,0.393700787401575));
#1311=CARTESIAN_POINT('',(0.433070866141732,0.275590551181102,0.330708661417323));
#1312=CARTESIAN_POINT('',(0.374015748031496,0.275590551181102,0.330708661417323));
#1313=CARTESIAN_POINT('Origin',(0.433070866141732,0.275590551181102,0.393700787401575));
#1314=CARTESIAN_POINT('Origin',(0.354330708661417,0.393700787401575,0.330708661417323));
#1315=CARTESIAN_POINT('',(0.354330708661417,0.393700787401575,0.330708661417323));
#1316=CARTESIAN_POINT('',(0.433070866141732,0.393700787401575,0.330708661417323));
#1317=CARTESIAN_POINT('Origin',(0.354330708661417,0.393700787401575,0.393700787401575));
#1318=CARTESIAN_POINT('',(0.354330708661417,0.393700787401575,0.456692913385827));
#1319=CARTESIAN_POINT('Origin',(0.433070866141732,0.393700787401575,0.456692913385827));
#1320=CARTESIAN_POINT('',(0.433070866141732,0.393700787401575,0.456692913385827));
#1321=CARTESIAN_POINT('Origin',(0.433070866141732,0.393700787401575,0.393700787401575));
#1322=UNCERTAINTY_MEASURE_WITH_UNIT(LENGTH_MEASURE(0.000393700787401575),
#1328,'DISTANCE_ACCURACY_VALUE',
'Maximum model space distance between geometric entities at asserted c
onnectivities');
#1323=UNCERTAINTY_MEASURE_WITH_UNIT(LENGTH_MEASURE(0.000393700787401575),
#1328,'DISTANCE_ACCURACY_VALUE',
'Maximum model space distance between geometric entities at asserted c
onnectivities');
#1324=(
GEOMETRIC_REPRESENTATION_CONTEXT(3)
GLOBAL_UNCERTAINTY_ASSIGNED_CONTEXT((#1322))
GLOBAL_UNIT_ASSIGNED_CONTEXT((#1328,#1332,#1333))
REPRESENTATION_CONTEXT('','3D')
);
#1325=(
GEOMETRIC_REPRESENTATION_CONTEXT(3)
GLOBAL_UNCERTAINTY_ASSIGNED_CONTEXT((#1323))
GLOBAL_UNIT_ASSIGNED_CONTEXT((#1328,#1332,#1333))
REPRESENTATION_CONTEXT('','3D')
);
#1326=DIMENSIONAL_EXPONENTS(1.,0.,0.,0.,0.,0.,0.);
#1327=DIMENSIONAL_EXPONENTS(0.,1.,0.,0.,0.,0.,0.);
#1328=(
CONVERSION_BASED_UNIT('inch',#1331)
LENGTH_UNIT()
NAMED_UNIT(#1326)
);
#1329=(
LENGTH_UNIT()
NAMED_UNIT(*)
SI_UNIT(.MILLI.,.METRE.)
);
#1330=(
LENGTH_UNIT()
NAMED_UNIT(*)
SI_UNIT(.CENTI.,.METRE.)
);
#1331=LENGTH_MEASURE_WITH_UNIT(LENGTH_MEASURE(25.4),#1329);
#1332=(
NAMED_UNIT(*)
PLANE_ANGLE_UNIT()
SI_UNIT($,.RADIAN.)
);
#1333=(
NAMED_UNIT(*)
SI_UNIT($,.STERADIAN.)
SOLID_ANGLE_UNIT()
);
#1334=SHAPE_DEFINITION_REPRESENTATION(#1335,#1336);
#1335=PRODUCT_DEFINITION_SHAPE('',$,#1338);
#1336=SHAPE_REPRESENTATION('',(#830),#1324);
#1337=PRODUCT_DEFINITION_CONTEXT('part definition',#1342,'design');
#1338=PRODUCT_DEFINITION('Part1','Part1',#1339,#1337);
#1339=PRODUCT_DEFINITION_FORMATION('',$,#1344);
#1340=PRODUCT_RELATED_PRODUCT_CATEGORY('Part1','Part1',(#1344));
#1341=APPLICATION_PROTOCOL_DEFINITION('international standard',
'automotive_design',2009,#1342);
#1342=APPLICATION_CONTEXT(
'Core Data for Automotive Mechanical Design Process');
#1343=PRODUCT_CONTEXT('part definition',#1342,'mechanical');
#1344=PRODUCT('Part1','Part1',$,(#1343));
#1345=PRESENTATION_STYLE_ASSIGNMENT((#1346));
#1346=SURFACE_STYLE_USAGE(.BOTH.,#1349);
#1347=SURFACE_STYLE_RENDERING_WITH_PROPERTIES($,#1353,(#1348));
#1348=SURFACE_STYLE_TRANSPARENT(0.);
#1349=SURFACE_SIDE_STYLE('',(#1350,#1347));
#1350=SURFACE_STYLE_FILL_AREA(#1351);
#1351=FILL_AREA_STYLE('',(#1352));
#1352=FILL_AREA_STYLE_COLOUR('',#1353);
#1353=COLOUR_RGB('',0.749019607843137,0.749019607843137,0.749019607843137);
ENDSEC;
END-ISO-10303-21;
