ISO-10303-21;
HEADER;
/* Generated by software containing ST-Developer
 * from STEP Tools, Inc. (www.steptools.com) 
 */

FILE_DESCRIPTION(
/* description */ (''),
/* implementation_level */ '2;1');

FILE_NAME(
/* name */ 'Stop Block.stp',
/* time_stamp */ '2026-07-18T17:56:33-04:00',
/* author */ ('JoshuaEah'),
/* organization */ (''),
/* preprocessor_version */ 'ST-DEVELOPER v20.1',
/* originating_system */ 'Autodesk Inventor 2026',
/* authorisation */ '');

FILE_SCHEMA (('AUTOMOTIVE_DESIGN { 1 0 10303 214 3 1 1 }'));
ENDSEC;

DATA;
#10=MECHANICAL_DESIGN_GEOMETRIC_PRESENTATION_REPRESENTATION('',(#13),#579);
#11=SHAPE_REPRESENTATION_RELATIONSHIP('SRR','None',#590,#12);
#12=ADVANCED_BREP_SHAPE_REPRESENTATION('',(#14),#578);
#13=STYLED_ITEM('',(#599),#14);
#14=MANIFOLD_SOLID_BREP('Solid1',#319);
#15=FACE_BOUND('',#115,.T.);
#16=FACE_BOUND('',#117,.T.);
#17=FACE_BOUND('',#119,.T.);
#18=PLANE('',#369);
#19=PLANE('',#370);
#20=PLANE('',#371);
#21=PLANE('',#373);
#22=PLANE('',#375);
#23=PLANE('',#380);
#24=PLANE('',#381);
#25=LINE('',#511,#47);
#26=LINE('',#512,#48);
#27=LINE('',#517,#49);
#28=LINE('',#518,#50);
#29=LINE('',#527,#51);
#30=LINE('',#528,#52);
#31=LINE('',#530,#53);
#32=LINE('',#531,#54);
#33=LINE('',#536,#55);
#34=LINE('',#537,#56);
#35=LINE('',#542,#57);
#36=LINE('',#543,#58);
#37=LINE('',#545,#59);
#38=LINE('',#546,#60);
#39=LINE('',#551,#61);
#40=LINE('',#552,#62);
#41=LINE('',#554,#63);
#42=LINE('',#556,#64);
#43=LINE('',#558,#65);
#44=LINE('',#559,#66);
#45=LINE('',#571,#67);
#46=LINE('',#573,#68);
#47=VECTOR('',#410,0.393700787401575);
#48=VECTOR('',#411,0.393700787401575);
#49=VECTOR('',#416,0.393700787401575);
#50=VECTOR('',#417,0.393700787401575);
#51=VECTOR('',#428,0.393700787401575);
#52=VECTOR('',#429,0.393700787401575);
#53=VECTOR('',#432,0.393700787401575);
#54=VECTOR('',#433,0.393700787401575);
#55=VECTOR('',#438,0.393700787401575);
#56=VECTOR('',#439,0.393700787401575);
#57=VECTOR('',#444,0.393700787401575);
#58=VECTOR('',#445,0.393700787401575);
#59=VECTOR('',#448,0.393700787401575);
#60=VECTOR('',#449,0.393700787401575);
#61=VECTOR('',#454,0.393700787401575);
#62=VECTOR('',#455,0.393700787401575);
#63=VECTOR('',#458,0.393700787401575);
#64=VECTOR('',#461,0.393700787401575);
#65=VECTOR('',#464,0.393700787401575);
#66=VECTOR('',#465,0.393700787401575);
#67=VECTOR('',#480,0.128);
#68=VECTOR('',#483,0.067);
#69=CYLINDRICAL_SURFACE('',#353,0.0393700787401575);
#70=CYLINDRICAL_SURFACE('',#354,0.0393700787401575);
#71=CYLINDRICAL_SURFACE('',#360,0.0393700787401575);
#72=CYLINDRICAL_SURFACE('',#361,0.0393700787401575);
#73=CYLINDRICAL_SURFACE('',#362,0.0393700787401575);
#74=CYLINDRICAL_SURFACE('',#364,0.0393700787401575);
#75=CYLINDRICAL_SURFACE('',#366,0.0393700787401575);
#76=CYLINDRICAL_SURFACE('',#367,0.0393700787401575);
#77=CYLINDRICAL_SURFACE('',#378,0.128);
#78=CYLINDRICAL_SURFACE('',#379,0.067);
#79=FACE_OUTER_BOUND('',#100,.T.);
#80=FACE_OUTER_BOUND('',#101,.T.);
#81=FACE_OUTER_BOUND('',#102,.T.);
#82=FACE_OUTER_BOUND('',#103,.T.);
#83=FACE_OUTER_BOUND('',#104,.T.);
#84=FACE_OUTER_BOUND('',#105,.T.);
#85=FACE_OUTER_BOUND('',#106,.T.);
#86=FACE_OUTER_BOUND('',#107,.T.);
#87=FACE_OUTER_BOUND('',#108,.T.);
#88=FACE_OUTER_BOUND('',#109,.T.);
#89=FACE_OUTER_BOUND('',#110,.T.);
#90=FACE_OUTER_BOUND('',#111,.T.);
#91=FACE_OUTER_BOUND('',#112,.T.);
#92=FACE_OUTER_BOUND('',#113,.T.);
#93=FACE_OUTER_BOUND('',#114,.T.);
#94=FACE_OUTER_BOUND('',#116,.T.);
#95=FACE_OUTER_BOUND('',#118,.T.);
#96=FACE_OUTER_BOUND('',#120,.T.);
#97=FACE_OUTER_BOUND('',#121,.T.);
#98=FACE_OUTER_BOUND('',#122,.T.);
#99=FACE_OUTER_BOUND('',#123,.T.);
#100=EDGE_LOOP('',(#210,#211,#212));
#101=EDGE_LOOP('',(#213,#214,#215));
#102=EDGE_LOOP('',(#216,#217,#218));
#103=EDGE_LOOP('',(#219,#220,#221,#222));
#104=EDGE_LOOP('',(#223,#224,#225,#226));
#105=EDGE_LOOP('',(#227,#228,#229));
#106=EDGE_LOOP('',(#230,#231,#232,#233));
#107=EDGE_LOOP('',(#234,#235,#236,#237));
#108=EDGE_LOOP('',(#238,#239,#240,#241));
#109=EDGE_LOOP('',(#242,#243,#244,#245));
#110=EDGE_LOOP('',(#246,#247,#248,#249));
#111=EDGE_LOOP('',(#250,#251,#252,#253));
#112=EDGE_LOOP('',(#254,#255,#256,#257));
#113=EDGE_LOOP('',(#258,#259,#260,#261));
#114=EDGE_LOOP('',(#262,#263,#264,#265,#266,#267,#268,#269));
#115=EDGE_LOOP('',(#270));
#116=EDGE_LOOP('',(#271,#272,#273,#274));
#117=EDGE_LOOP('',(#275));
#118=EDGE_LOOP('',(#276));
#119=EDGE_LOOP('',(#277));
#120=EDGE_LOOP('',(#278,#279,#280,#281));
#121=EDGE_LOOP('',(#282,#283,#284,#285));
#122=EDGE_LOOP('',(#286,#287,#288,#289));
#123=EDGE_LOOP('',(#290,#291,#292,#293));
#124=CIRCLE('',#342,0.0393700787401575);
#125=CIRCLE('',#343,0.0393700787401575);
#126=CIRCLE('',#344,0.0393700787401575);
#127=CIRCLE('',#346,0.0393700787401575);
#128=CIRCLE('',#347,0.0393700787401575);
#129=CIRCLE('',#348,0.0393700787401575);
#130=CIRCLE('',#350,0.0393700787401575);
#131=CIRCLE('',#351,0.0393700787401575);
#132=CIRCLE('',#352,0.0393700787401575);
#133=CIRCLE('',#355,0.0393700787401575);
#134=CIRCLE('',#357,0.0393700787401576);
#135=CIRCLE('',#358,0.0393700787401575);
#136=CIRCLE('',#359,0.0393700787401575);
#137=CIRCLE('',#363,0.0393700787401575);
#138=CIRCLE('',#365,0.0393700787401575);
#139=CIRCLE('',#368,0.0393700787401575);
#140=CIRCLE('',#372,0.067);
#141=CIRCLE('',#374,0.128);
#142=CIRCLE('',#376,0.128);
#143=CIRCLE('',#377,0.067);
#144=VERTEX_POINT('',#490);
#145=VERTEX_POINT('',#491);
#146=VERTEX_POINT('',#493);
#147=VERTEX_POINT('',#497);
#148=VERTEX_POINT('',#498);
#149=VERTEX_POINT('',#500);
#150=VERTEX_POINT('',#504);
#151=VERTEX_POINT('',#505);
#152=VERTEX_POINT('',#507);
#153=VERTEX_POINT('',#514);
#154=VERTEX_POINT('',#515);
#155=VERTEX_POINT('',#520);
#156=VERTEX_POINT('',#521);
#157=VERTEX_POINT('',#523);
#158=VERTEX_POINT('',#533);
#159=VERTEX_POINT('',#534);
#160=VERTEX_POINT('',#539);
#161=VERTEX_POINT('',#540);
#162=VERTEX_POINT('',#548);
#163=VERTEX_POINT('',#549);
#164=VERTEX_POINT('',#560);
#165=VERTEX_POINT('',#563);
#166=VERTEX_POINT('',#566);
#167=VERTEX_POINT('',#568);
#168=EDGE_CURVE('',#144,#145,#124,.F.);
#169=EDGE_CURVE('',#146,#144,#125,.F.);
#170=EDGE_CURVE('',#145,#146,#126,.F.);
#171=EDGE_CURVE('',#147,#148,#127,.F.);
#172=EDGE_CURVE('',#149,#147,#128,.F.);
#173=EDGE_CURVE('',#148,#149,#129,.F.);
#174=EDGE_CURVE('',#150,#151,#130,.F.);
#175=EDGE_CURVE('',#152,#150,#131,.F.);
#176=EDGE_CURVE('',#151,#152,#132,.F.);
#177=EDGE_CURVE('',#150,#144,#25,.T.);
#178=EDGE_CURVE('',#145,#152,#26,.T.);
#179=EDGE_CURVE('',#153,#154,#133,.T.);
#180=EDGE_CURVE('',#154,#151,#27,.T.);
#181=EDGE_CURVE('',#152,#153,#28,.T.);
#182=EDGE_CURVE('',#155,#156,#134,.F.);
#183=EDGE_CURVE('',#157,#155,#135,.F.);
#184=EDGE_CURVE('',#156,#157,#136,.F.);
#185=EDGE_CURVE('',#147,#157,#29,.T.);
#186=EDGE_CURVE('',#155,#149,#30,.T.);
#187=EDGE_CURVE('',#157,#150,#31,.T.);
#188=EDGE_CURVE('',#151,#156,#32,.T.);
#189=EDGE_CURVE('',#158,#159,#137,.T.);
#190=EDGE_CURVE('',#159,#155,#33,.T.);
#191=EDGE_CURVE('',#156,#158,#34,.T.);
#192=EDGE_CURVE('',#160,#161,#138,.T.);
#193=EDGE_CURVE('',#161,#148,#35,.T.);
#194=EDGE_CURVE('',#149,#160,#36,.T.);
#195=EDGE_CURVE('',#144,#147,#37,.T.);
#196=EDGE_CURVE('',#148,#146,#38,.T.);
#197=EDGE_CURVE('',#162,#163,#139,.T.);
#198=EDGE_CURVE('',#163,#145,#39,.T.);
#199=EDGE_CURVE('',#146,#162,#40,.T.);
#200=EDGE_CURVE('',#153,#163,#41,.T.);
#201=EDGE_CURVE('',#162,#161,#42,.T.);
#202=EDGE_CURVE('',#160,#159,#43,.T.);
#203=EDGE_CURVE('',#158,#154,#44,.T.);
#204=EDGE_CURVE('',#164,#164,#140,.T.);
#205=EDGE_CURVE('',#165,#165,#141,.T.);
#206=EDGE_CURVE('',#166,#166,#142,.T.);
#207=EDGE_CURVE('',#167,#167,#143,.T.);
#208=EDGE_CURVE('',#165,#166,#45,.T.);
#209=EDGE_CURVE('',#167,#164,#46,.T.);
#210=ORIENTED_EDGE('',*,*,#168,.F.);
#211=ORIENTED_EDGE('',*,*,#169,.F.);
#212=ORIENTED_EDGE('',*,*,#170,.F.);
#213=ORIENTED_EDGE('',*,*,#171,.F.);
#214=ORIENTED_EDGE('',*,*,#172,.F.);
#215=ORIENTED_EDGE('',*,*,#173,.F.);
#216=ORIENTED_EDGE('',*,*,#174,.F.);
#217=ORIENTED_EDGE('',*,*,#175,.F.);
#218=ORIENTED_EDGE('',*,*,#176,.F.);
#219=ORIENTED_EDGE('',*,*,#175,.T.);
#220=ORIENTED_EDGE('',*,*,#177,.T.);
#221=ORIENTED_EDGE('',*,*,#168,.T.);
#222=ORIENTED_EDGE('',*,*,#178,.T.);
#223=ORIENTED_EDGE('',*,*,#179,.T.);
#224=ORIENTED_EDGE('',*,*,#180,.T.);
#225=ORIENTED_EDGE('',*,*,#176,.T.);
#226=ORIENTED_EDGE('',*,*,#181,.T.);
#227=ORIENTED_EDGE('',*,*,#182,.F.);
#228=ORIENTED_EDGE('',*,*,#183,.F.);
#229=ORIENTED_EDGE('',*,*,#184,.F.);
#230=ORIENTED_EDGE('',*,*,#172,.T.);
#231=ORIENTED_EDGE('',*,*,#185,.T.);
#232=ORIENTED_EDGE('',*,*,#183,.T.);
#233=ORIENTED_EDGE('',*,*,#186,.T.);
#234=ORIENTED_EDGE('',*,*,#184,.T.);
#235=ORIENTED_EDGE('',*,*,#187,.T.);
#236=ORIENTED_EDGE('',*,*,#174,.T.);
#237=ORIENTED_EDGE('',*,*,#188,.T.);
#238=ORIENTED_EDGE('',*,*,#189,.T.);
#239=ORIENTED_EDGE('',*,*,#190,.T.);
#240=ORIENTED_EDGE('',*,*,#182,.T.);
#241=ORIENTED_EDGE('',*,*,#191,.T.);
#242=ORIENTED_EDGE('',*,*,#192,.T.);
#243=ORIENTED_EDGE('',*,*,#193,.T.);
#244=ORIENTED_EDGE('',*,*,#173,.T.);
#245=ORIENTED_EDGE('',*,*,#194,.T.);
#246=ORIENTED_EDGE('',*,*,#169,.T.);
#247=ORIENTED_EDGE('',*,*,#195,.T.);
#248=ORIENTED_EDGE('',*,*,#171,.T.);
#249=ORIENTED_EDGE('',*,*,#196,.T.);
#250=ORIENTED_EDGE('',*,*,#197,.T.);
#251=ORIENTED_EDGE('',*,*,#198,.T.);
#252=ORIENTED_EDGE('',*,*,#170,.T.);
#253=ORIENTED_EDGE('',*,*,#199,.T.);
#254=ORIENTED_EDGE('',*,*,#181,.F.);
#255=ORIENTED_EDGE('',*,*,#178,.F.);
#256=ORIENTED_EDGE('',*,*,#198,.F.);
#257=ORIENTED_EDGE('',*,*,#200,.F.);
#258=ORIENTED_EDGE('',*,*,#199,.F.);
#259=ORIENTED_EDGE('',*,*,#196,.F.);
#260=ORIENTED_EDGE('',*,*,#193,.F.);
#261=ORIENTED_EDGE('',*,*,#201,.F.);
#262=ORIENTED_EDGE('',*,*,#179,.F.);
#263=ORIENTED_EDGE('',*,*,#200,.T.);
#264=ORIENTED_EDGE('',*,*,#197,.F.);
#265=ORIENTED_EDGE('',*,*,#201,.T.);
#266=ORIENTED_EDGE('',*,*,#192,.F.);
#267=ORIENTED_EDGE('',*,*,#202,.T.);
#268=ORIENTED_EDGE('',*,*,#189,.F.);
#269=ORIENTED_EDGE('',*,*,#203,.T.);
#270=ORIENTED_EDGE('',*,*,#204,.T.);
#271=ORIENTED_EDGE('',*,*,#185,.F.);
#272=ORIENTED_EDGE('',*,*,#195,.F.);
#273=ORIENTED_EDGE('',*,*,#177,.F.);
#274=ORIENTED_EDGE('',*,*,#187,.F.);
#275=ORIENTED_EDGE('',*,*,#205,.T.);
#276=ORIENTED_EDGE('',*,*,#206,.T.);
#277=ORIENTED_EDGE('',*,*,#207,.F.);
#278=ORIENTED_EDGE('',*,*,#205,.F.);
#279=ORIENTED_EDGE('',*,*,#208,.T.);
#280=ORIENTED_EDGE('',*,*,#206,.F.);
#281=ORIENTED_EDGE('',*,*,#208,.F.);
#282=ORIENTED_EDGE('',*,*,#207,.T.);
#283=ORIENTED_EDGE('',*,*,#209,.T.);
#284=ORIENTED_EDGE('',*,*,#204,.F.);
#285=ORIENTED_EDGE('',*,*,#209,.F.);
#286=ORIENTED_EDGE('',*,*,#180,.F.);
#287=ORIENTED_EDGE('',*,*,#203,.F.);
#288=ORIENTED_EDGE('',*,*,#191,.F.);
#289=ORIENTED_EDGE('',*,*,#188,.F.);
#290=ORIENTED_EDGE('',*,*,#190,.F.);
#291=ORIENTED_EDGE('',*,*,#202,.F.);
#292=ORIENTED_EDGE('',*,*,#194,.F.);
#293=ORIENTED_EDGE('',*,*,#186,.F.);
#294=SPHERICAL_SURFACE('',#341,0.0393700787401575);
#295=SPHERICAL_SURFACE('',#345,0.0393700787401575);
#296=SPHERICAL_SURFACE('',#349,0.0393700787401575);
#297=SPHERICAL_SURFACE('',#356,0.0393700787401575);
#298=ADVANCED_FACE('',(#79),#294,.T.);
#299=ADVANCED_FACE('',(#80),#295,.T.);
#300=ADVANCED_FACE('',(#81),#296,.T.);
#301=ADVANCED_FACE('',(#82),#69,.T.);
#302=ADVANCED_FACE('',(#83),#70,.T.);
#303=ADVANCED_FACE('',(#84),#297,.T.);
#304=ADVANCED_FACE('',(#85),#71,.T.);
#305=ADVANCED_FACE('',(#86),#72,.T.);
#306=ADVANCED_FACE('',(#87),#73,.T.);
#307=ADVANCED_FACE('',(#88),#74,.T.);
#308=ADVANCED_FACE('',(#89),#75,.T.);
#309=ADVANCED_FACE('',(#90),#76,.T.);
#310=ADVANCED_FACE('',(#91),#18,.T.);
#311=ADVANCED_FACE('',(#92),#19,.T.);
#312=ADVANCED_FACE('',(#93,#15),#20,.T.);
#313=ADVANCED_FACE('',(#94,#16),#21,.T.);
#314=ADVANCED_FACE('',(#95,#17),#22,.T.);
#315=ADVANCED_FACE('',(#96),#77,.F.);
#316=ADVANCED_FACE('',(#97),#78,.F.);
#317=ADVANCED_FACE('',(#98),#23,.T.);
#318=ADVANCED_FACE('',(#99),#24,.T.);
#319=CLOSED_SHELL('',(#298,#299,#300,#301,#302,#303,#304,#305,#306,#307,
#308,#309,#310,#311,#312,#313,#314,#315,#316,#317,#318));
#320=DERIVED_UNIT_ELEMENT(#322,1.);
#321=DERIVED_UNIT_ELEMENT(#584,-3.);
#322=(
CONVERSION_BASED_UNIT('gram',#324)
MASS_UNIT()
NAMED_UNIT(#581)
);
#323=(
MASS_UNIT()
NAMED_UNIT(*)
SI_UNIT(.KILO.,.GRAM.)
);
#324=MASS_MEASURE_WITH_UNIT(MASS_MEASURE(0.001),#323);
#325=DERIVED_UNIT((#320,#321));
#326=MEASURE_REPRESENTATION_ITEM('density measure',
POSITIVE_RATIO_MEASURE(1.),#325);
#327=PROPERTY_DEFINITION_REPRESENTATION(#332,#329);
#328=PROPERTY_DEFINITION_REPRESENTATION(#333,#330);
#329=REPRESENTATION('material name',(#331),#578);
#330=REPRESENTATION('density',(#326),#578);
#331=DESCRIPTIVE_REPRESENTATION_ITEM('Generic','Generic');
#332=PROPERTY_DEFINITION('material property','material name',#592);
#333=PROPERTY_DEFINITION('material property','density of part',#592);
#334=DATE_TIME_ROLE('creation_date');
#335=APPLIED_DATE_AND_TIME_ASSIGNMENT(#336,#334,(#592));
#336=DATE_AND_TIME(#337,#338);
#337=CALENDAR_DATE(2026,18,7);
#338=LOCAL_TIME(0,0,0.,#339);
#339=COORDINATED_UNIVERSAL_TIME_OFFSET(0,0,.BEHIND.);
#340=AXIS2_PLACEMENT_3D('',#488,#382,#383);
#341=AXIS2_PLACEMENT_3D('',#489,#384,#385);
#342=AXIS2_PLACEMENT_3D('',#492,#386,#387);
#343=AXIS2_PLACEMENT_3D('',#494,#388,#389);
#344=AXIS2_PLACEMENT_3D('',#495,#390,#391);
#345=AXIS2_PLACEMENT_3D('',#496,#392,#393);
#346=AXIS2_PLACEMENT_3D('',#499,#394,#395);
#347=AXIS2_PLACEMENT_3D('',#501,#396,#397);
#348=AXIS2_PLACEMENT_3D('',#502,#398,#399);
#349=AXIS2_PLACEMENT_3D('',#503,#400,#401);
#350=AXIS2_PLACEMENT_3D('',#506,#402,#403);
#351=AXIS2_PLACEMENT_3D('',#508,#404,#405);
#352=AXIS2_PLACEMENT_3D('',#509,#406,#407);
#353=AXIS2_PLACEMENT_3D('',#510,#408,#409);
#354=AXIS2_PLACEMENT_3D('',#513,#412,#413);
#355=AXIS2_PLACEMENT_3D('',#516,#414,#415);
#356=AXIS2_PLACEMENT_3D('',#519,#418,#419);
#357=AXIS2_PLACEMENT_3D('',#522,#420,#421);
#358=AXIS2_PLACEMENT_3D('',#524,#422,#423);
#359=AXIS2_PLACEMENT_3D('',#525,#424,#425);
#360=AXIS2_PLACEMENT_3D('',#526,#426,#427);
#361=AXIS2_PLACEMENT_3D('',#529,#430,#431);
#362=AXIS2_PLACEMENT_3D('',#532,#434,#435);
#363=AXIS2_PLACEMENT_3D('',#535,#436,#437);
#364=AXIS2_PLACEMENT_3D('',#538,#440,#441);
#365=AXIS2_PLACEMENT_3D('',#541,#442,#443);
#366=AXIS2_PLACEMENT_3D('',#544,#446,#447);
#367=AXIS2_PLACEMENT_3D('',#547,#450,#451);
#368=AXIS2_PLACEMENT_3D('',#550,#452,#453);
#369=AXIS2_PLACEMENT_3D('',#553,#456,#457);
#370=AXIS2_PLACEMENT_3D('',#555,#459,#460);
#371=AXIS2_PLACEMENT_3D('',#557,#462,#463);
#372=AXIS2_PLACEMENT_3D('',#561,#466,#467);
#373=AXIS2_PLACEMENT_3D('',#562,#468,#469);
#374=AXIS2_PLACEMENT_3D('',#564,#470,#471);
#375=AXIS2_PLACEMENT_3D('',#565,#472,#473);
#376=AXIS2_PLACEMENT_3D('',#567,#474,#475);
#377=AXIS2_PLACEMENT_3D('',#569,#476,#477);
#378=AXIS2_PLACEMENT_3D('',#570,#478,#479);
#379=AXIS2_PLACEMENT_3D('',#572,#481,#482);
#380=AXIS2_PLACEMENT_3D('',#574,#484,#485);
#381=AXIS2_PLACEMENT_3D('',#575,#486,#487);
#382=DIRECTION('axis',(0.,0.,1.));
#383=DIRECTION('refdir',(1.,0.,0.));
#384=DIRECTION('center_axis',(-0.408248290463863,-0.816496580927726,-0.408248290463863));
#385=DIRECTION('ref_axis',(-0.577350269189625,0.577350269189626,-0.577350269189627));
#386=DIRECTION('center_axis',(0.,0.,-1.));
#387=DIRECTION('ref_axis',(0.,1.,0.));
#388=DIRECTION('center_axis',(-1.,0.,-5.55111512312578E-16));
#389=DIRECTION('ref_axis',(5.55111512312578E-16,0.,-1.));
#390=DIRECTION('center_axis',(0.,1.,0.));
#391=DIRECTION('ref_axis',(-1.,0.,0.));
#392=DIRECTION('center_axis',(0.408248290463863,-0.816496580927726,-0.408248290463863));
#393=DIRECTION('ref_axis',(0.577350269189625,0.577350269189626,-0.577350269189627));
#394=DIRECTION('center_axis',(1.,0.,0.));
#395=DIRECTION('ref_axis',(0.,1.,0.));
#396=DIRECTION('center_axis',(0.,0.,-1.));
#397=DIRECTION('ref_axis',(1.,0.,0.));
#398=DIRECTION('center_axis',(0.,1.,0.));
#399=DIRECTION('ref_axis',(0.,0.,-1.));
#400=DIRECTION('center_axis',(-0.816496580927726,-0.408248290463863,-0.408248290463863));
#401=DIRECTION('ref_axis',(-0.577350269189625,0.577350269189626,0.577350269189626));
#402=DIRECTION('center_axis',(-1.,0.,0.));
#403=DIRECTION('ref_axis',(0.,1.,0.));
#404=DIRECTION('center_axis',(0.,0.,1.));
#405=DIRECTION('ref_axis',(-1.,0.,0.));
#406=DIRECTION('center_axis',(0.,1.,0.));
#407=DIRECTION('ref_axis',(1.38777878078145E-16,0.,1.));
#408=DIRECTION('center_axis',(3.42165330054627E-16,0.,1.));
#409=DIRECTION('ref_axis',(-0.707106781186547,0.707106781186548,0.));
#410=DIRECTION('',(-3.42165330054627E-16,0.,-1.));
#411=DIRECTION('',(3.42165330054627E-16,0.,1.));
#412=DIRECTION('center_axis',(0.,-1.,0.));
#413=DIRECTION('ref_axis',(-0.707106781186547,0.,0.707106781186548));
#414=DIRECTION('center_axis',(0.,1.,0.));
#415=DIRECTION('ref_axis',(-0.707106781186547,0.,0.707106781186548));
#416=DIRECTION('',(0.,1.,0.));
#417=DIRECTION('',(0.,-1.,0.));
#418=DIRECTION('center_axis',(-0.816496580927726,0.408248290463864,0.408248290463862));
#419=DIRECTION('ref_axis',(0.577350269189627,0.577350269189627,0.577350269189624));
#420=DIRECTION('center_axis',(0.,1.,0.));
#421=DIRECTION('ref_axis',(1.,0.,-2.77555756156288E-16));
#422=DIRECTION('center_axis',(2.22044604925031E-15,0.,1.));
#423=DIRECTION('ref_axis',(0.,1.,0.));
#424=DIRECTION('center_axis',(1.,-2.22044604925031E-15,0.));
#425=DIRECTION('ref_axis',(0.,0.,1.));
#426=DIRECTION('center_axis',(-3.33066907387547E-16,0.,-1.));
#427=DIRECTION('ref_axis',(0.707106781186548,0.707106781186547,0.));
#428=DIRECTION('',(3.33066907387547E-16,0.,1.));
#429=DIRECTION('',(-3.33066907387547E-16,0.,-1.));
#430=DIRECTION('center_axis',(1.,0.,-1.11022302462516E-16));
#431=DIRECTION('ref_axis',(0.,0.707106781186548,0.707106781186547));
#432=DIRECTION('',(-1.,0.,1.11022302462516E-16));
#433=DIRECTION('',(1.,0.,-1.11022302462516E-16));
#434=DIRECTION('center_axis',(0.,-1.,0.));
#435=DIRECTION('ref_axis',(0.70710678118655,0.,0.707106781186545));
#436=DIRECTION('center_axis',(0.,1.,0.));
#437=DIRECTION('ref_axis',(0.70710678118655,0.,0.707106781186545));
#438=DIRECTION('',(0.,1.,0.));
#439=DIRECTION('',(0.,-1.,0.));
#440=DIRECTION('center_axis',(0.,-1.,0.));
#441=DIRECTION('ref_axis',(0.707106781186547,0.,-0.707106781186547));
#442=DIRECTION('center_axis',(0.,1.,0.));
#443=DIRECTION('ref_axis',(0.707106781186547,0.,-0.707106781186547));
#444=DIRECTION('',(0.,1.,0.));
#445=DIRECTION('',(0.,-1.,0.));
#446=DIRECTION('center_axis',(-1.,0.,-4.44089209850063E-16));
#447=DIRECTION('ref_axis',(0.,0.707106781186547,-0.707106781186548));
#448=DIRECTION('',(1.,0.,4.44089209850063E-16));
#449=DIRECTION('',(-1.,0.,-4.44089209850063E-16));
#450=DIRECTION('center_axis',(0.,-1.,0.));
#451=DIRECTION('ref_axis',(-0.707106781186547,0.,-0.707106781186548));
#452=DIRECTION('center_axis',(0.,1.,0.));
#453=DIRECTION('ref_axis',(-0.707106781186547,0.,-0.707106781186548));
#454=DIRECTION('',(0.,1.,0.));
#455=DIRECTION('',(0.,-1.,0.));
#456=DIRECTION('center_axis',(-1.,0.,3.42165330054627E-16));
#457=DIRECTION('ref_axis',(-3.42165330054627E-16,0.,-1.));
#458=DIRECTION('',(-3.42165330054627E-16,0.,-1.));
#459=DIRECTION('center_axis',(4.44089209850063E-16,0.,-1.));
#460=DIRECTION('ref_axis',(1.,0.,4.44089209850063E-16));
#461=DIRECTION('',(1.,0.,4.44089209850063E-16));
#462=DIRECTION('center_axis',(0.,-1.,0.));
#463=DIRECTION('ref_axis',(0.,0.,-1.));
#464=DIRECTION('',(3.33066907387547E-16,0.,1.));
#465=DIRECTION('',(-1.,0.,1.11022302462516E-16));
#466=DIRECTION('center_axis',(0.,1.,0.));
#467=DIRECTION('ref_axis',(-1.,0.,0.));
#468=DIRECTION('center_axis',(0.,1.,0.));
#469=DIRECTION('ref_axis',(0.,0.,1.));
#470=DIRECTION('center_axis',(0.,-1.,0.));
#471=DIRECTION('ref_axis',(-1.,0.,0.));
#472=DIRECTION('center_axis',(0.,1.,0.));
#473=DIRECTION('ref_axis',(-1.,0.,0.));
#474=DIRECTION('center_axis',(0.,1.,0.));
#475=DIRECTION('ref_axis',(-1.,0.,0.));
#476=DIRECTION('center_axis',(0.,1.,0.));
#477=DIRECTION('ref_axis',(-1.,0.,0.));
#478=DIRECTION('center_axis',(0.,1.,0.));
#479=DIRECTION('ref_axis',(-1.,0.,0.));
#480=DIRECTION('',(0.,-1.,0.));
#481=DIRECTION('center_axis',(0.,1.,0.));
#482=DIRECTION('ref_axis',(-1.,0.,0.));
#483=DIRECTION('',(0.,-1.,0.));
#484=DIRECTION('center_axis',(1.11022302462516E-16,0.,1.));
#485=DIRECTION('ref_axis',(-1.,0.,1.11022302462516E-16));
#486=DIRECTION('center_axis',(1.,0.,-3.33066907387547E-16));
#487=DIRECTION('ref_axis',(3.33066907387547E-16,0.,1.));
#488=CARTESIAN_POINT('',(0.,0.,0.));
#489=CARTESIAN_POINT('Origin',(0.0393700787401572,-0.0393700787401575,-0.748031496062992));
#490=CARTESIAN_POINT('',(0.0393700787401572,0.,-0.748031496062992));
#491=CARTESIAN_POINT('',(-2.54159415657579E-16,-0.0393700787401575,-0.748031496062992));
#492=CARTESIAN_POINT('Origin',(0.0393700787401572,-0.0393700787401575,-0.748031496062992));
#493=CARTESIAN_POINT('',(0.0393700787401572,-0.0393700787401575,-0.78740157480315));
#494=CARTESIAN_POINT('Origin',(0.0393700787401572,-0.0393700787401575,-0.748031496062992));
#495=CARTESIAN_POINT('Origin',(0.0393700787401572,-0.0393700787401575,-0.748031496062992));
#496=CARTESIAN_POINT('Origin',(0.748031496062992,-0.0393700787401575,-0.748031496062992));
#497=CARTESIAN_POINT('',(0.748031496062992,0.,-0.748031496062992));
#498=CARTESIAN_POINT('',(0.748031496062992,-0.0393700787401575,-0.78740157480315));
#499=CARTESIAN_POINT('Origin',(0.748031496062992,-0.0393700787401575,-0.748031496062992));
#500=CARTESIAN_POINT('',(0.787401574803149,-0.0393700787401575,-0.748031496062992));
#501=CARTESIAN_POINT('Origin',(0.748031496062992,-0.0393700787401575,-0.748031496062992));
#502=CARTESIAN_POINT('Origin',(0.748031496062992,-0.0393700787401575,-0.748031496062992));
#503=CARTESIAN_POINT('Origin',(0.0393700787401575,-0.0393700787401575,-0.0393700787401575));
#504=CARTESIAN_POINT('',(0.0393700787401575,0.,-0.0393700787401575));
#505=CARTESIAN_POINT('',(0.0393700787401575,-0.0393700787401575,-4.37095678986278E-18));
#506=CARTESIAN_POINT('Origin',(0.0393700787401575,-0.0393700787401575,-0.0393700787401575));
#507=CARTESIAN_POINT('',(-1.09273919746571E-17,-0.0393700787401575,-0.0393700787401575));
#508=CARTESIAN_POINT('Origin',(0.0393700787401575,-0.0393700787401575,-0.0393700787401575));
#509=CARTESIAN_POINT('Origin',(0.0393700787401575,-0.0393700787401575,-0.0393700787401575));
#510=CARTESIAN_POINT('Origin',(0.0393700787401574,-0.0393700787401575,-0.196850393700787));
#511=CARTESIAN_POINT('',(0.0393700787401574,0.,-0.196850393700787));
#512=CARTESIAN_POINT('',(-6.55643518479423E-17,-0.0393700787401575,-0.196850393700787));
#513=CARTESIAN_POINT('Origin',(0.0393700787401575,0.,-0.0393700787401575));
#514=CARTESIAN_POINT('',(-1.34710759864027E-17,-0.590551181102362,-0.0393700787401575));
#515=CARTESIAN_POINT('',(0.0393700787401575,-0.590551181102362,-4.37095678986282E-18));
#516=CARTESIAN_POINT('Origin',(0.0393700787401575,-0.590551181102362,-0.0393700787401575));
#517=CARTESIAN_POINT('',(0.0393700787401575,0.,-5.46369598732853E-18));
#518=CARTESIAN_POINT('',(-1.09273919746571E-17,0.,-0.0393700787401575));
#519=CARTESIAN_POINT('Origin',(0.748031496062992,-0.0393700787401575,-0.0393700787401575));
#520=CARTESIAN_POINT('',(0.787401574803149,-0.0393700787401575,-0.0393700787401576));
#521=CARTESIAN_POINT('',(0.748031496062992,-0.0393700787401575,-8.19554398099279E-17));
#522=CARTESIAN_POINT('Origin',(0.748031496062992,-0.0393700787401575,-0.0393700787401576));
#523=CARTESIAN_POINT('',(0.748031496062992,0.,-0.0393700787401575));
#524=CARTESIAN_POINT('Origin',(0.748031496062992,-0.0393700787401575,-0.0393700787401575));
#525=CARTESIAN_POINT('Origin',(0.748031496062992,-0.0393700787401575,-0.0393700787401575));
#526=CARTESIAN_POINT('Origin',(0.748031496062992,-0.0393700787401575,-0.590551181102362));
#527=CARTESIAN_POINT('',(0.748031496062992,0.,-0.590551181102362));
#528=CARTESIAN_POINT('',(0.787401574803149,-0.0393700787401575,-0.590551181102362));
#529=CARTESIAN_POINT('Origin',(0.590551181102362,-0.0393700787401575,-0.0393700787401575));
#530=CARTESIAN_POINT('',(0.590551181102362,0.,-0.0393700787401575));
#531=CARTESIAN_POINT('',(0.590551181102362,-0.0393700787401575,-6.55643518479423E-17));
#532=CARTESIAN_POINT('Origin',(0.748031496062992,0.,-0.0393700787401576));
#533=CARTESIAN_POINT('',(0.748031496062992,-0.590551181102362,-8.30481790073937E-17));
#534=CARTESIAN_POINT('',(0.787401574803149,-0.590551181102362,-0.0393700787401576));
#535=CARTESIAN_POINT('Origin',(0.748031496062992,-0.590551181102362,-0.0393700787401576));
#536=CARTESIAN_POINT('',(0.787401574803149,0.,-0.0393700787401576));
#537=CARTESIAN_POINT('',(0.748031496062992,0.,-8.19554398099279E-17));
#538=CARTESIAN_POINT('Origin',(0.748031496062992,0.,-0.748031496062992));
#539=CARTESIAN_POINT('',(0.787401574803149,-0.590551181102362,-0.748031496062992));
#540=CARTESIAN_POINT('',(0.748031496062992,-0.590551181102362,-0.78740157480315));
#541=CARTESIAN_POINT('Origin',(0.748031496062992,-0.590551181102362,-0.748031496062992));
#542=CARTESIAN_POINT('',(0.748031496062992,0.,-0.78740157480315));
#543=CARTESIAN_POINT('',(0.787401574803149,0.,-0.748031496062992));
#544=CARTESIAN_POINT('Origin',(0.196850393700787,-0.0393700787401575,-0.748031496062992));
#545=CARTESIAN_POINT('',(0.196850393700787,0.,-0.748031496062992));
#546=CARTESIAN_POINT('',(0.196850393700787,-0.0393700787401575,-0.78740157480315));
#547=CARTESIAN_POINT('Origin',(0.0393700787401572,0.,-0.748031496062992));
#548=CARTESIAN_POINT('',(0.0393700787401573,-0.590551181102362,-0.78740157480315));
#549=CARTESIAN_POINT('',(-2.5595044374165E-16,-0.590551181102362,-0.748031496062992));
#550=CARTESIAN_POINT('Origin',(0.0393700787401572,-0.590551181102362,-0.748031496062992));
#551=CARTESIAN_POINT('',(-2.56793711404441E-16,0.,-0.748031496062992));
#552=CARTESIAN_POINT('',(0.0393700787401572,0.,-0.78740157480315));
#553=CARTESIAN_POINT('Origin',(0.,0.,0.));
#554=CARTESIAN_POINT('',(-2.69421519728053E-16,-0.590551181102362,-0.78740157480315));
#555=CARTESIAN_POINT('Origin',(-2.62257407391769E-16,0.,-0.78740157480315));
#556=CARTESIAN_POINT('',(0.787401574803149,-0.590551181102362,-0.78740157480315));
#557=CARTESIAN_POINT('Origin',(0.393700787401575,-0.590551181102362,-0.393700787401575));
#558=CARTESIAN_POINT('',(0.787401574803149,-0.590551181102362,-8.74191357972565E-17));
#559=CARTESIAN_POINT('',(0.,-0.590551181102362,0.));
#560=CARTESIAN_POINT('',(0.460700787401574,-0.590551181102362,-0.393700787401575));
#561=CARTESIAN_POINT('Origin',(0.393700787401574,-0.590551181102362,-0.393700787401575));
#562=CARTESIAN_POINT('Origin',(0.393700787401575,0.,-0.393700787401575));
#563=CARTESIAN_POINT('',(0.521700787401574,0.,-0.393700787401575));
#564=CARTESIAN_POINT('Origin',(0.393700787401574,0.,-0.393700787401575));
#565=CARTESIAN_POINT('Origin',(0.393700787401574,-0.118,-0.393700787401575));
#566=CARTESIAN_POINT('',(0.521700787401574,-0.118,-0.393700787401575));
#567=CARTESIAN_POINT('Origin',(0.393700787401574,-0.118,-0.393700787401575));
#568=CARTESIAN_POINT('',(0.460700787401574,-0.118,-0.393700787401575));
#569=CARTESIAN_POINT('Origin',(0.393700787401574,-0.118,-0.393700787401575));
#570=CARTESIAN_POINT('Origin',(0.393700787401574,-0.059,-0.393700787401575));
#571=CARTESIAN_POINT('',(0.521700787401574,-0.059,-0.393700787401575));
#572=CARTESIAN_POINT('Origin',(0.393700787401574,-1.26045752705371,-0.393700787401575));
#573=CARTESIAN_POINT('',(0.460700787401574,-1.26045752705371,-0.393700787401575));
#574=CARTESIAN_POINT('Origin',(0.787401574803149,0.,-8.74191357972565E-17));
#575=CARTESIAN_POINT('Origin',(0.787401574803149,0.,-0.78740157480315));
#576=UNCERTAINTY_MEASURE_WITH_UNIT(LENGTH_MEASURE(0.000393700787401575),
#582,'DISTANCE_ACCURACY_VALUE',
'Maximum model space distance between geometric entities at asserted c
onnectivities');
#577=UNCERTAINTY_MEASURE_WITH_UNIT(LENGTH_MEASURE(0.000393700787401575),
#582,'DISTANCE_ACCURACY_VALUE',
'Maximum model space distance between geometric entities at asserted c
onnectivities');
#578=(
GEOMETRIC_REPRESENTATION_CONTEXT(3)
GLOBAL_UNCERTAINTY_ASSIGNED_CONTEXT((#576))
GLOBAL_UNIT_ASSIGNED_CONTEXT((#582,#586,#587))
REPRESENTATION_CONTEXT('','3D')
);
#579=(
GEOMETRIC_REPRESENTATION_CONTEXT(3)
GLOBAL_UNCERTAINTY_ASSIGNED_CONTEXT((#577))
GLOBAL_UNIT_ASSIGNED_CONTEXT((#582,#586,#587))
REPRESENTATION_CONTEXT('','3D')
);
#580=DIMENSIONAL_EXPONENTS(1.,0.,0.,0.,0.,0.,0.);
#581=DIMENSIONAL_EXPONENTS(0.,1.,0.,0.,0.,0.,0.);
#582=(
CONVERSION_BASED_UNIT('inch',#585)
LENGTH_UNIT()
NAMED_UNIT(#580)
);
#583=(
LENGTH_UNIT()
NAMED_UNIT(*)
SI_UNIT(.MILLI.,.METRE.)
);
#584=(
LENGTH_UNIT()
NAMED_UNIT(*)
SI_UNIT(.CENTI.,.METRE.)
);
#585=LENGTH_MEASURE_WITH_UNIT(LENGTH_MEASURE(25.4),#583);
#586=(
NAMED_UNIT(*)
PLANE_ANGLE_UNIT()
SI_UNIT($,.RADIAN.)
);
#587=(
NAMED_UNIT(*)
SI_UNIT($,.STERADIAN.)
SOLID_ANGLE_UNIT()
);
#588=SHAPE_DEFINITION_REPRESENTATION(#589,#590);
#589=PRODUCT_DEFINITION_SHAPE('',$,#592);
#590=SHAPE_REPRESENTATION('',(#340),#578);
#591=PRODUCT_DEFINITION_CONTEXT('part definition',#596,'design');
#592=PRODUCT_DEFINITION('Part4','Part4',#593,#591);
#593=PRODUCT_DEFINITION_FORMATION('',$,#598);
#594=PRODUCT_RELATED_PRODUCT_CATEGORY('Part4','Part4',(#598));
#595=APPLICATION_PROTOCOL_DEFINITION('international standard',
'automotive_design',2009,#596);
#596=APPLICATION_CONTEXT(
'Core Data for Automotive Mechanical Design Process');
#597=PRODUCT_CONTEXT('part definition',#596,'mechanical');
#598=PRODUCT('Part4','Part4',$,(#597));
#599=PRESENTATION_STYLE_ASSIGNMENT((#600));
#600=SURFACE_STYLE_USAGE(.BOTH.,#603);
#601=SURFACE_STYLE_RENDERING_WITH_PROPERTIES($,#607,(#602));
#602=SURFACE_STYLE_TRANSPARENT(0.);
#603=SURFACE_SIDE_STYLE('',(#604,#601));
#604=SURFACE_STYLE_FILL_AREA(#605);
#605=FILL_AREA_STYLE('',(#606));
#606=FILL_AREA_STYLE_COLOUR('',#607);
#607=COLOUR_RGB('',0.749019607843137,0.749019607843137,0.749019607843137);
ENDSEC;
END-ISO-10303-21;
