ISO-10303-21;
HEADER;
/* Generated by software containing ST-Developer
 * from STEP Tools, Inc. (www.steptools.com) 
 */

FILE_DESCRIPTION(
/* description */ (''),
/* implementation_level */ '2;1');

FILE_NAME(
/* name */ 'T Nut Adapter.stp',
/* time_stamp */ '2026-07-25T15:11:09-04:00',
/* author */ ('JoshuaEah'),
/* organization */ (''),
/* preprocessor_version */ 'ST-DEVELOPER v20.1',
/* originating_system */ 'Autodesk Inventor 2026',
/* authorisation */ '');

FILE_SCHEMA (('AUTOMOTIVE_DESIGN { 1 0 10303 214 3 1 1 }'));
ENDSEC;

DATA;
#10=MECHANICAL_DESIGN_GEOMETRIC_PRESENTATION_REPRESENTATION('',(#13),#1168);
#11=SHAPE_REPRESENTATION_RELATIONSHIP('SRR','None',#1179,#12);
#12=ADVANCED_BREP_SHAPE_REPRESENTATION('',(#14),#1167);
#13=STYLED_ITEM('',(#1188),#14);
#14=MANIFOLD_SOLID_BREP('Solid1',#668);
#15=FACE_BOUND('',#126,.T.);
#16=FACE_BOUND('',#128,.T.);
#17=ELLIPSE('',#720,0.0787401574803149,0.0393700787401575);
#18=ELLIPSE('',#723,0.0787401574803149,0.0393700787401575);
#19=ELLIPSE('',#750,0.078740157480315,0.0393700787401575);
#20=ELLIPSE('',#753,0.078740157480315,0.0393700787401575);
#21=PLANE('',#718);
#22=PLANE('',#721);
#23=PLANE('',#724);
#24=PLANE('',#727);
#25=PLANE('',#751);
#26=PLANE('',#754);
#27=PLANE('',#755);
#28=PLANE('',#756);
#29=PLANE('',#757);
#30=PLANE('',#758);
#31=PLANE('',#759);
#32=PLANE('',#760);
#33=PLANE('',#761);
#34=PLANE('',#762);
#35=PLANE('',#763);
#36=PLANE('',#764);
#37=SPHERICAL_SURFACE('',#708,0.0393700787401575);
#38=SPHERICAL_SURFACE('',#710,0.0393700787401575);
#39=SPHERICAL_SURFACE('',#712,0.0393700787401575);
#40=SPHERICAL_SURFACE('',#714,0.0393700787401575);
#41=SPHERICAL_SURFACE('',#743,0.0393700787401575);
#42=SPHERICAL_SURFACE('',#744,0.0393700787401575);
#43=SPHERICAL_SURFACE('',#746,0.0393700787401575);
#44=SPHERICAL_SURFACE('',#748,0.0393700787401575);
#45=FACE_OUTER_BOUND('',#86,.T.);
#46=FACE_OUTER_BOUND('',#87,.T.);
#47=FACE_OUTER_BOUND('',#88,.T.);
#48=FACE_OUTER_BOUND('',#89,.T.);
#49=FACE_OUTER_BOUND('',#90,.T.);
#50=FACE_OUTER_BOUND('',#91,.T.);
#51=FACE_OUTER_BOUND('',#92,.T.);
#52=FACE_OUTER_BOUND('',#93,.T.);
#53=FACE_OUTER_BOUND('',#94,.T.);
#54=FACE_OUTER_BOUND('',#95,.T.);
#55=FACE_OUTER_BOUND('',#96,.T.);
#56=FACE_OUTER_BOUND('',#97,.T.);
#57=FACE_OUTER_BOUND('',#98,.T.);
#58=FACE_OUTER_BOUND('',#99,.T.);
#59=FACE_OUTER_BOUND('',#100,.T.);
#60=FACE_OUTER_BOUND('',#101,.T.);
#61=FACE_OUTER_BOUND('',#102,.T.);
#62=FACE_OUTER_BOUND('',#103,.T.);
#63=FACE_OUTER_BOUND('',#104,.T.);
#64=FACE_OUTER_BOUND('',#105,.T.);
#65=FACE_OUTER_BOUND('',#106,.T.);
#66=FACE_OUTER_BOUND('',#107,.T.);
#67=FACE_OUTER_BOUND('',#108,.T.);
#68=FACE_OUTER_BOUND('',#109,.T.);
#69=FACE_OUTER_BOUND('',#110,.T.);
#70=FACE_OUTER_BOUND('',#111,.T.);
#71=FACE_OUTER_BOUND('',#112,.T.);
#72=FACE_OUTER_BOUND('',#113,.T.);
#73=FACE_OUTER_BOUND('',#114,.T.);
#74=FACE_OUTER_BOUND('',#115,.T.);
#75=FACE_OUTER_BOUND('',#116,.T.);
#76=FACE_OUTER_BOUND('',#117,.T.);
#77=FACE_OUTER_BOUND('',#118,.T.);
#78=FACE_OUTER_BOUND('',#119,.T.);
#79=FACE_OUTER_BOUND('',#120,.T.);
#80=FACE_OUTER_BOUND('',#121,.T.);
#81=FACE_OUTER_BOUND('',#122,.T.);
#82=FACE_OUTER_BOUND('',#123,.T.);
#83=FACE_OUTER_BOUND('',#124,.T.);
#84=FACE_OUTER_BOUND('',#125,.T.);
#85=FACE_OUTER_BOUND('',#127,.T.);
#86=EDGE_LOOP('',(#424,#425,#426,#427));
#87=EDGE_LOOP('',(#428,#429,#430,#431));
#88=EDGE_LOOP('',(#432,#433,#434,#435));
#89=EDGE_LOOP('',(#436,#437,#438,#439));
#90=EDGE_LOOP('',(#440,#441,#442,#443));
#91=EDGE_LOOP('',(#444,#445,#446,#447));
#92=EDGE_LOOP('',(#448,#449,#450));
#93=EDGE_LOOP('',(#451,#452,#453));
#94=EDGE_LOOP('',(#454,#455,#456));
#95=EDGE_LOOP('',(#457,#458,#459));
#96=EDGE_LOOP('',(#460,#461,#462,#463));
#97=EDGE_LOOP('',(#464,#465,#466,#467,#468,#469,#470));
#98=EDGE_LOOP('',(#471,#472,#473,#474));
#99=EDGE_LOOP('',(#475,#476,#477,#478,#479,#480));
#100=EDGE_LOOP('',(#481,#482,#483,#484));
#101=EDGE_LOOP('',(#485,#486,#487,#488,#489,#490,#491));
#102=EDGE_LOOP('',(#492,#493,#494,#495));
#103=EDGE_LOOP('',(#496,#497,#498,#499));
#104=EDGE_LOOP('',(#500,#501,#502,#503));
#105=EDGE_LOOP('',(#504,#505,#506,#507));
#106=EDGE_LOOP('',(#508,#509,#510,#511));
#107=EDGE_LOOP('',(#512,#513,#514,#515));
#108=EDGE_LOOP('',(#516,#517,#518,#519));
#109=EDGE_LOOP('',(#520,#521,#522));
#110=EDGE_LOOP('',(#523,#524,#525));
#111=EDGE_LOOP('',(#526,#527,#528));
#112=EDGE_LOOP('',(#529,#530,#531));
#113=EDGE_LOOP('',(#532,#533,#534,#535));
#114=EDGE_LOOP('',(#536,#537,#538,#539,#540,#541));
#115=EDGE_LOOP('',(#542,#543,#544,#545));
#116=EDGE_LOOP('',(#546,#547,#548,#549));
#117=EDGE_LOOP('',(#550,#551,#552,#553,#554,#555));
#118=EDGE_LOOP('',(#556,#557,#558,#559,#560,#561));
#119=EDGE_LOOP('',(#562,#563,#564,#565,#566,#567));
#120=EDGE_LOOP('',(#568,#569,#570,#571,#572,#573));
#121=EDGE_LOOP('',(#574,#575,#576,#577,#578,#579));
#122=EDGE_LOOP('',(#580,#581,#582,#583));
#123=EDGE_LOOP('',(#584,#585,#586,#587));
#124=EDGE_LOOP('',(#588,#589,#590,#591,#592,#593));
#125=EDGE_LOOP('',(#594,#595,#596,#597,#598,#599));
#126=EDGE_LOOP('',(#600));
#127=EDGE_LOOP('',(#601,#602,#603,#604,#605,#606,#607,#608));
#128=EDGE_LOOP('',(#609));
#129=LINE('',#981,#188);
#130=LINE('',#988,#189);
#131=LINE('',#991,#190);
#132=LINE('',#996,#191);
#133=LINE('',#999,#192);
#134=LINE('',#1004,#193);
#135=LINE('',#1007,#194);
#136=LINE('',#1012,#195);
#137=LINE('',#1015,#196);
#138=LINE('',#1021,#197);
#139=LINE('',#1023,#198);
#140=LINE('',#1034,#199);
#141=LINE('',#1037,#200);
#142=LINE('',#1040,#201);
#143=LINE('',#1042,#202);
#144=LINE('',#1044,#203);
#145=LINE('',#1046,#204);
#146=LINE('',#1047,#205);
#147=LINE('',#1050,#206);
#148=LINE('',#1054,#207);
#149=LINE('',#1056,#208);
#150=LINE('',#1058,#209);
#151=LINE('',#1059,#210);
#152=LINE('',#1062,#211);
#153=LINE('',#1066,#212);
#154=LINE('',#1068,#213);
#155=LINE('',#1070,#214);
#156=LINE('',#1072,#215);
#157=LINE('',#1073,#216);
#158=LINE('',#1076,#217);
#159=LINE('',#1080,#218);
#160=LINE('',#1081,#219);
#161=LINE('',#1086,#220);
#162=LINE('',#1092,#221);
#163=LINE('',#1098,#222);
#164=LINE('',#1100,#223);
#165=LINE('',#1105,#224);
#166=LINE('',#1110,#225);
#167=LINE('',#1112,#226);
#168=LINE('',#1121,#227);
#169=LINE('',#1125,#228);
#170=LINE('',#1127,#229);
#171=LINE('',#1129,#230);
#172=LINE('',#1130,#231);
#173=LINE('',#1134,#232);
#174=LINE('',#1136,#233);
#175=LINE('',#1139,#234);
#176=LINE('',#1141,#235);
#177=LINE('',#1142,#236);
#178=LINE('',#1144,#237);
#179=LINE('',#1147,#238);
#180=LINE('',#1149,#239);
#181=LINE('',#1150,#240);
#182=LINE('',#1153,#241);
#183=LINE('',#1154,#242);
#184=LINE('',#1156,#243);
#185=LINE('',#1159,#244);
#186=LINE('',#1160,#245);
#187=LINE('',#1162,#246);
#188=VECTOR('',#771,0.067);
#189=VECTOR('',#778,0.393700787401575);
#190=VECTOR('',#781,0.393700787401575);
#191=VECTOR('',#786,0.393700787401575);
#192=VECTOR('',#789,0.393700787401575);
#193=VECTOR('',#794,0.393700787401575);
#194=VECTOR('',#797,0.393700787401575);
#195=VECTOR('',#802,0.393700787401575);
#196=VECTOR('',#805,0.393700787401575);
#197=VECTOR('',#810,0.393700787401575);
#198=VECTOR('',#813,0.393700787401575);
#199=VECTOR('',#832,0.393700787401575);
#200=VECTOR('',#835,0.393700787401575);
#201=VECTOR('',#838,0.393700787401575);
#202=VECTOR('',#839,0.393700787401575);
#203=VECTOR('',#840,0.393700787401575);
#204=VECTOR('',#841,0.393700787401575);
#205=VECTOR('',#842,0.393700787401575);
#206=VECTOR('',#845,0.393700787401575);
#207=VECTOR('',#850,0.393700787401575);
#208=VECTOR('',#851,0.393700787401575);
#209=VECTOR('',#852,0.393700787401575);
#210=VECTOR('',#853,0.393700787401575);
#211=VECTOR('',#856,0.393700787401575);
#212=VECTOR('',#861,0.393700787401575);
#213=VECTOR('',#862,0.393700787401575);
#214=VECTOR('',#863,0.393700787401575);
#215=VECTOR('',#864,0.393700787401575);
#216=VECTOR('',#865,0.393700787401575);
#217=VECTOR('',#868,0.393700787401575);
#218=VECTOR('',#873,0.393700787401575);
#219=VECTOR('',#874,0.393700787401575);
#220=VECTOR('',#879,0.393700787401575);
#221=VECTOR('',#888,0.393700787401575);
#222=VECTOR('',#893,0.393700787401575);
#223=VECTOR('',#896,0.393700787401575);
#224=VECTOR('',#903,0.393700787401575);
#225=VECTOR('',#908,0.393700787401575);
#226=VECTOR('',#911,0.393700787401575);
#227=VECTOR('',#926,0.393700787401575);
#228=VECTOR('',#931,0.393700787401575);
#229=VECTOR('',#932,0.393700787401575);
#230=VECTOR('',#933,0.393700787401575);
#231=VECTOR('',#934,0.393700787401575);
#232=VECTOR('',#941,0.393700787401575);
#233=VECTOR('',#944,0.393700787401575);
#234=VECTOR('',#947,0.393700787401575);
#235=VECTOR('',#948,0.393700787401575);
#236=VECTOR('',#949,0.393700787401575);
#237=VECTOR('',#952,0.393700787401575);
#238=VECTOR('',#955,0.393700787401575);
#239=VECTOR('',#956,0.393700787401575);
#240=VECTOR('',#957,0.393700787401575);
#241=VECTOR('',#960,0.393700787401575);
#242=VECTOR('',#961,0.393700787401575);
#243=VECTOR('',#964,0.393700787401575);
#244=VECTOR('',#967,0.393700787401575);
#245=VECTOR('',#968,0.393700787401575);
#246=VECTOR('',#971,0.393700787401575);
#247=CIRCLE('',#691,0.067);
#248=CIRCLE('',#692,0.067);
#249=CIRCLE('',#694,0.0393700787401575);
#250=CIRCLE('',#695,0.0393700787401575);
#251=CIRCLE('',#697,0.0393700787401575);
#252=CIRCLE('',#698,0.0393700787401575);
#253=CIRCLE('',#700,0.0393700787401575);
#254=CIRCLE('',#701,0.0393700787401575);
#255=CIRCLE('',#703,0.0393700787401575);
#256=CIRCLE('',#704,0.0393700787401575);
#257=CIRCLE('',#706,0.0393700787401575);
#258=CIRCLE('',#707,0.0393700787401575);
#259=CIRCLE('',#709,0.0393700787401575);
#260=CIRCLE('',#711,0.0393700787401575);
#261=CIRCLE('',#713,0.0393700787401575);
#262=CIRCLE('',#715,0.0393700787401574);
#263=CIRCLE('',#717,0.0393700787401575);
#264=CIRCLE('',#726,0.0393700787401575);
#265=CIRCLE('',#729,0.0393700787401575);
#266=CIRCLE('',#730,0.0393700787401575);
#267=CIRCLE('',#732,0.0393700787401575);
#268=CIRCLE('',#733,0.0393700787401575);
#269=CIRCLE('',#735,0.0393700787401575);
#270=CIRCLE('',#736,0.0393700787401575);
#271=CIRCLE('',#738,0.0393700787401575);
#272=CIRCLE('',#739,0.0393700787401575);
#273=CIRCLE('',#741,0.0393700787401575);
#274=CIRCLE('',#742,0.0393700787401575);
#275=CIRCLE('',#745,0.0393700787401575);
#276=CIRCLE('',#747,0.0393700787401575);
#277=VERTEX_POINT('',#978);
#278=VERTEX_POINT('',#980);
#279=VERTEX_POINT('',#984);
#280=VERTEX_POINT('',#985);
#281=VERTEX_POINT('',#987);
#282=VERTEX_POINT('',#989);
#283=VERTEX_POINT('',#993);
#284=VERTEX_POINT('',#995);
#285=VERTEX_POINT('',#997);
#286=VERTEX_POINT('',#1001);
#287=VERTEX_POINT('',#1003);
#288=VERTEX_POINT('',#1005);
#289=VERTEX_POINT('',#1009);
#290=VERTEX_POINT('',#1011);
#291=VERTEX_POINT('',#1013);
#292=VERTEX_POINT('',#1017);
#293=VERTEX_POINT('',#1018);
#294=VERTEX_POINT('',#1020);
#295=VERTEX_POINT('',#1033);
#296=VERTEX_POINT('',#1035);
#297=VERTEX_POINT('',#1039);
#298=VERTEX_POINT('',#1041);
#299=VERTEX_POINT('',#1043);
#300=VERTEX_POINT('',#1045);
#301=VERTEX_POINT('',#1049);
#302=VERTEX_POINT('',#1053);
#303=VERTEX_POINT('',#1055);
#304=VERTEX_POINT('',#1057);
#305=VERTEX_POINT('',#1061);
#306=VERTEX_POINT('',#1065);
#307=VERTEX_POINT('',#1067);
#308=VERTEX_POINT('',#1069);
#309=VERTEX_POINT('',#1071);
#310=VERTEX_POINT('',#1075);
#311=VERTEX_POINT('',#1079);
#312=VERTEX_POINT('',#1083);
#313=VERTEX_POINT('',#1085);
#314=VERTEX_POINT('',#1089);
#315=VERTEX_POINT('',#1094);
#316=VERTEX_POINT('',#1095);
#317=VERTEX_POINT('',#1097);
#318=VERTEX_POINT('',#1102);
#319=VERTEX_POINT('',#1107);
#320=VERTEX_POINT('',#1108);
#321=VERTEX_POINT('',#1120);
#322=VERTEX_POINT('',#1124);
#323=VERTEX_POINT('',#1126);
#324=VERTEX_POINT('',#1128);
#325=VERTEX_POINT('',#1138);
#326=VERTEX_POINT('',#1140);
#327=VERTEX_POINT('',#1146);
#328=VERTEX_POINT('',#1148);
#329=VERTEX_POINT('',#1152);
#330=VERTEX_POINT('',#1158);
#331=EDGE_CURVE('',#277,#277,#247,.T.);
#332=EDGE_CURVE('',#277,#278,#129,.T.);
#333=EDGE_CURVE('',#278,#278,#248,.T.);
#334=EDGE_CURVE('',#279,#280,#249,.T.);
#335=EDGE_CURVE('',#280,#281,#130,.T.);
#336=EDGE_CURVE('',#281,#282,#250,.T.);
#337=EDGE_CURVE('',#282,#279,#131,.T.);
#338=EDGE_CURVE('',#283,#281,#251,.T.);
#339=EDGE_CURVE('',#281,#284,#132,.T.);
#340=EDGE_CURVE('',#284,#285,#252,.T.);
#341=EDGE_CURVE('',#285,#283,#133,.T.);
#342=EDGE_CURVE('',#286,#284,#253,.T.);
#343=EDGE_CURVE('',#284,#287,#134,.T.);
#344=EDGE_CURVE('',#287,#288,#254,.T.);
#345=EDGE_CURVE('',#288,#286,#135,.T.);
#346=EDGE_CURVE('',#289,#287,#255,.T.);
#347=EDGE_CURVE('',#287,#290,#136,.T.);
#348=EDGE_CURVE('',#290,#291,#256,.T.);
#349=EDGE_CURVE('',#291,#289,#137,.T.);
#350=EDGE_CURVE('',#292,#293,#257,.T.);
#351=EDGE_CURVE('',#293,#294,#138,.T.);
#352=EDGE_CURVE('',#294,#290,#258,.T.);
#353=EDGE_CURVE('',#290,#292,#139,.T.);
#354=EDGE_CURVE('',#294,#291,#259,.T.);
#355=EDGE_CURVE('',#289,#288,#260,.T.);
#356=EDGE_CURVE('',#286,#285,#261,.T.);
#357=EDGE_CURVE('',#283,#282,#262,.T.);
#358=EDGE_CURVE('',#283,#295,#140,.T.);
#359=EDGE_CURVE('',#296,#295,#263,.T.);
#360=EDGE_CURVE('',#296,#282,#141,.T.);
#361=EDGE_CURVE('',#297,#285,#142,.T.);
#362=EDGE_CURVE('',#297,#298,#143,.T.);
#363=EDGE_CURVE('',#298,#299,#144,.T.);
#364=EDGE_CURVE('',#300,#299,#145,.T.);
#365=EDGE_CURVE('',#295,#300,#146,.T.);
#366=EDGE_CURVE('',#286,#301,#147,.T.);
#367=EDGE_CURVE('',#301,#297,#17,.T.);
#368=EDGE_CURVE('',#302,#288,#148,.T.);
#369=EDGE_CURVE('',#302,#303,#149,.T.);
#370=EDGE_CURVE('',#303,#304,#150,.T.);
#371=EDGE_CURVE('',#304,#301,#151,.T.);
#372=EDGE_CURVE('',#289,#305,#152,.T.);
#373=EDGE_CURVE('',#305,#302,#18,.T.);
#374=EDGE_CURVE('',#306,#291,#153,.T.);
#375=EDGE_CURVE('',#307,#306,#154,.T.);
#376=EDGE_CURVE('',#308,#307,#155,.T.);
#377=EDGE_CURVE('',#308,#309,#156,.T.);
#378=EDGE_CURVE('',#309,#305,#157,.T.);
#379=EDGE_CURVE('',#294,#310,#158,.T.);
#380=EDGE_CURVE('',#306,#310,#264,.T.);
#381=EDGE_CURVE('',#311,#293,#159,.T.);
#382=EDGE_CURVE('',#310,#311,#160,.T.);
#383=EDGE_CURVE('',#311,#312,#265,.T.);
#384=EDGE_CURVE('',#312,#313,#161,.T.);
#385=EDGE_CURVE('',#313,#310,#266,.T.);
#386=EDGE_CURVE('',#314,#307,#267,.T.);
#387=EDGE_CURVE('',#306,#313,#268,.T.);
#388=EDGE_CURVE('',#313,#314,#162,.T.);
#389=EDGE_CURVE('',#315,#316,#269,.T.);
#390=EDGE_CURVE('',#316,#317,#163,.T.);
#391=EDGE_CURVE('',#317,#314,#270,.T.);
#392=EDGE_CURVE('',#314,#315,#164,.T.);
#393=EDGE_CURVE('',#318,#295,#271,.T.);
#394=EDGE_CURVE('',#300,#315,#272,.T.);
#395=EDGE_CURVE('',#315,#318,#165,.T.);
#396=EDGE_CURVE('',#319,#320,#273,.T.);
#397=EDGE_CURVE('',#320,#296,#166,.T.);
#398=EDGE_CURVE('',#296,#318,#274,.T.);
#399=EDGE_CURVE('',#318,#319,#167,.T.);
#400=EDGE_CURVE('',#300,#316,#275,.T.);
#401=EDGE_CURVE('',#317,#307,#276,.T.);
#402=EDGE_CURVE('',#317,#321,#168,.T.);
#403=EDGE_CURVE('',#321,#308,#19,.T.);
#404=EDGE_CURVE('',#322,#316,#169,.T.);
#405=EDGE_CURVE('',#322,#323,#170,.T.);
#406=EDGE_CURVE('',#323,#324,#171,.T.);
#407=EDGE_CURVE('',#324,#321,#172,.T.);
#408=EDGE_CURVE('',#299,#322,#20,.T.);
#409=EDGE_CURVE('',#279,#320,#173,.T.);
#410=EDGE_CURVE('',#292,#280,#174,.T.);
#411=EDGE_CURVE('',#325,#309,#175,.T.);
#412=EDGE_CURVE('',#325,#326,#176,.T.);
#413=EDGE_CURVE('',#326,#303,#177,.T.);
#414=EDGE_CURVE('',#319,#312,#178,.T.);
#415=EDGE_CURVE('',#327,#298,#179,.T.);
#416=EDGE_CURVE('',#327,#328,#180,.T.);
#417=EDGE_CURVE('',#328,#323,#181,.T.);
#418=EDGE_CURVE('',#329,#324,#182,.T.);
#419=EDGE_CURVE('',#329,#325,#183,.T.);
#420=EDGE_CURVE('',#328,#329,#184,.T.);
#421=EDGE_CURVE('',#326,#330,#185,.T.);
#422=EDGE_CURVE('',#330,#304,#186,.T.);
#423=EDGE_CURVE('',#330,#327,#187,.T.);
#424=ORIENTED_EDGE('',*,*,#331,.F.);
#425=ORIENTED_EDGE('',*,*,#332,.T.);
#426=ORIENTED_EDGE('',*,*,#333,.F.);
#427=ORIENTED_EDGE('',*,*,#332,.F.);
#428=ORIENTED_EDGE('',*,*,#334,.T.);
#429=ORIENTED_EDGE('',*,*,#335,.T.);
#430=ORIENTED_EDGE('',*,*,#336,.T.);
#431=ORIENTED_EDGE('',*,*,#337,.T.);
#432=ORIENTED_EDGE('',*,*,#338,.T.);
#433=ORIENTED_EDGE('',*,*,#339,.T.);
#434=ORIENTED_EDGE('',*,*,#340,.T.);
#435=ORIENTED_EDGE('',*,*,#341,.T.);
#436=ORIENTED_EDGE('',*,*,#342,.T.);
#437=ORIENTED_EDGE('',*,*,#343,.T.);
#438=ORIENTED_EDGE('',*,*,#344,.T.);
#439=ORIENTED_EDGE('',*,*,#345,.T.);
#440=ORIENTED_EDGE('',*,*,#346,.T.);
#441=ORIENTED_EDGE('',*,*,#347,.T.);
#442=ORIENTED_EDGE('',*,*,#348,.T.);
#443=ORIENTED_EDGE('',*,*,#349,.T.);
#444=ORIENTED_EDGE('',*,*,#350,.T.);
#445=ORIENTED_EDGE('',*,*,#351,.T.);
#446=ORIENTED_EDGE('',*,*,#352,.T.);
#447=ORIENTED_EDGE('',*,*,#353,.T.);
#448=ORIENTED_EDGE('',*,*,#352,.F.);
#449=ORIENTED_EDGE('',*,*,#354,.T.);
#450=ORIENTED_EDGE('',*,*,#348,.F.);
#451=ORIENTED_EDGE('',*,*,#346,.F.);
#452=ORIENTED_EDGE('',*,*,#355,.T.);
#453=ORIENTED_EDGE('',*,*,#344,.F.);
#454=ORIENTED_EDGE('',*,*,#342,.F.);
#455=ORIENTED_EDGE('',*,*,#356,.T.);
#456=ORIENTED_EDGE('',*,*,#340,.F.);
#457=ORIENTED_EDGE('',*,*,#338,.F.);
#458=ORIENTED_EDGE('',*,*,#357,.T.);
#459=ORIENTED_EDGE('',*,*,#336,.F.);
#460=ORIENTED_EDGE('',*,*,#357,.F.);
#461=ORIENTED_EDGE('',*,*,#358,.T.);
#462=ORIENTED_EDGE('',*,*,#359,.F.);
#463=ORIENTED_EDGE('',*,*,#360,.T.);
#464=ORIENTED_EDGE('',*,*,#341,.F.);
#465=ORIENTED_EDGE('',*,*,#361,.F.);
#466=ORIENTED_EDGE('',*,*,#362,.T.);
#467=ORIENTED_EDGE('',*,*,#363,.T.);
#468=ORIENTED_EDGE('',*,*,#364,.F.);
#469=ORIENTED_EDGE('',*,*,#365,.F.);
#470=ORIENTED_EDGE('',*,*,#358,.F.);
#471=ORIENTED_EDGE('',*,*,#356,.F.);
#472=ORIENTED_EDGE('',*,*,#366,.T.);
#473=ORIENTED_EDGE('',*,*,#367,.T.);
#474=ORIENTED_EDGE('',*,*,#361,.T.);
#475=ORIENTED_EDGE('',*,*,#345,.F.);
#476=ORIENTED_EDGE('',*,*,#368,.F.);
#477=ORIENTED_EDGE('',*,*,#369,.T.);
#478=ORIENTED_EDGE('',*,*,#370,.T.);
#479=ORIENTED_EDGE('',*,*,#371,.T.);
#480=ORIENTED_EDGE('',*,*,#366,.F.);
#481=ORIENTED_EDGE('',*,*,#355,.F.);
#482=ORIENTED_EDGE('',*,*,#372,.T.);
#483=ORIENTED_EDGE('',*,*,#373,.T.);
#484=ORIENTED_EDGE('',*,*,#368,.T.);
#485=ORIENTED_EDGE('',*,*,#349,.F.);
#486=ORIENTED_EDGE('',*,*,#374,.F.);
#487=ORIENTED_EDGE('',*,*,#375,.F.);
#488=ORIENTED_EDGE('',*,*,#376,.F.);
#489=ORIENTED_EDGE('',*,*,#377,.T.);
#490=ORIENTED_EDGE('',*,*,#378,.T.);
#491=ORIENTED_EDGE('',*,*,#372,.F.);
#492=ORIENTED_EDGE('',*,*,#354,.F.);
#493=ORIENTED_EDGE('',*,*,#379,.T.);
#494=ORIENTED_EDGE('',*,*,#380,.F.);
#495=ORIENTED_EDGE('',*,*,#374,.T.);
#496=ORIENTED_EDGE('',*,*,#351,.F.);
#497=ORIENTED_EDGE('',*,*,#381,.F.);
#498=ORIENTED_EDGE('',*,*,#382,.F.);
#499=ORIENTED_EDGE('',*,*,#379,.F.);
#500=ORIENTED_EDGE('',*,*,#383,.T.);
#501=ORIENTED_EDGE('',*,*,#384,.T.);
#502=ORIENTED_EDGE('',*,*,#385,.T.);
#503=ORIENTED_EDGE('',*,*,#382,.T.);
#504=ORIENTED_EDGE('',*,*,#386,.T.);
#505=ORIENTED_EDGE('',*,*,#375,.T.);
#506=ORIENTED_EDGE('',*,*,#387,.T.);
#507=ORIENTED_EDGE('',*,*,#388,.T.);
#508=ORIENTED_EDGE('',*,*,#389,.T.);
#509=ORIENTED_EDGE('',*,*,#390,.T.);
#510=ORIENTED_EDGE('',*,*,#391,.T.);
#511=ORIENTED_EDGE('',*,*,#392,.T.);
#512=ORIENTED_EDGE('',*,*,#393,.T.);
#513=ORIENTED_EDGE('',*,*,#365,.T.);
#514=ORIENTED_EDGE('',*,*,#394,.T.);
#515=ORIENTED_EDGE('',*,*,#395,.T.);
#516=ORIENTED_EDGE('',*,*,#396,.T.);
#517=ORIENTED_EDGE('',*,*,#397,.T.);
#518=ORIENTED_EDGE('',*,*,#398,.T.);
#519=ORIENTED_EDGE('',*,*,#399,.T.);
#520=ORIENTED_EDGE('',*,*,#398,.F.);
#521=ORIENTED_EDGE('',*,*,#359,.T.);
#522=ORIENTED_EDGE('',*,*,#393,.F.);
#523=ORIENTED_EDGE('',*,*,#394,.F.);
#524=ORIENTED_EDGE('',*,*,#400,.T.);
#525=ORIENTED_EDGE('',*,*,#389,.F.);
#526=ORIENTED_EDGE('',*,*,#391,.F.);
#527=ORIENTED_EDGE('',*,*,#401,.T.);
#528=ORIENTED_EDGE('',*,*,#386,.F.);
#529=ORIENTED_EDGE('',*,*,#387,.F.);
#530=ORIENTED_EDGE('',*,*,#380,.T.);
#531=ORIENTED_EDGE('',*,*,#385,.F.);
#532=ORIENTED_EDGE('',*,*,#401,.F.);
#533=ORIENTED_EDGE('',*,*,#402,.T.);
#534=ORIENTED_EDGE('',*,*,#403,.T.);
#535=ORIENTED_EDGE('',*,*,#376,.T.);
#536=ORIENTED_EDGE('',*,*,#390,.F.);
#537=ORIENTED_EDGE('',*,*,#404,.F.);
#538=ORIENTED_EDGE('',*,*,#405,.T.);
#539=ORIENTED_EDGE('',*,*,#406,.T.);
#540=ORIENTED_EDGE('',*,*,#407,.T.);
#541=ORIENTED_EDGE('',*,*,#402,.F.);
#542=ORIENTED_EDGE('',*,*,#400,.F.);
#543=ORIENTED_EDGE('',*,*,#364,.T.);
#544=ORIENTED_EDGE('',*,*,#408,.T.);
#545=ORIENTED_EDGE('',*,*,#404,.T.);
#546=ORIENTED_EDGE('',*,*,#337,.F.);
#547=ORIENTED_EDGE('',*,*,#360,.F.);
#548=ORIENTED_EDGE('',*,*,#397,.F.);
#549=ORIENTED_EDGE('',*,*,#409,.F.);
#550=ORIENTED_EDGE('',*,*,#335,.F.);
#551=ORIENTED_EDGE('',*,*,#410,.F.);
#552=ORIENTED_EDGE('',*,*,#353,.F.);
#553=ORIENTED_EDGE('',*,*,#347,.F.);
#554=ORIENTED_EDGE('',*,*,#343,.F.);
#555=ORIENTED_EDGE('',*,*,#339,.F.);
#556=ORIENTED_EDGE('',*,*,#373,.F.);
#557=ORIENTED_EDGE('',*,*,#378,.F.);
#558=ORIENTED_EDGE('',*,*,#411,.F.);
#559=ORIENTED_EDGE('',*,*,#412,.T.);
#560=ORIENTED_EDGE('',*,*,#413,.T.);
#561=ORIENTED_EDGE('',*,*,#369,.F.);
#562=ORIENTED_EDGE('',*,*,#384,.F.);
#563=ORIENTED_EDGE('',*,*,#414,.F.);
#564=ORIENTED_EDGE('',*,*,#399,.F.);
#565=ORIENTED_EDGE('',*,*,#395,.F.);
#566=ORIENTED_EDGE('',*,*,#392,.F.);
#567=ORIENTED_EDGE('',*,*,#388,.F.);
#568=ORIENTED_EDGE('',*,*,#408,.F.);
#569=ORIENTED_EDGE('',*,*,#363,.F.);
#570=ORIENTED_EDGE('',*,*,#415,.F.);
#571=ORIENTED_EDGE('',*,*,#416,.T.);
#572=ORIENTED_EDGE('',*,*,#417,.T.);
#573=ORIENTED_EDGE('',*,*,#405,.F.);
#574=ORIENTED_EDGE('',*,*,#403,.F.);
#575=ORIENTED_EDGE('',*,*,#407,.F.);
#576=ORIENTED_EDGE('',*,*,#418,.F.);
#577=ORIENTED_EDGE('',*,*,#419,.T.);
#578=ORIENTED_EDGE('',*,*,#411,.T.);
#579=ORIENTED_EDGE('',*,*,#377,.F.);
#580=ORIENTED_EDGE('',*,*,#406,.F.);
#581=ORIENTED_EDGE('',*,*,#417,.F.);
#582=ORIENTED_EDGE('',*,*,#420,.T.);
#583=ORIENTED_EDGE('',*,*,#418,.T.);
#584=ORIENTED_EDGE('',*,*,#370,.F.);
#585=ORIENTED_EDGE('',*,*,#413,.F.);
#586=ORIENTED_EDGE('',*,*,#421,.T.);
#587=ORIENTED_EDGE('',*,*,#422,.T.);
#588=ORIENTED_EDGE('',*,*,#367,.F.);
#589=ORIENTED_EDGE('',*,*,#371,.F.);
#590=ORIENTED_EDGE('',*,*,#422,.F.);
#591=ORIENTED_EDGE('',*,*,#423,.T.);
#592=ORIENTED_EDGE('',*,*,#415,.T.);
#593=ORIENTED_EDGE('',*,*,#362,.F.);
#594=ORIENTED_EDGE('',*,*,#419,.F.);
#595=ORIENTED_EDGE('',*,*,#420,.F.);
#596=ORIENTED_EDGE('',*,*,#416,.F.);
#597=ORIENTED_EDGE('',*,*,#423,.F.);
#598=ORIENTED_EDGE('',*,*,#421,.F.);
#599=ORIENTED_EDGE('',*,*,#412,.F.);
#600=ORIENTED_EDGE('',*,*,#331,.T.);
#601=ORIENTED_EDGE('',*,*,#334,.F.);
#602=ORIENTED_EDGE('',*,*,#409,.T.);
#603=ORIENTED_EDGE('',*,*,#396,.F.);
#604=ORIENTED_EDGE('',*,*,#414,.T.);
#605=ORIENTED_EDGE('',*,*,#383,.F.);
#606=ORIENTED_EDGE('',*,*,#381,.T.);
#607=ORIENTED_EDGE('',*,*,#350,.F.);
#608=ORIENTED_EDGE('',*,*,#410,.T.);
#609=ORIENTED_EDGE('',*,*,#333,.T.);
#610=CYLINDRICAL_SURFACE('',#690,0.067);
#611=CYLINDRICAL_SURFACE('',#693,0.0393700787401575);
#612=CYLINDRICAL_SURFACE('',#696,0.0393700787401575);
#613=CYLINDRICAL_SURFACE('',#699,0.0393700787401575);
#614=CYLINDRICAL_SURFACE('',#702,0.0393700787401575);
#615=CYLINDRICAL_SURFACE('',#705,0.0393700787401575);
#616=CYLINDRICAL_SURFACE('',#716,0.0393700787401575);
#617=CYLINDRICAL_SURFACE('',#719,0.0393700787401575);
#618=CYLINDRICAL_SURFACE('',#722,0.0393700787401575);
#619=CYLINDRICAL_SURFACE('',#725,0.0393700787401575);
#620=CYLINDRICAL_SURFACE('',#728,0.0393700787401575);
#621=CYLINDRICAL_SURFACE('',#731,0.0393700787401575);
#622=CYLINDRICAL_SURFACE('',#734,0.0393700787401575);
#623=CYLINDRICAL_SURFACE('',#737,0.0393700787401575);
#624=CYLINDRICAL_SURFACE('',#740,0.0393700787401575);
#625=CYLINDRICAL_SURFACE('',#749,0.0393700787401575);
#626=CYLINDRICAL_SURFACE('',#752,0.0393700787401575);
#627=ADVANCED_FACE('',(#45),#610,.F.);
#628=ADVANCED_FACE('',(#46),#611,.T.);
#629=ADVANCED_FACE('',(#47),#612,.T.);
#630=ADVANCED_FACE('',(#48),#613,.T.);
#631=ADVANCED_FACE('',(#49),#614,.T.);
#632=ADVANCED_FACE('',(#50),#615,.T.);
#633=ADVANCED_FACE('',(#51),#37,.T.);
#634=ADVANCED_FACE('',(#52),#38,.T.);
#635=ADVANCED_FACE('',(#53),#39,.T.);
#636=ADVANCED_FACE('',(#54),#40,.T.);
#637=ADVANCED_FACE('',(#55),#616,.T.);
#638=ADVANCED_FACE('',(#56),#21,.T.);
#639=ADVANCED_FACE('',(#57),#617,.T.);
#640=ADVANCED_FACE('',(#58),#22,.T.);
#641=ADVANCED_FACE('',(#59),#618,.T.);
#642=ADVANCED_FACE('',(#60),#23,.T.);
#643=ADVANCED_FACE('',(#61),#619,.T.);
#644=ADVANCED_FACE('',(#62),#24,.T.);
#645=ADVANCED_FACE('',(#63),#620,.T.);
#646=ADVANCED_FACE('',(#64),#621,.T.);
#647=ADVANCED_FACE('',(#65),#622,.T.);
#648=ADVANCED_FACE('',(#66),#623,.T.);
#649=ADVANCED_FACE('',(#67),#624,.T.);
#650=ADVANCED_FACE('',(#68),#41,.T.);
#651=ADVANCED_FACE('',(#69),#42,.T.);
#652=ADVANCED_FACE('',(#70),#43,.T.);
#653=ADVANCED_FACE('',(#71),#44,.T.);
#654=ADVANCED_FACE('',(#72),#625,.T.);
#655=ADVANCED_FACE('',(#73),#25,.T.);
#656=ADVANCED_FACE('',(#74),#626,.T.);
#657=ADVANCED_FACE('',(#75),#26,.T.);
#658=ADVANCED_FACE('',(#76),#27,.T.);
#659=ADVANCED_FACE('',(#77),#28,.F.);
#660=ADVANCED_FACE('',(#78),#29,.T.);
#661=ADVANCED_FACE('',(#79),#30,.F.);
#662=ADVANCED_FACE('',(#80),#31,.F.);
#663=ADVANCED_FACE('',(#81),#32,.F.);
#664=ADVANCED_FACE('',(#82),#33,.F.);
#665=ADVANCED_FACE('',(#83),#34,.F.);
#666=ADVANCED_FACE('',(#84,#15),#35,.F.);
#667=ADVANCED_FACE('',(#85,#16),#36,.T.);
#668=CLOSED_SHELL('',(#627,#628,#629,#630,#631,#632,#633,#634,#635,#636,
#637,#638,#639,#640,#641,#642,#643,#644,#645,#646,#647,#648,#649,#650,#651,
#652,#653,#654,#655,#656,#657,#658,#659,#660,#661,#662,#663,#664,#665,#666,
#667));
#669=DERIVED_UNIT_ELEMENT(#671,1.);
#670=DERIVED_UNIT_ELEMENT(#1173,-3.);
#671=(
CONVERSION_BASED_UNIT('gram',#673)
MASS_UNIT()
NAMED_UNIT(#1170)
);
#672=(
MASS_UNIT()
NAMED_UNIT(*)
SI_UNIT(.KILO.,.GRAM.)
);
#673=MASS_MEASURE_WITH_UNIT(MASS_MEASURE(0.001),#672);
#674=DERIVED_UNIT((#669,#670));
#675=MEASURE_REPRESENTATION_ITEM('density measure',
POSITIVE_RATIO_MEASURE(1.),#674);
#676=PROPERTY_DEFINITION_REPRESENTATION(#681,#678);
#677=PROPERTY_DEFINITION_REPRESENTATION(#682,#679);
#678=REPRESENTATION('material name',(#680),#1167);
#679=REPRESENTATION('density',(#675),#1167);
#680=DESCRIPTIVE_REPRESENTATION_ITEM('Generic','Generic');
#681=PROPERTY_DEFINITION('material property','material name',#1181);
#682=PROPERTY_DEFINITION('material property','density of part',#1181);
#683=DATE_TIME_ROLE('creation_date');
#684=APPLIED_DATE_AND_TIME_ASSIGNMENT(#685,#683,(#1181));
#685=DATE_AND_TIME(#686,#687);
#686=CALENDAR_DATE(2026,18,7);
#687=LOCAL_TIME(0,0,0.,#688);
#688=COORDINATED_UNIVERSAL_TIME_OFFSET(0,0,.BEHIND.);
#689=AXIS2_PLACEMENT_3D('',#976,#765,#766);
#690=AXIS2_PLACEMENT_3D('',#977,#767,#768);
#691=AXIS2_PLACEMENT_3D('',#979,#769,#770);
#692=AXIS2_PLACEMENT_3D('',#982,#772,#773);
#693=AXIS2_PLACEMENT_3D('',#983,#774,#775);
#694=AXIS2_PLACEMENT_3D('',#986,#776,#777);
#695=AXIS2_PLACEMENT_3D('',#990,#779,#780);
#696=AXIS2_PLACEMENT_3D('',#992,#782,#783);
#697=AXIS2_PLACEMENT_3D('',#994,#784,#785);
#698=AXIS2_PLACEMENT_3D('',#998,#787,#788);
#699=AXIS2_PLACEMENT_3D('',#1000,#790,#791);
#700=AXIS2_PLACEMENT_3D('',#1002,#792,#793);
#701=AXIS2_PLACEMENT_3D('',#1006,#795,#796);
#702=AXIS2_PLACEMENT_3D('',#1008,#798,#799);
#703=AXIS2_PLACEMENT_3D('',#1010,#800,#801);
#704=AXIS2_PLACEMENT_3D('',#1014,#803,#804);
#705=AXIS2_PLACEMENT_3D('',#1016,#806,#807);
#706=AXIS2_PLACEMENT_3D('',#1019,#808,#809);
#707=AXIS2_PLACEMENT_3D('',#1022,#811,#812);
#708=AXIS2_PLACEMENT_3D('',#1024,#814,#815);
#709=AXIS2_PLACEMENT_3D('',#1025,#816,#817);
#710=AXIS2_PLACEMENT_3D('',#1026,#818,#819);
#711=AXIS2_PLACEMENT_3D('',#1027,#820,#821);
#712=AXIS2_PLACEMENT_3D('',#1028,#822,#823);
#713=AXIS2_PLACEMENT_3D('',#1029,#824,#825);
#714=AXIS2_PLACEMENT_3D('',#1030,#826,#827);
#715=AXIS2_PLACEMENT_3D('',#1031,#828,#829);
#716=AXIS2_PLACEMENT_3D('',#1032,#830,#831);
#717=AXIS2_PLACEMENT_3D('',#1036,#833,#834);
#718=AXIS2_PLACEMENT_3D('',#1038,#836,#837);
#719=AXIS2_PLACEMENT_3D('',#1048,#843,#844);
#720=AXIS2_PLACEMENT_3D('',#1051,#846,#847);
#721=AXIS2_PLACEMENT_3D('',#1052,#848,#849);
#722=AXIS2_PLACEMENT_3D('',#1060,#854,#855);
#723=AXIS2_PLACEMENT_3D('',#1063,#857,#858);
#724=AXIS2_PLACEMENT_3D('',#1064,#859,#860);
#725=AXIS2_PLACEMENT_3D('',#1074,#866,#867);
#726=AXIS2_PLACEMENT_3D('',#1077,#869,#870);
#727=AXIS2_PLACEMENT_3D('',#1078,#871,#872);
#728=AXIS2_PLACEMENT_3D('',#1082,#875,#876);
#729=AXIS2_PLACEMENT_3D('',#1084,#877,#878);
#730=AXIS2_PLACEMENT_3D('',#1087,#880,#881);
#731=AXIS2_PLACEMENT_3D('',#1088,#882,#883);
#732=AXIS2_PLACEMENT_3D('',#1090,#884,#885);
#733=AXIS2_PLACEMENT_3D('',#1091,#886,#887);
#734=AXIS2_PLACEMENT_3D('',#1093,#889,#890);
#735=AXIS2_PLACEMENT_3D('',#1096,#891,#892);
#736=AXIS2_PLACEMENT_3D('',#1099,#894,#895);
#737=AXIS2_PLACEMENT_3D('',#1101,#897,#898);
#738=AXIS2_PLACEMENT_3D('',#1103,#899,#900);
#739=AXIS2_PLACEMENT_3D('',#1104,#901,#902);
#740=AXIS2_PLACEMENT_3D('',#1106,#904,#905);
#741=AXIS2_PLACEMENT_3D('',#1109,#906,#907);
#742=AXIS2_PLACEMENT_3D('',#1111,#909,#910);
#743=AXIS2_PLACEMENT_3D('',#1113,#912,#913);
#744=AXIS2_PLACEMENT_3D('',#1114,#914,#915);
#745=AXIS2_PLACEMENT_3D('',#1115,#916,#917);
#746=AXIS2_PLACEMENT_3D('',#1116,#918,#919);
#747=AXIS2_PLACEMENT_3D('',#1117,#920,#921);
#748=AXIS2_PLACEMENT_3D('',#1118,#922,#923);
#749=AXIS2_PLACEMENT_3D('',#1119,#924,#925);
#750=AXIS2_PLACEMENT_3D('',#1122,#927,#928);
#751=AXIS2_PLACEMENT_3D('',#1123,#929,#930);
#752=AXIS2_PLACEMENT_3D('',#1131,#935,#936);
#753=AXIS2_PLACEMENT_3D('',#1132,#937,#938);
#754=AXIS2_PLACEMENT_3D('',#1133,#939,#940);
#755=AXIS2_PLACEMENT_3D('',#1135,#942,#943);
#756=AXIS2_PLACEMENT_3D('',#1137,#945,#946);
#757=AXIS2_PLACEMENT_3D('',#1143,#950,#951);
#758=AXIS2_PLACEMENT_3D('',#1145,#953,#954);
#759=AXIS2_PLACEMENT_3D('',#1151,#958,#959);
#760=AXIS2_PLACEMENT_3D('',#1155,#962,#963);
#761=AXIS2_PLACEMENT_3D('',#1157,#965,#966);
#762=AXIS2_PLACEMENT_3D('',#1161,#969,#970);
#763=AXIS2_PLACEMENT_3D('',#1163,#972,#973);
#764=AXIS2_PLACEMENT_3D('',#1164,#974,#975);
#765=DIRECTION('axis',(0.,0.,1.));
#766=DIRECTION('refdir',(1.,0.,0.));
#767=DIRECTION('center_axis',(0.,1.,0.));
#768=DIRECTION('ref_axis',(-1.,0.,0.));
#769=DIRECTION('center_axis',(0.,1.,0.));
#770=DIRECTION('ref_axis',(-1.,0.,0.));
#771=DIRECTION('',(0.,1.,0.));
#772=DIRECTION('center_axis',(0.,-1.,0.));
#773=DIRECTION('ref_axis',(-1.,0.,0.));
#774=DIRECTION('center_axis',(0.,1.,0.));
#775=DIRECTION('ref_axis',(-0.707106781186547,0.,-0.707106781186547));
#776=DIRECTION('center_axis',(0.,-1.,0.));
#777=DIRECTION('ref_axis',(-0.707106781186547,0.,-0.707106781186547));
#778=DIRECTION('',(0.,-1.,0.));
#779=DIRECTION('center_axis',(0.,1.,0.));
#780=DIRECTION('ref_axis',(0.,0.,-1.));
#781=DIRECTION('',(0.,1.,0.));
#782=DIRECTION('center_axis',(0.707106781186548,-0.707106781186548,-7.47663075563702E-17));
#783=DIRECTION('ref_axis',(-0.5,-0.5,-0.707106781186547));
#784=DIRECTION('center_axis',(0.707106781186548,-0.707106781186547,0.));
#785=DIRECTION('ref_axis',(-0.707106781186547,-0.707106781186548,0.));
#786=DIRECTION('',(0.707106781186547,-0.707106781186547,-7.47663075563702E-17));
#787=DIRECTION('center_axis',(-0.707106781186548,0.707106781186547,1.96261557335472E-16));
#788=DIRECTION('ref_axis',(-2.77555756156289E-16,0.,-1.));
#789=DIRECTION('',(-0.707106781186547,0.707106781186547,7.47663075563702E-17));
#790=DIRECTION('center_axis',(1.,0.,-1.05735526154777E-16));
#791=DIRECTION('ref_axis',(0.,-0.707106781186548,-0.707106781186547));
#792=DIRECTION('center_axis',(1.,2.77555756156289E-16,0.));
#793=DIRECTION('ref_axis',(2.77555756156289E-16,-1.,5.55111512312578E-16));
#794=DIRECTION('',(1.,0.,-1.05735526154777E-16));
#795=DIRECTION('center_axis',(-1.,0.,0.));
#796=DIRECTION('ref_axis',(0.,0.,-1.));
#797=DIRECTION('',(-1.,0.,1.05735526154777E-16));
#798=DIRECTION('center_axis',(0.707106781186547,0.707106781186548,-7.47663075563702E-17));
#799=DIRECTION('ref_axis',(0.5,-0.5,-0.707106781186548));
#800=DIRECTION('center_axis',(0.707106781186548,0.707106781186547,0.));
#801=DIRECTION('ref_axis',(0.707106781186547,-0.707106781186548,-5.55111512312578E-16));
#802=DIRECTION('',(0.707106781186547,0.707106781186548,-7.47663075563702E-17));
#803=DIRECTION('center_axis',(-0.707106781186547,-0.707106781186548,0.));
#804=DIRECTION('ref_axis',(0.,0.,-1.));
#805=DIRECTION('',(-0.707106781186547,-0.707106781186548,7.47663075563702E-17));
#806=DIRECTION('center_axis',(0.,1.,0.));
#807=DIRECTION('ref_axis',(0.707106781186547,0.,-0.707106781186547));
#808=DIRECTION('center_axis',(0.,-1.,0.));
#809=DIRECTION('ref_axis',(0.707106781186547,0.,-0.707106781186547));
#810=DIRECTION('',(0.,-1.,0.));
#811=DIRECTION('center_axis',(0.,1.,0.));
#812=DIRECTION('ref_axis',(1.,0.,0.));
#813=DIRECTION('',(0.,1.,0.));
#814=DIRECTION('center_axis',(-0.439732612032305,0.182143211721527,-0.879465224064609));
#815=DIRECTION('ref_axis',(0.812519920068746,-0.336556770590777,-0.475963149477968));
#816=DIRECTION('center_axis',(2.77555756156289E-16,3.93203987888077E-16,
-1.));
#817=DIRECTION('ref_axis',(0.923879532511287,-0.38268343236509,0.));
#818=DIRECTION('center_axis',(-0.941663177664661,-0.290400099340399,-0.170112439679113));
#819=DIRECTION('ref_axis',(0.336556770590778,-0.812519920068745,-0.475963149477969));
#820=DIRECTION('center_axis',(-1.15648231731787E-16,0.,-1.));
#821=DIRECTION('ref_axis',(0.38268343236509,-0.923879532511287,0.));
#822=DIRECTION('center_axis',(-0.941663177664661,0.290400099340399,0.170112439679112));
#823=DIRECTION('ref_axis',(-0.336556770590778,-0.812519920068745,-0.475963149477968));
#824=DIRECTION('center_axis',(-1.15648231731787E-16,0.,-1.));
#825=DIRECTION('ref_axis',(-0.38268343236509,-0.923879532511287,0.));
#826=DIRECTION('center_axis',(0.439732612032305,0.182143211721527,-0.879465224064609));
#827=DIRECTION('ref_axis',(-0.812519920068745,-0.336556770590778,-0.475963149477968));
#828=DIRECTION('center_axis',(-1.38777878078145E-16,2.31296463463575E-17,
-1.));
#829=DIRECTION('ref_axis',(-0.923879532511287,-0.38268343236509,0.));
#830=DIRECTION('center_axis',(1.38777878078145E-16,-2.31296463463575E-17,
1.));
#831=DIRECTION('ref_axis',(-0.923879532511287,-0.38268343236509,1.1936270866853E-16));
#832=DIRECTION('',(1.38777878078145E-16,-2.31296463463575E-17,1.));
#833=DIRECTION('center_axis',(1.38777878078145E-16,-2.31296463463575E-17,
1.));
#834=DIRECTION('ref_axis',(-0.923879532511287,-0.38268343236509,0.));
#835=DIRECTION('',(-1.38777878078145E-16,2.31296463463575E-17,-1.));
#836=DIRECTION('center_axis',(-0.707106781186548,-0.707106781186548,8.17756488897799E-17));
#837=DIRECTION('ref_axis',(-0.707106781186548,0.707106781186548,7.47663075563703E-17));
#838=DIRECTION('',(-1.15648231731787E-16,0.,-1.));
#839=DIRECTION('',(-0.447213595499958,0.447213595499958,0.774596669241483));
#840=DIRECTION('',(0.447213595499958,-0.447213595499958,0.774596669241483));
#841=DIRECTION('',(-1.15648231731787E-16,0.,-1.));
#842=DIRECTION('',(0.707106781186548,-0.707106781186548,-7.47663075563703E-17));
#843=DIRECTION('center_axis',(-1.15648231731787E-16,0.,-1.));
#844=DIRECTION('ref_axis',(-0.38268343236509,-0.923879532511287,0.));
#845=DIRECTION('',(1.15648231731787E-16,0.,1.));
#846=DIRECTION('center_axis',(-0.866025403784439,0.,-0.5));
#847=DIRECTION('ref_axis',(-0.5,-3.46944695195362E-17,0.866025403784439));
#848=DIRECTION('center_axis',(0.,-1.,0.));
#849=DIRECTION('ref_axis',(-1.,0.,1.05735526154777E-16));
#850=DIRECTION('',(-1.15648231731787E-16,0.,-1.));
#851=DIRECTION('',(-0.5,0.,-0.866025403784439));
#852=DIRECTION('',(-1.,0.,-3.43386193997065E-16));
#853=DIRECTION('',(-0.5,0.,0.866025403784438));
#854=DIRECTION('center_axis',(-1.15648231731787E-16,0.,-1.));
#855=DIRECTION('ref_axis',(0.38268343236509,-0.923879532511287,0.));
#856=DIRECTION('',(1.15648231731787E-16,0.,1.));
#857=DIRECTION('center_axis',(0.866025403784439,0.,-0.5));
#858=DIRECTION('ref_axis',(0.5,0.,0.866025403784439));
#859=DIRECTION('center_axis',(0.707106781186548,-0.707106781186547,-8.17756488897799E-17));
#860=DIRECTION('ref_axis',(-0.707106781186547,-0.707106781186548,7.47663075563702E-17));
#861=DIRECTION('',(2.77555756156289E-16,3.93203987888077E-16,-1.));
#862=DIRECTION('',(0.707106781186547,0.707106781186548,-7.47663075563702E-17));
#863=DIRECTION('',(1.15648231731787E-16,0.,1.));
#864=DIRECTION('',(0.447213595499958,0.447213595499958,-0.774596669241483));
#865=DIRECTION('',(-0.447213595499958,-0.447213595499958,-0.774596669241483));
#866=DIRECTION('center_axis',(2.77555756156289E-16,3.93203987888077E-16,
-1.));
#867=DIRECTION('ref_axis',(0.923879532511287,-0.38268343236509,0.));
#868=DIRECTION('',(-2.77555756156289E-16,-3.93203987888077E-16,1.));
#869=DIRECTION('center_axis',(-2.77555756156289E-16,-3.93203987888077E-16,
1.));
#870=DIRECTION('ref_axis',(0.923879532511287,-0.38268343236509,0.));
#871=DIRECTION('center_axis',(1.,0.,2.77555756156289E-16));
#872=DIRECTION('ref_axis',(2.77555756156289E-16,0.,-1.));
#873=DIRECTION('',(2.77555756156289E-16,0.,-1.));
#874=DIRECTION('',(0.,1.,0.));
#875=DIRECTION('center_axis',(0.,1.,0.));
#876=DIRECTION('ref_axis',(0.707106781186547,0.,0.707106781186547));
#877=DIRECTION('center_axis',(0.,-1.,0.));
#878=DIRECTION('ref_axis',(0.707106781186547,0.,0.707106781186547));
#879=DIRECTION('',(0.,-1.,0.));
#880=DIRECTION('center_axis',(0.,1.,0.));
#881=DIRECTION('ref_axis',(0.,0.,1.));
#882=DIRECTION('center_axis',(0.707106781186547,0.707106781186548,-7.47663075563702E-17));
#883=DIRECTION('ref_axis',(0.5,-0.5,0.707106781186548));
#884=DIRECTION('center_axis',(0.707106781186547,0.707106781186548,0.));
#885=DIRECTION('ref_axis',(0.,0.,1.));
#886=DIRECTION('center_axis',(-0.707106781186547,-0.707106781186548,0.));
#887=DIRECTION('ref_axis',(0.707106781186548,-0.707106781186547,-5.55111512312579E-16));
#888=DIRECTION('',(-0.707106781186547,-0.707106781186548,7.47663075563702E-17));
#889=DIRECTION('center_axis',(1.,0.,-1.05735526154777E-16));
#890=DIRECTION('ref_axis',(0.,-0.707106781186548,0.707106781186547));
#891=DIRECTION('center_axis',(1.,0.,0.));
#892=DIRECTION('ref_axis',(0.,0.,1.));
#893=DIRECTION('',(1.,0.,-1.05735526154777E-16));
#894=DIRECTION('center_axis',(-1.,0.,0.));
#895=DIRECTION('ref_axis',(0.,-1.,0.));
#896=DIRECTION('',(-1.,0.,1.05735526154777E-16));
#897=DIRECTION('center_axis',(0.707106781186548,-0.707106781186548,-7.47663075563703E-17));
#898=DIRECTION('ref_axis',(-0.5,-0.5,0.707106781186547));
#899=DIRECTION('center_axis',(0.707106781186548,-0.707106781186547,0.));
#900=DIRECTION('ref_axis',(0.,0.,1.));
#901=DIRECTION('center_axis',(-0.707106781186547,0.707106781186548,0.));
#902=DIRECTION('ref_axis',(-0.707106781186548,-0.707106781186547,0.));
#903=DIRECTION('',(-0.707106781186548,0.707106781186548,7.47663075563703E-17));
#904=DIRECTION('center_axis',(0.,1.,0.));
#905=DIRECTION('ref_axis',(-0.707106781186547,0.,0.707106781186547));
#906=DIRECTION('center_axis',(0.,-1.,0.));
#907=DIRECTION('ref_axis',(-0.707106781186547,0.,0.707106781186547));
#908=DIRECTION('',(0.,-1.,0.));
#909=DIRECTION('center_axis',(0.,1.,0.));
#910=DIRECTION('ref_axis',(-1.,0.,0.));
#911=DIRECTION('',(0.,1.,0.));
#912=DIRECTION('center_axis',(-0.439732612032305,-0.182143211721527,-0.879465224064609));
#913=DIRECTION('ref_axis',(-0.812519920068746,-0.336556770590777,0.475963149477967));
#914=DIRECTION('center_axis',(-0.941663177664661,0.2904000993404,-0.170112439679112));
#915=DIRECTION('ref_axis',(-0.336556770590778,-0.812519920068746,0.475963149477968));
#916=DIRECTION('center_axis',(1.15648231731787E-16,0.,1.));
#917=DIRECTION('ref_axis',(-0.38268343236509,-0.923879532511287,0.));
#918=DIRECTION('center_axis',(-0.941663177664661,-0.2904000993404,0.170112439679112));
#919=DIRECTION('ref_axis',(0.336556770590778,-0.812519920068745,0.475963149477968));
#920=DIRECTION('center_axis',(1.15648231731787E-16,0.,1.));
#921=DIRECTION('ref_axis',(0.38268343236509,-0.923879532511287,0.));
#922=DIRECTION('center_axis',(0.439732612032304,-0.182143211721527,-0.87946522406461));
#923=DIRECTION('ref_axis',(0.812519920068746,-0.336556770590777,0.475963149477967));
#924=DIRECTION('center_axis',(-1.15648231731787E-16,0.,-1.));
#925=DIRECTION('ref_axis',(0.38268343236509,-0.923879532511287,0.));
#926=DIRECTION('',(-1.15648231731787E-16,0.,-1.));
#927=DIRECTION('center_axis',(0.866025403784439,0.,0.5));
#928=DIRECTION('ref_axis',(0.5,0.,-0.866025403784439));
#929=DIRECTION('center_axis',(0.,-1.,0.));
#930=DIRECTION('ref_axis',(-1.,0.,1.05735526154777E-16));
#931=DIRECTION('',(1.15648231731787E-16,0.,1.));
#932=DIRECTION('',(0.5,0.,0.866025403784438));
#933=DIRECTION('',(1.,0.,-3.43386193997065E-16));
#934=DIRECTION('',(0.5,0.,-0.866025403784439));
#935=DIRECTION('center_axis',(-1.15648231731787E-16,0.,-1.));
#936=DIRECTION('ref_axis',(-0.38268343236509,-0.923879532511287,0.));
#937=DIRECTION('center_axis',(-0.866025403784439,0.,0.5));
#938=DIRECTION('ref_axis',(-0.5,-3.46944695195361E-17,-0.866025403784438));
#939=DIRECTION('center_axis',(-1.,0.,1.38777878078145E-16));
#940=DIRECTION('ref_axis',(1.38777878078145E-16,0.,1.));
#941=DIRECTION('',(1.38777878078145E-16,0.,1.));
#942=DIRECTION('center_axis',(-1.05735526154777E-16,0.,-1.));
#943=DIRECTION('ref_axis',(-1.,0.,1.05735526154777E-16));
#944=DIRECTION('',(-1.,0.,1.05735526154777E-16));
#945=DIRECTION('center_axis',(0.866025403784439,0.,-0.5));
#946=DIRECTION('ref_axis',(0.5,0.,0.866025403784439));
#947=DIRECTION('',(0.,-1.,0.));
#948=DIRECTION('',(-0.5,0.,-0.866025403784439));
#949=DIRECTION('',(0.,-1.,0.));
#950=DIRECTION('center_axis',(1.05735526154777E-16,0.,1.));
#951=DIRECTION('ref_axis',(1.,0.,-1.05735526154777E-16));
#952=DIRECTION('',(1.,0.,-1.05735526154777E-16));
#953=DIRECTION('center_axis',(-0.866025403784439,0.,0.5));
#954=DIRECTION('ref_axis',(-0.5,0.,-0.866025403784438));
#955=DIRECTION('',(0.,-1.,0.));
#956=DIRECTION('',(0.5,0.,0.866025403784438));
#957=DIRECTION('',(0.,-1.,0.));
#958=DIRECTION('center_axis',(0.866025403784439,0.,0.5));
#959=DIRECTION('ref_axis',(-0.5,0.,0.866025403784439));
#960=DIRECTION('',(0.,-1.,0.));
#961=DIRECTION('',(0.5,0.,-0.866025403784439));
#962=DIRECTION('center_axis',(3.43386193997065E-16,0.,1.));
#963=DIRECTION('ref_axis',(-1.,0.,3.43386193997065E-16));
#964=DIRECTION('',(1.,0.,-3.43386193997065E-16));
#965=DIRECTION('center_axis',(3.43386193997065E-16,0.,-1.));
#966=DIRECTION('ref_axis',(1.,0.,3.43386193997065E-16));
#967=DIRECTION('',(-1.,0.,-3.43386193997065E-16));
#968=DIRECTION('',(0.,-1.,0.));
#969=DIRECTION('center_axis',(-0.866025403784439,0.,-0.5));
#970=DIRECTION('ref_axis',(0.5,0.,-0.866025403784439));
#971=DIRECTION('',(-0.5,0.,0.866025403784438));
#972=DIRECTION('center_axis',(0.,1.,0.));
#973=DIRECTION('ref_axis',(0.,0.,1.));
#974=DIRECTION('center_axis',(0.,1.,0.));
#975=DIRECTION('ref_axis',(0.,0.,1.));
#976=CARTESIAN_POINT('',(0.,0.,0.));
#977=CARTESIAN_POINT('Origin',(0.,0.545371520030327,0.));
#978=CARTESIAN_POINT('',(0.067,0.,-8.20513355428727E-18));
#979=CARTESIAN_POINT('Origin',(0.,0.,0.));
#980=CARTESIAN_POINT('',(0.067,0.047244094488189,8.20513355428727E-18));
#981=CARTESIAN_POINT('',(0.067,0.545371520030327,-8.20513355428727E-18));
#982=CARTESIAN_POINT('Origin',(0.,0.047244094488189,0.));
#983=CARTESIAN_POINT('Origin',(-0.167322834645669,0.,-0.118110236220472));
#984=CARTESIAN_POINT('',(-0.206692913385827,0.047244094488189,-0.118110236220472));
#985=CARTESIAN_POINT('',(-0.167322834645669,0.047244094488189,-0.15748031496063));
#986=CARTESIAN_POINT('Origin',(-0.167322834645669,0.047244094488189,-0.118110236220472));
#987=CARTESIAN_POINT('',(-0.167322834645669,0.0163076205658699,-0.15748031496063));
#988=CARTESIAN_POINT('',(-0.167322834645669,0.,-0.15748031496063));
#989=CARTESIAN_POINT('',(-0.206692913385827,0.0163076205658699,-0.118110236220472));
#990=CARTESIAN_POINT('Origin',(-0.167322834645669,0.0163076205658699,-0.118110236220472));
#991=CARTESIAN_POINT('',(-0.206692913385827,0.,-0.118110236220472));
#992=CARTESIAN_POINT('Origin',(-0.0164524889296635,-0.134562725150136,-0.118110236220472));
#993=CARTESIAN_POINT('',(-0.195161684298683,-0.0115312290871438,-0.118110236220472));
#994=CARTESIAN_POINT('Origin',(-0.167322834645669,0.0163076205658699,-0.118110236220472));
#995=CARTESIAN_POINT('',(-0.0722750565994845,-0.078740157480315,-0.15748031496063));
#996=CARTESIAN_POINT('',(-0.0164524889296635,-0.134562725150136,-0.15748031496063));
#997=CARTESIAN_POINT('',(-0.100113906252498,-0.106579007133329,-0.118110236220472));
#998=CARTESIAN_POINT('Origin',(-0.0722750565994845,-0.078740157480315,-0.118110236220472));
#999=CARTESIAN_POINT('',(-0.0442913385826772,-0.16240157480315,-0.118110236220472));
#1000=CARTESIAN_POINT('Origin',(0.147637795275591,-0.078740157480315,-0.118110236220472));
#1001=CARTESIAN_POINT('',(-0.0722750565994844,-0.118110236220472,-0.118110236220472));
#1002=CARTESIAN_POINT('Origin',(-0.0722750565994845,-0.078740157480315,
-0.118110236220472));
#1003=CARTESIAN_POINT('',(0.0722750565994844,-0.078740157480315,-0.15748031496063));
#1004=CARTESIAN_POINT('',(0.147637795275591,-0.078740157480315,-0.15748031496063));
#1005=CARTESIAN_POINT('',(0.0722750565994844,-0.118110236220472,-0.118110236220472));
#1006=CARTESIAN_POINT('Origin',(0.0722750565994844,-0.078740157480315,-0.118110236220472));
#1007=CARTESIAN_POINT('',(0.147637795275591,-0.118110236220472,-0.118110236220472));
#1008=CARTESIAN_POINT('Origin',(0.178854063732813,0.0278388496530137,-0.118110236220472));
#1009=CARTESIAN_POINT('',(0.100113906252498,-0.106579007133329,-0.118110236220472));
#1010=CARTESIAN_POINT('Origin',(0.0722750565994844,-0.078740157480315,-0.118110236220472));
#1011=CARTESIAN_POINT('',(0.167322834645669,0.01630762056587,-0.15748031496063));
#1012=CARTESIAN_POINT('',(0.178854063732813,0.0278388496530137,-0.15748031496063));
#1013=CARTESIAN_POINT('',(0.195161684298683,-0.0115312290871436,-0.118110236220472));
#1014=CARTESIAN_POINT('Origin',(0.167322834645669,0.01630762056587,-0.118110236220472));
#1015=CARTESIAN_POINT('',(0.206692913385827,4.37095678986282E-17,-0.118110236220472));
#1016=CARTESIAN_POINT('Origin',(0.167322834645669,0.,-0.118110236220472));
#1017=CARTESIAN_POINT('',(0.167322834645669,0.047244094488189,-0.15748031496063));
#1018=CARTESIAN_POINT('',(0.206692913385827,0.047244094488189,-0.118110236220472));
#1019=CARTESIAN_POINT('Origin',(0.167322834645669,0.047244094488189,-0.118110236220472));
#1020=CARTESIAN_POINT('',(0.206692913385827,0.01630762056587,-0.118110236220472));
#1021=CARTESIAN_POINT('',(0.206692913385827,0.,-0.118110236220472));
#1022=CARTESIAN_POINT('Origin',(0.167322834645669,0.01630762056587,-0.118110236220472));
#1023=CARTESIAN_POINT('',(0.167322834645669,0.,-0.15748031496063));
#1024=CARTESIAN_POINT('Origin',(0.167322834645669,0.01630762056587,-0.118110236220472));
#1025=CARTESIAN_POINT('Origin',(0.167322834645669,0.01630762056587,-0.118110236220472));
#1026=CARTESIAN_POINT('Origin',(0.0722750565994844,-0.078740157480315,-0.118110236220472));
#1027=CARTESIAN_POINT('Origin',(0.0722750565994844,-0.078740157480315,-0.118110236220472));
#1028=CARTESIAN_POINT('Origin',(-0.0722750565994844,-0.078740157480315,
-0.118110236220472));
#1029=CARTESIAN_POINT('Origin',(-0.0722750565994844,-0.078740157480315,
-0.118110236220472));
#1030=CARTESIAN_POINT('Origin',(-0.167322834645669,0.0163076205658699,-0.118110236220472));
#1031=CARTESIAN_POINT('Origin',(-0.167322834645669,0.0163076205658699,-0.118110236220472));
#1032=CARTESIAN_POINT('Origin',(-0.167322834645669,0.0163076205658699,4.159874227248E-17));
#1033=CARTESIAN_POINT('',(-0.195161684298683,-0.0115312290871438,0.118110236220472));
#1034=CARTESIAN_POINT('',(-0.195161684298683,-0.0115312290871438,4.48182560082981E-17));
#1035=CARTESIAN_POINT('',(-0.206692913385827,0.0163076205658699,0.118110236220472));
#1036=CARTESIAN_POINT('Origin',(-0.167322834645669,0.0163076205658699,0.118110236220472));
#1037=CARTESIAN_POINT('',(-0.206692913385827,0.0163076205658699,4.70624382598086E-17));
#1038=CARTESIAN_POINT('Origin',(-0.0885826771653543,-0.118110236220472,
0.15748031496063));
#1039=CARTESIAN_POINT('',(-0.100113906252498,-0.106579007133329,-0.0470700687713677));
#1040=CARTESIAN_POINT('',(-0.100113906252498,-0.106579007133329,0.15748031496063));
#1041=CARTESIAN_POINT('',(-0.127289823128421,-0.0794030902574053,-2.23670054481262E-17));
#1042=CARTESIAN_POINT('',(-0.154765093631925,-0.0519278197539022,0.0475885644637659));
#1043=CARTESIAN_POINT('',(-0.100113906252498,-0.106579007133329,0.0470700687713676));
#1044=CARTESIAN_POINT('',(-0.0747543476654882,-0.131938565720339,0.0909941127015884));
#1045=CARTESIAN_POINT('',(-0.100113906252498,-0.106579007133329,0.118110236220472));
#1046=CARTESIAN_POINT('',(-0.100113906252498,-0.106579007133329,0.15748031496063));
#1047=CARTESIAN_POINT('',(-0.147637795275591,-0.0590551181102362,0.118110236220472));
#1048=CARTESIAN_POINT('Origin',(-0.0722750565994844,-0.078740157480315,
0.15748031496063));
#1049=CARTESIAN_POINT('',(-0.0722750565994845,-0.118110236220472,-0.0952883707946586));
#1050=CARTESIAN_POINT('',(-0.0722750565994844,-0.118110236220472,0.15748031496063));
#1051=CARTESIAN_POINT('Origin',(-0.0722750565994844,-0.078740157480315,
-0.0952883707946586));
#1052=CARTESIAN_POINT('Origin',(0.0885826771653543,-0.118110236220472,0.15748031496063));
#1053=CARTESIAN_POINT('',(0.0722750565994844,-0.118110236220472,-0.0952883707946586));
#1054=CARTESIAN_POINT('',(0.0722750565994844,-0.118110236220472,0.15748031496063));
#1055=CARTESIAN_POINT('',(0.0636449115642107,-0.118110236220472,-0.110236220472441));
#1056=CARTESIAN_POINT('',(0.124724462438903,-0.118110236220472,-0.00444333505398635));
#1057=CARTESIAN_POINT('',(-0.0636449115642107,-0.118110236220472,-0.110236220472441));
#1058=CARTESIAN_POINT('',(0.0124688828005719,-0.118110236220472,-0.110236220472441));
#1059=CARTESIAN_POINT('',(-0.13440124892967,-0.118110236220472,0.0123173508020178));
#1060=CARTESIAN_POINT('Origin',(0.0722750565994844,-0.078740157480315,0.15748031496063));
#1061=CARTESIAN_POINT('',(0.100113906252498,-0.106579007133329,-0.0470700687713677));
#1062=CARTESIAN_POINT('',(0.100113906252498,-0.106579007133329,0.15748031496063));
#1063=CARTESIAN_POINT('Origin',(0.0722750565994844,-0.078740157480315,-0.0952883707946586));
#1064=CARTESIAN_POINT('Origin',(0.206692913385827,0.,0.15748031496063));
#1065=CARTESIAN_POINT('',(0.195161684298683,-0.0115312290871437,0.118110236220472));
#1066=CARTESIAN_POINT('',(0.195161684298683,-0.0115312290871437,0.15748031496063));
#1067=CARTESIAN_POINT('',(0.100113906252498,-0.106579007133329,0.118110236220472));
#1068=CARTESIAN_POINT('',(0.103346456692913,-0.103346456692913,0.118110236220472));
#1069=CARTESIAN_POINT('',(0.100113906252498,-0.106579007133329,0.0470700687713676));
#1070=CARTESIAN_POINT('',(0.100113906252498,-0.106579007133329,0.15748031496063));
#1071=CARTESIAN_POINT('',(0.127289823128421,-0.0794030902574053,-1.28055374703012E-17));
#1072=CARTESIAN_POINT('',(0.123834359535267,-0.0828585538505598,0.00598503850704796));
#1073=CARTESIAN_POINT('',(0.152929176250335,-0.053763737135492,0.0444086622803536));
#1074=CARTESIAN_POINT('Origin',(0.167322834645669,0.0163076205658699,0.15748031496063));
#1075=CARTESIAN_POINT('',(0.206692913385827,0.0163076205658699,0.118110236220472));
#1076=CARTESIAN_POINT('',(0.206692913385827,0.0163076205658699,0.15748031496063));
#1077=CARTESIAN_POINT('Origin',(0.167322834645669,0.0163076205658699,0.118110236220472));
#1078=CARTESIAN_POINT('Origin',(0.206692913385827,0.,0.15748031496063));
#1079=CARTESIAN_POINT('',(0.206692913385827,0.047244094488189,0.118110236220472));
#1080=CARTESIAN_POINT('',(0.206692913385827,0.047244094488189,0.15748031496063));
#1081=CARTESIAN_POINT('',(0.206692913385827,0.,0.118110236220472));
#1082=CARTESIAN_POINT('Origin',(0.167322834645669,0.,0.118110236220472));
#1083=CARTESIAN_POINT('',(0.167322834645669,0.047244094488189,0.15748031496063));
#1084=CARTESIAN_POINT('Origin',(0.167322834645669,0.047244094488189,0.118110236220472));
#1085=CARTESIAN_POINT('',(0.167322834645669,0.0163076205658699,0.15748031496063));
#1086=CARTESIAN_POINT('',(0.167322834645669,0.,0.15748031496063));
#1087=CARTESIAN_POINT('Origin',(0.167322834645669,0.0163076205658699,0.118110236220472));
#1088=CARTESIAN_POINT('Origin',(0.0755076070398997,-0.0755076070398997,
0.118110236220472));
#1089=CARTESIAN_POINT('',(0.0722750565994844,-0.078740157480315,0.15748031496063));
#1090=CARTESIAN_POINT('Origin',(0.0722750565994844,-0.078740157480315,0.118110236220472));
#1091=CARTESIAN_POINT('Origin',(0.167322834645669,0.0163076205658699,0.118110236220472));
#1092=CARTESIAN_POINT('',(0.0755076070398997,-0.0755076070398997,0.15748031496063));
#1093=CARTESIAN_POINT('Origin',(-0.0590551181102362,-0.078740157480315,
0.118110236220472));
#1094=CARTESIAN_POINT('',(-0.0722750565994844,-0.078740157480315,0.15748031496063));
#1095=CARTESIAN_POINT('',(-0.0722750565994844,-0.118110236220472,0.118110236220472));
#1096=CARTESIAN_POINT('Origin',(-0.0722750565994844,-0.078740157480315,
0.118110236220472));
#1097=CARTESIAN_POINT('',(0.0722750565994844,-0.118110236220472,0.118110236220472));
#1098=CARTESIAN_POINT('',(-0.0590551181102362,-0.118110236220472,0.118110236220472));
#1099=CARTESIAN_POINT('Origin',(0.0722750565994844,-0.078740157480315,0.118110236220472));
#1100=CARTESIAN_POINT('',(-0.0590551181102362,-0.078740157480315,0.15748031496063));
#1101=CARTESIAN_POINT('Origin',(-0.119798945622577,-0.0312162684572225,
0.118110236220472));
#1102=CARTESIAN_POINT('',(-0.167322834645669,0.0163076205658699,0.15748031496063));
#1103=CARTESIAN_POINT('Origin',(-0.167322834645669,0.0163076205658699,0.118110236220472));
#1104=CARTESIAN_POINT('Origin',(-0.0722750565994844,-0.078740157480315,
0.118110236220472));
#1105=CARTESIAN_POINT('',(-0.119798945622577,-0.0312162684572225,0.15748031496063));
#1106=CARTESIAN_POINT('Origin',(-0.167322834645669,0.,0.118110236220472));
#1107=CARTESIAN_POINT('',(-0.167322834645669,0.047244094488189,0.15748031496063));
#1108=CARTESIAN_POINT('',(-0.206692913385827,0.047244094488189,0.118110236220472));
#1109=CARTESIAN_POINT('Origin',(-0.167322834645669,0.047244094488189,0.118110236220472));
#1110=CARTESIAN_POINT('',(-0.206692913385827,0.,0.118110236220472));
#1111=CARTESIAN_POINT('Origin',(-0.167322834645669,0.0163076205658699,0.118110236220472));
#1112=CARTESIAN_POINT('',(-0.167322834645669,0.,0.15748031496063));
#1113=CARTESIAN_POINT('Origin',(-0.167322834645669,0.0163076205658699,0.118110236220472));
#1114=CARTESIAN_POINT('Origin',(-0.0722750565994844,-0.078740157480315,
0.118110236220472));
#1115=CARTESIAN_POINT('Origin',(-0.0722750565994844,-0.078740157480315,
0.118110236220472));
#1116=CARTESIAN_POINT('Origin',(0.0722750565994844,-0.078740157480315,0.118110236220472));
#1117=CARTESIAN_POINT('Origin',(0.0722750565994844,-0.078740157480315,0.118110236220472));
#1118=CARTESIAN_POINT('Origin',(0.167322834645669,0.0163076205658699,0.118110236220472));
#1119=CARTESIAN_POINT('Origin',(0.0722750565994844,-0.078740157480315,0.15748031496063));
#1120=CARTESIAN_POINT('',(0.0722750565994844,-0.118110236220472,0.0952883707946587));
#1121=CARTESIAN_POINT('',(0.0722750565994844,-0.118110236220472,0.15748031496063));
#1122=CARTESIAN_POINT('Origin',(0.0722750565994844,-0.078740157480315,0.0952883707946586));
#1123=CARTESIAN_POINT('Origin',(0.0885826771653543,-0.118110236220472,0.15748031496063));
#1124=CARTESIAN_POINT('',(-0.0722750565994844,-0.118110236220472,0.0952883707946586));
#1125=CARTESIAN_POINT('',(-0.0722750565994844,-0.118110236220472,0.15748031496063));
#1126=CARTESIAN_POINT('',(-0.0636449115642107,-0.118110236220472,0.110236220472441));
#1127=CARTESIAN_POINT('',(-0.034387816471624,-0.118110236220472,0.160910995654675));
#1128=CARTESIAN_POINT('',(0.0636449115642107,-0.118110236220472,0.110236220472441));
#1129=CARTESIAN_POINT('',(0.0761137943647825,-0.118110236220472,0.110236220472441));
#1130=CARTESIAN_POINT('',(0.088355941545068,-0.118110236220472,0.0674354610382383));
#1131=CARTESIAN_POINT('Origin',(-0.0722750565994844,-0.078740157480315,
0.15748031496063));
#1132=CARTESIAN_POINT('Origin',(-0.0722750565994844,-0.078740157480315,
0.0952883707946585));
#1133=CARTESIAN_POINT('Origin',(-0.206692913385827,0.,-0.15748031496063));
#1134=CARTESIAN_POINT('',(-0.206692913385827,0.047244094488189,-0.15748031496063));
#1135=CARTESIAN_POINT('Origin',(0.206692913385827,0.,-0.15748031496063));
#1136=CARTESIAN_POINT('',(0.206692913385827,0.047244094488189,-0.15748031496063));
#1137=CARTESIAN_POINT('Origin',(0.0636449115642107,0.,-0.110236220472441));
#1138=CARTESIAN_POINT('',(0.127289823128421,0.,-1.28055374703012E-17));
#1139=CARTESIAN_POINT('',(0.127289823128421,0.,-1.28055374703012E-17));
#1140=CARTESIAN_POINT('',(0.0636449115642107,0.,-0.110236220472441));
#1141=CARTESIAN_POINT('',(0.127289823128421,0.,-2.18547839493141E-17));
#1142=CARTESIAN_POINT('',(0.0636449115642107,0.,-0.110236220472441));
#1143=CARTESIAN_POINT('Origin',(-0.206692913385827,0.,0.15748031496063));
#1144=CARTESIAN_POINT('',(-0.206692913385827,0.047244094488189,0.15748031496063));
#1145=CARTESIAN_POINT('Origin',(-0.0636449115642106,0.,0.110236220472441));
#1146=CARTESIAN_POINT('',(-0.127289823128421,0.,-2.23670054481262E-17));
#1147=CARTESIAN_POINT('',(-0.127289823128421,0.,-2.23670054481262E-17));
#1148=CARTESIAN_POINT('',(-0.0636449115642107,0.,0.110236220472441));
#1149=CARTESIAN_POINT('',(-0.127289823128421,0.,-2.18547839493141E-17));
#1150=CARTESIAN_POINT('',(-0.0636449115642107,0.,0.110236220472441));
#1151=CARTESIAN_POINT('Origin',(0.127289823128421,0.,-2.18547839493141E-17));
#1152=CARTESIAN_POINT('',(0.0636449115642107,0.,0.110236220472441));
#1153=CARTESIAN_POINT('',(0.0636449115642107,0.,0.110236220472441));
#1154=CARTESIAN_POINT('',(0.0636449115642107,0.,0.110236220472441));
#1155=CARTESIAN_POINT('Origin',(0.0636449115642107,0.,0.110236220472441));
#1156=CARTESIAN_POINT('',(-0.0636449115642107,0.,0.110236220472441));
#1157=CARTESIAN_POINT('Origin',(-0.0636449115642107,0.,-0.110236220472441));
#1158=CARTESIAN_POINT('',(-0.0636449115642107,0.,-0.110236220472441));
#1159=CARTESIAN_POINT('',(0.0636449115642107,0.,-0.110236220472441));
#1160=CARTESIAN_POINT('',(-0.0636449115642107,0.,-0.110236220472441));
#1161=CARTESIAN_POINT('Origin',(-0.127289823128421,0.,-2.18547839493141E-17));
#1162=CARTESIAN_POINT('',(-0.0636449115642107,0.,-0.110236220472441));
#1163=CARTESIAN_POINT('Origin',(-1.09273919746571E-17,0.,0.));
#1164=CARTESIAN_POINT('Origin',(0.,0.047244094488189,2.18547839493141E-17));
#1165=UNCERTAINTY_MEASURE_WITH_UNIT(LENGTH_MEASURE(0.000393700787401575),
#1171,'DISTANCE_ACCURACY_VALUE',
'Maximum model space distance between geometric entities at asserted c
onnectivities');
#1166=UNCERTAINTY_MEASURE_WITH_UNIT(LENGTH_MEASURE(0.000393700787401575),
#1171,'DISTANCE_ACCURACY_VALUE',
'Maximum model space distance between geometric entities at asserted c
onnectivities');
#1167=(
GEOMETRIC_REPRESENTATION_CONTEXT(3)
GLOBAL_UNCERTAINTY_ASSIGNED_CONTEXT((#1165))
GLOBAL_UNIT_ASSIGNED_CONTEXT((#1171,#1175,#1176))
REPRESENTATION_CONTEXT('','3D')
);
#1168=(
GEOMETRIC_REPRESENTATION_CONTEXT(3)
GLOBAL_UNCERTAINTY_ASSIGNED_CONTEXT((#1166))
GLOBAL_UNIT_ASSIGNED_CONTEXT((#1171,#1175,#1176))
REPRESENTATION_CONTEXT('','3D')
);
#1169=DIMENSIONAL_EXPONENTS(1.,0.,0.,0.,0.,0.,0.);
#1170=DIMENSIONAL_EXPONENTS(0.,1.,0.,0.,0.,0.,0.);
#1171=(
CONVERSION_BASED_UNIT('inch',#1174)
LENGTH_UNIT()
NAMED_UNIT(#1169)
);
#1172=(
LENGTH_UNIT()
NAMED_UNIT(*)
SI_UNIT(.MILLI.,.METRE.)
);
#1173=(
LENGTH_UNIT()
NAMED_UNIT(*)
SI_UNIT(.CENTI.,.METRE.)
);
#1174=LENGTH_MEASURE_WITH_UNIT(LENGTH_MEASURE(25.4),#1172);
#1175=(
NAMED_UNIT(*)
PLANE_ANGLE_UNIT()
SI_UNIT($,.RADIAN.)
);
#1176=(
NAMED_UNIT(*)
SI_UNIT($,.STERADIAN.)
SOLID_ANGLE_UNIT()
);
#1177=SHAPE_DEFINITION_REPRESENTATION(#1178,#1179);
#1178=PRODUCT_DEFINITION_SHAPE('',$,#1181);
#1179=SHAPE_REPRESENTATION('',(#689),#1167);
#1180=PRODUCT_DEFINITION_CONTEXT('part definition',#1185,'design');
#1181=PRODUCT_DEFINITION('T Nut Adapter','T Nut Adapter',#1182,#1180);
#1182=PRODUCT_DEFINITION_FORMATION('',$,#1187);
#1183=PRODUCT_RELATED_PRODUCT_CATEGORY('T Nut Adapter','T Nut Adapter',
(#1187));
#1184=APPLICATION_PROTOCOL_DEFINITION('international standard',
'automotive_design',2009,#1185);
#1185=APPLICATION_CONTEXT(
'Core Data for Automotive Mechanical Design Process');
#1186=PRODUCT_CONTEXT('part definition',#1185,'mechanical');
#1187=PRODUCT('T Nut Adapter','T Nut Adapter',$,(#1186));
#1188=PRESENTATION_STYLE_ASSIGNMENT((#1189));
#1189=SURFACE_STYLE_USAGE(.BOTH.,#1192);
#1190=SURFACE_STYLE_RENDERING_WITH_PROPERTIES($,#1196,(#1191));
#1191=SURFACE_STYLE_TRANSPARENT(0.);
#1192=SURFACE_SIDE_STYLE('',(#1193,#1190));
#1193=SURFACE_STYLE_FILL_AREA(#1194);
#1194=FILL_AREA_STYLE('',(#1195));
#1195=FILL_AREA_STYLE_COLOUR('',#1196);
#1196=COLOUR_RGB('',0.749019607843137,0.749019607843137,0.749019607843137);
ENDSEC;
END-ISO-10303-21;
