ISO-10303-21;
HEADER;
/* Generated by software containing ST-Developer
 * from STEP Tools, Inc. (www.steptools.com) 
 */

FILE_DESCRIPTION(
/* description */ (''),
/* implementation_level */ '2;1');

FILE_NAME(
/* name */ 'Jack Plate.stp',
/* time_stamp */ '2026-07-07T01:08:08-04:00',
/* author */ ('Joshua Eah'),
/* organization */ (''),
/* preprocessor_version */ 'ST-DEVELOPER v20.1',
/* originating_system */ 'Autodesk Inventor 2026',
/* authorisation */ '');

FILE_SCHEMA (('AUTOMOTIVE_DESIGN { 1 0 10303 214 3 1 1 }'));
ENDSEC;

DATA;
#10=MECHANICAL_DESIGN_GEOMETRIC_PRESENTATION_REPRESENTATION('',(#13),#526);
#11=SHAPE_REPRESENTATION_RELATIONSHIP('SRR','None',#537,#12);
#12=ADVANCED_BREP_SHAPE_REPRESENTATION('',(#14),#525);
#13=STYLED_ITEM('',(#546),#14);
#14=MANIFOLD_SOLID_BREP('Solid1',#298);
#15=CONICAL_SURFACE('',#342,0.10725,0.715584993317675);
#16=CONICAL_SURFACE('',#344,0.10725,0.715584993317675);
#17=CONICAL_SURFACE('',#346,0.10725,0.715584993317675);
#18=CONICAL_SURFACE('',#348,0.10725,0.715584993317675);
#19=FACE_BOUND('',#53,.T.);
#20=FACE_BOUND('',#54,.T.);
#21=FACE_BOUND('',#55,.T.);
#22=FACE_BOUND('',#56,.T.);
#23=FACE_BOUND('',#57,.T.);
#24=FACE_BOUND('',#70,.T.);
#25=FACE_BOUND('',#71,.T.);
#26=FACE_BOUND('',#72,.T.);
#27=FACE_BOUND('',#73,.T.);
#28=FACE_BOUND('',#74,.T.);
#29=PLANE('',#323);
#30=PLANE('',#324);
#31=PLANE('',#335);
#32=PLANE('',#350);
#33=PLANE('',#351);
#34=PLANE('',#352);
#35=FACE_OUTER_BOUND('',#50,.T.);
#36=FACE_OUTER_BOUND('',#51,.T.);
#37=FACE_OUTER_BOUND('',#52,.T.);
#38=FACE_OUTER_BOUND('',#58,.T.);
#39=FACE_OUTER_BOUND('',#59,.T.);
#40=FACE_OUTER_BOUND('',#60,.T.);
#41=FACE_OUTER_BOUND('',#61,.T.);
#42=FACE_OUTER_BOUND('',#62,.T.);
#43=FACE_OUTER_BOUND('',#63,.T.);
#44=FACE_OUTER_BOUND('',#64,.T.);
#45=FACE_OUTER_BOUND('',#65,.T.);
#46=FACE_OUTER_BOUND('',#66,.T.);
#47=FACE_OUTER_BOUND('',#67,.T.);
#48=FACE_OUTER_BOUND('',#68,.T.);
#49=FACE_OUTER_BOUND('',#69,.T.);
#50=EDGE_LOOP('',(#200,#201,#202,#203));
#51=EDGE_LOOP('',(#204,#205,#206,#207));
#52=EDGE_LOOP('',(#208,#209,#210,#211,#212,#213,#214,#215));
#53=EDGE_LOOP('',(#216));
#54=EDGE_LOOP('',(#217));
#55=EDGE_LOOP('',(#218));
#56=EDGE_LOOP('',(#219));
#57=EDGE_LOOP('',(#220));
#58=EDGE_LOOP('',(#221,#222,#223,#224));
#59=EDGE_LOOP('',(#225,#226,#227,#228));
#60=EDGE_LOOP('',(#229,#230,#231,#232));
#61=EDGE_LOOP('',(#233,#234,#235,#236));
#62=EDGE_LOOP('',(#237,#238,#239,#240));
#63=EDGE_LOOP('',(#241,#242,#243,#244));
#64=EDGE_LOOP('',(#245,#246,#247,#248));
#65=EDGE_LOOP('',(#249,#250,#251,#252));
#66=EDGE_LOOP('',(#253,#254,#255,#256));
#67=EDGE_LOOP('',(#257,#258,#259,#260));
#68=EDGE_LOOP('',(#261,#262,#263,#264));
#69=EDGE_LOOP('',(#265,#266,#267,#268,#269,#270,#271,#272));
#70=EDGE_LOOP('',(#273));
#71=EDGE_LOOP('',(#274));
#72=EDGE_LOOP('',(#275));
#73=EDGE_LOOP('',(#276));
#74=EDGE_LOOP('',(#277));
#75=LINE('',#448,#96);
#76=LINE('',#451,#97);
#77=LINE('',#454,#98);
#78=LINE('',#456,#99);
#79=LINE('',#457,#100);
#80=LINE('',#460,#101);
#81=LINE('',#464,#102);
#82=LINE('',#468,#103);
#83=LINE('',#484,#104);
#84=LINE('',#485,#105);
#85=LINE('',#488,#106);
#86=LINE('',#489,#107);
#87=LINE('',#493,#108);
#88=LINE('',#497,#109);
#89=LINE('',#500,#110);
#90=LINE('',#504,#111);
#91=LINE('',#508,#112);
#92=LINE('',#512,#113);
#93=LINE('',#516,#114);
#94=LINE('',#519,#115);
#95=LINE('',#521,#116);
#96=VECTOR('',#359,0.393700787401575);
#97=VECTOR('',#362,0.393700787401575);
#98=VECTOR('',#365,0.393700787401575);
#99=VECTOR('',#366,0.393700787401575);
#100=VECTOR('',#367,0.393700787401575);
#101=VECTOR('',#370,0.393700787401575);
#102=VECTOR('',#373,0.393700787401575);
#103=VECTOR('',#376,0.393700787401575);
#104=VECTOR('',#393,0.393700787401575);
#105=VECTOR('',#394,0.393700787401575);
#106=VECTOR('',#397,0.393700787401575);
#107=VECTOR('',#398,0.393700787401575);
#108=VECTOR('',#403,0.393700787401575);
#109=VECTOR('',#408,0.393700787401575);
#110=VECTOR('',#411,0.1875);
#111=VECTOR('',#416,0.10725);
#112=VECTOR('',#421,0.10725);
#113=VECTOR('',#426,0.10725);
#114=VECTOR('',#431,0.10725);
#115=VECTOR('',#436,0.393700787401575);
#116=VECTOR('',#439,0.393700787401575);
#117=CIRCLE('',#321,0.125);
#118=CIRCLE('',#322,0.125);
#119=CIRCLE('',#325,0.125);
#120=CIRCLE('',#326,0.125);
#121=CIRCLE('',#327,0.125);
#122=CIRCLE('',#328,0.1875);
#123=CIRCLE('',#329,0.1395);
#124=CIRCLE('',#330,0.1395);
#125=CIRCLE('',#331,0.1395);
#126=CIRCLE('',#332,0.1395);
#127=CIRCLE('',#334,0.125);
#128=CIRCLE('',#337,0.125);
#129=CIRCLE('',#339,0.125);
#130=CIRCLE('',#341,0.1875);
#131=CIRCLE('',#343,0.108292606112397);
#132=CIRCLE('',#345,0.108292606112397);
#133=CIRCLE('',#347,0.108292606112397);
#134=CIRCLE('',#349,0.108292606112397);
#135=VERTEX_POINT('',#444);
#136=VERTEX_POINT('',#445);
#137=VERTEX_POINT('',#447);
#138=VERTEX_POINT('',#449);
#139=VERTEX_POINT('',#453);
#140=VERTEX_POINT('',#455);
#141=VERTEX_POINT('',#459);
#142=VERTEX_POINT('',#461);
#143=VERTEX_POINT('',#463);
#144=VERTEX_POINT('',#465);
#145=VERTEX_POINT('',#467);
#146=VERTEX_POINT('',#470);
#147=VERTEX_POINT('',#472);
#148=VERTEX_POINT('',#474);
#149=VERTEX_POINT('',#476);
#150=VERTEX_POINT('',#478);
#151=VERTEX_POINT('',#481);
#152=VERTEX_POINT('',#482);
#153=VERTEX_POINT('',#487);
#154=VERTEX_POINT('',#491);
#155=VERTEX_POINT('',#495);
#156=VERTEX_POINT('',#499);
#157=VERTEX_POINT('',#503);
#158=VERTEX_POINT('',#507);
#159=VERTEX_POINT('',#511);
#160=VERTEX_POINT('',#515);
#161=EDGE_CURVE('',#135,#136,#117,.T.);
#162=EDGE_CURVE('',#136,#137,#75,.T.);
#163=EDGE_CURVE('',#137,#138,#118,.T.);
#164=EDGE_CURVE('',#138,#135,#76,.T.);
#165=EDGE_CURVE('',#139,#138,#77,.T.);
#166=EDGE_CURVE('',#140,#139,#78,.T.);
#167=EDGE_CURVE('',#140,#135,#79,.T.);
#168=EDGE_CURVE('',#137,#141,#80,.T.);
#169=EDGE_CURVE('',#142,#141,#119,.T.);
#170=EDGE_CURVE('',#142,#143,#81,.T.);
#171=EDGE_CURVE('',#144,#143,#120,.T.);
#172=EDGE_CURVE('',#144,#145,#82,.T.);
#173=EDGE_CURVE('',#139,#145,#121,.T.);
#174=EDGE_CURVE('',#146,#146,#122,.T.);
#175=EDGE_CURVE('',#147,#147,#123,.T.);
#176=EDGE_CURVE('',#148,#148,#124,.T.);
#177=EDGE_CURVE('',#149,#149,#125,.T.);
#178=EDGE_CURVE('',#150,#150,#126,.T.);
#179=EDGE_CURVE('',#151,#152,#127,.T.);
#180=EDGE_CURVE('',#152,#142,#83,.T.);
#181=EDGE_CURVE('',#141,#151,#84,.T.);
#182=EDGE_CURVE('',#152,#153,#85,.T.);
#183=EDGE_CURVE('',#143,#153,#86,.T.);
#184=EDGE_CURVE('',#153,#154,#128,.T.);
#185=EDGE_CURVE('',#154,#144,#87,.T.);
#186=EDGE_CURVE('',#155,#140,#129,.T.);
#187=EDGE_CURVE('',#145,#155,#88,.T.);
#188=EDGE_CURVE('',#146,#156,#89,.T.);
#189=EDGE_CURVE('',#156,#156,#130,.T.);
#190=EDGE_CURVE('',#147,#157,#90,.T.);
#191=EDGE_CURVE('',#157,#157,#131,.T.);
#192=EDGE_CURVE('',#148,#158,#91,.T.);
#193=EDGE_CURVE('',#158,#158,#132,.T.);
#194=EDGE_CURVE('',#149,#159,#92,.T.);
#195=EDGE_CURVE('',#159,#159,#133,.T.);
#196=EDGE_CURVE('',#150,#160,#93,.T.);
#197=EDGE_CURVE('',#160,#160,#134,.T.);
#198=EDGE_CURVE('',#154,#155,#94,.T.);
#199=EDGE_CURVE('',#136,#151,#95,.T.);
#200=ORIENTED_EDGE('',*,*,#161,.T.);
#201=ORIENTED_EDGE('',*,*,#162,.T.);
#202=ORIENTED_EDGE('',*,*,#163,.T.);
#203=ORIENTED_EDGE('',*,*,#164,.T.);
#204=ORIENTED_EDGE('',*,*,#164,.F.);
#205=ORIENTED_EDGE('',*,*,#165,.F.);
#206=ORIENTED_EDGE('',*,*,#166,.F.);
#207=ORIENTED_EDGE('',*,*,#167,.T.);
#208=ORIENTED_EDGE('',*,*,#163,.F.);
#209=ORIENTED_EDGE('',*,*,#168,.T.);
#210=ORIENTED_EDGE('',*,*,#169,.F.);
#211=ORIENTED_EDGE('',*,*,#170,.T.);
#212=ORIENTED_EDGE('',*,*,#171,.F.);
#213=ORIENTED_EDGE('',*,*,#172,.T.);
#214=ORIENTED_EDGE('',*,*,#173,.F.);
#215=ORIENTED_EDGE('',*,*,#165,.T.);
#216=ORIENTED_EDGE('',*,*,#174,.T.);
#217=ORIENTED_EDGE('',*,*,#175,.T.);
#218=ORIENTED_EDGE('',*,*,#176,.T.);
#219=ORIENTED_EDGE('',*,*,#177,.T.);
#220=ORIENTED_EDGE('',*,*,#178,.T.);
#221=ORIENTED_EDGE('',*,*,#179,.T.);
#222=ORIENTED_EDGE('',*,*,#180,.T.);
#223=ORIENTED_EDGE('',*,*,#169,.T.);
#224=ORIENTED_EDGE('',*,*,#181,.T.);
#225=ORIENTED_EDGE('',*,*,#180,.F.);
#226=ORIENTED_EDGE('',*,*,#182,.T.);
#227=ORIENTED_EDGE('',*,*,#183,.F.);
#228=ORIENTED_EDGE('',*,*,#170,.F.);
#229=ORIENTED_EDGE('',*,*,#184,.T.);
#230=ORIENTED_EDGE('',*,*,#185,.T.);
#231=ORIENTED_EDGE('',*,*,#171,.T.);
#232=ORIENTED_EDGE('',*,*,#183,.T.);
#233=ORIENTED_EDGE('',*,*,#186,.T.);
#234=ORIENTED_EDGE('',*,*,#166,.T.);
#235=ORIENTED_EDGE('',*,*,#173,.T.);
#236=ORIENTED_EDGE('',*,*,#187,.T.);
#237=ORIENTED_EDGE('',*,*,#174,.F.);
#238=ORIENTED_EDGE('',*,*,#188,.T.);
#239=ORIENTED_EDGE('',*,*,#189,.F.);
#240=ORIENTED_EDGE('',*,*,#188,.F.);
#241=ORIENTED_EDGE('',*,*,#175,.F.);
#242=ORIENTED_EDGE('',*,*,#190,.T.);
#243=ORIENTED_EDGE('',*,*,#191,.F.);
#244=ORIENTED_EDGE('',*,*,#190,.F.);
#245=ORIENTED_EDGE('',*,*,#176,.F.);
#246=ORIENTED_EDGE('',*,*,#192,.T.);
#247=ORIENTED_EDGE('',*,*,#193,.F.);
#248=ORIENTED_EDGE('',*,*,#192,.F.);
#249=ORIENTED_EDGE('',*,*,#177,.F.);
#250=ORIENTED_EDGE('',*,*,#194,.T.);
#251=ORIENTED_EDGE('',*,*,#195,.F.);
#252=ORIENTED_EDGE('',*,*,#194,.F.);
#253=ORIENTED_EDGE('',*,*,#178,.F.);
#254=ORIENTED_EDGE('',*,*,#196,.T.);
#255=ORIENTED_EDGE('',*,*,#197,.F.);
#256=ORIENTED_EDGE('',*,*,#196,.F.);
#257=ORIENTED_EDGE('',*,*,#185,.F.);
#258=ORIENTED_EDGE('',*,*,#198,.T.);
#259=ORIENTED_EDGE('',*,*,#187,.F.);
#260=ORIENTED_EDGE('',*,*,#172,.F.);
#261=ORIENTED_EDGE('',*,*,#162,.F.);
#262=ORIENTED_EDGE('',*,*,#199,.T.);
#263=ORIENTED_EDGE('',*,*,#181,.F.);
#264=ORIENTED_EDGE('',*,*,#168,.F.);
#265=ORIENTED_EDGE('',*,*,#161,.F.);
#266=ORIENTED_EDGE('',*,*,#167,.F.);
#267=ORIENTED_EDGE('',*,*,#186,.F.);
#268=ORIENTED_EDGE('',*,*,#198,.F.);
#269=ORIENTED_EDGE('',*,*,#184,.F.);
#270=ORIENTED_EDGE('',*,*,#182,.F.);
#271=ORIENTED_EDGE('',*,*,#179,.F.);
#272=ORIENTED_EDGE('',*,*,#199,.F.);
#273=ORIENTED_EDGE('',*,*,#189,.T.);
#274=ORIENTED_EDGE('',*,*,#191,.T.);
#275=ORIENTED_EDGE('',*,*,#193,.T.);
#276=ORIENTED_EDGE('',*,*,#195,.T.);
#277=ORIENTED_EDGE('',*,*,#197,.T.);
#278=CYLINDRICAL_SURFACE('',#320,0.125);
#279=CYLINDRICAL_SURFACE('',#333,0.125);
#280=CYLINDRICAL_SURFACE('',#336,0.125);
#281=CYLINDRICAL_SURFACE('',#338,0.125);
#282=CYLINDRICAL_SURFACE('',#340,0.1875);
#283=ADVANCED_FACE('',(#35),#278,.T.);
#284=ADVANCED_FACE('',(#36),#29,.T.);
#285=ADVANCED_FACE('',(#37,#19,#20,#21,#22,#23),#30,.T.);
#286=ADVANCED_FACE('',(#38),#279,.T.);
#287=ADVANCED_FACE('',(#39),#31,.T.);
#288=ADVANCED_FACE('',(#40),#280,.T.);
#289=ADVANCED_FACE('',(#41),#281,.T.);
#290=ADVANCED_FACE('',(#42),#282,.F.);
#291=ADVANCED_FACE('',(#43),#15,.F.);
#292=ADVANCED_FACE('',(#44),#16,.F.);
#293=ADVANCED_FACE('',(#45),#17,.F.);
#294=ADVANCED_FACE('',(#46),#18,.F.);
#295=ADVANCED_FACE('',(#47),#32,.T.);
#296=ADVANCED_FACE('',(#48),#33,.T.);
#297=ADVANCED_FACE('',(#49,#24,#25,#26,#27,#28),#34,.F.);
#298=CLOSED_SHELL('',(#283,#284,#285,#286,#287,#288,#289,#290,#291,#292,
#293,#294,#295,#296,#297));
#299=DERIVED_UNIT_ELEMENT(#301,1.);
#300=DERIVED_UNIT_ELEMENT(#531,-3.);
#301=(
CONVERSION_BASED_UNIT('gram',#303)
MASS_UNIT()
NAMED_UNIT(#528)
);
#302=(
MASS_UNIT()
NAMED_UNIT(*)
SI_UNIT(.KILO.,.GRAM.)
);
#303=MASS_MEASURE_WITH_UNIT(MASS_MEASURE(0.001),#302);
#304=DERIVED_UNIT((#299,#300));
#305=MEASURE_REPRESENTATION_ITEM('density measure',
POSITIVE_RATIO_MEASURE(7.85),#304);
#306=PROPERTY_DEFINITION_REPRESENTATION(#311,#308);
#307=PROPERTY_DEFINITION_REPRESENTATION(#312,#309);
#308=REPRESENTATION('material name',(#310),#525);
#309=REPRESENTATION('density',(#305),#525);
#310=DESCRIPTIVE_REPRESENTATION_ITEM('Steel, Carbon','Steel, Carbon');
#311=PROPERTY_DEFINITION('material property','material name',#539);
#312=PROPERTY_DEFINITION('material property','density of part',#539);
#313=DATE_TIME_ROLE('creation_date');
#314=APPLIED_DATE_AND_TIME_ASSIGNMENT(#315,#313,(#539));
#315=DATE_AND_TIME(#316,#317);
#316=CALENDAR_DATE(2026,24,6);
#317=LOCAL_TIME(0,0,0.,#318);
#318=COORDINATED_UNIVERSAL_TIME_OFFSET(0,0,.BEHIND.);
#319=AXIS2_PLACEMENT_3D('',#442,#353,#354);
#320=AXIS2_PLACEMENT_3D('',#443,#355,#356);
#321=AXIS2_PLACEMENT_3D('',#446,#357,#358);
#322=AXIS2_PLACEMENT_3D('',#450,#360,#361);
#323=AXIS2_PLACEMENT_3D('',#452,#363,#364);
#324=AXIS2_PLACEMENT_3D('',#458,#368,#369);
#325=AXIS2_PLACEMENT_3D('',#462,#371,#372);
#326=AXIS2_PLACEMENT_3D('',#466,#374,#375);
#327=AXIS2_PLACEMENT_3D('',#469,#377,#378);
#328=AXIS2_PLACEMENT_3D('',#471,#379,#380);
#329=AXIS2_PLACEMENT_3D('',#473,#381,#382);
#330=AXIS2_PLACEMENT_3D('',#475,#383,#384);
#331=AXIS2_PLACEMENT_3D('',#477,#385,#386);
#332=AXIS2_PLACEMENT_3D('',#479,#387,#388);
#333=AXIS2_PLACEMENT_3D('',#480,#389,#390);
#334=AXIS2_PLACEMENT_3D('',#483,#391,#392);
#335=AXIS2_PLACEMENT_3D('',#486,#395,#396);
#336=AXIS2_PLACEMENT_3D('',#490,#399,#400);
#337=AXIS2_PLACEMENT_3D('',#492,#401,#402);
#338=AXIS2_PLACEMENT_3D('',#494,#404,#405);
#339=AXIS2_PLACEMENT_3D('',#496,#406,#407);
#340=AXIS2_PLACEMENT_3D('',#498,#409,#410);
#341=AXIS2_PLACEMENT_3D('',#501,#412,#413);
#342=AXIS2_PLACEMENT_3D('',#502,#414,#415);
#343=AXIS2_PLACEMENT_3D('',#505,#417,#418);
#344=AXIS2_PLACEMENT_3D('',#506,#419,#420);
#345=AXIS2_PLACEMENT_3D('',#509,#422,#423);
#346=AXIS2_PLACEMENT_3D('',#510,#424,#425);
#347=AXIS2_PLACEMENT_3D('',#513,#427,#428);
#348=AXIS2_PLACEMENT_3D('',#514,#429,#430);
#349=AXIS2_PLACEMENT_3D('',#517,#432,#433);
#350=AXIS2_PLACEMENT_3D('',#518,#434,#435);
#351=AXIS2_PLACEMENT_3D('',#520,#437,#438);
#352=AXIS2_PLACEMENT_3D('',#522,#440,#441);
#353=DIRECTION('axis',(0.,0.,1.));
#354=DIRECTION('refdir',(1.,0.,0.));
#355=DIRECTION('center_axis',(0.,-1.,0.));
#356=DIRECTION('ref_axis',(-0.707106781186548,0.,0.707106781186548));
#357=DIRECTION('center_axis',(0.,1.,0.));
#358=DIRECTION('ref_axis',(-0.707106781186548,0.,0.707106781186548));
#359=DIRECTION('',(0.,1.,0.));
#360=DIRECTION('center_axis',(0.,-1.,0.));
#361=DIRECTION('ref_axis',(-0.707106781186548,0.,0.707106781186548));
#362=DIRECTION('',(0.,-1.,0.));
#363=DIRECTION('center_axis',(-1.,0.,2.30164779366821E-16));
#364=DIRECTION('ref_axis',(2.30164779366821E-16,0.,1.));
#365=DIRECTION('',(2.30164779366821E-16,0.,1.));
#366=DIRECTION('',(0.,1.,0.));
#367=DIRECTION('',(2.30164779366821E-16,0.,1.));
#368=DIRECTION('center_axis',(0.,1.,0.));
#369=DIRECTION('ref_axis',(0.,0.,1.));
#370=DIRECTION('',(1.,0.,-1.16558847729675E-16));
#371=DIRECTION('center_axis',(0.,-1.,0.));
#372=DIRECTION('ref_axis',(0.707106781186548,0.,0.707106781186547));
#373=DIRECTION('',(-1.74838271594513E-16,0.,-1.));
#374=DIRECTION('center_axis',(0.,-1.,0.));
#375=DIRECTION('ref_axis',(0.707106781186546,0.,-0.70710678118655));
#376=DIRECTION('',(-1.,0.,2.33117695459351E-16));
#377=DIRECTION('center_axis',(0.,-1.,0.));
#378=DIRECTION('ref_axis',(-0.707106781186547,0.,-0.707106781186548));
#379=DIRECTION('center_axis',(0.,-1.,0.));
#380=DIRECTION('ref_axis',(-1.,0.,0.));
#381=DIRECTION('center_axis',(0.,-1.,0.));
#382=DIRECTION('ref_axis',(-1.,0.,0.));
#383=DIRECTION('center_axis',(0.,-1.,0.));
#384=DIRECTION('ref_axis',(-1.,0.,0.));
#385=DIRECTION('center_axis',(0.,-1.,0.));
#386=DIRECTION('ref_axis',(-1.,0.,0.));
#387=DIRECTION('center_axis',(0.,-1.,0.));
#388=DIRECTION('ref_axis',(-1.,0.,0.));
#389=DIRECTION('center_axis',(0.,-1.,0.));
#390=DIRECTION('ref_axis',(0.707106781186548,0.,0.707106781186547));
#391=DIRECTION('center_axis',(0.,1.,0.));
#392=DIRECTION('ref_axis',(0.707106781186548,0.,0.707106781186547));
#393=DIRECTION('',(0.,1.,0.));
#394=DIRECTION('',(0.,-1.,0.));
#395=DIRECTION('center_axis',(1.,0.,-1.74838271594513E-16));
#396=DIRECTION('ref_axis',(-1.74838271594513E-16,0.,-1.));
#397=DIRECTION('',(-1.74838271594513E-16,0.,-1.));
#398=DIRECTION('',(0.,-1.,0.));
#399=DIRECTION('center_axis',(0.,-1.,0.));
#400=DIRECTION('ref_axis',(0.707106781186546,0.,-0.70710678118655));
#401=DIRECTION('center_axis',(0.,1.,0.));
#402=DIRECTION('ref_axis',(0.707106781186546,0.,-0.70710678118655));
#403=DIRECTION('',(0.,1.,0.));
#404=DIRECTION('center_axis',(0.,-1.,0.));
#405=DIRECTION('ref_axis',(-0.707106781186547,0.,-0.707106781186548));
#406=DIRECTION('center_axis',(0.,1.,0.));
#407=DIRECTION('ref_axis',(-0.707106781186547,0.,-0.707106781186548));
#408=DIRECTION('',(0.,-1.,0.));
#409=DIRECTION('center_axis',(0.,1.,0.));
#410=DIRECTION('ref_axis',(-1.,0.,0.));
#411=DIRECTION('',(0.,-1.,0.));
#412=DIRECTION('center_axis',(0.,1.,0.));
#413=DIRECTION('ref_axis',(-1.,0.,0.));
#414=DIRECTION('center_axis',(0.,1.,0.));
#415=DIRECTION('ref_axis',(-1.,0.,0.));
#416=DIRECTION('',(-0.656059028990507,-0.754709580222772,8.03440589904945E-17));
#417=DIRECTION('center_axis',(0.,1.,0.));
#418=DIRECTION('ref_axis',(-1.,0.,0.));
#419=DIRECTION('center_axis',(0.,1.,0.));
#420=DIRECTION('ref_axis',(-1.,0.,0.));
#421=DIRECTION('',(-0.656059028990507,-0.754709580222772,8.03440589904945E-17));
#422=DIRECTION('center_axis',(0.,1.,0.));
#423=DIRECTION('ref_axis',(-1.,0.,0.));
#424=DIRECTION('center_axis',(0.,1.,0.));
#425=DIRECTION('ref_axis',(-1.,0.,0.));
#426=DIRECTION('',(-0.656059028990507,-0.754709580222772,8.03440589904945E-17));
#427=DIRECTION('center_axis',(0.,1.,0.));
#428=DIRECTION('ref_axis',(-1.,0.,0.));
#429=DIRECTION('center_axis',(0.,1.,0.));
#430=DIRECTION('ref_axis',(-1.,0.,0.));
#431=DIRECTION('',(-0.656059028990507,-0.754709580222772,8.03440589904945E-17));
#432=DIRECTION('center_axis',(0.,1.,0.));
#433=DIRECTION('ref_axis',(-1.,0.,0.));
#434=DIRECTION('center_axis',(-2.33117695459351E-16,0.,-1.));
#435=DIRECTION('ref_axis',(-1.,0.,2.33117695459351E-16));
#436=DIRECTION('',(-1.,0.,2.33117695459351E-16));
#437=DIRECTION('center_axis',(1.16558847729675E-16,0.,1.));
#438=DIRECTION('ref_axis',(1.,0.,-1.16558847729675E-16));
#439=DIRECTION('',(1.,0.,-1.16558847729675E-16));
#440=DIRECTION('center_axis',(0.,1.,0.));
#441=DIRECTION('ref_axis',(0.,0.,1.));
#442=CARTESIAN_POINT('',(0.,0.,0.));
#443=CARTESIAN_POINT('Origin',(0.125,0.,-0.125));
#444=CARTESIAN_POINT('',(-2.87705974208525E-17,-0.0359,-0.125));
#445=CARTESIAN_POINT('',(0.125,-0.0359,-1.45698559662094E-17));
#446=CARTESIAN_POINT('Origin',(0.125,-0.0359,-0.125));
#447=CARTESIAN_POINT('',(0.125,0.,-1.45698559662094E-17));
#448=CARTESIAN_POINT('',(0.125,0.,-2.18547839493141E-17));
#449=CARTESIAN_POINT('',(-2.87705974208525E-17,0.,-0.125));
#450=CARTESIAN_POINT('Origin',(0.125,0.,-0.125));
#451=CARTESIAN_POINT('',(-2.18547839493141E-17,0.,-0.125));
#452=CARTESIAN_POINT('Origin',(-4.60329558733641E-16,0.,-2.));
#453=CARTESIAN_POINT('',(-4.31558961312788E-16,0.,-1.875));
#454=CARTESIAN_POINT('',(-4.60329558733641E-16,0.,-2.));
#455=CARTESIAN_POINT('',(-4.31558961312788E-16,-0.0359,-1.875));
#456=CARTESIAN_POINT('',(-4.37095678986282E-16,0.,-1.875));
#457=CARTESIAN_POINT('',(-4.60329558733641E-16,-0.0359,-2.));
#458=CARTESIAN_POINT('Origin',(1.5,0.,-1.));
#459=CARTESIAN_POINT('',(2.875,0.,-3.35106687222816E-16));
#460=CARTESIAN_POINT('',(0.,0.,0.));
#461=CARTESIAN_POINT('',(3.,0.,-0.125));
#462=CARTESIAN_POINT('Origin',(2.875,0.,-0.125));
#463=CARTESIAN_POINT('',(3.,0.,-1.875));
#464=CARTESIAN_POINT('',(3.,0.,-3.49676543189026E-16));
#465=CARTESIAN_POINT('',(2.875,0.,-2.));
#466=CARTESIAN_POINT('Origin',(2.875,0.,-1.875));
#467=CARTESIAN_POINT('',(0.125,0.,-2.));
#468=CARTESIAN_POINT('',(3.,0.,-2.));
#469=CARTESIAN_POINT('Origin',(0.125,0.,-1.875));
#470=CARTESIAN_POINT('',(1.6875,0.,-1.));
#471=CARTESIAN_POINT('Origin',(1.5,0.,-1.));
#472=CARTESIAN_POINT('',(0.3895,3.27821759239712E-17,-0.25));
#473=CARTESIAN_POINT('Origin',(0.25,0.,-0.25));
#474=CARTESIAN_POINT('',(2.8895,8.19554398099279E-17,-0.25));
#475=CARTESIAN_POINT('Origin',(2.75,0.,-0.25));
#476=CARTESIAN_POINT('',(2.8895,8.19554398099279E-17,-1.75));
#477=CARTESIAN_POINT('Origin',(2.75,0.,-1.75));
#478=CARTESIAN_POINT('',(0.3895,8.19554398099279E-17,-1.75));
#479=CARTESIAN_POINT('Origin',(0.25,0.,-1.75));
#480=CARTESIAN_POINT('Origin',(2.875,0.,-0.125));
#481=CARTESIAN_POINT('',(2.875,-0.0359,-3.35106687222816E-16));
#482=CARTESIAN_POINT('',(3.,-0.0359,-0.125));
#483=CARTESIAN_POINT('Origin',(2.875,-0.0359,-0.125));
#484=CARTESIAN_POINT('',(3.,0.,-0.125));
#485=CARTESIAN_POINT('',(2.875,0.,-3.27821759239712E-16));
#486=CARTESIAN_POINT('Origin',(3.,0.,-3.49676543189026E-16));
#487=CARTESIAN_POINT('',(3.,-0.0359,-1.875));
#488=CARTESIAN_POINT('',(3.,-0.0359,-3.49676543189026E-16));
#489=CARTESIAN_POINT('',(3.,0.,-1.875));
#490=CARTESIAN_POINT('Origin',(2.875,0.,-1.875));
#491=CARTESIAN_POINT('',(2.875,-0.0359,-2.));
#492=CARTESIAN_POINT('Origin',(2.875,-0.0359,-1.875));
#493=CARTESIAN_POINT('',(2.875,0.,-2.));
#494=CARTESIAN_POINT('Origin',(0.125,0.,-1.875));
#495=CARTESIAN_POINT('',(0.125,-0.0359,-2.));
#496=CARTESIAN_POINT('Origin',(0.125,-0.0359,-1.875));
#497=CARTESIAN_POINT('',(0.125,0.,-2.));
#498=CARTESIAN_POINT('Origin',(1.5,-3.6057299968245,-1.));
#499=CARTESIAN_POINT('',(1.6875,-0.0359000000000002,-1.));
#500=CARTESIAN_POINT('',(1.6875,-3.6057299968245,-1.));
#501=CARTESIAN_POINT('Origin',(1.5,-0.0359000000000002,-1.));
#502=CARTESIAN_POINT('Origin',(0.25,-0.0370993811328776,-0.25));
#503=CARTESIAN_POINT('',(0.358292606112397,-0.0359,-0.25));
#504=CARTESIAN_POINT('',(0.35725,-0.0370993811328776,-0.25));
#505=CARTESIAN_POINT('Origin',(0.25,-0.0359,-0.25));
#506=CARTESIAN_POINT('Origin',(2.75,-0.0370993811328776,-0.25));
#507=CARTESIAN_POINT('',(2.8582926061124,-0.0359,-0.25));
#508=CARTESIAN_POINT('',(2.85725,-0.0370993811328776,-0.25));
#509=CARTESIAN_POINT('Origin',(2.75,-0.0359,-0.25));
#510=CARTESIAN_POINT('Origin',(2.75,-0.0370993811328776,-1.75));
#511=CARTESIAN_POINT('',(2.8582926061124,-0.0359,-1.75));
#512=CARTESIAN_POINT('',(2.85725,-0.0370993811328776,-1.75));
#513=CARTESIAN_POINT('Origin',(2.75,-0.0359,-1.75));
#514=CARTESIAN_POINT('Origin',(0.25,-0.0370993811328776,-1.75));
#515=CARTESIAN_POINT('',(0.358292606112397,-0.0359,-1.75));
#516=CARTESIAN_POINT('',(0.35725,-0.0370993811328776,-1.75));
#517=CARTESIAN_POINT('Origin',(0.25,-0.0359,-1.75));
#518=CARTESIAN_POINT('Origin',(3.,0.,-2.));
#519=CARTESIAN_POINT('',(3.,-0.0359,-2.));
#520=CARTESIAN_POINT('Origin',(0.,0.,0.));
#521=CARTESIAN_POINT('',(0.,-0.0359,0.));
#522=CARTESIAN_POINT('Origin',(1.5,-0.0359,-1.));
#523=UNCERTAINTY_MEASURE_WITH_UNIT(LENGTH_MEASURE(0.000393700787401575),
#529,'DISTANCE_ACCURACY_VALUE',
'Maximum model space distance between geometric entities at asserted c
onnectivities');
#524=UNCERTAINTY_MEASURE_WITH_UNIT(LENGTH_MEASURE(0.000393700787401575),
#529,'DISTANCE_ACCURACY_VALUE',
'Maximum model space distance between geometric entities at asserted c
onnectivities');
#525=(
GEOMETRIC_REPRESENTATION_CONTEXT(3)
GLOBAL_UNCERTAINTY_ASSIGNED_CONTEXT((#523))
GLOBAL_UNIT_ASSIGNED_CONTEXT((#529,#533,#534))
REPRESENTATION_CONTEXT('','3D')
);
#526=(
GEOMETRIC_REPRESENTATION_CONTEXT(3)
GLOBAL_UNCERTAINTY_ASSIGNED_CONTEXT((#524))
GLOBAL_UNIT_ASSIGNED_CONTEXT((#529,#533,#534))
REPRESENTATION_CONTEXT('','3D')
);
#527=DIMENSIONAL_EXPONENTS(1.,0.,0.,0.,0.,0.,0.);
#528=DIMENSIONAL_EXPONENTS(0.,1.,0.,0.,0.,0.,0.);
#529=(
CONVERSION_BASED_UNIT('inch',#532)
LENGTH_UNIT()
NAMED_UNIT(#527)
);
#530=(
LENGTH_UNIT()
NAMED_UNIT(*)
SI_UNIT(.MILLI.,.METRE.)
);
#531=(
LENGTH_UNIT()
NAMED_UNIT(*)
SI_UNIT(.CENTI.,.METRE.)
);
#532=LENGTH_MEASURE_WITH_UNIT(LENGTH_MEASURE(25.4),#530);
#533=(
NAMED_UNIT(*)
PLANE_ANGLE_UNIT()
SI_UNIT($,.RADIAN.)
);
#534=(
NAMED_UNIT(*)
SI_UNIT($,.STERADIAN.)
SOLID_ANGLE_UNIT()
);
#535=SHAPE_DEFINITION_REPRESENTATION(#536,#537);
#536=PRODUCT_DEFINITION_SHAPE('',$,#539);
#537=SHAPE_REPRESENTATION('',(#319),#525);
#538=PRODUCT_DEFINITION_CONTEXT('part definition',#543,'design');
#539=PRODUCT_DEFINITION('Jack Plate','Jack Plate',#540,#538);
#540=PRODUCT_DEFINITION_FORMATION('',$,#545);
#541=PRODUCT_RELATED_PRODUCT_CATEGORY('Jack Plate','Jack Plate',(#545));
#542=APPLICATION_PROTOCOL_DEFINITION('international standard',
'automotive_design',2009,#543);
#543=APPLICATION_CONTEXT(
'Core Data for Automotive Mechanical Design Process');
#544=PRODUCT_CONTEXT('part definition',#543,'mechanical');
#545=PRODUCT('Jack Plate','Jack Plate',$,(#544));
#546=PRESENTATION_STYLE_ASSIGNMENT((#547));
#547=SURFACE_STYLE_USAGE(.BOTH.,#550);
#548=SURFACE_STYLE_RENDERING_WITH_PROPERTIES($,#554,(#549));
#549=SURFACE_STYLE_TRANSPARENT(0.);
#550=SURFACE_SIDE_STYLE('',(#551,#548));
#551=SURFACE_STYLE_FILL_AREA(#552);
#552=FILL_AREA_STYLE('',(#553));
#553=FILL_AREA_STYLE_COLOUR('',#554);
#554=COLOUR_RGB('',0.745098039215686,0.737254901960784,0.729411764705882);
ENDSEC;
END-ISO-10303-21;
