ISO-10303-21;
HEADER;
/* Generated by software containing ST-Developer
 * from STEP Tools, Inc. (www.steptools.com) 
 */

FILE_DESCRIPTION(
/* description */ (''),
/* implementation_level */ '2;1');

FILE_NAME(
/* name */ 'Air Port Plate.stp',
/* time_stamp */ '2026-06-15T13:52:30-04:00',
/* author */ ('Joshua Eah'),
/* organization */ (''),
/* preprocessor_version */ 'ST-DEVELOPER v20.1',
/* originating_system */ 'Autodesk Inventor 2026',
/* authorisation */ '');

FILE_SCHEMA (('AUTOMOTIVE_DESIGN { 1 0 10303 214 3 1 1 }'));
ENDSEC;

DATA;
#10=MECHANICAL_DESIGN_GEOMETRIC_PRESENTATION_REPRESENTATION('',(#13),#1154);
#11=SHAPE_REPRESENTATION_RELATIONSHIP('SRR','None',#1165,#12);
#12=ADVANCED_BREP_SHAPE_REPRESENTATION('',(#14),#1153);
#13=STYLED_ITEM('',(#1174),#14);
#14=MANIFOLD_SOLID_BREP('Solid1',#654);
#15=FACE_BOUND('',#97,.T.);
#16=FACE_BOUND('',#101,.T.);
#17=FACE_BOUND('',#105,.T.);
#18=FACE_BOUND('',#110,.T.);
#19=FACE_BOUND('',#114,.T.);
#20=FACE_BOUND('',#115,.T.);
#21=FACE_BOUND('',#116,.T.);
#22=FACE_BOUND('',#117,.T.);
#23=FACE_BOUND('',#118,.T.);
#24=FACE_BOUND('',#119,.T.);
#25=FACE_BOUND('',#120,.T.);
#26=FACE_BOUND('',#121,.T.);
#27=FACE_BOUND('',#122,.T.);
#28=FACE_BOUND('',#123,.T.);
#29=FACE_BOUND('',#127,.T.);
#30=FACE_BOUND('',#131,.T.);
#31=FACE_BOUND('',#132,.T.);
#32=FACE_BOUND('',#133,.T.);
#33=FACE_BOUND('',#134,.T.);
#34=FACE_BOUND('',#135,.T.);
#35=FACE_BOUND('',#136,.T.);
#36=FACE_BOUND('',#137,.T.);
#37=FACE_BOUND('',#138,.T.);
#38=FACE_BOUND('',#139,.T.);
#39=FACE_BOUND('',#140,.T.);
#40=FACE_BOUND('',#141,.T.);
#41=FACE_BOUND('',#142,.T.);
#42=FACE_BOUND('',#152,.T.);
#43=PLANE('',#694);
#44=PLANE('',#701);
#45=PLANE('',#708);
#46=PLANE('',#722);
#47=PLANE('',#729);
#48=PLANE('',#741);
#49=PLANE('',#744);
#50=PLANE('',#745);
#51=PLANE('',#752);
#52=PLANE('',#758);
#53=PLANE('',#759);
#54=PLANE('',#760);
#55=FACE_OUTER_BOUND('',#90,.T.);
#56=FACE_OUTER_BOUND('',#91,.T.);
#57=FACE_OUTER_BOUND('',#92,.T.);
#58=FACE_OUTER_BOUND('',#93,.T.);
#59=FACE_OUTER_BOUND('',#94,.T.);
#60=FACE_OUTER_BOUND('',#95,.T.);
#61=FACE_OUTER_BOUND('',#96,.T.);
#62=FACE_OUTER_BOUND('',#98,.T.);
#63=FACE_OUTER_BOUND('',#99,.T.);
#64=FACE_OUTER_BOUND('',#100,.T.);
#65=FACE_OUTER_BOUND('',#102,.T.);
#66=FACE_OUTER_BOUND('',#103,.T.);
#67=FACE_OUTER_BOUND('',#104,.T.);
#68=FACE_OUTER_BOUND('',#106,.T.);
#69=FACE_OUTER_BOUND('',#107,.T.);
#70=FACE_OUTER_BOUND('',#108,.T.);
#71=FACE_OUTER_BOUND('',#109,.T.);
#72=FACE_OUTER_BOUND('',#111,.T.);
#73=FACE_OUTER_BOUND('',#112,.T.);
#74=FACE_OUTER_BOUND('',#113,.T.);
#75=FACE_OUTER_BOUND('',#124,.T.);
#76=FACE_OUTER_BOUND('',#125,.T.);
#77=FACE_OUTER_BOUND('',#126,.T.);
#78=FACE_OUTER_BOUND('',#128,.T.);
#79=FACE_OUTER_BOUND('',#129,.T.);
#80=FACE_OUTER_BOUND('',#130,.T.);
#81=FACE_OUTER_BOUND('',#143,.T.);
#82=FACE_OUTER_BOUND('',#144,.T.);
#83=FACE_OUTER_BOUND('',#145,.T.);
#84=FACE_OUTER_BOUND('',#146,.T.);
#85=FACE_OUTER_BOUND('',#147,.T.);
#86=FACE_OUTER_BOUND('',#148,.T.);
#87=FACE_OUTER_BOUND('',#149,.T.);
#88=FACE_OUTER_BOUND('',#150,.T.);
#89=FACE_OUTER_BOUND('',#151,.T.);
#90=EDGE_LOOP('',(#422,#423,#424,#425));
#91=EDGE_LOOP('',(#426,#427,#428,#429));
#92=EDGE_LOOP('',(#430,#431,#432,#433));
#93=EDGE_LOOP('',(#434,#435,#436,#437));
#94=EDGE_LOOP('',(#438,#439,#440,#441));
#95=EDGE_LOOP('',(#442,#443,#444,#445));
#96=EDGE_LOOP('',(#446));
#97=EDGE_LOOP('',(#447));
#98=EDGE_LOOP('',(#448,#449,#450,#451));
#99=EDGE_LOOP('',(#452,#453,#454,#455));
#100=EDGE_LOOP('',(#456));
#101=EDGE_LOOP('',(#457));
#102=EDGE_LOOP('',(#458,#459,#460,#461));
#103=EDGE_LOOP('',(#462,#463,#464,#465));
#104=EDGE_LOOP('',(#466));
#105=EDGE_LOOP('',(#467));
#106=EDGE_LOOP('',(#468,#469,#470,#471,#472,#473,#474,#475));
#107=EDGE_LOOP('',(#476,#477,#478,#479));
#108=EDGE_LOOP('',(#480,#481,#482,#483,#484,#485,#486,#487));
#109=EDGE_LOOP('',(#488));
#110=EDGE_LOOP('',(#489));
#111=EDGE_LOOP('',(#490,#491,#492,#493));
#112=EDGE_LOOP('',(#494,#495,#496,#497));
#113=EDGE_LOOP('',(#498,#499,#500,#501,#502,#503,#504,#505));
#114=EDGE_LOOP('',(#506));
#115=EDGE_LOOP('',(#507));
#116=EDGE_LOOP('',(#508));
#117=EDGE_LOOP('',(#509));
#118=EDGE_LOOP('',(#510));
#119=EDGE_LOOP('',(#511));
#120=EDGE_LOOP('',(#512));
#121=EDGE_LOOP('',(#513));
#122=EDGE_LOOP('',(#514));
#123=EDGE_LOOP('',(#515,#516,#517,#518,#519,#520));
#124=EDGE_LOOP('',(#521,#522,#523,#524));
#125=EDGE_LOOP('',(#525,#526,#527,#528));
#126=EDGE_LOOP('',(#529,#530,#531,#532));
#127=EDGE_LOOP('',(#533));
#128=EDGE_LOOP('',(#534,#535,#536,#537));
#129=EDGE_LOOP('',(#538,#539,#540,#541));
#130=EDGE_LOOP('',(#542,#543,#544,#545,#546,#547,#548,#549));
#131=EDGE_LOOP('',(#550));
#132=EDGE_LOOP('',(#551));
#133=EDGE_LOOP('',(#552));
#134=EDGE_LOOP('',(#553));
#135=EDGE_LOOP('',(#554));
#136=EDGE_LOOP('',(#555));
#137=EDGE_LOOP('',(#556));
#138=EDGE_LOOP('',(#557));
#139=EDGE_LOOP('',(#558));
#140=EDGE_LOOP('',(#559));
#141=EDGE_LOOP('',(#560));
#142=EDGE_LOOP('',(#561));
#143=EDGE_LOOP('',(#562,#563,#564,#565));
#144=EDGE_LOOP('',(#566,#567,#568,#569));
#145=EDGE_LOOP('',(#570,#571,#572,#573));
#146=EDGE_LOOP('',(#574,#575,#576,#577));
#147=EDGE_LOOP('',(#578,#579,#580,#581));
#148=EDGE_LOOP('',(#582,#583,#584,#585));
#149=EDGE_LOOP('',(#586,#587,#588,#589));
#150=EDGE_LOOP('',(#590,#591,#592,#593));
#151=EDGE_LOOP('',(#594));
#152=EDGE_LOOP('',(#595));
#153=LINE('',#975,#190);
#154=LINE('',#981,#191);
#155=LINE('',#987,#192);
#156=LINE('',#993,#193);
#157=LINE('',#999,#194);
#158=LINE('',#1005,#195);
#159=LINE('',#1015,#196);
#160=LINE('',#1018,#197);
#161=LINE('',#1028,#198);
#162=LINE('',#1031,#199);
#163=LINE('',#1041,#200);
#164=LINE('',#1045,#201);
#165=LINE('',#1048,#202);
#166=LINE('',#1052,#203);
#167=LINE('',#1057,#204);
#168=LINE('',#1061,#205);
#169=LINE('',#1066,#206);
#170=LINE('',#1073,#207);
#171=LINE('',#1083,#208);
#172=LINE('',#1087,#209);
#173=LINE('',#1091,#210);
#174=LINE('',#1094,#211);
#175=LINE('',#1102,#212);
#176=LINE('',#1111,#213);
#177=LINE('',#1112,#214);
#178=LINE('',#1115,#215);
#179=LINE('',#1116,#216);
#180=LINE('',#1119,#217);
#181=LINE('',#1123,#218);
#182=LINE('',#1127,#219);
#183=LINE('',#1134,#220);
#184=LINE('',#1135,#221);
#185=LINE('',#1137,#222);
#186=LINE('',#1139,#223);
#187=LINE('',#1141,#224);
#188=LINE('',#1143,#225);
#189=LINE('',#1146,#226);
#190=VECTOR('',#767,0.04840551);
#191=VECTOR('',#774,0.04840551);
#192=VECTOR('',#781,0.04840551);
#193=VECTOR('',#788,0.04840551);
#194=VECTOR('',#795,0.04840551);
#195=VECTOR('',#802,0.04840551);
#196=VECTOR('',#815,0.128);
#197=VECTOR('',#818,0.067);
#198=VECTOR('',#831,0.128);
#199=VECTOR('',#834,0.067);
#200=VECTOR('',#845,0.393700787401575);
#201=VECTOR('',#848,0.393700787401575);
#202=VECTOR('',#851,0.128);
#203=VECTOR('',#856,0.067);
#204=VECTOR('',#861,0.393700787401575);
#205=VECTOR('',#864,0.128);
#206=VECTOR('',#869,0.393700787401575);
#207=VECTOR('',#878,0.067);
#208=VECTOR('',#891,0.393700787401575);
#209=VECTOR('',#894,0.393700787401575);
#210=VECTOR('',#897,0.393700787401575);
#211=VECTOR('',#900,0.393700787401575);
#212=VECTOR('',#909,0.511811023622047);
#213=VECTOR('',#922,0.393700787401575);
#214=VECTOR('',#923,0.393700787401575);
#215=VECTOR('',#926,0.393700787401575);
#216=VECTOR('',#927,0.393700787401575);
#217=VECTOR('',#930,0.393700787401575);
#218=VECTOR('',#933,0.393700787401575);
#219=VECTOR('',#936,0.393700787401575);
#220=VECTOR('',#945,0.393700787401575);
#221=VECTOR('',#946,0.393700787401575);
#222=VECTOR('',#949,0.393700787401575);
#223=VECTOR('',#952,0.393700787401575);
#224=VECTOR('',#955,0.393700787401575);
#225=VECTOR('',#958,0.295275590551181);
#226=VECTOR('',#961,0.433070866141732);
#227=CIRCLE('',#677,0.04840551);
#228=CIRCLE('',#678,0.04840551);
#229=CIRCLE('',#680,0.04840551);
#230=CIRCLE('',#681,0.04840551);
#231=CIRCLE('',#683,0.04840551);
#232=CIRCLE('',#684,0.04840551);
#233=CIRCLE('',#686,0.04840551);
#234=CIRCLE('',#687,0.04840551);
#235=CIRCLE('',#689,0.04840551);
#236=CIRCLE('',#690,0.04840551);
#237=CIRCLE('',#692,0.04840551);
#238=CIRCLE('',#693,0.04840551);
#239=CIRCLE('',#695,0.128);
#240=CIRCLE('',#696,0.067);
#241=CIRCLE('',#698,0.128);
#242=CIRCLE('',#700,0.067);
#243=CIRCLE('',#702,0.128);
#244=CIRCLE('',#703,0.067);
#245=CIRCLE('',#705,0.128);
#246=CIRCLE('',#707,0.067);
#247=CIRCLE('',#709,0.128);
#248=CIRCLE('',#710,0.067);
#249=CIRCLE('',#712,0.128);
#250=CIRCLE('',#713,0.128);
#251=CIRCLE('',#714,0.128);
#252=CIRCLE('',#716,0.067);
#253=CIRCLE('',#718,0.128);
#254=CIRCLE('',#719,0.128);
#255=CIRCLE('',#720,0.128);
#256=CIRCLE('',#721,0.128);
#257=CIRCLE('',#723,0.067);
#258=CIRCLE('',#725,0.067);
#259=CIRCLE('',#727,0.62992125984252);
#260=CIRCLE('',#728,0.62992125984252);
#261=CIRCLE('',#730,0.125);
#262=CIRCLE('',#731,0.125);
#263=CIRCLE('',#732,0.125);
#264=CIRCLE('',#733,0.125);
#265=CIRCLE('',#734,0.295275590551181);
#266=CIRCLE('',#735,0.62992125984252);
#267=CIRCLE('',#737,0.511811023622047);
#268=CIRCLE('',#738,0.511811023622047);
#269=CIRCLE('',#740,0.62992125984252);
#270=CIRCLE('',#743,0.125);
#271=CIRCLE('',#746,0.125);
#272=CIRCLE('',#747,0.125);
#273=CIRCLE('',#748,0.125);
#274=CIRCLE('',#749,0.433070866141732);
#275=CIRCLE('',#750,0.295275590551181);
#276=CIRCLE('',#757,0.433070866141732);
#277=VERTEX_POINT('',#972);
#278=VERTEX_POINT('',#974);
#279=VERTEX_POINT('',#978);
#280=VERTEX_POINT('',#980);
#281=VERTEX_POINT('',#984);
#282=VERTEX_POINT('',#986);
#283=VERTEX_POINT('',#990);
#284=VERTEX_POINT('',#992);
#285=VERTEX_POINT('',#996);
#286=VERTEX_POINT('',#998);
#287=VERTEX_POINT('',#1002);
#288=VERTEX_POINT('',#1004);
#289=VERTEX_POINT('',#1008);
#290=VERTEX_POINT('',#1010);
#291=VERTEX_POINT('',#1013);
#292=VERTEX_POINT('',#1017);
#293=VERTEX_POINT('',#1021);
#294=VERTEX_POINT('',#1023);
#295=VERTEX_POINT('',#1026);
#296=VERTEX_POINT('',#1030);
#297=VERTEX_POINT('',#1034);
#298=VERTEX_POINT('',#1036);
#299=VERTEX_POINT('',#1039);
#300=VERTEX_POINT('',#1040);
#301=VERTEX_POINT('',#1042);
#302=VERTEX_POINT('',#1044);
#303=VERTEX_POINT('',#1046);
#304=VERTEX_POINT('',#1051);
#305=VERTEX_POINT('',#1055);
#306=VERTEX_POINT('',#1056);
#307=VERTEX_POINT('',#1058);
#308=VERTEX_POINT('',#1060);
#309=VERTEX_POINT('',#1063);
#310=VERTEX_POINT('',#1065);
#311=VERTEX_POINT('',#1069);
#312=VERTEX_POINT('',#1072);
#313=VERTEX_POINT('',#1079);
#314=VERTEX_POINT('',#1080);
#315=VERTEX_POINT('',#1082);
#316=VERTEX_POINT('',#1084);
#317=VERTEX_POINT('',#1086);
#318=VERTEX_POINT('',#1088);
#319=VERTEX_POINT('',#1090);
#320=VERTEX_POINT('',#1092);
#321=VERTEX_POINT('',#1095);
#322=VERTEX_POINT('',#1099);
#323=VERTEX_POINT('',#1101);
#324=VERTEX_POINT('',#1108);
#325=VERTEX_POINT('',#1109);
#326=VERTEX_POINT('',#1114);
#327=VERTEX_POINT('',#1118);
#328=VERTEX_POINT('',#1120);
#329=VERTEX_POINT('',#1122);
#330=VERTEX_POINT('',#1124);
#331=VERTEX_POINT('',#1126);
#332=VERTEX_POINT('',#1129);
#333=VERTEX_POINT('',#1131);
#334=VERTEX_POINT('',#1145);
#335=EDGE_CURVE('',#277,#277,#227,.T.);
#336=EDGE_CURVE('',#277,#278,#153,.T.);
#337=EDGE_CURVE('',#278,#278,#228,.T.);
#338=EDGE_CURVE('',#279,#279,#229,.T.);
#339=EDGE_CURVE('',#279,#280,#154,.T.);
#340=EDGE_CURVE('',#280,#280,#230,.T.);
#341=EDGE_CURVE('',#281,#281,#231,.T.);
#342=EDGE_CURVE('',#281,#282,#155,.T.);
#343=EDGE_CURVE('',#282,#282,#232,.T.);
#344=EDGE_CURVE('',#283,#283,#233,.T.);
#345=EDGE_CURVE('',#283,#284,#156,.T.);
#346=EDGE_CURVE('',#284,#284,#234,.T.);
#347=EDGE_CURVE('',#285,#285,#235,.T.);
#348=EDGE_CURVE('',#285,#286,#157,.T.);
#349=EDGE_CURVE('',#286,#286,#236,.T.);
#350=EDGE_CURVE('',#287,#287,#237,.T.);
#351=EDGE_CURVE('',#287,#288,#158,.T.);
#352=EDGE_CURVE('',#288,#288,#238,.T.);
#353=EDGE_CURVE('',#289,#289,#239,.T.);
#354=EDGE_CURVE('',#290,#290,#240,.T.);
#355=EDGE_CURVE('',#291,#291,#241,.T.);
#356=EDGE_CURVE('',#291,#289,#159,.T.);
#357=EDGE_CURVE('',#290,#292,#160,.T.);
#358=EDGE_CURVE('',#292,#292,#242,.T.);
#359=EDGE_CURVE('',#293,#293,#243,.T.);
#360=EDGE_CURVE('',#294,#294,#244,.T.);
#361=EDGE_CURVE('',#295,#295,#245,.T.);
#362=EDGE_CURVE('',#295,#293,#161,.T.);
#363=EDGE_CURVE('',#294,#296,#162,.T.);
#364=EDGE_CURVE('',#296,#296,#246,.T.);
#365=EDGE_CURVE('',#297,#297,#247,.T.);
#366=EDGE_CURVE('',#298,#298,#248,.T.);
#367=EDGE_CURVE('',#299,#300,#163,.T.);
#368=EDGE_CURVE('',#301,#299,#249,.T.);
#369=EDGE_CURVE('',#302,#301,#164,.T.);
#370=EDGE_CURVE('',#303,#302,#250,.T.);
#371=EDGE_CURVE('',#303,#297,#165,.T.);
#372=EDGE_CURVE('',#300,#303,#251,.T.);
#373=EDGE_CURVE('',#298,#304,#166,.T.);
#374=EDGE_CURVE('',#304,#304,#252,.T.);
#375=EDGE_CURVE('',#305,#306,#167,.T.);
#376=EDGE_CURVE('',#307,#305,#253,.T.);
#377=EDGE_CURVE('',#307,#308,#168,.T.);
#378=EDGE_CURVE('',#308,#308,#254,.T.);
#379=EDGE_CURVE('',#309,#307,#255,.T.);
#380=EDGE_CURVE('',#310,#309,#169,.T.);
#381=EDGE_CURVE('',#306,#310,#256,.T.);
#382=EDGE_CURVE('',#311,#311,#257,.T.);
#383=EDGE_CURVE('',#311,#312,#170,.T.);
#384=EDGE_CURVE('',#312,#312,#258,.T.);
#385=EDGE_CURVE('',#305,#300,#259,.T.);
#386=EDGE_CURVE('',#306,#299,#260,.T.);
#387=EDGE_CURVE('',#313,#314,#261,.T.);
#388=EDGE_CURVE('',#313,#315,#171,.T.);
#389=EDGE_CURVE('',#316,#315,#262,.T.);
#390=EDGE_CURVE('',#316,#317,#172,.T.);
#391=EDGE_CURVE('',#318,#317,#263,.T.);
#392=EDGE_CURVE('',#318,#319,#173,.T.);
#393=EDGE_CURVE('',#320,#319,#264,.T.);
#394=EDGE_CURVE('',#320,#314,#174,.T.);
#395=EDGE_CURVE('',#321,#321,#265,.T.);
#396=EDGE_CURVE('',#302,#309,#266,.T.);
#397=EDGE_CURVE('',#322,#322,#267,.T.);
#398=EDGE_CURVE('',#322,#323,#175,.T.);
#399=EDGE_CURVE('',#323,#323,#268,.T.);
#400=EDGE_CURVE('',#301,#310,#269,.T.);
#401=EDGE_CURVE('',#324,#325,#270,.T.);
#402=EDGE_CURVE('',#325,#313,#176,.T.);
#403=EDGE_CURVE('',#314,#324,#177,.T.);
#404=EDGE_CURVE('',#326,#325,#178,.T.);
#405=EDGE_CURVE('',#315,#326,#179,.T.);
#406=EDGE_CURVE('',#324,#327,#180,.T.);
#407=EDGE_CURVE('',#328,#327,#271,.T.);
#408=EDGE_CURVE('',#328,#329,#181,.T.);
#409=EDGE_CURVE('',#330,#329,#272,.T.);
#410=EDGE_CURVE('',#330,#331,#182,.T.);
#411=EDGE_CURVE('',#326,#331,#273,.T.);
#412=EDGE_CURVE('',#332,#332,#274,.T.);
#413=EDGE_CURVE('',#333,#333,#275,.T.);
#414=EDGE_CURVE('',#327,#320,#183,.T.);
#415=EDGE_CURVE('',#319,#328,#184,.T.);
#416=EDGE_CURVE('',#329,#318,#185,.T.);
#417=EDGE_CURVE('',#317,#330,#186,.T.);
#418=EDGE_CURVE('',#331,#316,#187,.T.);
#419=EDGE_CURVE('',#333,#321,#188,.T.);
#420=EDGE_CURVE('',#332,#334,#189,.T.);
#421=EDGE_CURVE('',#334,#334,#276,.T.);
#422=ORIENTED_EDGE('',*,*,#335,.F.);
#423=ORIENTED_EDGE('',*,*,#336,.T.);
#424=ORIENTED_EDGE('',*,*,#337,.F.);
#425=ORIENTED_EDGE('',*,*,#336,.F.);
#426=ORIENTED_EDGE('',*,*,#338,.F.);
#427=ORIENTED_EDGE('',*,*,#339,.T.);
#428=ORIENTED_EDGE('',*,*,#340,.F.);
#429=ORIENTED_EDGE('',*,*,#339,.F.);
#430=ORIENTED_EDGE('',*,*,#341,.F.);
#431=ORIENTED_EDGE('',*,*,#342,.T.);
#432=ORIENTED_EDGE('',*,*,#343,.F.);
#433=ORIENTED_EDGE('',*,*,#342,.F.);
#434=ORIENTED_EDGE('',*,*,#344,.F.);
#435=ORIENTED_EDGE('',*,*,#345,.T.);
#436=ORIENTED_EDGE('',*,*,#346,.F.);
#437=ORIENTED_EDGE('',*,*,#345,.F.);
#438=ORIENTED_EDGE('',*,*,#347,.F.);
#439=ORIENTED_EDGE('',*,*,#348,.T.);
#440=ORIENTED_EDGE('',*,*,#349,.F.);
#441=ORIENTED_EDGE('',*,*,#348,.F.);
#442=ORIENTED_EDGE('',*,*,#350,.F.);
#443=ORIENTED_EDGE('',*,*,#351,.T.);
#444=ORIENTED_EDGE('',*,*,#352,.F.);
#445=ORIENTED_EDGE('',*,*,#351,.F.);
#446=ORIENTED_EDGE('',*,*,#353,.T.);
#447=ORIENTED_EDGE('',*,*,#354,.F.);
#448=ORIENTED_EDGE('',*,*,#355,.F.);
#449=ORIENTED_EDGE('',*,*,#356,.T.);
#450=ORIENTED_EDGE('',*,*,#353,.F.);
#451=ORIENTED_EDGE('',*,*,#356,.F.);
#452=ORIENTED_EDGE('',*,*,#354,.T.);
#453=ORIENTED_EDGE('',*,*,#357,.T.);
#454=ORIENTED_EDGE('',*,*,#358,.F.);
#455=ORIENTED_EDGE('',*,*,#357,.F.);
#456=ORIENTED_EDGE('',*,*,#359,.T.);
#457=ORIENTED_EDGE('',*,*,#360,.F.);
#458=ORIENTED_EDGE('',*,*,#361,.F.);
#459=ORIENTED_EDGE('',*,*,#362,.T.);
#460=ORIENTED_EDGE('',*,*,#359,.F.);
#461=ORIENTED_EDGE('',*,*,#362,.F.);
#462=ORIENTED_EDGE('',*,*,#360,.T.);
#463=ORIENTED_EDGE('',*,*,#363,.T.);
#464=ORIENTED_EDGE('',*,*,#364,.F.);
#465=ORIENTED_EDGE('',*,*,#363,.F.);
#466=ORIENTED_EDGE('',*,*,#365,.T.);
#467=ORIENTED_EDGE('',*,*,#366,.F.);
#468=ORIENTED_EDGE('',*,*,#367,.F.);
#469=ORIENTED_EDGE('',*,*,#368,.F.);
#470=ORIENTED_EDGE('',*,*,#369,.F.);
#471=ORIENTED_EDGE('',*,*,#370,.F.);
#472=ORIENTED_EDGE('',*,*,#371,.T.);
#473=ORIENTED_EDGE('',*,*,#365,.F.);
#474=ORIENTED_EDGE('',*,*,#371,.F.);
#475=ORIENTED_EDGE('',*,*,#372,.F.);
#476=ORIENTED_EDGE('',*,*,#366,.T.);
#477=ORIENTED_EDGE('',*,*,#373,.T.);
#478=ORIENTED_EDGE('',*,*,#374,.F.);
#479=ORIENTED_EDGE('',*,*,#373,.F.);
#480=ORIENTED_EDGE('',*,*,#375,.F.);
#481=ORIENTED_EDGE('',*,*,#376,.F.);
#482=ORIENTED_EDGE('',*,*,#377,.T.);
#483=ORIENTED_EDGE('',*,*,#378,.F.);
#484=ORIENTED_EDGE('',*,*,#377,.F.);
#485=ORIENTED_EDGE('',*,*,#379,.F.);
#486=ORIENTED_EDGE('',*,*,#380,.F.);
#487=ORIENTED_EDGE('',*,*,#381,.F.);
#488=ORIENTED_EDGE('',*,*,#378,.T.);
#489=ORIENTED_EDGE('',*,*,#382,.F.);
#490=ORIENTED_EDGE('',*,*,#382,.T.);
#491=ORIENTED_EDGE('',*,*,#383,.T.);
#492=ORIENTED_EDGE('',*,*,#384,.F.);
#493=ORIENTED_EDGE('',*,*,#383,.F.);
#494=ORIENTED_EDGE('',*,*,#367,.T.);
#495=ORIENTED_EDGE('',*,*,#385,.F.);
#496=ORIENTED_EDGE('',*,*,#375,.T.);
#497=ORIENTED_EDGE('',*,*,#386,.T.);
#498=ORIENTED_EDGE('',*,*,#387,.F.);
#499=ORIENTED_EDGE('',*,*,#388,.T.);
#500=ORIENTED_EDGE('',*,*,#389,.F.);
#501=ORIENTED_EDGE('',*,*,#390,.T.);
#502=ORIENTED_EDGE('',*,*,#391,.F.);
#503=ORIENTED_EDGE('',*,*,#392,.T.);
#504=ORIENTED_EDGE('',*,*,#393,.F.);
#505=ORIENTED_EDGE('',*,*,#394,.T.);
#506=ORIENTED_EDGE('',*,*,#335,.T.);
#507=ORIENTED_EDGE('',*,*,#338,.T.);
#508=ORIENTED_EDGE('',*,*,#341,.T.);
#509=ORIENTED_EDGE('',*,*,#344,.T.);
#510=ORIENTED_EDGE('',*,*,#347,.T.);
#511=ORIENTED_EDGE('',*,*,#350,.T.);
#512=ORIENTED_EDGE('',*,*,#395,.T.);
#513=ORIENTED_EDGE('',*,*,#361,.T.);
#514=ORIENTED_EDGE('',*,*,#355,.T.);
#515=ORIENTED_EDGE('',*,*,#372,.T.);
#516=ORIENTED_EDGE('',*,*,#370,.T.);
#517=ORIENTED_EDGE('',*,*,#396,.T.);
#518=ORIENTED_EDGE('',*,*,#379,.T.);
#519=ORIENTED_EDGE('',*,*,#376,.T.);
#520=ORIENTED_EDGE('',*,*,#385,.T.);
#521=ORIENTED_EDGE('',*,*,#397,.F.);
#522=ORIENTED_EDGE('',*,*,#398,.T.);
#523=ORIENTED_EDGE('',*,*,#399,.T.);
#524=ORIENTED_EDGE('',*,*,#398,.F.);
#525=ORIENTED_EDGE('',*,*,#369,.T.);
#526=ORIENTED_EDGE('',*,*,#400,.T.);
#527=ORIENTED_EDGE('',*,*,#380,.T.);
#528=ORIENTED_EDGE('',*,*,#396,.F.);
#529=ORIENTED_EDGE('',*,*,#368,.T.);
#530=ORIENTED_EDGE('',*,*,#386,.F.);
#531=ORIENTED_EDGE('',*,*,#381,.T.);
#532=ORIENTED_EDGE('',*,*,#400,.F.);
#533=ORIENTED_EDGE('',*,*,#399,.F.);
#534=ORIENTED_EDGE('',*,*,#401,.T.);
#535=ORIENTED_EDGE('',*,*,#402,.T.);
#536=ORIENTED_EDGE('',*,*,#387,.T.);
#537=ORIENTED_EDGE('',*,*,#403,.T.);
#538=ORIENTED_EDGE('',*,*,#402,.F.);
#539=ORIENTED_EDGE('',*,*,#404,.F.);
#540=ORIENTED_EDGE('',*,*,#405,.F.);
#541=ORIENTED_EDGE('',*,*,#388,.F.);
#542=ORIENTED_EDGE('',*,*,#401,.F.);
#543=ORIENTED_EDGE('',*,*,#406,.T.);
#544=ORIENTED_EDGE('',*,*,#407,.F.);
#545=ORIENTED_EDGE('',*,*,#408,.T.);
#546=ORIENTED_EDGE('',*,*,#409,.F.);
#547=ORIENTED_EDGE('',*,*,#410,.T.);
#548=ORIENTED_EDGE('',*,*,#411,.F.);
#549=ORIENTED_EDGE('',*,*,#404,.T.);
#550=ORIENTED_EDGE('',*,*,#337,.T.);
#551=ORIENTED_EDGE('',*,*,#340,.T.);
#552=ORIENTED_EDGE('',*,*,#343,.T.);
#553=ORIENTED_EDGE('',*,*,#346,.T.);
#554=ORIENTED_EDGE('',*,*,#349,.T.);
#555=ORIENTED_EDGE('',*,*,#352,.T.);
#556=ORIENTED_EDGE('',*,*,#358,.T.);
#557=ORIENTED_EDGE('',*,*,#364,.T.);
#558=ORIENTED_EDGE('',*,*,#374,.T.);
#559=ORIENTED_EDGE('',*,*,#384,.T.);
#560=ORIENTED_EDGE('',*,*,#412,.T.);
#561=ORIENTED_EDGE('',*,*,#413,.T.);
#562=ORIENTED_EDGE('',*,*,#407,.T.);
#563=ORIENTED_EDGE('',*,*,#414,.T.);
#564=ORIENTED_EDGE('',*,*,#393,.T.);
#565=ORIENTED_EDGE('',*,*,#415,.T.);
#566=ORIENTED_EDGE('',*,*,#415,.F.);
#567=ORIENTED_EDGE('',*,*,#392,.F.);
#568=ORIENTED_EDGE('',*,*,#416,.F.);
#569=ORIENTED_EDGE('',*,*,#408,.F.);
#570=ORIENTED_EDGE('',*,*,#409,.T.);
#571=ORIENTED_EDGE('',*,*,#416,.T.);
#572=ORIENTED_EDGE('',*,*,#391,.T.);
#573=ORIENTED_EDGE('',*,*,#417,.T.);
#574=ORIENTED_EDGE('',*,*,#411,.T.);
#575=ORIENTED_EDGE('',*,*,#418,.T.);
#576=ORIENTED_EDGE('',*,*,#389,.T.);
#577=ORIENTED_EDGE('',*,*,#405,.T.);
#578=ORIENTED_EDGE('',*,*,#413,.F.);
#579=ORIENTED_EDGE('',*,*,#419,.T.);
#580=ORIENTED_EDGE('',*,*,#395,.F.);
#581=ORIENTED_EDGE('',*,*,#419,.F.);
#582=ORIENTED_EDGE('',*,*,#412,.F.);
#583=ORIENTED_EDGE('',*,*,#420,.T.);
#584=ORIENTED_EDGE('',*,*,#421,.F.);
#585=ORIENTED_EDGE('',*,*,#420,.F.);
#586=ORIENTED_EDGE('',*,*,#417,.F.);
#587=ORIENTED_EDGE('',*,*,#390,.F.);
#588=ORIENTED_EDGE('',*,*,#418,.F.);
#589=ORIENTED_EDGE('',*,*,#410,.F.);
#590=ORIENTED_EDGE('',*,*,#403,.F.);
#591=ORIENTED_EDGE('',*,*,#394,.F.);
#592=ORIENTED_EDGE('',*,*,#414,.F.);
#593=ORIENTED_EDGE('',*,*,#406,.F.);
#594=ORIENTED_EDGE('',*,*,#397,.T.);
#595=ORIENTED_EDGE('',*,*,#421,.T.);
#596=CYLINDRICAL_SURFACE('',#676,0.04840551);
#597=CYLINDRICAL_SURFACE('',#679,0.04840551);
#598=CYLINDRICAL_SURFACE('',#682,0.04840551);
#599=CYLINDRICAL_SURFACE('',#685,0.04840551);
#600=CYLINDRICAL_SURFACE('',#688,0.04840551);
#601=CYLINDRICAL_SURFACE('',#691,0.04840551);
#602=CYLINDRICAL_SURFACE('',#697,0.128);
#603=CYLINDRICAL_SURFACE('',#699,0.067);
#604=CYLINDRICAL_SURFACE('',#704,0.128);
#605=CYLINDRICAL_SURFACE('',#706,0.067);
#606=CYLINDRICAL_SURFACE('',#711,0.128);
#607=CYLINDRICAL_SURFACE('',#715,0.067);
#608=CYLINDRICAL_SURFACE('',#717,0.128);
#609=CYLINDRICAL_SURFACE('',#724,0.067);
#610=CYLINDRICAL_SURFACE('',#726,0.62992125984252);
#611=CYLINDRICAL_SURFACE('',#736,0.511811023622047);
#612=CYLINDRICAL_SURFACE('',#739,0.62992125984252);
#613=CYLINDRICAL_SURFACE('',#742,0.125);
#614=CYLINDRICAL_SURFACE('',#751,0.125);
#615=CYLINDRICAL_SURFACE('',#753,0.125);
#616=CYLINDRICAL_SURFACE('',#754,0.125);
#617=CYLINDRICAL_SURFACE('',#755,0.295275590551181);
#618=CYLINDRICAL_SURFACE('',#756,0.433070866141732);
#619=ADVANCED_FACE('',(#55),#596,.F.);
#620=ADVANCED_FACE('',(#56),#597,.F.);
#621=ADVANCED_FACE('',(#57),#598,.F.);
#622=ADVANCED_FACE('',(#58),#599,.F.);
#623=ADVANCED_FACE('',(#59),#600,.F.);
#624=ADVANCED_FACE('',(#60),#601,.F.);
#625=ADVANCED_FACE('',(#61,#15),#43,.T.);
#626=ADVANCED_FACE('',(#62),#602,.F.);
#627=ADVANCED_FACE('',(#63),#603,.F.);
#628=ADVANCED_FACE('',(#64,#16),#44,.T.);
#629=ADVANCED_FACE('',(#65),#604,.F.);
#630=ADVANCED_FACE('',(#66),#605,.F.);
#631=ADVANCED_FACE('',(#67,#17),#45,.T.);
#632=ADVANCED_FACE('',(#68),#606,.F.);
#633=ADVANCED_FACE('',(#69),#607,.F.);
#634=ADVANCED_FACE('',(#70),#608,.F.);
#635=ADVANCED_FACE('',(#71,#18),#46,.T.);
#636=ADVANCED_FACE('',(#72),#609,.F.);
#637=ADVANCED_FACE('',(#73),#610,.F.);
#638=ADVANCED_FACE('',(#74,#19,#20,#21,#22,#23,#24,#25,#26,#27,#28),#47,
 .T.);
#639=ADVANCED_FACE('',(#75),#611,.T.);
#640=ADVANCED_FACE('',(#76),#612,.F.);
#641=ADVANCED_FACE('',(#77,#29),#48,.T.);
#642=ADVANCED_FACE('',(#78),#613,.T.);
#643=ADVANCED_FACE('',(#79),#49,.T.);
#644=ADVANCED_FACE('',(#80,#30,#31,#32,#33,#34,#35,#36,#37,#38,#39,#40,
#41),#50,.F.);
#645=ADVANCED_FACE('',(#81),#614,.T.);
#646=ADVANCED_FACE('',(#82),#51,.T.);
#647=ADVANCED_FACE('',(#83),#615,.T.);
#648=ADVANCED_FACE('',(#84),#616,.T.);
#649=ADVANCED_FACE('',(#85),#617,.F.);
#650=ADVANCED_FACE('',(#86),#618,.F.);
#651=ADVANCED_FACE('',(#87),#52,.T.);
#652=ADVANCED_FACE('',(#88),#53,.T.);
#653=ADVANCED_FACE('',(#89,#42),#54,.T.);
#654=CLOSED_SHELL('',(#619,#620,#621,#622,#623,#624,#625,#626,#627,#628,
#629,#630,#631,#632,#633,#634,#635,#636,#637,#638,#639,#640,#641,#642,#643,
#644,#645,#646,#647,#648,#649,#650,#651,#652,#653));
#655=DERIVED_UNIT_ELEMENT(#657,1.);
#656=DERIVED_UNIT_ELEMENT(#1159,-3.);
#657=(
CONVERSION_BASED_UNIT('gram',#659)
MASS_UNIT()
NAMED_UNIT(#1156)
);
#658=(
MASS_UNIT()
NAMED_UNIT(*)
SI_UNIT(.KILO.,.GRAM.)
);
#659=MASS_MEASURE_WITH_UNIT(MASS_MEASURE(0.001),#658);
#660=DERIVED_UNIT((#655,#656));
#661=MEASURE_REPRESENTATION_ITEM('density measure',
POSITIVE_RATIO_MEASURE(1.),#660);
#662=PROPERTY_DEFINITION_REPRESENTATION(#667,#664);
#663=PROPERTY_DEFINITION_REPRESENTATION(#668,#665);
#664=REPRESENTATION('material name',(#666),#1153);
#665=REPRESENTATION('density',(#661),#1153);
#666=DESCRIPTIVE_REPRESENTATION_ITEM('Generic','Generic');
#667=PROPERTY_DEFINITION('material property','material name',#1167);
#668=PROPERTY_DEFINITION('material property','density of part',#1167);
#669=DATE_TIME_ROLE('creation_date');
#670=APPLIED_DATE_AND_TIME_ASSIGNMENT(#671,#669,(#1167));
#671=DATE_AND_TIME(#672,#673);
#672=CALENDAR_DATE(2026,11,6);
#673=LOCAL_TIME(0,0,0.,#674);
#674=COORDINATED_UNIVERSAL_TIME_OFFSET(0,0,.BEHIND.);
#675=AXIS2_PLACEMENT_3D('',#970,#761,#762);
#676=AXIS2_PLACEMENT_3D('',#971,#763,#764);
#677=AXIS2_PLACEMENT_3D('',#973,#765,#766);
#678=AXIS2_PLACEMENT_3D('',#976,#768,#769);
#679=AXIS2_PLACEMENT_3D('',#977,#770,#771);
#680=AXIS2_PLACEMENT_3D('',#979,#772,#773);
#681=AXIS2_PLACEMENT_3D('',#982,#775,#776);
#682=AXIS2_PLACEMENT_3D('',#983,#777,#778);
#683=AXIS2_PLACEMENT_3D('',#985,#779,#780);
#684=AXIS2_PLACEMENT_3D('',#988,#782,#783);
#685=AXIS2_PLACEMENT_3D('',#989,#784,#785);
#686=AXIS2_PLACEMENT_3D('',#991,#786,#787);
#687=AXIS2_PLACEMENT_3D('',#994,#789,#790);
#688=AXIS2_PLACEMENT_3D('',#995,#791,#792);
#689=AXIS2_PLACEMENT_3D('',#997,#793,#794);
#690=AXIS2_PLACEMENT_3D('',#1000,#796,#797);
#691=AXIS2_PLACEMENT_3D('',#1001,#798,#799);
#692=AXIS2_PLACEMENT_3D('',#1003,#800,#801);
#693=AXIS2_PLACEMENT_3D('',#1006,#803,#804);
#694=AXIS2_PLACEMENT_3D('',#1007,#805,#806);
#695=AXIS2_PLACEMENT_3D('',#1009,#807,#808);
#696=AXIS2_PLACEMENT_3D('',#1011,#809,#810);
#697=AXIS2_PLACEMENT_3D('',#1012,#811,#812);
#698=AXIS2_PLACEMENT_3D('',#1014,#813,#814);
#699=AXIS2_PLACEMENT_3D('',#1016,#816,#817);
#700=AXIS2_PLACEMENT_3D('',#1019,#819,#820);
#701=AXIS2_PLACEMENT_3D('',#1020,#821,#822);
#702=AXIS2_PLACEMENT_3D('',#1022,#823,#824);
#703=AXIS2_PLACEMENT_3D('',#1024,#825,#826);
#704=AXIS2_PLACEMENT_3D('',#1025,#827,#828);
#705=AXIS2_PLACEMENT_3D('',#1027,#829,#830);
#706=AXIS2_PLACEMENT_3D('',#1029,#832,#833);
#707=AXIS2_PLACEMENT_3D('',#1032,#835,#836);
#708=AXIS2_PLACEMENT_3D('',#1033,#837,#838);
#709=AXIS2_PLACEMENT_3D('',#1035,#839,#840);
#710=AXIS2_PLACEMENT_3D('',#1037,#841,#842);
#711=AXIS2_PLACEMENT_3D('',#1038,#843,#844);
#712=AXIS2_PLACEMENT_3D('',#1043,#846,#847);
#713=AXIS2_PLACEMENT_3D('',#1047,#849,#850);
#714=AXIS2_PLACEMENT_3D('',#1049,#852,#853);
#715=AXIS2_PLACEMENT_3D('',#1050,#854,#855);
#716=AXIS2_PLACEMENT_3D('',#1053,#857,#858);
#717=AXIS2_PLACEMENT_3D('',#1054,#859,#860);
#718=AXIS2_PLACEMENT_3D('',#1059,#862,#863);
#719=AXIS2_PLACEMENT_3D('',#1062,#865,#866);
#720=AXIS2_PLACEMENT_3D('',#1064,#867,#868);
#721=AXIS2_PLACEMENT_3D('',#1067,#870,#871);
#722=AXIS2_PLACEMENT_3D('',#1068,#872,#873);
#723=AXIS2_PLACEMENT_3D('',#1070,#874,#875);
#724=AXIS2_PLACEMENT_3D('',#1071,#876,#877);
#725=AXIS2_PLACEMENT_3D('',#1074,#879,#880);
#726=AXIS2_PLACEMENT_3D('',#1075,#881,#882);
#727=AXIS2_PLACEMENT_3D('',#1076,#883,#884);
#728=AXIS2_PLACEMENT_3D('',#1077,#885,#886);
#729=AXIS2_PLACEMENT_3D('',#1078,#887,#888);
#730=AXIS2_PLACEMENT_3D('',#1081,#889,#890);
#731=AXIS2_PLACEMENT_3D('',#1085,#892,#893);
#732=AXIS2_PLACEMENT_3D('',#1089,#895,#896);
#733=AXIS2_PLACEMENT_3D('',#1093,#898,#899);
#734=AXIS2_PLACEMENT_3D('',#1096,#901,#902);
#735=AXIS2_PLACEMENT_3D('',#1097,#903,#904);
#736=AXIS2_PLACEMENT_3D('',#1098,#905,#906);
#737=AXIS2_PLACEMENT_3D('',#1100,#907,#908);
#738=AXIS2_PLACEMENT_3D('',#1103,#910,#911);
#739=AXIS2_PLACEMENT_3D('',#1104,#912,#913);
#740=AXIS2_PLACEMENT_3D('',#1105,#914,#915);
#741=AXIS2_PLACEMENT_3D('',#1106,#916,#917);
#742=AXIS2_PLACEMENT_3D('',#1107,#918,#919);
#743=AXIS2_PLACEMENT_3D('',#1110,#920,#921);
#744=AXIS2_PLACEMENT_3D('',#1113,#924,#925);
#745=AXIS2_PLACEMENT_3D('',#1117,#928,#929);
#746=AXIS2_PLACEMENT_3D('',#1121,#931,#932);
#747=AXIS2_PLACEMENT_3D('',#1125,#934,#935);
#748=AXIS2_PLACEMENT_3D('',#1128,#937,#938);
#749=AXIS2_PLACEMENT_3D('',#1130,#939,#940);
#750=AXIS2_PLACEMENT_3D('',#1132,#941,#942);
#751=AXIS2_PLACEMENT_3D('',#1133,#943,#944);
#752=AXIS2_PLACEMENT_3D('',#1136,#947,#948);
#753=AXIS2_PLACEMENT_3D('',#1138,#950,#951);
#754=AXIS2_PLACEMENT_3D('',#1140,#953,#954);
#755=AXIS2_PLACEMENT_3D('',#1142,#956,#957);
#756=AXIS2_PLACEMENT_3D('',#1144,#959,#960);
#757=AXIS2_PLACEMENT_3D('',#1147,#962,#963);
#758=AXIS2_PLACEMENT_3D('',#1148,#964,#965);
#759=AXIS2_PLACEMENT_3D('',#1149,#966,#967);
#760=AXIS2_PLACEMENT_3D('',#1150,#968,#969);
#761=DIRECTION('axis',(0.,0.,1.));
#762=DIRECTION('refdir',(1.,0.,0.));
#763=DIRECTION('center_axis',(0.,0.,1.));
#764=DIRECTION('ref_axis',(0.707106781186547,0.707106781186548,0.));
#765=DIRECTION('center_axis',(0.,0.,-1.));
#766=DIRECTION('ref_axis',(0.707106781186547,0.707106781186548,0.));
#767=DIRECTION('',(0.,0.,-1.));
#768=DIRECTION('center_axis',(0.,0.,1.));
#769=DIRECTION('ref_axis',(0.707106781186547,0.707106781186548,0.));
#770=DIRECTION('center_axis',(0.,0.,1.));
#771=DIRECTION('ref_axis',(-1.69310146324102E-16,1.,0.));
#772=DIRECTION('center_axis',(0.,0.,-1.));
#773=DIRECTION('ref_axis',(-1.69310146324102E-16,1.,0.));
#774=DIRECTION('',(0.,0.,-1.));
#775=DIRECTION('center_axis',(0.,0.,1.));
#776=DIRECTION('ref_axis',(-1.69310146324102E-16,1.,0.));
#777=DIRECTION('center_axis',(0.,0.,1.));
#778=DIRECTION('ref_axis',(-1.,-1.69310146324102E-16,0.));
#779=DIRECTION('center_axis',(0.,0.,-1.));
#780=DIRECTION('ref_axis',(-1.,-1.69310146324102E-16,0.));
#781=DIRECTION('',(0.,0.,-1.));
#782=DIRECTION('center_axis',(0.,0.,1.));
#783=DIRECTION('ref_axis',(-1.,-1.69310146324102E-16,0.));
#784=DIRECTION('center_axis',(0.,0.,1.));
#785=DIRECTION('ref_axis',(0.,-1.,0.));
#786=DIRECTION('center_axis',(0.,0.,-1.));
#787=DIRECTION('ref_axis',(0.,-1.,0.));
#788=DIRECTION('',(0.,0.,-1.));
#789=DIRECTION('center_axis',(0.,0.,1.));
#790=DIRECTION('ref_axis',(0.,-1.,0.));
#791=DIRECTION('center_axis',(0.,0.,1.));
#792=DIRECTION('ref_axis',(0.707106781186548,-0.707106781186548,0.));
#793=DIRECTION('center_axis',(0.,0.,-1.));
#794=DIRECTION('ref_axis',(0.707106781186548,-0.707106781186548,0.));
#795=DIRECTION('',(0.,0.,-1.));
#796=DIRECTION('center_axis',(0.,0.,1.));
#797=DIRECTION('ref_axis',(0.707106781186548,-0.707106781186548,0.));
#798=DIRECTION('center_axis',(0.,0.,1.));
#799=DIRECTION('ref_axis',(1.,0.,0.));
#800=DIRECTION('center_axis',(0.,0.,-1.));
#801=DIRECTION('ref_axis',(1.,0.,0.));
#802=DIRECTION('',(0.,0.,-1.));
#803=DIRECTION('center_axis',(0.,0.,1.));
#804=DIRECTION('ref_axis',(1.,0.,0.));
#805=DIRECTION('center_axis',(0.,0.,1.));
#806=DIRECTION('ref_axis',(1.,0.,0.));
#807=DIRECTION('center_axis',(0.,0.,1.));
#808=DIRECTION('ref_axis',(1.,0.,0.));
#809=DIRECTION('center_axis',(0.,0.,1.));
#810=DIRECTION('ref_axis',(1.,0.,0.));
#811=DIRECTION('center_axis',(0.,0.,1.));
#812=DIRECTION('ref_axis',(1.,0.,0.));
#813=DIRECTION('center_axis',(0.,0.,-1.));
#814=DIRECTION('ref_axis',(1.,0.,0.));
#815=DIRECTION('',(0.,0.,-1.));
#816=DIRECTION('center_axis',(0.,0.,1.));
#817=DIRECTION('ref_axis',(1.,0.,0.));
#818=DIRECTION('',(0.,0.,-1.));
#819=DIRECTION('center_axis',(0.,0.,1.));
#820=DIRECTION('ref_axis',(1.,0.,0.));
#821=DIRECTION('center_axis',(0.,0.,1.));
#822=DIRECTION('ref_axis',(1.,0.,0.));
#823=DIRECTION('center_axis',(0.,0.,1.));
#824=DIRECTION('ref_axis',(1.,0.,0.));
#825=DIRECTION('center_axis',(0.,0.,1.));
#826=DIRECTION('ref_axis',(1.,0.,0.));
#827=DIRECTION('center_axis',(0.,0.,1.));
#828=DIRECTION('ref_axis',(1.,0.,0.));
#829=DIRECTION('center_axis',(0.,0.,-1.));
#830=DIRECTION('ref_axis',(1.,0.,0.));
#831=DIRECTION('',(0.,0.,-1.));
#832=DIRECTION('center_axis',(0.,0.,1.));
#833=DIRECTION('ref_axis',(1.,0.,0.));
#834=DIRECTION('',(0.,0.,-1.));
#835=DIRECTION('center_axis',(0.,0.,1.));
#836=DIRECTION('ref_axis',(1.,0.,0.));
#837=DIRECTION('center_axis',(0.,0.,1.));
#838=DIRECTION('ref_axis',(1.,0.,0.));
#839=DIRECTION('center_axis',(0.,0.,1.));
#840=DIRECTION('ref_axis',(1.,0.,0.));
#841=DIRECTION('center_axis',(0.,0.,1.));
#842=DIRECTION('ref_axis',(1.,0.,0.));
#843=DIRECTION('center_axis',(0.,0.,1.));
#844=DIRECTION('ref_axis',(1.,0.,0.));
#845=DIRECTION('',(0.,0.,1.));
#846=DIRECTION('center_axis',(0.,0.,-1.));
#847=DIRECTION('ref_axis',(1.,0.,0.));
#848=DIRECTION('',(0.,0.,-1.));
#849=DIRECTION('center_axis',(0.,0.,-1.));
#850=DIRECTION('ref_axis',(1.,0.,0.));
#851=DIRECTION('',(0.,0.,-1.));
#852=DIRECTION('center_axis',(0.,0.,-1.));
#853=DIRECTION('ref_axis',(1.,0.,0.));
#854=DIRECTION('center_axis',(0.,0.,1.));
#855=DIRECTION('ref_axis',(1.,0.,0.));
#856=DIRECTION('',(0.,0.,-1.));
#857=DIRECTION('center_axis',(0.,0.,1.));
#858=DIRECTION('ref_axis',(1.,0.,0.));
#859=DIRECTION('center_axis',(0.,0.,1.));
#860=DIRECTION('ref_axis',(1.,0.,0.));
#861=DIRECTION('',(0.,0.,-1.));
#862=DIRECTION('center_axis',(0.,0.,-1.));
#863=DIRECTION('ref_axis',(1.,0.,0.));
#864=DIRECTION('',(0.,0.,-1.));
#865=DIRECTION('center_axis',(0.,0.,1.));
#866=DIRECTION('ref_axis',(1.,0.,0.));
#867=DIRECTION('center_axis',(0.,0.,-1.));
#868=DIRECTION('ref_axis',(1.,0.,0.));
#869=DIRECTION('',(0.,0.,1.));
#870=DIRECTION('center_axis',(0.,0.,-1.));
#871=DIRECTION('ref_axis',(1.,0.,0.));
#872=DIRECTION('center_axis',(0.,0.,1.));
#873=DIRECTION('ref_axis',(1.,0.,0.));
#874=DIRECTION('center_axis',(0.,0.,1.));
#875=DIRECTION('ref_axis',(1.,0.,0.));
#876=DIRECTION('center_axis',(0.,0.,1.));
#877=DIRECTION('ref_axis',(1.,0.,0.));
#878=DIRECTION('',(0.,0.,-1.));
#879=DIRECTION('center_axis',(0.,0.,1.));
#880=DIRECTION('ref_axis',(1.,0.,0.));
#881=DIRECTION('center_axis',(0.,0.,-1.));
#882=DIRECTION('ref_axis',(-1.,-7.6571373978539E-16,0.));
#883=DIRECTION('center_axis',(0.,0.,-1.));
#884=DIRECTION('ref_axis',(1.,0.,0.));
#885=DIRECTION('center_axis',(0.,0.,-1.));
#886=DIRECTION('ref_axis',(1.,0.,0.));
#887=DIRECTION('center_axis',(0.,0.,1.));
#888=DIRECTION('ref_axis',(1.,0.,0.));
#889=DIRECTION('center_axis',(0.,0.,-1.));
#890=DIRECTION('ref_axis',(0.707106781186547,-0.707106781186549,0.));
#891=DIRECTION('',(-1.76225876924628E-16,1.,0.));
#892=DIRECTION('center_axis',(0.,0.,-1.));
#893=DIRECTION('ref_axis',(0.707106781186548,0.707106781186548,0.));
#894=DIRECTION('',(-1.,-1.04002156873551E-16,0.));
#895=DIRECTION('center_axis',(0.,0.,-1.));
#896=DIRECTION('ref_axis',(-0.707106781186548,0.707106781186547,0.));
#897=DIRECTION('',(3.52451753849256E-16,-1.,0.));
#898=DIRECTION('center_axis',(0.,0.,-1.));
#899=DIRECTION('ref_axis',(-0.707106781186548,-0.707106781186548,0.));
#900=DIRECTION('',(1.,0.,0.));
#901=DIRECTION('center_axis',(0.,0.,-1.));
#902=DIRECTION('ref_axis',(-1.,0.,0.));
#903=DIRECTION('center_axis',(0.,0.,-1.));
#904=DIRECTION('ref_axis',(1.,0.,0.));
#905=DIRECTION('center_axis',(0.,0.,-1.));
#906=DIRECTION('ref_axis',(-1.,0.,0.));
#907=DIRECTION('center_axis',(0.,0.,1.));
#908=DIRECTION('ref_axis',(-1.,0.,0.));
#909=DIRECTION('',(0.,0.,-1.));
#910=DIRECTION('center_axis',(0.,0.,1.));
#911=DIRECTION('ref_axis',(-1.,0.,0.));
#912=DIRECTION('center_axis',(0.,0.,-1.));
#913=DIRECTION('ref_axis',(1.,0.,0.));
#914=DIRECTION('center_axis',(0.,0.,-1.));
#915=DIRECTION('ref_axis',(1.,0.,0.));
#916=DIRECTION('center_axis',(0.,0.,1.));
#917=DIRECTION('ref_axis',(1.,0.,0.));
#918=DIRECTION('center_axis',(0.,0.,-1.));
#919=DIRECTION('ref_axis',(0.707106781186547,-0.707106781186549,0.));
#920=DIRECTION('center_axis',(0.,0.,1.));
#921=DIRECTION('ref_axis',(0.707106781186547,-0.707106781186549,0.));
#922=DIRECTION('',(0.,0.,1.));
#923=DIRECTION('',(0.,0.,-1.));
#924=DIRECTION('center_axis',(1.,1.76225876924628E-16,0.));
#925=DIRECTION('ref_axis',(1.76225876924628E-16,-1.,0.));
#926=DIRECTION('',(1.76225876924628E-16,-1.,0.));
#927=DIRECTION('',(0.,0.,-1.));
#928=DIRECTION('center_axis',(0.,0.,1.));
#929=DIRECTION('ref_axis',(1.,0.,0.));
#930=DIRECTION('',(-1.,0.,0.));
#931=DIRECTION('center_axis',(0.,0.,1.));
#932=DIRECTION('ref_axis',(-0.707106781186548,-0.707106781186548,0.));
#933=DIRECTION('',(-3.52451753849256E-16,1.,0.));
#934=DIRECTION('center_axis',(0.,0.,1.));
#935=DIRECTION('ref_axis',(-0.707106781186548,0.707106781186547,0.));
#936=DIRECTION('',(1.,1.04002156873551E-16,0.));
#937=DIRECTION('center_axis',(0.,0.,1.));
#938=DIRECTION('ref_axis',(0.707106781186548,0.707106781186548,0.));
#939=DIRECTION('center_axis',(0.,0.,1.));
#940=DIRECTION('ref_axis',(-1.,0.,0.));
#941=DIRECTION('center_axis',(0.,0.,1.));
#942=DIRECTION('ref_axis',(-1.,0.,0.));
#943=DIRECTION('center_axis',(0.,0.,-1.));
#944=DIRECTION('ref_axis',(-0.707106781186548,-0.707106781186548,0.));
#945=DIRECTION('',(0.,0.,1.));
#946=DIRECTION('',(0.,0.,-1.));
#947=DIRECTION('center_axis',(-1.,-3.52451753849256E-16,0.));
#948=DIRECTION('ref_axis',(-3.52451753849256E-16,1.,0.));
#949=DIRECTION('',(0.,0.,1.));
#950=DIRECTION('center_axis',(0.,0.,-1.));
#951=DIRECTION('ref_axis',(-0.707106781186548,0.707106781186547,0.));
#952=DIRECTION('',(0.,0.,-1.));
#953=DIRECTION('center_axis',(0.,0.,-1.));
#954=DIRECTION('ref_axis',(0.707106781186548,0.707106781186548,0.));
#955=DIRECTION('',(0.,0.,1.));
#956=DIRECTION('center_axis',(0.,0.,-1.));
#957=DIRECTION('ref_axis',(-1.,0.,0.));
#958=DIRECTION('',(0.,0.,1.));
#959=DIRECTION('center_axis',(0.,0.,-1.));
#960=DIRECTION('ref_axis',(-1.,0.,0.));
#961=DIRECTION('',(0.,0.,1.));
#962=DIRECTION('center_axis',(0.,0.,-1.));
#963=DIRECTION('ref_axis',(-1.,0.,0.));
#964=DIRECTION('center_axis',(-1.04002156873551E-16,1.,0.));
#965=DIRECTION('ref_axis',(1.,1.04002156873551E-16,0.));
#966=DIRECTION('center_axis',(0.,-1.,0.));
#967=DIRECTION('ref_axis',(-1.,0.,0.));
#968=DIRECTION('center_axis',(0.,0.,1.));
#969=DIRECTION('ref_axis',(1.,0.,0.));
#970=CARTESIAN_POINT('',(0.,0.,0.));
#971=CARTESIAN_POINT('Origin',(1.00137908828915,1.02106412765923,-3.93594670738222));
#972=CARTESIAN_POINT('',(0.967151223921357,0.986836263291435,0.));
#973=CARTESIAN_POINT('Origin',(1.00137908828915,1.02106412765923,0.));
#974=CARTESIAN_POINT('',(0.967151223921357,0.986836263291435,-0.5));
#975=CARTESIAN_POINT('',(0.967151223921357,0.986836263291435,-3.93594670738222));
#976=CARTESIAN_POINT('Origin',(1.00137908828915,1.02106412765923,-0.5));
#977=CARTESIAN_POINT('Origin',(0.47244094488189,1.24015748031496,-3.93594670738222));
#978=CARTESIAN_POINT('',(0.47244094488189,1.19175197031496,0.));
#979=CARTESIAN_POINT('Origin',(0.47244094488189,1.24015748031496,0.));
#980=CARTESIAN_POINT('',(0.47244094488189,1.19175197031496,-0.5));
#981=CARTESIAN_POINT('',(0.47244094488189,1.19175197031496,-3.93594670738222));
#982=CARTESIAN_POINT('Origin',(0.47244094488189,1.24015748031496,-0.5));
#983=CARTESIAN_POINT('Origin',(-0.275590551181102,0.49212598425197,-3.93594670738222));
#984=CARTESIAN_POINT('',(-0.227185041181102,0.49212598425197,0.));
#985=CARTESIAN_POINT('Origin',(-0.275590551181102,0.49212598425197,0.));
#986=CARTESIAN_POINT('',(-0.227185041181102,0.492125984251969,-0.5));
#987=CARTESIAN_POINT('',(-0.227185041181102,0.49212598425197,-3.93594670738222));
#988=CARTESIAN_POINT('Origin',(-0.275590551181102,0.49212598425197,-0.5));
#989=CARTESIAN_POINT('Origin',(0.472440944881889,-0.255905511811024,-3.93594670738222));
#990=CARTESIAN_POINT('',(0.472440944881889,-0.207500001811024,0.));
#991=CARTESIAN_POINT('Origin',(0.472440944881889,-0.255905511811024,0.));
#992=CARTESIAN_POINT('',(0.472440944881889,-0.207500001811024,-0.5));
#993=CARTESIAN_POINT('',(0.472440944881889,-0.207500001811024,-3.93594670738222));
#994=CARTESIAN_POINT('Origin',(0.472440944881889,-0.255905511811024,-0.5));
#995=CARTESIAN_POINT('Origin',(1.00137908828915,-0.0368121591552918,-3.93594670738222));
#996=CARTESIAN_POINT('',(0.967151223921356,-0.00258429478749857,0.));
#997=CARTESIAN_POINT('Origin',(1.00137908828915,-0.0368121591552918,0.));
#998=CARTESIAN_POINT('',(0.967151223921356,-0.00258429478749849,-0.5));
#999=CARTESIAN_POINT('',(0.967151223921356,-0.00258429478749857,-3.93594670738222));
#1000=CARTESIAN_POINT('Origin',(1.00137908828915,-0.0368121591552918,-0.5));
#1001=CARTESIAN_POINT('Origin',(1.22047244094488,0.492125984251968,-3.93594670738222));
#1002=CARTESIAN_POINT('',(1.17206693094488,0.492125984251968,0.));
#1003=CARTESIAN_POINT('Origin',(1.22047244094488,0.492125984251968,0.));
#1004=CARTESIAN_POINT('',(1.17206693094488,0.492125984251968,-0.5));
#1005=CARTESIAN_POINT('',(1.17206693094488,0.492125984251968,-3.93594670738222));
#1006=CARTESIAN_POINT('Origin',(1.22047244094488,0.492125984251968,-0.5));
#1007=CARTESIAN_POINT('Origin',(2.36220472440945,0.,-0.236220472440945));
#1008=CARTESIAN_POINT('',(2.23420472440945,-1.56754790290861E-17,-0.236220472440945));
#1009=CARTESIAN_POINT('Origin',(2.36220472440945,0.,-0.236220472440945));
#1010=CARTESIAN_POINT('',(2.29520472440945,-8.20513355428727E-18,-0.236220472440945));
#1011=CARTESIAN_POINT('Origin',(2.36220472440945,0.,-0.236220472440945));
#1012=CARTESIAN_POINT('Origin',(2.36220472440945,0.,-0.118110236220472));
#1013=CARTESIAN_POINT('',(2.23420472440945,-1.56754790290861E-17,0.));
#1014=CARTESIAN_POINT('Origin',(2.36220472440945,0.,0.));
#1015=CARTESIAN_POINT('',(2.23420472440945,-1.56754790290861E-17,-0.118110236220472));
#1016=CARTESIAN_POINT('Origin',(2.36220472440945,0.,-3.93594670738222));
#1017=CARTESIAN_POINT('',(2.29520472440945,-8.20513355428727E-18,-0.5));
#1018=CARTESIAN_POINT('',(2.29520472440945,-8.20513355428727E-18,-3.93594670738222));
#1019=CARTESIAN_POINT('Origin',(2.36220472440945,0.,-0.5));
#1020=CARTESIAN_POINT('Origin',(2.36220472440945,0.984251968503937,-0.236220472440945));
#1021=CARTESIAN_POINT('',(2.23420472440945,0.984251968503937,-0.236220472440945));
#1022=CARTESIAN_POINT('Origin',(2.36220472440945,0.984251968503937,-0.236220472440945));
#1023=CARTESIAN_POINT('',(2.29520472440945,0.984251968503937,-0.236220472440945));
#1024=CARTESIAN_POINT('Origin',(2.36220472440945,0.984251968503937,-0.236220472440945));
#1025=CARTESIAN_POINT('Origin',(2.36220472440945,0.984251968503937,-0.118110236220472));
#1026=CARTESIAN_POINT('',(2.23420472440945,0.984251968503937,0.));
#1027=CARTESIAN_POINT('Origin',(2.36220472440945,0.984251968503937,0.));
#1028=CARTESIAN_POINT('',(2.23420472440945,0.984251968503937,-0.118110236220472));
#1029=CARTESIAN_POINT('Origin',(2.36220472440945,0.984251968503937,-3.93594670738222));
#1030=CARTESIAN_POINT('',(2.29520472440945,0.984251968503937,-0.5));
#1031=CARTESIAN_POINT('',(2.29520472440945,0.984251968503937,-3.93594670738222));
#1032=CARTESIAN_POINT('Origin',(2.36220472440945,0.984251968503937,-0.5));
#1033=CARTESIAN_POINT('Origin',(0.,0.984251968503937,-0.236220472440945));
#1034=CARTESIAN_POINT('',(-0.128,0.984251968503937,-0.236220472440945));
#1035=CARTESIAN_POINT('Origin',(0.,0.984251968503937,-0.236220472440945));
#1036=CARTESIAN_POINT('',(-0.067,0.984251968503937,-0.236220472440945));
#1037=CARTESIAN_POINT('Origin',(0.,0.984251968503937,-0.236220472440945));
#1038=CARTESIAN_POINT('Origin',(0.,0.984251968503937,-0.118110236220472));
#1039=CARTESIAN_POINT('',(-0.0375413981312661,0.861881042927843,-0.078740157480315));
#1040=CARTESIAN_POINT('',(-0.0375413981312659,0.861881042927843,0.));
#1041=CARTESIAN_POINT('',(-0.0375413981312659,0.861881042927843,-0.118110236220472));
#1042=CARTESIAN_POINT('',(0.123800698750828,1.01676945593465,-0.078740157480315));
#1043=CARTESIAN_POINT('Origin',(0.,0.984251968503937,-0.078740157480315));
#1044=CARTESIAN_POINT('',(0.123800698750828,1.01676945593465,0.));
#1045=CARTESIAN_POINT('',(0.123800698750828,1.01676945593465,-0.118110236220472));
#1046=CARTESIAN_POINT('',(-0.128,0.984251968503937,0.));
#1047=CARTESIAN_POINT('Origin',(0.,0.984251968503937,0.));
#1048=CARTESIAN_POINT('',(-0.128,0.984251968503937,-0.118110236220472));
#1049=CARTESIAN_POINT('Origin',(0.,0.984251968503937,0.));
#1050=CARTESIAN_POINT('Origin',(0.,0.984251968503937,-3.93594670738222));
#1051=CARTESIAN_POINT('',(-0.067,0.984251968503937,-0.5));
#1052=CARTESIAN_POINT('',(-0.067,0.984251968503937,-3.93594670738222));
#1053=CARTESIAN_POINT('Origin',(0.,0.984251968503937,-0.5));
#1054=CARTESIAN_POINT('Origin',(0.,0.,-0.118110236220472));
#1055=CARTESIAN_POINT('',(-0.0375413981312654,0.122370925576094,0.));
#1056=CARTESIAN_POINT('',(-0.0375413981312653,0.122370925576093,-0.078740157480315));
#1057=CARTESIAN_POINT('',(-0.0375413981312654,0.122370925576094,-0.118110236220472));
#1058=CARTESIAN_POINT('',(-0.128,-1.56754790290861E-17,0.));
#1059=CARTESIAN_POINT('Origin',(0.,0.,0.));
#1060=CARTESIAN_POINT('',(-0.128,-1.56754790290861E-17,-0.236220472440945));
#1061=CARTESIAN_POINT('',(-0.128,-1.56754790290861E-17,-0.118110236220472));
#1062=CARTESIAN_POINT('Origin',(0.,0.,-0.236220472440945));
#1063=CARTESIAN_POINT('',(0.123800698750828,-0.0325174874307159,0.));
#1064=CARTESIAN_POINT('Origin',(0.,0.,0.));
#1065=CARTESIAN_POINT('',(0.123800698750828,-0.0325174874307158,-0.078740157480315));
#1066=CARTESIAN_POINT('',(0.123800698750828,-0.0325174874307159,-0.118110236220472));
#1067=CARTESIAN_POINT('Origin',(0.,0.,-0.078740157480315));
#1068=CARTESIAN_POINT('Origin',(0.,0.,-0.236220472440945));
#1069=CARTESIAN_POINT('',(-0.067,-8.20513355428727E-18,-0.236220472440945));
#1070=CARTESIAN_POINT('Origin',(0.,0.,-0.236220472440945));
#1071=CARTESIAN_POINT('Origin',(0.,0.,-3.93594670738222));
#1072=CARTESIAN_POINT('',(-0.067,-8.20513355428727E-18,-0.5));
#1073=CARTESIAN_POINT('',(-0.067,-8.20513355428727E-18,-3.93594670738222));
#1074=CARTESIAN_POINT('Origin',(0.,0.,-0.5));
#1075=CARTESIAN_POINT('Origin',(0.47244094488189,0.492125984251969,0.));
#1076=CARTESIAN_POINT('Origin',(0.47244094488189,0.492125984251969,0.));
#1077=CARTESIAN_POINT('Origin',(0.47244094488189,0.492125984251969,-0.078740157480315));
#1078=CARTESIAN_POINT('Origin',(1.18110236220472,0.492125984251968,0.));
#1079=CARTESIAN_POINT('',(2.86220472440945,-0.375,0.));
#1080=CARTESIAN_POINT('',(2.73720472440945,-0.5,0.));
#1081=CARTESIAN_POINT('Origin',(2.73720472440945,-0.375,0.));
#1082=CARTESIAN_POINT('',(2.86220472440945,1.35925196850394,0.));
#1083=CARTESIAN_POINT('',(2.86220472440945,-0.5,0.));
#1084=CARTESIAN_POINT('',(2.73720472440945,1.48425196850394,0.));
#1085=CARTESIAN_POINT('Origin',(2.73720472440945,1.35925196850394,0.));
#1086=CARTESIAN_POINT('',(-0.375,1.48425196850394,0.));
#1087=CARTESIAN_POINT('',(2.86220472440945,1.48425196850394,0.));
#1088=CARTESIAN_POINT('',(-0.5,1.35925196850394,0.));
#1089=CARTESIAN_POINT('Origin',(-0.375,1.35925196850394,0.));
#1090=CARTESIAN_POINT('',(-0.5,-0.375,0.));
#1091=CARTESIAN_POINT('',(-0.5,1.48425196850394,0.));
#1092=CARTESIAN_POINT('',(-0.375,-0.5,0.));
#1093=CARTESIAN_POINT('Origin',(-0.375,-0.375,0.));
#1094=CARTESIAN_POINT('',(-0.5,-0.5,0.));
#1095=CARTESIAN_POINT('',(2.14566929133858,0.492125984251968,0.));
#1096=CARTESIAN_POINT('Origin',(1.8503937007874,0.492125984251968,0.));
#1097=CARTESIAN_POINT('Origin',(0.47244094488189,0.492125984251969,0.));
#1098=CARTESIAN_POINT('Origin',(0.47244094488189,0.492125984251969,0.));
#1099=CARTESIAN_POINT('',(0.984251968503937,0.492125984251969,0.));
#1100=CARTESIAN_POINT('Origin',(0.47244094488189,0.492125984251969,0.));
#1101=CARTESIAN_POINT('',(0.984251968503937,0.492125984251969,-0.078740157480315));
#1102=CARTESIAN_POINT('',(0.984251968503937,0.492125984251969,0.));
#1103=CARTESIAN_POINT('Origin',(0.47244094488189,0.492125984251969,-0.078740157480315));
#1104=CARTESIAN_POINT('Origin',(0.47244094488189,0.492125984251969,0.));
#1105=CARTESIAN_POINT('Origin',(0.47244094488189,0.492125984251969,-0.078740157480315));
#1106=CARTESIAN_POINT('Origin',(0.47244094488189,0.492125984251969,-0.078740157480315));
#1107=CARTESIAN_POINT('Origin',(2.73720472440945,-0.375,0.));
#1108=CARTESIAN_POINT('',(2.73720472440945,-0.5,-0.5));
#1109=CARTESIAN_POINT('',(2.86220472440945,-0.375,-0.5));
#1110=CARTESIAN_POINT('Origin',(2.73720472440945,-0.375,-0.5));
#1111=CARTESIAN_POINT('',(2.86220472440945,-0.375,0.));
#1112=CARTESIAN_POINT('',(2.73720472440945,-0.5,0.));
#1113=CARTESIAN_POINT('Origin',(2.86220472440945,1.48425196850394,0.));
#1114=CARTESIAN_POINT('',(2.86220472440945,1.35925196850394,-0.5));
#1115=CARTESIAN_POINT('',(2.86220472440945,-0.5,-0.5));
#1116=CARTESIAN_POINT('',(2.86220472440945,1.35925196850394,0.));
#1117=CARTESIAN_POINT('Origin',(1.18110236220472,0.492125984251968,-0.5));
#1118=CARTESIAN_POINT('',(-0.375,-0.5,-0.5));
#1119=CARTESIAN_POINT('',(-0.5,-0.5,-0.5));
#1120=CARTESIAN_POINT('',(-0.5,-0.375,-0.5));
#1121=CARTESIAN_POINT('Origin',(-0.375,-0.375,-0.5));
#1122=CARTESIAN_POINT('',(-0.5,1.35925196850394,-0.5));
#1123=CARTESIAN_POINT('',(-0.5,1.48425196850394,-0.5));
#1124=CARTESIAN_POINT('',(-0.375,1.48425196850394,-0.5));
#1125=CARTESIAN_POINT('Origin',(-0.375,1.35925196850394,-0.5));
#1126=CARTESIAN_POINT('',(2.73720472440945,1.48425196850394,-0.5));
#1127=CARTESIAN_POINT('',(2.86220472440945,1.48425196850394,-0.5));
#1128=CARTESIAN_POINT('Origin',(2.73720472440945,1.35925196850394,-0.5));
#1129=CARTESIAN_POINT('',(0.905511811023622,0.492125984251969,-0.5));
#1130=CARTESIAN_POINT('Origin',(0.47244094488189,0.492125984251969,-0.5));
#1131=CARTESIAN_POINT('',(2.14566929133858,0.492125984251968,-0.5));
#1132=CARTESIAN_POINT('Origin',(1.8503937007874,0.492125984251968,-0.5));
#1133=CARTESIAN_POINT('Origin',(-0.375,-0.375,0.));
#1134=CARTESIAN_POINT('',(-0.375,-0.5,0.));
#1135=CARTESIAN_POINT('',(-0.5,-0.375,0.));
#1136=CARTESIAN_POINT('Origin',(-0.5,-0.5,0.));
#1137=CARTESIAN_POINT('',(-0.5,1.35925196850394,0.));
#1138=CARTESIAN_POINT('Origin',(-0.375,1.35925196850394,0.));
#1139=CARTESIAN_POINT('',(-0.375,1.48425196850394,0.));
#1140=CARTESIAN_POINT('Origin',(2.73720472440945,1.35925196850394,0.));
#1141=CARTESIAN_POINT('',(2.73720472440945,1.48425196850394,0.));
#1142=CARTESIAN_POINT('Origin',(1.8503937007874,0.492125984251968,0.));
#1143=CARTESIAN_POINT('',(2.14566929133858,0.492125984251968,0.));
#1144=CARTESIAN_POINT('Origin',(0.47244094488189,0.492125984251969,0.));
#1145=CARTESIAN_POINT('',(0.905511811023622,0.492125984251969,0.));
#1146=CARTESIAN_POINT('',(0.905511811023622,0.492125984251969,0.));
#1147=CARTESIAN_POINT('Origin',(0.47244094488189,0.492125984251969,0.));
#1148=CARTESIAN_POINT('Origin',(-0.5,1.48425196850394,0.));
#1149=CARTESIAN_POINT('Origin',(2.86220472440945,-0.5,0.));
#1150=CARTESIAN_POINT('Origin',(1.18110236220472,0.492125984251968,0.));
#1151=UNCERTAINTY_MEASURE_WITH_UNIT(LENGTH_MEASURE(0.000393700787401575),
#1157,'DISTANCE_ACCURACY_VALUE',
'Maximum model space distance between geometric entities at asserted c
onnectivities');
#1152=UNCERTAINTY_MEASURE_WITH_UNIT(LENGTH_MEASURE(0.000393700787401575),
#1157,'DISTANCE_ACCURACY_VALUE',
'Maximum model space distance between geometric entities at asserted c
onnectivities');
#1153=(
GEOMETRIC_REPRESENTATION_CONTEXT(3)
GLOBAL_UNCERTAINTY_ASSIGNED_CONTEXT((#1151))
GLOBAL_UNIT_ASSIGNED_CONTEXT((#1157,#1161,#1162))
REPRESENTATION_CONTEXT('','3D')
);
#1154=(
GEOMETRIC_REPRESENTATION_CONTEXT(3)
GLOBAL_UNCERTAINTY_ASSIGNED_CONTEXT((#1152))
GLOBAL_UNIT_ASSIGNED_CONTEXT((#1157,#1161,#1162))
REPRESENTATION_CONTEXT('','3D')
);
#1155=DIMENSIONAL_EXPONENTS(1.,0.,0.,0.,0.,0.,0.);
#1156=DIMENSIONAL_EXPONENTS(0.,1.,0.,0.,0.,0.,0.);
#1157=(
CONVERSION_BASED_UNIT('inch',#1160)
LENGTH_UNIT()
NAMED_UNIT(#1155)
);
#1158=(
LENGTH_UNIT()
NAMED_UNIT(*)
SI_UNIT(.MILLI.,.METRE.)
);
#1159=(
LENGTH_UNIT()
NAMED_UNIT(*)
SI_UNIT(.CENTI.,.METRE.)
);
#1160=LENGTH_MEASURE_WITH_UNIT(LENGTH_MEASURE(25.4),#1158);
#1161=(
NAMED_UNIT(*)
PLANE_ANGLE_UNIT()
SI_UNIT($,.RADIAN.)
);
#1162=(
NAMED_UNIT(*)
SI_UNIT($,.STERADIAN.)
SOLID_ANGLE_UNIT()
);
#1163=SHAPE_DEFINITION_REPRESENTATION(#1164,#1165);
#1164=PRODUCT_DEFINITION_SHAPE('',$,#1167);
#1165=SHAPE_REPRESENTATION('',(#675),#1153);
#1166=PRODUCT_DEFINITION_CONTEXT('part definition',#1171,'design');
#1167=PRODUCT_DEFINITION('Air Port Plate','Air Port Plate',#1168,#1166);
#1168=PRODUCT_DEFINITION_FORMATION('',$,#1173);
#1169=PRODUCT_RELATED_PRODUCT_CATEGORY('Air Port Plate',
'Air Port Plate',(#1173));
#1170=APPLICATION_PROTOCOL_DEFINITION('international standard',
'automotive_design',2009,#1171);
#1171=APPLICATION_CONTEXT(
'Core Data for Automotive Mechanical Design Process');
#1172=PRODUCT_CONTEXT('part definition',#1171,'mechanical');
#1173=PRODUCT('Air Port Plate','Air Port Plate',$,(#1172));
#1174=PRESENTATION_STYLE_ASSIGNMENT((#1175));
#1175=SURFACE_STYLE_USAGE(.BOTH.,#1178);
#1176=SURFACE_STYLE_RENDERING_WITH_PROPERTIES($,#1182,(#1177));
#1177=SURFACE_STYLE_TRANSPARENT(0.);
#1178=SURFACE_SIDE_STYLE('',(#1179,#1176));
#1179=SURFACE_STYLE_FILL_AREA(#1180);
#1180=FILL_AREA_STYLE('',(#1181));
#1181=FILL_AREA_STYLE_COLOUR('',#1182);
#1182=COLOUR_RGB('',0.749019607843137,0.749019607843137,0.749019607843137);
ENDSEC;
END-ISO-10303-21;
