ISO-10303-21;
HEADER;
/* Generated by software containing ST-Developer
 * from STEP Tools, Inc. (www.steptools.com) 
 */

FILE_DESCRIPTION(
/* description */ (''),
/* implementation_level */ '2;1');

FILE_NAME(
/* name */ 'Outlet.stp',
/* time_stamp */ '2026-06-16T12:43:05-04:00',
/* author */ ('Joshua Eah'),
/* organization */ (''),
/* preprocessor_version */ 'ST-DEVELOPER v20.1',
/* originating_system */ 'Autodesk Inventor 2026',
/* authorisation */ '');

FILE_SCHEMA (('AUTOMOTIVE_DESIGN { 1 0 10303 214 3 1 1 }'));
ENDSEC;

DATA;
#10=MECHANICAL_DESIGN_GEOMETRIC_PRESENTATION_REPRESENTATION('',(#13),#667);
#11=SHAPE_REPRESENTATION_RELATIONSHIP('SRR','None',#678,#12);
#12=ADVANCED_BREP_SHAPE_REPRESENTATION('',(#14),#666);
#13=STYLED_ITEM('',(#687),#14);
#14=MANIFOLD_SOLID_BREP('Solid1',#352);
#15=(
BOUNDED_SURFACE()
B_SPLINE_SURFACE(2,2,((#611,#612,#613),(#614,#615,#616),(#617,#618,#619),
(#620,#621,#622),(#623,#624,#625),(#626,#627,#628),(#629,#630,#631),(#632,
#633,#634),(#635,#636,#637)),.UNSPECIFIED.,.F.,.F.,.F.)
B_SPLINE_SURFACE_WITH_KNOTS((3,2,2,2,3),(3,3),(-2.48774604584809,-1.24387302292404,
0.,1.24387302292404,2.48774604584809),(1.57079632679489,3.1415926535898),
 .UNSPECIFIED.)
GEOMETRIC_REPRESENTATION_ITEM()
RATIONAL_B_SPLINE_SURFACE(((1.,0.707106781186544,1.),(0.81275175006475,
0.574702273892016,0.81275175006475),(1.,0.707106781186544,1.),(0.81275175006475,
0.574702273892016,0.81275175006475),(1.,0.707106781186544,1.),(0.81275175006475,
0.574702273892015,0.81275175006475),(1.,0.707106781186544,1.),(0.812751750064749,
0.574702273892015,0.812751750064749),(1.,0.707106781186544,1.)))
REPRESENTATION_ITEM('')
SURFACE()
);
#16=FACE_BOUND('',#70,.T.);
#17=FACE_BOUND('',#76,.T.);
#18=FACE_BOUND('',#77,.T.);
#19=FACE_BOUND('',#78,.T.);
#20=FACE_BOUND('',#79,.T.);
#21=FACE_BOUND('',#80,.T.);
#22=FACE_BOUND('',#81,.T.);
#23=FACE_BOUND('',#82,.T.);
#24=FACE_BOUND('',#84,.T.);
#25=FACE_BOUND('',#85,.T.);
#26=FACE_BOUND('',#86,.T.);
#27=FACE_BOUND('',#87,.T.);
#28=FACE_BOUND('',#88,.T.);
#29=FACE_BOUND('',#89,.T.);
#30=FACE_BOUND('',#90,.T.);
#31=FACE_BOUND('',#94,.T.);
#32=FACE_BOUND('',#96,.T.);
#33=PLANE('',#405);
#34=PLANE('',#416);
#35=PLANE('',#418);
#36=PLANE('',#423);
#37=PLANE('',#424);
#38=ELLIPSE('',#403,0.890843188896437,0.62992125984252);
#39=TOROIDAL_SURFACE('',#396,0.5,0.433070866141732);
#40=FACE_OUTER_BOUND('',#60,.T.);
#41=FACE_OUTER_BOUND('',#61,.T.);
#42=FACE_OUTER_BOUND('',#62,.T.);
#43=FACE_OUTER_BOUND('',#63,.T.);
#44=FACE_OUTER_BOUND('',#64,.T.);
#45=FACE_OUTER_BOUND('',#65,.T.);
#46=FACE_OUTER_BOUND('',#66,.T.);
#47=FACE_OUTER_BOUND('',#67,.T.);
#48=FACE_OUTER_BOUND('',#68,.T.);
#49=FACE_OUTER_BOUND('',#69,.T.);
#50=FACE_OUTER_BOUND('',#71,.T.);
#51=FACE_OUTER_BOUND('',#72,.T.);
#52=FACE_OUTER_BOUND('',#73,.T.);
#53=FACE_OUTER_BOUND('',#74,.T.);
#54=FACE_OUTER_BOUND('',#75,.T.);
#55=FACE_OUTER_BOUND('',#83,.T.);
#56=FACE_OUTER_BOUND('',#91,.T.);
#57=FACE_OUTER_BOUND('',#92,.T.);
#58=FACE_OUTER_BOUND('',#93,.T.);
#59=FACE_OUTER_BOUND('',#95,.T.);
#60=EDGE_LOOP('',(#229,#230,#231,#232));
#61=EDGE_LOOP('',(#233,#234,#235,#236));
#62=EDGE_LOOP('',(#237,#238,#239,#240));
#63=EDGE_LOOP('',(#241,#242,#243,#244));
#64=EDGE_LOOP('',(#245,#246,#247,#248));
#65=EDGE_LOOP('',(#249,#250,#251,#252));
#66=EDGE_LOOP('',(#253,#254,#255,#256,#257));
#67=EDGE_LOOP('',(#258,#259,#260,#261,#262,#263));
#68=EDGE_LOOP('',(#264,#265,#266,#267,#268,#269));
#69=EDGE_LOOP('',(#270));
#70=EDGE_LOOP('',(#271));
#71=EDGE_LOOP('',(#272,#273,#274,#275,#276,#277));
#72=EDGE_LOOP('',(#278,#279,#280,#281));
#73=EDGE_LOOP('',(#282,#283,#284,#285));
#74=EDGE_LOOP('',(#286,#287,#288,#289));
#75=EDGE_LOOP('',(#290));
#76=EDGE_LOOP('',(#291));
#77=EDGE_LOOP('',(#292));
#78=EDGE_LOOP('',(#293));
#79=EDGE_LOOP('',(#294));
#80=EDGE_LOOP('',(#295));
#81=EDGE_LOOP('',(#296));
#82=EDGE_LOOP('',(#297));
#83=EDGE_LOOP('',(#298));
#84=EDGE_LOOP('',(#299));
#85=EDGE_LOOP('',(#300));
#86=EDGE_LOOP('',(#301));
#87=EDGE_LOOP('',(#302));
#88=EDGE_LOOP('',(#303));
#89=EDGE_LOOP('',(#304));
#90=EDGE_LOOP('',(#305));
#91=EDGE_LOOP('',(#306,#307,#308,#309,#310));
#92=EDGE_LOOP('',(#311,#312,#313,#314));
#93=EDGE_LOOP('',(#315));
#94=EDGE_LOOP('',(#316));
#95=EDGE_LOOP('',(#317));
#96=EDGE_LOOP('',(#318));
#97=LINE('',#547,#110);
#98=LINE('',#553,#111);
#99=LINE('',#559,#112);
#100=LINE('',#565,#113);
#101=LINE('',#571,#114);
#102=LINE('',#577,#115);
#103=LINE('',#584,#116);
#104=LINE('',#597,#117);
#105=LINE('',#609,#118);
#106=LINE('',#642,#119);
#107=LINE('',#648,#120);
#108=LINE('',#659,#121);
#109=LINE('',#661,#122);
#110=VECTOR('',#431,0.067);
#111=VECTOR('',#438,0.067);
#112=VECTOR('',#445,0.067);
#113=VECTOR('',#452,0.067);
#114=VECTOR('',#459,0.067);
#115=VECTOR('',#466,0.067);
#116=VECTOR('',#473,0.433070866141732);
#117=VECTOR('',#490,0.62992125984252);
#118=VECTOR('',#505,0.62992125984252);
#119=VECTOR('',#512,0.511811023622047);
#120=VECTOR('',#519,0.62992125984252);
#121=VECTOR('',#534,0.433070866141732);
#122=VECTOR('',#537,0.866141732283464);
#123=CIRCLE('',#375,0.067);
#124=CIRCLE('',#376,0.067);
#125=CIRCLE('',#378,0.067);
#126=CIRCLE('',#379,0.067);
#127=CIRCLE('',#381,0.067);
#128=CIRCLE('',#382,0.067);
#129=CIRCLE('',#384,0.067);
#130=CIRCLE('',#385,0.067);
#131=CIRCLE('',#387,0.067);
#132=CIRCLE('',#388,0.067);
#133=CIRCLE('',#390,0.067);
#134=CIRCLE('',#391,0.067);
#135=CIRCLE('',#393,0.433070866141732);
#136=CIRCLE('',#394,0.433070866141732);
#137=CIRCLE('',#395,0.433070866141732);
#138=CIRCLE('',#397,0.433070866141732);
#139=CIRCLE('',#398,0.433070866141732);
#140=CIRCLE('',#399,0.0669291338582677);
#141=CIRCLE('',#401,0.62992125984252);
#142=CIRCLE('',#402,0.62992125984252);
#143=CIRCLE('',#404,0.62992125984252);
#144=CIRCLE('',#407,0.62992125984252);
#145=CIRCLE('',#408,0.62992125984252);
#146=CIRCLE('',#409,0.62992125984252);
#147=CIRCLE('',#411,0.511811023622047);
#148=CIRCLE('',#412,0.511811023622047);
#149=CIRCLE('',#414,0.62992125984252);
#150=CIRCLE('',#415,0.62992125984252);
#151=CIRCLE('',#417,0.866141732283465);
#152=CIRCLE('',#419,0.866141732283465);
#153=CIRCLE('',#421,0.433070866141732);
#154=VERTEX_POINT('',#544);
#155=VERTEX_POINT('',#546);
#156=VERTEX_POINT('',#550);
#157=VERTEX_POINT('',#552);
#158=VERTEX_POINT('',#556);
#159=VERTEX_POINT('',#558);
#160=VERTEX_POINT('',#562);
#161=VERTEX_POINT('',#564);
#162=VERTEX_POINT('',#568);
#163=VERTEX_POINT('',#570);
#164=VERTEX_POINT('',#574);
#165=VERTEX_POINT('',#576);
#166=VERTEX_POINT('',#580);
#167=VERTEX_POINT('',#581);
#168=VERTEX_POINT('',#583);
#169=VERTEX_POINT('',#588);
#170=VERTEX_POINT('',#589);
#171=VERTEX_POINT('',#594);
#172=VERTEX_POINT('',#596);
#173=VERTEX_POINT('',#598);
#174=VERTEX_POINT('',#600);
#175=VERTEX_POINT('',#605);
#176=VERTEX_POINT('',#608);
#177=VERTEX_POINT('',#639);
#178=VERTEX_POINT('',#641);
#179=VERTEX_POINT('',#645);
#180=VERTEX_POINT('',#647);
#181=VERTEX_POINT('',#651);
#182=VERTEX_POINT('',#654);
#183=VERTEX_POINT('',#657);
#184=EDGE_CURVE('',#154,#154,#123,.T.);
#185=EDGE_CURVE('',#154,#155,#97,.T.);
#186=EDGE_CURVE('',#155,#155,#124,.T.);
#187=EDGE_CURVE('',#156,#156,#125,.T.);
#188=EDGE_CURVE('',#156,#157,#98,.T.);
#189=EDGE_CURVE('',#157,#157,#126,.T.);
#190=EDGE_CURVE('',#158,#158,#127,.T.);
#191=EDGE_CURVE('',#158,#159,#99,.T.);
#192=EDGE_CURVE('',#159,#159,#128,.T.);
#193=EDGE_CURVE('',#160,#160,#129,.T.);
#194=EDGE_CURVE('',#160,#161,#100,.T.);
#195=EDGE_CURVE('',#161,#161,#130,.T.);
#196=EDGE_CURVE('',#162,#162,#131,.T.);
#197=EDGE_CURVE('',#162,#163,#101,.T.);
#198=EDGE_CURVE('',#163,#163,#132,.T.);
#199=EDGE_CURVE('',#164,#164,#133,.T.);
#200=EDGE_CURVE('',#164,#165,#102,.T.);
#201=EDGE_CURVE('',#165,#165,#134,.T.);
#202=EDGE_CURVE('',#166,#167,#135,.T.);
#203=EDGE_CURVE('',#166,#168,#103,.T.);
#204=EDGE_CURVE('',#168,#168,#136,.T.);
#205=EDGE_CURVE('',#167,#166,#137,.T.);
#206=EDGE_CURVE('',#169,#170,#138,.T.);
#207=EDGE_CURVE('',#170,#169,#139,.T.);
#208=EDGE_CURVE('',#170,#167,#140,.T.);
#209=EDGE_CURVE('',#171,#171,#141,.T.);
#210=EDGE_CURVE('',#171,#172,#104,.T.);
#211=EDGE_CURVE('',#172,#173,#142,.T.);
#212=EDGE_CURVE('',#174,#173,#38,.T.);
#213=EDGE_CURVE('',#174,#172,#143,.T.);
#214=EDGE_CURVE('',#174,#175,#144,.T.);
#215=EDGE_CURVE('',#175,#173,#145,.T.);
#216=EDGE_CURVE('',#175,#176,#105,.T.);
#217=EDGE_CURVE('',#176,#176,#146,.T.);
#218=EDGE_CURVE('',#177,#177,#147,.T.);
#219=EDGE_CURVE('',#177,#178,#106,.T.);
#220=EDGE_CURVE('',#178,#178,#148,.T.);
#221=EDGE_CURVE('',#179,#179,#149,.T.);
#222=EDGE_CURVE('',#179,#180,#107,.T.);
#223=EDGE_CURVE('',#180,#180,#150,.T.);
#224=EDGE_CURVE('',#181,#181,#151,.T.);
#225=EDGE_CURVE('',#182,#182,#152,.T.);
#226=EDGE_CURVE('',#183,#183,#153,.T.);
#227=EDGE_CURVE('',#183,#169,#108,.T.);
#228=EDGE_CURVE('',#182,#181,#109,.T.);
#229=ORIENTED_EDGE('',*,*,#184,.F.);
#230=ORIENTED_EDGE('',*,*,#185,.T.);
#231=ORIENTED_EDGE('',*,*,#186,.F.);
#232=ORIENTED_EDGE('',*,*,#185,.F.);
#233=ORIENTED_EDGE('',*,*,#187,.F.);
#234=ORIENTED_EDGE('',*,*,#188,.T.);
#235=ORIENTED_EDGE('',*,*,#189,.F.);
#236=ORIENTED_EDGE('',*,*,#188,.F.);
#237=ORIENTED_EDGE('',*,*,#190,.F.);
#238=ORIENTED_EDGE('',*,*,#191,.T.);
#239=ORIENTED_EDGE('',*,*,#192,.F.);
#240=ORIENTED_EDGE('',*,*,#191,.F.);
#241=ORIENTED_EDGE('',*,*,#193,.F.);
#242=ORIENTED_EDGE('',*,*,#194,.T.);
#243=ORIENTED_EDGE('',*,*,#195,.F.);
#244=ORIENTED_EDGE('',*,*,#194,.F.);
#245=ORIENTED_EDGE('',*,*,#196,.F.);
#246=ORIENTED_EDGE('',*,*,#197,.T.);
#247=ORIENTED_EDGE('',*,*,#198,.F.);
#248=ORIENTED_EDGE('',*,*,#197,.F.);
#249=ORIENTED_EDGE('',*,*,#199,.F.);
#250=ORIENTED_EDGE('',*,*,#200,.T.);
#251=ORIENTED_EDGE('',*,*,#201,.F.);
#252=ORIENTED_EDGE('',*,*,#200,.F.);
#253=ORIENTED_EDGE('',*,*,#202,.F.);
#254=ORIENTED_EDGE('',*,*,#203,.T.);
#255=ORIENTED_EDGE('',*,*,#204,.F.);
#256=ORIENTED_EDGE('',*,*,#203,.F.);
#257=ORIENTED_EDGE('',*,*,#205,.F.);
#258=ORIENTED_EDGE('',*,*,#206,.F.);
#259=ORIENTED_EDGE('',*,*,#207,.F.);
#260=ORIENTED_EDGE('',*,*,#208,.T.);
#261=ORIENTED_EDGE('',*,*,#205,.T.);
#262=ORIENTED_EDGE('',*,*,#202,.T.);
#263=ORIENTED_EDGE('',*,*,#208,.F.);
#264=ORIENTED_EDGE('',*,*,#209,.F.);
#265=ORIENTED_EDGE('',*,*,#210,.T.);
#266=ORIENTED_EDGE('',*,*,#211,.T.);
#267=ORIENTED_EDGE('',*,*,#212,.F.);
#268=ORIENTED_EDGE('',*,*,#213,.T.);
#269=ORIENTED_EDGE('',*,*,#210,.F.);
#270=ORIENTED_EDGE('',*,*,#209,.T.);
#271=ORIENTED_EDGE('',*,*,#204,.T.);
#272=ORIENTED_EDGE('',*,*,#214,.F.);
#273=ORIENTED_EDGE('',*,*,#212,.T.);
#274=ORIENTED_EDGE('',*,*,#215,.F.);
#275=ORIENTED_EDGE('',*,*,#216,.T.);
#276=ORIENTED_EDGE('',*,*,#217,.F.);
#277=ORIENTED_EDGE('',*,*,#216,.F.);
#278=ORIENTED_EDGE('',*,*,#214,.T.);
#279=ORIENTED_EDGE('',*,*,#215,.T.);
#280=ORIENTED_EDGE('',*,*,#211,.F.);
#281=ORIENTED_EDGE('',*,*,#213,.F.);
#282=ORIENTED_EDGE('',*,*,#218,.F.);
#283=ORIENTED_EDGE('',*,*,#219,.T.);
#284=ORIENTED_EDGE('',*,*,#220,.F.);
#285=ORIENTED_EDGE('',*,*,#219,.F.);
#286=ORIENTED_EDGE('',*,*,#221,.F.);
#287=ORIENTED_EDGE('',*,*,#222,.T.);
#288=ORIENTED_EDGE('',*,*,#223,.F.);
#289=ORIENTED_EDGE('',*,*,#222,.F.);
#290=ORIENTED_EDGE('',*,*,#224,.T.);
#291=ORIENTED_EDGE('',*,*,#184,.T.);
#292=ORIENTED_EDGE('',*,*,#187,.T.);
#293=ORIENTED_EDGE('',*,*,#190,.T.);
#294=ORIENTED_EDGE('',*,*,#193,.T.);
#295=ORIENTED_EDGE('',*,*,#196,.T.);
#296=ORIENTED_EDGE('',*,*,#199,.T.);
#297=ORIENTED_EDGE('',*,*,#217,.T.);
#298=ORIENTED_EDGE('',*,*,#225,.T.);
#299=ORIENTED_EDGE('',*,*,#186,.T.);
#300=ORIENTED_EDGE('',*,*,#189,.T.);
#301=ORIENTED_EDGE('',*,*,#192,.T.);
#302=ORIENTED_EDGE('',*,*,#195,.T.);
#303=ORIENTED_EDGE('',*,*,#198,.T.);
#304=ORIENTED_EDGE('',*,*,#201,.T.);
#305=ORIENTED_EDGE('',*,*,#223,.T.);
#306=ORIENTED_EDGE('',*,*,#226,.F.);
#307=ORIENTED_EDGE('',*,*,#227,.T.);
#308=ORIENTED_EDGE('',*,*,#206,.T.);
#309=ORIENTED_EDGE('',*,*,#207,.T.);
#310=ORIENTED_EDGE('',*,*,#227,.F.);
#311=ORIENTED_EDGE('',*,*,#225,.F.);
#312=ORIENTED_EDGE('',*,*,#228,.T.);
#313=ORIENTED_EDGE('',*,*,#224,.F.);
#314=ORIENTED_EDGE('',*,*,#228,.F.);
#315=ORIENTED_EDGE('',*,*,#220,.T.);
#316=ORIENTED_EDGE('',*,*,#226,.T.);
#317=ORIENTED_EDGE('',*,*,#221,.T.);
#318=ORIENTED_EDGE('',*,*,#218,.T.);
#319=CYLINDRICAL_SURFACE('',#374,0.067);
#320=CYLINDRICAL_SURFACE('',#377,0.067);
#321=CYLINDRICAL_SURFACE('',#380,0.067);
#322=CYLINDRICAL_SURFACE('',#383,0.067);
#323=CYLINDRICAL_SURFACE('',#386,0.067);
#324=CYLINDRICAL_SURFACE('',#389,0.067);
#325=CYLINDRICAL_SURFACE('',#392,0.433070866141732);
#326=CYLINDRICAL_SURFACE('',#400,0.62992125984252);
#327=CYLINDRICAL_SURFACE('',#406,0.62992125984252);
#328=CYLINDRICAL_SURFACE('',#410,0.511811023622047);
#329=CYLINDRICAL_SURFACE('',#413,0.62992125984252);
#330=CYLINDRICAL_SURFACE('',#420,0.433070866141732);
#331=CYLINDRICAL_SURFACE('',#422,0.866141732283465);
#332=ADVANCED_FACE('',(#40),#319,.F.);
#333=ADVANCED_FACE('',(#41),#320,.F.);
#334=ADVANCED_FACE('',(#42),#321,.F.);
#335=ADVANCED_FACE('',(#43),#322,.F.);
#336=ADVANCED_FACE('',(#44),#323,.F.);
#337=ADVANCED_FACE('',(#45),#324,.F.);
#338=ADVANCED_FACE('',(#46),#325,.F.);
#339=ADVANCED_FACE('',(#47),#39,.F.);
#340=ADVANCED_FACE('',(#48),#326,.T.);
#341=ADVANCED_FACE('',(#49,#16),#33,.T.);
#342=ADVANCED_FACE('',(#50),#327,.T.);
#343=ADVANCED_FACE('',(#51),#15,.F.);
#344=ADVANCED_FACE('',(#52),#328,.F.);
#345=ADVANCED_FACE('',(#53),#329,.T.);
#346=ADVANCED_FACE('',(#54,#17,#18,#19,#20,#21,#22,#23),#34,.T.);
#347=ADVANCED_FACE('',(#55,#24,#25,#26,#27,#28,#29,#30),#35,.F.);
#348=ADVANCED_FACE('',(#56),#330,.F.);
#349=ADVANCED_FACE('',(#57),#331,.T.);
#350=ADVANCED_FACE('',(#58,#31),#36,.F.);
#351=ADVANCED_FACE('',(#59,#32),#37,.F.);
#352=CLOSED_SHELL('',(#332,#333,#334,#335,#336,#337,#338,#339,#340,#341,
#342,#343,#344,#345,#346,#347,#348,#349,#350,#351));
#353=DERIVED_UNIT_ELEMENT(#355,1.);
#354=DERIVED_UNIT_ELEMENT(#672,-3.);
#355=(
CONVERSION_BASED_UNIT('gram',#357)
MASS_UNIT()
NAMED_UNIT(#669)
);
#356=(
MASS_UNIT()
NAMED_UNIT(*)
SI_UNIT(.KILO.,.GRAM.)
);
#357=MASS_MEASURE_WITH_UNIT(MASS_MEASURE(0.001),#356);
#358=DERIVED_UNIT((#353,#354));
#359=MEASURE_REPRESENTATION_ITEM('density measure',
POSITIVE_RATIO_MEASURE(1.),#358);
#360=PROPERTY_DEFINITION_REPRESENTATION(#365,#362);
#361=PROPERTY_DEFINITION_REPRESENTATION(#366,#363);
#362=REPRESENTATION('material name',(#364),#666);
#363=REPRESENTATION('density',(#359),#666);
#364=DESCRIPTIVE_REPRESENTATION_ITEM('Generic','Generic');
#365=PROPERTY_DEFINITION('material property','material name',#680);
#366=PROPERTY_DEFINITION('material property','density of part',#680);
#367=DATE_TIME_ROLE('creation_date');
#368=APPLIED_DATE_AND_TIME_ASSIGNMENT(#369,#367,(#680));
#369=DATE_AND_TIME(#370,#371);
#370=CALENDAR_DATE(2026,16,6);
#371=LOCAL_TIME(0,0,0.,#372);
#372=COORDINATED_UNIVERSAL_TIME_OFFSET(0,0,.BEHIND.);
#373=AXIS2_PLACEMENT_3D('',#542,#425,#426);
#374=AXIS2_PLACEMENT_3D('',#543,#427,#428);
#375=AXIS2_PLACEMENT_3D('',#545,#429,#430);
#376=AXIS2_PLACEMENT_3D('',#548,#432,#433);
#377=AXIS2_PLACEMENT_3D('',#549,#434,#435);
#378=AXIS2_PLACEMENT_3D('',#551,#436,#437);
#379=AXIS2_PLACEMENT_3D('',#554,#439,#440);
#380=AXIS2_PLACEMENT_3D('',#555,#441,#442);
#381=AXIS2_PLACEMENT_3D('',#557,#443,#444);
#382=AXIS2_PLACEMENT_3D('',#560,#446,#447);
#383=AXIS2_PLACEMENT_3D('',#561,#448,#449);
#384=AXIS2_PLACEMENT_3D('',#563,#450,#451);
#385=AXIS2_PLACEMENT_3D('',#566,#453,#454);
#386=AXIS2_PLACEMENT_3D('',#567,#455,#456);
#387=AXIS2_PLACEMENT_3D('',#569,#457,#458);
#388=AXIS2_PLACEMENT_3D('',#572,#460,#461);
#389=AXIS2_PLACEMENT_3D('',#573,#462,#463);
#390=AXIS2_PLACEMENT_3D('',#575,#464,#465);
#391=AXIS2_PLACEMENT_3D('',#578,#467,#468);
#392=AXIS2_PLACEMENT_3D('',#579,#469,#470);
#393=AXIS2_PLACEMENT_3D('',#582,#471,#472);
#394=AXIS2_PLACEMENT_3D('',#585,#474,#475);
#395=AXIS2_PLACEMENT_3D('',#586,#476,#477);
#396=AXIS2_PLACEMENT_3D('',#587,#478,#479);
#397=AXIS2_PLACEMENT_3D('',#590,#480,#481);
#398=AXIS2_PLACEMENT_3D('',#591,#482,#483);
#399=AXIS2_PLACEMENT_3D('',#592,#484,#485);
#400=AXIS2_PLACEMENT_3D('',#593,#486,#487);
#401=AXIS2_PLACEMENT_3D('',#595,#488,#489);
#402=AXIS2_PLACEMENT_3D('',#599,#491,#492);
#403=AXIS2_PLACEMENT_3D('',#601,#493,#494);
#404=AXIS2_PLACEMENT_3D('',#602,#495,#496);
#405=AXIS2_PLACEMENT_3D('',#603,#497,#498);
#406=AXIS2_PLACEMENT_3D('',#604,#499,#500);
#407=AXIS2_PLACEMENT_3D('',#606,#501,#502);
#408=AXIS2_PLACEMENT_3D('',#607,#503,#504);
#409=AXIS2_PLACEMENT_3D('',#610,#506,#507);
#410=AXIS2_PLACEMENT_3D('',#638,#508,#509);
#411=AXIS2_PLACEMENT_3D('',#640,#510,#511);
#412=AXIS2_PLACEMENT_3D('',#643,#513,#514);
#413=AXIS2_PLACEMENT_3D('',#644,#515,#516);
#414=AXIS2_PLACEMENT_3D('',#646,#517,#518);
#415=AXIS2_PLACEMENT_3D('',#649,#520,#521);
#416=AXIS2_PLACEMENT_3D('',#650,#522,#523);
#417=AXIS2_PLACEMENT_3D('',#652,#524,#525);
#418=AXIS2_PLACEMENT_3D('',#653,#526,#527);
#419=AXIS2_PLACEMENT_3D('',#655,#528,#529);
#420=AXIS2_PLACEMENT_3D('',#656,#530,#531);
#421=AXIS2_PLACEMENT_3D('',#658,#532,#533);
#422=AXIS2_PLACEMENT_3D('',#660,#535,#536);
#423=AXIS2_PLACEMENT_3D('',#662,#538,#539);
#424=AXIS2_PLACEMENT_3D('',#663,#540,#541);
#425=DIRECTION('axis',(0.,0.,1.));
#426=DIRECTION('refdir',(1.,0.,0.));
#427=DIRECTION('center_axis',(0.,0.,1.));
#428=DIRECTION('ref_axis',(0.707106781186547,0.707106781186548,0.));
#429=DIRECTION('center_axis',(0.,0.,-1.));
#430=DIRECTION('ref_axis',(0.707106781186547,0.707106781186548,0.));
#431=DIRECTION('',(0.,0.,-1.));
#432=DIRECTION('center_axis',(0.,0.,1.));
#433=DIRECTION('ref_axis',(0.707106781186547,0.707106781186548,0.));
#434=DIRECTION('center_axis',(0.,0.,1.));
#435=DIRECTION('ref_axis',(-1.63095402606822E-16,1.,0.));
#436=DIRECTION('center_axis',(0.,0.,-1.));
#437=DIRECTION('ref_axis',(-1.63095402606822E-16,1.,0.));
#438=DIRECTION('',(0.,0.,-1.));
#439=DIRECTION('center_axis',(0.,0.,1.));
#440=DIRECTION('ref_axis',(-1.63095402606822E-16,1.,0.));
#441=DIRECTION('center_axis',(0.,0.,1.));
#442=DIRECTION('ref_axis',(-1.,-1.63095402606822E-16,0.));
#443=DIRECTION('center_axis',(0.,0.,-1.));
#444=DIRECTION('ref_axis',(-1.,-1.63095402606822E-16,0.));
#445=DIRECTION('',(0.,0.,-1.));
#446=DIRECTION('center_axis',(0.,0.,1.));
#447=DIRECTION('ref_axis',(-1.,-1.63095402606822E-16,0.));
#448=DIRECTION('center_axis',(0.,0.,1.));
#449=DIRECTION('ref_axis',(0.,-1.,0.));
#450=DIRECTION('center_axis',(0.,0.,-1.));
#451=DIRECTION('ref_axis',(0.,-1.,0.));
#452=DIRECTION('',(0.,0.,-1.));
#453=DIRECTION('center_axis',(0.,0.,1.));
#454=DIRECTION('ref_axis',(0.,-1.,0.));
#455=DIRECTION('center_axis',(0.,0.,1.));
#456=DIRECTION('ref_axis',(0.707106781186548,-0.707106781186548,0.));
#457=DIRECTION('center_axis',(0.,0.,-1.));
#458=DIRECTION('ref_axis',(0.707106781186548,-0.707106781186548,0.));
#459=DIRECTION('',(0.,0.,-1.));
#460=DIRECTION('center_axis',(0.,0.,1.));
#461=DIRECTION('ref_axis',(0.707106781186548,-0.707106781186548,0.));
#462=DIRECTION('center_axis',(0.,0.,1.));
#463=DIRECTION('ref_axis',(1.,0.,0.));
#464=DIRECTION('center_axis',(0.,0.,-1.));
#465=DIRECTION('ref_axis',(1.,0.,0.));
#466=DIRECTION('',(0.,0.,-1.));
#467=DIRECTION('center_axis',(0.,0.,1.));
#468=DIRECTION('ref_axis',(1.,0.,0.));
#469=DIRECTION('center_axis',(-0.707106781186547,-0.707106781186548,7.45960682292374E-16));
#470=DIRECTION('ref_axis',(-0.500000000000001,0.5,-0.707106781186547));
#471=DIRECTION('center_axis',(-0.707106781186547,-0.707106781186548,9.49410759657493E-16));
#472=DIRECTION('ref_axis',(-0.500000000000001,0.5,-0.707106781186547));
#473=DIRECTION('',(-0.707106781186547,-0.707106781186548,7.45960682292374E-16));
#474=DIRECTION('center_axis',(0.707106781186547,0.707106781186548,-9.49410759657493E-16));
#475=DIRECTION('ref_axis',(-0.500000000000001,0.5,-0.707106781186547));
#476=DIRECTION('center_axis',(-0.707106781186547,-0.707106781186548,9.49410759657493E-16));
#477=DIRECTION('ref_axis',(-0.500000000000001,0.5,-0.707106781186547));
#478=DIRECTION('center_axis',(0.707106781186548,-0.707106781186547,-3.06658683336675E-17));
#479=DIRECTION('ref_axis',(0.,0.,-1.));
#480=DIRECTION('center_axis',(0.,0.,1.));
#481=DIRECTION('ref_axis',(-1.,-1.3363823550461E-49,0.));
#482=DIRECTION('center_axis',(0.,0.,1.));
#483=DIRECTION('ref_axis',(-1.,-1.3363823550461E-49,0.));
#484=DIRECTION('center_axis',(0.707106781186548,-0.707106781186547,-3.06658683336675E-17));
#485=DIRECTION('ref_axis',(-2.168404344971E-17,2.16840434497103E-17,-1.));
#486=DIRECTION('center_axis',(-0.707106781186547,-0.707106781186548,7.45960682292374E-16));
#487=DIRECTION('ref_axis',(0.500000000000001,-0.5,0.707106781186547));
#488=DIRECTION('center_axis',(-0.707106781186547,-0.707106781186548,9.49410759657493E-16));
#489=DIRECTION('ref_axis',(0.500000000000001,-0.499999999999999,0.707106781186547));
#490=DIRECTION('',(0.707106781186547,0.707106781186548,-7.45960682292374E-16));
#491=DIRECTION('center_axis',(-0.707106781186547,-0.707106781186548,9.49410759657493E-16));
#492=DIRECTION('ref_axis',(0.500000000000001,-0.499999999999999,0.707106781186547));
#493=DIRECTION('center_axis',(0.5,0.5,-0.707106781186548));
#494=DIRECTION('ref_axis',(0.5,0.5,0.707106781186547));
#495=DIRECTION('center_axis',(-0.707106781186547,-0.707106781186548,9.49410759657493E-16));
#496=DIRECTION('ref_axis',(0.500000000000001,-0.499999999999999,0.707106781186547));
#497=DIRECTION('center_axis',(-0.707106781186547,-0.707106781186548,9.49410759657493E-16));
#498=DIRECTION('ref_axis',(0.500000000000001,-0.5,0.707106781186547));
#499=DIRECTION('center_axis',(4.33680868994202E-17,0.,1.));
#500=DIRECTION('ref_axis',(1.,0.,-4.33680868994202E-17));
#501=DIRECTION('center_axis',(0.,0.,1.));
#502=DIRECTION('ref_axis',(1.,1.3363823550461E-49,0.));
#503=DIRECTION('center_axis',(0.,0.,1.));
#504=DIRECTION('ref_axis',(1.,1.3363823550461E-49,0.));
#505=DIRECTION('',(-4.33680868994202E-17,0.,-1.));
#506=DIRECTION('center_axis',(0.,0.,-1.));
#507=DIRECTION('ref_axis',(1.,0.,-4.33680868994202E-17));
#508=DIRECTION('center_axis',(0.,0.,-1.));
#509=DIRECTION('ref_axis',(-1.,0.,0.));
#510=DIRECTION('center_axis',(0.,0.,1.));
#511=DIRECTION('ref_axis',(-1.,0.,0.));
#512=DIRECTION('',(0.,0.,1.));
#513=DIRECTION('center_axis',(0.,0.,-1.));
#514=DIRECTION('ref_axis',(-1.,0.,0.));
#515=DIRECTION('center_axis',(0.,0.,-1.));
#516=DIRECTION('ref_axis',(1.,0.,0.));
#517=DIRECTION('center_axis',(0.,0.,-1.));
#518=DIRECTION('ref_axis',(1.,0.,0.));
#519=DIRECTION('',(0.,0.,1.));
#520=DIRECTION('center_axis',(0.,0.,1.));
#521=DIRECTION('ref_axis',(1.,0.,0.));
#522=DIRECTION('center_axis',(0.,0.,1.));
#523=DIRECTION('ref_axis',(1.,0.,0.));
#524=DIRECTION('center_axis',(0.,0.,1.));
#525=DIRECTION('ref_axis',(1.,0.,0.));
#526=DIRECTION('center_axis',(0.,0.,1.));
#527=DIRECTION('ref_axis',(1.,0.,0.));
#528=DIRECTION('center_axis',(0.,0.,-1.));
#529=DIRECTION('ref_axis',(1.,0.,0.));
#530=DIRECTION('center_axis',(0.,0.,-1.));
#531=DIRECTION('ref_axis',(-1.,0.,0.));
#532=DIRECTION('center_axis',(0.,0.,1.));
#533=DIRECTION('ref_axis',(-1.,0.,0.));
#534=DIRECTION('',(0.,0.,1.));
#535=DIRECTION('center_axis',(0.,0.,-1.));
#536=DIRECTION('ref_axis',(1.,0.,0.));
#537=DIRECTION('',(0.,0.,1.));
#538=DIRECTION('center_axis',(0.,0.,1.));
#539=DIRECTION('ref_axis',(1.,0.,0.));
#540=DIRECTION('center_axis',(0.,0.,1.));
#541=DIRECTION('ref_axis',(1.,0.,0.));
#542=CARTESIAN_POINT('',(0.,0.,0.));
#543=CARTESIAN_POINT('Origin',(0.52893814340726,0.52893814340726,-3.41065140027168));
#544=CARTESIAN_POINT('',(0.481561989067761,0.481561989067761,0.));
#545=CARTESIAN_POINT('Origin',(0.52893814340726,0.52893814340726,0.));
#546=CARTESIAN_POINT('',(0.481561989067761,0.481561989067761,-0.196850393700787));
#547=CARTESIAN_POINT('',(0.481561989067761,0.481561989067761,-3.41065140027168));
#548=CARTESIAN_POINT('Origin',(0.52893814340726,0.52893814340726,-0.196850393700787));
#549=CARTESIAN_POINT('Origin',(-1.31128703695885E-16,0.748031496062992,
-3.41065140027168));
#550=CARTESIAN_POINT('',(-1.1199617816694E-16,0.681031496062992,0.));
#551=CARTESIAN_POINT('Origin',(-1.31128703695885E-16,0.748031496062992,
0.));
#552=CARTESIAN_POINT('',(-1.31128703695885E-16,0.681031496062992,-0.196850393700787));
#553=CARTESIAN_POINT('',(-1.1199617816694E-16,0.681031496062992,-3.41065140027168));
#554=CARTESIAN_POINT('Origin',(-1.31128703695885E-16,0.748031496062992,
-0.196850393700787));
#555=CARTESIAN_POINT('Origin',(-0.748031496062992,-1.31128703695885E-16,
-3.41065140027168));
#556=CARTESIAN_POINT('',(-0.681031496062992,-1.1199617816694E-16,0.));
#557=CARTESIAN_POINT('Origin',(-0.748031496062992,-1.31128703695885E-16,
0.));
#558=CARTESIAN_POINT('',(-0.681031496062992,-1.31128703695885E-16,-0.196850393700787));
#559=CARTESIAN_POINT('',(-0.681031496062992,-1.1199617816694E-16,-3.41065140027168));
#560=CARTESIAN_POINT('Origin',(-0.748031496062992,-1.31128703695885E-16,
-0.196850393700787));
#561=CARTESIAN_POINT('Origin',(0.,-0.748031496062992,-3.41065140027168));
#562=CARTESIAN_POINT('',(-8.20513355428727E-18,-0.681031496062992,0.));
#563=CARTESIAN_POINT('Origin',(0.,-0.748031496062992,0.));
#564=CARTESIAN_POINT('',(0.,-0.681031496062992,-0.196850393700787));
#565=CARTESIAN_POINT('',(-8.20513355428727E-18,-0.681031496062992,-3.41065140027168));
#566=CARTESIAN_POINT('Origin',(0.,-0.748031496062992,-0.196850393700787));
#567=CARTESIAN_POINT('Origin',(0.52893814340726,-0.52893814340726,-3.41065140027168));
#568=CARTESIAN_POINT('',(0.481561989067761,-0.481561989067761,0.));
#569=CARTESIAN_POINT('Origin',(0.52893814340726,-0.52893814340726,0.));
#570=CARTESIAN_POINT('',(0.481561989067761,-0.481561989067761,-0.196850393700787));
#571=CARTESIAN_POINT('',(0.481561989067761,-0.481561989067761,-3.41065140027168));
#572=CARTESIAN_POINT('Origin',(0.52893814340726,-0.52893814340726,-0.196850393700787));
#573=CARTESIAN_POINT('Origin',(0.748031496062992,0.,-3.41065140027168));
#574=CARTESIAN_POINT('',(0.681031496062992,-8.20513355428727E-18,0.));
#575=CARTESIAN_POINT('Origin',(0.748031496062992,0.,0.));
#576=CARTESIAN_POINT('',(0.681031496062992,-8.20513355428727E-18,-0.196850393700787));
#577=CARTESIAN_POINT('',(0.681031496062992,-8.20513355428727E-18,-3.41065140027168));
#578=CARTESIAN_POINT('Origin',(0.748031496062992,0.,-0.196850393700787));
#579=CARTESIAN_POINT('Origin',(-0.353553390593273,-0.353553390593274,1.));
#580=CARTESIAN_POINT('',(-0.137017957522407,-0.570088823664139,1.30622734618315));
#581=CARTESIAN_POINT('',(-0.353553390593274,-0.353553390593274,0.566929133858268));
#582=CARTESIAN_POINT('Origin',(-0.353553390593273,-0.353553390593274,1.));
#583=CARTESIAN_POINT('',(-0.490571348115681,-0.923642214257414,1.30622734618315));
#584=CARTESIAN_POINT('',(-0.137017957522407,-0.570088823664139,1.30622734618315));
#585=CARTESIAN_POINT('Origin',(-0.707106781186547,-0.707106781186548,1.));
#586=CARTESIAN_POINT('Origin',(-0.353553390593273,-0.353553390593274,1.));
#587=CARTESIAN_POINT('Origin',(-0.353553390593274,-0.353553390593274,0.5));
#588=CARTESIAN_POINT('',(0.433070866141732,8.74191357972564E-17,0.5));
#589=CARTESIAN_POINT('',(-0.306227346183151,-0.306227346183151,0.5));
#590=CARTESIAN_POINT('Origin',(2.16840434497101E-17,0.,0.5));
#591=CARTESIAN_POINT('Origin',(2.16840434497101E-17,0.,0.5));
#592=CARTESIAN_POINT('Origin',(-0.353553390593274,-0.353553390593274,0.5));
#593=CARTESIAN_POINT('Origin',(-0.353553390593273,-0.353553390593274,1.));
#594=CARTESIAN_POINT('',(-1.02206741110781,-0.392146151265288,0.554578405551782));
#595=CARTESIAN_POINT('Origin',(-0.707106781186547,-0.707106781186548,1.));
#596=CARTESIAN_POINT('',(-0.668514020514533,-0.0385927606720139,0.554578405551781));
#597=CARTESIAN_POINT('',(-0.668514020514534,-0.038592760672014,0.554578405551781));
#598=CARTESIAN_POINT('',(-0.624478466584393,-0.0826283146021547,0.5));
#599=CARTESIAN_POINT('Origin',(-0.353553390593273,-0.353553390593274,1.));
#600=CARTESIAN_POINT('',(-0.0826283146021543,-0.624478466584393,0.5));
#601=CARTESIAN_POINT('Origin',(0.,-8.74191357972564E-17,1.));
#602=CARTESIAN_POINT('Origin',(-0.353553390593273,-0.353553390593274,1.));
#603=CARTESIAN_POINT('Origin',(-0.707106781186547,-0.707106781186548,1.));
#604=CARTESIAN_POINT('Origin',(0.,0.,0.));
#605=CARTESIAN_POINT('',(-0.62992125984252,-7.7143105458101E-17,0.5));
#606=CARTESIAN_POINT('Origin',(2.16840434497101E-17,0.,0.5));
#607=CARTESIAN_POINT('Origin',(2.16840434497101E-17,0.,0.5));
#608=CARTESIAN_POINT('',(-0.62992125984252,-7.7143105458101E-17,2.73184799366426E-17));
#609=CARTESIAN_POINT('',(-0.62992125984252,-7.7143105458101E-17,2.73184799366426E-17));
#610=CARTESIAN_POINT('Origin',(0.,0.,0.));
#611=CARTESIAN_POINT('Ctrl Pts',(-0.624478466584393,-0.0826283146021549,
0.5));
#612=CARTESIAN_POINT('Ctrl Pts',(-0.624478466584393,-0.0826283146021549,
0.5));
#613=CARTESIAN_POINT('Ctrl Pts',(-0.624478466584393,-0.0826283146021549,
0.5));
#614=CARTESIAN_POINT('Ctrl Pts',(-0.683709461999656,0.36502067072794,0.5));
#615=CARTESIAN_POINT('Ctrl Pts',(-0.683709461999654,0.365020670727942,0.774652994603628));
#616=CARTESIAN_POINT('Ctrl Pts',(-0.877918456957072,0.170811675770524,0.774652994603626));
#617=CARTESIAN_POINT('Ctrl Pts',(-0.278791171805752,0.564868370618114,0.5));
#618=CARTESIAN_POINT('Ctrl Pts',(-0.27879117180575,0.564868370618116,1.20228712722308));
#619=CARTESIAN_POINT('Ctrl Pts',(-0.775383161805207,0.068276380618659,1.20228712722307));
#620=CARTESIAN_POINT('Ctrl Pts',(0.126127118388151,0.764716070508287,0.5));
#621=CARTESIAN_POINT('Ctrl Pts',(0.126127118388155,0.764716070508291,1.62992125984253));
#622=CARTESIAN_POINT('Ctrl Pts',(-0.672847866653342,-0.0342589145332059,
1.62992125984252));
#623=CARTESIAN_POINT('Ctrl Pts',(0.445421594448219,0.445421594448219,0.5));
#624=CARTESIAN_POINT('Ctrl Pts',(0.445421594448223,0.445421594448223,1.62992125984253));
#625=CARTESIAN_POINT('Ctrl Pts',(-0.353553390593274,-0.353553390593274,
1.62992125984252));
#626=CARTESIAN_POINT('Ctrl Pts',(0.764716070508287,0.126127118388151,0.5));
#627=CARTESIAN_POINT('Ctrl Pts',(0.764716070508291,0.126127118388155,1.62992125984253));
#628=CARTESIAN_POINT('Ctrl Pts',(-0.0342589145332054,-0.672847866653342,
1.62992125984252));
#629=CARTESIAN_POINT('Ctrl Pts',(0.564868370618114,-0.278791171805752,0.5));
#630=CARTESIAN_POINT('Ctrl Pts',(0.564868370618117,-0.278791171805749,1.20228712722308));
#631=CARTESIAN_POINT('Ctrl Pts',(0.0682763806186596,-0.775383161805206,
1.20228712722307));
#632=CARTESIAN_POINT('Ctrl Pts',(0.365020670727941,-0.683709461999655,0.5));
#633=CARTESIAN_POINT('Ctrl Pts',(0.365020670727942,-0.683709461999654,0.774652994603628));
#634=CARTESIAN_POINT('Ctrl Pts',(0.170811675770525,-0.877918456957072,0.774652994603626));
#635=CARTESIAN_POINT('Ctrl Pts',(-0.0826283146021545,-0.624478466584393,
0.5));
#636=CARTESIAN_POINT('Ctrl Pts',(-0.0826283146021545,-0.624478466584393,
0.5));
#637=CARTESIAN_POINT('Ctrl Pts',(-0.0826283146021545,-0.624478466584393,
0.5));
#638=CARTESIAN_POINT('Origin',(0.,0.,0.));
#639=CARTESIAN_POINT('',(0.511811023622047,6.26787731847071E-17,-0.236220472440945));
#640=CARTESIAN_POINT('Origin',(0.,0.,-0.236220472440945));
#641=CARTESIAN_POINT('',(0.511811023622047,-6.26787731847071E-17,-0.196850393700787));
#642=CARTESIAN_POINT('',(0.511811023622047,-6.26787731847071E-17,0.));
#643=CARTESIAN_POINT('Origin',(0.,0.,-0.196850393700787));
#644=CARTESIAN_POINT('Origin',(0.,0.,0.));
#645=CARTESIAN_POINT('',(-0.62992125984252,7.7143105458101E-17,-0.236220472440945));
#646=CARTESIAN_POINT('Origin',(0.,0.,-0.236220472440945));
#647=CARTESIAN_POINT('',(-0.62992125984252,-7.7143105458101E-17,-0.196850393700787));
#648=CARTESIAN_POINT('',(-0.62992125984252,7.7143105458101E-17,0.));
#649=CARTESIAN_POINT('Origin',(0.,0.,-0.196850393700787));
#650=CARTESIAN_POINT('Origin',(0.,0.,0.));
#651=CARTESIAN_POINT('',(-0.866141732283465,1.06071770004889E-16,0.));
#652=CARTESIAN_POINT('Origin',(0.,0.,0.));
#653=CARTESIAN_POINT('Origin',(0.,0.,-0.196850393700787));
#654=CARTESIAN_POINT('',(-0.866141732283465,1.06071770004889E-16,-0.196850393700787));
#655=CARTESIAN_POINT('Origin',(0.,0.,-0.196850393700787));
#656=CARTESIAN_POINT('Origin',(0.,0.,0.));
#657=CARTESIAN_POINT('',(0.433070866141732,5.30358850024444E-17,-0.196850393700787));
#658=CARTESIAN_POINT('Origin',(0.,0.,-0.196850393700787));
#659=CARTESIAN_POINT('',(0.433070866141732,-5.30358850024444E-17,0.));
#660=CARTESIAN_POINT('Origin',(0.,0.,0.));
#661=CARTESIAN_POINT('',(-0.866141732283465,1.06071770004889E-16,0.));
#662=CARTESIAN_POINT('Origin',(0.,0.,-0.196850393700787));
#663=CARTESIAN_POINT('Origin',(0.,0.,-0.236220472440945));
#664=UNCERTAINTY_MEASURE_WITH_UNIT(LENGTH_MEASURE(0.000393700787401575),
#670,'DISTANCE_ACCURACY_VALUE',
'Maximum model space distance between geometric entities at asserted c
onnectivities');
#665=UNCERTAINTY_MEASURE_WITH_UNIT(LENGTH_MEASURE(0.000393700787401575),
#670,'DISTANCE_ACCURACY_VALUE',
'Maximum model space distance between geometric entities at asserted c
onnectivities');
#666=(
GEOMETRIC_REPRESENTATION_CONTEXT(3)
GLOBAL_UNCERTAINTY_ASSIGNED_CONTEXT((#664))
GLOBAL_UNIT_ASSIGNED_CONTEXT((#670,#674,#675))
REPRESENTATION_CONTEXT('','3D')
);
#667=(
GEOMETRIC_REPRESENTATION_CONTEXT(3)
GLOBAL_UNCERTAINTY_ASSIGNED_CONTEXT((#665))
GLOBAL_UNIT_ASSIGNED_CONTEXT((#670,#674,#675))
REPRESENTATION_CONTEXT('','3D')
);
#668=DIMENSIONAL_EXPONENTS(1.,0.,0.,0.,0.,0.,0.);
#669=DIMENSIONAL_EXPONENTS(0.,1.,0.,0.,0.,0.,0.);
#670=(
CONVERSION_BASED_UNIT('inch',#673)
LENGTH_UNIT()
NAMED_UNIT(#668)
);
#671=(
LENGTH_UNIT()
NAMED_UNIT(*)
SI_UNIT(.MILLI.,.METRE.)
);
#672=(
LENGTH_UNIT()
NAMED_UNIT(*)
SI_UNIT(.CENTI.,.METRE.)
);
#673=LENGTH_MEASURE_WITH_UNIT(LENGTH_MEASURE(25.4),#671);
#674=(
NAMED_UNIT(*)
PLANE_ANGLE_UNIT()
SI_UNIT($,.RADIAN.)
);
#675=(
NAMED_UNIT(*)
SI_UNIT($,.STERADIAN.)
SOLID_ANGLE_UNIT()
);
#676=SHAPE_DEFINITION_REPRESENTATION(#677,#678);
#677=PRODUCT_DEFINITION_SHAPE('',$,#680);
#678=SHAPE_REPRESENTATION('',(#373),#666);
#679=PRODUCT_DEFINITION_CONTEXT('part definition',#684,'design');
#680=PRODUCT_DEFINITION('Outlet','Outlet',#681,#679);
#681=PRODUCT_DEFINITION_FORMATION('',$,#686);
#682=PRODUCT_RELATED_PRODUCT_CATEGORY('Outlet','Outlet',(#686));
#683=APPLICATION_PROTOCOL_DEFINITION('international standard',
'automotive_design',2009,#684);
#684=APPLICATION_CONTEXT(
'Core Data for Automotive Mechanical Design Process');
#685=PRODUCT_CONTEXT('part definition',#684,'mechanical');
#686=PRODUCT('Outlet','Outlet',$,(#685));
#687=PRESENTATION_STYLE_ASSIGNMENT((#688));
#688=SURFACE_STYLE_USAGE(.BOTH.,#691);
#689=SURFACE_STYLE_RENDERING_WITH_PROPERTIES($,#695,(#690));
#690=SURFACE_STYLE_TRANSPARENT(0.);
#691=SURFACE_SIDE_STYLE('',(#692,#689));
#692=SURFACE_STYLE_FILL_AREA(#693);
#693=FILL_AREA_STYLE('',(#694));
#694=FILL_AREA_STYLE_COLOUR('',#695);
#695=COLOUR_RGB('',0.749019607843137,0.749019607843137,0.749019607843137);
ENDSEC;
END-ISO-10303-21;
